<svg xmlns="http://www.w3.org/2000/svg" xmlns:xlink="http://www.w3.org/1999/xlink" width="337" height="242" viewBox="0 0 337 242">
  <defs>
    <linearGradient id="linear-gradient" x1="-165.734" y1="-212.319" x2="-165.734" y2="-212.344" gradientUnits="objectBoundingBox">
      <stop offset="0" stop-color="#fff"/>
      <stop offset="1" stop-color="#d2e6ee"/>
    </linearGradient>
    <linearGradient id="linear-gradient-2" x1="-1828.522" y1="-1587.104" x2="-1828.522" y2="-1587.267" xlink:href="#linear-gradient"/>
    <linearGradient id="linear-gradient-3" x1="-1831.505" y1="-1587.245" x2="-1831.505" y2="-1587.407" xlink:href="#linear-gradient"/>
    <linearGradient id="linear-gradient-4" x1="-1832.022" y1="-1585.816" x2="-1832.022" y2="-1585.979" xlink:href="#linear-gradient"/>
    <linearGradient id="linear-gradient-5" x1="-1833.591" y1="-1586.947" x2="-1833.591" y2="-1587.109" xlink:href="#linear-gradient"/>
    <linearGradient id="linear-gradient-6" x1="-1836.754" y1="-1584.983" x2="-1836.754" y2="-1585.145" xlink:href="#linear-gradient"/>
    <linearGradient id="linear-gradient-7" x1="-1838.032" y1="-1585.119" x2="-1838.032" y2="-1585.281" xlink:href="#linear-gradient"/>
    <linearGradient id="linear-gradient-8" x1="-1840.076" y1="-1584" x2="-1840.076" y2="-1584.162" xlink:href="#linear-gradient"/>
    <linearGradient id="linear-gradient-9" x1="-762.701" y1="-222.909" x2="-762.701" y2="-222.936" xlink:href="#linear-gradient"/>
    <linearGradient id="linear-gradient-10" x1="-659.327" y1="-173.816" x2="-659.327" y2="-173.837" xlink:href="#linear-gradient"/>
    <linearGradient id="linear-gradient-11" x1="-765.047" y1="-222.812" x2="-765.047" y2="-222.838" xlink:href="#linear-gradient"/>
    <linearGradient id="linear-gradient-12" x1="-87.041" y1="-152.566" x2="-87.041" y2="-152.585" xlink:href="#linear-gradient"/>
    <linearGradient id="linear-gradient-13" x1="-167.117" y1="-127.399" x2="-167.117" y2="-127.408" xlink:href="#linear-gradient"/>
    <linearGradient id="linear-gradient-14" x1="-119.094" y1="-200.414" x2="-119.094" y2="-200.427" xlink:href="#linear-gradient"/>
    <linearGradient id="linear-gradient-15" x1="-293.162" y1="-96.738" x2="-293.162" y2="-96.749" xlink:href="#linear-gradient"/>
    <linearGradient id="linear-gradient-16" x1="-136.431" y1="-78.711" x2="-136.431" y2="-78.72" xlink:href="#linear-gradient"/>
    <linearGradient id="linear-gradient-17" x1="-92.745" y1="-79.193" x2="-92.736" y2="-79.193" gradientUnits="objectBoundingBox">
      <stop offset="0" stop-color="#c0bff6"/>
      <stop offset="0.294" stop-color="#c4c3f6"/>
      <stop offset="0.64" stop-color="#d2d2f9"/>
      <stop offset="1" stop-color="#e9e9fd"/>
    </linearGradient>
    <linearGradient id="linear-gradient-18" x1="-65.363" y1="-116.348" x2="-65.356" y2="-116.348" xlink:href="#linear-gradient"/>
    <linearGradient id="linear-gradient-19" x1="-252.306" y1="-472.922" x2="-252.281" y2="-472.922" xlink:href="#linear-gradient-17"/>
    <clipPath id="clip-path">
      <path id="Trazado_118875" data-name="Trazado 118875" d="M4258.434,4731.883l39.46,22.782L4293,4783.514l-39.435-22.767Z" transform="translate(-4253.566 -4731.883)" fill="none"/>
    </clipPath>
    <linearGradient id="linear-gradient-20" x1="-65.753" y1="-115.973" x2="-65.747" y2="-115.973" xlink:href="#linear-gradient-17"/>
    <linearGradient id="linear-gradient-21" x1="-254.912" y1="-470.67" x2="-254.887" y2="-470.67" xlink:href="#linear-gradient-17"/>
    <linearGradient id="linear-gradient-22" x1="-94.707" y1="-79.893" x2="-94.698" y2="-79.893" xlink:href="#linear-gradient-17"/>
    <linearGradient id="linear-gradient-23" x1="-66.754" y1="-117.371" x2="-66.748" y2="-117.371" xlink:href="#linear-gradient"/>
    <linearGradient id="linear-gradient-24" x1="-257.641" y1="-477.017" x2="-257.616" y2="-477.017" xlink:href="#linear-gradient-17"/>
    <clipPath id="clip-path-2">
      <path id="Trazado_118876" data-name="Trazado 118876" d="M4356.126,4772.591l39.461,22.783-4.894,28.847-39.434-22.766Z" transform="translate(-4351.26 -4772.591)" fill="none"/>
    </clipPath>
    <linearGradient id="linear-gradient-25" x1="-67.144" y1="-116.995" x2="-67.138" y2="-116.995" xlink:href="#linear-gradient-17"/>
    <linearGradient id="linear-gradient-26" x1="-260.254" y1="-474.788" x2="-260.229" y2="-474.788" xlink:href="#linear-gradient-17"/>
  </defs>
  <g id="Grupo_1093331" data-name="Grupo 1093331" transform="translate(9660 4953)">
    <rect id="Rectángulo_388516" data-name="Rectángulo 388516" width="337" height="242" rx="16" transform="translate(-9660 -4953)" fill="#b0c5fd"/>
    <g id="Grupo_1093329" data-name="Grupo 1093329" transform="translate(-13868.695 -9567.097)">
      <g id="Group_41936" data-name="Group 41936" transform="translate(4228.668 4653.058)">
        <path id="Path_95342" data-name="Path 95342" d="M4485.566,4802.311c-58.739,33.914-153.973,33.914-212.712,0s-58.74-88.9,0-122.81,153.974-33.908,212.712,0S4544.305,4768.4,4485.566,4802.311Z" transform="translate(-4228.799 -4654.068)" fill="none" stroke="#e8e8e8" stroke-linecap="round" stroke-linejoin="round" stroke-width="1"/>
        <path id="Path_95343" data-name="Path 95343" d="M4464.735,4790.285c-46.471,26.832-121.815,26.832-168.289,0s-46.473-70.332,0-97.162,121.818-26.83,168.289,0S4511.2,4763.453,4464.735,4790.285Z" transform="translate(-4230.181 -4654.866)" fill="none" stroke="#e8e8e8" stroke-linecap="round" stroke-linejoin="round" stroke-width="2"/>
        <path id="Path_95344" data-name="Path 95344" d="M4445,4778.887c-34.846,20.115-91.342,20.115-126.189,0s-34.846-52.736,0-72.856,91.343-20.115,126.189,0S4479.842,4758.768,4445,4778.887Z" transform="translate(-4231.491 -4655.622)" fill="none" stroke="#12263f" stroke-linecap="round" stroke-linejoin="round" stroke-width="3"/>
        <path id="Path_95345" data-name="Path 95345" d="M4427.438,4768.752c-24.506,14.147-64.238,14.147-88.745,0s-24.508-37.09,0-51.239,64.24-14.149,88.745,0S4451.946,4754.6,4427.438,4768.752Z" transform="translate(-4232.654 -4656.294)" fill="none" stroke="#12263f" stroke-linecap="round" stroke-linejoin="round" stroke-width="3"/>
        <path id="Path_95346" data-name="Path 95346" d="M4411.069,4759.3c-14.866,8.583-38.969,8.583-53.832,0s-14.866-22.5,0-31.083,38.97-8.583,53.832,0S4425.935,4750.717,4411.069,4759.3Z" transform="translate(-4233.741 -4656.92)" fill="none" stroke="#12263f" stroke-linecap="round" stroke-linejoin="round" stroke-width="3"/>
      </g>
      <ellipse id="Elipse_3830" data-name="Elipse 3830" cx="137.013" cy="71.568" rx="137.013" ry="71.568" transform="translate(4244.721 4668.19)" fill="none" stroke="#393939" stroke-linecap="round" stroke-linejoin="round" stroke-width="3"/>
      <g id="Group_41943" data-name="Group 41943" transform="translate(4252.674 4652.322)">
        <path id="Path_95404" data-name="Path 95404" d="M4278.271,4696.029l-22.633-13.067a3.606,3.606,0,0,1-1.2-1.237,1.457,1.457,0,0,1-.575.167v4.583a3.934,3.934,0,0,0,1.778,3.08l22.633,13.066c.981.567,1.778-.17,1.778-1.3V4695C4280.049,4696.135,4279.253,4696.6,4278.271,4696.029Z" transform="translate(-4253.861 -4654.497)" fill="url(#linear-gradient)"/>
        <path id="Path_95405" data-name="Path 95405" d="M4305.2,4681.888h-.487a3.665,3.665,0,0,1-1.277,1.363l-22.633,12.285c-.982.566-1.778.89-1.778-.246v6.311c0,1.134.793,1.593,1.778,1.027l22.631-13.066a3.931,3.931,0,0,0,1.779-3.08v-4.595Z" transform="translate(-4254.921 -4654.504)" fill="#e1eef2"/>
        <path id="Path_95406" data-name="Path 95406" d="M4301.646,4689.085l-18.722,10.809v-3.329l18.722-10.81Z" transform="translate(-4255.085 -4654.667)" fill="#393939"/>
        <g id="Group_41941" data-name="Group 41941" transform="translate(28.458 31.95)">
          <path id="Path_95407" data-name="Path 95407" d="M4283.571,4699.147l.5-.292.04.394.733-.423.04-.439.506-.292v-2.1l-1.823,1.051Z" transform="translate(-4283.571 -4687.048)" fill="url(#linear-gradient-2)"/>
          <path id="Path_95408" data-name="Path 95408" d="M4286.266,4697.59l.505-.292.04.4.733-.423.039-.439.5-.292v-2.1l-1.822,1.051Z" transform="translate(-4283.685 -4686.982)" fill="url(#linear-gradient-3)"/>
          <path id="Path_95409" data-name="Path 95409" d="M4288.963,4696.035l.505-.291.04.394.733-.423.039-.439.505-.291v-2.1l-1.822,1.051Z" transform="translate(-4283.798 -4686.917)" fill="url(#linear-gradient-4)"/>
          <path id="Path_95410" data-name="Path 95410" d="M4291.656,4694.481l.5-.292.041.394.733-.423.038-.438.506-.293v-2.1l-1.823,1.052Z" transform="translate(-4283.912 -4686.852)" fill="url(#linear-gradient-5)"/>
          <path id="Path_95411" data-name="Path 95411" d="M4294.351,4692.924l.5-.292.039.395.734-.423.039-.44.5-.292v-2.1l-1.822,1.052Z" transform="translate(-4284.025 -4686.786)" fill="url(#linear-gradient-6)"/>
          <path id="Path_95412" data-name="Path 95412" d="M4297.046,4691.367l.5-.291.039.393.734-.423.039-.438.505-.291v-2.1l-1.822,1.051Z" transform="translate(-4284.138 -4686.72)" fill="url(#linear-gradient-7)"/>
          <path id="Path_95413" data-name="Path 95413" d="M4299.741,4687.707v2.1l.5-.292.04.4.734-.423.04-.441.5-.291v-2.1Z" transform="translate(-4284.252 -4686.655)" fill="url(#linear-gradient-8)"/>
        </g>
        <path id="Path_95414" data-name="Path 95414" d="M4259.449,4670.293l-2.291-8.879c-.061-.237-.382-.37-.722-.309s-.594.3-.566.543l.995,9.117a2.483,2.483,0,0,0,.091.448l1.612,8.838a1.305,1.305,0,1,0,2.568-.468h0l-1.612-8.838A2.579,2.579,0,0,0,4259.449,4670.293Z" transform="translate(-4253.945 -4653.627)" fill="url(#linear-gradient-9)"/>
        <g id="Group_41942" data-name="Group 41942" transform="translate(2.903 16.579)">
          <path id="Path_95415" data-name="Path 95415" d="M4259.675,4671.111a2.694,2.694,0,0,0-.069-.416l-.023-.088Z" transform="translate(-4257.004 -4670.607)" fill="#cfdade"/>
          <path id="Path_95416" data-name="Path 95416" d="M4261.179,4680l-1.042-5.708a1.3,1.3,0,0,1-2.57.447l-.676-3.7.016.148a2.576,2.576,0,0,0,.091.449l1.612,8.838a1.305,1.305,0,0,0,2.568-.469Z" transform="translate(-4256.891 -4670.626)" fill="#cfdade"/>
        </g>
        <path id="Path_95417" data-name="Path 95417" d="M4264.429,4665.074l-2.738-11.338a.666.666,0,0,0-1.291.236l1.444,11.574a4.153,4.153,0,0,0,.113.572l2.053,11.25a1.344,1.344,0,1,0,2.569-.468l-2.054-11.252A4.314,4.314,0,0,0,4264.429,4665.074Z" transform="translate(-4254.137 -4653.299)" fill="url(#linear-gradient-10)"/>
        <path id="Path_95418" data-name="Path 95418" d="M4266.637,4677.4l-1.014-5.553a1.416,1.416,0,0,1-1.016,1.486,1.518,1.518,0,0,1-1.583-1.4l-1.225-6.713.1.828a4.234,4.234,0,0,0,.113.572l2.053,11.251a1.344,1.344,0,1,0,2.569-.469Z" transform="translate(-4254.195 -4653.801)" fill="#cfdade"/>
        <path id="Path_95419" data-name="Path 95419" d="M4270.468,4667.527l-2.29-8.879a.6.6,0,0,0-.724-.309c-.339.061-.594.3-.567.545l.994,9.114a2.588,2.588,0,0,0,.091.448l1.612,8.836a1.305,1.305,0,0,0,2.568-.469h0l-1.612-8.839A2.632,2.632,0,0,0,4270.468,4667.527Z" transform="translate(-4254.409 -4653.511)" fill="url(#linear-gradient-11)"/>
        <path id="Path_95420" data-name="Path 95420" d="M4272.193,4677.2l-1.433-7.853a1.3,1.3,0,0,1-2.578.1l-.362-1.983.1.921a2.517,2.517,0,0,0,.091.448l1.612,8.835a1.305,1.305,0,0,0,2.568-.468Z" transform="translate(-4254.449 -4653.896)" fill="#cfdade"/>
        <path id="Path_95421" data-name="Path 95421" d="M4280.786,4695.215a3.933,3.933,0,0,1-3.557,0l-22.631-13.066a1.085,1.085,0,0,1,0-2.055l22.632-13.065a3.93,3.93,0,0,1,3.557,0l22.631,13.065a1.084,1.084,0,0,1,0,2.055Z" transform="translate(-4253.861 -4653.86)" fill="url(#linear-gradient-12)"/>
        <path id="Path_95422" data-name="Path 95422" d="M4280.72,4692.9a3.554,3.554,0,0,1-3.206,0l-20.389-11.773a.978.978,0,0,1,0-1.853l20.389-11.771a3.548,3.548,0,0,1,3.206,0l20.39,11.772a.977.977,0,0,1,0,1.852Z" transform="translate(-4253.97 -4653.881)" fill="#e1eef2"/>
        <path id="Path_95423" data-name="Path 95423" d="M4257.126,4681.246l3.261,1.883q6.6-6.626,13.206-13.24l-16.467,9.506A.977.977,0,0,0,4257.126,4681.246Z" transform="translate(-4253.97 -4653.998)" fill="#e6f3f7"/>
        <path id="Path_95424" data-name="Path 95424" d="M4285.872,4670.321l-3.148-1.818q-8.634,8.635-17.253,17.286l3.126,1.8Z" transform="translate(-4254.35 -4653.94)" fill="#e6f3f7"/>
        <path id="Path_95425" data-name="Path 95425" d="M4294.073,4675.056l-3.146-1.817-17.274,17.271,3.149,1.818Q4285.438,4683.694,4294.073,4675.056Z" transform="translate(-4254.694 -4654.14)" fill="#e6f3f7"/>
        <path id="Path_95426" data-name="Path 95426" d="M4302.38,4679.737l-3.05-1.762-12.711,12.712,15.761-9.1A.974.974,0,0,0,4302.38,4679.737Z" transform="translate(-4255.241 -4654.339)" fill="#e6f3f7"/>
      </g>
      <g id="Group_41951" data-name="Group 41951" transform="translate(4379.5 4630.097)">
        <path id="Path_95436" data-name="Path 95436" d="M4412.369,4630.264l-25.631,14.514a.618.618,0,0,0,0,1.171l1.4,1.063a.618.618,0,0,1,0-1.17l24.93-14.394c.56-.323.817-.108,1.182-.345,0,0,.21-.065.041-.419A1.533,1.533,0,0,0,4412.369,4630.264Z" transform="translate(-4386.267 -4630.097)" fill="#393939"/>
        <path id="Path_95437" data-name="Path 95437" d="M4387.6,4664.361V4647.25c0-.646.453-.91,1.015-.586l-1.336-1.023c-.561-.324-1.015-.062-1.015.585v17.113a2.118,2.118,0,0,0,1.015,1.758c.984.469.64.118.64.118C4388.083,4665.213,4387.93,4664.9,4387.6,4664.361Z" transform="translate(-4386.265 -4630.746)" fill="#393939"/>
        <path id="Path_95438" data-name="Path 95438" d="M4414.48,4648.319a2.24,2.24,0,0,1-1.014,1.756l-24.929,14.395c-.561.323-1.015.061-1.015-.586V4646.77a2.245,2.245,0,0,1,1.015-1.757l24.93-14.393c.56-.324,1.015-.062,1.015.585Z" transform="translate(-4386.318 -4630.113)" fill="url(#linear-gradient-13)"/>
        <path id="Path_95439" data-name="Path 95439" d="M4413.5,4647.943a2.021,2.021,0,0,1-.937,1.569l-23.025,13.293c-.517.3-.937.081-.937-.487V4647.3a2.023,2.023,0,0,1,.937-1.568l23.026-13.294c.518-.3.937-.081.937.487Z" transform="translate(-4386.363 -4630.189)" fill="#1e2729"/>
        <path id="Path_95440" data-name="Path 95440" d="M4389.729,4646.207l-.187.108a1.988,1.988,0,0,0-.726.8Z" transform="translate(-4386.373 -4630.775)" fill="#2b383b"/>
        <path id="Path_95441" data-name="Path 95441" d="M4388.6,4650.8v3l17.423-17.423-7.111,4.106Z" transform="translate(-4386.363 -4630.361)" fill="#2b383b"/>
        <path id="Path_95442" data-name="Path 95442" d="M4413.5,4633.094v-.156a.876.876,0,0,0-.039-.266l-24.862,24.862v.46Z" transform="translate(-4386.363 -4630.205)" fill="#2b383b"/>
        <path id="Path_95443" data-name="Path 95443" d="M4388.781,4661.882a1.655,1.655,0,0,1-.184.156v.486a.6.6,0,0,0,.269.564l24.63-24.629v-1.292Z" transform="translate(-4386.362 -4630.395)" fill="#2b383b"/>
        <path id="Path_95444" data-name="Path 95444" d="M4413.88,4644v-1.432l-16.169,16.169,3.388-1.956Z" transform="translate(-4386.747 -4630.622)" fill="#2b383b"/>
        <g id="Group_41950" data-name="Group 41950" transform="translate(2.348 19.372)">
          <path id="Path_95445" data-name="Path 95445" d="M4426.656,4658.085v-1.077a.712.712,0,0,0-.42-.59l-10.141-5.854a2.235,2.235,0,0,0-2.028,0l-24.93,14.394a.706.706,0,0,0-.419.589v1.2a.71.71,0,0,0,.419.59l10.139,5.854a2.237,2.237,0,0,0,2.029,0l24.929-14.393a.711.711,0,0,0,.421-.59v-.119Z" transform="translate(-4388.717 -4650.32)" fill="#393939"/>
          <path id="Path_95446" data-name="Path 95446" d="M4426.236,4656.418a.618.618,0,0,1,0,1.171l-24.93,14.393a2.239,2.239,0,0,1-2.028,0l-10.141-5.854a.619.619,0,0,1,0-1.172l24.93-14.394a2.242,2.242,0,0,1,2.028,0Z" transform="translate(-4388.717 -4650.32)" fill="url(#linear-gradient-14)"/>
          <path id="Path_95447" data-name="Path 95447" d="M4394.023,4666.17a.124.124,0,0,1,0,.234l-1.479.853a.446.446,0,0,1-.405,0l-1.479-.853a.125.125,0,0,1-.078-.156.128.128,0,0,1,.078-.078l1.479-.853a.443.443,0,0,1,.405,0Z" transform="translate(-4388.795 -4650.951)" fill="#393939"/>
          <g id="Group_41946" data-name="Group 41946" transform="translate(5.713 1.27)">
            <path id="Path_95448" data-name="Path 95448" d="M4396.243,4662.947l-1.478.854a.123.123,0,0,0,0,.234l1.478.854a.447.447,0,0,0,.407,0l1.477-.854a.123.123,0,0,0,.078-.156.121.121,0,0,0-.078-.078l-1.477-.854A.45.45,0,0,0,4396.243,4662.947Z" transform="translate(-4394.681 -4652.12)" fill="#393939"/>
            <path id="Path_95449" data-name="Path 95449" d="M4398.679,4661.542l-1.477.854a.124.124,0,0,0-.079.157.125.125,0,0,0,.079.078l1.477.853a.446.446,0,0,0,.407,0l1.478-.853a.122.122,0,0,0,.078-.157.124.124,0,0,0-.078-.078l-1.478-.854A.449.449,0,0,0,4398.679,4661.542Z" transform="translate(-4394.784 -4652.061)" fill="#393939"/>
            <path id="Path_95450" data-name="Path 95450" d="M4401.116,4660.134l-1.478.853a.125.125,0,0,0-.078.157.127.127,0,0,0,.078.078l1.478.854a.45.45,0,0,0,.406,0l1.478-.854a.123.123,0,0,0,.078-.157.121.121,0,0,0-.078-.077l-1.478-.853A.444.444,0,0,0,4401.116,4660.134Z" transform="translate(-4394.886 -4652.001)" fill="#393939"/>
            <path id="Path_95451" data-name="Path 95451" d="M4403.552,4658.727l-1.477.854a.125.125,0,0,0-.078.158.128.128,0,0,0,.078.077l1.479.853a.446.446,0,0,0,.405,0l1.479-.853a.124.124,0,0,0,.077-.157.123.123,0,0,0-.077-.078l-1.479-.853A.444.444,0,0,0,4403.552,4658.727Z" transform="translate(-4394.989 -4651.942)" fill="#393939"/>
            <path id="Path_95452" data-name="Path 95452" d="M4405.988,4657.321l-1.478.853a.123.123,0,0,0-.077.156.124.124,0,0,0,.077.078l1.478.854a.452.452,0,0,0,.407,0l1.479-.854a.123.123,0,0,0,.077-.156.125.125,0,0,0-.077-.078l-1.479-.853A.445.445,0,0,0,4405.988,4657.321Z" transform="translate(-4395.091 -4651.884)" fill="#393939"/>
            <path id="Path_95453" data-name="Path 95453" d="M4408.425,4655.914l-1.478.853a.124.124,0,0,0-.078.157.121.121,0,0,0,.078.076l1.478.854a.446.446,0,0,0,.407,0l1.477-.854a.123.123,0,0,0,.079-.156.124.124,0,0,0-.079-.078l-1.477-.853A.452.452,0,0,0,4408.425,4655.914Z" transform="translate(-4395.194 -4651.824)" fill="#393939"/>
            <path id="Path_95454" data-name="Path 95454" d="M4410.861,4654.508l-1.478.853a.124.124,0,0,0-.078.158.126.126,0,0,0,.078.078l1.478.853a.45.45,0,0,0,.406,0l1.478-.853a.124.124,0,0,0,0-.235l-1.479-.853A.45.45,0,0,0,4410.861,4654.508Z" transform="translate(-4395.296 -4651.765)" fill="#393939"/>
            <path id="Path_95455" data-name="Path 95455" d="M4413.3,4653.1l-1.478.854a.123.123,0,0,0-.077.157.122.122,0,0,0,.077.076l1.478.856a.445.445,0,0,0,.406,0l1.478-.854a.124.124,0,0,0,0-.234l-1.478-.853A.445.445,0,0,0,4413.3,4653.1Z" transform="translate(-4395.399 -4651.704)" fill="#393939"/>
            <path id="Path_95456" data-name="Path 95456" d="M4415.732,4651.694l-1.478.853a.125.125,0,0,0-.077.156.122.122,0,0,0,.077.078l1.478.853a.448.448,0,0,0,.408,0l1.477-.853a.124.124,0,0,0,0-.234l-1.477-.853A.448.448,0,0,0,4415.732,4651.694Z" transform="translate(-4395.502 -4651.646)" fill="#393939"/>
          </g>
          <g id="Group_41947" data-name="Group 41947" transform="translate(4.077 2.652)">
            <path id="Path_95457" data-name="Path 95457" d="M4398.566,4664.391l-5.509,3.181a.123.123,0,0,0-.078.156.125.125,0,0,0,.078.078l1.477.854a.45.45,0,0,0,.407,0l5.509-3.181a.123.123,0,0,0,.077-.156.116.116,0,0,0-.077-.077l-1.478-.854A.446.446,0,0,0,4398.566,4664.391Z" transform="translate(-4392.973 -4653.563)" fill="#393939"/>
            <path id="Path_95458" data-name="Path 95458" d="M4401.18,4662.983l-1.478.854a.124.124,0,0,0-.077.157.123.123,0,0,0,.077.077l1.478.854a.45.45,0,0,0,.406,0l1.478-.854a.124.124,0,0,0,0-.234l-1.478-.854A.453.453,0,0,0,4401.18,4662.983Z" transform="translate(-4393.252 -4653.504)" fill="#393939"/>
            <path id="Path_95459" data-name="Path 95459" d="M4403.616,4661.578l-1.478.854a.123.123,0,0,0,0,.233l1.478.854a.444.444,0,0,0,.406,0l1.478-.854a.123.123,0,0,0,.077-.157.12.12,0,0,0-.077-.076l-1.478-.854A.444.444,0,0,0,4403.616,4661.578Z" transform="translate(-4393.355 -4653.444)" fill="#393939"/>
            <path id="Path_95460" data-name="Path 95460" d="M4406.052,4660.172l-1.478.853a.124.124,0,0,0,0,.235l1.478.854a.453.453,0,0,0,.406,0l1.478-.854a.124.124,0,0,0,.079-.156.123.123,0,0,0-.079-.079l-1.477-.853A.444.444,0,0,0,4406.052,4660.172Z" transform="translate(-4393.458 -4653.385)" fill="#393939"/>
            <path id="Path_95461" data-name="Path 95461" d="M4408.49,4658.765l-1.479.854a.123.123,0,0,0,0,.233l1.479.854a.443.443,0,0,0,.405,0l1.479-.854a.124.124,0,0,0,.077-.156.12.12,0,0,0-.077-.077l-1.479-.854A.44.44,0,0,0,4408.49,4658.765Z" transform="translate(-4393.561 -4653.326)" fill="#393939"/>
            <path id="Path_95462" data-name="Path 95462" d="M4410.926,4657.357l-1.479.854a.124.124,0,0,0,0,.234l1.479.854a.446.446,0,0,0,.405,0l1.478-.854a.123.123,0,0,0,0-.234l-1.478-.854A.446.446,0,0,0,4410.926,4657.357Z" transform="translate(-4393.663 -4653.266)" fill="#393939"/>
            <path id="Path_95463" data-name="Path 95463" d="M4413.361,4655.951l-1.478.854a.123.123,0,0,0-.078.156.126.126,0,0,0,.078.078l1.478.853a.446.446,0,0,0,.407,0l1.478-.853a.125.125,0,0,0,.077-.157.121.121,0,0,0-.077-.077l-1.478-.854A.449.449,0,0,0,4413.361,4655.951Z" transform="translate(-4393.766 -4653.207)" fill="#393939"/>
            <path id="Path_95464" data-name="Path 95464" d="M4415.8,4654.544l-1.478.853a.124.124,0,0,0-.076.158.12.12,0,0,0,.076.077l1.478.854a.449.449,0,0,0,.407,0l1.478-.854a.123.123,0,0,0,.078-.157.127.127,0,0,0-.078-.078l-1.478-.854A.449.449,0,0,0,4415.8,4654.544Z" transform="translate(-4393.869 -4653.147)" fill="#393939"/>
            <path id="Path_95465" data-name="Path 95465" d="M4418.233,4653.138l-1.479.853a.124.124,0,0,0-.077.156.12.12,0,0,0,.077.078l1.479.854a.448.448,0,0,0,.406,0l1.478-.854a.123.123,0,0,0,.078-.156.126.126,0,0,0-.078-.078l-1.478-.853A.445.445,0,0,0,4418.233,4653.138Z" transform="translate(-4393.971 -4653.089)" fill="#393939"/>
          </g>
          <g id="Group_41948" data-name="Group 41948" transform="translate(9.062 5.53)">
            <path id="Path_95466" data-name="Path 95466" d="M4403.771,4667.395l-5.51,3.181a.124.124,0,0,0-.077.157.122.122,0,0,0,.077.077l1.478.854a.449.449,0,0,0,.407,0l5.51-3.181a.123.123,0,0,0,0-.234l-1.478-.854A.449.449,0,0,0,4403.771,4667.395Z" transform="translate(-4398.177 -4656.567)" fill="#393939"/>
            <path id="Path_95467" data-name="Path 95467" d="M4406.383,4665.988l-1.478.853a.124.124,0,0,0,0,.235l1.478.853a.447.447,0,0,0,.407,0l1.477-.853a.124.124,0,0,0,0-.235l-1.479-.853A.45.45,0,0,0,4406.383,4665.988Z" transform="translate(-4398.457 -4656.509)" fill="#393939"/>
            <path id="Path_95468" data-name="Path 95468" d="M4415.82,4660.361l-8.479,4.9a.123.123,0,0,0-.077.157.126.126,0,0,0,.077.077l1.478.854a.454.454,0,0,0,.406,0l8.479-4.9a.124.124,0,0,0,.078-.157.122.122,0,0,0-.078-.078l-1.478-.853A.448.448,0,0,0,4415.82,4660.361Z" transform="translate(-4398.56 -4656.271)" fill="#393939"/>
            <path id="Path_95469" data-name="Path 95469" d="M4418.564,4658.955l-1.477.854a.123.123,0,0,0-.078.157.121.121,0,0,0,.078.078l1.477.853a.446.446,0,0,0,.405,0l1.479-.853a.124.124,0,0,0,0-.234l-1.479-.854A.449.449,0,0,0,4418.564,4658.955Z" transform="translate(-4398.97 -4656.212)" fill="#393939"/>
            <path id="Path_95470" data-name="Path 95470" d="M4423.334,4656.142l-3.811,2.2a.124.124,0,0,0,0,.234l1.478.854a.451.451,0,0,0,.406,0l3.812-2.2a.123.123,0,0,0,.078-.156.127.127,0,0,0-.078-.079l-1.478-.854A.45.45,0,0,0,4423.334,4656.142Z" transform="translate(-4399.073 -4656.093)" fill="#393939"/>
          </g>
          <g id="Group_41949" data-name="Group 41949" transform="translate(6.538 4.074)">
            <path id="Path_95471" data-name="Path 95471" d="M4398.788,4667.289l-3.162,1.828a.123.123,0,0,0,0,.233l1.479.854a.448.448,0,0,0,.406,0l3.161-1.826a.124.124,0,0,0,.078-.157.126.126,0,0,0-.078-.078l-1.477-.853A.451.451,0,0,0,4398.788,4667.289Z" transform="translate(-4395.542 -4655.107)" fill="#393939"/>
            <path id="Path_95472" data-name="Path 95472" d="M4403.75,4664.468l-1.478.853a.124.124,0,0,0-.078.157.129.129,0,0,0,.078.078l1.478.854a.459.459,0,0,0,.407,0l1.478-.854a.125.125,0,0,0,.077-.158.121.121,0,0,0-.077-.076l-1.478-.853A.447.447,0,0,0,4403.75,4664.468Z" transform="translate(-4395.822 -4654.988)" fill="#393939"/>
            <path id="Path_95473" data-name="Path 95473" d="M4401.313,4665.874l-1.478.854a.125.125,0,0,0-.077.156.123.123,0,0,0,.077.078l1.478.854a.449.449,0,0,0,.407,0l1.478-.854a.123.123,0,0,0,0-.234l-1.478-.854A.446.446,0,0,0,4401.313,4665.874Z" transform="translate(-4395.719 -4655.046)" fill="#393939"/>
            <path id="Path_95474" data-name="Path 95474" d="M4406.185,4663.061l-1.477.853a.124.124,0,0,0-.078.157.127.127,0,0,0,.078.078l1.477.852a.444.444,0,0,0,.407,0l1.477-.852a.124.124,0,0,0,0-.235l-1.477-.853A.453.453,0,0,0,4406.185,4663.061Z" transform="translate(-4395.924 -4654.929)" fill="#393939"/>
            <path id="Path_95475" data-name="Path 95475" d="M4408.622,4661.655l-1.478.854a.123.123,0,0,0-.078.156.126.126,0,0,0,.078.078l1.478.854a.448.448,0,0,0,.408,0l1.477-.854a.124.124,0,0,0,0-.234l-1.477-.854A.451.451,0,0,0,4408.622,4661.655Z" transform="translate(-4396.027 -4654.87)" fill="#393939"/>
            <path id="Path_95476" data-name="Path 95476" d="M4411.059,4660.248l-1.479.854a.125.125,0,0,0-.078.157.128.128,0,0,0,.078.078l1.479.852a.443.443,0,0,0,.407,0l1.478-.852a.124.124,0,0,0,.077-.157.121.121,0,0,0-.077-.078l-1.478-.854A.449.449,0,0,0,4411.059,4660.248Z" transform="translate(-4396.129 -4654.81)" fill="#393939"/>
            <path id="Path_95477" data-name="Path 95477" d="M4413.494,4658.841l-1.477.854a.124.124,0,0,0-.078.157.127.127,0,0,0,.078.077l1.477.853a.446.446,0,0,0,.407,0l1.478-.853a.123.123,0,0,0,0-.234l-1.478-.854A.452.452,0,0,0,4413.494,4658.841Z" transform="translate(-4396.232 -4654.751)" fill="#393939"/>
            <path id="Path_95478" data-name="Path 95478" d="M4415.931,4657.435l-1.479.854a.123.123,0,0,0-.078.156.125.125,0,0,0,.078.077l1.479.854a.447.447,0,0,0,.407,0l1.476-.854a.122.122,0,0,0,0-.233l-1.476-.854A.45.45,0,0,0,4415.931,4657.435Z" transform="translate(-4396.335 -4654.691)" fill="#393939"/>
            <path id="Path_95479" data-name="Path 95479" d="M4418.368,4656.029l-1.479.853a.126.126,0,0,0-.077.158.123.123,0,0,0,.077.077l1.479.854a.447.447,0,0,0,.406,0l1.478-.853a.123.123,0,0,0,.078-.156.125.125,0,0,0-.078-.079l-1.478-.852A.448.448,0,0,0,4418.368,4656.029Z" transform="translate(-4396.438 -4654.633)" fill="#393939"/>
            <path id="Path_95480" data-name="Path 95480" d="M4420.8,4654.622l-1.477.853a.123.123,0,0,0,0,.234l1.477.854a.446.446,0,0,0,.407,0l1.478-.854a.123.123,0,0,0,.077-.157.121.121,0,0,0-.077-.078l-1.478-.853A.449.449,0,0,0,4420.8,4654.622Z" transform="translate(-4396.54 -4654.573)" fill="#393939"/>
          </g>
        </g>
      </g>
      <g id="Grupo_55739" data-name="Grupo 55739" transform="translate(4444.943 4645.024)">
        <g id="Grupo_55728" data-name="Grupo 55728" transform="translate(28.313 7.983)">
          <g id="Grupo_55727" data-name="Grupo 55727" style="isolation: isolate">
            <g id="Grupo_55725" data-name="Grupo 55725" transform="translate(23.071 27.472)">
              <path id="Trazado_118851" data-name="Trazado 118851" d="M4508.233,4685.4l4.646-2.7,0,.895-4.647,2.7Z" transform="translate(-4508.23 -4682.695)" fill="#fff"/>
            </g>
            <path id="Trazado_118852" data-name="Trazado 118852" d="M4497.367,4664.6c.042.033.083.066.123.1q.532.437,1.048.915l.122.113q.521.491,1.022,1.021l.084.087c.355.381.7.774,1.042,1.18l.008.011a28.715,28.715,0,0,1,1.866,2.524c.171.257.332.523.495.787.137.223.279.442.411.669.063.107.12.215.181.322.214.378.423.759.62,1.146.022.042.044.084.066.127.236.47.461.946.67,1.426l.032.074q.308.7.573,1.422c.011.03.023.062.034.092q.27.732.493,1.467c.008.029.016.059.025.088q.211.708.376,1.414c.011.044.022.089.032.133.111.485.207.971.284,1.453l0,.023c.078.485.135.968.176,1.447,0,.039.006.078.009.118.037.479.058.955.056,1.423l4.647-2.7c0-.184,0-.369-.008-.555s-.015-.4-.028-.6c-.006-.091-.014-.182-.021-.272l-.009-.118c-.006-.069-.01-.139-.017-.209q-.028-.3-.068-.6c-.026-.205-.054-.412-.087-.618l0-.017,0-.024c-.031-.193-.064-.388-.1-.581-.041-.213-.083-.428-.131-.644-.016-.075-.036-.151-.052-.226l-.032-.135c-.022-.094-.042-.189-.066-.283-.054-.218-.111-.436-.171-.654-.044-.158-.092-.317-.139-.476-.009-.029-.018-.059-.025-.088s-.017-.058-.026-.087c-.064-.212-.133-.424-.2-.637s-.143-.419-.219-.627c-.014-.038-.029-.076-.043-.115s-.023-.063-.036-.094c-.048-.132-.1-.264-.147-.393-.078-.2-.158-.4-.24-.6-.06-.143-.122-.285-.183-.428-.012-.025-.022-.051-.033-.076s-.024-.055-.035-.083c-.088-.2-.179-.4-.271-.594q-.154-.327-.314-.65c-.018-.032-.035-.064-.051-.1l-.066-.127c-.087-.172-.175-.343-.265-.514-.114-.213-.234-.42-.354-.63-.062-.108-.12-.217-.183-.325-.024-.042-.046-.085-.072-.127-.107-.183-.227-.357-.338-.539-.164-.264-.325-.531-.5-.79-.027-.041-.052-.084-.079-.126-.251-.376-.51-.743-.776-1.106l0,0h0c-.179-.242-.362-.483-.547-.719-.151-.191-.3-.381-.459-.567l-.009-.011-.007-.008c-.156-.187-.314-.374-.476-.556s-.316-.357-.479-.531c-.026-.028-.053-.056-.08-.084s-.056-.059-.084-.088c-.113-.119-.225-.239-.34-.356-.171-.174-.344-.346-.519-.514-.054-.051-.109-.1-.163-.151l-.122-.113c-.085-.079-.171-.161-.257-.238q-.271-.245-.547-.478c-.08-.068-.162-.132-.243-.2-.041-.035-.083-.067-.125-.1-.061-.049-.12-.1-.181-.148-.178-.141-.359-.278-.541-.413-.131-.1-.263-.189-.4-.281l-.072-.052c-.022-.015-.046-.032-.068-.047q-.259-.178-.523-.346t-.521-.319l-.122-.071-10.754-6.208-4.646,2.7,10.754,6.208q.625.361,1.233.784l.072.052Q4496.817,4664.156,4497.367,4664.6Z" transform="translate(-4484.147 -4654.015)" fill="#fff"/>
            <g id="Grupo_55726" data-name="Grupo 55726" transform="translate(0 2.7)">
              <path id="Trazado_118853" data-name="Trazado 118853" d="M4494.942,4663.043c6.8,3.927,12.3,13.447,12.275,21.263v.9l-23.071-13.32.042-15.047Z" transform="translate(-4484.145 -4656.834)" fill="#d3d3d3"/>
            </g>
          </g>
        </g>
        <path id="Trazado_118854" data-name="Trazado 118854" d="M4460.879,4669.352l22.329-12.518,12.059,7.044v1.667c2.877,1.318,9.25,10.493,8.426,17.635-.275.11-22.307,12.526-22.307,12.526Z" transform="translate(-4454.852 -4646.151)" fill="#fff"/>
        <path id="Trazado_118855" data-name="Trazado 118855" d="M4480.053,4688.775l22.25-12.581.056,4.505-21.867,12.306Z" transform="translate(-4455.66 -4646.967)" fill="#21587b"/>
        <path id="Trazado_118856" data-name="Trazado 118856" d="M4495.648,4664.188l-25.748,14.357,1.209,1.044,24.539-13.735Z" transform="translate(-4455.232 -4646.461)" fill="#e5e5e5"/>
        <path id="Trazado_118857" data-name="Trazado 118857" d="M4454.587,4671.893" transform="translate(-4454.587 -4646.786)" fill="#0b0b0b"/>
        <g id="Grupo_55732" data-name="Grupo 55732" transform="translate(1.337 23.2)">
          <g id="Grupo_55731" data-name="Grupo 55731" style="isolation: isolate">
            <g id="Grupo_55729" data-name="Grupo 55729" transform="translate(23.071 27.473)">
              <path id="Trazado_118858" data-name="Trazado 118858" d="M4480.071,4701.283l4.646-2.7,0,.895-4.647,2.7Z" transform="translate(-4480.068 -4698.583)" fill="#fff"/>
            </g>
            <path id="Trazado_118859" data-name="Trazado 118859" d="M4469.205,4680.488l.124.1q.532.437,1.046.916c.042.037.082.074.122.112q.521.492,1.023,1.021l.083.087c.356.381.7.773,1.042,1.181l.009.011a29.244,29.244,0,0,1,1.865,2.523c.17.259.331.523.494.788.137.223.28.443.411.669.063.106.121.215.181.322.214.379.424.76.621,1.148l.065.126q.356.707.67,1.427l.032.074c.205.471.4.945.573,1.42.011.032.024.063.036.094q.269.732.492,1.467c.008.028.017.058.025.086.141.471.266.944.376,1.414.011.045.021.09.032.134q.167.729.284,1.452l0,.024q.115.729.174,1.449c0,.039.006.079.01.118.037.479.059.955.057,1.423l4.646-2.7c0-.184,0-.37-.006-.556s-.016-.4-.029-.6c0-.09-.014-.181-.021-.272,0-.039-.006-.078-.01-.118-.005-.07-.009-.139-.016-.209-.019-.2-.042-.4-.067-.6s-.055-.412-.088-.619l0-.017,0-.024c-.031-.194-.064-.387-.1-.581-.041-.214-.083-.428-.13-.642-.016-.075-.035-.152-.052-.228l-.032-.134c-.022-.1-.042-.189-.066-.284q-.081-.327-.172-.653c-.043-.159-.091-.318-.138-.476-.009-.03-.018-.06-.026-.089s-.016-.057-.025-.086q-.1-.319-.2-.637c-.072-.21-.145-.419-.22-.627l-.044-.116c-.011-.032-.023-.063-.035-.1-.049-.131-.1-.261-.148-.393-.079-.2-.158-.4-.241-.6-.059-.143-.121-.286-.183-.428l-.033-.077c-.012-.027-.023-.055-.035-.083-.088-.2-.178-.4-.271-.6q-.152-.326-.314-.649c-.017-.034-.035-.066-.05-.1s-.044-.084-.066-.127c-.087-.171-.174-.344-.265-.513-.113-.213-.235-.42-.354-.632-.061-.107-.12-.216-.182-.323-.025-.042-.047-.086-.072-.127-.107-.184-.227-.36-.338-.54-.165-.265-.325-.53-.5-.79-.027-.042-.051-.084-.079-.126q-.377-.562-.776-1.1l0-.005h0c-.179-.244-.362-.483-.548-.719-.15-.192-.3-.381-.458-.568l-.009-.01-.006-.009c-.157-.189-.316-.374-.477-.558s-.317-.355-.479-.53l-.08-.083-.084-.088c-.113-.12-.225-.24-.34-.356-.17-.174-.344-.346-.52-.513-.053-.052-.108-.1-.163-.151s-.08-.076-.121-.113c-.085-.081-.169-.162-.257-.24q-.271-.245-.547-.477c-.081-.068-.163-.132-.243-.2l-.124-.1c-.062-.049-.121-.1-.182-.147-.179-.142-.359-.279-.541-.413-.13-.1-.263-.188-.394-.281l-.074-.052-.067-.048c-.174-.119-.348-.234-.523-.345s-.347-.217-.521-.32c-.04-.023-.08-.047-.122-.07l-10.754-6.21-4.646,2.7,10.754,6.209c.417.24.828.5,1.234.784l.073.052C4468.466,4679.911,4468.838,4680.192,4469.205,4680.488Z" transform="translate(-4455.985 -4669.902)" fill="#fff"/>
            <g id="Grupo_55730" data-name="Grupo 55730" transform="translate(0 2.701)">
              <path id="Trazado_118860" data-name="Trazado 118860" d="M4466.78,4678.931c6.8,3.928,12.3,13.447,12.277,21.263l0,.895-23.071-13.32.044-15.047Z" transform="translate(-4455.982 -4672.721)" fill="#d3d3d3"/>
            </g>
          </g>
        </g>
        <path id="Trazado_118861" data-name="Trazado 118861" d="M4503.173,4680.7l-3.792-2.335,3.736-2.17Z" transform="translate(-4456.474 -4646.967)" fill="#0e0e0e"/>
        <path id="Trazado_118862" data-name="Trazado 118862" d="M4483.9,4691.384l.021.347,10.082-.244,19.538-10.39.027-.357Z" transform="translate(-4455.822 -4647.158)" fill="#111"/>
        <path id="Trazado_118863" data-name="Trazado 118863" d="M4502.521,4680.891l-18.625,10.494,10.054-.22,19.669-10.439Z" transform="translate(-4455.822 -4647.157)" fill="#393939"/>
        <path id="Trazado_118864" data-name="Trazado 118864" d="M4461.7,4669.583l7.335,4.283a5.071,5.071,0,0,0,5.025.049l17.835-9.952a1.619,1.619,0,0,0,.013-2.82l-7.559-4.306Z" transform="translate(-4454.887 -4646.151)" fill="#393939"/>
        <g id="Grupo_55735" data-name="Grupo 55735" transform="translate(16.248 26.22)">
          <g id="Grupo_55734" data-name="Grupo 55734" style="isolation: isolate">
            <path id="Trazado_118865" data-name="Trazado 118865" d="M4471.589,4674.154l0,0a.378.378,0,0,0,.118.1l.293.171a.693.693,0,0,0,.173.065l.025.007a.875.875,0,0,0,.2.022h.007a.9.9,0,0,0,.206-.023l.007,0a.7.7,0,0,0,.183-.069l1.09-.631a.279.279,0,0,0,.167-.232v.27a.281.281,0,0,1-.166.231l-1.091.63a.576.576,0,0,1-.08.038c-.021.008-.044.017-.067.023l-.035.009-.008,0-.015,0-.057.009-.056.007-.057,0h-.058c-.021,0-.042,0-.063,0l-.073-.011a.25.25,0,0,1-.029-.007l-.026-.007-.05-.012a.667.667,0,0,1-.122-.054l-.293-.171-.007,0a.387.387,0,0,1-.069-.051.4.4,0,0,1-.035-.038l-.007-.011,0,0-.011-.018a.305.305,0,0,1-.015-.031.18.18,0,0,1-.009-.032.25.25,0,0,1,0-.033v-.273A.211.211,0,0,0,4471.589,4674.154Z" transform="translate(-4471.55 -4673.076)" fill="#d4e7ef"/>
            <g id="Grupo_55733" data-name="Grupo 55733">
              <path id="Trazado_118866" data-name="Trazado 118866" d="M4471.717,4673.78c-.219.126-.224.333-.007.46l.293.17a.894.894,0,0,0,.8,0l1.09-.63a.244.244,0,0,0,0-.461l-.293-.17a.868.868,0,0,0-.792,0Z" transform="translate(-4471.55 -4673.054)" fill="#dcecf3"/>
            </g>
          </g>
        </g>
        <g id="Grupo_55738" data-name="Grupo 55738" transform="translate(18.875 24.725)">
          <g id="Grupo_55737" data-name="Grupo 55737" style="isolation: isolate">
            <path id="Trazado_118867" data-name="Trazado 118867" d="M4474.331,4672.595l0,0a.357.357,0,0,0,.119.1l.292.169a.636.636,0,0,0,.172.066l.027.006a1.018,1.018,0,0,0,.2.022h.008a1.06,1.06,0,0,0,.205-.023l.008,0a.7.7,0,0,0,.183-.07l1.09-.629a.28.28,0,0,0,.166-.232v.269a.281.281,0,0,1-.167.232l-1.09.629a.7.7,0,0,1-.079.039.567.567,0,0,1-.069.021l-.034.009-.008,0-.017,0-.056.009-.056.006-.056,0h-.059l-.063,0a.735.735,0,0,1-.073-.011l-.029-.007-.026-.007a.422.422,0,0,1-.05-.013.572.572,0,0,1-.122-.053l-.292-.17-.007,0a.418.418,0,0,1-.07-.052.479.479,0,0,1-.035-.036l-.008-.012,0,0-.012-.017a.206.206,0,0,1-.014-.032.146.146,0,0,1-.01-.031c0-.01,0-.021,0-.031v-.274A.228.228,0,0,0,4474.331,4672.595Z" transform="translate(-4474.292 -4671.516)" fill="#fafcfe"/>
            <g id="Grupo_55736" data-name="Grupo 55736" transform="translate(0)">
              <path id="Trazado_118868" data-name="Trazado 118868" d="M4474.459,4672.221c-.219.126-.224.334-.006.46l.292.17a.888.888,0,0,0,.8,0l1.09-.63a.244.244,0,0,0,0-.462l-.292-.171a.867.867,0,0,0-.793,0Z" transform="translate(-4474.292 -4671.494)" fill="#fafcfe"/>
            </g>
          </g>
        </g>
        <path id="Trazado_118869" data-name="Trazado 118869" d="M4466.115,4669.486l4.121,2.307,17.938-10.246-3.928-2.445Z" transform="translate(-4455.073 -4646.247)" fill="#0d0d0d"/>
        <path id="Trazado_118870" data-name="Trazado 118870" d="M4465.937,4669.448l-4.066-11.263.965.471,4.09,11.3Z" transform="translate(-4454.894 -4646.208)" fill="#393939"/>
        <path id="Trazado_118871" data-name="Trazado 118871" d="M4466.966,4669.52l17.9-10.384-4.121-11.29-17.9,10.384Z" transform="translate(-4454.935 -4645.772)" fill="#21587b"/>
        <path id="Trazado_118872" data-name="Trazado 118872" d="M4461.889,4657.725l17.9-10.384.917.483-17.9,10.385Z" transform="translate(-4454.895 -4645.751)" fill="#393939"/>
        <path id="Trazado_118873" data-name="Trazado 118873" d="M4485.838,4659.633v3.75l3.166-1.813Z" transform="translate(-4455.904 -4646.269)" fill="#0a0a0a"/>
        <path id="Trazado_118874" data-name="Trazado 118874" d="M4474.979,4645.681c6.482,3.077,8.571,13.351,8.9,14.779a2.849,2.849,0,0,0,1.648,1.922l-14.944,8.461a2.847,2.847,0,0,1-1.647-1.923c-.331-1.428-2.418-11.7-8.9-14.779Z" transform="translate(-4454.816 -4645.681)" fill="#fff"/>
      </g>
      <g id="Group_41938" data-name="Group 41938" transform="translate(4447.271 4740.624)">
        <path id="Path_95352" data-name="Path 95352" d="M4507.295,4802.979l-15.424,8.9v-37.5l15.424-8.906Z" transform="translate(-4458.486 -4746.328)" fill="url(#linear-gradient-15)"/>
        <path id="Path_95353" data-name="Path 95353" d="M4507.295,4773.135l-15.424,8.9v-.929l15.424-8.905Z" transform="translate(-4458.486 -4746.611)" fill="#393939"/>
        <path id="Path_95354" data-name="Path 95354" d="M4507.295,4781.051l-15.424,8.905v-.931l15.424-8.9Z" transform="translate(-4458.486 -4746.945)" fill="#393939"/>
        <path id="Path_95355" data-name="Path 95355" d="M4507.295,4788.968l-15.424,8.905v-.931l15.424-8.9Z" transform="translate(-4458.486 -4747.279)" fill="#393939"/>
        <path id="Path_95356" data-name="Path 95356" d="M4507.295,4796.885l-15.424,8.905v-.931l15.424-8.9Z" transform="translate(-4458.486 -4747.612)" fill="#393939"/>
        <path id="Path_95357" data-name="Path 95357" d="M4500.938,4804.731a2.348,2.348,0,0,1-1.063,1.84c-.587.339-1.063.065-1.063-.613a2.349,2.349,0,0,1,1.063-1.841C4500.463,4803.778,4500.939,4804.052,4500.938,4804.731Z" transform="translate(-4458.778 -4747.95)" fill="#393939"/>
        <g id="Group_41937" data-name="Group 41937" transform="translate(35.97 53.525)">
          <path id="Path_95358" data-name="Path 95358" d="M4495.632,4806.567a2.347,2.347,0,0,0-1.063,1.841c0,.679.477.952,1.063.613a2.348,2.348,0,0,0,1.064-1.843C4496.7,4806.5,4496.22,4806.228,4495.632,4806.567Z" transform="translate(-4494.569 -4801.579)" fill="#6e40fb"/>
          <path id="Path_95359" data-name="Path 95359" d="M4504.39,4801.51a2.354,2.354,0,0,0-1.064,1.842c0,.678.477.953,1.064.614a2.35,2.35,0,0,0,1.063-1.842C4505.454,4801.445,4504.976,4801.172,4504.39,4801.51Z" transform="translate(-4494.938 -4801.365)" fill="#6e40fb"/>
        </g>
        <path id="Path_95360" data-name="Path 95360" d="M4490.4,4811.427l-33.385-19.275v-37.505l33.385,19.274Z" transform="translate(-4457.017 -4745.872)" fill="url(#linear-gradient-16)"/>
        <path id="Path_95361" data-name="Path 95361" d="M4490.4,4773.666l-33.385-19.275,15.425-8.906,33.385,19.275Z" transform="translate(-4457.017 -4745.485)" fill="#d2e1f1"/>
        <path id="Path_95362" data-name="Path 95362" d="M4490.4,4781.583l-33.385-19.274v-.929l33.385,19.275Z" transform="translate(-4457.017 -4746.156)" fill="#21587b"/>
        <path id="Path_95363" data-name="Path 95363" d="M4490.4,4789.5l-33.385-19.275v-.932l33.385,19.274Z" transform="translate(-4457.017 -4746.489)" fill="#21587b"/>
        <path id="Path_95364" data-name="Path 95364" d="M4490.4,4797.417l-33.385-19.273v-.932l33.385,19.276Z" transform="translate(-4457.017 -4746.822)" fill="#21587b"/>
        <path id="Path_95365" data-name="Path 95365" d="M4490.4,4805.334l-33.385-19.275v-.931L4490.4,4804.4Z" transform="translate(-4457.017 -4747.156)" fill="#21587b"/>
      </g>
      <g id="Group_34948" data-name="Group 34948" transform="translate(4225.695 4725.184)">
        <g id="Group_34930" data-name="Group 34930" transform="translate(2.175 39.412)" opacity="0.8">
          <path id="Path_86148" data-name="Path 86148" d="M4267.189,4807.593a3.78,3.78,0,0,1-1.883-.5h0l-36.771-21.229a1.141,1.141,0,0,1,0-1.974l23.167-13.376.142.084,38.51,22.233a1.141,1.141,0,0,1,0,1.974l-21.284,12.287A3.776,3.776,0,0,1,4267.189,4807.593Zm-1.6-1a3.258,3.258,0,0,0,3.2,0l21.282-12.287a.572.572,0,0,0,.21-.782.586.586,0,0,0-.21-.21l-38.366-22.15-.037.021-22.846,13.19a.573.573,0,0,0-.208.782.567.567,0,0,0,.208.208Z" transform="translate(-4227.966 -4770.512)" fill="#393939"/>
        </g>
        <g id="Group_34943" data-name="Group 34943">
          <g id="Group_34942" data-name="Group 34942">
            <g id="Group_34941" data-name="Group 34941">
              <g id="Group_34935" data-name="Group 34935">
                <g id="Group_34932" data-name="Group 34932" transform="translate(25.221)">
                  <path id="Path_86149" data-name="Path 86149" d="M4252.7,4760.334l5.122-30.389-.412-.175.619-.355v0a.447.447,0,0,1,.477.033l40.938,23.635a1.156,1.156,0,0,1,.532,1.04l-5.165,30.631a.383.383,0,0,1-.215.313h0l-.605.35-.1-.565.036.011-40.691-23.493A1.158,1.158,0,0,1,4252.7,4760.334Z" transform="translate(-4252.054 -4729.367)" fill="url(#linear-gradient-17)"/>
                  <path id="Path_86150" data-name="Path 86150" d="M4300.937,4754.987l.672-.3a.916.916,0,0,1,.086.507l-5.162,30.631a.386.386,0,0,1-.216.313h0l-.6.35-.1-.565.035.011-2.059-1.189Z" transform="translate(-4253.776 -4730.434)" fill="#dee4f0"/>
                  <path id="Path_86151" data-name="Path 86151" d="M4252.559,4761.759l40.938,23.636c.317.182.587.076.643-.25l5.163-30.633a1.155,1.155,0,0,0-.532-1.04l-40.937-23.636c-.317-.182-.587-.077-.644.251l-5.163,30.634A1.16,1.16,0,0,0,4252.559,4761.759Z" transform="translate(-4252.026 -4729.382)" fill="#393939"/>
                  <g id="Group_34931" data-name="Group 34931" transform="translate(1.476 2.41)" opacity="0.51">
                    <path id="Path_86152" data-name="Path 86152" d="M4258.434,4731.883l39.46,22.783L4293,4783.513l-39.434-22.766Z" transform="translate(-4253.566 -4731.883)" fill="#393939"/>
                  </g>
                </g>
                <g id="Group_34934" data-name="Group 34934" transform="translate(0 32.272)">
                  <path id="Path_86153" data-name="Path 86153" d="M4225.718,4777.784l2.235,1.167,22.4-12.935a1.625,1.625,0,0,1,1.461.061l38.638,22.307c.37-.207,2.056-1.018,2.056-1.018l-.818,2.132,0,0a.488.488,0,0,1-.229.253l-23.594,13.622a1.626,1.626,0,0,1-1.462-.061l-39.539-22.827a.708.708,0,0,1-.332-.353h0Z" transform="translate(-4225.696 -4763.176)" fill="#393939"/>
                  <path id="Path_86154" data-name="Path 86154" d="M4226.063,4778.033l40.521,23.4a1.664,1.664,0,0,0,1.5.062l24.181-13.961c.384-.221.336-.608-.106-.864l-40.522-23.4a1.659,1.659,0,0,0-1.5-.062l-24.182,13.961C4225.57,4777.389,4225.619,4777.775,4226.063,4778.033Z" transform="translate(-4225.695 -4763.058)" fill="url(#linear-gradient-18)"/>
                  <path id="Path_86155" data-name="Path 86155" d="M4226.063,4778.43l40.521,23.4a1.67,1.67,0,0,0,1.5.062l24.182-13.961a.5.5,0,0,0,.234-.261.407.407,0,0,1-.234.494l-24.182,13.961a1.664,1.664,0,0,1-1.5-.062l-40.521-23.4c-.3-.173-.413-.4-.342-.6A.711.711,0,0,0,4226.063,4778.43Z" transform="translate(-4225.696 -4763.689)" fill="#fff"/>
                  <path id="Path_86156" data-name="Path 86156" d="M4281.068,4797.811v-.445c0-.041-.025-.061-.057-.041l-1.568.9a.135.135,0,0,0-.056.109v.446c0,.042.025.062.056.042l1.568-.905A.137.137,0,0,0,4281.068,4797.811Z" transform="translate(-4227.957 -4764.501)" fill="#21587b"/>
                  <path id="Path_86157" data-name="Path 86157" d="M4278.621,4799.224v-.446c0-.042-.025-.062-.056-.042l-1.569.905a.139.139,0,0,0-.058.109v.444c0,.042.026.062.058.042l1.569-.9A.135.135,0,0,0,4278.621,4799.224Z" transform="translate(-4227.854 -4764.56)" fill="#21587b"/>
                  <path id="Path_86158" data-name="Path 86158" d="M4286.564,4786.38l-33.675-19.441a.723.723,0,0,0-.725,0l-11.991,6.938a.257.257,0,0,0,0,.447l33.657,19.433a.726.726,0,0,0,.725,0l12.007-6.927a.258.258,0,0,0,.1-.352A.265.265,0,0,0,4286.564,4786.38Z" transform="translate(-4226.3 -4763.217)" fill="#d2e1f1"/>
                  <path id="Path_86159" data-name="Path 86159" d="M4286.563,4786.828l-.121.07-33.553-19.372a.727.727,0,0,0-.726,0l-11.869,6.868-.12-.069a.257.257,0,0,1-.1-.352.25.25,0,0,1,.1-.095l11.991-6.938a.724.724,0,0,1,.726,0l33.673,19.441a.257.257,0,0,1,.093.354A.238.238,0,0,1,4286.563,4786.828Z" transform="translate(-4226.3 -4763.217)" fill="#727997"/>
                  <g id="Group_34933" data-name="Group 34933" transform="translate(15.542 6.359)">
                    <path id="Path_86160" data-name="Path 86160" d="M4254.694,4770.443l28.5,16.457,1.231-.791L4256,4769.7Z" transform="translate(-4242.459 -4769.696)" fill="#393939"/>
                    <path id="Path_86161" data-name="Path 86161" d="M4252.762,4773.171l25.878,14.939.887-.989-25.464-14.7Z" transform="translate(-4242.377 -4769.81)" fill="#393939"/>
                    <path id="Path_86162" data-name="Path 86162" d="M4246.257,4771.919l32.3,18.649,1.3-.75-32.3-18.65Z" transform="translate(-4242.104 -4769.757)" fill="#393939"/>
                    <path id="Path_86163" data-name="Path 86163" d="M4244.087,4773.171l32.3,18.648,1.3-.751-32.3-18.648Z" transform="translate(-4242.012 -4769.81)" fill="#393939"/>
                    <path id="Path_86164" data-name="Path 86164" d="M4241.921,4774.423l32.3,18.648,1.3-.75-32.3-18.647Z" transform="translate(-4241.921 -4769.863)" fill="#393939"/>
                    <path id="Path_86165" data-name="Path 86165" d="M4284.135,4787.441l1.3.75,1.3-.75-1.3-.751Z" transform="translate(-4243.699 -4770.412)" fill="#393939"/>
                    <path id="Path_86166" data-name="Path 86166" d="M4279.346,4788.52l2.7,1.558,1.3-.75-2.7-1.559Z" transform="translate(-4243.498 -4770.458)" fill="#393939"/>
                  </g>
                  <path id="Path_86167" data-name="Path 86167" d="M4251.691,4791.724l-9.081-5.242a.392.392,0,0,1,0-.742l6.208-3.584a1.422,1.422,0,0,1,1.285,0l9.081,5.242a.392.392,0,0,1,0,.742l-6.209,3.584A1.415,1.415,0,0,1,4251.691,4791.724Z" transform="translate(-4226.397 -4763.855)" fill="url(#linear-gradient-19)"/>
                  <path id="Path_86168" data-name="Path 86168" d="M4259.184,4787.7l-9.081-5.243a1.422,1.422,0,0,0-1.285,0l-6.208,3.584a.535.535,0,0,0-.222.22c-.1-.18-.024-.381.222-.523l6.208-3.584a1.422,1.422,0,0,1,1.285,0l9.081,5.242c.247.141.317.343.224.523A.547.547,0,0,0,4259.184,4787.7Z" transform="translate(-4226.397 -4763.855)" fill="#727997"/>
                </g>
              </g>
              <g id="Group_34940" data-name="Group 34940" transform="translate(26.697 2.41)" opacity="0.11">
                <g id="Grupo_55741" data-name="Grupo 55741">
                  <g id="Grupo_55740" data-name="Grupo 55740" clip-path="url(#clip-path)">
                    <g id="Group_34939" data-name="Group 34939" transform="translate(-1.166 15.05)">
                      <g id="Group_34938" data-name="Group 34938">
                        <path id="Path_86169" data-name="Path 86169" d="M4252.716,4762.568l40.522,23.395a1.662,1.662,0,0,0,1.5.063l24.182-13.96c.384-.222.334-.609-.108-.866l-40.521-23.395a1.667,1.667,0,0,0-1.5-.062l-24.181,13.961C4252.226,4761.925,4252.273,4762.312,4252.716,4762.568Z" transform="translate(-4252.35 -4747.594)" fill="url(#linear-gradient-20)"/>
                        <path id="Path_86170" data-name="Path 86170" d="M4294.752,4767.179l-9.081-5.243a.392.392,0,0,1,0-.742l6.209-3.584a1.415,1.415,0,0,1,1.285,0l9.08,5.242a.391.391,0,0,1,0,.741l-6.208,3.585A1.427,1.427,0,0,1,4294.752,4767.179Z" transform="translate(-4253.743 -4748.01)" fill="url(#linear-gradient-21)"/>
                        <path id="Path_86171" data-name="Path 86171" d="M4302.244,4763.156l-9.082-5.243a1.42,1.42,0,0,0-1.284,0l-6.209,3.584a.554.554,0,0,0-.223.219c-.094-.179-.022-.38.223-.523l6.209-3.584a1.414,1.414,0,0,1,1.284,0l9.082,5.242c.246.14.316.344.222.523A.54.54,0,0,0,4302.244,4763.156Z" transform="translate(-4253.743 -4748.01)" fill="#9198db"/>
                        <g id="Group_34937" data-name="Group 34937" transform="translate(5.978 7.822)">
                          <path id="Path_86172" data-name="Path 86172" d="M4305.109,4775.3l-33.674-19.442a.727.727,0,0,0-.725,0l-11.992,6.938a.26.26,0,0,0-.094.354.254.254,0,0,0,.094.094l33.658,19.432a.722.722,0,0,0,.724,0l12.008-6.926a.259.259,0,0,0,.1-.351A.252.252,0,0,0,4305.109,4775.3Z" transform="translate(-4258.591 -4755.761)" fill="#adb1f2"/>
                          <path id="Path_86173" data-name="Path 86173" d="M4305.11,4775.747l-.122.07-33.552-19.372a.722.722,0,0,0-.725,0l-11.87,6.868-.121-.07a.259.259,0,0,1,0-.447l11.991-6.938a.728.728,0,0,1,.725,0l33.672,19.442a.257.257,0,0,1,.093.353A.254.254,0,0,1,4305.11,4775.747Z" transform="translate(-4258.591 -4755.761)" fill="#9198db"/>
                          <g id="Group_34936" data-name="Group 34936" transform="translate(2.103 1.424)">
                            <path id="Path_86174" data-name="Path 86174" d="M4261.949,4762.612l29.334,16.937-1.162.671-29.336-16.937Z" transform="translate(-4260.786 -4757.473)" fill="#24126a"/>
                            <path id="Path_86175" data-name="Path 86175" d="M4265.175,4760.749l27.882,16.1-1.162.67-27.882-16.1Z" transform="translate(-4260.922 -4757.395)" fill="#24126a"/>
                            <path id="Path_86176" data-name="Path 86176" d="M4296.458,4778.81l2.6,1.5-1.162.671-2.6-1.5Z" transform="translate(-4262.24 -4758.155)" fill="#24126a"/>
                            <path id="Path_86177" data-name="Path 86177" d="M4294.057,4781.15l1.813,1.047-1.162.67-1.813-1.047Z" transform="translate(-4262.139 -4758.255)" fill="#24126a"/>
                            <path id="Path_86178" data-name="Path 86178" d="M4267.2,4759.581l32.568,18.8-1.162.671-32.568-18.8Z" transform="translate(-4261.007 -4757.346)" fill="#24126a"/>
                            <path id="Path_86179" data-name="Path 86179" d="M4269.219,4758.413l32.569,18.8-1.162.671-32.569-18.8Z" transform="translate(-4261.092 -4757.296)" fill="#24126a"/>
                            <path id="Path_86180" data-name="Path 86180" d="M4271.241,4757.247l32.569,18.8-1.162.671-32.568-18.8Z" transform="translate(-4261.178 -4757.247)" fill="#24126a"/>
                          </g>
                        </g>
                      </g>
                    </g>
                  </g>
                </g>
              </g>
            </g>
          </g>
        </g>
        <g id="Group_34947" data-name="Group 34947" transform="translate(36.947 12.548)">
          <path id="Path_86181" data-name="Path 86181" d="M4267.871,4743.021l3.192,1.845.094-.554-3.192-1.846Z" transform="translate(-4264.419 -4742.467)" fill="#42e8e0"/>
          <path id="Path_86182" data-name="Path 86182" d="M4271.74,4745.255l1.739,1.005.094-.555-1.739-1Z" transform="translate(-4264.582 -4742.561)" fill="#42e8e0"/>
          <path id="Path_86183" data-name="Path 86183" d="M4276.38,4747.935l1.259.727.094-.554-1.258-.728Z" transform="translate(-4264.777 -4742.674)" fill="#42e8e0"/>
          <path id="Path_86184" data-name="Path 86184" d="M4275.424,4747.381l.43.25.094-.555-.431-.248Z" transform="translate(-4264.737 -4742.651)" fill="#42e8e0"/>
          <path id="Path_86185" data-name="Path 86185" d="M4274.1,4746.616l.781.451.093-.553-.781-.452Z" transform="translate(-4264.681 -4742.619)" fill="#42e8e0"/>
          <path id="Path_86186" data-name="Path 86186" d="M4270.509,4747.448l1.259.728.093-.555-1.259-.727Z" transform="translate(-4264.53 -4742.653)" fill="#42e8e0"/>
          <path id="Path_86187" data-name="Path 86187" d="M4267.425,4745.665l2.467,1.426.094-.554-2.466-1.425Z" transform="translate(-4264.4 -4742.579)" fill="#42e8e0"/>
          <g id="Group_34944" data-name="Group 34944" transform="translate(5.291 10.785)">
            <path id="Path_86188" data-name="Path 86188" d="M4271.116,4755.045l2.465,1.426.094-.554-2.467-1.426Z" transform="translate(-4269.847 -4753.758)" fill="#42e8e0"/>
            <path id="Path_86189" data-name="Path 86189" d="M4269.791,4754.281l.78.451.094-.555-.78-.451Z" transform="translate(-4269.791 -4753.726)" fill="#42e8e0"/>
          </g>
          <path id="Path_86190" data-name="Path 86190" d="M4271.545,4752.4l2.466,1.425.094-.553-2.467-1.425Z" transform="translate(-4264.574 -4742.862)" fill="#42e8e0"/>
          <path id="Path_86191" data-name="Path 86191" d="M4270.221,4751.632l.781.451.093-.555-.781-.451Z" transform="translate(-4264.518 -4742.83)" fill="#42e8e0"/>
          <path id="Path_86192" data-name="Path 86192" d="M4269.006,4766.378l-4.645-2.685-.094.554,4.646,2.685Z" transform="translate(-4264.267 -4743.361)" fill="#42e8e0"/>
          <path id="Path_86193" data-name="Path 86193" d="M4270.87,4767.455l-1.151-.664-.094.554,1.15.663Z" transform="translate(-4264.493 -4743.492)" fill="#42e8e0"/>
          <path id="Path_86194" data-name="Path 86194" d="M4279.238,4767.928l-4.646-2.685-.094.554,4.646,2.685Z" transform="translate(-4264.698 -4743.426)" fill="#42e8e0"/>
          <path id="Path_86195" data-name="Path 86195" d="M4281.1,4769.006l-1.149-.665-.094.555,1.15.664Z" transform="translate(-4264.924 -4743.557)" fill="#42e8e0"/>
          <path id="Path_86196" data-name="Path 86196" d="M4265.843,4763.1l-1.258-.728-.094.554,1.259.727Z" transform="translate(-4264.276 -4743.305)" fill="#42e8e0"/>
          <path id="Path_86197" data-name="Path 86197" d="M4273.837,4764.814l-1.258-.728-.094.555,1.258.727Z" transform="translate(-4264.614 -4743.378)" fill="#42e8e0"/>
          <path id="Path_86198" data-name="Path 86198" d="M4268.873,4764.851l-2.465-1.426-.094.554,2.466,1.426Z" transform="translate(-4264.354 -4743.35)" fill="#42e8e0"/>
          <path id="Path_86199" data-name="Path 86199" d="M4270.272,4765.659l-.78-.452-.095.555.781.451Z" transform="translate(-4264.483 -4743.424)" fill="#42e8e0"/>
          <path id="Path_86200" data-name="Path 86200" d="M4273.305,4767.409l-2.465-1.425-.094.554,2.465,1.425Z" transform="translate(-4264.54 -4743.457)" fill="#42e8e0"/>
          <path id="Path_86201" data-name="Path 86201" d="M4274.7,4768.217l-.78-.451-.094.554.781.452Z" transform="translate(-4264.67 -4743.533)" fill="#42e8e0"/>
          <path id="Path_86202" data-name="Path 86202" d="M4273.615,4766.136l-1.259-.727-.094.553,1.259.728Z" transform="translate(-4264.604 -4743.433)" fill="#42e8e0"/>
          <path id="Path_86203" data-name="Path 86203" d="M4276.645,4767.888l-2.466-1.426-.093.555,2.466,1.425Z" transform="translate(-4264.681 -4743.478)" fill="#42e8e0"/>
          <path id="Path_86204" data-name="Path 86204" d="M4278.044,4768.7l-.781-.451-.094.554.781.451Z" transform="translate(-4264.811 -4743.553)" fill="#42e8e0"/>
          <path id="Path_86205" data-name="Path 86205" d="M4267.382,4762.538l-2.575-1.489-.094.555,2.576,1.489Z" transform="translate(-4264.286 -4743.25)" fill="#42e8e0"/>
          <path id="Path_86206" data-name="Path 86206" d="M4269.868,4763.974l-1.862-1.076-.094.554,1.862,1.076Z" transform="translate(-4264.42 -4743.328)" fill="#42e8e0"/>
          <path id="Path_86207" data-name="Path 86207" d="M4271.717,4765.043l-1.258-.728-.093.555,1.259.727Z" transform="translate(-4264.524 -4743.387)" fill="#42e8e0"/>
          <path id="Path_86208" data-name="Path 86208" d="M4284.4,4770.907l-2.575-1.488-.094.555,2.577,1.487Z" transform="translate(-4265.003 -4743.602)" fill="#42e8e0"/>
          <path id="Path_86209" data-name="Path 86209" d="M4286.886,4772.344l-1.862-1.077-.093.554,1.862,1.077Z" transform="translate(-4265.138 -4743.68)" fill="#42e8e0"/>
          <path id="Path_86210" data-name="Path 86210" d="M4288.738,4773.412l-1.259-.727-.094.555,1.259.727Z" transform="translate(-4265.241 -4743.739)" fill="#42e8e0"/>
          <path id="Path_86211" data-name="Path 86211" d="M4283.469,4753.48l2.577,1.488.093-.554-2.577-1.489Z" transform="translate(-4265.076 -4742.908)" fill="#42e8e0"/>
          <path id="Path_86212" data-name="Path 86212" d="M4281.017,4752.061l1.862,1.077.094-.555-1.861-1.077Z" transform="translate(-4264.973 -4742.848)" fill="#42e8e0"/>
          <path id="Path_86213" data-name="Path 86213" d="M4279.194,4751.008l1.258.728.094-.555-1.259-.727Z" transform="translate(-4264.896 -4742.804)" fill="#42e8e0"/>
          <path id="Path_86214" data-name="Path 86214" d="M4282.578,4751.508l2.577,1.488.094-.555-2.577-1.488Z" transform="translate(-4265.039 -4742.824)" fill="#42e8e0"/>
          <path id="Path_86215" data-name="Path 86215" d="M4280.125,4750.089l1.862,1.076.094-.554-1.862-1.076Z" transform="translate(-4264.936 -4742.764)" fill="#42e8e0"/>
          <path id="Path_86216" data-name="Path 86216" d="M4278.3,4749.036l1.259.727.094-.555-1.259-.727Z" transform="translate(-4264.858 -4742.72)" fill="#42e8e0"/>
          <path id="Path_86217" data-name="Path 86217" d="M4271.722,4753.952l.87.5.094-.555-.87-.5Z" transform="translate(-4264.582 -4742.927)" fill="#42e8e0"/>
          <path id="Path_86218" data-name="Path 86218" d="M4270.013,4752.964l1.149.664.094-.554-1.149-.665Z" transform="translate(-4264.509 -4742.886)" fill="#42e8e0"/>
          <path id="Path_86219" data-name="Path 86219" d="M4267.624,4761.224l-2.577-1.489-.094.554,2.577,1.488Z" transform="translate(-4264.296 -4743.194)" fill="#42e8e0"/>
          <path id="Path_86220" data-name="Path 86220" d="M4270.109,4762.66l-1.863-1.077-.093.554,1.863,1.076Z" transform="translate(-4264.431 -4743.272)" fill="#42e8e0"/>
          <path id="Path_86221" data-name="Path 86221" d="M4271.958,4763.728,4270.7,4763l-.094.555,1.259.727Z" transform="translate(-4264.534 -4743.332)" fill="#42e8e0"/>
          <path id="Path_86222" data-name="Path 86222" d="M4266.141,4758.916l-.87-.5-.094.554.87.5Z" transform="translate(-4264.305 -4743.139)" fill="#42e8e0"/>
          <path id="Path_86223" data-name="Path 86223" d="M4267.838,4759.9l-1.149-.665-.093.555,1.148.665Z" transform="translate(-4264.365 -4743.173)" fill="#42e8e0"/>
          <path id="Path_86224" data-name="Path 86224" d="M4270.249,4761.289l-1.852-1.071-.094.555,1.853,1.07Z" transform="translate(-4264.437 -4743.215)" fill="#42e8e0"/>
          <path id="Path_86225" data-name="Path 86225" d="M4272.958,4750.308l.87.5.093-.556-.869-.5Z" transform="translate(-4264.633 -4742.773)" fill="#42e8e0"/>
          <path id="Path_86226" data-name="Path 86226" d="M4271.249,4749.318l1.149.666.094-.555-1.149-.665Z" transform="translate(-4264.561 -4742.732)" fill="#42e8e0"/>
          <path id="Path_86227" data-name="Path 86227" d="M4268.806,4747.906l1.851,1.071.094-.554-1.852-1.071Z" transform="translate(-4264.458 -4742.673)" fill="#42e8e0"/>
          <path id="Path_86228" data-name="Path 86228" d="M4274.341,4752.454l1.852,1.07.094-.554-1.852-1.071Z" transform="translate(-4264.691 -4742.864)" fill="#42e8e0"/>
          <path id="Path_86229" data-name="Path 86229" d="M4271.178,4750.729l2.5,1.442.094-.555-2.5-1.442Z" transform="translate(-4264.558 -4742.792)" fill="#42e8e0"/>
          <path id="Path_86230" data-name="Path 86230" d="M4269.854,4749.964l.781.451.093-.554-.78-.451Z" transform="translate(-4264.503 -4742.759)" fill="#42e8e0"/>
          <path id="Path_86231" data-name="Path 86231" d="M4268.583,4749.229l.781.452.094-.555-.78-.451Z" transform="translate(-4264.449 -4742.728)" fill="#42e8e0"/>
          <g id="Group_34946" data-name="Group 34946" transform="translate(1.087 12.144)">
            <path id="Path_86232" data-name="Path 86232" d="M4268.758,4756.7l2.466,1.426.093-.555-2.466-1.424Z" transform="translate(-4265.543 -4755.188)" fill="#42e8e0"/>
            <path id="Path_86233" data-name="Path 86233" d="M4267.433,4755.935l.781.451.094-.554-.781-.452Z" transform="translate(-4265.487 -4755.155)" fill="#42e8e0"/>
            <path id="Path_86234" data-name="Path 86234" d="M4268.935,4758.254l.87.5.094-.554-.869-.5Z" transform="translate(-4265.551 -4755.252)" fill="#42e8e0"/>
            <path id="Path_86235" data-name="Path 86235" d="M4272.14,4757.2l.87.5.094-.555-.87-.5Z" transform="translate(-4265.686 -4755.208)" fill="#42e8e0"/>
            <path id="Path_86236" data-name="Path 86236" d="M4273.435,4757.942l2.087,1.205.094-.554-2.086-1.205Z" transform="translate(-4265.741 -4755.24)" fill="#42e8e0"/>
            <path id="Path_86237" data-name="Path 86237" d="M4276,4759.424l1.241.717.093-.555-1.241-.717Z" transform="translate(-4265.849 -4755.302)" fill="#42e8e0"/>
            <path id="Path_86238" data-name="Path 86238" d="M4267.224,4757.266l1.149.665.094-.555-1.149-.665Z" transform="translate(-4265.479 -4755.211)" fill="#42e8e0"/>
            <g id="Group_34945" data-name="Group 34945" transform="translate(0 1.856)">
              <path id="Path_86239" data-name="Path 86239" d="M4267.112,4758.625l.87.5.094-.555-.868-.5Z" transform="translate(-4265.474 -4757.125)" fill="#42e8e0"/>
              <path id="Path_86240" data-name="Path 86240" d="M4265.4,4757.637l1.15.665.094-.554-1.15-.665Z" transform="translate(-4265.401 -4757.083)" fill="#42e8e0"/>
            </g>
            <path id="Path_86241" data-name="Path 86241" d="M4270.823,4756.435l.781.451.093-.554-.78-.452Z" transform="translate(-4265.63 -4755.176)" fill="#42e8e0"/>
            <path id="Path_86242" data-name="Path 86242" d="M4269.552,4755.7l.781.451.094-.553-.781-.453Z" transform="translate(-4265.577 -4755.145)" fill="#42e8e0"/>
          </g>
          <path id="Path_86243" data-name="Path 86243" d="M4275.815,4749.056l2.664,1.54.094-.555-2.664-1.539Z" transform="translate(-4264.753 -4742.721)" fill="#42e8e0"/>
          <path id="Path_86244" data-name="Path 86244" d="M4272.7,4747.255l2.5,1.443.093-.554-2.5-1.443Z" transform="translate(-4264.623 -4742.645)" fill="#42e8e0"/>
          <path id="Path_86245" data-name="Path 86245" d="M4271.375,4746.489l.781.452.094-.555-.78-.451Z" transform="translate(-4264.567 -4742.613)" fill="#42e8e0"/>
          <path id="Path_86246" data-name="Path 86246" d="M4270.1,4745.755l.781.451.094-.553-.78-.452Z" transform="translate(-4264.513 -4742.582)" fill="#42e8e0"/>
          <path id="Path_86247" data-name="Path 86247" d="M4269.335,4745.312l-1.686-.974.094-.555,1.686.974Z" transform="translate(-4264.41 -4742.522)" fill="#42e8e0"/>
        </g>
      </g>
      <g id="Group_34948-2" data-name="Group 34948" transform="translate(4319.272 4764.176)">
        <g id="Group_34930-2" data-name="Group 34930" transform="translate(2.175 39.413)" opacity="0.8">
          <path id="Path_86148-2" data-name="Path 86148" d="M4364.882,4848.3a3.768,3.768,0,0,1-1.883-.5h0l-36.771-21.227a1.141,1.141,0,0,1,0-1.974l23.167-13.375.142.084,38.511,22.233a1.141,1.141,0,0,1,0,1.974l-21.283,12.288A3.784,3.784,0,0,1,4364.882,4848.3Zm-1.6-1a3.258,3.258,0,0,0,3.2,0l21.282-12.286a.573.573,0,0,0,0-.992l-38.366-22.151-.037.022-22.847,13.189a.574.574,0,0,0-.208.783.565.565,0,0,0,.208.208Z" transform="translate(-4325.659 -4811.22)" fill="#393939"/>
        </g>
        <g id="Group_34943-2" data-name="Group 34943">
          <g id="Group_34942-2" data-name="Group 34942">
            <g id="Group_34941-2" data-name="Group 34941">
              <g id="Group_34935-2" data-name="Group 34935">
                <g id="Group_34932-2" data-name="Group 34932" transform="translate(25.222)">
                  <path id="Path_86149-2" data-name="Path 86149" d="M4350.393,4801.043l5.123-30.389-.412-.175.619-.355v0a.445.445,0,0,1,.477.034l40.938,23.635a1.155,1.155,0,0,1,.531,1.04l-5.165,30.631a.382.382,0,0,1-.215.313h0l-.605.35-.1-.566.035.011-40.69-23.491A1.158,1.158,0,0,1,4350.393,4801.043Z" transform="translate(-4349.748 -4770.074)" fill="url(#linear-gradient-22)"/>
                  <path id="Path_86150-2" data-name="Path 86150" d="M4398.629,4795.7l.672-.3a.914.914,0,0,1,.086.506l-5.163,30.631a.381.381,0,0,1-.216.313h0l-.6.35-.1-.566.034.011-2.059-1.187Z" transform="translate(-4351.47 -4771.141)" fill="#dee4f0"/>
                  <path id="Path_86151-2" data-name="Path 86151" d="M4350.252,4802.467l40.938,23.635c.317.182.587.077.643-.25L4397,4795.22a1.152,1.152,0,0,0-.532-1.04l-40.937-23.636c-.316-.182-.588-.077-.643.251l-5.163,30.634A1.157,1.157,0,0,0,4350.252,4802.467Z" transform="translate(-4349.719 -4770.089)" fill="#393939"/>
                  <g id="Group_34931-2" data-name="Group 34931" transform="translate(1.476 2.411)" opacity="0.51">
                    <path id="Path_86152-2" data-name="Path 86152" d="M4356.126,4772.591l39.461,22.782-4.894,28.848-39.434-22.766Z" transform="translate(-4351.26 -4772.591)" fill="#393939"/>
                  </g>
                </g>
                <g id="Group_34934-2" data-name="Group 34934" transform="translate(0 32.272)">
                  <path id="Path_86153-2" data-name="Path 86153" d="M4323.412,4818.492l2.233,1.167,22.4-12.934a1.62,1.62,0,0,1,1.461.06l38.638,22.307c.37-.207,2.055-1.018,2.055-1.018l-.817,2.132,0,0a.489.489,0,0,1-.229.252l-23.594,13.623a1.623,1.623,0,0,1-1.461-.061l-39.54-22.827a.709.709,0,0,1-.333-.353h0Z" transform="translate(-4323.389 -4803.885)" fill="#393939"/>
                  <path id="Path_86154-2" data-name="Path 86154" d="M4323.756,4818.74l40.521,23.4a1.669,1.669,0,0,0,1.5.062l24.18-13.961c.385-.221.337-.609-.106-.864l-40.522-23.4a1.659,1.659,0,0,0-1.5-.062l-24.181,13.961C4323.263,4818.1,4323.312,4818.483,4323.756,4818.74Z" transform="translate(-4323.388 -4803.765)" fill="url(#linear-gradient-23)"/>
                  <path id="Path_86155-2" data-name="Path 86155" d="M4323.755,4819.139l40.522,23.395a1.663,1.663,0,0,0,1.5.063l24.181-13.961a.5.5,0,0,0,.235-.262.409.409,0,0,1-.235.495l-24.181,13.961a1.662,1.662,0,0,1-1.5-.062l-40.522-23.4c-.3-.172-.413-.4-.341-.6A.714.714,0,0,0,4323.755,4819.139Z" transform="translate(-4323.389 -4804.397)" fill="#fff"/>
                  <path id="Path_86156-2" data-name="Path 86156" d="M4378.761,4838.52v-.444c0-.042-.025-.062-.057-.042l-1.568.9a.138.138,0,0,0-.057.109v.446c0,.042.024.061.057.042l1.568-.905A.14.14,0,0,0,4378.761,4838.52Z" transform="translate(-4325.65 -4805.208)" fill="#21587b"/>
                  <path id="Path_86157-2" data-name="Path 86157" d="M4376.314,4839.93v-.445c0-.042-.025-.061-.057-.042l-1.568.9a.14.14,0,0,0-.058.109v.444c0,.042.026.061.058.042l1.568-.9A.134.134,0,0,0,4376.314,4839.93Z" transform="translate(-4325.547 -4805.268)" fill="#21587b"/>
                  <path id="Path_86158-2" data-name="Path 86158" d="M4384.257,4827.088l-33.676-19.442a.726.726,0,0,0-.725,0l-11.99,6.938a.258.258,0,0,0-.1.353.237.237,0,0,0,.1.095l33.656,19.433a.726.726,0,0,0,.725,0l12.007-6.927a.258.258,0,0,0,.1-.352A.253.253,0,0,0,4384.257,4827.088Z" transform="translate(-4323.992 -4803.924)" fill="#d2e1f1"/>
                  <path id="Path_86159-2" data-name="Path 86159" d="M4384.256,4827.536l-.12.07-33.554-19.372a.726.726,0,0,0-.725,0l-11.868,6.868-.121-.07a.258.258,0,0,1,0-.447l11.991-6.938a.727.727,0,0,1,.726,0l33.673,19.442a.259.259,0,0,1,0,.448Z" transform="translate(-4323.993 -4803.924)" fill="#727997"/>
                  <g id="Group_34933-2" data-name="Group 34933" transform="translate(15.542 6.359)">
                    <path id="Path_86160-2" data-name="Path 86160" d="M4352.387,4811.151l28.5,16.456,1.231-.79-28.429-16.414Z" transform="translate(-4340.151 -4810.404)" fill="#393939"/>
                    <path id="Path_86161-2" data-name="Path 86161" d="M4350.455,4813.879l25.878,14.938.887-.99-25.465-14.7Z" transform="translate(-4340.071 -4810.518)" fill="#393939"/>
                    <path id="Path_86162-2" data-name="Path 86162" d="M4343.95,4812.627l32.3,18.649,1.3-.75-32.3-18.65Z" transform="translate(-4339.796 -4810.465)" fill="#393939"/>
                    <path id="Path_86163-2" data-name="Path 86163" d="M4341.78,4813.879l32.3,18.648,1.3-.75-32.3-18.649Z" transform="translate(-4339.705 -4810.518)" fill="#393939"/>
                    <path id="Path_86164-2" data-name="Path 86164" d="M4339.614,4815.13l32.3,18.649,1.3-.75-32.3-18.647Z" transform="translate(-4339.614 -4810.571)" fill="#393939"/>
                    <path id="Path_86165-2" data-name="Path 86165" d="M4381.828,4828.149l1.3.751,1.3-.751-1.3-.751Z" transform="translate(-4341.392 -4811.12)" fill="#393939"/>
                    <path id="Path_86166-2" data-name="Path 86166" d="M4377.039,4829.228l2.7,1.559,1.3-.751-2.7-1.559Z" transform="translate(-4341.19 -4811.166)" fill="#393939"/>
                  </g>
                  <path id="Path_86167-2" data-name="Path 86167" d="M4349.384,4832.432l-9.081-5.241a.393.393,0,0,1-.247-.5.4.4,0,0,1,.247-.246l6.208-3.583a1.416,1.416,0,0,1,1.285,0l9.08,5.242a.391.391,0,0,1,0,.741l-6.209,3.585A1.42,1.42,0,0,1,4349.384,4832.432Z" transform="translate(-4324.089 -4804.563)" fill="url(#linear-gradient-24)"/>
                  <path id="Path_86168-2" data-name="Path 86168" d="M4356.877,4828.41l-9.08-5.243a1.422,1.422,0,0,0-1.285,0l-6.208,3.584a.538.538,0,0,0-.224.219c-.095-.179-.023-.38.224-.523l6.208-3.583a1.416,1.416,0,0,1,1.285,0l9.08,5.242c.246.141.317.343.223.523A.548.548,0,0,0,4356.877,4828.41Z" transform="translate(-4324.09 -4804.563)" fill="#727997"/>
                </g>
              </g>
              <g id="Group_34940-2" data-name="Group 34940" transform="translate(26.697 2.411)" opacity="0.11">
                <g id="Grupo_55743" data-name="Grupo 55743">
                  <g id="Grupo_55742" data-name="Grupo 55742" clip-path="url(#clip-path-2)">
                    <g id="Group_34939-2" data-name="Group 34939" transform="translate(-1.166 15.05)">
                      <g id="Group_34938-2" data-name="Group 34938">
                        <path id="Path_86169-2" data-name="Path 86169" d="M4350.41,4803.276l40.522,23.4a1.663,1.663,0,0,0,1.5.062l24.181-13.96c.384-.222.335-.609-.109-.866l-40.521-23.395a1.664,1.664,0,0,0-1.5-.061l-24.181,13.959C4349.919,4802.634,4349.966,4803.021,4350.41,4803.276Z" transform="translate(-4350.043 -4788.302)" fill="url(#linear-gradient-25)"/>
                        <path id="Path_86170-2" data-name="Path 86170" d="M4392.444,4807.887l-9.08-5.242a.392.392,0,0,1,0-.742l6.208-3.584a1.416,1.416,0,0,1,1.285,0l9.08,5.242a.391.391,0,0,1,0,.741l-6.209,3.585A1.424,1.424,0,0,1,4392.444,4807.887Z" transform="translate(-4351.436 -4788.718)" fill="url(#linear-gradient-26)"/>
                        <path id="Path_86171-2" data-name="Path 86171" d="M4399.938,4803.864l-9.082-5.243a1.421,1.421,0,0,0-1.285,0l-6.208,3.584a.557.557,0,0,0-.223.219c-.094-.179-.022-.38.223-.522l6.208-3.584a1.415,1.415,0,0,1,1.285,0l9.082,5.242c.246.141.316.343.223.522A.549.549,0,0,0,4399.938,4803.864Z" transform="translate(-4351.436 -4788.718)" fill="#9198db"/>
                        <g id="Group_34937-2" data-name="Group 34937" transform="translate(5.978 7.822)">
                          <path id="Path_86172-2" data-name="Path 86172" d="M4402.8,4816.008l-33.674-19.442a.728.728,0,0,0-.725,0l-11.991,6.938a.26.26,0,0,0-.095.354.269.269,0,0,0,.095.094l33.658,19.432a.724.724,0,0,0,.724,0l12.008-6.927a.258.258,0,0,0,.1-.35A.246.246,0,0,0,4402.8,4816.008Z" transform="translate(-4356.284 -4796.469)" fill="#adb1f2"/>
                          <path id="Path_86173-2" data-name="Path 86173" d="M4402.8,4816.455l-.121.07-33.554-19.372a.721.721,0,0,0-.725,0l-11.869,6.868-.121-.07a.259.259,0,0,1-.094-.354.252.252,0,0,1,.094-.094l11.991-6.938a.73.73,0,0,1,.726,0l33.672,19.442a.26.26,0,0,1,0,.447Z" transform="translate(-4356.285 -4796.469)" fill="#9198db"/>
                          <g id="Group_34936-2" data-name="Group 34936" transform="translate(2.103 1.423)">
                            <path id="Path_86174-2" data-name="Path 86174" d="M4359.642,4803.319l29.335,16.938-1.162.671-29.335-16.937Z" transform="translate(-4358.48 -4798.18)" fill="#24126a"/>
                            <path id="Path_86175-2" data-name="Path 86175" d="M4362.868,4801.457l27.882,16.1-1.162.671-27.882-16.1Z" transform="translate(-4358.616 -4798.102)" fill="#24126a"/>
                            <path id="Path_86176-2" data-name="Path 86176" d="M4394.151,4819.518l2.6,1.5-1.162.67-2.6-1.5Z" transform="translate(-4359.934 -4798.863)" fill="#24126a"/>
                            <path id="Path_86177-2" data-name="Path 86177" d="M4391.75,4821.858l1.813,1.047-1.162.67-1.813-1.046Z" transform="translate(-4359.833 -4798.961)" fill="#24126a"/>
                            <path id="Path_86178-2" data-name="Path 86178" d="M4364.891,4800.289l32.568,18.8-1.162.671-32.568-18.8Z" transform="translate(-4358.701 -4798.053)" fill="#24126a"/>
                            <path id="Path_86179-2" data-name="Path 86179" d="M4366.912,4799.121l32.569,18.8-1.162.67-32.569-18.8Z" transform="translate(-4358.786 -4798.003)" fill="#24126a"/>
                            <path id="Path_86180-2" data-name="Path 86180" d="M4368.934,4797.954l32.568,18.8-1.161.67-32.569-18.8Z" transform="translate(-4358.872 -4797.954)" fill="#24126a"/>
                          </g>
                        </g>
                      </g>
                    </g>
                  </g>
                </g>
              </g>
            </g>
          </g>
        </g>
        <g id="Group_34947-2" data-name="Group 34947" transform="translate(36.947 12.549)">
          <path id="Path_86181-2" data-name="Path 86181" d="M4365.564,4783.729l3.192,1.845.095-.554-3.193-1.846Z" transform="translate(-4362.112 -4783.175)" fill="#42e8e0"/>
          <path id="Path_86182-2" data-name="Path 86182" d="M4369.433,4785.962l1.74,1.006.094-.555-1.74-1Z" transform="translate(-4362.275 -4783.269)" fill="#42e8e0"/>
          <path id="Path_86183-2" data-name="Path 86183" d="M4374.073,4788.643l1.259.727.093-.553-1.258-.729Z" transform="translate(-4362.471 -4783.382)" fill="#42e8e0"/>
          <path id="Path_86184-2" data-name="Path 86184" d="M4373.117,4788.089l.43.25.094-.555-.43-.248Z" transform="translate(-4362.43 -4783.359)" fill="#42e8e0"/>
          <path id="Path_86185-2" data-name="Path 86185" d="M4371.792,4787.324l.782.451.093-.553-.78-.452Z" transform="translate(-4362.374 -4783.326)" fill="#42e8e0"/>
          <path id="Path_86186-2" data-name="Path 86186" d="M4368.2,4788.156l1.259.728.094-.555-1.26-.728Z" transform="translate(-4362.223 -4783.361)" fill="#42e8e0"/>
          <path id="Path_86187-2" data-name="Path 86187" d="M4365.118,4786.373l2.466,1.426.094-.554-2.466-1.425Z" transform="translate(-4362.093 -4783.287)" fill="#42e8e0"/>
          <g id="Group_34944-2" data-name="Group 34944" transform="translate(5.291 10.785)">
            <path id="Path_86188-2" data-name="Path 86188" d="M4368.809,4795.753l2.466,1.426.094-.554-2.466-1.426Z" transform="translate(-4367.54 -4794.466)" fill="#42e8e0"/>
            <path id="Path_86189-2" data-name="Path 86189" d="M4367.484,4794.988l.781.452.093-.555-.78-.451Z" transform="translate(-4367.484 -4794.434)" fill="#42e8e0"/>
          </g>
          <path id="Path_86190-2" data-name="Path 86190" d="M4369.238,4793.1l2.467,1.426.094-.554-2.466-1.426Z" transform="translate(-4362.267 -4783.57)" fill="#42e8e0"/>
          <path id="Path_86191-2" data-name="Path 86191" d="M4367.914,4792.34l.78.451.094-.554-.78-.451Z" transform="translate(-4362.211 -4783.538)" fill="#42e8e0"/>
          <path id="Path_86192-2" data-name="Path 86192" d="M4366.7,4807.086l-4.646-2.685-.094.554,4.646,2.686Z" transform="translate(-4361.96 -4784.069)" fill="#42e8e0"/>
          <path id="Path_86193-2" data-name="Path 86193" d="M4368.564,4808.162l-1.152-.664-.094.554,1.151.663Z" transform="translate(-4362.186 -4784.2)" fill="#42e8e0"/>
          <path id="Path_86194-2" data-name="Path 86194" d="M4376.932,4808.636l-4.646-2.685-.095.554,4.646,2.685Z" transform="translate(-4362.391 -4784.134)" fill="#42e8e0"/>
          <path id="Path_86195-2" data-name="Path 86195" d="M4378.8,4809.712l-1.15-.664-.094.554,1.149.664Z" transform="translate(-4362.617 -4784.265)" fill="#42e8e0"/>
          <path id="Path_86196-2" data-name="Path 86196" d="M4363.537,4803.807l-1.259-.728-.094.554,1.258.727Z" transform="translate(-4361.969 -4784.013)" fill="#42e8e0"/>
          <path id="Path_86197-2" data-name="Path 86197" d="M4371.53,4805.521l-1.259-.727-.094.555,1.259.727Z" transform="translate(-4362.306 -4784.086)" fill="#42e8e0"/>
          <path id="Path_86198-2" data-name="Path 86198" d="M4366.566,4805.559l-2.466-1.426-.094.554,2.467,1.425Z" transform="translate(-4362.046 -4784.058)" fill="#42e8e0"/>
          <path id="Path_86199-2" data-name="Path 86199" d="M4367.966,4806.366l-.781-.451-.094.554.781.451Z" transform="translate(-4362.176 -4784.133)" fill="#42e8e0"/>
          <path id="Path_86200-2" data-name="Path 86200" d="M4371,4808.117l-2.466-1.426-.094.555,2.466,1.425Z" transform="translate(-4362.232 -4784.166)" fill="#42e8e0"/>
          <path id="Path_86201-2" data-name="Path 86201" d="M4372.4,4808.925l-.78-.45-.094.553.781.452Z" transform="translate(-4362.363 -4784.241)" fill="#42e8e0"/>
          <path id="Path_86202-2" data-name="Path 86202" d="M4371.307,4806.844l-1.258-.728-.094.555,1.259.727Z" transform="translate(-4362.297 -4784.141)" fill="#42e8e0"/>
          <path id="Path_86203-2" data-name="Path 86203" d="M4374.339,4808.6l-2.467-1.427-.093.555,2.466,1.425Z" transform="translate(-4362.374 -4784.186)" fill="#42e8e0"/>
          <path id="Path_86204-2" data-name="Path 86204" d="M4375.736,4809.4l-.78-.451-.094.553.782.452Z" transform="translate(-4362.503 -4784.261)" fill="#42e8e0"/>
          <path id="Path_86205-2" data-name="Path 86205" d="M4365.075,4803.246l-2.576-1.489-.094.555,2.577,1.488Z" transform="translate(-4361.979 -4783.958)" fill="#42e8e0"/>
          <path id="Path_86206-2" data-name="Path 86206" d="M4367.561,4804.682l-1.862-1.076-.094.554,1.862,1.077Z" transform="translate(-4362.113 -4784.036)" fill="#42e8e0"/>
          <path id="Path_86207-2" data-name="Path 86207" d="M4369.411,4805.751l-1.259-.728-.094.555,1.258.727Z" transform="translate(-4362.217 -4784.095)" fill="#42e8e0"/>
          <path id="Path_86208-2" data-name="Path 86208" d="M4382.1,4811.616l-2.575-1.489-.094.554,2.576,1.489Z" transform="translate(-4362.695 -4784.31)" fill="#42e8e0"/>
          <path id="Path_86209-2" data-name="Path 86209" d="M4384.579,4813.052l-1.862-1.077-.094.555,1.863,1.075Z" transform="translate(-4362.831 -4784.388)" fill="#42e8e0"/>
          <path id="Path_86210-2" data-name="Path 86210" d="M4386.431,4814.12l-1.259-.728-.094.555,1.258.727Z" transform="translate(-4362.934 -4784.447)" fill="#42e8e0"/>
          <path id="Path_86211-2" data-name="Path 86211" d="M4381.162,4794.188l2.577,1.489.094-.554-2.577-1.489Z" transform="translate(-4362.769 -4783.616)" fill="#42e8e0"/>
          <path id="Path_86212-2" data-name="Path 86212" d="M4378.71,4792.77l1.863,1.077.093-.554-1.862-1.077Z" transform="translate(-4362.666 -4783.556)" fill="#42e8e0"/>
          <path id="Path_86213-2" data-name="Path 86213" d="M4376.887,4791.716l1.258.727.093-.554-1.258-.727Z" transform="translate(-4362.589 -4783.512)" fill="#42e8e0"/>
          <path id="Path_86214-2" data-name="Path 86214" d="M4380.271,4792.215l2.577,1.489.094-.555-2.577-1.488Z" transform="translate(-4362.731 -4783.532)" fill="#42e8e0"/>
          <path id="Path_86215-2" data-name="Path 86215" d="M4377.818,4790.8l1.862,1.075.093-.554-1.861-1.076Z" transform="translate(-4362.628 -4783.472)" fill="#42e8e0"/>
          <path id="Path_86216-2" data-name="Path 86216" d="M4375.993,4789.744l1.259.727.093-.554-1.258-.728Z" transform="translate(-4362.551 -4783.428)" fill="#42e8e0"/>
          <path id="Path_86217-2" data-name="Path 86217" d="M4369.416,4794.661l.869.5.094-.554-.87-.5Z" transform="translate(-4362.274 -4783.635)" fill="#42e8e0"/>
          <path id="Path_86218-2" data-name="Path 86218" d="M4367.706,4793.673l1.149.663.094-.553-1.149-.665Z" transform="translate(-4362.202 -4783.594)" fill="#42e8e0"/>
          <path id="Path_86219-2" data-name="Path 86219" d="M4365.316,4801.931l-2.577-1.489-.094.554,2.577,1.489Z" transform="translate(-4361.989 -4783.902)" fill="#42e8e0"/>
          <path id="Path_86220-2" data-name="Path 86220" d="M4367.8,4803.368l-1.863-1.077-.093.555,1.863,1.076Z" transform="translate(-4362.124 -4783.98)" fill="#42e8e0"/>
          <path id="Path_86221-2" data-name="Path 86221" d="M4369.651,4804.436l-1.259-.727-.094.554,1.259.728Z" transform="translate(-4362.227 -4784.04)" fill="#42e8e0"/>
          <path id="Path_86222-2" data-name="Path 86222" d="M4363.834,4799.624l-.87-.5-.094.554.869.5Z" transform="translate(-4361.998 -4783.847)" fill="#42e8e0"/>
          <path id="Path_86223-2" data-name="Path 86223" d="M4365.531,4800.6l-1.149-.665-.093.556,1.148.664Z" transform="translate(-4362.058 -4783.88)" fill="#42e8e0"/>
          <path id="Path_86224-2" data-name="Path 86224" d="M4367.942,4802l-1.853-1.07-.094.555,1.853,1.07Z" transform="translate(-4362.13 -4783.923)" fill="#42e8e0"/>
          <path id="Path_86225-2" data-name="Path 86225" d="M4370.651,4791.015l.87.5.094-.555-.87-.5Z" transform="translate(-4362.326 -4783.481)" fill="#42e8e0"/>
          <path id="Path_86226-2" data-name="Path 86226" d="M4368.941,4790.027l1.15.665.094-.555-1.149-.665Z" transform="translate(-4362.253 -4783.44)" fill="#42e8e0"/>
          <path id="Path_86227-2" data-name="Path 86227" d="M4366.5,4788.615l1.852,1.071.093-.554-1.851-1.071Z" transform="translate(-4362.151 -4783.381)" fill="#42e8e0"/>
          <path id="Path_86228-2" data-name="Path 86228" d="M4372.034,4793.162l1.851,1.07.094-.555-1.852-1.07Z" transform="translate(-4362.384 -4783.572)" fill="#42e8e0"/>
          <path id="Path_86229-2" data-name="Path 86229" d="M4368.871,4791.437l2.5,1.443.094-.555-2.5-1.442Z" transform="translate(-4362.251 -4783.5)" fill="#42e8e0"/>
          <path id="Path_86230-2" data-name="Path 86230" d="M4367.547,4790.671l.781.452.094-.554-.781-.451Z" transform="translate(-4362.196 -4783.467)" fill="#42e8e0"/>
          <path id="Path_86231-2" data-name="Path 86231" d="M4366.275,4789.936l.781.453.093-.555-.78-.451Z" transform="translate(-4362.142 -4783.436)" fill="#42e8e0"/>
          <g id="Group_34946-2" data-name="Group 34946" transform="translate(1.087 12.144)">
            <path id="Path_86232-2" data-name="Path 86232" d="M4366.451,4797.408l2.465,1.426.094-.554-2.467-1.427Z" transform="translate(-4363.237 -4795.895)" fill="#42e8e0"/>
            <path id="Path_86233-2" data-name="Path 86233" d="M4365.126,4796.642l.78.451.095-.554-.781-.452Z" transform="translate(-4363.181 -4795.863)" fill="#42e8e0"/>
            <path id="Path_86234-2" data-name="Path 86234" d="M4366.628,4798.962l.87.5.094-.554-.869-.5Z" transform="translate(-4363.244 -4795.96)" fill="#42e8e0"/>
            <path id="Path_86235-2" data-name="Path 86235" d="M4369.834,4797.9l.869.5.093-.555-.869-.5Z" transform="translate(-4363.379 -4795.916)" fill="#42e8e0"/>
            <path id="Path_86236-2" data-name="Path 86236" d="M4371.128,4798.65l2.088,1.206.093-.555-2.087-1.2Z" transform="translate(-4363.434 -4795.948)" fill="#42e8e0"/>
            <path id="Path_86237-2" data-name="Path 86237" d="M4373.693,4800.132l1.242.717.093-.554-1.241-.718Z" transform="translate(-4363.542 -4796.01)" fill="#42e8e0"/>
            <path id="Path_86238-2" data-name="Path 86238" d="M4364.917,4797.975l1.149.665.094-.554-1.149-.665Z" transform="translate(-4363.172 -4795.919)" fill="#42e8e0"/>
            <g id="Group_34945-2" data-name="Group 34945" transform="translate(0 1.856)">
              <path id="Path_86239-2" data-name="Path 86239" d="M4364.805,4799.333l.869.5.094-.555-.868-.5Z" transform="translate(-4363.167 -4797.833)" fill="#42e8e0"/>
              <path id="Path_86240-2" data-name="Path 86240" d="M4363.1,4798.345l1.149.665.094-.555-1.149-.664Z" transform="translate(-4363.095 -4797.791)" fill="#42e8e0"/>
            </g>
            <path id="Path_86241-2" data-name="Path 86241" d="M4368.516,4797.143l.781.451.094-.554-.781-.452Z" transform="translate(-4363.323 -4795.884)" fill="#42e8e0"/>
            <path id="Path_86242-2" data-name="Path 86242" d="M4367.245,4796.408l.78.451.095-.554-.781-.453Z" transform="translate(-4363.27 -4795.853)" fill="#42e8e0"/>
          </g>
          <path id="Path_86243-2" data-name="Path 86243" d="M4373.508,4789.764l2.665,1.539.093-.555-2.664-1.539Z" transform="translate(-4362.446 -4783.429)" fill="#42e8e0"/>
          <path id="Path_86244-2" data-name="Path 86244" d="M4370.393,4787.962l2.5,1.443.094-.554-2.5-1.443Z" transform="translate(-4362.315 -4783.353)" fill="#42e8e0"/>
          <path id="Path_86245-2" data-name="Path 86245" d="M4369.068,4787.2l.781.451.094-.554-.78-.451Z" transform="translate(-4362.26 -4783.321)" fill="#42e8e0"/>
          <path id="Path_86246-2" data-name="Path 86246" d="M4367.8,4786.462l.78.451.094-.553-.78-.452Z" transform="translate(-4362.206 -4783.29)" fill="#42e8e0"/>
          <path id="Path_86247-2" data-name="Path 86247" d="M4367.028,4786.02l-1.687-.974.094-.554,1.687.974Z" transform="translate(-4362.103 -4783.23)" fill="#42e8e0"/>
        </g>
      </g>
    </g>
  </g>
</svg>
