<svg xmlns="http://www.w3.org/2000/svg" xmlns:xlink="http://www.w3.org/1999/xlink" width="337" height="210" viewBox="0 0 337 210">
  <defs>
    <clipPath id="clip-path">
      <path id="Trazado_118906" data-name="Trazado 118906" d="M1419.225,392.98l-.02,2.911c-.011,3.751-2.475,7.495-7.4,10.357-9.913,5.761-26.035,5.761-36.012,0-5.02-2.9-7.527-6.7-7.516-10.5l.02-2.91c-.011,3.8,2.5,7.6,7.517,10.5,9.976,5.761,26.1,5.761,36.012,0C1416.748,400.475,1419.214,396.73,1419.225,392.98Z" transform="translate(-1368.276 -392.835)" fill="none"/>
    </clipPath>
    <clipPath id="clip-path-2">
      <path id="Trazado_118907" data-name="Trazado 118907" d="M1419.225,380.142l-.02,2.91c-.011,3.751-2.475,7.495-7.4,10.357-9.913,5.761-26.035,5.761-36.012,0-5.02-2.9-7.527-6.7-7.516-10.5l.02-2.913c-.011,3.8,2.5,7.6,7.517,10.5,9.976,5.76,26.1,5.76,36.012,0C1416.748,387.635,1419.214,383.893,1419.225,380.142Z" transform="translate(-1368.276 -379.994)" fill="none"/>
    </clipPath>
    <linearGradient id="linear-gradient" x1="-114.823" y1="-68.227" x2="-114.808" y2="-68.227" gradientUnits="objectBoundingBox">
      <stop offset="0" stop-color="#c0bff6"/>
      <stop offset="0.294" stop-color="#c4c3f6"/>
      <stop offset="0.64" stop-color="#d2d2f9"/>
      <stop offset="1" stop-color="#e9e9fd"/>
    </linearGradient>
    <linearGradient id="linear-gradient-2" x1="-81.132" y1="-100.628" x2="-81.122" y2="-100.628" gradientUnits="objectBoundingBox">
      <stop offset="0" stop-color="#fff"/>
      <stop offset="1" stop-color="#d2e6ee"/>
    </linearGradient>
    <linearGradient id="linear-gradient-3" x1="-309.695" y1="-419.569" x2="-309.655" y2="-419.569" xlink:href="#linear-gradient"/>
    <clipPath id="clip-path-3">
      <path id="Trazado_118912" data-name="Trazado 118912" d="M1249.392,435.326l42.066,24.287-5.216,30.753L1244.2,466.1Z" transform="translate(-1244.204 -435.326)" fill="none"/>
    </clipPath>
    <linearGradient id="linear-gradient-4" x1="-81.525" y1="-100.249" x2="-81.515" y2="-100.249" xlink:href="#linear-gradient"/>
    <linearGradient id="linear-gradient-5" x1="-312.397" y1="-417.233" x2="-312.357" y2="-417.233" xlink:href="#linear-gradient"/>
    <linearGradient id="linear-gradient-6" x1="-126.905" y1="-155.266" x2="-126.905" y2="-155.277" xlink:href="#linear-gradient-2"/>
  </defs>
  <g id="Grupo_1093336" data-name="Grupo 1093336" transform="translate(9647 4571)">
    <g id="Grupo_1093333" data-name="Grupo 1093333" transform="translate(13 382)">
      <rect id="Rectángulo_388516" data-name="Rectángulo 388516" width="337" height="210" rx="16" transform="translate(-9660 -4953)" fill="#b0c5fd"/>
    </g>
    <g id="Grupo_1093335" data-name="Grupo 1093335" transform="translate(125.083 -241.245)">
      <g id="Grupo_1093330" data-name="Grupo 1093330" transform="translate(-9762.083 -4313.755)">
        <g id="Grupo_55762" data-name="Grupo 55762" transform="translate(241.048 103.265)">
          <g id="Grupo_55751" data-name="Grupo 55751" transform="translate(36.856 10.392)">
            <g id="Grupo_55750" data-name="Grupo 55750" style="isolation: isolate">
              <g id="Grupo_55748" data-name="Grupo 55748" transform="translate(30.032 35.761)">
                <path id="Trazado_118877" data-name="Trazado 118877" d="M1468.346,491.573l6.049-3.515,0,1.165-6.049,3.515Z" transform="translate(-1468.342 -488.058)" fill="#fff"/>
              </g>
              <path id="Trazado_118878" data-name="Trazado 118878" d="M1461.455,473.157l.16.131q.694.569,1.364,1.191c.052.05.106.1.158.147q.679.64,1.33,1.33c.036.037.074.075.108.113q.7.742,1.357,1.536l.011.014a37.678,37.678,0,0,1,2.429,3.286c.222.337.431.682.643,1.025.179.291.364.577.536.872.08.138.156.279.234.419.279.492.551.99.808,1.493l.086.166q.462.918.874,1.857l.041.1q.4.92.745,1.85l.045.121q.35.952.641,1.91c.011.037.021.075.032.113q.275.92.491,1.84c.014.057.027.116.04.173.145.632.271,1.263.37,1.89l.005.031c.1.632.175,1.262.228,1.884,0,.052.007.1.013.155.048.623.075,1.243.073,1.853l6.049-3.515c0-.241,0-.481-.01-.723-.007-.258-.02-.516-.036-.776-.008-.119-.019-.237-.029-.354l-.011-.155c-.007-.09-.014-.181-.022-.272q-.038-.391-.087-.784t-.115-.805l0-.022-.005-.031q-.06-.378-.131-.757-.079-.417-.17-.837c-.022-.1-.046-.2-.07-.3-.012-.059-.026-.117-.04-.176-.029-.122-.056-.244-.086-.368-.071-.283-.145-.567-.223-.85-.057-.207-.12-.414-.182-.621-.011-.037-.021-.076-.034-.115s-.021-.075-.032-.112c-.085-.276-.173-.552-.266-.828s-.186-.546-.284-.818c-.019-.05-.039-.1-.057-.15s-.03-.082-.046-.123c-.063-.171-.126-.342-.192-.511q-.151-.391-.313-.779c-.077-.186-.158-.372-.239-.556-.014-.034-.027-.066-.042-.1s-.03-.072-.046-.107c-.113-.259-.232-.518-.352-.774-.133-.283-.269-.566-.41-.847-.021-.042-.043-.085-.065-.127s-.058-.111-.086-.166c-.115-.223-.227-.448-.346-.67-.148-.276-.307-.547-.461-.82-.079-.141-.156-.283-.237-.423-.031-.055-.06-.111-.092-.165-.141-.239-.3-.468-.442-.7-.212-.344-.421-.691-.644-1.027-.035-.054-.067-.111-.1-.165q-.488-.731-1.01-1.438l0-.008h0q-.35-.473-.712-.935-.3-.374-.6-.739l-.011-.014-.009-.011q-.3-.367-.62-.724c-.206-.234-.413-.464-.624-.691-.034-.037-.07-.072-.1-.109s-.074-.077-.11-.116c-.147-.155-.293-.312-.443-.464-.223-.227-.449-.449-.676-.668-.07-.066-.142-.131-.212-.2-.052-.049-.106-.1-.158-.147-.112-.1-.222-.21-.334-.311q-.354-.318-.713-.622c-.1-.087-.211-.172-.317-.258-.053-.044-.107-.089-.161-.131-.078-.064-.156-.131-.236-.193-.233-.183-.468-.363-.7-.536-.171-.126-.343-.246-.515-.367l-.095-.067c-.03-.02-.059-.042-.087-.062q-.338-.232-.682-.45t-.678-.415l-.157-.092-14-8.082-6.048,3.515,14,8.082c.542.313,1.077.655,1.6,1.02l.095.067Q1460.739,472.578,1461.455,473.157Z" transform="translate(-1444.246 -459.377)" fill="#fff"/>
              <g id="Grupo_55749" data-name="Grupo 55749" transform="translate(0 3.515)">
                <path id="Trazado_118879" data-name="Trazado 118879" d="M1458.312,470.278c8.854,5.112,16.009,17.5,15.98,27.68l0,1.165-30.031-17.339.055-19.587Z" transform="translate(-1444.257 -462.196)" fill="#d3d3d3"/>
              </g>
            </g>
          </g>
          <path id="Trazado_118880" data-name="Trazado 118880" d="M1420.99,478.491l29.066-16.3,15.7,9.17v2.17c3.744,1.717,12.04,13.659,10.968,22.956-.358.143-29.036,16.307-29.036,16.307Z" transform="translate(-1413.145 -448.29)" fill="#fff"/>
          <path id="Trazado_118881" data-name="Trazado 118881" d="M1440.164,497.934l28.964-16.377.071,5.864-28.464,16.02Z" transform="translate(-1408.411 -443.51)" fill="#21587b"/>
          <path id="Trazado_118882" data-name="Trazado 118882" d="M1463.528,469.55l-33.516,18.689,1.573,1.359,31.943-17.879Z" transform="translate(-1410.917 -446.474)" fill="#e5e5e5"/>
          <path id="Trazado_118883" data-name="Trazado 118883" d="M1414.7,477.255" transform="translate(-1414.698 -444.572)" fill="#0b0b0b"/>
          <g id="Grupo_55755" data-name="Grupo 55755" transform="translate(1.742 30.202)">
            <g id="Grupo_55754" data-name="Grupo 55754" style="isolation: isolate">
              <g id="Grupo_55752" data-name="Grupo 55752" transform="translate(30.032 35.761)">
                <path id="Trazado_118884" data-name="Trazado 118884" d="M1440.184,507.46l6.048-3.515,0,1.165-6.048,3.515Z" transform="translate(-1440.181 -503.945)" fill="#fff"/>
              </g>
              <path id="Trazado_118885" data-name="Trazado 118885" d="M1433.293,489.044l.16.131q.694.569,1.364,1.192c.052.049.106.1.158.147q.679.64,1.332,1.329c.035.039.072.076.109.115.462.495.917,1.007,1.355,1.536l.011.014a37.261,37.261,0,0,1,2.429,3.286c.223.335.431.681.643,1.025.179.291.364.576.536.872.081.138.156.279.236.419.278.493.55.989.807,1.492l.086.166q.462.918.874,1.857l.041.1q.4.918.746,1.85c.015.04.031.08.046.121q.35.952.64,1.909c.011.039.021.076.032.115q.277.92.491,1.84c.014.057.028.115.041.173.144.632.269,1.263.369,1.89l.005.031q.151.948.228,1.884c0,.051.009.1.012.153.049.625.076,1.243.073,1.853l6.049-3.515c0-.239,0-.48-.01-.723s-.02-.515-.036-.776c-.008-.117-.019-.236-.027-.354-.005-.051-.009-.1-.012-.153-.008-.091-.014-.181-.021-.272q-.037-.391-.089-.786c-.034-.267-.072-.536-.115-.805l0-.022,0-.031c-.04-.251-.084-.5-.131-.756-.052-.279-.108-.557-.169-.837-.021-.1-.046-.2-.069-.3-.014-.057-.027-.116-.041-.174-.029-.122-.056-.246-.086-.368-.07-.284-.145-.567-.223-.852-.057-.207-.12-.413-.181-.62-.012-.039-.023-.076-.034-.115s-.021-.075-.034-.112c-.085-.277-.173-.552-.265-.829s-.186-.545-.284-.817c-.019-.05-.039-.1-.056-.15s-.031-.082-.047-.123c-.063-.171-.126-.342-.192-.513q-.151-.389-.313-.778c-.077-.186-.158-.372-.238-.557-.015-.032-.028-.066-.042-.1s-.031-.072-.047-.109q-.17-.387-.352-.774-.2-.425-.409-.845c-.022-.042-.045-.085-.066-.127l-.086-.167c-.113-.223-.227-.446-.345-.668-.149-.277-.307-.547-.46-.82-.08-.141-.156-.283-.238-.423-.031-.055-.06-.111-.092-.166-.141-.238-.3-.466-.442-.7-.212-.345-.422-.691-.645-1.027-.035-.055-.067-.111-.1-.165q-.49-.733-1.01-1.439l0-.007h0q-.35-.475-.712-.935-.3-.374-.6-.739l-.011-.014-.009-.011c-.2-.246-.41-.486-.62-.724s-.413-.465-.624-.692l-.1-.108-.11-.115c-.147-.156-.293-.312-.443-.464-.223-.227-.448-.45-.676-.668-.07-.067-.142-.131-.212-.2-.052-.05-.106-.1-.158-.147-.111-.1-.222-.209-.334-.31-.236-.212-.473-.42-.712-.622-.1-.089-.212-.172-.317-.258-.054-.045-.107-.089-.162-.132-.078-.064-.156-.13-.236-.192-.232-.185-.467-.363-.7-.537-.171-.125-.343-.246-.515-.365l-.095-.067-.087-.062c-.226-.155-.453-.306-.681-.45s-.452-.282-.68-.415l-.157-.092-14-8.082-6.047,3.515,14,8.082c.542.313,1.077.655,1.6,1.02l.095.067Q1432.577,488.466,1433.293,489.044Z" transform="translate(-1416.084 -475.265)" fill="#fff"/>
              <g id="Grupo_55753" data-name="Grupo 55753" transform="translate(0 3.515)">
                <path id="Trazado_118886" data-name="Trazado 118886" d="M1430.15,486.166c8.855,5.112,16.009,17.5,15.98,27.678l0,1.166-30.032-17.339.056-19.587Z" transform="translate(-1416.095 -478.084)" fill="#d3d3d3"/>
              </g>
            </g>
          </g>
          <path id="Trazado_118887" data-name="Trazado 118887" d="M1464.428,487.421l-4.935-3.039,4.863-2.825Z" transform="translate(-1403.639 -443.51)" fill="#0e0e0e"/>
          <path id="Trazado_118888" data-name="Trazado 118888" d="M1444.007,499.959l.027.451,13.123-.317,25.433-13.525.036-.465Z" transform="translate(-1407.462 -442.388)" fill="#111"/>
          <path id="Trazado_118889" data-name="Trazado 118889" d="M1468.251,486.3l-24.244,13.66,13.088-.286,25.6-13.588Z" transform="translate(-1407.462 -442.391)" fill="#393939"/>
          <path id="Trazado_118890" data-name="Trazado 118890" d="M1421.81,478.791l9.55,5.575a6.6,6.6,0,0,0,6.54.064l23.217-12.954a2.107,2.107,0,0,0,.016-3.671l-9.841-5.606Z" transform="translate(-1412.942 -448.289)" fill="#393939"/>
          <g id="Grupo_55758" data-name="Grupo 55758" transform="translate(21.152 34.131)">
            <g id="Grupo_55757" data-name="Grupo 55757" style="isolation: isolate">
              <path id="Trazado_118891" data-name="Trazado 118891" d="M1431.713,479.693l0,.005a.487.487,0,0,0,.153.135l.382.222a.916.916,0,0,0,.223.086l.035.009a1.232,1.232,0,0,0,.254.027h.01a1.174,1.174,0,0,0,.267-.03h.01a.92.92,0,0,0,.238-.091l1.419-.819a.368.368,0,0,0,.217-.3v.35a.366.366,0,0,1-.217.3l-1.419.819a.746.746,0,0,1-.1.05c-.029.011-.058.021-.089.03l-.046.011-.01,0-.021,0a.718.718,0,0,1-.072.012l-.072.009c-.025,0-.049,0-.074,0h-.076l-.083-.006c-.031,0-.062-.007-.094-.013-.014,0-.026-.007-.039-.01l-.035-.009a.629.629,0,0,1-.066-.016.786.786,0,0,1-.157-.07l-.381-.221-.009,0a.589.589,0,0,1-.091-.067.374.374,0,0,1-.044-.047l-.01-.015,0-.006-.016-.022a.326.326,0,0,1-.019-.041c-.005-.014-.009-.027-.012-.041a.208.208,0,0,1,0-.042v-.355A.273.273,0,0,0,1431.713,479.693Z" transform="translate(-1431.662 -478.289)" fill="#d4e7ef"/>
              <g id="Grupo_55756" data-name="Grupo 55756">
                <path id="Trazado_118892" data-name="Trazado 118892" d="M1431.879,479.362c-.284.165-.292.433-.009.6l.382.222a1.151,1.151,0,0,0,1.037,0l1.419-.819a.317.317,0,0,0,0-.6l-.382-.222a1.129,1.129,0,0,0-1.032,0Z" transform="translate(-1431.662 -478.416)" fill="#dcecf3"/>
              </g>
            </g>
          </g>
          <g id="Grupo_55761" data-name="Grupo 55761" transform="translate(24.571 32.187)">
            <g id="Grupo_55760" data-name="Grupo 55760" style="isolation: isolate">
              <path id="Trazado_118893" data-name="Trazado 118893" d="M1434.455,478.132l0,.006a.5.5,0,0,0,.154.135l.381.221a.85.85,0,0,0,.224.086l.034.009a1.238,1.238,0,0,0,.255.029h.009a1.2,1.2,0,0,0,.268-.03l.01,0a.847.847,0,0,0,.237-.091l1.419-.819a.365.365,0,0,0,.217-.3v.349a.366.366,0,0,1-.217.3l-1.419.819a.9.9,0,0,1-.1.05c-.029.011-.059.021-.089.03l-.045.011-.01,0-.021.005-.073.013a.714.714,0,0,1-.072.007l-.074.005h-.076c-.027,0-.055,0-.082,0s-.064-.008-.095-.014l-.039-.009-.035-.009c-.021-.006-.044-.01-.065-.016a.831.831,0,0,1-.158-.07l-.382-.222-.009-.005a.516.516,0,0,1-.09-.066.434.434,0,0,1-.045-.049l-.01-.015,0-.005-.015-.022a.319.319,0,0,1-.02-.041.216.216,0,0,1-.011-.041.221.221,0,0,1-.005-.042v-.357A.268.268,0,0,0,1434.455,478.132Z" transform="translate(-1434.404 -476.73)" fill="#fafcfe"/>
              <g id="Grupo_55759" data-name="Grupo 55759">
                <path id="Trazado_118894" data-name="Trazado 118894" d="M1434.622,477.8c-.286.165-.293.434-.01.6l.381.221a1.152,1.152,0,0,0,1.038,0l1.419-.819a.317.317,0,0,0,0-.6l-.38-.221a1.134,1.134,0,0,0-1.032,0Z" transform="translate(-1434.404 -476.857)" fill="#fafcfe"/>
              </g>
            </g>
          </g>
          <path id="Trazado_118895" data-name="Trazado 118895" d="M1426.227,477.981l5.364,3,23.35-13.338-5.113-3.182Z" transform="translate(-1411.852 -447.729)" fill="#0d0d0d"/>
          <path id="Trazado_118896" data-name="Trazado 118896" d="M1427.275,478.208l-5.292-14.661,1.256.612,5.323,14.71Z" transform="translate(-1412.9 -447.956)" fill="#393939"/>
          <path id="Trazado_118897" data-name="Trazado 118897" d="M1428.321,481.422l23.305-13.517-5.364-14.7-23.305,13.517Z" transform="translate(-1412.659 -450.508)" fill="#21587b"/>
          <path id="Trazado_118898" data-name="Trazado 118898" d="M1422,466.22l23.305-13.516,1.193.63-23.305,13.517Z" transform="translate(-1412.895 -450.633)" fill="#393939"/>
          <path id="Trazado_118899" data-name="Trazado 118899" d="M1445.95,465v4.881l4.121-2.36Z" transform="translate(-1406.983 -447.598)" fill="#0a0a0a"/>
          <path id="Trazado_118900" data-name="Trazado 118900" d="M1439.6,451.043c8.439,4.005,11.156,17.379,11.586,19.238a3.713,3.713,0,0,0,2.145,2.5L1433.878,483.8a3.713,3.713,0,0,1-2.145-2.5c-.429-1.859-3.147-15.233-11.586-19.238Z" transform="translate(-1413.353 -451.043)" fill="#fff"/>
        </g>
        <g id="Grupo_55763" data-name="Grupo 55763" transform="translate(53.304 47.049)">
          <path id="Trazado_118901" data-name="Trazado 118901" d="M1284.2,420.14a5.88,5.88,0,0,0-1.965,11.428h3.93a5.88,5.88,0,0,0-1.965-11.428Z" transform="translate(-1260.626 -402.457)" fill="#6e40fb"/>
          <path id="Trazado_118902" data-name="Trazado 118902" d="M1283.329,447.765a1.473,1.473,0,0,1-1.474-1.474V429.1a1.474,1.474,0,1,1,2.948,0v17.192A1.474,1.474,0,0,1,1283.329,447.765Z" transform="translate(-1259.75 -400.609)" fill="#393939"/>
          <path id="Trazado_118903" data-name="Trazado 118903" d="M1284.2,431.929a5.895,5.895,0,1,1,5.894-5.894A5.9,5.9,0,0,1,1284.2,431.929Zm0-8.842a2.947,2.947,0,1,0,2.948,2.948A2.95,2.95,0,0,0,1284.2,423.088Z" transform="translate(-1260.626 -402.457)" fill="#393939"/>
          <path id="Trazado_118904" data-name="Trazado 118904" d="M1303.326,446.63a1.474,1.474,0,0,1-1.042-2.519,20.41,20.41,0,0,0,6.052-14.575,20.631,20.631,0,1,0-41.262,0,20.424,20.424,0,0,0,6.05,14.577,1.474,1.474,0,0,1-2.081,2.089,23.352,23.352,0,0,1-6.916-16.666,23.578,23.578,0,1,1,47.156,0,23.332,23.332,0,0,1-6.918,16.663A1.463,1.463,0,0,1,1303.326,446.63Z" transform="translate(-1264.127 -405.958)" fill="#393939"/>
          <path id="Trazado_118905" data-name="Trazado 118905" d="M1296.209,439.514a1.475,1.475,0,0,1-1.037-2.521,12.608,12.608,0,0,0,3.75-9.013,12.772,12.772,0,0,0-25.544,0,12.615,12.615,0,0,0,3.75,9.015,1.474,1.474,0,0,1-2.077,2.092,15.541,15.541,0,0,1-4.62-11.107,15.719,15.719,0,1,1,31.438,0,15.527,15.527,0,0,1-4.621,11.1A1.461,1.461,0,0,1,1296.209,439.514Z" transform="translate(-1262.571 -404.402)" fill="#393939"/>
        </g>
        <g id="Group_55121" data-name="Group 55121" transform="translate(147.271 80.56)">
          <g id="Group_55110" data-name="Group 55110">
            <g id="Group_55107" data-name="Group 55107" transform="translate(1.961 33.147)">
              <path id="Path_118841" data-name="Path 118841" d="M1362.493,472.071l-21.431-12.653v6.946l48.333,28.375v2.042l1.525-.924V489.03l-28.512-16.959Z" transform="translate(-1341.062 -459.418)" fill="#bdc3c7"/>
            </g>
            <g id="Group_55108" data-name="Group 55108" transform="translate(11.54 51.431)">
              <path id="Path_118842" data-name="Path 118842" d="M1370.571,490.868l2.83-1.587v-2.307l-2.83,1.6Z" transform="translate(-1343.355 -470.899)" fill="#bdc3c7"/>
              <path id="Path_118843" data-name="Path 118843" d="M1368.163,484.618l-2.831,1.587v-5.337l2.831,1.66Z" transform="translate(-1344.649 -472.406)" fill="#bdc3c7"/>
              <path id="Path_118844" data-name="Path 118844" d="M1378.79,490.156l-2.83,1.6-27.216-16.081,2.831-1.593Z" transform="translate(-1348.744 -474.082)" fill="#bdc3c7"/>
            </g>
            <g id="Group_55109" data-name="Group 55109">
              <path id="Path_118845" data-name="Path 118845" d="M1341.21,432.834l-1.721.756v.042l50.259,29.52,1.558-.875Z" transform="translate(-1339.489 -432.834)" fill="#21587b"/>
              <path id="Path_118846" data-name="Path 118846" d="M1381.384,456.467l-.17-.1-1.532.975h.141v33.272l1.559-.832Z" transform="translate(-1329.566 -427.024)" fill="#21587b"/>
            </g>
            <path id="Path_118847" data-name="Path 118847" d="M1389.783,462.994l-50.294-29.555v33.254l50.294,29.554Z" transform="translate(-1339.489 -432.685)" fill="#393939"/>
            <path id="Path_118848" data-name="Path 118848" d="M1340.886,467.091V436.136l46.375,27.273v30.956Z" transform="translate(-1339.144 -432.019)" fill="#21587b"/>
            <path id="Path_118849" data-name="Path 118849" d="M1389.783,496.61v-6.946l-50.294-29.552v6.948l18.07,10.617v5.308l-6.531-3.86v2.3l27.214,16.08v-2.3l-6.531-3.86v-5.354Z" transform="translate(-1339.489 -426.1)" fill="#ecf0f1"/>
          </g>
          <g id="Group_55112" data-name="Group 55112" transform="translate(1.742 4.116)">
            <path id="Path_118850" data-name="Path 118850" d="M1340.886,438.536v-2.4l46.375,27.274v2.4Z" transform="translate(-1340.886 -436.135)" fill="#ecf0f1"/>
            <g id="Group_55111" data-name="Group 55111" transform="translate(40.633 25.441)">
              <path id="Path_118851" data-name="Path 118851" d="M1375.814,458.123l1.327-.647.187.349-1.327.647Z" transform="translate(-1372.896 -456.308)" fill="#21587b"/>
              <path id="Path_118852" data-name="Path 118852" d="M1377.327,459.147,1376,456.938l-.187.128,1.327,2.209Z" transform="translate(-1372.896 -456.44)" fill="#21587b"/>
              <path id="Path_118853" data-name="Path 118853" d="M1375.279,457.9l-1.8-1.039,0-.327,1.8,1.039Z" transform="translate(-1373.474 -456.539)" fill="#21587b"/>
            </g>
          </g>
          <g id="Group_55120" data-name="Group 55120" transform="translate(3.919 10.554)">
            <path id="Path_118854" data-name="Path 118854" d="M1356.266,472.995l-13.634-7.87V441.3l13.634,7.872Z" transform="translate(-1342.632 -441.298)" fill="#ecf0f1"/>
            <path id="Path_118855" data-name="Path 118855" d="M1377.592,485.306l-7.009-4.046V457.435l7.009,4.046Z" transform="translate(-1335.731 -437.314)" fill="#ecf0f1"/>
            <path id="Path_118856" data-name="Path 118856" d="M1372.394,464.257l-17.146-9.9v-5.776l17.146,9.9Z" transform="translate(-1339.517 -439.5)" fill="#ecf0f1"/>
            <g id="Group_55113" data-name="Group 55113" transform="translate(15.941 17.687)">
              <path id="Path_118857" data-name="Path 118857" d="M1372.352,466.222l-16.935-9.777v-.963l16.935,9.777Z" transform="translate(-1355.417 -455.483)" fill="#ecf0f1"/>
            </g>
            <g id="Group_55114" data-name="Group 55114" transform="translate(15.941 20.093)">
              <path id="Path_118858" data-name="Path 118858" d="M1372.352,468.154l-16.935-9.778v-.963l16.935,9.777Z" transform="translate(-1355.417 -457.413)" fill="#ecf0f1"/>
            </g>
            <g id="Group_55115" data-name="Group 55115" transform="translate(15.941 22.5)">
              <path id="Path_118859" data-name="Path 118859" d="M1372.352,470.084l-16.935-9.778v-.963l16.935,9.778Z" transform="translate(-1355.417 -459.343)" fill="#ecf0f1"/>
            </g>
            <g id="Group_55116" data-name="Group 55116" transform="translate(15.941 24.905)">
              <path id="Path_118860" data-name="Path 118860" d="M1372.352,472.014l-16.935-9.778v-.964l16.935,9.778Z" transform="translate(-1355.417 -461.272)" fill="#ecf0f1"/>
            </g>
            <g id="Group_55117" data-name="Group 55117" transform="translate(15.941 27.313)">
              <path id="Path_118861" data-name="Path 118861" d="M1372.352,473.944l-16.935-9.778V463.2l16.935,9.777Z" transform="translate(-1355.417 -463.203)" fill="#ecf0f1"/>
            </g>
            <g id="Group_55118" data-name="Group 55118" transform="translate(15.941 29.719)">
              <path id="Path_118862" data-name="Path 118862" d="M1372.352,475.874l-16.935-9.778v-.963l16.935,9.778Z" transform="translate(-1355.417 -465.133)" fill="#ecf0f1"/>
            </g>
            <g id="Group_55119" data-name="Group 55119" transform="translate(15.941 32.126)">
              <path id="Path_118863" data-name="Path 118863" d="M1372.352,477.8l-16.935-9.778v-.963l16.935,9.778Z" transform="translate(-1355.417 -467.063)" fill="#ecf0f1"/>
            </g>
          </g>
        </g>
        <g id="Group_55122" data-name="Group 55122" transform="translate(121.285 131.473)">
          <path id="Path_118864" data-name="Path 118864" d="M1365.723,513.773l-47.075-27.178,21.563-12.03,47.075,27.178Z" transform="translate(-1318.648 -473.444)" fill="#bdc3c7"/>
          <path id="Path_118865" data-name="Path 118865" d="M1318.648,483.314v1.12l1.308.228.971-1.071Z" transform="translate(-1318.648 -471.284)" fill="#bcbec0"/>
          <path id="Path_118866" data-name="Path 118866" d="M1374.011,495.463v1.121l-1.589-.378Z" transform="translate(-1305.372 -468.285)" fill="#bcbec0"/>
          <path id="Path_118867" data-name="Path 118867" d="M1365.723,512.874,1318.648,485.7l21.563-12.03,47.075,27.178Z" transform="translate(-1318.648 -473.666)" fill="#ecf0f1"/>
        </g>
        <g id="Group_55125" data-name="Group 55125" transform="translate(177.563 164.81)">
          <g id="Group_55123" data-name="Group 55123">
            <path id="Path_118868" data-name="Path 118868" d="M1376.362,509c-3.488,2.014-8.422,2.428-11.019.93s-1.877-4.348,1.611-6.362,8.42-2.428,11.018-.93S1379.849,506.989,1376.362,509Z" transform="translate(-1363.783 -500.072)" fill="#bdc3c7"/>
            <path id="Path_118869" data-name="Path 118869" d="M1376.682,503.023v1.909h-1.355Z" transform="translate(-1360.933 -499.756)" fill="#bcbec0"/>
            <path id="Path_118870" data-name="Path 118870" d="M1363.783,505.2v1.733h.951l.694-.695Z" transform="translate(-1363.783 -499.218)" fill="#bcbec0"/>
            <path id="Path_118871" data-name="Path 118871" d="M1376.362,507.664c-3.488,2.014-8.422,2.428-11.019.93s-1.877-4.348,1.611-6.361,8.42-2.428,11.018-.93S1379.849,505.65,1376.362,507.664Z" transform="translate(-1363.783 -500.402)" fill="#e2e2e2"/>
          </g>
          <path id="Path_118872" data-name="Path 118872" d="M1370.509,504.324l-.011-.006a.349.349,0,0,1,0-.661l2.8-1.615a1.257,1.257,0,0,1,1.144,0l.011.007a.348.348,0,0,1,.221.44.354.354,0,0,1-.217.219l-2.8,1.616A1.263,1.263,0,0,1,1370.509,504.324Z" transform="translate(-1362.184 -500.032)" fill="#bdc3c7"/>
          <path id="Path_118873" data-name="Path 118873" d="M1375.657,501.145c-.064-.037-.13-.071-.2-.106l-2.3,1.327.238.415,2.536-1.46C1375.846,501.26,1375.755,501.2,1375.657,501.145Z" transform="translate(-1361.468 -500.245)" fill="#bdc3c7"/>
          <g id="Group_55124" data-name="Group 55124" transform="translate(9.03 1.82)">
            <path id="Path_118874" data-name="Path 118874" d="M1373.717,502.1l-1.006.552.1.012-1.024.591v-.006l-.753-.137v.668h0a.279.279,0,0,0,.141.156l.011.006a.552.552,0,0,0,.484.046l1.99-1.148a.11.11,0,0,0,.056-.072h0Z" transform="translate(-1371.024 -501.804)" fill="#262626"/>
            <path id="Path_118875" data-name="Path 118875" d="M1371.172,503.327c-.157-.09-.193-.216-.083-.279l1.991-1.15a.552.552,0,0,1,.484.046c.168.1.2.223.093.286l-1.991,1.15a.556.556,0,0,1-.484-.046Z" transform="translate(-1371.025 -501.862)" fill="#2b2b2b"/>
          </g>
        </g>
        <g id="Group_55262" data-name="Group 55262" transform="translate(125.854 134.085)">
          <g id="Group_55127" data-name="Group 55127" transform="translate(13.886)">
            <g id="Group_55126" data-name="Group 55126">
              <path id="Path_118876" data-name="Path 118876" d="M1338.076,477.414c.08.046.082.12.007.163l-1.524.873a.309.309,0,0,1-.281-.006l-2.768-1.615c-.08-.047-.084-.121-.009-.165l1.524-.874a.315.315,0,0,1,.283.008Z" transform="translate(-1333.449 -475.761)" fill="#393939"/>
            </g>
          </g>
          <g id="Group_55129" data-name="Group 55129" transform="translate(17.485 2.105)">
            <g id="Group_55128" data-name="Group 55128">
              <path id="Path_118877" data-name="Path 118877" d="M1340.433,478.792c.08.047.085.121.009.163l-1.523.875a.31.31,0,0,1-.283-.006l-2.238-1.308c-.08-.046-.085-.12-.009-.163l1.524-.874a.316.316,0,0,1,.282.006Z" transform="translate(-1336.336 -477.449)" fill="#393939"/>
            </g>
          </g>
          <g id="Group_55131" data-name="Group 55131" transform="translate(20.541 3.891)">
            <g id="Group_55130" data-name="Group 55130">
              <path id="Path_118878" data-name="Path 118878" d="M1342.887,480.226c.08.047.085.121.009.165l-1.522.873a.311.311,0,0,1-.283-.006l-2.242-1.307c-.079-.047-.084-.121-.008-.165l1.522-.874a.318.318,0,0,1,.283.006Z" transform="translate(-1338.786 -478.882)" fill="#393939"/>
            </g>
          </g>
          <g id="Group_55133" data-name="Group 55133" transform="translate(23.597 5.679)">
            <g id="Group_55132" data-name="Group 55132">
              <path id="Path_118879" data-name="Path 118879" d="M1345.338,481.66c.081.046.085.12.009.163l-1.524.874a.311.311,0,0,1-.283-.006l-2.241-1.308c-.08-.046-.082-.12-.008-.163l1.524-.874a.311.311,0,0,1,.279.006Z" transform="translate(-1341.237 -480.316)" fill="#393939"/>
            </g>
          </g>
          <g id="Group_55135" data-name="Group 55135" transform="translate(26.657 7.465)">
            <g id="Group_55134" data-name="Group 55134">
              <path id="Path_118880" data-name="Path 118880" d="M1347.788,483.093c.081.046.085.121.009.163l-1.522.874a.318.318,0,0,1-.283-.006l-2.238-1.308c-.079-.046-.084-.121-.007-.163l1.523-.874a.31.31,0,0,1,.283.006Z" transform="translate(-1343.691 -481.748)" fill="#393939"/>
            </g>
          </g>
          <g id="Group_55137" data-name="Group 55137" transform="translate(29.71 9.254)">
            <g id="Group_55136" data-name="Group 55136">
              <path id="Path_118881" data-name="Path 118881" d="M1350.242,484.527c.078.046.083.121.007.163l-1.522.874a.318.318,0,0,1-.283-.006l-2.242-1.308c-.08-.046-.083-.12-.009-.163l1.524-.874a.319.319,0,0,1,.283.006Z" transform="translate(-1346.14 -483.183)" fill="#393939"/>
            </g>
          </g>
          <g id="Group_55139" data-name="Group 55139" transform="translate(32.767 11.043)">
            <g id="Group_55138" data-name="Group 55138">
              <path id="Path_118882" data-name="Path 118882" d="M1352.693,485.96c.08.047.085.121.009.165l-1.522.873a.313.313,0,0,1-.284-.006l-2.24-1.307c-.081-.047-.084-.12-.008-.163l1.522-.873a.306.306,0,0,1,.281.006Z" transform="translate(-1348.592 -484.617)" fill="#393939"/>
            </g>
          </g>
          <g id="Group_55141" data-name="Group 55141" transform="translate(35.825 12.828)">
            <g id="Group_55140" data-name="Group 55140">
              <path id="Path_118883" data-name="Path 118883" d="M1355.142,487.393c.081.046.085.121.009.163l-1.523.874a.309.309,0,0,1-.28-.005l-2.241-1.308c-.08-.046-.085-.121-.009-.163l1.522-.874a.31.31,0,0,1,.283.006Z" transform="translate(-1351.044 -486.049)" fill="#393939"/>
            </g>
          </g>
          <g id="Group_55143" data-name="Group 55143" transform="translate(38.881 14.616)">
            <g id="Group_55142" data-name="Group 55142">
              <path id="Path_118884" data-name="Path 118884" d="M1357.6,488.827c.081.046.085.121.01.163l-1.524.875a.314.314,0,0,1-.283-.007l-2.241-1.307c-.081-.047-.085-.12-.009-.165l1.523-.874a.314.314,0,0,1,.283.007Z" transform="translate(-1353.495 -487.483)" fill="#393939"/>
            </g>
          </g>
          <g id="Group_55145" data-name="Group 55145" transform="translate(41.94 16.405)">
            <g id="Group_55144" data-name="Group 55144">
              <path id="Path_118885" data-name="Path 118885" d="M1360.047,490.261c.08.046.083.121.009.163l-1.524.874a.318.318,0,0,1-.283-.006l-2.238-1.308c-.081-.046-.083-.12-.007-.162l1.522-.874a.309.309,0,0,1,.281.006Z" transform="translate(-1355.949 -488.917)" fill="#393939"/>
            </g>
          </g>
          <g id="Group_55147" data-name="Group 55147" transform="translate(44.997 18.191)">
            <g id="Group_55146" data-name="Group 55146">
              <path id="Path_118886" data-name="Path 118886" d="M1362.5,491.694c.08.047.083.12.007.163l-1.522.874a.3.3,0,0,1-.283-.006l-2.238-1.307c-.08-.047-.085-.121-.009-.165l1.524-.873a.311.311,0,0,1,.283.006Z" transform="translate(-1358.401 -490.35)" fill="#393939"/>
            </g>
          </g>
          <g id="Group_55149" data-name="Group 55149" transform="translate(48.052 19.976)">
            <g id="Group_55148" data-name="Group 55148">
              <path id="Path_118887" data-name="Path 118887" d="M1364.951,493.126c.08.046.085.121.009.163l-1.524.874a.308.308,0,0,1-.282-.006l-2.242-1.308c-.08-.046-.084-.12-.009-.163l1.524-.874a.315.315,0,0,1,.283.008Z" transform="translate(-1360.85 -491.782)" fill="#393939"/>
            </g>
          </g>
          <g id="Group_55151" data-name="Group 55151" transform="translate(51.111 21.767)">
            <g id="Group_55150" data-name="Group 55150">
              <path id="Path_118888" data-name="Path 118888" d="M1367.4,494.562c.081.046.085.12.009.163l-1.522.874a.318.318,0,0,1-.283-.006l-2.24-1.308c-.081-.046-.084-.12-.008-.163l1.522-.874a.315.315,0,0,1,.283.007Z" transform="translate(-1363.304 -493.218)" fill="#393939"/>
            </g>
          </g>
          <g id="Group_55153" data-name="Group 55153" transform="translate(53.879 23.383)">
            <g id="Group_55152" data-name="Group 55152">
              <path id="Path_118889" data-name="Path 118889" d="M1370.216,496.207c.08.046.084.12.009.163l-1.522.874a.318.318,0,0,1-.283-.006l-2.833-1.656c-.08-.047-.085-.121-.009-.165l1.524-.873a.308.308,0,0,1,.282.006Z" transform="translate(-1365.524 -494.514)" fill="#393939"/>
            </g>
          </g>
          <g id="Group_55155" data-name="Group 55155" transform="translate(11.107 1.289)">
            <g id="Group_55154" data-name="Group 55154">
              <path id="Path_118890" data-name="Path 118890" d="M1336.373,478.45c.081.046.083.121.007.163l-2.051,1.177a.309.309,0,0,1-.28-.005l-2.766-1.619c-.081-.046-.084-.12-.008-.163l2.051-1.177a.31.31,0,0,1,.283.006Z" transform="translate(-1331.22 -476.795)" fill="#393939"/>
            </g>
          </g>
          <g id="Group_55157" data-name="Group 55157" transform="translate(14.696 3.39)">
            <g id="Group_55156" data-name="Group 55156">
              <path id="Path_118891" data-name="Path 118891" d="M1338.766,479.848c.08.046.083.121.009.163l-2.055,1.178a.315.315,0,0,1-.283-.007l-2.275-1.33c-.08-.047-.085-.121-.009-.165l2.051-1.177a.315.315,0,0,1,.283.008Z" transform="translate(-1334.099 -478.48)" fill="#393939"/>
            </g>
          </g>
          <g id="Group_55159" data-name="Group 55159" transform="translate(17.796 5.201)">
            <g id="Group_55158" data-name="Group 55158">
              <path id="Path_118892" data-name="Path 118892" d="M1341.252,481.3c.08.047.083.121.007.165l-2.051,1.177a.31.31,0,0,1-.283-.006l-2.277-1.332c-.081-.047-.085-.121-.01-.165l2.052-1.177a.311.311,0,0,1,.283.006Z" transform="translate(-1336.585 -479.932)" fill="#393939"/>
            </g>
          </g>
          <g id="Group_55161" data-name="Group 55161" transform="translate(20.896 7.015)">
            <g id="Group_55160" data-name="Group 55160">
              <path id="Path_118893" data-name="Path 118893" d="M1343.737,482.755c.08.047.085.121.008.165l-2.051,1.177a.31.31,0,0,1-.283-.006l-2.278-1.333c-.08-.046-.084-.12-.009-.163l2.054-1.177a.319.319,0,0,1,.283.006Z" transform="translate(-1339.071 -481.387)" fill="#393939"/>
            </g>
          </g>
          <g id="Group_55163" data-name="Group 55163" transform="translate(23.99 8.826)">
            <g id="Group_55162" data-name="Group 55162">
              <path id="Path_118894" data-name="Path 118894" d="M1346.222,484.208c.081.046.085.121.009.163l-2.054,1.178a.318.318,0,0,1-.283-.006l-2.278-1.333c-.08-.046-.085-.12-.009-.163l2.051-1.177a.313.313,0,0,1,.284.006Z" transform="translate(-1341.552 -482.839)" fill="#393939"/>
            </g>
          </g>
          <g id="Group_55165" data-name="Group 55165" transform="translate(27.095 10.638)">
            <g id="Group_55164" data-name="Group 55164">
              <path id="Path_118895" data-name="Path 118895" d="M1348.708,485.662c.08.046.085.121.009.163L1346.664,487a.311.311,0,0,1-.283-.006l-2.275-1.332c-.08-.046-.083-.12-.009-.163l2.052-1.177a.312.312,0,0,1,.282,0Z" transform="translate(-1344.043 -484.293)" fill="#393939"/>
            </g>
          </g>
          <g id="Group_55167" data-name="Group 55167" transform="translate(30.193 12.45)">
            <g id="Group_55166" data-name="Group 55166">
              <path id="Path_118896" data-name="Path 118896" d="M1351.194,487.115c.08.047.083.121.008.165l-2.052,1.177a.318.318,0,0,1-.283-.006l-2.277-1.333c-.081-.046-.085-.12-.009-.163l2.051-1.177a.31.31,0,0,1,.283.006Z" transform="translate(-1346.527 -485.746)" fill="#393939"/>
            </g>
          </g>
          <g id="Group_55169" data-name="Group 55169" transform="translate(33.292 14.262)">
            <g id="Group_55168" data-name="Group 55168">
              <path id="Path_118897" data-name="Path 118897" d="M1353.68,488.568c.08.047.084.121.009.165l-2.052,1.177a.31.31,0,0,1-.283-.008l-2.278-1.332c-.08-.046-.084-.12-.009-.163l2.055-1.177a.31.31,0,0,1,.283.006Z" transform="translate(-1349.013 -487.199)" fill="#393939"/>
            </g>
          </g>
          <g id="Group_55171" data-name="Group 55171" transform="translate(36.393 16.076)">
            <g id="Group_55170" data-name="Group 55170">
              <path id="Path_118898" data-name="Path 118898" d="M1356.165,490.022c.081.047.085.12.009.165l-2.053,1.177a.31.31,0,0,1-.279-.006l-2.28-1.332c-.081-.047-.083-.121-.008-.163l2.051-1.177a.309.309,0,0,1,.281.005Z" transform="translate(-1351.5 -488.654)" fill="#393939"/>
            </g>
          </g>
          <g id="Group_55173" data-name="Group 55173" transform="translate(39.493 17.888)">
            <g id="Group_55172" data-name="Group 55172">
              <path id="Path_118899" data-name="Path 118899" d="M1358.652,491.476c.08.047.082.12.008.163l-2.052,1.177a.31.31,0,0,1-.279-.006l-2.279-1.333c-.08-.046-.083-.119-.007-.163l2.051-1.177a.313.313,0,0,1,.281.006Z" transform="translate(-1353.986 -490.107)" fill="#393939"/>
            </g>
          </g>
          <g id="Group_55175" data-name="Group 55175" transform="translate(42.591 19.699)">
            <g id="Group_55174" data-name="Group 55174">
              <path id="Path_118900" data-name="Path 118900" d="M1361.138,492.929c.08.047.085.121.009.165l-2.051,1.177a.321.321,0,0,1-.284-.006l-2.279-1.333c-.078-.047-.082-.12-.008-.163l2.055-1.177a.309.309,0,0,1,.281,0Z" transform="translate(-1356.471 -491.56)" fill="#393939"/>
            </g>
          </g>
          <g id="Group_55177" data-name="Group 55177" transform="translate(45.689 21.513)">
            <g id="Group_55176" data-name="Group 55176">
              <path id="Path_118901" data-name="Path 118901" d="M1363.623,494.383c.081.047.084.121.01.165l-2.055,1.177a.314.314,0,0,1-.283-.007l-2.278-1.332c-.08-.046-.084-.121-.009-.163l2.052-1.177a.311.311,0,0,1,.283.006Z" transform="translate(-1358.955 -493.014)" fill="#393939"/>
            </g>
          </g>
          <g id="Group_55179" data-name="Group 55179" transform="translate(8.368 2.861)">
            <g id="Group_55178" data-name="Group 55178">
              <path id="Path_118902" data-name="Path 118902" d="M1334.716,480.026c.08.046.085.12.009.163l-2.051,1.177a.314.314,0,0,1-.281-.007l-3.308-1.931c-.08-.046-.082-.121-.009-.163l2.052-1.178a.31.31,0,0,1,.283.006Z" transform="translate(-1329.023 -478.055)" fill="#393939"/>
            </g>
          </g>
          <g id="Group_55181" data-name="Group 55181" transform="translate(12.542 5.303)">
            <g id="Group_55180" data-name="Group 55180">
              <path id="Path_118903" data-name="Path 118903" d="M1337.038,481.383c.08.047.083.121.009.165l-2.052,1.177a.315.315,0,0,1-.283-.007l-2.277-1.332c-.081-.047-.083-.121-.009-.165l2.051-1.177a.314.314,0,0,1,.283.008Z" transform="translate(-1332.372 -480.014)" fill="#393939"/>
            </g>
          </g>
          <g id="Group_55183" data-name="Group 55183" transform="translate(5.629 4.433)">
            <g id="Group_55182" data-name="Group 55182">
              <path id="Path_118904" data-name="Path 118904" d="M1333.15,481.654c.08.046.085.12.009.163l-2.051,1.177a.314.314,0,0,1-.284-.006l-3.932-2.3c-.081-.046-.085-.12-.009-.163l2.051-1.177a.311.311,0,0,1,.283.006Z" transform="translate(-1326.827 -479.316)" fill="#393939"/>
            </g>
          </g>
          <g id="Group_55185" data-name="Group 55185" transform="translate(15.643 7.112)">
            <g id="Group_55184" data-name="Group 55184">
              <path id="Path_118905" data-name="Path 118905" d="M1339.523,482.834c.081.047.085.121.009.165l-2.051,1.177a.319.319,0,0,1-.283-.006l-2.277-1.333c-.081-.047-.082-.121-.009-.163l2.051-1.177a.31.31,0,0,1,.283.006Z" transform="translate(-1334.858 -481.465)" fill="#393939"/>
            </g>
          </g>
          <g id="Group_55187" data-name="Group 55187" transform="translate(18.741 8.928)">
            <g id="Group_55186" data-name="Group 55186">
              <path id="Path_118906" data-name="Path 118906" d="M1342.009,484.29c.081.046.085.12.009.163l-2.051,1.177a.318.318,0,0,1-.283-.006l-2.278-1.33c-.08-.047-.083-.122-.009-.165l2.055-1.177a.31.31,0,0,1,.283.006Z" transform="translate(-1337.343 -482.921)" fill="#393939"/>
            </g>
          </g>
          <g id="Group_55189" data-name="Group 55189" transform="translate(21.838 10.739)">
            <g id="Group_55188" data-name="Group 55188">
              <path id="Path_118907" data-name="Path 118907" d="M1344.5,485.742c.08.047.083.121.009.165l-2.055,1.177a.319.319,0,0,1-.283-.006l-2.277-1.332c-.081-.047-.083-.121-.009-.165l2.051-1.177a.314.314,0,0,1,.283.007Z" transform="translate(-1339.827 -484.374)" fill="#393939"/>
            </g>
          </g>
          <g id="Group_55191" data-name="Group 55191" transform="translate(24.94 12.551)">
            <g id="Group_55190" data-name="Group 55190">
              <path id="Path_118908" data-name="Path 118908" d="M1346.981,487.2c.08.046.083.12.007.163l-2.051,1.177a.311.311,0,0,1-.283-.006l-2.278-1.332c-.08-.046-.082-.121-.009-.163l2.052-1.177a.31.31,0,0,1,.283.006Z" transform="translate(-1342.314 -485.827)" fill="#393939"/>
            </g>
          </g>
          <g id="Group_55193" data-name="Group 55193" transform="translate(28.04 14.364)">
            <g id="Group_55192" data-name="Group 55192">
              <path id="Path_118909" data-name="Path 118909" d="M1349.466,488.65c.081.046.085.12.009.163l-2.051,1.177a.311.311,0,0,1-.283-.006l-2.278-1.332c-.08-.046-.082-.122-.008-.163l2.051-1.177a.311.311,0,0,1,.283.005Z" transform="translate(-1344.8 -487.281)" fill="#393939"/>
            </g>
          </g>
          <g id="Group_55195" data-name="Group 55195" transform="translate(31.136 16.176)">
            <g id="Group_55194" data-name="Group 55194">
              <path id="Path_118910" data-name="Path 118910" d="M1351.952,490.1c.08.047.084.121.009.163l-2.055,1.178a.315.315,0,0,1-.283-.007l-2.277-1.332c-.081-.046-.083-.121-.009-.163l2.051-1.177a.31.31,0,0,1,.283.006Z" transform="translate(-1347.284 -488.734)" fill="#393939"/>
            </g>
          </g>
          <g id="Group_55197" data-name="Group 55197" transform="translate(34.238 17.988)">
            <g id="Group_55196" data-name="Group 55196">
              <path id="Path_118911" data-name="Path 118911" d="M1354.437,491.556c.081.047.085.121.009.165l-2.051,1.177a.318.318,0,0,1-.283-.006l-2.278-1.332c-.08-.047-.083-.122-.009-.165l2.052-1.177a.31.31,0,0,1,.283.006Z" transform="translate(-1349.771 -490.187)" fill="#393939"/>
            </g>
          </g>
          <g id="Group_55199" data-name="Group 55199" transform="translate(37.339 19.8)">
            <g id="Group_55198" data-name="Group 55198">
              <path id="Path_118912" data-name="Path 118912" d="M1356.923,493.01c.081.047.084.12.007.163l-2.051,1.177a.309.309,0,0,1-.281-.005l-2.279-1.333c-.078-.047-.082-.121-.007-.165l2.053-1.177a.313.313,0,0,1,.281.006Z" transform="translate(-1352.259 -491.641)" fill="#393939"/>
            </g>
          </g>
          <g id="Group_55201" data-name="Group 55201" transform="translate(40.436 21.611)">
            <g id="Group_55200" data-name="Group 55200">
              <path id="Path_118913" data-name="Path 118913" d="M1359.41,494.464c.08.047.083.12.007.163l-2.051,1.178a.317.317,0,0,1-.281-.006l-2.282-1.335c-.081-.046-.082-.121-.008-.163l2.051-1.177a.313.313,0,0,1,.281.005Z" transform="translate(-1354.742 -493.093)" fill="#393939"/>
            </g>
          </g>
          <g id="Group_55203" data-name="Group 55203" transform="translate(43.537 23.425)">
            <g id="Group_55202" data-name="Group 55202">
              <path id="Path_118914" data-name="Path 118914" d="M1361.9,495.917c.078.046.083.121.008.163l-2.051,1.177a.311.311,0,0,1-.283-.006l-2.278-1.332c-.08-.046-.084-.121-.009-.163l2.051-1.177a.311.311,0,0,1,.283.006Z" transform="translate(-1357.229 -494.548)" fill="#393939"/>
            </g>
          </g>
          <g id="Group_55205" data-name="Group 55205" transform="translate(10.389 7.216)">
            <g id="Group_55204" data-name="Group 55204">
              <path id="Path_118915" data-name="Path 118915" d="M1335.312,482.916c.079.047.083.121.008.165l-2.051,1.177a.311.311,0,0,1-.283-.006l-2.279-1.333c-.079-.047-.084-.12-.008-.163l2.051-1.177a.318.318,0,0,1,.283.006Z" transform="translate(-1330.644 -481.548)" fill="#393939"/>
            </g>
          </g>
          <g id="Group_55207" data-name="Group 55207" transform="translate(13.489 9.026)">
            <g id="Group_55206" data-name="Group 55206">
              <path id="Path_118916" data-name="Path 118916" d="M1337.8,484.369c.08.047.085.121.009.165l-2.051,1.177a.318.318,0,0,1-.283-.006l-2.278-1.333c-.08-.046-.085-.12-.009-.163l2.054-1.177a.31.31,0,0,1,.283.006Z" transform="translate(-1333.131 -483)" fill="#393939"/>
            </g>
          </g>
          <g id="Group_55209" data-name="Group 55209" transform="translate(16.588 10.839)">
            <g id="Group_55208" data-name="Group 55208">
              <path id="Path_118917" data-name="Path 118917" d="M1340.283,485.823c.08.046.083.121.008.163l-2.051,1.177a.311.311,0,0,1-.283-.006l-2.278-1.332c-.08-.046-.083-.12-.009-.163l2.053-1.177a.311.311,0,0,1,.283.006Z" transform="translate(-1335.616 -484.454)" fill="#393939"/>
            </g>
          </g>
          <g id="Group_55211" data-name="Group 55211" transform="translate(19.687 12.651)">
            <g id="Group_55210" data-name="Group 55210">
              <path id="Path_118918" data-name="Path 118918" d="M1342.768,487.276c.08.046.083.121.009.163l-2.052,1.177a.311.311,0,0,1-.283-.006l-2.277-1.332c-.081-.046-.085-.121-.008-.163l2.051-1.178a.314.314,0,0,1,.283.007Z" transform="translate(-1338.101 -485.907)" fill="#393939"/>
            </g>
          </g>
          <g id="Group_55213" data-name="Group 55213" transform="translate(22.786 14.464)">
            <g id="Group_55212" data-name="Group 55212">
              <path id="Path_118919" data-name="Path 118919" d="M1345.254,488.73c.08.046.084.121.009.163l-2.052,1.178a.319.319,0,0,1-.283-.006l-2.278-1.333c-.08-.046-.083-.12-.007-.163l2.051-1.177a.311.311,0,0,1,.283.006Z" transform="translate(-1340.587 -487.361)" fill="#393939"/>
            </g>
          </g>
          <g id="Group_55215" data-name="Group 55215" transform="translate(25.886 16.276)">
            <g id="Group_55214" data-name="Group 55214">
              <path id="Path_118920" data-name="Path 118920" d="M1347.74,490.183c.08.047.084.121.009.165l-2.052,1.177a.308.308,0,0,1-.283-.007l-2.278-1.332c-.08-.046-.083-.12-.009-.163l2.055-1.177a.31.31,0,0,1,.283.006Z" transform="translate(-1343.073 -488.814)" fill="#393939"/>
            </g>
          </g>
          <g id="Group_55217" data-name="Group 55217" transform="translate(28.985 18.089)">
            <g id="Group_55216" data-name="Group 55216">
              <path id="Path_118921" data-name="Path 118921" d="M1350.225,491.637c.08.047.085.121.009.165l-2.052,1.177a.314.314,0,0,1-.283-.008l-2.277-1.332c-.081-.046-.085-.12-.009-.163l2.051-1.177a.311.311,0,0,1,.283.006Z" transform="translate(-1345.558 -490.268)" fill="#393939"/>
            </g>
          </g>
          <g id="Group_55219" data-name="Group 55219" transform="translate(32.082 19.9)">
            <g id="Group_55218" data-name="Group 55218">
              <path id="Path_118922" data-name="Path 118922" d="M1352.709,493.09c.08.046.085.121.009.163l-2.051,1.177a.311.311,0,0,1-.283-.006l-2.278-1.332c-.08-.046-.085-.121-.007-.163l2.051-1.177a.31.31,0,0,1,.283.006Z" transform="translate(-1348.043 -491.721)" fill="#393939"/>
            </g>
          </g>
          <g id="Group_55221" data-name="Group 55221" transform="translate(35.183 21.713)">
            <g id="Group_55220" data-name="Group 55220">
              <path id="Path_118923" data-name="Path 118923" d="M1355.2,494.544c.081.046.085.12.009.163l-2.051,1.177a.311.311,0,0,1-.283-.006l-2.278-1.332c-.08-.046-.085-.121-.009-.163l2.051-1.178a.322.322,0,0,1,.284.006Z" transform="translate(-1350.53 -493.175)" fill="#393939"/>
            </g>
          </g>
          <g id="Group_55223" data-name="Group 55223" transform="translate(38.284 23.526)">
            <g id="Group_55222" data-name="Group 55222">
              <path id="Path_118924" data-name="Path 118924" d="M1357.683,496c.08.046.082.12.006.163l-2.051,1.177a.312.312,0,0,1-.28-.006L1353.078,496c-.08-.046-.082-.12-.007-.162l2.052-1.177a.309.309,0,0,1,.281.005Z" transform="translate(-1353.016 -494.629)" fill="#393939"/>
            </g>
          </g>
          <g id="Group_55225" data-name="Group 55225" transform="translate(2.912 5.993)">
            <g id="Group_55224" data-name="Group 55224">
              <path id="Path_118925" data-name="Path 118925" d="M1330.476,482.613c.08.047.085.121.009.165l-2.052,1.177a.318.318,0,0,1-.283-.006l-3.439-2.011c-.08-.047-.083-.121-.009-.165l2.053-1.175a.31.31,0,0,1,.283.006Z" transform="translate(-1324.648 -480.567)" fill="#393939"/>
            </g>
          </g>
          <g id="Group_55227" data-name="Group 55227" transform="translate(7.194 8.493)">
            <g id="Group_55226" data-name="Group 55226">
              <path id="Path_118926" data-name="Path 118926" d="M1332.748,483.944c.081.047.085.121.009.165l-2.051,1.177a.318.318,0,0,1-.283-.006l-2.278-1.336c-.08-.046-.084-.121-.009-.163l2.051-1.177a.313.313,0,0,1,.284.006Z" transform="translate(-1328.082 -482.572)" fill="#393939"/>
            </g>
          </g>
          <g id="Group_55229" data-name="Group 55229" transform="translate(10.291 10.307)">
            <g id="Group_55228" data-name="Group 55228">
              <path id="Path_118927" data-name="Path 118927" d="M1335.233,485.4c.08.047.084.121.008.165l-2.051,1.177a.314.314,0,0,1-.283-.007l-2.278-1.332c-.08-.046-.082-.121-.009-.163l2.052-1.177a.311.311,0,0,1,.283.006Z" transform="translate(-1330.566 -484.027)" fill="#393939"/>
            </g>
          </g>
          <g id="Group_55231" data-name="Group 55231" transform="translate(13.393 12.116)">
            <g id="Group_55230" data-name="Group 55230">
              <path id="Path_118928" data-name="Path 118928" d="M1337.72,486.851c.081.047.083.12.007.162l-2.051,1.178a.318.318,0,0,1-.283-.006l-2.278-1.333c-.08-.046-.082-.121-.007-.163l2.051-1.18a.308.308,0,0,1,.282.006Z" transform="translate(-1333.053 -485.478)" fill="#393939"/>
            </g>
          </g>
          <g id="Group_55233" data-name="Group 55233" transform="translate(16.494 13.932)">
            <g id="Group_55232" data-name="Group 55232">
              <path id="Path_118929" data-name="Path 118929" d="M1340.206,488.3c.081.047.084.121.008.163l-2.051,1.177a.309.309,0,0,1-.28-.005l-2.279-1.333c-.08-.046-.081-.12-.007-.163l2.051-1.177a.309.309,0,0,1,.281.006Z" transform="translate(-1335.541 -486.934)" fill="#393939"/>
            </g>
          </g>
          <g id="Group_55235" data-name="Group 55235" transform="translate(19.59 15.744)">
            <g id="Group_55234" data-name="Group 55234">
              <path id="Path_118930" data-name="Path 118930" d="M1342.692,489.757c.08.046.084.12.009.163l-2.055,1.177a.314.314,0,0,1-.283-.006l-2.276-1.332c-.082-.046-.083-.122-.01-.163l2.052-1.177a.305.305,0,0,1,.28.005Z" transform="translate(-1338.024 -488.388)" fill="#393939"/>
            </g>
          </g>
          <g id="Group_55237" data-name="Group 55237" transform="translate(22.691 17.555)">
            <g id="Group_55236" data-name="Group 55236">
              <path id="Path_118931" data-name="Path 118931" d="M1345.177,491.21c.081.046.085.121.009.163l-2.051,1.176a.318.318,0,0,1-.283-.006l-2.278-1.333c-.08-.046-.084-.121-.009-.163l2.051-1.177a.318.318,0,0,1,.283.006Z" transform="translate(-1340.511 -489.84)" fill="#393939"/>
            </g>
          </g>
          <g id="Group_55239" data-name="Group 55239" transform="translate(25.792 19.368)">
            <g id="Group_55238" data-name="Group 55238">
              <path id="Path_118932" data-name="Path 118932" d="M1347.663,492.663c.081.047.085.121.009.165L1345.62,494a.314.314,0,0,1-.283-.007l-2.278-1.33c-.08-.047-.083-.122-.007-.165l2.051-1.177a.31.31,0,0,1,.283.006Z" transform="translate(-1342.997 -491.294)" fill="#393939"/>
            </g>
          </g>
          <g id="Group_55241" data-name="Group 55241" transform="translate(28.888 21.181)">
            <g id="Group_55240" data-name="Group 55240">
              <path id="Path_118933" data-name="Path 118933" d="M1350.149,494.117c.08.046.084.121.009.163l-2.055,1.177a.31.31,0,0,1-.283-.006l-2.277-1.332c-.081-.046-.083-.122-.008-.163l2.051-1.178a.314.314,0,0,1,.283.008Z" transform="translate(-1345.481 -492.748)" fill="#393939"/>
            </g>
          </g>
          <g id="Group_55243" data-name="Group 55243" transform="translate(31.99 22.993)">
            <g id="Group_55242" data-name="Group 55242">
              <path id="Path_118934" data-name="Path 118934" d="M1352.634,495.57c.081.046.085.121.009.163l-2.051,1.178a.314.314,0,0,1-.283-.007l-2.278-1.332c-.08-.046-.082-.121-.009-.163l2.052-1.177a.311.311,0,0,1,.283.006Z" transform="translate(-1347.968 -494.201)" fill="#393939"/>
            </g>
          </g>
          <g id="Group_55245" data-name="Group 55245" transform="translate(35.088 24.804)">
            <g id="Group_55244" data-name="Group 55244">
              <path id="Path_118935" data-name="Path 118935" d="M1355.119,497.023c.081.047.085.121.01.165l-2.052,1.177a.319.319,0,0,1-.283-.006l-2.278-1.332c-.08-.047-.082-.122-.009-.165l2.055-1.177a.306.306,0,0,1,.283.008Z" transform="translate(-1350.453 -495.654)" fill="#393939"/>
            </g>
          </g>
          <g id="Group_55247" data-name="Group 55247" transform="translate(48.792 23.327)">
            <g id="Group_55246" data-name="Group 55246">
              <path id="Path_118936" data-name="Path 118936" d="M1368.971,497.51c.08.047.083.121.009.165l-2.052,1.177a.315.315,0,0,1-.283-.007l-2.531-1.48-.29-.17-2.317-1.354c-.08-.046-.083-.121-.007-.163l2.051-1.178a.314.314,0,0,1,.283.007l2.315,1.354.291.168Z" transform="translate(-1361.444 -494.469)" fill="#393939"/>
            </g>
          </g>
          <g id="Group_55249" data-name="Group 55249" transform="translate(46.654 25.25)">
            <g id="Group_55248" data-name="Group 55248">
              <path id="Path_118937" data-name="Path 118937" d="M1366.657,498.7c.08.047.085.121.009.165l-2.052,1.177a.31.31,0,0,1-.279-.008l-2.223-1.3-.292-.171-2.026-1.186c-.08-.047-.085-.121-.01-.163l2.051-1.177a.313.313,0,0,1,.28.006l2.029,1.186.292.171Z" transform="translate(-1359.729 -496.012)" fill="#393939"/>
            </g>
          </g>
          <g id="Group_55251" data-name="Group 55251" transform="translate(41.701 25.524)">
            <g id="Group_55250" data-name="Group 55250">
              <path id="Path_118938" data-name="Path 118938" d="M1364.9,500.217c.08.047.085.121.009.165l-2.051,1.177a.319.319,0,0,1-.283-.006l-4.186-2.448-.292-.171-.993-.581-.292-.171-.993-.58c-.08-.046-.085-.121-.009-.163l2.051-1.177a.31.31,0,0,1,.283.006l.994.581.291.17.994.581.292.171Z" transform="translate(-1355.757 -496.231)" fill="#393939"/>
            </g>
          </g>
          <g id="Group_55253" data-name="Group 55253" transform="translate(38.189 26.619)">
            <g id="Group_55252" data-name="Group 55252">
              <path id="Path_118939" data-name="Path 118939" d="M1357.608,498.479c.081.046.085.12.009.163l-2.054,1.177a.318.318,0,0,1-.283-.006L1353,498.482c-.08-.047-.084-.122-.009-.165l2.055-1.177a.31.31,0,0,1,.283.006Z" transform="translate(-1352.94 -497.109)" fill="#393939"/>
            </g>
          </g>
          <g id="Group_55255" data-name="Group 55255" transform="translate(41.267 28.418)">
            <g id="Group_55254" data-name="Group 55254">
              <path id="Path_118940" data-name="Path 118940" d="M1362.268,501.2c.079.046.083.12.007.163l-2.051,1.177a.311.311,0,0,1-.283-.006l-2.735-1.6-.289-.17-.577-.338-.292-.17-.576-.338c-.081-.047-.083-.121-.01-.163l2.055-1.178a.314.314,0,0,1,.283.007l.577.337.291.171.577.338.29.169Z" transform="translate(-1355.409 -498.552)" fill="#393939"/>
            </g>
          </g>
          <path id="Path_118941" data-name="Path 118941" d="M1326.9,483.213c.08.047.082.12.006.163l-2.051,1.177a.31.31,0,0,1-.279-.006l-2.2-1.286c-.081-.046-.084-.121-.009-.163l2.052-1.177a.315.315,0,0,1,.283,0Z" transform="translate(-1322.313 -474.248)" fill="#393939"/>
          <path id="Path_118942" data-name="Path 118942" d="M1329.437,484.7c.081.047.085.121.009.165l-2.051,1.177a.311.311,0,0,1-.283-.006l-2.278-1.33c-.08-.046-.084-.12-.008-.163l2.051-1.177a.311.311,0,0,1,.283.006Z" transform="translate(-1321.706 -473.892)" fill="#393939"/>
          <path id="Path_118943" data-name="Path 118943" d="M1331.924,486.151c.08.047.084.121.009.165l-2.055,1.177a.315.315,0,0,1-.283-.007l-2.277-1.332c-.081-.047-.085-.121-.01-.163l2.052-1.178a.315.315,0,0,1,.283.008Z" transform="translate(-1321.092 -473.534)" fill="#393939"/>
          <path id="Path_118944" data-name="Path 118944" d="M1334.408,487.6c.082.046.085.121.01.163l-2.052,1.177a.314.314,0,0,1-.283,0l-2.277-1.333c-.081-.046-.085-.12-.009-.163l2.051-1.176a.314.314,0,0,1,.283.008Z" transform="translate(-1320.478 -473.175)" fill="#393939"/>
          <path id="Path_118945" data-name="Path 118945" d="M1352.939,498.439c.087.051.1.128.021.172l-2.049,1.177a.322.322,0,0,1-.3-.014l-18.4-10.754c-.089-.052-.1-.128-.024-.173l2.055-1.177a.328.328,0,0,1,.3.015Z" transform="translate(-1319.885 -472.828)" fill="#393939"/>
          <path id="Path_118946" data-name="Path 118946" d="M1352.066,497.93c.081.046.085.12.009.163l-2.051,1.177a.311.311,0,0,1-.283-.006l-2.278-1.332c-.08-.047-.083-.121-.009-.165l2.052-1.177a.314.314,0,0,1,.283.006Z" transform="translate(-1316.119 -470.626)" fill="#393939"/>
          <g id="Group_55257" data-name="Group 55257" transform="translate(34.381 27.746)">
            <g id="Group_55256" data-name="Group 55256">
              <path id="Path_118947" data-name="Path 118947" d="M1354.553,499.382c.08.047.083.121.009.165l-2.052,1.177a.319.319,0,0,1-.283-.006l-2.278-1.333c-.08-.046-.083-.12-.009-.163l2.055-1.177a.311.311,0,0,1,.283.006Z" transform="translate(-1349.886 -498.013)" fill="#393939"/>
            </g>
          </g>
          <g id="Group_55259" data-name="Group 55259" transform="translate(38.728 29.559)">
            <g id="Group_55258" data-name="Group 55258">
              <path id="Path_118948" data-name="Path 118948" d="M1356.791,500.835c.081.047.085.121.009.165l-.8.461a.31.31,0,0,1-.283-.006l-2.278-1.332c-.079-.047-.084-.121-.007-.165l.8-.461a.314.314,0,0,1,.283.008Z" transform="translate(-1353.372 -499.467)" fill="#393939"/>
            </g>
          </g>
          <g id="Group_55261" data-name="Group 55261" transform="translate(37.48 30.275)">
            <g id="Group_55260" data-name="Group 55260">
              <path id="Path_118949" data-name="Path 118949" d="M1355.791,501.41c.08.047.082.122.009.165l-.8.461a.311.311,0,0,1-.283-.008l-2.278-1.332c-.08-.046-.085-.12-.009-.163l.8-.461a.318.318,0,0,1,.283.006Z" transform="translate(-1352.372 -500.042)" fill="#393939"/>
            </g>
          </g>
          <path id="Path_118950" data-name="Path 118950" d="M1359.527,502.291c.081.047.084.12.008.163l-2.051,1.177a.31.31,0,0,1-.281,0l-2.281-1.332c-.081-.046-.083-.118-.008-.163l2.051-1.177a.309.309,0,0,1,.28.006Z" transform="translate(-1314.278 -469.549)" fill="#393939"/>
        </g>
        <line id="Línea_1638" data-name="Línea 1638" x1="93.053" y2="26.562" transform="translate(94.389 33.169)" fill="none" stroke="#393939" stroke-miterlimit="10" stroke-width="1"/>
        <line id="Línea_1639" data-name="Línea 1639" x2="34.078" y2="63.59" transform="translate(224.117 45.41)" fill="none" stroke="#393939" stroke-miterlimit="10" stroke-width="1"/>
        <line id="Línea_1640" data-name="Línea 1640" x1="31.29" y2="48.241" transform="translate(172.933 48.19)" fill="none" stroke="#393939" stroke-miterlimit="10" stroke-width="1"/>
        <g id="Grupo_55769" data-name="Grupo 55769" transform="translate(183.165 0)">
          <g id="Grupo_55768" data-name="Grupo 55768">
            <g id="Group_34510" data-name="Group 34510" transform="translate(0 16.009)">
              <g id="Group_34509" data-name="Group 34509">
                <g id="Group_34507" data-name="Group 34507" transform="translate(0 14.678)">
                  <path id="Path_85365" data-name="Path 85365" d="M1419.225,392.98l-.02,2.911c-.011,3.751-2.475,7.495-7.4,10.357-9.913,5.761-26.035,5.761-36.012,0-5.02-2.9-7.527-6.7-7.516-10.5l.02-2.91c-.011,3.8,2.5,7.6,7.517,10.5,9.976,5.761,26.1,5.761,36.012,0C1416.748,400.475,1419.214,396.73,1419.225,392.98Z" transform="translate(-1368.276 -392.835)" fill="#cdd1f6"/>
                  <g id="Grupo_55765" data-name="Grupo 55765">
                    <g id="Grupo_55764" data-name="Grupo 55764" clip-path="url(#clip-path)">
                      <g id="Group_34506" data-name="Group 34506">
                        <g id="Group_34505" data-name="Group 34505">
                          <path id="Path_85366" data-name="Path 85366" d="M1409.669,392.95l-.02,2.91a10.055,10.055,0,0,1-2.668,6.552l.021-2.91a10.055,10.055,0,0,0,2.668-6.552Z" transform="translate(-1358.721 -392.807)" fill="#cdd1f6"/>
                          <path id="Path_85367" data-name="Path 85367" d="M1408.448,398.207l-.021,2.91a18.343,18.343,0,0,1-4.729,3.8,26.363,26.363,0,0,1-2.578,1.31l.02-2.91a26.179,26.179,0,0,0,2.578-1.31A18.4,18.4,0,0,0,1408.448,398.207Z" transform="translate(-1360.168 -391.509)" fill="#cdd1f6"/>
                          <path id="Path_85368" data-name="Path 85368" d="M1405.077,402.308l-.02,2.911A40.337,40.337,0,0,1,1385.164,408l.021-2.911a40.33,40.33,0,0,0,19.891-2.78Z" transform="translate(-1364.107 -390.496)" fill="#cdd1f6"/>
                          <path id="Path_85369" data-name="Path 85369" d="M1387.263,405.05l-.021,2.911a37.123,37.123,0,0,1-10.494-2.585l.021-2.91A37.073,37.073,0,0,0,1387.263,405.05Z" transform="translate(-1366.184 -390.457)" fill="#cdd1f6"/>
                          <path id="Path_85370" data-name="Path 85370" d="M1378.861,404.844l-.021,2.91a27.225,27.225,0,0,1-3.047-1.506c-5.02-2.9-7.527-6.7-7.516-10.5l.02-2.91c-.011,3.8,2.5,7.6,7.517,10.5A27.194,27.194,0,0,0,1378.861,404.844Z" transform="translate(-1368.276 -392.835)" fill="#cdd1f6"/>
                        </g>
                      </g>
                    </g>
                  </g>
                </g>
                <g id="Group_34508" data-name="Group 34508" transform="translate(0.018)">
                  <path id="Path_85372" data-name="Path 85372" d="M1411.7,385.383c9.977,5.761,10.03,15.1.118,20.859s-26.036,5.761-36.012,0-10.03-15.1-.118-20.859S1401.726,379.623,1411.7,385.383Z" transform="translate(-1368.291 -381.063)" fill="#e8ecf2"/>
                </g>
              </g>
            </g>
            <g id="Group_34512" data-name="Group 34512" transform="translate(0.485 5.205)">
              <g id="Group_34511" data-name="Group 34511">
                <path id="Path_85373" data-name="Path 85373" d="M1411.266,384.167c9.789,5.652,9.84,14.817.115,20.469s-25.547,5.653-35.338,0-9.841-14.817-.115-20.469S1401.475,378.515,1411.266,384.167Z" transform="translate(-1368.665 -370.54)" fill="#393939"/>
                <path id="Path_85374" data-name="Path 85374" d="M1411.266,383.7c9.789,5.652,9.84,14.817.115,20.469s-25.547,5.652-35.338,0-9.843-14.817-.116-20.47S1401.475,378.043,1411.266,383.7Z" transform="translate(-1368.665 -370.656)" fill="#393939"/>
                <path id="Path_85375" data-name="Path 85375" d="M1411.266,383.226c9.789,5.652,9.84,14.815.115,20.467s-25.547,5.653-35.338,0-9.843-14.817-.116-20.469S1401.475,377.574,1411.266,383.226Z" transform="translate(-1368.665 -370.772)" fill="#393939"/>
                <path id="Path_85376" data-name="Path 85376" d="M1411.266,382.755c9.789,5.652,9.84,14.817.115,20.469s-25.547,5.652-35.338,0-9.843-14.817-.116-20.469S1401.475,377.1,1411.266,382.755Z" transform="translate(-1368.665 -370.888)" fill="#393939"/>
                <path id="Path_85377" data-name="Path 85377" d="M1411.266,382.285c9.789,5.652,9.84,14.817.115,20.467s-25.547,5.652-35.338,0-9.843-14.815-.116-20.467S1401.475,376.633,1411.266,382.285Z" transform="translate(-1368.665 -371.005)" fill="#393939"/>
                <path id="Path_85378" data-name="Path 85378" d="M1411.266,381.814c9.789,5.652,9.84,14.817.115,20.469s-25.547,5.652-35.338,0-9.843-14.817-.116-20.469S1401.475,376.162,1411.266,381.814Z" transform="translate(-1368.665 -371.121)" fill="#393939"/>
                <path id="Path_85379" data-name="Path 85379" d="M1411.266,381.343c9.789,5.652,9.84,14.817.115,20.47s-25.547,5.652-35.338,0-9.843-14.817-.116-20.469S1401.475,375.691,1411.266,381.343Z" transform="translate(-1368.665 -371.237)" fill="#393939"/>
                <path id="Path_85380" data-name="Path 85380" d="M1411.266,380.873c9.789,5.652,9.84,14.817.115,20.469s-25.547,5.652-35.338,0-9.843-14.818-.116-20.47S1401.475,375.221,1411.266,380.873Z" transform="translate(-1368.665 -371.353)" fill="#393939"/>
                <path id="Path_85381" data-name="Path 85381" d="M1411.266,380.4c9.789,5.652,9.84,14.817.115,20.469s-25.547,5.653-35.338,0-9.843-14.817-.116-20.469S1401.475,374.75,1411.266,380.4Z" transform="translate(-1368.665 -371.469)" fill="#393939"/>
                <path id="Path_85382" data-name="Path 85382" d="M1411.266,379.932c9.789,5.652,9.84,14.815.115,20.467s-25.547,5.653-35.338,0-9.843-14.817-.116-20.467S1401.475,374.279,1411.266,379.932Z" transform="translate(-1368.665 -371.586)" fill="#393939"/>
                <path id="Path_85383" data-name="Path 85383" d="M1411.266,379.461c9.789,5.652,9.84,14.817.115,20.469s-25.547,5.652-35.338,0-9.843-14.817-.116-20.469S1401.475,373.809,1411.266,379.461Z" transform="translate(-1368.665 -371.702)" fill="#393939"/>
                <path id="Path_85384" data-name="Path 85384" d="M1411.266,378.99c9.789,5.653,9.84,14.817.115,20.47s-25.547,5.652-35.338,0-9.843-14.817-.116-20.469S1401.475,373.338,1411.266,378.99Z" transform="translate(-1368.665 -371.818)" fill="#393939"/>
                <path id="Path_85385" data-name="Path 85385" d="M1411.266,378.52c9.789,5.652,9.84,14.817.115,20.469s-25.547,5.652-35.338,0-9.843-14.817-.116-20.469S1401.475,372.867,1411.266,378.52Z" transform="translate(-1368.665 -371.934)" fill="#393939"/>
                <path id="Path_85386" data-name="Path 85386" d="M1411.266,378.049c9.789,5.652,9.84,14.817.115,20.47s-25.547,5.652-35.338,0-9.843-14.817-.116-20.47S1401.475,372.4,1411.266,378.049Z" transform="translate(-1368.665 -372.05)" fill="#393939"/>
                <path id="Path_85387" data-name="Path 85387" d="M1411.266,377.58c9.789,5.652,9.84,14.815.115,20.469-4.747,2.758-10.945,4.171-17.322,4.238-6.41.067-13-1.344-18.016-4.238-9.79-5.653-9.843-14.817-.115-20.469S1401.475,371.926,1411.266,377.58Z" transform="translate(-1368.665 -372.167)" fill="#393939"/>
                <path id="Path_85388" data-name="Path 85388" d="M1411.266,377.108c9.789,5.652,9.84,14.817.115,20.469s-25.547,5.653-35.338,0-9.841-14.819-.115-20.469S1401.475,371.456,1411.266,377.108Z" transform="translate(-1368.665 -372.282)" fill="#393939"/>
                <path id="Path_85389" data-name="Path 85389" d="M1411.266,376.637c9.789,5.653,9.84,14.817.115,20.47s-25.547,5.652-35.338,0-9.843-14.817-.116-20.469S1401.475,370.985,1411.266,376.637Z" transform="translate(-1368.665 -372.399)" fill="#393939"/>
              </g>
            </g>
            <g id="Group_34518" data-name="Group 34518">
              <g id="Group_34517" data-name="Group 34517">
                <g id="Group_34515" data-name="Group 34515" transform="translate(0 14.675)">
                  <path id="Path_85390" data-name="Path 85390" d="M1419.225,380.142l-.02,2.91c-.011,3.751-2.475,7.495-7.4,10.357-9.913,5.761-26.035,5.761-36.012,0-5.02-2.9-7.527-6.7-7.516-10.5l.02-2.913c-.011,3.8,2.5,7.6,7.517,10.5,9.976,5.76,26.1,5.76,36.012,0C1416.748,387.635,1419.214,383.893,1419.225,380.142Z" transform="translate(-1368.276 -379.994)" fill="#cdd1f6"/>
                  <g id="Grupo_55767" data-name="Grupo 55767">
                    <g id="Grupo_55766" data-name="Grupo 55766" clip-path="url(#clip-path-2)">
                      <g id="Group_34514" data-name="Group 34514">
                        <g id="Group_34513" data-name="Group 34513">
                          <path id="Path_85391" data-name="Path 85391" d="M1409.669,380.113l-.02,2.91a10.055,10.055,0,0,1-2.668,6.552l.021-2.911a10.052,10.052,0,0,0,2.668-6.551Z" transform="translate(-1358.721 -379.965)" fill="#cdd1f6"/>
                          <path id="Path_85392" data-name="Path 85392" d="M1408.448,385.367l-.021,2.911a18.376,18.376,0,0,1-4.729,3.805,26.9,26.9,0,0,1-2.578,1.31l.02-2.911a26.915,26.915,0,0,0,2.578-1.31,18.4,18.4,0,0,0,4.731-3.805Z" transform="translate(-1360.168 -378.668)" fill="#cdd1f6"/>
                          <path id="Path_85393" data-name="Path 85393" d="M1405.077,389.47l-.02,2.911a40.349,40.349,0,0,1-19.893,2.779l.021-2.91a40.346,40.346,0,0,0,19.891-2.781Z" transform="translate(-1364.107 -377.655)" fill="#cdd1f6"/>
                          <path id="Path_85394" data-name="Path 85394" d="M1387.263,392.212l-.021,2.91a37.04,37.04,0,0,1-10.494-2.585l.021-2.91A37.076,37.076,0,0,0,1387.263,392.212Z" transform="translate(-1366.184 -377.616)" fill="#cdd1f6"/>
                          <path id="Path_85395" data-name="Path 85395" d="M1378.861,392.005l-.021,2.91a27.006,27.006,0,0,1-3.047-1.506c-5.02-2.9-7.527-6.7-7.516-10.5l.02-2.913c-.011,3.8,2.5,7.6,7.517,10.5a27.092,27.092,0,0,0,3.047,1.506Z" transform="translate(-1368.276 -379.994)" fill="#cdd1f6"/>
                        </g>
                      </g>
                    </g>
                  </g>
                </g>
                <g id="Group_34516" data-name="Group 34516" transform="translate(0.018)">
                  <path id="Path_85397" data-name="Path 85397" d="M1411.7,372.544c9.977,5.761,10.03,15.1.118,20.86s-26.036,5.761-36.012,0-10.03-15.1-.118-20.86S1401.726,366.785,1411.7,372.544Z" transform="translate(-1368.291 -368.224)" fill="#e8ecf2"/>
                </g>
              </g>
            </g>
          </g>
          <path id="Trazado_118908" data-name="Trazado 118908" d="M1373.833,372.548l11.056,6.735-4.257,2.732h11.12l.763-7.244-4.829,3.3-11.564-6.862Z" transform="translate(-1366.904 -367.486)" fill="#393939"/>
          <path id="Trazado_118909" data-name="Trazado 118909" d="M1380.024,386.08l-4.893-3.241-.381,7.5h12.073l-4.321-2.859,9.468-5.909-2.224-1.334Z" transform="translate(-1366.678 -365.259)" fill="#393939"/>
          <path id="Trazado_118910" data-name="Trazado 118910" d="M1390.024,380.869l-.7,6.163,4.638-3.082,11.247,6.767,1.906-1.461-10.611-6.481,3.749-2.542Z" transform="translate(-1363.08 -365.259)" fill="#393939"/>
          <path id="Trazado_118911" data-name="Trazado 118911" d="M1389.325,380.645c.382-.318,9.658-5.909,9.658-5.909l-4.829-2.86h12.39v7.181l-5.527-3.177-9.976,6.418Z" transform="translate(-1363.08 -367.323)" fill="#393939"/>
        </g>
        <g id="Group_34948" data-name="Group 34948" transform="translate(0 81.098)">
          <g id="Group_34930" data-name="Group 34930" transform="translate(2.321 42.016)" opacity="0.8">
            <path id="Path_86148" data-name="Path 86148" d="M1265.048,506.491a4.036,4.036,0,0,1-2.008-.536h0l-39.2-22.63a1.216,1.216,0,0,1,0-2.1l24.7-14.259.151.087,41.053,23.7a1.216,1.216,0,0,1,.444,1.661,1.231,1.231,0,0,1-.444.444l-22.692,13.1A4.025,4.025,0,0,1,1265.048,506.491Zm-1.7-1.061a3.482,3.482,0,0,0,3.41,0l22.687-13.1a.609.609,0,0,0,0-1.056l-40.9-23.612-.04.021-24.354,14.061a.609.609,0,0,0,0,1.056Z" transform="translate(-1223.239 -466.962)" fill="#393939"/>
          </g>
          <g id="Group_34943" data-name="Group 34943">
            <g id="Group_34942" data-name="Group 34942">
              <g id="Group_34941" data-name="Group 34941">
                <g id="Group_34935" data-name="Group 34935">
                  <g id="Group_34932" data-name="Group 34932" transform="translate(26.887)">
                    <path id="Path_86149" data-name="Path 86149" d="M1243.491,466.28l5.46-32.4-.443-.185.661-.379v0a.474.474,0,0,1,.507.036l43.643,25.194a1.23,1.23,0,0,1,.566,1.1l-5.5,32.653a.411.411,0,0,1-.231.333h0l-.646.373-.111-.6.037.011-43.376-25.044A1.23,1.23,0,0,1,1243.491,466.28Z" transform="translate(-1242.805 -433.265)" fill="url(#linear-gradient)"/>
                    <path id="Path_86150" data-name="Path 86150" d="M1284.811,454.321l.717-.318a.983.983,0,0,1,.092.54l-5.5,32.653a.408.408,0,0,1-.229.333h0l-.646.373-.111-.6.036.01-2.195-1.267Z" transform="translate(-1234.539 -428.146)" fill="#dee4f0"/>
                    <path id="Path_86151" data-name="Path 86151" d="M1243.512,467.7l43.636,25.2c.337.2.625.082.684-.267l5.5-32.652a1.234,1.234,0,0,0-.567-1.106l-43.638-25.2c-.337-.195-.625-.082-.684.267l-5.5,32.653A1.229,1.229,0,0,0,1243.512,467.7Z" transform="translate(-1242.94 -433.188)" fill="#393939"/>
                    <g id="Group_34931" data-name="Group 34931" transform="translate(1.574 2.569)" opacity="0.51">
                      <path id="Path_86152" data-name="Path 86152" d="M1249.391,435.326l42.066,24.288-5.216,30.753L1244.2,466.1Z" transform="translate(-1244.203 -435.326)" fill="#393939"/>
                    </g>
                  </g>
                  <g id="Group_34934" data-name="Group 34934" transform="translate(0 34.403)">
                    <path id="Path_86153" data-name="Path 86153" d="M1221.4,475.86l2.381,1.243,23.881-13.788a1.737,1.737,0,0,1,1.56.064l41.188,23.781c.394-.221,2.192-1.085,2.192-1.085l-.875,2.272h0a.522.522,0,0,1-.243.271l-25.152,14.52a1.73,1.73,0,0,1-1.558-.065l-42.148-24.334a.756.756,0,0,1-.354-.375h0Z" transform="translate(-1221.372 -460.288)" fill="#393939"/>
                    <path id="Path_86154" data-name="Path 86154" d="M1221.767,476.82l43.195,24.94a1.777,1.777,0,0,0,1.6.066l25.778-14.883c.409-.236.358-.65-.115-.921l-43.193-24.94a1.773,1.773,0,0,0-1.6-.066L1221.654,475.9C1221.244,476.134,1221.3,476.547,1221.767,476.82Z" transform="translate(-1221.377 -460.857)" fill="url(#linear-gradient-2)"/>
                    <path id="Path_86155" data-name="Path 86155" d="M1221.767,473.537l43.194,24.94a1.773,1.773,0,0,0,1.6.066l25.778-14.883a.528.528,0,0,0,.249-.278.435.435,0,0,1-.249.527l-25.778,14.883a1.776,1.776,0,0,1-1.6-.066l-43.194-24.94c-.318-.183-.441-.429-.368-.643A.761.761,0,0,0,1221.767,473.537Z" transform="translate(-1221.377 -457.823)" fill="#fff"/>
                    <path id="Path_86156" data-name="Path 86156" d="M1267.14,489.438v-.471c0-.045-.028-.066-.061-.046l-1.671.965a.146.146,0,0,0-.061.116v.474c0,.045.027.066.061.046l1.671-.964A.156.156,0,0,0,1267.14,489.438Z" transform="translate(-1210.522 -453.93)" fill="#21587b"/>
                    <path id="Path_86157" data-name="Path 86157" d="M1265.136,490.6v-.474c0-.045-.027-.065-.06-.046l-1.671.965a.144.144,0,0,0-.062.116v.474c0,.045.027.066.062.046l1.671-.965A.151.151,0,0,0,1265.136,490.6Z" transform="translate(-1211.017 -453.645)" fill="#21587b"/>
                    <path id="Path_86158" data-name="Path 86158" d="M1282.719,484.784l-35.9-20.724a.772.772,0,0,0-.773,0l-12.783,7.4a.276.276,0,0,0-.1.375.287.287,0,0,0,.1.1l35.879,20.712a.77.77,0,0,0,.772,0l12.8-7.387a.276.276,0,0,0,.1-.377A.28.28,0,0,0,1282.719,484.784Z" transform="translate(-1218.476 -460.092)" fill="#d2e1f1"/>
                    <path id="Path_86159" data-name="Path 86159" d="M1282.718,485.263l-.127.074-35.769-20.651a.772.772,0,0,0-.773,0l-12.655,7.322-.127-.074a.274.274,0,0,1-.1-.375.287.287,0,0,1,.1-.1l12.782-7.4a.771.771,0,0,1,.773,0l35.9,20.724a.276.276,0,0,1,.1.377A.279.279,0,0,1,1282.718,485.263Z" transform="translate(-1218.476 -460.091)" fill="#727997"/>
                    <g id="Group_34933" data-name="Group 34933" transform="translate(16.568 6.778)">
                      <path id="Path_86160" data-name="Path 86160" d="M1245.125,467.09l30.385,17.544,1.313-.844-30.307-17.5Z" transform="translate(-1232.083 -466.293)" fill="#393939"/>
                      <path id="Path_86161" data-name="Path 86161" d="M1243.543,469.324l27.586,15.928.945-1.056-27.147-15.672Z" transform="translate(-1232.473 -465.742)" fill="#393939"/>
                      <path id="Path_86162" data-name="Path 86162" d="M1238.215,468.3l34.435,19.88,1.386-.8L1239.6,467.5Z" transform="translate(-1233.789 -465.996)" fill="#393939"/>
                      <path id="Path_86163" data-name="Path 86163" d="M1236.438,469.324l34.435,19.88,1.387-.8-34.435-19.88Z" transform="translate(-1234.227 -465.742)" fill="#393939"/>
                      <path id="Path_86164" data-name="Path 86164" d="M1234.665,470.349l34.435,19.88,1.386-.8-34.436-19.877Z" transform="translate(-1234.665 -465.488)" fill="#393939"/>
                      <path id="Path_86165" data-name="Path 86165" d="M1269.235,481.01l1.387.8,1.386-.8-1.386-.8Z" transform="translate(-1226.13 -462.857)" fill="#393939"/>
                      <path id="Path_86166" data-name="Path 86166" d="M1265.314,481.893l2.874,1.662,1.386-.8-2.874-1.662Z" transform="translate(-1227.099 -462.639)" fill="#393939"/>
                    </g>
                    <path id="Path_86167" data-name="Path 86167" d="M1244.976,486.735l-9.68-5.586a.417.417,0,0,1,0-.791l6.618-3.822a1.513,1.513,0,0,1,1.369,0l9.678,5.589a.417.417,0,0,1,0,.79l-6.618,3.822A1.515,1.515,0,0,1,1244.976,486.735Z" transform="translate(-1218.011 -457.026)" fill="url(#linear-gradient-3)"/>
                    <path id="Path_86168" data-name="Path 86168" d="M1252.963,482.446l-9.678-5.587a1.505,1.505,0,0,0-1.369,0l-6.618,3.82a.581.581,0,0,0-.238.234c-.1-.192-.025-.408.238-.557l6.618-3.822a1.513,1.513,0,0,1,1.369,0l9.678,5.589c.262.147.339.368.238.557A.584.584,0,0,0,1252.963,482.446Z" transform="translate(-1218.01 -457.026)" fill="#727997"/>
                  </g>
                </g>
                <g id="Group_34940" data-name="Group 34940" transform="translate(28.462 2.57)" opacity="0.11">
                  <g id="Grupo_55771" data-name="Grupo 55771">
                    <g id="Grupo_55770" data-name="Grupo 55770" clip-path="url(#clip-path-3)">
                      <g id="Group_34939" data-name="Group 34939" transform="translate(-1.245 16.043)">
                        <g id="Group_34938" data-name="Group 34938">
                          <path id="Path_86169" data-name="Path 86169" d="M1243.6,464.156l43.194,24.94a1.776,1.776,0,0,0,1.6.067l25.777-14.883c.409-.237.359-.65-.114-.923l-43.194-24.94a1.776,1.776,0,0,0-1.6-.066l-25.777,14.883C1243.073,463.471,1243.124,463.884,1243.6,464.156Z" transform="translate(-1243.206 -448.193)" fill="url(#linear-gradient-4)"/>
                          <path id="Path_86170" data-name="Path 86170" d="M1280.239,466.634l-9.678-5.589a.418.418,0,0,1,0-.791l6.619-3.822a1.516,1.516,0,0,1,1.37,0l9.678,5.589a.417.417,0,0,1,0,.791l-6.618,3.822A1.517,1.517,0,0,1,1280.239,466.634Z" transform="translate(-1236.522 -446.199)" fill="url(#linear-gradient-5)"/>
                          <path id="Path_86171" data-name="Path 86171" d="M1288.226,462.346l-9.678-5.587a1.506,1.506,0,0,0-1.369,0l-6.62,3.821a.6.6,0,0,0-.238.233c-.1-.191-.024-.406.238-.556l6.62-3.822a1.514,1.514,0,0,1,1.369,0l9.678,5.589c.262.147.338.368.238.556A.587.587,0,0,0,1288.226,462.346Z" transform="translate(-1236.522 -446.199)" fill="#9198db"/>
                          <g id="Group_34937" data-name="Group 34937" transform="translate(6.37 8.339)">
                            <path id="Path_86172" data-name="Path 86172" d="M1297.905,475.71l-35.9-20.726a.774.774,0,0,0-.774,0l-12.781,7.4a.274.274,0,0,0,0,.476l35.88,20.713a.775.775,0,0,0,.772,0l12.8-7.387a.276.276,0,0,0,.1-.378A.272.272,0,0,0,1297.905,475.71Z" transform="translate(-1248.314 -454.881)" fill="#adb1f2"/>
                            <path id="Path_86173" data-name="Path 86173" d="M1297.905,476.188l-.128.074-35.768-20.652a.774.774,0,0,0-.774,0l-12.653,7.322-.128-.074a.275.275,0,0,1-.1-.377.28.28,0,0,1,.1-.1l12.781-7.4a.774.774,0,0,1,.774,0l35.9,20.724a.274.274,0,0,1,.108.373A.261.261,0,0,1,1297.905,476.188Z" transform="translate(-1248.314 -454.881)" fill="#9198db"/>
                            <g id="Group_34936" data-name="Group 34936" transform="translate(2.244 1.518)">
                              <path id="Path_86174" data-name="Path 86174" d="M1251.35,460.491l31.273,18.055-1.239.716-31.269-18.054Z" transform="translate(-1250.114 -455.013)" fill="#24126a"/>
                              <path id="Path_86175" data-name="Path 86175" d="M1254,458.966l29.724,17.161-1.24.714-29.723-17.161Z" transform="translate(-1249.461 -455.39)" fill="#24126a"/>
                              <path id="Path_86176" data-name="Path 86176" d="M1279.613,473.756l2.777,1.6-1.24.714-2.775-1.6Z" transform="translate(-1243.137 -451.739)" fill="#24126a"/>
                              <path id="Path_86177" data-name="Path 86177" d="M1277.647,475.673l1.934,1.116-1.24.714-1.934-1.116Z" transform="translate(-1243.623 -451.265)" fill="#24126a"/>
                              <path id="Path_86178" data-name="Path 86178" d="M1255.651,458.009l34.717,20.046-1.24.714-34.717-20.045Z" transform="translate(-1249.053 -455.626)" fill="#24126a"/>
                              <path id="Path_86179" data-name="Path 86179" d="M1257.306,457.053l34.717,20.045-1.238.716-34.717-20.046Z" transform="translate(-1248.644 -455.862)" fill="#24126a"/>
                              <path id="Path_86180" data-name="Path 86180" d="M1258.964,456.1l34.717,20.045-1.239.714-34.717-20.045Z" transform="translate(-1248.235 -456.098)" fill="#24126a"/>
                            </g>
                          </g>
                        </g>
                      </g>
                    </g>
                  </g>
                </g>
              </g>
            </g>
          </g>
          <g id="Group_34947" data-name="Group 34947" transform="translate(39.386 13.38)">
            <path id="Path_86181" data-name="Path 86181" d="M1255.916,444.586l3.4,1.966.1-.59-3.4-1.966Z" transform="translate(-1252.236 -443.996)" fill="#42e8e0"/>
            <path id="Path_86182" data-name="Path 86182" d="M1259.085,446.415l1.854,1.072.1-.59-1.854-1.072Z" transform="translate(-1251.454 -443.544)" fill="#42e8e0"/>
            <path id="Path_86183" data-name="Path 86183" d="M1262.884,448.61l1.34.776.1-.59-1.342-.776Z" transform="translate(-1250.516 -443.003)" fill="#42e8e0"/>
            <path id="Path_86184" data-name="Path 86184" d="M1262.1,448.157l.459.264.1-.589-.459-.266Z" transform="translate(-1250.709 -443.114)" fill="#42e8e0"/>
            <path id="Path_86185" data-name="Path 86185" d="M1261.017,447.529l.833.481.1-.589-.834-.481Z" transform="translate(-1250.977 -443.269)" fill="#42e8e0"/>
            <path id="Path_86186" data-name="Path 86186" d="M1258.076,448.209l1.341.776.1-.59-1.342-.776Z" transform="translate(-1251.703 -443.102)" fill="#42e8e0"/>
            <path id="Path_86187" data-name="Path 86187" d="M1255.551,446.751l2.63,1.519.1-.59-2.628-1.519Z" transform="translate(-1252.327 -443.462)" fill="#42e8e0"/>
            <g id="Group_34944" data-name="Group 34944" transform="translate(5.641 11.496)">
              <path id="Path_86188" data-name="Path 86188" d="M1258.573,454.432l2.63,1.52.1-.59-2.629-1.52Z" transform="translate(-1257.221 -453.061)" fill="#42e8e0"/>
              <path id="Path_86189" data-name="Path 86189" d="M1257.489,453.806l.833.481.1-.59-.833-.481Z" transform="translate(-1257.489 -453.216)" fill="#42e8e0"/>
            </g>
            <path id="Path_86190" data-name="Path 86190" d="M1258.925,452.265l2.628,1.519.1-.59-2.628-1.519Z" transform="translate(-1251.493 -442.1)" fill="#42e8e0"/>
            <path id="Path_86191" data-name="Path 86191" d="M1257.84,451.636l.833.481.1-.59-.833-.481Z" transform="translate(-1251.761 -442.256)" fill="#42e8e0"/>
            <path id="Path_86192" data-name="Path 86192" d="M1258.017,464.24l-4.952-2.863-.1.59,4.953,2.863Z" transform="translate(-1252.965 -439.705)" fill="#42e8e0"/>
            <path id="Path_86193" data-name="Path 86193" d="M1258.679,464.622l-1.226-.708-.1.59,1.225.708Z" transform="translate(-1251.881 -439.079)" fill="#42e8e0"/>
            <path id="Path_86194" data-name="Path 86194" d="M1266.4,465.509l-4.953-2.862-.1.59,4.953,2.862Z" transform="translate(-1250.896 -439.391)" fill="#42e8e0"/>
            <path id="Path_86195" data-name="Path 86195" d="M1267.058,465.891l-1.225-.708-.1.59,1.226.708Z" transform="translate(-1249.813 -438.765)" fill="#42e8e0"/>
            <path id="Path_86196" data-name="Path 86196" d="M1254.586,461.071l-1.342-.776-.1.59,1.34.776Z" transform="translate(-1252.92 -439.972)" fill="#42e8e0"/>
            <path id="Path_86197" data-name="Path 86197" d="M1261.136,462.475l-1.341-.776-.1.59,1.342.776Z" transform="translate(-1251.303 -439.625)" fill="#42e8e0"/>
            <path id="Path_86198" data-name="Path 86198" d="M1257.37,462.677l-2.63-1.519-.1.59,2.63,1.519Z" transform="translate(-1252.551 -439.759)" fill="#42e8e0"/>
            <path id="Path_86199" data-name="Path 86199" d="M1258.1,463.1l-.833-.481-.1.59.833.481Z" transform="translate(-1251.927 -439.399)" fill="#42e8e0"/>
            <path id="Path_86200" data-name="Path 86200" d="M1261,464.772l-2.629-1.519-.1.59,2.629,1.519Z" transform="translate(-1251.655 -439.242)" fill="#42e8e0"/>
            <path id="Path_86201" data-name="Path 86201" d="M1261.728,465.193l-.833-.481-.1.59.833.481Z" transform="translate(-1251.032 -438.882)" fill="#42e8e0"/>
            <path id="Path_86202" data-name="Path 86202" d="M1260.954,463.558l-1.342-.776-.1.59,1.342.776Z" transform="translate(-1251.348 -439.358)" fill="#42e8e0"/>
            <path id="Path_86203" data-name="Path 86203" d="M1263.733,465.165l-2.628-1.52-.1.59,2.63,1.52Z" transform="translate(-1250.98 -439.145)" fill="#42e8e0"/>
            <path id="Path_86204" data-name="Path 86204" d="M1264.463,465.585l-.833-.481-.1.59.833.481Z" transform="translate(-1250.357 -438.785)" fill="#42e8e0"/>
            <path id="Path_86205" data-name="Path 86205" d="M1256.176,460.8l-2.745-1.587-.1.59,2.744,1.586Z" transform="translate(-1252.874 -440.239)" fill="#42e8e0"/>
            <path id="Path_86206" data-name="Path 86206" d="M1258.035,461.873l-1.985-1.148-.1.59,1.985,1.147Z" transform="translate(-1252.228 -439.866)" fill="#42e8e0"/>
            <path id="Path_86207" data-name="Path 86207" d="M1259.4,462.663l-1.342-.776-.1.59,1.342.776Z" transform="translate(-1251.732 -439.579)" fill="#42e8e0"/>
            <path id="Path_86208" data-name="Path 86208" d="M1270.114,467.653l-2.744-1.587-.1.59,2.744,1.587Z" transform="translate(-1249.433 -438.547)" fill="#42e8e0"/>
            <path id="Path_86209" data-name="Path 86209" d="M1271.972,468.727l-1.985-1.148-.1.59,1.985,1.148Z" transform="translate(-1248.787 -438.174)" fill="#42e8e0"/>
            <path id="Path_86210" data-name="Path 86210" d="M1273.338,469.517l-1.342-.776-.1.59,1.342.776Z" transform="translate(-1248.291 -437.887)" fill="#42e8e0"/>
            <path id="Path_86211" data-name="Path 86211" d="M1268.689,453.15l2.744,1.587.1-.59-2.746-1.587Z" transform="translate(-1249.083 -441.882)" fill="#42e8e0"/>
            <path id="Path_86212" data-name="Path 86212" d="M1266.682,451.988l1.985,1.148.1-.59-1.985-1.147Z" transform="translate(-1249.579 -442.168)" fill="#42e8e0"/>
            <path id="Path_86213" data-name="Path 86213" d="M1265.188,451.126l1.342.776.1-.59-1.342-.776Z" transform="translate(-1249.947 -442.381)" fill="#42e8e0"/>
            <path id="Path_86214" data-name="Path 86214" d="M1267.96,451.535l2.746,1.587.1-.59-2.746-1.587Z" transform="translate(-1249.263 -442.28)" fill="#42e8e0"/>
            <path id="Path_86215" data-name="Path 86215" d="M1265.951,450.372l1.985,1.148.1-.59-1.985-1.147Z" transform="translate(-1249.759 -442.567)" fill="#42e8e0"/>
            <path id="Path_86216" data-name="Path 86216" d="M1264.456,449.511l1.342.776.1-.59-1.342-.776Z" transform="translate(-1250.128 -442.78)" fill="#42e8e0"/>
            <path id="Path_86217" data-name="Path 86217" d="M1259.07,453.537l.928.536.1-.59-.928-.536Z" transform="translate(-1251.458 -441.786)" fill="#42e8e0"/>
            <path id="Path_86218" data-name="Path 86218" d="M1257.67,452.728l1.226.708.1-.59-1.224-.708Z" transform="translate(-1251.804 -441.986)" fill="#42e8e0"/>
            <path id="Path_86219" data-name="Path 86219" d="M1256.372,459.722l-2.744-1.587-.1.59,2.744,1.587Z" transform="translate(-1252.826 -440.505)" fill="#42e8e0"/>
            <path id="Path_86220" data-name="Path 86220" d="M1258.232,460.8l-1.985-1.147-.1.59,1.985,1.147Z" transform="translate(-1252.179 -440.131)" fill="#42e8e0"/>
            <path id="Path_86221" data-name="Path 86221" d="M1259.6,461.586l-1.342-.776-.1.59,1.342.776Z" transform="translate(-1251.683 -439.845)" fill="#42e8e0"/>
            <path id="Path_86222" data-name="Path 86222" d="M1254.737,457.589l-.928-.536-.1.59.926.536Z" transform="translate(-1252.781 -440.772)" fill="#42e8e0"/>
            <path id="Path_86223" data-name="Path 86223" d="M1256.2,458.432l-1.224-.708-.1.59,1.224.708Z" transform="translate(-1252.494 -440.607)" fill="#42e8e0"/>
            <path id="Path_86224" data-name="Path 86224" d="M1258.344,459.674l-1.974-1.141-.1.59,1.975,1.141Z" transform="translate(-1252.149 -440.407)" fill="#42e8e0"/>
            <path id="Path_86225" data-name="Path 86225" d="M1260.082,450.551l.928.536.1-.59-.927-.536Z" transform="translate(-1251.208 -442.523)" fill="#42e8e0"/>
            <path id="Path_86226" data-name="Path 86226" d="M1258.682,449.741l1.226.708.1-.59-1.226-.708Z" transform="translate(-1251.553 -442.723)" fill="#42e8e0"/>
            <path id="Path_86227" data-name="Path 86227" d="M1256.682,448.587l1.974,1.141.1-.59L1256.782,448Z" transform="translate(-1252.047 -443.008)" fill="#42e8e0"/>
            <path id="Path_86228" data-name="Path 86228" d="M1261.214,452.308l1.974,1.142.1-.59-1.975-1.141Z" transform="translate(-1250.928 -442.089)" fill="#42e8e0"/>
            <path id="Path_86229" data-name="Path 86229" d="M1258.624,450.9l2.661,1.539.1-.59-2.661-1.539Z" transform="translate(-1251.568 -442.438)" fill="#42e8e0"/>
            <path id="Path_86230" data-name="Path 86230" d="M1257.54,450.271l.833.481.1-.59-.833-.481Z" transform="translate(-1251.836 -442.592)" fill="#42e8e0"/>
            <path id="Path_86231" data-name="Path 86231" d="M1256.5,449.669l.833.481.1-.589-.833-.483Z" transform="translate(-1252.093 -442.741)" fill="#42e8e0"/>
            <g id="Group_34946" data-name="Group 34946" transform="translate(1.158 12.945)">
              <path id="Path_86232" data-name="Path 86232" d="M1256.642,455.79l2.63,1.519.1-.59-2.63-1.519Z" transform="translate(-1253.216 -454.175)" fill="#42e8e0"/>
              <path id="Path_86233" data-name="Path 86233" d="M1255.557,455.16l.833.481.1-.59-.833-.481Z" transform="translate(-1253.484 -454.331)" fill="#42e8e0"/>
              <path id="Path_86234" data-name="Path 86234" d="M1256.788,457.06l.927.536.1-.59-.928-.536Z" transform="translate(-1253.179 -453.861)" fill="#42e8e0"/>
              <path id="Path_86235" data-name="Path 86235" d="M1259.413,456.192l.928.535.1-.59-.926-.535Z" transform="translate(-1252.532 -454.076)" fill="#42e8e0"/>
              <path id="Path_86236" data-name="Path 86236" d="M1260.473,456.8l2.224,1.284.1-.59-2.226-1.284Z" transform="translate(-1252.27 -453.925)" fill="#42e8e0"/>
              <path id="Path_86237" data-name="Path 86237" d="M1262.574,458.018l1.326.764.1-.59-1.327-.764Z" transform="translate(-1251.751 -453.625)" fill="#42e8e0"/>
              <path id="Path_86238" data-name="Path 86238" d="M1255.385,456.251l1.226.708.1-.59-1.226-.708Z" transform="translate(-1253.526 -454.061)" fill="#42e8e0"/>
              <g id="Group_34945" data-name="Group 34945" transform="translate(0 1.979)">
                <path id="Path_86239" data-name="Path 86239" d="M1255.3,457.364l.927.536.1-.59-.926-.536Z" transform="translate(-1253.548 -455.765)" fill="#42e8e0"/>
                <path id="Path_86240" data-name="Path 86240" d="M1253.894,456.555l1.224.708.1-.59-1.225-.708Z" transform="translate(-1253.894 -455.965)" fill="#42e8e0"/>
              </g>
              <path id="Path_86241" data-name="Path 86241" d="M1258.333,455.569l.833.481.1-.59-.833-.481Z" transform="translate(-1252.798 -454.23)" fill="#42e8e0"/>
              <path id="Path_86242" data-name="Path 86242" d="M1257.292,454.968l.833.481.1-.59-.833-.481Z" transform="translate(-1253.055 -454.378)" fill="#42e8e0"/>
            </g>
            <path id="Path_86243" data-name="Path 86243" d="M1262.421,449.526l2.84,1.642.1-.59-2.84-1.642Z" transform="translate(-1250.631 -442.776)" fill="#42e8e0"/>
            <path id="Path_86244" data-name="Path 86244" d="M1259.87,448.052l2.661,1.539.1-.59-2.661-1.539Z" transform="translate(-1251.26 -443.14)" fill="#42e8e0"/>
            <path id="Path_86245" data-name="Path 86245" d="M1258.786,447.425l.833.481.1-.589-.833-.483Z" transform="translate(-1251.528 -443.295)" fill="#42e8e0"/>
            <path id="Path_86246" data-name="Path 86246" d="M1257.745,446.824l.833.481.1-.59-.833-.481Z" transform="translate(-1251.785 -443.443)" fill="#42e8e0"/>
            <path id="Path_86247" data-name="Path 86247" d="M1257.529,446.7l-1.8-1.039.1-.59,1.8,1.039Z" transform="translate(-1252.281 -443.731)" fill="#42e8e0"/>
          </g>
        </g>
        <g id="Grupo_55772" data-name="Grupo 55772" transform="translate(62.447 149.587)">
          <g id="Group_35154" data-name="Group 35154">
            <path id="Path_86498" data-name="Path 86498" d="M1305.129,515.135l11.612-6.7a1.525,1.525,0,0,0,.884-1.262c0-.042,0-.953,0-.994-.049-.549-.47-.247-1.247-.7l-27.309-15.766a5.674,5.674,0,0,0-5.11-.212l-11.612,6.7c-.585.338-.875-.256-.883.216,0,.041,0,1.127,0,1.17a2.191,2.191,0,0,0,1.247,1.566l27.308,15.766A5.674,5.674,0,0,0,1305.129,515.135Z" transform="translate(-1271.459 -487.996)" fill="#393939"/>
            <path id="Path_86499" data-name="Path 86499" d="M1305.129,514.337l11.612-6.7c1.31-.757,1.146-2.078-.367-2.951l-27.309-15.765a5.674,5.674,0,0,0-5.11-.212l-11.612,6.7c-1.309.757-1.145,2.077.368,2.95l27.308,15.767A5.681,5.681,0,0,0,1305.129,514.337Z" transform="translate(-1271.459 -488.193)" fill="url(#linear-gradient-6)"/>
            <path id="Path_86500" data-name="Path 86500" d="M1316.742,505.832l-11.612,6.7a5.677,5.677,0,0,1-5.111-.212l-27.308-15.766a2.154,2.154,0,0,1-1.249-1.6,2.047,2.047,0,0,0,1.249,1.733l27.308,15.767a5.684,5.684,0,0,0,5.111.212l11.612-6.706a1.494,1.494,0,0,0,.883-1.348A1.545,1.545,0,0,1,1316.742,505.832Z" transform="translate(-1271.459 -486.523)" fill="#fff"/>
            <path id="Path_86501" data-name="Path 86501" d="M1315.307,504.972l-27.2-15.707a4.171,4.171,0,0,0-3.75-.157l-11.306,6.53c-.961.555-.84,1.524.269,2.165l27.2,15.707a4.182,4.182,0,0,0,3.751.157l11.3-6.527C1316.537,506.583,1316.418,505.613,1315.307,504.972Z" transform="translate(-1271.228 -488.06)" fill="#022652"/>
            <path id="Path_86502" data-name="Path 86502" d="M1284.387,489.281a3.612,3.612,0,0,1,3.271-.006l27.5,15.879a1,1,0,0,1-.01,1.889l-11.044,6.375a3.612,3.612,0,0,1-3.271.006l-27.5-15.88a1,1,0,0,1,.01-1.888Z" transform="translate(-1271.163 -488.022)" fill="#393939"/>
          </g>
          <rect id="Rectángulo_31148" data-name="Rectángulo 31148" width="1.744" height="0.72" rx="0.289" transform="matrix(0.866, -0.5, 0.5, 0.866, 7.843, 4.891)" fill="#a8cff0"/>
        </g>
      </g>
    </g>
  </g>
</svg>
