<svg xmlns="http://www.w3.org/2000/svg" xmlns:xlink="http://www.w3.org/1999/xlink" width="462.333" height="498" viewBox="0 0 462.333 498">
  <defs>
    <linearGradient id="linear-gradient" y1="0.5" x2="1" y2="0.5" gradientUnits="objectBoundingBox">
      <stop offset="0" stop-color="#fff"/>
      <stop offset="1" stop-color="#d2e6ee"/>
    </linearGradient>
  </defs>
  <g id="Grupo_1093426" data-name="Grupo 1093426" transform="translate(-800.667 -2037)">
    <path id="Trazado_836269" data-name="Trazado 836269" d="M0,0H462.333V498H0Z" transform="translate(800.667 2037)" fill="#ccbcfd"/>
    <path id="Trazado_836270" data-name="Trazado 836270" d="M17.341,17V4.2h4.122a6.064,6.064,0,0,1,3.05.769,5.406,5.406,0,0,1,2.114,2.171,6.554,6.554,0,0,1,.769,3.142v.589a6.592,6.592,0,0,1-.743,3.151,5.429,5.429,0,0,1-2.092,2.18,5.93,5.93,0,0,1-3.01.8ZM20.426,6.585v8.042H21.5a2.4,2.4,0,0,0,2.039-.945,4.63,4.63,0,0,0,.712-2.808V10.32a4.592,4.592,0,0,0-.712-2.795,2.442,2.442,0,0,0-2.074-.94ZM31.966,17H29V7.49h2.971ZM28.819,5.029a1.334,1.334,0,0,1,.457-1.043,1.934,1.934,0,0,1,2.373,0,1.334,1.334,0,0,1,.457,1.043,1.334,1.334,0,0,1-.457,1.043,1.934,1.934,0,0,1-2.373,0A1.334,1.334,0,0,1,28.819,5.029Zm9.949,9.3a.684.684,0,0,0-.4-.606,6.016,6.016,0,0,0-1.5-.475,6.853,6.853,0,0,1-1.828-.646,3.062,3.062,0,0,1-1.1-.971,2.319,2.319,0,0,1-.378-1.31,2.628,2.628,0,0,1,1.081-2.158,4.453,4.453,0,0,1,2.83-.848,4.934,4.934,0,0,1,3.023.853,2.666,2.666,0,0,1,1.143,2.241H38.672q0-1.143-1.2-1.143a1.194,1.194,0,0,0-.782.259.8.8,0,0,0-.316.646.737.737,0,0,0,.387.642,3.654,3.654,0,0,0,1.235.4,10.671,10.671,0,0,1,1.49.378,2.706,2.706,0,0,1,2.145,2.646,2.491,2.491,0,0,1-1.156,2.118,5.068,5.068,0,0,1-2.993.817,5.172,5.172,0,0,1-2.18-.439,3.645,3.645,0,0,1-1.494-1.2,2.707,2.707,0,0,1-.536-1.591h2.769a1.145,1.145,0,0,0,.439.962,1.808,1.808,0,0,0,1.081.3,1.422,1.422,0,0,0,.91-.246A.787.787,0,0,0,38.769,14.328Zm13.069-2.013a5.735,5.735,0,0,1-1,3.538,3.2,3.2,0,0,1-2.694,1.323,2.742,2.742,0,0,1-2.153-.958v4.438H43.031V7.49H45.8l.088.879a2.742,2.742,0,0,1,2.241-1.055,3.224,3.224,0,0,1,2.733,1.3,5.805,5.805,0,0,1,.976,3.564Zm-2.962-.185Q48.876,9.6,47.4,9.6a1.394,1.394,0,0,0-1.406.756V14.1a1.439,1.439,0,0,0,1.424.791q1.415,0,1.459-2.443Zm3.894.026a5.613,5.613,0,0,1,.554-2.536,3.96,3.96,0,0,1,1.591-1.709,4.791,4.791,0,0,1,2.435-.6,4.373,4.373,0,0,1,3.366,1.323,5.076,5.076,0,0,1,1.23,3.6v.105a4.925,4.925,0,0,1-1.235,3.529,4.384,4.384,0,0,1-3.344,1.305,4.434,4.434,0,0,1-3.261-1.217,4.761,4.761,0,0,1-1.327-3.3Zm2.962.185a3.538,3.538,0,0,0,.413,1.934,1.376,1.376,0,0,0,1.222.615q1.582,0,1.617-2.435v-.3q0-2.558-1.635-2.558-1.485,0-1.608,2.206Zm12.5,1.986a.684.684,0,0,0-.4-.606,6.016,6.016,0,0,0-1.5-.475A6.853,6.853,0,0,1,64.5,12.6a3.062,3.062,0,0,1-1.1-.971,2.319,2.319,0,0,1-.378-1.31,2.628,2.628,0,0,1,1.081-2.158,4.453,4.453,0,0,1,2.83-.848,4.934,4.934,0,0,1,3.023.853A2.666,2.666,0,0,1,71.1,10.408H68.133q0-1.143-1.2-1.143a1.194,1.194,0,0,0-.782.259.8.8,0,0,0-.316.646.737.737,0,0,0,.387.642,3.654,3.654,0,0,0,1.235.4,10.671,10.671,0,0,1,1.49.378,2.706,2.706,0,0,1,2.145,2.646,2.491,2.491,0,0,1-1.156,2.118,5.068,5.068,0,0,1-2.993.817,5.172,5.172,0,0,1-2.18-.439,3.645,3.645,0,0,1-1.494-1.2,2.707,2.707,0,0,1-.536-1.591H65.5a1.145,1.145,0,0,0,.439.962,1.808,1.808,0,0,0,1.081.3,1.422,1.422,0,0,0,.91-.246A.787.787,0,0,0,68.229,14.328ZM75.595,17H72.624V7.49h2.971ZM72.448,5.029a1.334,1.334,0,0,1,.457-1.043,1.934,1.934,0,0,1,2.373,0,1.334,1.334,0,0,1,.457,1.043,1.334,1.334,0,0,1-.457,1.043,1.934,1.934,0,0,1-2.373,0A1.334,1.334,0,0,1,72.448,5.029Zm8.42.1V7.49h1.564V9.547H80.868V13.9a1.111,1.111,0,0,0,.193.747,1.037,1.037,0,0,0,.765.211,4.345,4.345,0,0,0,.738-.053v2.118a5.466,5.466,0,0,1-1.67.255,3.1,3.1,0,0,1-2.259-.721,2.954,2.954,0,0,1-.729-2.188V9.547H76.693V7.49h1.213V5.126ZM86.722,17H83.751V7.49h2.971ZM83.575,5.029a1.334,1.334,0,0,1,.457-1.043,1.934,1.934,0,0,1,2.373,0,1.334,1.334,0,0,1,.457,1.043,1.334,1.334,0,0,1-.457,1.043,1.934,1.934,0,0,1-2.373,0A1.334,1.334,0,0,1,83.575,5.029Zm8.763,8.446,1.5-5.985h3.12L93.858,17H90.835l-3.1-9.51h3.129Zm5-1.318a5.613,5.613,0,0,1,.554-2.536,3.96,3.96,0,0,1,1.591-1.709,4.791,4.791,0,0,1,2.435-.6,4.373,4.373,0,0,1,3.366,1.323,5.076,5.076,0,0,1,1.23,3.6v.105a4.925,4.925,0,0,1-1.235,3.529,4.384,4.384,0,0,1-3.344,1.305,4.434,4.434,0,0,1-3.261-1.217,4.761,4.761,0,0,1-1.327-3.3Zm2.962.185a3.538,3.538,0,0,0,.413,1.934,1.376,1.376,0,0,0,1.222.615q1.582,0,1.617-2.435v-.3q0-2.558-1.635-2.558-1.485,0-1.608,2.206Zm12.5,1.986a.684.684,0,0,0-.4-.606,6.016,6.016,0,0,0-1.5-.475,6.853,6.853,0,0,1-1.828-.646,3.062,3.062,0,0,1-1.1-.971,2.319,2.319,0,0,1-.378-1.31,2.628,2.628,0,0,1,1.081-2.158,4.453,4.453,0,0,1,2.83-.848,4.934,4.934,0,0,1,3.023.853,2.666,2.666,0,0,1,1.143,2.241H112.7q0-1.143-1.2-1.143a1.194,1.194,0,0,0-.782.259.8.8,0,0,0-.316.646.737.737,0,0,0,.387.642,3.654,3.654,0,0,0,1.235.4,10.671,10.671,0,0,1,1.49.378,2.706,2.706,0,0,1,2.145,2.646,2.491,2.491,0,0,1-1.156,2.118,5.068,5.068,0,0,1-2.993.817,5.172,5.172,0,0,1-2.18-.439,3.645,3.645,0,0,1-1.494-1.2,2.707,2.707,0,0,1-.536-1.591h2.769a1.145,1.145,0,0,0,.439.962,1.808,1.808,0,0,0,1.081.3,1.422,1.422,0,0,0,.91-.246A.787.787,0,0,0,112.8,14.328Zm12.173-9.2V7.49h1.564V9.547h-1.564V13.9a1.111,1.111,0,0,0,.193.747,1.037,1.037,0,0,0,.765.211,4.345,4.345,0,0,0,.738-.053v2.118a5.466,5.466,0,0,1-1.67.255,3.1,3.1,0,0,1-2.259-.721,2.954,2.954,0,0,1-.729-2.188V9.547H120.8V7.49h1.213V5.126Zm7.33,12.05a4.889,4.889,0,0,1-3.542-1.305,4.507,4.507,0,0,1-1.354-3.4v-.246a5.84,5.84,0,0,1,.541-2.575,3.955,3.955,0,0,1,1.578-1.727,4.763,4.763,0,0,1,2.461-.611,4.117,4.117,0,0,1,3.164,1.244,4.887,4.887,0,0,1,1.16,3.467v1.151h-5.889a2.135,2.135,0,0,0,.694,1.257,2.066,2.066,0,0,0,1.389.457,2.662,2.662,0,0,0,2.2-.984l1.354,1.6a3.784,3.784,0,0,1-1.569,1.217A5.3,5.3,0,0,1,132.3,17.176ZM131.968,9.6q-1.3,0-1.547,1.723h2.988v-.229a1.467,1.467,0,0,0-.36-1.1A1.434,1.434,0,0,0,131.968,9.6Zm11.285.571-.976-.07a1.752,1.752,0,0,0-1.793.879V17h-2.962V7.49H140.3l.1,1.222a2.294,2.294,0,0,1,2.083-1.4,2.888,2.888,0,0,1,.826.105ZM147.12,7.49l.1,1.116a3.27,3.27,0,0,1,2.716-1.292,2.407,2.407,0,0,1,2.435,1.433,3.165,3.165,0,0,1,2.795-1.433q2.892,0,2.971,3.5V17h-2.971V11a1.813,1.813,0,0,0-.246-1.063,1.048,1.048,0,0,0-.9-.334,1.4,1.4,0,0,0-1.31.782l.009.123V17h-2.971V11.015a1.906,1.906,0,0,0-.237-1.081,1.045,1.045,0,0,0-.905-.334,1.42,1.42,0,0,0-1.3.782V17h-2.962V7.49ZM162.949,17h-2.971V7.49h2.971ZM159.8,5.029a1.334,1.334,0,0,1,.457-1.043,1.934,1.934,0,0,1,2.373,0,1.334,1.334,0,0,1,.457,1.043,1.334,1.334,0,0,1-.457,1.043,1.934,1.934,0,0,1-2.373,0A1.334,1.334,0,0,1,159.8,5.029Zm7.69,2.461.1,1.116a3.225,3.225,0,0,1,2.716-1.292,2.713,2.713,0,0,1,2.219.888,4.226,4.226,0,0,1,.76,2.672V17h-2.971V11a1.6,1.6,0,0,0-.29-1.059A1.342,1.342,0,0,0,168.97,9.6a1.413,1.413,0,0,0-1.292.686V17h-2.962V7.49ZM180.281,17a3.344,3.344,0,0,1-.281-.853,2.754,2.754,0,0,1-2.285,1.028,3.374,3.374,0,0,1-2.285-.813,2.588,2.588,0,0,1-.94-2.043,2.66,2.66,0,0,1,1.143-2.338,5.821,5.821,0,0,1,3.322-.791h.914v-.5q0-1.316-1.134-1.316a.927.927,0,0,0-1.055,1.042h-2.962a2.655,2.655,0,0,1,1.173-2.239,4.931,4.931,0,0,1,2.993-.86,4.323,4.323,0,0,1,2.874.888,3.086,3.086,0,0,1,1.081,2.435v4.21a4.311,4.311,0,0,0,.4,2V17Zm-1.854-1.934a1.652,1.652,0,0,0,.918-.237,1.487,1.487,0,0,0,.523-.536V12.772h-.861q-1.547,0-1.547,1.389a.848.848,0,0,0,.272.655A.986.986,0,0,0,178.427,15.066ZM187.6,17h-2.971V3.5H187.6Zm6.425.176a4.889,4.889,0,0,1-3.542-1.305,4.507,4.507,0,0,1-1.354-3.4v-.246a5.84,5.84,0,0,1,.541-2.575,3.955,3.955,0,0,1,1.578-1.727,4.763,4.763,0,0,1,2.461-.611,4.117,4.117,0,0,1,3.164,1.244,4.887,4.887,0,0,1,1.16,3.467v1.151h-5.889a2.135,2.135,0,0,0,.694,1.257,2.066,2.066,0,0,0,1.389.457,2.662,2.662,0,0,0,2.2-.984l1.354,1.6a3.784,3.784,0,0,1-1.569,1.217A5.3,5.3,0,0,1,194.027,17.176ZM193.693,9.6q-1.3,0-1.547,1.723h2.988v-.229a1.467,1.467,0,0,0-.36-1.1A1.434,1.434,0,0,0,193.693,9.6Zm10.512,4.729a.684.684,0,0,0-.4-.606,6.016,6.016,0,0,0-1.5-.475,6.853,6.853,0,0,1-1.828-.646,3.062,3.062,0,0,1-1.1-.971A2.319,2.319,0,0,1,199,10.32a2.628,2.628,0,0,1,1.081-2.158,4.453,4.453,0,0,1,2.83-.848,4.934,4.934,0,0,1,3.023.853,2.666,2.666,0,0,1,1.143,2.241h-2.971q0-1.143-1.2-1.143a1.194,1.194,0,0,0-.782.259.8.8,0,0,0-.316.646.737.737,0,0,0,.387.642,3.654,3.654,0,0,0,1.235.4,10.671,10.671,0,0,1,1.49.378,2.706,2.706,0,0,1,2.145,2.646,2.491,2.491,0,0,1-1.156,2.118,5.068,5.068,0,0,1-2.993.817,5.172,5.172,0,0,1-2.18-.439,3.645,3.645,0,0,1-1.494-1.2,2.707,2.707,0,0,1-.536-1.591h2.769a1.145,1.145,0,0,0,.439.962,1.808,1.808,0,0,0,1.081.3,1.422,1.422,0,0,0,.91-.246A.787.787,0,0,0,204.205,14.328Zm8.35-2.171a5.613,5.613,0,0,1,.554-2.536A3.96,3.96,0,0,1,214.7,7.912a4.791,4.791,0,0,1,2.435-.6A4.373,4.373,0,0,1,220.5,8.637a5.076,5.076,0,0,1,1.23,3.6v.105a4.925,4.925,0,0,1-1.235,3.529,4.384,4.384,0,0,1-3.344,1.305,4.434,4.434,0,0,1-3.261-1.217,4.761,4.761,0,0,1-1.327-3.3Zm2.962.185a3.538,3.538,0,0,0,.413,1.934,1.376,1.376,0,0,0,1.222.615q1.582,0,1.617-2.435v-.3q0-2.558-1.635-2.558-1.485,0-1.608,2.206Zm11.628-.167a5.809,5.809,0,0,1,.976-3.56,3.211,3.211,0,0,1,2.725-1.3,2.731,2.731,0,0,1,2.145,1V3.5h2.971V17H233.3l-.149-1.02a2.8,2.8,0,0,1-2.32,1.2,3.205,3.205,0,0,1-2.689-1.3A5.993,5.993,0,0,1,227.145,12.175Zm2.962.185q0,2.531,1.477,2.531a1.458,1.458,0,0,0,1.406-.826V10.443A1.419,1.419,0,0,0,231.6,9.6q-1.371,0-1.485,2.215Zm12.138,4.816a4.889,4.889,0,0,1-3.542-1.305,4.507,4.507,0,0,1-1.354-3.4v-.246a5.84,5.84,0,0,1,.541-2.575,3.955,3.955,0,0,1,1.578-1.727,4.763,4.763,0,0,1,2.461-.611,4.117,4.117,0,0,1,3.164,1.244,4.887,4.887,0,0,1,1.16,3.467v1.151h-5.889a2.135,2.135,0,0,0,.694,1.257,2.066,2.066,0,0,0,1.389.457,2.662,2.662,0,0,0,2.2-.984l1.354,1.6a3.784,3.784,0,0,1-1.569,1.217A5.3,5.3,0,0,1,242.244,17.176ZM241.91,9.6q-1.3,0-1.547,1.723h2.988v-.229a1.467,1.467,0,0,0-.36-1.1A1.434,1.434,0,0,0,241.91,9.6Zm15.68,6.372a3.054,3.054,0,0,1-2.54,1.2,3,3,0,0,1-2.369-.91,3.826,3.826,0,0,1-.8-2.615V7.49h2.962v6.179a1.065,1.065,0,0,0,1.187,1.222,1.548,1.548,0,0,0,1.45-.729V7.49h2.979V17h-2.777Zm9.466-1.644a.684.684,0,0,0-.4-.606,6.016,6.016,0,0,0-1.5-.475,6.853,6.853,0,0,1-1.828-.646,3.062,3.062,0,0,1-1.1-.971,2.319,2.319,0,0,1-.378-1.31,2.628,2.628,0,0,1,1.081-2.158,4.453,4.453,0,0,1,2.83-.848,4.934,4.934,0,0,1,3.023.853,2.666,2.666,0,0,1,1.143,2.241h-2.971q0-1.143-1.2-1.143a1.194,1.194,0,0,0-.782.259.8.8,0,0,0-.316.646.737.737,0,0,0,.387.642,3.654,3.654,0,0,0,1.235.4,10.671,10.671,0,0,1,1.49.378,2.706,2.706,0,0,1,2.145,2.646,2.491,2.491,0,0,1-1.156,2.118,5.068,5.068,0,0,1-2.993.817,5.172,5.172,0,0,1-2.18-.439,3.645,3.645,0,0,1-1.494-1.2,2.707,2.707,0,0,1-.536-1.591h2.769a1.145,1.145,0,0,0,.439.962,1.808,1.808,0,0,0,1.081.3,1.422,1.422,0,0,0,.91-.246A.787.787,0,0,0,267.056,14.328Zm9.905,1.644a3.054,3.054,0,0,1-2.54,1.2,3,3,0,0,1-2.369-.91,3.826,3.826,0,0,1-.8-2.615V7.49h2.962v6.179a1.065,1.065,0,0,0,1.187,1.222,1.548,1.548,0,0,0,1.45-.729V7.49h2.979V17h-2.777ZM286.8,17a3.344,3.344,0,0,1-.281-.853,2.754,2.754,0,0,1-2.285,1.028,3.374,3.374,0,0,1-2.285-.813,2.588,2.588,0,0,1-.94-2.043,2.66,2.66,0,0,1,1.143-2.338,5.821,5.821,0,0,1,3.322-.791h.914v-.5q0-1.316-1.134-1.316a.927.927,0,0,0-1.055,1.042h-2.962a2.655,2.655,0,0,1,1.173-2.239,4.931,4.931,0,0,1,2.993-.86,4.323,4.323,0,0,1,2.874.888,3.086,3.086,0,0,1,1.081,2.435v4.21a4.311,4.311,0,0,0,.4,2V17Zm-1.854-1.934a1.652,1.652,0,0,0,.918-.237,1.487,1.487,0,0,0,.523-.536V12.772h-.861q-1.547,0-1.547,1.389a.848.848,0,0,0,.272.655A.986.986,0,0,0,284.95,15.066Zm11.8-4.9-.976-.07a1.752,1.752,0,0,0-1.793.879V17h-2.962V7.49H293.8l.1,1.222a2.294,2.294,0,0,1,2.083-1.4,2.888,2.888,0,0,1,.826.105ZM300.946,17h-2.971V7.49h2.971ZM297.8,5.029a1.334,1.334,0,0,1,.457-1.043,1.934,1.934,0,0,1,2.373,0,1.334,1.334,0,0,1,.457,1.043,1.334,1.334,0,0,1-.457,1.043,1.934,1.934,0,0,1-2.373,0A1.334,1.334,0,0,1,297.8,5.029Zm4.6,7.128a5.613,5.613,0,0,1,.554-2.536,3.96,3.96,0,0,1,1.591-1.709,4.791,4.791,0,0,1,2.435-.6,4.373,4.373,0,0,1,3.366,1.323,5.076,5.076,0,0,1,1.23,3.6v.105a4.925,4.925,0,0,1-1.235,3.529,4.384,4.384,0,0,1-3.344,1.305,4.434,4.434,0,0,1-3.261-1.217,4.761,4.761,0,0,1-1.327-3.3Zm2.962.185a3.538,3.538,0,0,0,.413,1.934,1.376,1.376,0,0,0,1.222.615q1.582,0,1.617-2.435v-.3q0-2.558-1.635-2.558-1.485,0-1.608,2.206ZM318.05,17V9.547h-1.38V7.49h1.38V7.174A3.631,3.631,0,0,1,319.3,4.265a4.987,4.987,0,0,1,3.243-.949,11.509,11.509,0,0,1,3.094.51l-.4,2.338-.492-.132a7.832,7.832,0,0,0-2.021-.255q-1.7,0-1.7,1.547V7.49h1.863V9.547h-1.863V17ZM327,17h-2.979V7.49H327Zm4.526-9.51.1,1.116a3.225,3.225,0,0,1,2.716-1.292,2.713,2.713,0,0,1,2.219.888,4.226,4.226,0,0,1,.76,2.672V17h-2.971V11a1.6,1.6,0,0,0-.29-1.059A1.342,1.342,0,0,0,333,9.6a1.413,1.413,0,0,0-1.292.686V17h-2.962V7.49ZM344.312,17a3.344,3.344,0,0,1-.281-.853,2.754,2.754,0,0,1-2.285,1.028,3.374,3.374,0,0,1-2.285-.813,2.588,2.588,0,0,1-.94-2.043,2.66,2.66,0,0,1,1.143-2.338,5.821,5.821,0,0,1,3.322-.791h.914v-.5q0-1.316-1.134-1.316a.927.927,0,0,0-1.055,1.042h-2.962a2.655,2.655,0,0,1,1.173-2.239,4.931,4.931,0,0,1,2.993-.86,4.323,4.323,0,0,1,2.874.888,3.086,3.086,0,0,1,1.081,2.435v4.21a4.311,4.311,0,0,0,.4,2V17Zm-1.854-1.934a1.652,1.652,0,0,0,.918-.237,1.487,1.487,0,0,0,.523-.536V12.772h-.861q-1.547,0-1.547,1.389a.848.848,0,0,0,.272.655A.986.986,0,0,0,342.457,15.066ZM351.633,17h-2.971V3.5h2.971Z" transform="translate(849.667 2080)" fill="#6e40fb"/>
    <path id="Trazado_118180" data-name="Trazado 118180" d="M788.935,231.652l198.982-.717c.013-.906.034-1.809.034-2.717A194.444,194.444,0,0,0,931.194,90.673l-142.259,140.8Z" transform="translate(248.049 2092.107)" fill="#f6f6f6"/>
    <path id="Trazado_118181" data-name="Trazado 118181" d="M926.181,73.366A194.454,194.454,0,0,0,787.875,15.848c-1.561,0-3.116.023-4.668.059l.715,198.254Z" transform="translate(248.987 2104.369)" fill="#f6f6f6"/>
    <path id="Trazado_118182" data-name="Trazado 118182" d="M750.37,265.737,615.6,399.12a194.435,194.435,0,0,0,135.7,58.15l-.69-191.289Z" transform="translate(276.452 2063.42)" fill="#f6f6f6"/>
    <path id="Trazado_118183" data-name="Trazado 118183" d="M783.9,457.147c1.086.018,2.171.041,3.262.041a194.386,194.386,0,0,0,134.027-53.345L783.207,265.858Z" transform="translate(248.987 2063.4)" fill="#f6f6f6"/>
    <path id="Trazado_118184" data-name="Trazado 118184" d="M987.938,263.64l-198.983.717,0,.3L926.935,402.642A194.494,194.494,0,0,0,987.938,263.64Z" transform="translate(248.046 2063.764)" fill="#f6f6f6"/>
    <path id="Trazado_118185" data-name="Trazado 118185" d="M749.888,214.211l.186-.184-.714-198.254A194.491,194.491,0,0,0,612.316,76.744L749.777,214.212Z" transform="translate(276.99 2104.381)" fill="#f6f6f6"/>
    <path id="Trazado_118186" data-name="Trazado 118186" d="M597.93,92.8a194.385,194.385,0,0,0-53.352,134.033c0,1.378.023,2.751.052,4.122l190.762-.687Z" transform="translate(288.091 2091.76)" fill="#f6f6f6"/>
    <path id="Trazado_118187" data-name="Trazado 118187" d="M735.338,261.134l-190.762.687a194.4,194.4,0,0,0,56.047,132.751L735.392,261.189Z" transform="translate(288.091 2064.174)" fill="#f6f6f6"/>
    <path id="Trazado_836279" data-name="Trazado 836279" d="M81.814,0A81.814,81.814,0,1,1,0,81.814,81.814,81.814,0,0,1,81.814,0Z" transform="translate(950.381 2239.289)" fill="#1e5af9"/>
    <path id="Trazado_836280" data-name="Trazado 836280" d="M-45.117,0V-11.375h3.5a5.315,5.315,0,0,1,2.684.676,4.712,4.712,0,0,1,1.848,1.922,5.928,5.928,0,0,1,.664,2.832v.523a5.945,5.945,0,0,1-.652,2.82,4.672,4.672,0,0,1-1.84,1.914A5.355,5.355,0,0,1-41.594,0Zm2.344-9.477v7.594h1.133a2.545,2.545,0,0,0,2.1-.9,4.06,4.06,0,0,0,.742-2.57v-.6a4.124,4.124,0,0,0-.719-2.629,2.537,2.537,0,0,0-2.1-.895ZM-32.484,0H-34.75V-8.453h2.266Zm-2.4-10.641a1.112,1.112,0,0,1,.34-.836,1.277,1.277,0,0,1,.926-.328,1.28,1.28,0,0,1,.922.328,1.105,1.105,0,0,1,.344.836A1.108,1.108,0,0,1-32.7-9.8a1.283,1.283,0,0,1-.918.328,1.283,1.283,0,0,1-.918-.328A1.108,1.108,0,0,1-34.883-10.641Zm8.836,8.3a.727.727,0,0,0-.41-.652,4.659,4.659,0,0,0-1.316-.426q-3.016-.633-3.016-2.562a2.323,2.323,0,0,1,.934-1.879,3.766,3.766,0,0,1,2.441-.754,4.053,4.053,0,0,1,2.574.758,2.388,2.388,0,0,1,.965,1.969h-2.258a1.092,1.092,0,0,0-.312-.8A1.322,1.322,0,0,0-27.422-7a1.351,1.351,0,0,0-.883.258.814.814,0,0,0-.312.656.7.7,0,0,0,.355.605,3.657,3.657,0,0,0,1.2.4,9.8,9.8,0,0,1,1.422.379A2.336,2.336,0,0,1-23.852-2.43a2.2,2.2,0,0,1-.992,1.871,4.28,4.28,0,0,1-2.562.715,4.47,4.47,0,0,1-1.887-.379,3.166,3.166,0,0,1-1.293-1.039,2.414,2.414,0,0,1-.469-1.426h2.141a1.179,1.179,0,0,0,.445.922,1.766,1.766,0,0,0,1.109.32,1.635,1.635,0,0,0,.98-.246A.766.766,0,0,0-26.047-2.336Zm11.258-1.812a5.07,5.07,0,0,1-.887,3.129A2.843,2.843,0,0,1-18.07.156a2.633,2.633,0,0,1-2.07-.891V3.25H-22.4v-11.7H-20.3l.078.828a2.654,2.654,0,0,1,2.141-.984,2.862,2.862,0,0,1,2.43,1.156,5.207,5.207,0,0,1,.867,3.188Zm-2.258-.172a3.345,3.345,0,0,0-.418-1.826,1.36,1.36,0,0,0-1.215-.643,1.478,1.478,0,0,0-1.461.815V-2.5a1.5,1.5,0,0,0,1.477.839Q-17.047-1.664-17.047-4.321Zm3.3.016a5.013,5.013,0,0,1,.484-2.242A3.546,3.546,0,0,1-11.863-8.07,4.069,4.069,0,0,1-9.75-8.609,3.849,3.849,0,0,1-6.957-7.562,4.2,4.2,0,0,1-5.75-4.719l.016.578A4.418,4.418,0,0,1-6.82-1.02,3.775,3.775,0,0,1-9.734.156a3.793,3.793,0,0,1-2.918-1.172A4.5,4.5,0,0,1-13.742-4.2Zm2.258.16A3.16,3.16,0,0,0-11.031-2.3a1.5,1.5,0,0,0,1.3.638,1.5,1.5,0,0,0,1.281-.63,3.457,3.457,0,0,0,.461-2.015A3.128,3.128,0,0,0-8.453-6.14a1.5,1.5,0,0,0-1.3-.649,1.474,1.474,0,0,0-1.281.646A3.516,3.516,0,0,0-11.484-4.144ZM.234-2.336a.727.727,0,0,0-.41-.652,4.659,4.659,0,0,0-1.316-.426q-3.016-.633-3.016-2.562a2.323,2.323,0,0,1,.934-1.879,3.766,3.766,0,0,1,2.441-.754,4.053,4.053,0,0,1,2.574.758,2.388,2.388,0,0,1,.965,1.969H.148a1.092,1.092,0,0,0-.312-.8A1.322,1.322,0,0,0-1.141-7a1.351,1.351,0,0,0-.883.258.814.814,0,0,0-.312.656.7.7,0,0,0,.355.605,3.657,3.657,0,0,0,1.2.4A9.8,9.8,0,0,1,.641-4.7,2.336,2.336,0,0,1,2.43-2.43,2.2,2.2,0,0,1,1.438-.559,4.28,4.28,0,0,1-1.125.156,4.47,4.47,0,0,1-3.012-.223,3.166,3.166,0,0,1-4.3-1.262a2.414,2.414,0,0,1-.469-1.426h2.141a1.179,1.179,0,0,0,.445.922,1.766,1.766,0,0,0,1.109.32A1.635,1.635,0,0,0-.1-1.691.766.766,0,0,0,.234-2.336ZM6.266,0H4V-8.453H6.266Zm-2.4-10.641a1.112,1.112,0,0,1,.34-.836,1.277,1.277,0,0,1,.926-.328,1.28,1.28,0,0,1,.922.328,1.105,1.105,0,0,1,.344.836,1.108,1.108,0,0,1-.348.844,1.283,1.283,0,0,1-.918.328A1.283,1.283,0,0,1,4.215-9.8,1.108,1.108,0,0,1,3.867-10.641Zm6.961.109v2.078h1.445V-6.8H10.828v4.219a1.007,1.007,0,0,0,.18.672.9.9,0,0,0,.688.2,3.6,3.6,0,0,0,.664-.055V-.047a4.648,4.648,0,0,1-1.367.2,2.156,2.156,0,0,1-2.422-2.4V-6.8H7.336V-8.453H8.57v-2.078ZM15.914,0H13.648V-8.453h2.266Zm-2.4-10.641a1.112,1.112,0,0,1,.34-.836,1.277,1.277,0,0,1,.926-.328,1.28,1.28,0,0,1,.922.328,1.105,1.105,0,0,1,.344.836A1.108,1.108,0,0,1,15.7-9.8a1.283,1.283,0,0,1-.918.328,1.283,1.283,0,0,1-.918-.328A1.108,1.108,0,0,1,13.516-10.641Zm7.422,7.883,1.57-5.7h2.359L22.016,0H19.859L17.008-8.453h2.359ZM25.391-4.3a5.013,5.013,0,0,1,.484-2.242A3.546,3.546,0,0,1,27.27-8.07a4.069,4.069,0,0,1,2.113-.539,3.849,3.849,0,0,1,2.793,1.047,4.2,4.2,0,0,1,1.207,2.844l.016.578A4.418,4.418,0,0,1,32.313-1.02,3.775,3.775,0,0,1,29.4.156,3.793,3.793,0,0,1,26.48-1.016,4.5,4.5,0,0,1,25.391-4.2Zm2.258.16A3.16,3.16,0,0,0,28.1-2.3a1.5,1.5,0,0,0,1.3.638,1.5,1.5,0,0,0,1.281-.63,3.457,3.457,0,0,0,.461-2.015A3.128,3.128,0,0,0,30.68-6.14a1.5,1.5,0,0,0-1.3-.649,1.474,1.474,0,0,0-1.281.646A3.516,3.516,0,0,0,27.648-4.144ZM39.367-2.336a.727.727,0,0,0-.41-.652,4.659,4.659,0,0,0-1.316-.426q-3.016-.633-3.016-2.562a2.323,2.323,0,0,1,.934-1.879A3.766,3.766,0,0,1,38-8.609a4.053,4.053,0,0,1,2.574.758,2.388,2.388,0,0,1,.965,1.969H39.281a1.092,1.092,0,0,0-.312-.8A1.322,1.322,0,0,0,37.992-7a1.351,1.351,0,0,0-.883.258.814.814,0,0,0-.312.656.7.7,0,0,0,.355.605,3.657,3.657,0,0,0,1.2.4,9.8,9.8,0,0,1,1.422.379A2.336,2.336,0,0,1,41.563-2.43,2.2,2.2,0,0,1,40.57-.559a4.28,4.28,0,0,1-2.562.715,4.47,4.47,0,0,1-1.887-.379,3.166,3.166,0,0,1-1.293-1.039,2.414,2.414,0,0,1-.469-1.426H36.5a1.179,1.179,0,0,0,.445.922,1.766,1.766,0,0,0,1.109.32,1.635,1.635,0,0,0,.98-.246A.766.766,0,0,0,39.367-2.336Zm-82.625,10.8v2.078h1.445V12.2h-1.445v4.219a1.007,1.007,0,0,0,.18.672.9.9,0,0,0,.688.2,3.6,3.6,0,0,0,.664-.055v1.711a4.648,4.648,0,0,1-1.367.2,2.156,2.156,0,0,1-2.422-2.4V12.2H-46.75V10.547h1.234V8.469Zm6.594,10.688a4.15,4.15,0,0,1-3.027-1.141,4.054,4.054,0,0,1-1.168-3.039v-.219a5.106,5.106,0,0,1,.492-2.277,3.612,3.612,0,0,1,1.395-1.547,3.914,3.914,0,0,1,2.059-.543,3.508,3.508,0,0,1,2.73,1.094,4.444,4.444,0,0,1,1,3.1v.922H-38.57a2.1,2.1,0,0,0,.66,1.328,2,2,0,0,0,1.395.5,2.437,2.437,0,0,0,2.039-.945l1.109,1.242a3.389,3.389,0,0,1-1.375,1.121A4.511,4.511,0,0,1-36.664,19.156Zm-.258-6.945a1.411,1.411,0,0,0-1.09.455,2.357,2.357,0,0,0-.535,1.3h3.141v-.181a1.681,1.681,0,0,0-.406-1.165A1.456,1.456,0,0,0-36.922,12.211Zm9.766.453a6.134,6.134,0,0,0-.812-.062,1.654,1.654,0,0,0-1.68.867V19h-2.258V10.547h2.133l.063,1.008a2.092,2.092,0,0,1,1.883-1.164,2.366,2.366,0,0,1,.7.1Zm3.2-2.117.07.945a2.971,2.971,0,0,1,2.43-1.1,2.255,2.255,0,0,1,2.242,1.289,2.9,2.9,0,0,1,2.539-1.289,2.521,2.521,0,0,1,2.047.8,3.681,3.681,0,0,1,.672,2.41V19h-2.266V13.6a1.616,1.616,0,0,0-.281-1.053,1.245,1.245,0,0,0-.992-.333,1.409,1.409,0,0,0-1.406.971L-18.891,19h-2.258V13.6a1.6,1.6,0,0,0-.289-1.065,1.257,1.257,0,0,0-.984-.329,1.463,1.463,0,0,0-1.391.8V19H-26.07V10.547ZM-9.836,19H-12.1V10.547h2.266Zm-2.4-10.641a1.112,1.112,0,0,1,.34-.836,1.277,1.277,0,0,1,.926-.328,1.28,1.28,0,0,1,.922.328,1.105,1.105,0,0,1,.344.836,1.108,1.108,0,0,1-.348.844,1.283,1.283,0,0,1-.918.328,1.283,1.283,0,0,1-.918-.328A1.108,1.108,0,0,1-12.234,8.359ZM-5.9,10.547l.07.977A2.951,2.951,0,0,1-3.4,10.391a2.453,2.453,0,0,1,2,.789,3.682,3.682,0,0,1,.672,2.359V19H-2.984V13.581A1.47,1.47,0,0,0-3.3,12.536a1.4,1.4,0,0,0-1.039-.325,1.553,1.553,0,0,0-1.43.814V19H-8.023V10.547ZM5.883,19a2.507,2.507,0,0,1-.227-.758,2.732,2.732,0,0,1-2.133.914,3,3,0,0,1-2.059-.719,2.312,2.312,0,0,1-.816-1.812,2.389,2.389,0,0,1,1-2.062,4.915,4.915,0,0,1,2.879-.727H5.563v-.484a1.393,1.393,0,0,0-.3-.937,1.183,1.183,0,0,0-.949-.352,1.345,1.345,0,0,0-.895.273.929.929,0,0,0-.324.75H.836a2.268,2.268,0,0,1,.453-1.359,3,3,0,0,1,1.281-.98,4.669,4.669,0,0,1,1.859-.355,3.689,3.689,0,0,1,2.48.785,2.747,2.747,0,0,1,.918,2.207v3.664a4.041,4.041,0,0,0,.336,1.82V19ZM4.016,17.43a1.945,1.945,0,0,0,.922-.223,1.462,1.462,0,0,0,.625-.6V15.156H4.719q-1.7,0-1.8,1.172l-.008.133a.9.9,0,0,0,.3.7A1.153,1.153,0,0,0,4.016,17.43ZM11.945,19H9.68V7h2.266Zm5.75.156a4.15,4.15,0,0,1-3.027-1.141A4.054,4.054,0,0,1,13.5,14.977v-.219a5.106,5.106,0,0,1,.492-2.277,3.612,3.612,0,0,1,1.395-1.547,3.914,3.914,0,0,1,2.059-.543,3.508,3.508,0,0,1,2.73,1.094,4.444,4.444,0,0,1,1,3.1v.922H15.789a2.1,2.1,0,0,0,.66,1.328,2,2,0,0,0,1.395.5,2.437,2.437,0,0,0,2.039-.945l1.109,1.242a3.389,3.389,0,0,1-1.375,1.121A4.511,4.511,0,0,1,17.7,19.156Zm-.258-6.945a1.411,1.411,0,0,0-1.09.455,2.357,2.357,0,0,0-.535,1.3h3.141v-.181a1.681,1.681,0,0,0-.406-1.165A1.456,1.456,0,0,0,17.438,12.211Zm9.594,4.453a.727.727,0,0,0-.41-.652,4.659,4.659,0,0,0-1.316-.426q-3.016-.633-3.016-2.562a2.323,2.323,0,0,1,.934-1.879,3.766,3.766,0,0,1,2.441-.754,4.053,4.053,0,0,1,2.574.758,2.388,2.388,0,0,1,.965,1.969H26.945a1.092,1.092,0,0,0-.312-.8A1.322,1.322,0,0,0,25.656,12a1.351,1.351,0,0,0-.883.258.814.814,0,0,0-.312.656.7.7,0,0,0,.355.605,3.657,3.657,0,0,0,1.2.4,9.8,9.8,0,0,1,1.422.379,2.336,2.336,0,0,1,1.789,2.273,2.2,2.2,0,0,1-.992,1.871,4.28,4.28,0,0,1-2.562.715,4.47,4.47,0,0,1-1.887-.379,3.166,3.166,0,0,1-1.293-1.039,2.414,2.414,0,0,1-.469-1.426h2.141a1.179,1.179,0,0,0,.445.922,1.766,1.766,0,0,0,1.109.32,1.635,1.635,0,0,0,.98-.246A.766.766,0,0,0,27.031,16.664ZM34.313,14.7a5.013,5.013,0,0,1,.484-2.242,3.546,3.546,0,0,1,1.395-1.523,4.069,4.069,0,0,1,2.113-.539A3.849,3.849,0,0,1,41.1,11.438,4.2,4.2,0,0,1,42.3,14.281l.016.578a4.418,4.418,0,0,1-1.086,3.121,4.209,4.209,0,0,1-5.832,0,4.5,4.5,0,0,1-1.09-3.187Zm2.258.16a3.16,3.16,0,0,0,.453,1.843,1.628,1.628,0,0,0,2.578.008,3.457,3.457,0,0,0,.461-2.015A3.128,3.128,0,0,0,39.6,12.86a1.5,1.5,0,0,0-1.3-.649,1.474,1.474,0,0,0-1.281.646A3.516,3.516,0,0,0,36.57,14.856ZM-54.977,33.711a5.094,5.094,0,0,1,.887-3.148,2.877,2.877,0,0,1,2.426-1.172,2.589,2.589,0,0,1,2.039.922V26h2.266V38H-49.4l-.109-.9a2.657,2.657,0,0,1-2.172,1.055,2.869,2.869,0,0,1-2.395-1.176A5.258,5.258,0,0,1-54.977,33.711Zm2.258.161A3.355,3.355,0,0,0-52.3,35.7a1.348,1.348,0,0,0,1.2.636,1.51,1.51,0,0,0,1.477-.887V32.1a1.489,1.489,0,0,0-1.461-.887Q-52.719,31.211-52.719,33.872Zm11,4.285a4.15,4.15,0,0,1-3.027-1.141,4.054,4.054,0,0,1-1.168-3.039v-.219a5.106,5.106,0,0,1,.492-2.277,3.612,3.612,0,0,1,1.395-1.547,3.914,3.914,0,0,1,2.059-.543,3.508,3.508,0,0,1,2.73,1.094,4.444,4.444,0,0,1,1,3.1v.922h-5.383a2.1,2.1,0,0,0,.66,1.328,2,2,0,0,0,1.395.5,2.437,2.437,0,0,0,2.039-.945l1.109,1.242A3.389,3.389,0,0,1-39.8,37.754,4.511,4.511,0,0,1-41.719,38.156Zm-.258-6.945a1.411,1.411,0,0,0-1.09.455,2.357,2.357,0,0,0-.535,1.3h3.141v-.181a1.681,1.681,0,0,0-.406-1.165A1.456,1.456,0,0,0-41.977,31.211Zm14.063,5.93a2.831,2.831,0,0,1-2.312,1.016,2.67,2.67,0,0,1-2.074-.781,3.335,3.335,0,0,1-.73-2.289V29.547h2.258v5.467q0,1.322,1.2,1.322a1.63,1.63,0,0,0,1.578-.8V29.547h2.266V38h-2.125Zm8.469-1.477a.727.727,0,0,0-.41-.652,4.659,4.659,0,0,0-1.316-.426q-3.016-.633-3.016-2.562a2.323,2.323,0,0,1,.934-1.879,3.766,3.766,0,0,1,2.441-.754,4.053,4.053,0,0,1,2.574.758,2.388,2.388,0,0,1,.965,1.969h-2.258a1.092,1.092,0,0,0-.312-.8A1.322,1.322,0,0,0-20.82,31a1.351,1.351,0,0,0-.883.258.814.814,0,0,0-.312.656.7.7,0,0,0,.355.605,3.657,3.657,0,0,0,1.2.4,9.8,9.8,0,0,1,1.422.379A2.336,2.336,0,0,1-17.25,35.57a2.2,2.2,0,0,1-.992,1.871,4.28,4.28,0,0,1-2.562.715,4.47,4.47,0,0,1-1.887-.379,3.166,3.166,0,0,1-1.293-1.039,2.414,2.414,0,0,1-.469-1.426h2.141a1.179,1.179,0,0,0,.445.922,1.766,1.766,0,0,0,1.109.32,1.635,1.635,0,0,0,.98-.246A.766.766,0,0,0-19.445,35.664Zm8.711,1.477a2.831,2.831,0,0,1-2.312,1.016,2.67,2.67,0,0,1-2.074-.781,3.335,3.335,0,0,1-.73-2.289V29.547h2.258v5.467q0,1.322,1.2,1.322a1.63,1.63,0,0,0,1.578-.8V29.547h2.266V38h-2.125ZM-1.945,38a2.507,2.507,0,0,1-.227-.758,2.732,2.732,0,0,1-2.133.914,3,3,0,0,1-2.059-.719,2.312,2.312,0,0,1-.816-1.812,2.389,2.389,0,0,1,1-2.062A4.915,4.915,0,0,1-3.3,32.836h1.039v-.484a1.393,1.393,0,0,0-.3-.937,1.183,1.183,0,0,0-.949-.352,1.345,1.345,0,0,0-.895.273.929.929,0,0,0-.324.75H-6.992a2.268,2.268,0,0,1,.453-1.359,3,3,0,0,1,1.281-.98A4.669,4.669,0,0,1-3.4,29.391a3.689,3.689,0,0,1,2.48.785A2.747,2.747,0,0,1,0,32.383v3.664a4.041,4.041,0,0,0,.336,1.82V38Zm-1.867-1.57a1.945,1.945,0,0,0,.922-.223,1.462,1.462,0,0,0,.625-.6V34.156h-.844q-1.7,0-1.8,1.172l-.008.133a.9.9,0,0,0,.3.7A1.153,1.153,0,0,0-3.812,36.43Zm10.3-4.766a6.134,6.134,0,0,0-.812-.062,1.654,1.654,0,0,0-1.68.867V38H1.734V29.547H3.867l.063,1.008a2.092,2.092,0,0,1,1.883-1.164,2.366,2.366,0,0,1,.7.1ZM9.953,38H7.688V29.547H9.953Zm-2.4-10.641a1.112,1.112,0,0,1,.34-.836A1.277,1.277,0,0,1,8.82,26.2a1.28,1.28,0,0,1,.922.328,1.193,1.193,0,0,1,0,1.68,1.283,1.283,0,0,1-.918.328A1.283,1.283,0,0,1,7.9,28.2,1.108,1.108,0,0,1,7.555,27.359ZM11.461,33.7a5.013,5.013,0,0,1,.484-2.242A3.546,3.546,0,0,1,13.34,29.93a4.069,4.069,0,0,1,2.113-.539,3.849,3.849,0,0,1,2.793,1.047,4.2,4.2,0,0,1,1.207,2.844l.016.578a4.418,4.418,0,0,1-1.086,3.121,3.775,3.775,0,0,1-2.914,1.176,3.793,3.793,0,0,1-2.918-1.172,4.5,4.5,0,0,1-1.09-3.187Zm2.258.16a3.16,3.16,0,0,0,.453,1.843,1.628,1.628,0,0,0,2.578.008,3.457,3.457,0,0,0,.461-2.015,3.128,3.128,0,0,0-.461-1.831,1.5,1.5,0,0,0-1.3-.649,1.474,1.474,0,0,0-1.281.646A3.516,3.516,0,0,0,13.719,33.856ZM25.391,38V31.2H24.133V29.547h1.258v-.391a3.17,3.17,0,0,1,.98-2.457,3.945,3.945,0,0,1,2.723-.863,9.031,9.031,0,0,1,2.563.461l-.328,1.867a10,10,0,0,0-1.187-.293,5.834,5.834,0,0,0-.906-.066q-1.578,0-1.578,1.4v.344H29.32V31.2H27.656V38Zm7.32,0H30.445V29.547h2.266Zm3.945-8.453.07.977a2.951,2.951,0,0,1,2.43-1.133,2.453,2.453,0,0,1,2,.789,3.682,3.682,0,0,1,.672,2.359V38H39.57V32.581a1.47,1.47,0,0,0-.312-1.045,1.4,1.4,0,0,0-1.039-.325,1.553,1.553,0,0,0-1.43.814V38H34.531V29.547ZM48.438,38a2.507,2.507,0,0,1-.227-.758,2.732,2.732,0,0,1-2.133.914,3,3,0,0,1-2.059-.719,2.312,2.312,0,0,1-.816-1.812,2.389,2.389,0,0,1,1-2.062,4.915,4.915,0,0,1,2.879-.727h1.039v-.484a1.393,1.393,0,0,0-.3-.937,1.183,1.183,0,0,0-.949-.352,1.345,1.345,0,0,0-.895.273.929.929,0,0,0-.324.75H43.391a2.268,2.268,0,0,1,.453-1.359,3,3,0,0,1,1.281-.98,4.669,4.669,0,0,1,1.859-.355,3.689,3.689,0,0,1,2.48.785,2.747,2.747,0,0,1,.918,2.207v3.664a4.041,4.041,0,0,0,.336,1.82V38ZM46.57,36.43a1.945,1.945,0,0,0,.922-.223,1.462,1.462,0,0,0,.625-.6V34.156h-.844q-1.7,0-1.8,1.172l-.008.133a.9.9,0,0,0,.3.7A1.153,1.153,0,0,0,46.57,36.43ZM54.5,38H52.234V26H54.5Z" transform="translate(1032.01 2308.73)" fill="#fff"/>
    <path id="Trazado_836281" data-name="Trazado 836281" d="M3.644-.832a1.692,1.692,0,0,0,1.1-.381,1.34,1.34,0,0,0,.521-.952H6.373a2.13,2.13,0,0,1-.406,1.124,2.676,2.676,0,0,1-1,.851A2.885,2.885,0,0,1,3.644.127,2.829,2.829,0,0,1,1.412-.809,3.729,3.729,0,0,1,.584-3.371v-.2A4.135,4.135,0,0,1,.952-5.351,2.8,2.8,0,0,1,2.009-6.563,3,3,0,0,1,3.637-7a2.755,2.755,0,0,1,1.92.692,2.473,2.473,0,0,1,.816,1.8H5.262a1.618,1.618,0,0,0-.5-1.095,1.57,1.57,0,0,0-1.12-.428,1.644,1.644,0,0,0-1.387.644,3.026,3.026,0,0,0-.492,1.863V-3.3a2.965,2.965,0,0,0,.489,1.828A1.651,1.651,0,0,0,3.644-.832ZM7.382-3.5a4.057,4.057,0,0,1,.4-1.815,2.96,2.96,0,0,1,1.1-1.244A3.007,3.007,0,0,1,10.5-7a2.9,2.9,0,0,1,2.269.971,3.736,3.736,0,0,1,.866,2.583v.083a4.092,4.092,0,0,1-.384,1.8,2.916,2.916,0,0,1-1.1,1.241,3.041,3.041,0,0,1-1.641.444A2.889,2.889,0,0,1,8.249-.844a3.718,3.718,0,0,1-.866-2.571Zm1.181.14a2.938,2.938,0,0,0,.53,1.834,1.7,1.7,0,0,0,1.419.692,1.686,1.686,0,0,0,1.422-.7A3.213,3.213,0,0,0,12.46-3.5a2.933,2.933,0,0,0-.536-1.831,1.705,1.705,0,0,0-1.425-.7,1.686,1.686,0,0,0-1.4.692A3.189,3.189,0,0,0,8.563-3.358Zm7.649-3.51.032.762A2.536,2.536,0,0,1,18.281-7a1.964,1.964,0,0,1,1.961,1.1,2.6,2.6,0,0,1,.892-.8,2.634,2.634,0,0,1,1.3-.3q2.26,0,2.3,2.393V0H23.556V-4.532a1.577,1.577,0,0,0-.336-1.1A1.482,1.482,0,0,0,22.09-6,1.557,1.557,0,0,0,21-5.608a1.584,1.584,0,0,0-.5,1.051V0H19.322V-4.5A1.31,1.31,0,0,0,17.856-6a1.571,1.571,0,0,0-1.581.984V0H15.1V-6.868ZM32.3-3.358a4.113,4.113,0,0,1-.717,2.526,2.3,2.3,0,0,1-1.942.958,2.519,2.519,0,0,1-1.968-.793V2.641H26.5V-6.868h1.073l.057.762A2.419,2.419,0,0,1,29.625-7a2.342,2.342,0,0,1,1.958.933,4.157,4.157,0,0,1,.72,2.6Zm-1.174-.133a3.035,3.035,0,0,0-.5-1.834A1.6,1.6,0,0,0,29.275-6a1.726,1.726,0,0,0-1.6.946v3.282a1.73,1.73,0,0,0,1.612.939,1.587,1.587,0,0,0,1.343-.67A3.312,3.312,0,0,0,31.129-3.491ZM38.035-.679a2.494,2.494,0,0,1-2.012.806A2.135,2.135,0,0,1,34.35-.511,2.761,2.761,0,0,1,33.77-2.4V-6.868h1.174v4.437q0,1.562,1.27,1.562a1.758,1.758,0,0,0,1.79-1v-5h1.174V0H38.061Zm4.52-7.852v1.663h1.282v.908H42.555V-1.7a.953.953,0,0,0,.171.62.721.721,0,0,0,.584.207,2.843,2.843,0,0,0,.559-.076V0a3.424,3.424,0,0,1-.9.126A1.462,1.462,0,0,1,41.78-.349a2.045,2.045,0,0,1-.4-1.352V-5.96H40.13v-.908h1.25V-8.531ZM49.448,0a2.467,2.467,0,0,1-.165-.724,2.62,2.62,0,0,1-1.955.851,2.424,2.424,0,0,1-1.666-.574A1.859,1.859,0,0,1,45.011-1.9a1.942,1.942,0,0,1,.816-1.666,3.846,3.846,0,0,1,2.295-.594h1.143V-4.7a1.319,1.319,0,0,0-.368-.981,1.48,1.48,0,0,0-1.085-.365,1.712,1.712,0,0,0-1.054.317.935.935,0,0,0-.425.768H45.151a1.621,1.621,0,0,1,.365-.993,2.491,2.491,0,0,1,.99-.759A3.331,3.331,0,0,1,47.88-7a2.715,2.715,0,0,1,1.86.594,2.141,2.141,0,0,1,.7,1.635v3.161A3.865,3.865,0,0,0,50.68-.1V0ZM47.5-.9a2.064,2.064,0,0,0,1.047-.286,1.728,1.728,0,0,0,.717-.743V-3.333h-.92q-2.158,0-2.158,1.263a1.069,1.069,0,0,0,.368.863A1.415,1.415,0,0,0,47.5-.9Zm4.494-2.6a4.023,4.023,0,0,1,.749-2.542A2.369,2.369,0,0,1,54.7-7a2.382,2.382,0,0,1,1.911.825V-9.75h1.174V0H56.71l-.057-.736a2.391,2.391,0,0,1-1.961.863,2.346,2.346,0,0,1-1.946-.978A4.069,4.069,0,0,1,51.994-3.4Zm1.174.133A3.046,3.046,0,0,0,53.65-1.53a1.56,1.56,0,0,0,1.333.66,1.713,1.713,0,0,0,1.631-1V-5.027A1.726,1.726,0,0,0,55-6a1.567,1.567,0,0,0-1.346.667A3.354,3.354,0,0,0,53.168-3.358ZM59.3-3.5a4.057,4.057,0,0,1,.4-1.815,2.96,2.96,0,0,1,1.1-1.244A3.007,3.007,0,0,1,62.417-7a2.9,2.9,0,0,1,2.269.971,3.736,3.736,0,0,1,.866,2.583v.083a4.092,4.092,0,0,1-.384,1.8,2.916,2.916,0,0,1-1.1,1.241,3.041,3.041,0,0,1-1.641.444,2.889,2.889,0,0,1-2.263-.971A3.718,3.718,0,0,1,59.3-3.415Zm1.181.14a2.938,2.938,0,0,0,.53,1.834,1.7,1.7,0,0,0,1.419.692,1.686,1.686,0,0,0,1.422-.7A3.213,3.213,0,0,0,64.378-3.5a2.933,2.933,0,0,0-.536-1.831,1.705,1.705,0,0,0-1.425-.7,1.686,1.686,0,0,0-1.4.692A3.189,3.189,0,0,0,60.48-3.358Zm9.864-2.457a3.519,3.519,0,0,0-.578-.044,1.547,1.547,0,0,0-1.568.984V0H67.025V-6.868h1.143l.019.793A1.829,1.829,0,0,1,69.824-7a1.2,1.2,0,0,1,.521.089Z" transform="translate(1047.984 2208.473)" fill="#12263f"/>
    <path id="Trazado_836282" data-name="Trazado 836282" d="M2.482-8.531v1.663H3.764v.908H2.482V-1.7a.953.953,0,0,0,.171.62.721.721,0,0,0,.584.207A2.843,2.843,0,0,0,3.8-.946V0a3.424,3.424,0,0,1-.9.126A1.462,1.462,0,0,1,1.708-.349a2.045,2.045,0,0,1-.4-1.352V-5.96H.057v-.908h1.25V-8.531ZM9.375,0A2.467,2.467,0,0,1,9.21-.724,2.62,2.62,0,0,1,7.255.127,2.424,2.424,0,0,1,5.589-.448,1.859,1.859,0,0,1,4.938-1.9a1.942,1.942,0,0,1,.816-1.666,3.846,3.846,0,0,1,2.295-.594H9.191V-4.7a1.319,1.319,0,0,0-.368-.981,1.48,1.48,0,0,0-1.085-.365,1.712,1.712,0,0,0-1.054.317.935.935,0,0,0-.425.768H5.078a1.621,1.621,0,0,1,.365-.993,2.491,2.491,0,0,1,.99-.759A3.331,3.331,0,0,1,7.808-7a2.715,2.715,0,0,1,1.86.594,2.141,2.141,0,0,1,.7,1.635v3.161a3.865,3.865,0,0,0,.241,1.5V0ZM7.427-.9a2.064,2.064,0,0,0,1.047-.286,1.728,1.728,0,0,0,.717-.743V-3.333h-.92q-2.158,0-2.158,1.263a1.069,1.069,0,0,0,.368.863A1.415,1.415,0,0,0,7.427-.9ZM18.021-3.358A4.084,4.084,0,0,1,17.3-.828a2.312,2.312,0,0,1-1.942.955,2.394,2.394,0,0,1-2.012-.92L13.286,0H12.207V-9.75h1.174v3.637A2.381,2.381,0,0,1,15.342-7a2.326,2.326,0,0,1,1.965.946,4.206,4.206,0,0,1,.714,2.59Zm-1.174-.133a3.173,3.173,0,0,0-.463-1.854A1.534,1.534,0,0,0,15.05-6a1.724,1.724,0,0,0-1.669,1.079v2.971A1.772,1.772,0,0,0,15.063-.87a1.526,1.526,0,0,0,1.314-.654A3.375,3.375,0,0,0,16.847-3.491ZM20.776,0H19.6V-9.75h1.174ZM25.5.127A3,3,0,0,1,23.232-.79a3.4,3.4,0,0,1-.876-2.453v-.216a4.121,4.121,0,0,1,.39-1.825,3.045,3.045,0,0,1,1.092-1.257A2.745,2.745,0,0,1,25.359-7a2.572,2.572,0,0,1,2.082.882,3.82,3.82,0,0,1,.743,2.526V-3.1H23.531a2.441,2.441,0,0,0,.594,1.641,1.866,1.866,0,0,0,1.444.625,2.045,2.045,0,0,0,1.054-.254,2.648,2.648,0,0,0,.755-.673l.717.559A2.884,2.884,0,0,1,25.5.127ZM25.359-6.03a1.566,1.566,0,0,0-1.193.517,2.515,2.515,0,0,0-.6,1.45h3.44v-.089a2.237,2.237,0,0,0-.482-1.387A1.475,1.475,0,0,0,25.359-6.03Zm5.776-2.5v1.663h1.282v.908H31.135V-1.7a.953.953,0,0,0,.171.62.721.721,0,0,0,.584.207,2.843,2.843,0,0,0,.559-.076V0a3.424,3.424,0,0,1-.9.126,1.462,1.462,0,0,1-1.187-.476,2.045,2.045,0,0,1-.4-1.352V-5.96H28.71v-.908h1.25V-8.531Z" transform="translate(1148.955 2303.979)" fill="#12263f"/>
    <path id="Trazado_836283" data-name="Trazado 836283" d="M2.482-8.531v1.663H3.764v.908H2.482V-1.7a.953.953,0,0,0,.171.62.721.721,0,0,0,.584.207A2.843,2.843,0,0,0,3.8-.946V0a3.424,3.424,0,0,1-.9.126A1.462,1.462,0,0,1,1.708-.349a2.045,2.045,0,0,1-.4-1.352V-5.96H.057v-.908h1.25V-8.531ZM7.985.127A3,3,0,0,1,5.713-.79a3.4,3.4,0,0,1-.876-2.453v-.216a4.121,4.121,0,0,1,.39-1.825A3.045,3.045,0,0,1,6.319-6.541,2.745,2.745,0,0,1,7.839-7a2.572,2.572,0,0,1,2.082.882,3.82,3.82,0,0,1,.743,2.526V-3.1H6.011A2.441,2.441,0,0,0,6.6-1.457a1.866,1.866,0,0,0,1.444.625A2.045,2.045,0,0,0,9.1-1.085a2.648,2.648,0,0,0,.755-.673l.717.559A2.884,2.884,0,0,1,7.985.127ZM7.839-6.03a1.566,1.566,0,0,0-1.193.517,2.515,2.515,0,0,0-.6,1.45H9.49v-.089a2.237,2.237,0,0,0-.482-1.387A1.475,1.475,0,0,0,7.839-6.03ZM13.3,0H12.124V-9.75H13.3Zm4.729.127A3,3,0,0,1,15.755-.79a3.4,3.4,0,0,1-.876-2.453v-.216a4.121,4.121,0,0,1,.39-1.825,3.045,3.045,0,0,1,1.092-1.257A2.745,2.745,0,0,1,17.881-7a2.572,2.572,0,0,1,2.082.882,3.82,3.82,0,0,1,.743,2.526V-3.1H16.053a2.441,2.441,0,0,0,.594,1.641,1.866,1.866,0,0,0,1.444.625,2.045,2.045,0,0,0,1.054-.254,2.648,2.648,0,0,0,.755-.673l.717.559A2.884,2.884,0,0,1,18.027.127ZM17.881-6.03a1.566,1.566,0,0,0-1.193.517,2.515,2.515,0,0,0-.6,1.45h3.44v-.089a2.237,2.237,0,0,0-.482-1.387A1.475,1.475,0,0,0,17.881-6.03Zm.571-3.707h1.422l-1.7,1.866-.946,0ZM22.642,0V-5.96H21.557v-.908h1.085v-.7a2.339,2.339,0,0,1,.59-1.708,2.23,2.23,0,0,1,1.669-.6,3.1,3.1,0,0,1,.806.107l-.063.946a3.373,3.373,0,0,0-.635-.057,1.146,1.146,0,0,0-.882.334,1.356,1.356,0,0,0-.311.958v.726h1.466v.908H23.816V0Zm3.625-3.5a4.057,4.057,0,0,1,.4-1.815,2.96,2.96,0,0,1,1.1-1.244A3.007,3.007,0,0,1,29.383-7a2.9,2.9,0,0,1,2.269.971,3.736,3.736,0,0,1,.866,2.583v.083a4.092,4.092,0,0,1-.384,1.8,2.916,2.916,0,0,1-1.1,1.241A3.041,3.041,0,0,1,29.4.127a2.889,2.889,0,0,1-2.263-.971,3.718,3.718,0,0,1-.866-2.571Zm1.181.14a2.938,2.938,0,0,0,.53,1.834A1.7,1.7,0,0,0,29.4-.832a1.686,1.686,0,0,0,1.422-.7A3.213,3.213,0,0,0,31.345-3.5a2.933,2.933,0,0,0-.536-1.831,1.705,1.705,0,0,0-1.425-.7,1.686,1.686,0,0,0-1.4.692A3.189,3.189,0,0,0,27.447-3.358ZM35.1-6.868,35.141-6A2.5,2.5,0,0,1,37.2-7q2.177,0,2.2,2.457V0H38.219V-4.545a1.581,1.581,0,0,0-.34-1.1A1.361,1.361,0,0,0,36.842-6a1.7,1.7,0,0,0-1,.3,2.069,2.069,0,0,0-.673.8V0H33.992V-6.868ZM40.854-3.5a4.057,4.057,0,0,1,.4-1.815,2.96,2.96,0,0,1,1.1-1.244A3.007,3.007,0,0,1,43.97-7a2.9,2.9,0,0,1,2.269.971,3.736,3.736,0,0,1,.866,2.583v.083a4.092,4.092,0,0,1-.384,1.8,2.916,2.916,0,0,1-1.1,1.241,3.041,3.041,0,0,1-1.641.444A2.889,2.889,0,0,1,41.72-.844a3.718,3.718,0,0,1-.866-2.571Zm1.181.14a2.938,2.938,0,0,0,.53,1.834,1.7,1.7,0,0,0,1.419.692,1.686,1.686,0,0,0,1.422-.7A3.213,3.213,0,0,0,45.932-3.5,2.933,2.933,0,0,0,45.4-5.329a1.705,1.705,0,0,0-1.425-.7,1.686,1.686,0,0,0-1.4.692A3.189,3.189,0,0,0,42.034-3.358ZM3.644,17.168a1.692,1.692,0,0,0,1.1-.381,1.34,1.34,0,0,0,.521-.952H6.373a2.13,2.13,0,0,1-.406,1.124,2.676,2.676,0,0,1-1,.851,2.885,2.885,0,0,1-1.323.317,2.829,2.829,0,0,1-2.231-.936,3.729,3.729,0,0,1-.828-2.561v-.2a4.135,4.135,0,0,1,.368-1.784,2.8,2.8,0,0,1,1.057-1.212A3,3,0,0,1,3.637,11a2.755,2.755,0,0,1,1.92.692,2.473,2.473,0,0,1,.816,1.8H5.262a1.618,1.618,0,0,0-.5-1.095,1.57,1.57,0,0,0-1.12-.428,1.644,1.644,0,0,0-1.387.644,3.026,3.026,0,0,0-.492,1.863V14.7a2.965,2.965,0,0,0,.489,1.828A1.651,1.651,0,0,0,3.644,17.168Zm6.9.958a3,3,0,0,1-2.272-.917A3.4,3.4,0,0,1,7.4,14.756v-.216a4.121,4.121,0,0,1,.39-1.825,3.045,3.045,0,0,1,1.092-1.257A2.745,2.745,0,0,1,10.4,11a2.572,2.572,0,0,1,2.082.882,3.82,3.82,0,0,1,.743,2.526V14.9H8.569a2.441,2.441,0,0,0,.594,1.641,1.866,1.866,0,0,0,1.444.625,2.045,2.045,0,0,0,1.054-.254,2.648,2.648,0,0,0,.755-.673l.717.559A2.884,2.884,0,0,1,10.543,18.127ZM10.4,11.97a1.566,1.566,0,0,0-1.193.517,2.515,2.515,0,0,0-.6,1.45h3.44v-.089a2.237,2.237,0,0,0-.482-1.387A1.475,1.475,0,0,0,10.4,11.97ZM15.856,18H14.682V8.25h1.174Zm6.119-.679a2.494,2.494,0,0,1-2.012.806,2.135,2.135,0,0,1-1.673-.638A2.761,2.761,0,0,1,17.71,15.6V11.132h1.174v4.437q0,1.562,1.27,1.562a1.758,1.758,0,0,0,1.79-1v-5h1.174V18H22Zm4.2.679H25V8.25h1.174ZM32.3,18a2.467,2.467,0,0,1-.165-.724,2.62,2.62,0,0,1-1.955.851,2.424,2.424,0,0,1-1.666-.574A1.859,1.859,0,0,1,27.86,16.1a1.942,1.942,0,0,1,.816-1.666,3.846,3.846,0,0,1,2.295-.594h1.143V13.3a1.319,1.319,0,0,0-.368-.981,1.48,1.48,0,0,0-1.085-.365,1.712,1.712,0,0,0-1.054.317.935.935,0,0,0-.425.768H28a1.621,1.621,0,0,1,.365-.993,2.491,2.491,0,0,1,.99-.759A3.331,3.331,0,0,1,30.729,11a2.715,2.715,0,0,1,1.86.594,2.141,2.141,0,0,1,.7,1.635v3.161a3.865,3.865,0,0,0,.241,1.5V18Zm-1.949-.9a2.064,2.064,0,0,0,1.047-.286,1.728,1.728,0,0,0,.717-.743V14.667h-.92q-2.158,0-2.158,1.263a1.069,1.069,0,0,0,.368.863A1.415,1.415,0,0,0,30.348,17.1Zm8.1-4.919a3.519,3.519,0,0,0-.578-.044,1.547,1.547,0,0,0-1.568.984V18H35.128V11.132h1.143l.019.793A1.829,1.829,0,0,1,37.927,11a1.2,1.2,0,0,1,.521.089Z" transform="translate(1143.506 2402.375)" fill="#12263f"/>
    <path id="Trazado_836284" data-name="Trazado 836284" d="M-22.049-8.531v1.663h1.282v.908h-1.282V-1.7a.953.953,0,0,0,.171.62.721.721,0,0,0,.584.207,2.843,2.843,0,0,0,.559-.076V0a3.424,3.424,0,0,1-.9.126,1.462,1.462,0,0,1-1.187-.476,2.045,2.045,0,0,1-.4-1.352V-5.96h-1.25v-.908h1.25V-8.531Zm5.5,8.658A3,3,0,0,1-18.818-.79a3.4,3.4,0,0,1-.876-2.453v-.216a4.121,4.121,0,0,1,.39-1.825,3.045,3.045,0,0,1,1.092-1.257A2.745,2.745,0,0,1-16.691-7a2.572,2.572,0,0,1,2.082.882,3.82,3.82,0,0,1,.743,2.526V-3.1h-4.653a2.441,2.441,0,0,0,.594,1.641,1.866,1.866,0,0,0,1.444.625,2.045,2.045,0,0,0,1.054-.254,2.648,2.648,0,0,0,.755-.673l.717.559A2.884,2.884,0,0,1-16.545.127Zm-.146-6.157a1.566,1.566,0,0,0-1.193.517,2.515,2.515,0,0,0-.6,1.45h3.44v-.089a2.237,2.237,0,0,0-.482-1.387A1.475,1.475,0,0,0-16.691-6.03ZM-11.232,0h-1.174V-9.75h1.174ZM-6.5.127A3,3,0,0,1-8.776-.79a3.4,3.4,0,0,1-.876-2.453v-.216a4.121,4.121,0,0,1,.39-1.825A3.045,3.045,0,0,1-8.169-6.541,2.745,2.745,0,0,1-6.649-7a2.572,2.572,0,0,1,2.082.882,3.82,3.82,0,0,1,.743,2.526V-3.1H-8.477a2.441,2.441,0,0,0,.594,1.641A1.866,1.866,0,0,0-6.44-.832a2.045,2.045,0,0,0,1.054-.254,2.648,2.648,0,0,0,.755-.673l.717.559A2.884,2.884,0,0,1-6.5.127ZM-6.649-6.03a1.566,1.566,0,0,0-1.193.517,2.515,2.515,0,0,0-.6,1.45H-5v-.089a2.237,2.237,0,0,0-.482-1.387A1.475,1.475,0,0,0-6.649-6.03ZM-.282-1.593l1.7-5.275h1.2L.156,0h-.9L-3.228-6.868h1.2ZM5.024,0H3.85V-6.868H5.024ZM3.755-8.69a.7.7,0,0,1,.175-.482.655.655,0,0,1,.517-.2.666.666,0,0,1,.521.2.694.694,0,0,1,.178.482.671.671,0,0,1-.178.476.678.678,0,0,1-.521.19.667.667,0,0,1-.517-.19A.678.678,0,0,1,3.755-8.69ZM10.9-1.822a.865.865,0,0,0-.359-.74,3.452,3.452,0,0,0-1.25-.454,5.912,5.912,0,0,1-1.416-.457A2.014,2.014,0,0,1,7.1-4.107a1.518,1.518,0,0,1-.251-.876,1.782,1.782,0,0,1,.714-1.428A2.789,2.789,0,0,1,9.391-7a2.87,2.87,0,0,1,1.895.6,1.915,1.915,0,0,1,.727,1.542H10.832a1.06,1.06,0,0,0-.409-.832A1.534,1.534,0,0,0,9.391-6.03a1.605,1.605,0,0,0-1,.279.879.879,0,0,0-.362.73.712.712,0,0,0,.336.641,4.139,4.139,0,0,0,1.216.413A6.334,6.334,0,0,1,11-3.5a2.079,2.079,0,0,1,.809.657,1.615,1.615,0,0,1,.263.936A1.758,1.758,0,0,1,11.34-.428,3.089,3.089,0,0,1,9.429.127a3.459,3.459,0,0,1-1.46-.292,2.375,2.375,0,0,1-.993-.816,1.966,1.966,0,0,1-.359-1.133H7.792a1.216,1.216,0,0,0,.473.936,1.835,1.835,0,0,0,1.165.346A1.894,1.894,0,0,0,10.5-1.1.829.829,0,0,0,10.9-1.822ZM13.3-3.5a4.057,4.057,0,0,1,.4-1.815,2.96,2.96,0,0,1,1.1-1.244A3.007,3.007,0,0,1,16.412-7a2.9,2.9,0,0,1,2.269.971,3.736,3.736,0,0,1,.866,2.583v.083a4.092,4.092,0,0,1-.384,1.8,2.916,2.916,0,0,1-1.1,1.241,3.041,3.041,0,0,1-1.641.444,2.889,2.889,0,0,1-2.263-.971A3.718,3.718,0,0,1,13.3-3.415Zm1.181.14a2.938,2.938,0,0,0,.53,1.834,1.7,1.7,0,0,0,1.419.692,1.686,1.686,0,0,0,1.422-.7A3.213,3.213,0,0,0,18.373-3.5a2.933,2.933,0,0,0-.536-1.831,1.705,1.705,0,0,0-1.425-.7,1.686,1.686,0,0,0-1.4.692A3.189,3.189,0,0,0,14.476-3.358ZM24.34-5.814a3.519,3.519,0,0,0-.578-.044,1.547,1.547,0,0,0-1.568.984V0H21.02V-6.868h1.143l.019.793A1.829,1.829,0,0,1,23.82-7a1.2,1.2,0,0,1,.521.089ZM-27.965,18h-1.174V11.132h1.174Zm-1.27-8.69a.7.7,0,0,1,.175-.482.655.655,0,0,1,.517-.2.666.666,0,0,1,.521.2.694.694,0,0,1,.178.482.671.671,0,0,1-.178.476.678.678,0,0,1-.521.19.667.667,0,0,1-.517-.19A.678.678,0,0,1-29.234,9.31Zm4.259,1.822.038.863A2.5,2.5,0,0,1-22.88,11q2.177,0,2.2,2.457V18h-1.174V13.455a1.581,1.581,0,0,0-.34-1.1A1.361,1.361,0,0,0-23.236,12a1.7,1.7,0,0,0-1,.3,2.069,2.069,0,0,0-.673.8V18h-1.174V11.132Zm7.655-1.663v1.663h1.282v.908H-17.32V16.3a.953.953,0,0,0,.171.62.721.721,0,0,0,.584.207,2.843,2.843,0,0,0,.559-.076V18a3.424,3.424,0,0,1-.9.126,1.462,1.462,0,0,1-1.187-.476,2.045,2.045,0,0,1-.4-1.352V12.04h-1.25v-.908h1.25V9.469Zm5.5,8.658a3,3,0,0,1-2.272-.917,3.4,3.4,0,0,1-.876-2.453v-.216a4.121,4.121,0,0,1,.39-1.825,3.045,3.045,0,0,1,1.092-1.257A2.745,2.745,0,0,1-11.962,11a2.572,2.572,0,0,1,2.082.882,3.82,3.82,0,0,1,.743,2.526V14.9H-13.79a2.441,2.441,0,0,0,.594,1.641,1.866,1.866,0,0,0,1.444.625,2.045,2.045,0,0,0,1.054-.254,2.648,2.648,0,0,0,.755-.673l.717.559A2.884,2.884,0,0,1-11.816,18.127Zm-.146-6.157a1.566,1.566,0,0,0-1.193.517,2.515,2.515,0,0,0-.6,1.45h3.44v-.089a2.237,2.237,0,0,0-.482-1.387A1.475,1.475,0,0,0-11.962,11.97ZM-6.5,18H-7.677V8.25H-6.5Zm3.155,0H-4.523V11.132h1.174Zm-1.27-8.69a.7.7,0,0,1,.175-.482.655.655,0,0,1,.517-.2.666.666,0,0,1,.521.2.694.694,0,0,1,.178.482.671.671,0,0,1-.178.476.678.678,0,0,1-.521.19.667.667,0,0,1-.517-.19A.678.678,0,0,1-4.618,9.31Zm2.869,5.2a4.037,4.037,0,0,1,.743-2.555A2.375,2.375,0,0,1,.962,11a2.363,2.363,0,0,1,1.961.889l.057-.762H4.053v6.7a2.794,2.794,0,0,1-.79,2.1,2.916,2.916,0,0,1-2.123.768,3.532,3.532,0,0,1-1.454-.317,2.5,2.5,0,0,1-1.085-.87l.609-.7a2.3,2.3,0,0,0,1.847.933,1.8,1.8,0,0,0,1.336-.482A1.844,1.844,0,0,0,2.872,17.9v-.59a2.414,2.414,0,0,1-1.923.813A2.346,2.346,0,0,1-1,17.156,4.244,4.244,0,0,1-1.749,14.509Zm1.181.133a3.08,3.08,0,0,0,.476,1.825,1.547,1.547,0,0,0,1.333.663,1.72,1.72,0,0,0,1.631-1.009V12.985A1.74,1.74,0,0,0,1.254,12a1.561,1.561,0,0,0-1.339.667A3.354,3.354,0,0,0-.568,14.642Zm9.242,3.485A3,3,0,0,1,6.4,17.21a3.4,3.4,0,0,1-.876-2.453v-.216a4.121,4.121,0,0,1,.39-1.825,3.045,3.045,0,0,1,1.092-1.257A2.745,2.745,0,0,1,8.528,11a2.572,2.572,0,0,1,2.082.882,3.82,3.82,0,0,1,.743,2.526V14.9H6.7a2.441,2.441,0,0,0,.594,1.641,1.866,1.866,0,0,0,1.444.625,2.045,2.045,0,0,0,1.054-.254,2.648,2.648,0,0,0,.755-.673l.717.559A2.884,2.884,0,0,1,8.674,18.127ZM8.528,11.97a1.566,1.566,0,0,0-1.193.517,2.515,2.515,0,0,0-.6,1.45h3.44v-.089A2.237,2.237,0,0,0,9.7,12.462,1.475,1.475,0,0,0,8.528,11.97Zm5.294-.838L13.86,12A2.5,2.5,0,0,1,15.917,11q2.177,0,2.2,2.457V18H16.939V13.455a1.581,1.581,0,0,0-.34-1.1A1.361,1.361,0,0,0,15.561,12a1.7,1.7,0,0,0-1,.3,2.069,2.069,0,0,0-.673.8V18H12.711V11.132Zm7.655-1.663v1.663H22.76v.908H21.477V16.3a.953.953,0,0,0,.171.62.721.721,0,0,0,.584.207,2.843,2.843,0,0,0,.559-.076V18a3.424,3.424,0,0,1-.9.126,1.462,1.462,0,0,1-1.187-.476,2.045,2.045,0,0,1-.4-1.352V12.04h-1.25v-.908H20.3V9.469Zm5.5,8.658a3,3,0,0,1-2.272-.917,3.4,3.4,0,0,1-.876-2.453v-.216a4.121,4.121,0,0,1,.39-1.825,3.045,3.045,0,0,1,1.092-1.257A2.745,2.745,0,0,1,26.835,11a2.572,2.572,0,0,1,2.082.882,3.82,3.82,0,0,1,.743,2.526V14.9H25.007a2.441,2.441,0,0,0,.594,1.641,1.866,1.866,0,0,0,1.444.625,2.045,2.045,0,0,0,1.054-.254,2.648,2.648,0,0,0,.755-.673l.717.559A2.884,2.884,0,0,1,26.981,18.127Zm-.146-6.157a1.566,1.566,0,0,0-1.193.517,2.515,2.515,0,0,0-.6,1.45h3.44v-.089A2.237,2.237,0,0,0,28,12.462,1.475,1.475,0,0,0,26.835,11.97Z" transform="translate(892.695 2297.898)" fill="#12263f"/>
    <path id="Trazado_836285" data-name="Trazado 836285" d="M2-6.868,2.038-6A2.5,2.5,0,0,1,4.094-7q2.177,0,2.2,2.457V0H5.116V-4.545a1.581,1.581,0,0,0-.34-1.1A1.361,1.361,0,0,0,3.739-6a1.7,1.7,0,0,0-1,.3,2.069,2.069,0,0,0-.673.8V0H.889V-6.868ZM7.75-3.5a4.057,4.057,0,0,1,.4-1.815,2.96,2.96,0,0,1,1.1-1.244A3.007,3.007,0,0,1,10.867-7a2.9,2.9,0,0,1,2.269.971A3.736,3.736,0,0,1,14-3.44v.083a4.092,4.092,0,0,1-.384,1.8,2.916,2.916,0,0,1-1.1,1.241A3.041,3.041,0,0,1,10.88.127,2.889,2.889,0,0,1,8.617-.844,3.718,3.718,0,0,1,7.75-3.415Zm1.181.14a2.938,2.938,0,0,0,.53,1.834,1.7,1.7,0,0,0,1.419.692,1.686,1.686,0,0,0,1.422-.7A3.213,3.213,0,0,0,12.829-3.5a2.933,2.933,0,0,0-.536-1.831,1.705,1.705,0,0,0-1.425-.7,1.686,1.686,0,0,0-1.4.692A3.189,3.189,0,0,0,8.931-3.358Zm8.138-5.173v1.663h1.282v.908H17.069V-1.7a.953.953,0,0,0,.171.62.721.721,0,0,0,.584.207,2.843,2.843,0,0,0,.559-.076V0a3.424,3.424,0,0,1-.9.126,1.462,1.462,0,0,1-1.187-.476,2.045,2.045,0,0,1-.4-1.352V-5.96h-1.25v-.908h1.25V-8.531Zm5.5,8.658A3,3,0,0,1,20.3-.79a3.4,3.4,0,0,1-.876-2.453v-.216a4.121,4.121,0,0,1,.39-1.825,3.045,3.045,0,0,1,1.092-1.257A2.745,2.745,0,0,1,22.426-7a2.572,2.572,0,0,1,2.082.882,3.82,3.82,0,0,1,.743,2.526V-3.1H20.6a2.441,2.441,0,0,0,.594,1.641,1.866,1.866,0,0,0,1.444.625,2.045,2.045,0,0,0,1.054-.254,2.648,2.648,0,0,0,.755-.673l.717.559A2.884,2.884,0,0,1,22.572.127ZM22.426-6.03a1.566,1.566,0,0,0-1.193.517,2.515,2.515,0,0,0-.6,1.45h3.44v-.089a2.237,2.237,0,0,0-.482-1.387A1.475,1.475,0,0,0,22.426-6.03Zm10,2.672A4.084,4.084,0,0,1,31.7-.828a2.312,2.312,0,0,1-1.942.955,2.394,2.394,0,0,1-2.012-.92L27.688,0H26.609V-9.75h1.174v3.637A2.381,2.381,0,0,1,29.745-7a2.326,2.326,0,0,1,1.965.946,4.206,4.206,0,0,1,.714,2.59ZM31.25-3.491a3.173,3.173,0,0,0-.463-1.854A1.534,1.534,0,0,0,29.453-6a1.724,1.724,0,0,0-1.669,1.079v2.971A1.772,1.772,0,0,0,29.466-.87a1.526,1.526,0,0,0,1.314-.654A3.375,3.375,0,0,0,31.25-3.491ZM33.592-3.5a4.057,4.057,0,0,1,.4-1.815,2.96,2.96,0,0,1,1.1-1.244A3.007,3.007,0,0,1,36.708-7a2.9,2.9,0,0,1,2.269.971,3.736,3.736,0,0,1,.866,2.583v.083a4.092,4.092,0,0,1-.384,1.8,2.916,2.916,0,0,1-1.1,1.241,3.041,3.041,0,0,1-1.641.444,2.889,2.889,0,0,1-2.263-.971,3.718,3.718,0,0,1-.866-2.571Zm1.181.14a2.938,2.938,0,0,0,.53,1.834,1.7,1.7,0,0,0,1.419.692,1.686,1.686,0,0,0,1.422-.7A3.213,3.213,0,0,0,38.67-3.5a2.933,2.933,0,0,0-.536-1.831,1.705,1.705,0,0,0-1.425-.7,1.686,1.686,0,0,0-1.4.692A3.189,3.189,0,0,0,34.772-3.358Zm6.233-.14a4.057,4.057,0,0,1,.4-1.815,2.96,2.96,0,0,1,1.1-1.244A3.007,3.007,0,0,1,44.123-7a2.9,2.9,0,0,1,2.269.971,3.736,3.736,0,0,1,.866,2.583v.083a4.092,4.092,0,0,1-.384,1.8,2.916,2.916,0,0,1-1.1,1.241,3.041,3.041,0,0,1-1.641.444,2.889,2.889,0,0,1-2.263-.971,3.718,3.718,0,0,1-.866-2.571Zm1.181.14a2.938,2.938,0,0,0,.53,1.834,1.7,1.7,0,0,0,1.419.692,1.686,1.686,0,0,0,1.422-.7A3.213,3.213,0,0,0,46.084-3.5a2.933,2.933,0,0,0-.536-1.831,1.705,1.705,0,0,0-1.425-.7,1.686,1.686,0,0,0-1.4.692A3.189,3.189,0,0,0,42.187-3.358Zm8.461.178-.736.768V0H48.737V-9.75h1.174v5.9l.628-.755,2.139-2.26h1.428L51.435-4l2.983,4H53.041Z" transform="translate(1065.478 2480.193)" fill="#12263f"/>
    <path id="Trazado_836286" data-name="Trazado 836286" d="M2.38,0H1.162V-9.242H2.38ZM5.529-6.868l.032.762A2.536,2.536,0,0,1,7.6-7a1.964,1.964,0,0,1,1.961,1.1,2.6,2.6,0,0,1,.892-.8,2.634,2.634,0,0,1,1.3-.3q2.26,0,2.3,2.393V0H12.873V-4.532a1.577,1.577,0,0,0-.336-1.1A1.482,1.482,0,0,0,11.407-6a1.557,1.557,0,0,0-1.085.39,1.584,1.584,0,0,0-.5,1.051V0H8.639V-4.5A1.31,1.31,0,0,0,7.173-6a1.571,1.571,0,0,0-1.581.984V0H4.418V-6.868ZM21.62-3.358A4.113,4.113,0,0,1,20.9-.832,2.3,2.3,0,0,1,18.96.127a2.519,2.519,0,0,1-1.968-.793V2.641H15.818V-6.868h1.073l.057.762A2.419,2.419,0,0,1,18.941-7a2.342,2.342,0,0,1,1.958.933,4.157,4.157,0,0,1,.72,2.6Zm-1.174-.133a3.035,3.035,0,0,0-.5-1.834A1.6,1.6,0,0,0,18.592-6a1.726,1.726,0,0,0-1.6.946v3.282A1.73,1.73,0,0,0,18.6-.832a1.587,1.587,0,0,0,1.343-.67A3.312,3.312,0,0,0,20.446-3.491Zm5.986-2.323a3.519,3.519,0,0,0-.578-.044,1.547,1.547,0,0,0-1.568.984V0H23.112V-6.868h1.143l.019.793A1.829,1.829,0,0,1,25.911-7a1.2,1.2,0,0,1,.521.089ZM30.24.127A3,3,0,0,1,27.968-.79a3.4,3.4,0,0,1-.876-2.453v-.216a4.121,4.121,0,0,1,.39-1.825,3.045,3.045,0,0,1,1.092-1.257A2.745,2.745,0,0,1,30.094-7a2.572,2.572,0,0,1,2.082.882,3.82,3.82,0,0,1,.743,2.526V-3.1H28.266a2.441,2.441,0,0,0,.594,1.641A1.866,1.866,0,0,0,30.3-.832a2.045,2.045,0,0,0,1.054-.254,2.648,2.648,0,0,0,.755-.673l.717.559A2.884,2.884,0,0,1,30.24.127ZM30.094-6.03a1.566,1.566,0,0,0-1.193.517,2.515,2.515,0,0,0-.6,1.45h3.44v-.089a2.237,2.237,0,0,0-.482-1.387A1.475,1.475,0,0,0,30.094-6.03Zm8.182,4.208a.865.865,0,0,0-.359-.74,3.452,3.452,0,0,0-1.25-.454,5.912,5.912,0,0,1-1.416-.457,2.014,2.014,0,0,1-.774-.635,1.518,1.518,0,0,1-.251-.876,1.782,1.782,0,0,1,.714-1.428A2.789,2.789,0,0,1,36.766-7a2.87,2.87,0,0,1,1.895.6,1.915,1.915,0,0,1,.727,1.542H38.207a1.06,1.06,0,0,0-.409-.832,1.534,1.534,0,0,0-1.031-.349,1.605,1.605,0,0,0-1,.279.879.879,0,0,0-.362.73.712.712,0,0,0,.336.641,4.139,4.139,0,0,0,1.216.413,6.334,6.334,0,0,1,1.425.47,2.079,2.079,0,0,1,.809.657,1.615,1.615,0,0,1,.263.936,1.758,1.758,0,0,1-.736,1.476A3.089,3.089,0,0,1,36.8.127a3.459,3.459,0,0,1-1.46-.292,2.375,2.375,0,0,1-.993-.816,1.966,1.966,0,0,1-.359-1.133h1.174a1.216,1.216,0,0,0,.473.936A1.835,1.835,0,0,0,36.8-.832a1.894,1.894,0,0,0,1.07-.27A.829.829,0,0,0,38.276-1.822ZM40.669-3.5a4.057,4.057,0,0,1,.4-1.815,2.96,2.96,0,0,1,1.1-1.244A3.007,3.007,0,0,1,43.786-7a2.9,2.9,0,0,1,2.269.971,3.736,3.736,0,0,1,.866,2.583v.083a4.092,4.092,0,0,1-.384,1.8,2.916,2.916,0,0,1-1.1,1.241A3.041,3.041,0,0,1,43.8.127a2.889,2.889,0,0,1-2.263-.971,3.718,3.718,0,0,1-.866-2.571Zm1.181.14a2.938,2.938,0,0,0,.53,1.834A1.7,1.7,0,0,0,43.8-.832a1.686,1.686,0,0,0,1.422-.7A3.213,3.213,0,0,0,45.748-3.5a2.933,2.933,0,0,0-.536-1.831,1.705,1.705,0,0,0-1.425-.7,1.686,1.686,0,0,0-1.4.692A3.189,3.189,0,0,0,41.85-3.358Zm9.864-2.457a3.519,3.519,0,0,0-.578-.044,1.547,1.547,0,0,0-1.568.984V0H48.395V-6.868h1.143l.019.793A1.829,1.829,0,0,1,51.194-7a1.2,1.2,0,0,1,.521.089ZM56.78,0a2.467,2.467,0,0,1-.165-.724A2.62,2.62,0,0,1,54.66.127a2.424,2.424,0,0,1-1.666-.574A1.859,1.859,0,0,1,52.343-1.9a1.942,1.942,0,0,1,.816-1.666,3.846,3.846,0,0,1,2.295-.594H56.6V-4.7a1.319,1.319,0,0,0-.368-.981,1.48,1.48,0,0,0-1.085-.365,1.712,1.712,0,0,0-1.054.317.935.935,0,0,0-.425.768H52.482a1.621,1.621,0,0,1,.365-.993,2.491,2.491,0,0,1,.99-.759A3.331,3.331,0,0,1,55.212-7a2.715,2.715,0,0,1,1.86.594,2.141,2.141,0,0,1,.7,1.635v3.161a3.865,3.865,0,0,0,.241,1.5V0ZM54.831-.9a2.064,2.064,0,0,0,1.047-.286,1.728,1.728,0,0,0,.717-.743V-3.333h-.92q-2.158,0-2.158,1.263a1.069,1.069,0,0,0,.368.863A1.415,1.415,0,0,0,54.831-.9Z" transform="translate(946.243 2480.193)" fill="#12263f"/>
    <path id="Trazado_836287" data-name="Trazado 836287" d="M3.644-.832a1.692,1.692,0,0,0,1.1-.381,1.34,1.34,0,0,0,.521-.952H6.373a2.13,2.13,0,0,1-.406,1.124,2.676,2.676,0,0,1-1,.851A2.885,2.885,0,0,1,3.644.127,2.829,2.829,0,0,1,1.412-.809,3.729,3.729,0,0,1,.584-3.371v-.2A4.135,4.135,0,0,1,.952-5.351,2.8,2.8,0,0,1,2.009-6.563,3,3,0,0,1,3.637-7a2.755,2.755,0,0,1,1.92.692,2.473,2.473,0,0,1,.816,1.8H5.262a1.618,1.618,0,0,0-.5-1.095,1.57,1.57,0,0,0-1.12-.428,1.644,1.644,0,0,0-1.387.644,3.026,3.026,0,0,0-.492,1.863V-3.3a2.965,2.965,0,0,0,.489,1.828A1.651,1.651,0,0,0,3.644-.832ZM11.934,0a2.467,2.467,0,0,1-.165-.724A2.62,2.62,0,0,1,9.813.127,2.424,2.424,0,0,1,8.147-.448,1.859,1.859,0,0,1,7.5-1.9a1.942,1.942,0,0,1,.816-1.666,3.846,3.846,0,0,1,2.295-.594H11.75V-4.7a1.319,1.319,0,0,0-.368-.981A1.48,1.48,0,0,0,10.3-6.049a1.712,1.712,0,0,0-1.054.317.935.935,0,0,0-.425.768H7.636A1.621,1.621,0,0,1,8-5.957a2.491,2.491,0,0,1,.99-.759A3.331,3.331,0,0,1,10.366-7a2.715,2.715,0,0,1,1.86.594,2.141,2.141,0,0,1,.7,1.635v3.161a3.865,3.865,0,0,0,.241,1.5V0ZM9.985-.9a2.064,2.064,0,0,0,1.047-.286,1.728,1.728,0,0,0,.717-.743V-3.333h-.92q-2.158,0-2.158,1.263a1.069,1.069,0,0,0,.368.863A1.415,1.415,0,0,0,9.985-.9ZM11.07-9.737h1.422l-1.7,1.866-.946,0Zm4.8,2.869.032.762A2.536,2.536,0,0,1,17.938-7a1.964,1.964,0,0,1,1.961,1.1,2.6,2.6,0,0,1,.892-.8,2.634,2.634,0,0,1,1.3-.3q2.26,0,2.3,2.393V0H23.213V-4.532a1.577,1.577,0,0,0-.336-1.1A1.482,1.482,0,0,0,21.747-6a1.557,1.557,0,0,0-1.085.39,1.584,1.584,0,0,0-.5,1.051V0H18.979V-4.5A1.31,1.31,0,0,0,17.513-6a1.571,1.571,0,0,0-1.581.984V0H14.758V-6.868ZM30.4,0a2.467,2.467,0,0,1-.165-.724,2.62,2.62,0,0,1-1.955.851,2.424,2.424,0,0,1-1.666-.574A1.859,1.859,0,0,1,25.962-1.9a1.942,1.942,0,0,1,.816-1.666,3.846,3.846,0,0,1,2.295-.594h1.143V-4.7a1.319,1.319,0,0,0-.368-.981,1.48,1.48,0,0,0-1.085-.365,1.712,1.712,0,0,0-1.054.317.935.935,0,0,0-.425.768H26.1a1.621,1.621,0,0,1,.365-.993,2.491,2.491,0,0,1,.99-.759A3.331,3.331,0,0,1,28.831-7a2.715,2.715,0,0,1,1.86.594,2.141,2.141,0,0,1,.7,1.635v3.161A3.865,3.865,0,0,0,31.63-.1V0ZM28.45-.9A2.064,2.064,0,0,0,29.5-1.181a1.728,1.728,0,0,0,.717-.743V-3.333h-.92q-2.158,0-2.158,1.263a1.069,1.069,0,0,0,.368.863A1.415,1.415,0,0,0,28.45-.9Zm8.1-4.919a3.519,3.519,0,0,0-.578-.044,1.547,1.547,0,0,0-1.568.984V0H33.23V-6.868h1.143l.019.793A1.829,1.829,0,0,1,36.029-7a1.2,1.2,0,0,1,.521.089ZM41.615,0a2.467,2.467,0,0,1-.165-.724A2.62,2.62,0,0,1,39.5.127a2.424,2.424,0,0,1-1.666-.574A1.859,1.859,0,0,1,37.178-1.9a1.942,1.942,0,0,1,.816-1.666,3.846,3.846,0,0,1,2.295-.594h1.143V-4.7a1.319,1.319,0,0,0-.368-.981,1.48,1.48,0,0,0-1.085-.365,1.712,1.712,0,0,0-1.054.317.935.935,0,0,0-.425.768H37.318a1.621,1.621,0,0,1,.365-.993,2.491,2.491,0,0,1,.99-.759A3.331,3.331,0,0,1,40.047-7a2.715,2.715,0,0,1,1.86.594,2.141,2.141,0,0,1,.7,1.635v3.161a3.865,3.865,0,0,0,.241,1.5V0ZM39.667-.9a2.064,2.064,0,0,0,1.047-.286,1.728,1.728,0,0,0,.717-.743V-3.333h-.92q-2.158,0-2.158,1.263a1.069,1.069,0,0,0,.368.863A1.415,1.415,0,0,0,39.667-.9Z" transform="translate(870.845 2406.631)" fill="#12263f"/>
    <path id="Trazado_836288" data-name="Trazado 836288" d="M-29.552-.832a1.692,1.692,0,0,0,1.1-.381,1.34,1.34,0,0,0,.521-.952h1.111a2.13,2.13,0,0,1-.406,1.124,2.676,2.676,0,0,1-1,.851,2.885,2.885,0,0,1-1.323.317,2.829,2.829,0,0,1-2.231-.936,3.729,3.729,0,0,1-.828-2.561v-.2a4.135,4.135,0,0,1,.368-1.784,2.8,2.8,0,0,1,1.057-1.212A3,3,0,0,1-29.558-7a2.755,2.755,0,0,1,1.92.692,2.473,2.473,0,0,1,.816,1.8h-1.111a1.618,1.618,0,0,0-.5-1.095,1.57,1.57,0,0,0-1.12-.428,1.644,1.644,0,0,0-1.387.644,3.026,3.026,0,0,0-.492,1.863V-3.3a2.965,2.965,0,0,0,.489,1.828A1.651,1.651,0,0,0-29.552-.832ZM-25.813-3.5a4.057,4.057,0,0,1,.4-1.815,2.96,2.96,0,0,1,1.1-1.244A3.007,3.007,0,0,1-22.7-7a2.9,2.9,0,0,1,2.269.971A3.736,3.736,0,0,1-19.56-3.44v.083a4.092,4.092,0,0,1-.384,1.8,2.916,2.916,0,0,1-1.1,1.241,3.041,3.041,0,0,1-1.641.444,2.889,2.889,0,0,1-2.263-.971,3.718,3.718,0,0,1-.866-2.571Zm1.181.14a2.938,2.938,0,0,0,.53,1.834,1.7,1.7,0,0,0,1.419.692,1.686,1.686,0,0,0,1.422-.7A3.213,3.213,0,0,0-20.735-3.5a2.933,2.933,0,0,0-.536-1.831,1.705,1.705,0,0,0-1.425-.7,1.686,1.686,0,0,0-1.4.692A3.189,3.189,0,0,0-24.632-3.358Zm7.655-3.51.038.863A2.5,2.5,0,0,1-14.882-7q2.177,0,2.2,2.457V0H-13.86V-4.545a1.581,1.581,0,0,0-.34-1.1A1.361,1.361,0,0,0-15.238-6a1.7,1.7,0,0,0-1,.3,2.069,2.069,0,0,0-.673.8V0h-1.174V-6.868ZM-6.916-1.822a.865.865,0,0,0-.359-.74,3.452,3.452,0,0,0-1.25-.454A5.912,5.912,0,0,1-9.94-3.472a2.014,2.014,0,0,1-.774-.635,1.518,1.518,0,0,1-.251-.876,1.782,1.782,0,0,1,.714-1.428A2.789,2.789,0,0,1-8.427-7a2.87,2.87,0,0,1,1.895.6A1.915,1.915,0,0,1-5.8-4.85H-6.986A1.06,1.06,0,0,0-7.4-5.681,1.534,1.534,0,0,0-8.427-6.03a1.605,1.605,0,0,0-1,.279.879.879,0,0,0-.362.73.712.712,0,0,0,.336.641,4.139,4.139,0,0,0,1.216.413,6.334,6.334,0,0,1,1.425.47A2.079,2.079,0,0,1-6-2.841a1.615,1.615,0,0,1,.263.936A1.758,1.758,0,0,1-6.478-.428,3.089,3.089,0,0,1-8.388.127a3.459,3.459,0,0,1-1.46-.292,2.375,2.375,0,0,1-.993-.816A1.966,1.966,0,0,1-11.2-2.114h1.174a1.216,1.216,0,0,0,.473.936,1.835,1.835,0,0,0,1.165.346,1.894,1.894,0,0,0,1.07-.27A.829.829,0,0,0-6.916-1.822ZM-4.523-3.5a4.057,4.057,0,0,1,.4-1.815,2.96,2.96,0,0,1,1.1-1.244A3.007,3.007,0,0,1-1.406-7a2.9,2.9,0,0,1,2.269.971A3.736,3.736,0,0,1,1.73-3.44v.083a4.092,4.092,0,0,1-.384,1.8A2.916,2.916,0,0,1,.248-.317,3.041,3.041,0,0,1-1.393.127,2.889,2.889,0,0,1-3.656-.844a3.718,3.718,0,0,1-.866-2.571Zm1.181.14a2.938,2.938,0,0,0,.53,1.834,1.7,1.7,0,0,0,1.419.692,1.686,1.686,0,0,0,1.422-.7A3.213,3.213,0,0,0,.555-3.5,2.933,2.933,0,0,0,.019-5.329a1.705,1.705,0,0,0-1.425-.7,1.686,1.686,0,0,0-1.4.692A3.189,3.189,0,0,0-3.342-3.358ZM4.478,0H3.3V-9.75H4.478ZM10.6,0a2.467,2.467,0,0,1-.165-.724A2.62,2.62,0,0,1,8.477.127,2.424,2.424,0,0,1,6.811-.448,1.859,1.859,0,0,1,6.16-1.9a1.942,1.942,0,0,1,.816-1.666,3.846,3.846,0,0,1,2.295-.594h1.143V-4.7a1.319,1.319,0,0,0-.368-.981A1.48,1.48,0,0,0,8.96-6.049a1.712,1.712,0,0,0-1.054.317.935.935,0,0,0-.425.768H6.3a1.621,1.621,0,0,1,.365-.993,2.491,2.491,0,0,1,.99-.759A3.331,3.331,0,0,1,9.03-7a2.715,2.715,0,0,1,1.86.594,2.141,2.141,0,0,1,.7,1.635v3.161a3.865,3.865,0,0,0,.241,1.5V0ZM8.649-.9A2.064,2.064,0,0,0,9.7-1.181a1.728,1.728,0,0,0,.717-.743V-3.333h-.92q-2.158,0-2.158,1.263a1.069,1.069,0,0,0,.368.863A1.415,1.415,0,0,0,8.649-.9Zm7.712-2.6a4.023,4.023,0,0,1,.749-2.542A2.369,2.369,0,0,1,19.072-7a2.382,2.382,0,0,1,1.911.825V-9.75h1.174V0H21.077L21.02-.736a2.391,2.391,0,0,1-1.961.863,2.346,2.346,0,0,1-1.946-.978A4.069,4.069,0,0,1,16.361-3.4Zm1.174.133a3.046,3.046,0,0,0,.482,1.828,1.56,1.56,0,0,0,1.333.66,1.713,1.713,0,0,0,1.631-1V-5.027A1.726,1.726,0,0,0,19.364-6a1.567,1.567,0,0,0-1.346.667A3.354,3.354,0,0,0,17.535-3.358ZM26.828.127A3,3,0,0,1,24.556-.79a3.4,3.4,0,0,1-.876-2.453v-.216a4.121,4.121,0,0,1,.39-1.825,3.045,3.045,0,0,1,1.092-1.257A2.745,2.745,0,0,1,26.682-7a2.572,2.572,0,0,1,2.082.882,3.82,3.82,0,0,1,.743,2.526V-3.1H24.854a2.441,2.441,0,0,0,.594,1.641,1.866,1.866,0,0,0,1.444.625,2.045,2.045,0,0,0,1.054-.254,2.648,2.648,0,0,0,.755-.673l.717.559A2.884,2.884,0,0,1,26.828.127ZM26.682-6.03a1.566,1.566,0,0,0-1.193.517,2.515,2.515,0,0,0-.6,1.45h3.44v-.089a2.237,2.237,0,0,0-.482-1.387A1.475,1.475,0,0,0,26.682-6.03ZM-31.672,16.407l1.7-5.275h1.2L-31.234,18h-.9l-2.488-6.868h1.2ZM-26.365,18h-1.174V11.132h1.174Zm-1.27-8.69a.7.7,0,0,1,.175-.482.655.655,0,0,1,.517-.2.666.666,0,0,1,.521.2.694.694,0,0,1,.178.482.671.671,0,0,1-.178.476.678.678,0,0,1-.521.19.667.667,0,0,1-.517-.19A.678.678,0,0,1-27.635,9.31Zm2.863,5.2a4.023,4.023,0,0,1,.749-2.542A2.369,2.369,0,0,1-22.061,11a2.382,2.382,0,0,1,1.911.825V8.25h1.174V18h-1.079l-.057-.736a2.391,2.391,0,0,1-1.961.863,2.346,2.346,0,0,1-1.946-.978,4.069,4.069,0,0,1-.752-2.552Zm1.174.133a3.046,3.046,0,0,0,.482,1.828,1.56,1.56,0,0,0,1.333.66,1.713,1.713,0,0,0,1.631-1V12.973A1.726,1.726,0,0,0-21.769,12a1.567,1.567,0,0,0-1.346.667A3.354,3.354,0,0,0-23.6,14.642Zm9.293,3.485a3,3,0,0,1-2.272-.917,3.4,3.4,0,0,1-.876-2.453v-.216a4.121,4.121,0,0,1,.39-1.825,3.045,3.045,0,0,1,1.092-1.257A2.745,2.745,0,0,1-14.45,11a2.572,2.572,0,0,1,2.082.882,3.82,3.82,0,0,1,.743,2.526V14.9h-4.653a2.441,2.441,0,0,0,.594,1.641,1.866,1.866,0,0,0,1.444.625,2.045,2.045,0,0,0,1.054-.254,2.648,2.648,0,0,0,.755-.673l.717.559A2.884,2.884,0,0,1-14.3,18.127Zm-.146-6.157a1.566,1.566,0,0,0-1.193.517,2.515,2.515,0,0,0-.6,1.45h3.44v-.089a2.237,2.237,0,0,0-.482-1.387A1.475,1.475,0,0,0-14.45,11.97Zm3.872,2.533a4.057,4.057,0,0,1,.4-1.815,2.96,2.96,0,0,1,1.1-1.244A3.007,3.007,0,0,1-7.462,11a2.9,2.9,0,0,1,2.269.971,3.736,3.736,0,0,1,.866,2.583v.083a4.092,4.092,0,0,1-.384,1.8,2.916,2.916,0,0,1-1.1,1.241,3.041,3.041,0,0,1-1.641.444,2.889,2.889,0,0,1-2.263-.971,3.718,3.718,0,0,1-.866-2.571Zm1.181.14a2.938,2.938,0,0,0,.53,1.834,1.7,1.7,0,0,0,1.419.692,1.686,1.686,0,0,0,1.422-.7A3.213,3.213,0,0,0-5.5,14.5a2.933,2.933,0,0,0-.536-1.831,1.705,1.705,0,0,0-1.425-.7,1.686,1.686,0,0,0-1.4.692A3.189,3.189,0,0,0-9.4,14.642Zm7.757-3.51v7.662q0,1.98-1.8,1.98a2.191,2.191,0,0,1-.717-.114v-.934a2.27,2.27,0,0,0,.533.051.8.8,0,0,0,.6-.213,1.052,1.052,0,0,0,.206-.74V11.132ZM-2.936,9.31a.7.7,0,0,1,.175-.479.642.642,0,0,1,.511-.2.666.666,0,0,1,.521.2.694.694,0,0,1,.178.482.671.671,0,0,1-.178.476.678.678,0,0,1-.521.19.657.657,0,0,1-.514-.19A.685.685,0,0,1-2.936,9.31Zm7.427,8.011a2.494,2.494,0,0,1-2.012.806,2.135,2.135,0,0,1-1.673-.638A2.761,2.761,0,0,1,.225,15.6V11.132H1.4v4.437q0,1.562,1.27,1.562a1.758,1.758,0,0,0,1.79-1v-5H5.634V18H4.516Zm5.776.806a3,3,0,0,1-2.272-.917,3.4,3.4,0,0,1-.876-2.453v-.216a4.121,4.121,0,0,1,.39-1.825A3.045,3.045,0,0,1,8.6,11.459,2.745,2.745,0,0,1,10.121,11a2.572,2.572,0,0,1,2.082.882,3.82,3.82,0,0,1,.743,2.526V14.9H8.293a2.441,2.441,0,0,0,.594,1.641,1.866,1.866,0,0,0,1.444.625,2.045,2.045,0,0,0,1.054-.254,2.648,2.648,0,0,0,.755-.673l.717.559A2.884,2.884,0,0,1,10.267,18.127Zm-.146-6.157a1.566,1.566,0,0,0-1.193.517,2.515,2.515,0,0,0-.6,1.45h3.44v-.089a2.237,2.237,0,0,0-.482-1.387A1.475,1.475,0,0,0,10.121,11.97Zm3.9,2.539a4.037,4.037,0,0,1,.743-2.555A2.375,2.375,0,0,1,16.736,11a2.363,2.363,0,0,1,1.961.889l.057-.762h1.073v6.7a2.794,2.794,0,0,1-.79,2.1,2.916,2.916,0,0,1-2.123.768,3.532,3.532,0,0,1-1.454-.317,2.5,2.5,0,0,1-1.085-.87l.609-.7a2.3,2.3,0,0,0,1.847.933,1.8,1.8,0,0,0,1.336-.482,1.844,1.844,0,0,0,.479-1.358v-.59a2.414,2.414,0,0,1-1.923.813,2.346,2.346,0,0,1-1.952-.971A4.244,4.244,0,0,1,14.025,14.509Zm1.181.133a3.08,3.08,0,0,0,.476,1.825,1.547,1.547,0,0,0,1.333.663,1.72,1.72,0,0,0,1.631-1.009V12.985A1.74,1.74,0,0,0,17.028,12a1.561,1.561,0,0,0-1.339.667A3.354,3.354,0,0,0,15.206,14.642Zm6.081-.14a4.057,4.057,0,0,1,.4-1.815,2.96,2.96,0,0,1,1.1-1.244A3.007,3.007,0,0,1,24.4,11a2.9,2.9,0,0,1,2.269.971,3.736,3.736,0,0,1,.866,2.583v.083a4.092,4.092,0,0,1-.384,1.8,2.916,2.916,0,0,1-1.1,1.241,3.041,3.041,0,0,1-1.641.444,2.889,2.889,0,0,1-2.263-.971,3.718,3.718,0,0,1-.866-2.571Zm1.181.14A2.938,2.938,0,0,0,23,16.477a1.8,1.8,0,0,0,2.841-.01,3.213,3.213,0,0,0,.527-1.965,2.933,2.933,0,0,0-.536-1.831,1.705,1.705,0,0,0-1.425-.7,1.686,1.686,0,0,0-1.4.692A3.189,3.189,0,0,0,22.468,14.642Zm10.543,1.536a.865.865,0,0,0-.359-.74,3.452,3.452,0,0,0-1.25-.454,5.912,5.912,0,0,1-1.416-.457,2.014,2.014,0,0,1-.774-.635,1.518,1.518,0,0,1-.251-.876,1.782,1.782,0,0,1,.714-1.428A2.789,2.789,0,0,1,31.5,11a2.87,2.87,0,0,1,1.895.6,1.915,1.915,0,0,1,.727,1.542H32.941a1.06,1.06,0,0,0-.409-.832A1.534,1.534,0,0,0,31.5,11.97a1.605,1.605,0,0,0-1,.279.879.879,0,0,0-.362.73.712.712,0,0,0,.336.641,4.139,4.139,0,0,0,1.216.413,6.334,6.334,0,0,1,1.425.47,2.079,2.079,0,0,1,.809.657,1.615,1.615,0,0,1,.263.936,1.758,1.758,0,0,1-.736,1.476,3.089,3.089,0,0,1-1.911.555,3.459,3.459,0,0,1-1.46-.292,2.375,2.375,0,0,1-.993-.816,1.966,1.966,0,0,1-.359-1.133H29.9a1.216,1.216,0,0,0,.473.936,1.835,1.835,0,0,0,1.165.346,1.894,1.894,0,0,0,1.07-.27A.829.829,0,0,0,33.011,16.178Z" transform="translate(977.116 2207.643)" fill="#12263f"/>
    <path id="Trazado_118188" data-name="Trazado 118188" d="M735.128,82.26,730.209,58.2a4.322,4.322,0,0,0-4.234-3.456h-5.29a4.319,4.319,0,0,0-3.554,1.865l-.889,1.285h-15.1l-.889-1.285a4.32,4.32,0,0,0-3.555-1.865H691.41a4.321,4.321,0,0,0-4.234,3.456L682.257,82.26a6.893,6.893,0,0,0,13.505,2.773l1.953-9.476h21.953l1.953,9.476a6.894,6.894,0,0,0,13.506-2.773Z" transform="translate(265.553 2097.995)" fill="url(#linear-gradient)"/>
    <path id="Trazado_836293" data-name="Trazado 836293" d="M4.116,0A4.116,4.116,0,1,1,0,4.116,4.116,4.116,0,0,1,4.116,0Z" transform="translate(963.269 2169.436)" fill="url(#linear-gradient)"/>
    <path id="Trazado_836294" data-name="Trazado 836294" d="M4.116,0A4.116,4.116,0,1,1,0,4.116,4.116,4.116,0,0,1,4.116,0Z" transform="translate(976.989 2169.436)" fill="url(#linear-gradient)"/>
    <path id="Trazado_118189" data-name="Trazado 118189" d="M691.748,63.282h3.2v-3.2h3.43v3.2h3.2v3.43h-3.2v3.2h-3.43v-3.2h-3.2Z" transform="translate(263.974 2097.121)" fill="#6e40fb"/>
    <path id="Trazado_118190" data-name="Trazado 118190" d="M711.317,69.067h4.321v2.809h-4.321Z" transform="translate(260.767 2095.648)" fill="#b3e59f"/>
    <path id="Trazado_118191" data-name="Trazado 118191" d="M735.757,84.584l-2.87-14.034a.8.8,0,0,0-1.572.322l2.87,14.034a6.166,6.166,0,0,1,.126,1.235,6.093,6.093,0,0,1-12.06,1.214l-1.939-9.407a4.917,4.917,0,0,0-9.768-.709h-4.017a4.917,4.917,0,0,0-9.768.71l-1.939,9.407a6.092,6.092,0,0,1-11.934-2.45l2.863-14a.8.8,0,0,0-1.572-.322l-2.863,14a7.7,7.7,0,0,0,15.077,3.095l1.373-6.66a4.915,4.915,0,0,0,8.763-2.176h4.017a4.915,4.915,0,0,0,8.763,2.176l1.372,6.661a7.7,7.7,0,0,0,15.236-1.538,7.834,7.834,0,0,0-.158-1.557Zm-30.767-6.539a3.314,3.314,0,0,1-6.628,0v-.007a3.314,3.314,0,0,1,6.628,0v.008Zm13.72,0a3.314,3.314,0,0,1-6.628,0v-.008a3.314,3.314,0,0,1,6.628,0Z" transform="translate(265.71 2095.51)" fill="#12263f"/>
    <path id="Trazado_118192" data-name="Trazado 118192" d="M686.3,63.979a.8.8,0,0,0,.947-.625l1.3-6.355a3.532,3.532,0,0,1,3.448-2.814h5.289a3.52,3.52,0,0,1,2.9,1.518l.875,1.265,2.14,3.43a.8.8,0,0,0,.681.377.794.794,0,0,0,.424-.121.8.8,0,0,0,.256-1.105l-1.381-2.214h12.206l-1.381,2.214a.8.8,0,0,0,1.36.85l2.141-3.43.875-1.265a3.52,3.52,0,0,1,2.9-1.518h5.289A3.532,3.532,0,0,1,730,57l1.3,6.355a.8.8,0,0,0,.785.641.814.814,0,0,0,.161-.017.8.8,0,0,0,.625-.947l-1.3-6.355a5.142,5.142,0,0,0-5.02-4.1h-5.289a5.124,5.124,0,0,0-4.215,2.21l-.65.94h-4.489v-3.1a.8.8,0,0,0-.8-.8h-1.035v-4.6a.8.8,0,1,0-1.6,0v4.6h-1.035a.8.8,0,0,0-.8.8v3.1h-4.489l-.65-.94a5.124,5.124,0,0,0-4.215-2.21H691.99a5.141,5.141,0,0,0-5.02,4.1l-1.3,6.355a.8.8,0,0,0,.625.947Zm21.942-10.55h2.069v2.3h-2.069Z" transform="translate(264.973 2099.358)" fill="#12263f"/>
    <path id="Trazado_118193" data-name="Trazado 118193" d="M729.838,63.51a1.715,1.715,0,1,0-1.716-1.715A1.715,1.715,0,0,0,729.838,63.51Z" transform="translate(258.014 2097.12)" fill="#12263f"/>
    <path id="Trazado_118194" data-name="Trazado 118194" d="M729.838,71.168a1.715,1.715,0,1,0-1.716-1.715A1.715,1.715,0,0,0,729.838,71.168Z" transform="translate(258.014 2095.865)" fill="#12263f"/>
    <path id="Trazado_118195" data-name="Trazado 118195" d="M733.667,67.339a1.715,1.715,0,1,0-1.716-1.715A1.715,1.715,0,0,0,733.667,67.339Z" transform="translate(257.386 2096.493)" fill="#12263f"/>
    <path id="Trazado_118196" data-name="Trazado 118196" d="M726.009,63.909a1.715,1.715,0,1,0,1.715,1.715A1.715,1.715,0,0,0,726.009,63.909Z" transform="translate(258.641 2096.493)" fill="#12263f"/>
    <path id="Trazado_118197" data-name="Trazado 118197" d="M694.792,70.558h3.43a.8.8,0,0,0,.8-.8v-2.4h2.4a.8.8,0,0,0,.8-.8v-3.43a.8.8,0,0,0-.8-.8h-2.4v-2.4a.8.8,0,0,0-.8-.8h-3.43a.8.8,0,0,0-.8.8v2.4h-2.4a.8.8,0,0,0-.8.8v3.431a.8.8,0,0,0,.8.8h2.4v2.4A.8.8,0,0,0,694.792,70.558Zm-2.4-4.806V63.926h2.4a.8.8,0,0,0,.8-.8v-2.4h1.826v2.4a.8.8,0,0,0,.8.8h2.4v1.826h-2.4a.8.8,0,0,0-.8.8v2.4h-1.826v-2.4a.8.8,0,0,0-.8-.8Z" transform="translate(264.131 2097.277)" fill="#12263f"/>
    <path id="Trazado_118198" data-name="Trazado 118198" d="M711.16,68.107a.8.8,0,0,0-.8.8v2.809a.8.8,0,0,0,.8.8h4.321a.8.8,0,0,0,.8-.8V68.91a.8.8,0,0,0-.8-.8Zm3.519,2.809h-2.717v-1.2h2.717Z" transform="translate(260.925 2095.805)" fill="#12263f"/>
    <path id="Trazado_118199" data-name="Trazado 118199" d="M636.254,156.966h1.738v6.1a.873.873,0,1,0,1.747,0v-6.1h1.738a.869.869,0,1,0,0-1.738h-5.223a.869.869,0,1,0,0,1.738Z" transform="translate(271.628 2076.755)" fill="#12263f"/>
    <path id="Trazado_118200" data-name="Trazado 118200" d="M628.963,163.939a.874.874,0,0,0,.873-.874v-1.379l1.992,2a.864.864,0,0,0,.62.253.844.844,0,0,0,.612-.253.867.867,0,0,0,0-1.232l-2.016-2.016a2.61,2.61,0,0,0-.334-5.2h-1.739a.874.874,0,0,0-.873.873v6.954A.868.868,0,0,0,628.963,163.939Zm.873-6.971h.874a.873.873,0,0,1,0,1.747h-.874Z" transform="translate(272.821 2076.753)" fill="#12263f"/>
    <path id="Trazado_118201" data-name="Trazado 118201" d="M618.244,163.893a.871.871,0,0,0,1.119-.507l.441-1.175h2.71l.441,1.175a.869.869,0,0,0,.816.564.847.847,0,0,0,.31-.057.867.867,0,0,0,.506-1.119l-2.611-6.962a.91.91,0,0,0-1.633,0l-2.612,6.962A.879.879,0,0,0,618.244,163.893Zm2.922-5.306.7,1.878h-1.4Z" transform="translate(274.529 2076.742)" fill="#12263f"/>
    <path id="Trazado_118202" data-name="Trazado 118202" d="M608.139,163.936a.875.875,0,0,0,.874-.874v-4.35l1.044,1.4a.9.9,0,0,0,1.4,0l1.044-1.4v4.35a.873.873,0,1,0,1.747,0V156.1a.871.871,0,0,0-1.567-.522l-1.926,2.546-1.918-2.554a.871.871,0,0,0-1.567.523v6.97A.874.874,0,0,0,608.139,163.936Z" transform="translate(276.235 2076.756)" fill="#12263f"/>
    <path id="Trazado_118203" data-name="Trazado 118203" d="M629.956,176.1a.877.877,0,0,0-1.1.547l-2.653,7.974-2.652-7.966a.87.87,0,1,0-1.649.554l3.485,10.448a.869.869,0,0,0,1.649,0l3.485-10.448A.891.891,0,0,0,629.956,176.1Z" transform="translate(273.845 2073.342)" fill="#12263f"/>
    <path id="Trazado_118204" data-name="Trazado 118204" d="M634.292,167.723H599.471a2.619,2.619,0,0,0-2.611,2.612v20.9a2.619,2.619,0,0,0,2.611,2.611h14.8v1.878l-9.722,1.615a.871.871,0,0,0,.139,1.731.868.868,0,0,0,.147-.008l10.374-1.73h3.347l10.374,1.73a.873.873,0,0,0,.286-1.722l-9.722-1.615v-1.878h14.8a2.619,2.619,0,0,0,2.612-2.611v-20.9A2.615,2.615,0,0,0,634.292,167.723Zm-16.537,27.858h-1.738v-1.739h1.738Zm17.418-4.35h-.008a.874.874,0,0,1-.873.873H599.471a.874.874,0,0,1-.873-.873v-20.9a.874.874,0,0,1,.873-.873H634.3a.874.874,0,0,1,.873.873Z" transform="translate(277.94 2074.707)" fill="#12263f"/>
    <path id="Trazado_118205" data-name="Trazado 118205" d="M600.336,162.2c-1.028,0-1.706-.49-1.747-.841a.869.869,0,0,0-1.73.163c.13,1.38,1.624,2.416,3.477,2.416,1.951,0,3.486-1.151,3.486-2.612,0-1.363-1.078-2.228-3.208-2.579l-.261-.04c-1.527-.253-1.755-.653-1.755-.865,0-.343.694-.874,1.747-.874,1.028,0,1.706.49,1.747.841a.869.869,0,0,0,1.731-.164c-.139-1.379-1.633-2.416-3.477-2.416-1.951,0-3.485,1.151-3.485,2.612,0,1.363,1.077,2.228,3.216,2.579l.253.04c1.445.237,1.755.6,1.755.865C602.082,161.668,601.389,162.2,600.336,162.2Z" transform="translate(277.941 2076.755)" fill="#12263f"/>
    <path id="Trazado_118206" data-name="Trazado 118206" d="M617.885,176.05h-8.7a.873.873,0,1,0,0,1.747h3.485v9.575a.873.873,0,0,0,1.747,0V177.8H617.9a.874.874,0,0,0,.873-.873A.889.889,0,0,0,617.885,176.05Z" transform="translate(276.064 2073.343)" fill="#12263f"/>
    <path id="Trazado_836289" data-name="Trazado 836289" d="M0,0H17.814V24.319H0Z" transform="translate(1100.64 2164.971)" fill="url(#linear-gradient)"/>
    <path id="Trazado_118207" data-name="Trazado 118207" d="M881.693,51.526H866.253a1.188,1.188,0,0,0-1.187,1.187v9.5H882.88v-9.5A1.188,1.188,0,0,0,881.693,51.526Z" transform="translate(235.574 2098.523)" fill="none" stroke="#173042" stroke-miterlimit="10" stroke-width="2"/>
    <path id="Trazado_118208" data-name="Trazado 118208" d="M858.782,65.777v24.99a1.163,1.163,0,0,0,1.187,1.136h15.439a1.163,1.163,0,0,0,1.187-1.136V65.777Zm8.907,20.188a2.375,2.375,0,1,1,2.375-2.375A2.375,2.375,0,0,1,867.689,85.966ZM855.813,56.276V52.713a4.11,4.11,0,0,1,.194-1.187H829.092a2.376,2.376,0,0,0-2.375,2.375V81.215a2.376,2.376,0,0,0,2.375,2.375h12.866l-.792,4.75h-4.355a1.781,1.781,0,0,0,0,3.563H856a4,4,0,0,1-.182-1.136V88.341h-3.166l-.792-4.75h3.958V78.84H831.468V56.276Z" transform="translate(241.858 2098.523)" fill="none" stroke="#173042" stroke-miterlimit="10" stroke-width="2"/>
    <path id="Trazado_836290" data-name="Trazado 836290" d="M1.581,0A1.581,1.581,0,1,1,0,1.581,1.581,1.581,0,0,1,1.581,0Z" transform="translate(1107.966 2180.654)" fill="#6e40fb"/>
    <path id="Trazado_118209" data-name="Trazado 118209" d="M735.864,382.333H696.938a4.865,4.865,0,0,0-4.865,4.865v12.164a4.866,4.866,0,0,0,4.865,4.866h2.433v-4.258a4.262,4.262,0,0,1,4.258-4.258h25.546a4.263,4.263,0,0,1,4.258,4.258v4.258h2.432a4.867,4.867,0,0,0,4.866-4.866V387.2A4.866,4.866,0,0,0,735.864,382.333Zm-36.7,9.029a2.262,2.262,0,1,1,2.261-2.262A2.263,2.263,0,0,1,699.159,391.362Z" transform="translate(263.921 2044.314)" stroke="#393939" stroke-linecap="round" stroke-linejoin="round" stroke-width="2" fill="url(#linear-gradient)"/>
    <path id="Trazado_118210" data-name="Trazado 118210" d="M731.036,374.331H705.6a1.825,1.825,0,0,0,0,3.65h25.434a1.825,1.825,0,1,0,0-3.65Zm.056,23.112H705.546a1.217,1.217,0,0,0-1.217,1.217v13.989a2.433,2.433,0,0,0,2.433,2.433h23.112a2.433,2.433,0,0,0,2.432-2.433V398.66A1.216,1.216,0,0,0,731.092,397.443Zm-12.164,13.685h-8.515a1.521,1.521,0,1,1,0-3.041h8.515a1.521,1.521,0,0,1,0,3.041Zm6.082-6.082h-14.6a1.521,1.521,0,1,1,0-3.041h14.6a1.521,1.521,0,0,1,0,3.041Z" transform="translate(262.003 2045.626)" fill="#c6facc" stroke="#393939" stroke-linecap="round" stroke-linejoin="round" stroke-width="2"/>
    <path id="Path_123108" data-name="Path 123108" d="M957.617,304.4l-1.186,5.888c-.807,4.007-1.594,8.02-2.437,12.02a3.687,3.687,0,0,1-4.62,3.039q-8.125-1.62-16.244-3.273a3.691,3.691,0,0,1-3.1-4.2c.006-.038.013-.077.019-.115.039-.319.1-.638.168-.954q3.484-17.3,6.982-34.593a7.1,7.1,0,0,1,.686-2.019,3.366,3.366,0,0,1,3.717-1.758q8.444,1.663,16.877,3.4a3.633,3.633,0,0,1,2.765,4.519c-1.146,5.845-2.339,11.675-3.514,17.512Zm1.408-18.261L939.509,282.2l-6.2,30.756,19.516,3.933Zm-14.952,32.651a1.779,1.779,0,1,0-2.146,1.5,1.864,1.864,0,0,0,2.147-1.5Z" transform="translate(224.937 2061.352)" fill="#393939"/>
    <path id="Trazado_836295" data-name="Trazado 836295" d="M6.534,0A6.534,6.534,0,1,1,0,6.534,6.534,6.534,0,0,1,6.534,0Z" transform="translate(897.103 2367.004)" fill="#173042"/>
    <path id="Trazado_118211" data-name="Trazado 118211" d="M640.318,299.515h-3.735l-2.26-3.956a2.956,2.956,0,0,0-2.566-1.489h-12.9a2.954,2.954,0,0,0-2.566,1.488l-2.261,3.957H603.756a2.955,2.955,0,0,0-2.955,2.955v24.582a2.955,2.955,0,0,0,2.955,2.955h36.562a2.955,2.955,0,0,0,2.955-2.955V302.47A2.955,2.955,0,0,0,640.318,299.515Zm-32.982,8.712a2.178,2.178,0,1,1,2.177-2.178A2.178,2.178,0,0,1,607.335,308.227Zm26.006,11.462a8.274,8.274,0,0,1-3.655,3.655,9.932,9.932,0,0,1-13.509-13.509,8.265,8.265,0,0,1,3.655-3.655A9.932,9.932,0,0,1,633.342,319.688Z" transform="translate(278.878 2058.777)" fill="#173042"/>
    <path id="Trazado_118212" data-name="Trazado 118212" d="M857.377,397.392H843.765l-6.876,7.107-4.608,1.588,1.536-4.763,3.8-3.932H826.095v19.761h31.282Z" transform="translate(241.96 2041.846)" fill="#b3e59f" fill-rule="evenodd"/>
    <path id="Trazado_118213" data-name="Trazado 118213" d="M858.263,383.251H853.7l6.914-7.148a.919.919,0,0,0,0-1.27l-3.072-3.176a.849.849,0,0,0-1.229,0L845.1,383.251H823.506a2.655,2.655,0,0,0-2.607,2.695V414.69a2.655,2.655,0,0,0,2.607,2.695h34.757a2.655,2.655,0,0,0,2.607-2.695V385.946a2.655,2.655,0,0,0-2.607-2.695Zm-1.334-9.688,1.844,1.9-12.657,13.084-1.843-1.906ZM835.7,395.506l1.844,1.906-1.975,2.042-2.765.952.921-2.858Zm3.073.635-1.844-1.906,6.114-6.32,1.844,1.906Zm20.359,18.548a.885.885,0,0,1-.869.9H823.505a.885.885,0,0,1-.869-.9V385.946a.885.885,0,0,1,.869-.9h19.856l-11.009,11.381a.906.906,0,0,0-.21.351l-1.536,4.763a.889.889,0,0,0,1.1,1.136l4.609-1.588a.856.856,0,0,0,.339-.217l15.31-15.827h6.3a.885.885,0,0,1,.869.9V414.69Z" transform="translate(242.811 2046.105)" fill="#393939"/>
    <path id="Trazado_118214" data-name="Trazado 118214" d="M829.4,390.946h-3.476a.9.9,0,0,0,0,1.8H829.4a.9.9,0,0,0,0-1.8Z" transform="translate(242.129 2042.902)" fill="#393939"/>
    <path id="Trazado_118215" data-name="Trazado 118215" d="M862.658,390.946h-3.476a.9.9,0,0,0,0,1.8h3.476a.9.9,0,0,0,0-1.8Z" transform="translate(236.68 2042.902)" fill="#393939"/>
    <path id="Trazado_118216" data-name="Trazado 118216" d="M928.934,208.437H924.1a1.209,1.209,0,0,0,0,2.417h4.834a1.209,1.209,0,0,0,0-2.417Z" transform="translate(226.099 2072.811)" fill="#393939"/>
    <path id="Trazado_118217" data-name="Trazado 118217" d="M954.946,208.437h-4.833a1.209,1.209,0,1,0,0,2.417h4.833a1.209,1.209,0,0,0,0-2.417Z" transform="translate(221.836 2072.811)" fill="#393939"/>
    <path id="Trazado_118218" data-name="Trazado 118218" d="M952.626,153.523H921.21A1.209,1.209,0,0,0,920,154.731v41.083a1.209,1.209,0,0,0,1.208,1.208h31.416a1.208,1.208,0,0,0,1.208-1.208V154.731A1.208,1.208,0,0,0,952.626,153.523Zm-1.208,41.083h-29V155.939h29Z" transform="translate(226.572 2081.809)" fill="#393939"/>
    <path id="Trazado_118219" data-name="Trazado 118219" d="M954.1,147.742h-36.25a3.629,3.629,0,0,0-3.625,3.625v50.749a3.629,3.629,0,0,0,3.625,3.625H954.1a3.629,3.629,0,0,0,3.625-3.625V151.367A3.629,3.629,0,0,0,954.1,147.742Zm1.208,54.375a1.211,1.211,0,0,1-1.208,1.208h-36.25a1.21,1.21,0,0,1-1.208-1.208V151.367a1.21,1.21,0,0,1,1.208-1.208H954.1a1.21,1.21,0,0,1,1.208,1.208Z" transform="translate(227.52 2082.756)" fill="#393939"/>
  </g>
</svg>
