<svg xmlns="http://www.w3.org/2000/svg" xmlns:xlink="http://www.w3.org/1999/xlink" width="457" height="498" viewBox="0 0 457 498">
  <defs>
    <linearGradient id="linear-gradient" x1="-29.417" y1="32.743" x2="-29.417" y2="32.715" gradientUnits="objectBoundingBox">
      <stop offset="0" stop-color="#fff"/>
      <stop offset="1" stop-color="#d2e6ee"/>
    </linearGradient>
    <linearGradient id="linear-gradient-2" x1="0" y1="0.5" x2="1" y2="0.5" xlink:href="#linear-gradient"/>
  </defs>
  <g id="Grupo_1093425" data-name="Grupo 1093425" transform="translate(-336.667 -2037)">
    <path id="Trazado_836268" data-name="Trazado 836268" d="M0,0H457V498H0Z" transform="translate(336.667 2037)" fill="#e9e2fe"/>
    <path id="Trazado_836271" data-name="Trazado 836271" d="M58.319,15.418a4.96,4.96,0,0,1-2.083,1.274,8.984,8.984,0,0,1-3.006.483,5.36,5.36,0,0,1-4.017-1.538,6.226,6.226,0,0,1-1.608-4.28L47.6,10.25a7.637,7.637,0,0,1,.668-3.3,4.96,4.96,0,0,1,1.912-2.171,5.407,5.407,0,0,1,2.878-.76,5.669,5.669,0,0,1,3.713,1.094A4.637,4.637,0,0,1,58.31,8.378H55.339a2.426,2.426,0,0,0-.686-1.529,2.212,2.212,0,0,0-1.494-.457,2.013,2.013,0,0,0-1.793.984,5.256,5.256,0,0,0-.642,2.813v.773a5.145,5.145,0,0,0,.655,2.878,2.316,2.316,0,0,0,2.061.962,2.592,2.592,0,0,0,1.793-.536V12.28H53.089V10.162h5.229Zm7.409-5.247-.976-.07a1.752,1.752,0,0,0-1.793.879V17H60V7.49h2.777l.1,1.222a2.294,2.294,0,0,1,2.083-1.4,2.888,2.888,0,0,1,.826.105Zm6.732,5.8a3.054,3.054,0,0,1-2.54,1.2,3,3,0,0,1-2.369-.91,3.826,3.826,0,0,1-.8-2.615V7.49h2.962v6.179A1.065,1.065,0,0,0,70.9,14.891a1.548,1.548,0,0,0,1.45-.729V7.49h2.979V17H72.548Zm13.315-3.656a5.735,5.735,0,0,1-1,3.538,3.2,3.2,0,0,1-2.694,1.323,2.742,2.742,0,0,1-2.153-.958v4.438H76.969V7.49h2.769l.088.879a2.742,2.742,0,0,1,2.241-1.055,3.224,3.224,0,0,1,2.733,1.3,5.805,5.805,0,0,1,.976,3.564Zm-2.962-.185q0-2.531-1.477-2.531a1.394,1.394,0,0,0-1.406.756V14.1a1.439,1.439,0,0,0,1.424.791q1.415,0,1.459-2.443Zm3.894.026a5.613,5.613,0,0,1,.554-2.536,3.96,3.96,0,0,1,1.591-1.709,4.791,4.791,0,0,1,2.435-.6,4.373,4.373,0,0,1,3.366,1.323,5.076,5.076,0,0,1,1.23,3.6v.105a4.925,4.925,0,0,1-1.235,3.529A4.384,4.384,0,0,1,91.3,17.176a4.434,4.434,0,0,1-3.261-1.217,4.761,4.761,0,0,1-1.327-3.3Zm2.962.185a3.538,3.538,0,0,0,.413,1.934,1.376,1.376,0,0,0,1.222.615q1.582,0,1.617-2.435v-.3q0-2.558-1.635-2.558-1.485,0-1.608,2.206Zm12.5,1.986a.684.684,0,0,0-.4-.606,6.016,6.016,0,0,0-1.5-.475,6.853,6.853,0,0,1-1.828-.646,3.062,3.062,0,0,1-1.1-.971,2.319,2.319,0,0,1-.378-1.31,2.628,2.628,0,0,1,1.081-2.158,4.453,4.453,0,0,1,2.83-.848,4.934,4.934,0,0,1,3.023.853,2.666,2.666,0,0,1,1.143,2.241h-2.971q0-1.143-1.2-1.143a1.194,1.194,0,0,0-.782.259.8.8,0,0,0-.316.646.737.737,0,0,0,.387.642,3.654,3.654,0,0,0,1.235.4,10.671,10.671,0,0,1,1.49.378,2.706,2.706,0,0,1,2.145,2.646,2.491,2.491,0,0,1-1.156,2.118,5.068,5.068,0,0,1-2.993.817,5.172,5.172,0,0,1-2.18-.439,3.645,3.645,0,0,1-1.494-1.2,2.707,2.707,0,0,1-.536-1.591h2.769a1.145,1.145,0,0,0,.439.962,1.808,1.808,0,0,0,1.081.3,1.422,1.422,0,0,0,.91-.246A.787.787,0,0,0,102.167,14.328Zm8.376-2.153a6.421,6.421,0,0,1,.475-2.549,3.821,3.821,0,0,1,1.362-1.709,3.591,3.591,0,0,1,2.065-.6,2.855,2.855,0,0,1,2.32,1l.105-.826h2.689V16.64a4.009,4.009,0,0,1-.584,2.184,3.75,3.75,0,0,1-1.692,1.424,6.219,6.219,0,0,1-2.566.5,5.365,5.365,0,0,1-2.026-.4,3.657,3.657,0,0,1-1.5-1.028l1.239-1.74a2.716,2.716,0,0,0,2.18.976,1.764,1.764,0,0,0,1.969-2.021v-.3a2.781,2.781,0,0,1-2.153.94,3.437,3.437,0,0,1-2.812-1.332,5.517,5.517,0,0,1-1.072-3.564Zm2.971.185a3.383,3.383,0,0,0,.439,1.85,1.387,1.387,0,0,0,1.23.681,1.573,1.573,0,0,0,1.4-.642v-4a1.534,1.534,0,0,0-1.38-.65,1.4,1.4,0,0,0-1.239.708A3.858,3.858,0,0,0,113.514,12.359ZM124.369,17H121.4V3.5h2.971Zm1.45-4.843a5.613,5.613,0,0,1,.554-2.536,3.96,3.96,0,0,1,1.591-1.709,4.791,4.791,0,0,1,2.435-.6,4.373,4.373,0,0,1,3.366,1.323,5.076,5.076,0,0,1,1.23,3.6v.105a4.925,4.925,0,0,1-1.235,3.529,4.384,4.384,0,0,1-3.344,1.305,4.434,4.434,0,0,1-3.261-1.217,4.761,4.761,0,0,1-1.327-3.3Zm2.962.185a3.538,3.538,0,0,0,.413,1.934,1.376,1.376,0,0,0,1.222.615q1.582,0,1.617-2.435v-.3q0-2.558-1.635-2.558-1.485,0-1.608,2.206Zm16.348-.018a5.8,5.8,0,0,1-.967,3.595,3.238,3.238,0,0,1-2.725,1.257,2.81,2.81,0,0,1-2.338-1.151l-.123.976h-2.654V3.5h2.962V8.255a2.711,2.711,0,0,1,2.136-.94,3.239,3.239,0,0,1,2.742,1.274,5.826,5.826,0,0,1,.967,3.586Zm-2.971-.189a3.866,3.866,0,0,0-.365-1.952,1.229,1.229,0,0,0-1.121-.584,1.418,1.418,0,0,0-1.389.763v3.773a1.426,1.426,0,0,0,1.406.755,1.258,1.258,0,0,0,1.327-1.018A7.309,7.309,0,0,0,142.158,12.135ZM151.791,17a3.344,3.344,0,0,1-.281-.853,2.754,2.754,0,0,1-2.285,1.028,3.374,3.374,0,0,1-2.285-.813,2.588,2.588,0,0,1-.94-2.043,2.66,2.66,0,0,1,1.143-2.338,5.821,5.821,0,0,1,3.322-.791h.914v-.5q0-1.316-1.134-1.316a.927.927,0,0,0-1.055,1.042h-2.962A2.655,2.655,0,0,1,147.4,8.175a4.931,4.931,0,0,1,2.993-.86,4.323,4.323,0,0,1,2.874.888,3.086,3.086,0,0,1,1.081,2.435v4.21a4.311,4.311,0,0,0,.4,2V17Zm-1.854-1.934a1.652,1.652,0,0,0,.918-.237,1.487,1.487,0,0,0,.523-.536V12.772h-.861q-1.547,0-1.547,1.389a.848.848,0,0,0,.272.655A.986.986,0,0,0,149.936,15.066ZM159.112,17h-2.971V3.5h2.971Zm6.425.176a4.889,4.889,0,0,1-3.542-1.305,4.507,4.507,0,0,1-1.354-3.4v-.246a5.84,5.84,0,0,1,.541-2.575,3.955,3.955,0,0,1,1.578-1.727,4.763,4.763,0,0,1,2.461-.611,4.117,4.117,0,0,1,3.164,1.244,4.887,4.887,0,0,1,1.16,3.467v1.151h-5.889a2.135,2.135,0,0,0,.694,1.257,2.066,2.066,0,0,0,1.389.457,2.662,2.662,0,0,0,2.2-.984l1.354,1.6a3.784,3.784,0,0,1-1.569,1.217A5.3,5.3,0,0,1,165.537,17.176ZM165.2,9.6q-1.3,0-1.547,1.723h2.988v-.229a1.467,1.467,0,0,0-.36-1.1A1.434,1.434,0,0,0,165.2,9.6Zm10.512,4.729a.684.684,0,0,0-.4-.606,6.016,6.016,0,0,0-1.5-.475,6.853,6.853,0,0,1-1.828-.646,3.062,3.062,0,0,1-1.1-.971,2.319,2.319,0,0,1-.378-1.31,2.628,2.628,0,0,1,1.081-2.158,4.453,4.453,0,0,1,2.83-.848,4.934,4.934,0,0,1,3.023.853,2.666,2.666,0,0,1,1.143,2.241h-2.971q0-1.143-1.2-1.143a1.194,1.194,0,0,0-.782.259.8.8,0,0,0-.316.646.737.737,0,0,0,.387.642,3.654,3.654,0,0,0,1.235.4,10.671,10.671,0,0,1,1.49.378,2.706,2.706,0,0,1,2.145,2.646,2.491,2.491,0,0,1-1.156,2.118,5.068,5.068,0,0,1-2.993.817,5.172,5.172,0,0,1-2.18-.439,3.645,3.645,0,0,1-1.494-1.2,2.707,2.707,0,0,1-.536-1.591h2.769a1.145,1.145,0,0,0,.439.962,1.808,1.808,0,0,0,1.081.3,1.422,1.422,0,0,0,.91-.246A.787.787,0,0,0,175.714,14.328Z" transform="translate(452.667 2080)" fill="#6e40fb"/>
    <path id="Trazado_117885" data-name="Trazado 117885" d="M110.354,407.409a192.583,192.583,0,0,0,224.539-3.528L220.164,249.227Z" transform="translate(344.25 2078.904)" fill="#f6f6f6"/>
    <path id="Trazado_117886" data-name="Trazado 117886" d="M197.294,0A192.633,192.633,0,0,0,12.92,136.888l184.374,55.669Z" transform="translate(362.276 2125.016)" fill="#f6f6f6"/>
    <path id="Trazado_117887" data-name="Trazado 117887" d="M8.184,174.977A192.756,192.756,0,0,0,82.748,388.829l109.81-158.182Z" transform="translate(364.667 2092.643)" fill="#f6f6f6"/>
    <path id="Trazado_117888" data-name="Trazado 117888" d="M436.479,136.888A192.633,192.633,0,0,0,252.105,0V192.557Z" transform="translate(318.023 2125.016)" fill="#f6f6f6"/>
    <path id="Trazado_117889" data-name="Trazado 117889" d="M440.189,174.977l-184.374,55.67L370.545,385.3a192.771,192.771,0,0,0,69.645-210.324Z" transform="translate(317.338 2092.643)" fill="#f6f6f6"/>
    <path id="Trazado_836272" data-name="Trazado 836272" d="M79.745,0A79.745,79.745,0,1,1,0,79.745,79.745,79.745,0,0,1,79.745,0Z" transform="translate(479.826 2243.544)" fill="#1e5af9"/>
    <path id="Path_69039" data-name="Path 69039" d="M145.984,99.066c0-.758-.013-1.4,0-2.051q.156-6.524.327-13.049c.032-1.149.156-2.3.18-3.444q.1-5.27.151-10.54a1.125,1.125,0,0,0-.352-.676,4.319,4.319,0,1,1,6.11-.068,1.282,1.282,0,0,0-.41,1.046c.095,3.244.171,6.49.255,9.734q.236,9.128.474,18.258c.007.227.025.455.045.787h1.508a4.45,4.45,0,0,1,4.663,4.226c.007.145.007.289,0,.434q.011,6.408,0,12.817a4.412,4.412,0,0,1-4.645,4.6H103.523a4.414,4.414,0,0,1-4.67-4.637q-.012-6.378,0-12.755a4.455,4.455,0,0,1,4.7-4.687h42.43Zm-17.075,19.485c8.332,0,16.665-.023,25,.019a2.142,2.142,0,0,0,2.447-2.473c-.073-4.1-.021-8.207-.024-12.31a1.884,1.884,0,0,0-2.135-2.119q-25.311,0-50.624,0a1.872,1.872,0,0,0-2.106,2.083q-.007,6.375.006,12.75a2.5,2.5,0,0,0,.208,1.028,1.933,1.933,0,0,0,1.984,1.029q12.623-.012,25.246,0Zm20.5-47.435-.127-.026c-.009.1-.024.2-.027.3q-.165,6.045-.326,12.089c-.13,4.956-.249,9.911-.394,14.865-.016.53.082.754.669.728.931-.043.936-.007.92-.719-.073-2.928-.164-5.856-.223-8.784-.057-2.874-.073-5.751-.131-8.625-.022-1.042-.135-2.081-.171-3.124-.075-2.234-.128-4.469-.19-6.7Zm1.625-4.873a1.711,1.711,0,1,0-1.813,1.682l.085,0a1.681,1.681,0,0,0,1.728-1.635v-.049Z" transform="translate(346.379 2113.555)" fill="#393939"/>
    <path id="Path_69040" data-name="Path 69040" d="M132.21,61.993a26.174,26.174,0,0,1,1.486-7.95,24.083,24.083,0,0,1,11.818-13.707,2.4,2.4,0,0,1,1.121-.316,1.143,1.143,0,0,1,1.1.961,1.227,1.227,0,0,1-.618,1.444c-.687.4-1.4.755-2.072,1.179a20.889,20.889,0,0,0-7.469,8.056,23.973,23.973,0,0,0-1.31,2.934,21.3,21.3,0,0,0,.086,15.12c.095.255.208.5.293.762a1.3,1.3,0,0,1-.676,1.683,1.241,1.241,0,0,1-1.656-.58,1.109,1.109,0,0,1-.055-.133,33.428,33.428,0,0,1-1.368-4.361C132.541,65.412,132.428,63.691,132.21,61.993Z" transform="translate(340.206 2117.611)" fill="#6e40fb"/>
    <path id="Path_69041" data-name="Path 69041" d="M143.966,53.768l.442.134a4.461,4.461,0,0,1,1.556-2.8,16.7,16.7,0,0,1,4.722-3.384A1.281,1.281,0,0,1,152.6,48.8a1.414,1.414,0,0,1-.953,1.343,13.95,13.95,0,0,0-4.349,3.352c-3.909,4.559-4.738,9.687-2.779,15.315.055.156.13.309.184.468a1.282,1.282,0,0,1-.649,1.694L144,70.99a1.24,1.24,0,0,1-1.642-.612,1.119,1.119,0,0,1-.051-.131,30.94,30.94,0,0,1-1.181-4.152,15.3,15.3,0,0,1,.416-7.328c.505-1.632.941-3.332,2.24-4.6A1.268,1.268,0,0,0,143.966,53.768Z" transform="translate(338.604 2116.218)" fill="#6e40fb"/>
    <path id="Path_69042" data-name="Path 69042" d="M149.408,64.814a10.493,10.493,0,0,1,5.883-9.451,1.317,1.317,0,0,1,2.058.733,1.223,1.223,0,0,1-.571,1.407c-.3.19-.629.333-.932.52a7.919,7.919,0,0,0-3.219,9.8c.359.895.238,1.522-.364,1.9a1.3,1.3,0,0,1-1.8-.381,1.345,1.345,0,0,1-.128-.253A10.19,10.19,0,0,1,149.408,64.814Z" transform="translate(337.024 2114.813)" fill="#6e40fb"/>
    <path id="Path_69044" data-name="Path 69044" d="M160.684,73.2c.062,2.235.115,4.469.191,6.7.036,1.039.15,2.081.171,3.124.059,2.874.073,5.75.13,8.624.059,2.929.149,5.857.222,8.784.017.712.01.676-.92.719-.588.027-.685-.2-.67-.728.147-4.955.265-9.911.4-14.865q.159-6.044.325-12.089c0-.1.018-.2.028-.3Z" transform="translate(335.101 2111.478)" fill="#fff"/>
    <path id="Path_69046" data-name="Path 69046" d="M105.823,120.3a3.391,3.391,0,0,1,3.337-3.444h.055a3.417,3.417,0,1,1-3.393,3.445Zm3.544-.835a.819.819,0,0,0-.922.7.805.805,0,0,0,.716.91h.055a.8.8,0,0,0,.844-.75c0-.02,0-.04,0-.06a.772.772,0,0,0-.7-.8Z" transform="translate(345.088 2103.395)" fill="#393939"/>
    <path id="Path_69047" data-name="Path 69047" d="M120.065,116.858c1.945-.163,3.356,1.846,3.417,3.376a3.359,3.359,0,0,1-3.258,3.456c-.038,0-.076,0-.114,0a3.417,3.417,0,0,1-.045-6.834Zm.094,4.225a.775.775,0,0,0,.727-.811.815.815,0,0,0-1.63,0,.832.832,0,0,0,.849.814l.054,0Z" transform="translate(343.081 2103.396)" fill="#393939"/>
    <path id="Trazado_836291" data-name="Trazado 836291" d="M0,0H73V24.109H0Z" transform="translate(660.146 2342.045)" fill="url(#linear-gradient)"/>
    <path id="Trazado_836292" data-name="Trazado 836292" d="M0,0H72.327V23.439H0Z" transform="translate(660.481 2342.38)" fill="none" stroke="#707070" stroke-width="1"/>
    <path id="Path_69039-2" data-name="Path 69039" d="M421.364,262.891c0-.976,8.713-.429,8.737,0h1.942a5.733,5.733,0,0,1,6.008,5.445q.013.28,0,.559.013,8.258,0,16.515a5.685,5.685,0,0,1-5.984,5.929H366.656a5.687,5.687,0,0,1-6.017-5.975q-.015-8.216,0-16.433a5.741,5.741,0,0,1,6.055-6.039Zm-22,25.106c10.736,0,21.472-.029,32.209.024,2.032.011,3.191-.937,3.152-3.187-.094-5.286-.027-10.574-.032-15.861a2.428,2.428,0,0,0-2.751-2.73q-32.613,0-65.228,0A2.413,2.413,0,0,0,364,268.927q-.009,8.214.008,16.428c0,.443,1.716,2.65,2.822,2.649q16.268-.016,32.531-.007Z" transform="translate(297.945 2076.478)" fill="#393939"/>
    <path id="Path_69046-2" data-name="Path 69046" d="M372,279.519a4.371,4.371,0,0,1,4.3-4.438h.071A4.4,4.4,0,1,1,372,279.519Zm4.566-1.077a1.056,1.056,0,0,0-1.188.9.941.941,0,0,0-.01.136.985.985,0,0,0,.932,1.036c.024,0,.048,0,.072,0a1.028,1.028,0,0,0,1.087-.967c0-.026,0-.051,0-.077a1,1,0,0,0-.9-1.034Z" transform="translate(295.842 2074.121)" fill="#393939"/>
    <path id="Path_95199" data-name="Path 95199" d="M399.831,279.519a4.37,4.37,0,0,1,4.3-4.438h.07a4.4,4.4,0,1,1-4.371,4.439Zm4.566-1.077a1.057,1.057,0,0,0-1.189.9,1.08,1.08,0,0,0-.009.136.985.985,0,0,0,.932,1.036c.024,0,.048,0,.072,0a1.028,1.028,0,0,0,1.087-.967c0-.026,0-.051,0-.077a.994.994,0,0,0-.9-1.034Z" transform="translate(290.693 2074.121)" fill="#393939"/>
    <path id="Path_69047-2" data-name="Path 69047" d="M390.35,275.078c2.5-.21,4.324,2.379,4.4,4.349a4.329,4.329,0,0,1-4.2,4.455l-.147,0a4.4,4.4,0,0,1-.057-8.805Zm.12,5.443a1,1,0,0,0,.937-1.044,1.051,1.051,0,0,0-2.1,0,1.072,1.072,0,0,0,1.095,1.048c.023,0,.046,0,.069,0Z" transform="translate(293.256 2074.124)" fill="#393939"/>
    <path id="Path_95198" data-name="Path 95198" d="M423.74,269.327c2.5-.21,4.323,2.378,4.4,4.349a4.328,4.328,0,0,1-4.2,4.454l-.147,0a4.4,4.4,0,0,1-.058-8.805Zm.12,5.443a1,1,0,0,0,.937-1.044,1.051,1.051,0,0,0-2.1,0,1.072,1.072,0,0,0,1.095,1.048c.023,0,.046,0,.069,0Z" transform="translate(287.078 2075.188)" fill="#393939"/>
    <path id="Path_95201" data-name="Path 95201" d="M423.74,281.288c2.5-.21,4.323,2.379,4.4,4.35a4.328,4.328,0,0,1-4.2,4.454l-.147,0a4.4,4.4,0,0,1-.058-8.805Zm.12,5.443a1,1,0,0,0,.937-1.044,1.051,1.051,0,0,0-2.1,0,1.073,1.073,0,0,0,1.095,1.049c.023,0,.046,0,.069,0Z" transform="translate(287.078 2072.976)" fill="#393939"/>
    <path id="Path_95200" data-name="Path 95200" d="M437.635,269.327c2.5-.21,4.324,2.378,4.4,4.349a4.328,4.328,0,0,1-4.2,4.454l-.146,0a4.4,4.4,0,1,1-.058-8.805Zm.12,5.443a1,1,0,0,0,.937-1.044,1.05,1.05,0,0,0-2.1,0,1.071,1.071,0,0,0,1.094,1.048c.024,0,.046,0,.069,0Z" transform="translate(284.508 2075.188)" fill="#393939"/>
    <path id="Path_95202" data-name="Path 95202" d="M437.635,281.288c2.5-.21,4.324,2.379,4.4,4.35a4.328,4.328,0,0,1-4.2,4.454l-.146,0a4.4,4.4,0,1,1-.058-8.805Zm.12,5.443a1,1,0,0,0,.937-1.044,1.05,1.05,0,0,0-2.1,0,1.072,1.072,0,0,0,1.094,1.049c.024,0,.046,0,.069,0Z" transform="translate(284.508 2072.976)" fill="#393939"/>
    <path id="Path_116867" data-name="Path 116867" d="M363.37,91.619h2.456a1.166,1.166,0,0,1,1.214,1.115h0a.408.408,0,0,1,0,.089c.01.771,0,1.542,0,2.313v.271h4.328a2.353,2.353,0,0,1,2.472,2.229h0v15.176a2.353,2.353,0,0,1-2.282,2.422h0a.86.86,0,0,1-.13,0H370.4v3q-.015,2-.033,4.017a1.152,1.152,0,0,1-1.136,1.168h-5.694a1.147,1.147,0,0,1-1.2-1.093v-.008a.641.641,0,0,1,0-.112v-2.58H319.393c0,.089-.014.172-.014.255v2.271a1.186,1.186,0,0,1-1.1,1.267h0a1.461,1.461,0,0,1-.169,0h-5.519a1.172,1.172,0,0,1-1.267-1.064,1.748,1.748,0,0,1,0-.185v-6.949h-.636a10.539,10.539,0,0,1-1.763-.1,2.253,2.253,0,0,1-1.738-2.236V97.9a2.361,2.361,0,0,1,2.215-2.5h4.918v-2.57a1.158,1.158,0,0,1,1.1-1.218h3.023V59.572a1.152,1.152,0,0,1,1.057-1.24h.011a1.173,1.173,0,0,1,1.267,1.071v.071c.01.294,0,.592,0,.887V91.627h2.71a1.164,1.164,0,0,1,1.212,1.114V95.4h32.587c0-.082.01-.165.01-.251,0-.725.017-1.449,0-2.17a1.249,1.249,0,0,1,1.122-1.357,1.222,1.222,0,0,1,.218,0c.755.036,1.513,0,2.267,0l.079-.017V59.572a1.187,1.187,0,0,1,1.581-1.192,1.241,1.241,0,0,1,.787,1.258v9.514c0,.681-.023,1.366-.03,2.048,0,.215.03.437.03.652V91.373Zm-53.8,21.252h61.909V97.787H309.565Zm58.455,2.369H313.708v2.038h54.315ZM316.69,93.979v1.41h5.671v-1.41Zm47.985,0h-4.987v1.41h4.987ZM313.7,121.059h3.313v-1.418H313.7Zm54.3-1.418H364.7v1.424H368Z" transform="translate(307.834 2114.227)" fill="#12263f"/>
    <path id="Path_116868" data-name="Path 116868" d="M344.9,60.05a21.042,21.042,0,0,1,10.119,2.57,21.675,21.675,0,0,1,4.742,3.524,1.184,1.184,0,0,1,.178,1.664h0a1.179,1.179,0,0,1-.582.391,1.157,1.157,0,0,1-1.2-.321,18.869,18.869,0,0,0-3.778-2.915,18.446,18.446,0,0,0-6.81-2.38A18.756,18.756,0,0,0,331.714,67.8a1.226,1.226,0,0,1-1.462.324,1.173,1.173,0,0,1-.543-1.566,1.259,1.259,0,0,1,.235-.324A20.432,20.432,0,0,1,332.7,63.9a20.947,20.947,0,0,1,12.2-3.854Z" transform="translate(303.688 2113.905)" fill="#6e40fb"/>
    <path id="Path_116869" data-name="Path 116869" d="M345.424,68.137a16.649,16.649,0,0,1,11.887,4.8,1.183,1.183,0,0,1,.09,1.671h0l-.06.063a1.2,1.2,0,0,1-1.694-.063l0,0h0a14.232,14.232,0,0,0-20.019,0,1.18,1.18,0,0,1-1.741-1.595.617.617,0,0,1,.1-.1,16.585,16.585,0,0,1,3.633-2.717,16.263,16.263,0,0,1,6.817-2.009C344.822,68.157,345.212,68.137,345.424,68.137Z" transform="translate(302.952 2112.409)" fill="#6e40fb"/>
    <path id="Path_116870" data-name="Path 116870" d="M354.524,81.628a1.17,1.17,0,0,1-.837-.355,10.592,10.592,0,0,0-14.861-.079,1.233,1.233,0,0,1-1.38.347,1.152,1.152,0,0,1-.665-1.487v0a1.171,1.171,0,0,1,.307-.45,17.61,17.61,0,0,1,2.008-1.632,12.263,12.263,0,0,1,6.3-2.115,12.713,12.713,0,0,1,9.252,3.1c.245.2.483.424.709.645a1.186,1.186,0,0,1,.252,1.337A1.141,1.141,0,0,1,354.524,81.628Z" transform="translate(302.372 2110.986)" fill="#6e40fb"/>
    <path id="Path_116876" data-name="Path 116876" d="M352.693,119.479H333.269A1.189,1.189,0,0,1,332,118.6a1.523,1.523,0,0,1-.037-.344v-6.448c0-.46.01-.917.02-1.377a1.137,1.137,0,0,1,1.023-.986l36.689-.02h2.376a1.225,1.225,0,0,1,1.366,1.066v0a1.165,1.165,0,0,1,0,.3v7.334a1.207,1.207,0,0,1-1.049,1.347h0a1.214,1.214,0,0,1-.288,0H352.693Zm18.375-7.687H334.317v5.317h36.751Z" transform="translate(303.25 2104.771)" fill="#12263f"/>
    <path id="Path_116877" data-name="Path 116877" d="M328.169,114.448v3.786a1.192,1.192,0,0,1-1.138,1.241h-.043a1.179,1.179,0,0,1-1.165-1.192v-.04c0-1.1.013-2.2.013-3.3,0-1.433-.013-2.865-.013-4.3a1.169,1.169,0,0,1,1.1-1.234h.009a1.17,1.17,0,0,1,1.234,1.1v0a.993.993,0,0,1,0,.139c0,.946-.01,1.9-.017,2.845v.933Z" transform="translate(304.386 2104.771)" fill="#12263f"/>
    <path id="Path_116878" data-name="Path 116878" d="M323.355,114.451v3.805a1.171,1.171,0,1,1-2.342.056h0v-7.687a1.174,1.174,0,0,1,2.346-.089v.079C323.367,111.9,323.355,113.173,323.355,114.451Z" transform="translate(305.275 2104.772)" fill="#12263f"/>
    <path id="Path_116880" data-name="Path 116880" d="M348.307,114.117a5.76,5.76,0,0,1,.923.1,1.141,1.141,0,0,1,.808,1.24,1.16,1.16,0,0,1-1.089,1.033c-.45.02-.9.023-1.35,0a1.142,1.142,0,0,1-1.064-1.211h0a1.153,1.153,0,0,1,1.122-1.119h.652Z" transform="translate(300.554 2103.902)" fill="#12263f"/>
    <path id="Path_116881" data-name="Path 116881" d="M362.639,114.129a6.06,6.06,0,0,1,.876.073,1.152,1.152,0,0,1,.865,1.248,1.165,1.165,0,0,1-1.109,1.038,8.522,8.522,0,0,1-1.532-.053,1.093,1.093,0,0,1-.864-1.267A1.168,1.168,0,0,1,362,114.155h.632Z" transform="translate(297.904 2103.899)" fill="#12263f"/>
    <path id="Path_116882" data-name="Path 116882" d="M341.116,116.5c-.208,0-.42.01-.628,0a1.17,1.17,0,0,1-1.112-1.227v0a1.167,1.167,0,0,1,1.168-1.112h1.142a1.172,1.172,0,0,1,1.178,1.167h0a1.172,1.172,0,0,1-1.115,1.171c-.212.014-.424,0-.632,0Z" transform="translate(301.878 2103.895)" fill="#12263f"/>
    <path id="Path_116883" data-name="Path 116883" d="M355.47,114.158h.582a1.179,1.179,0,0,1,1.165,1.108,1.157,1.157,0,0,1-1.042,1.221,9.826,9.826,0,0,1-1.469,0,1.146,1.146,0,0,1-1.009-1.2,1.171,1.171,0,0,1,1.121-1.128h.652Z" transform="translate(299.229 2103.895)" fill="#12263f"/>
    <path id="Path_116884" data-name="Path 116884" d="M369.789,114.129a6.456,6.456,0,0,1,.9.073,1.152,1.152,0,0,1-.241,2.266c-.42.02-.834.03-1.25.02a1.172,1.172,0,0,1-1.158-1.185h0a1.173,1.173,0,0,1,1.188-1.158h.562Z" transform="translate(296.574 2103.899)" fill="#12263f"/>
    <path id="Trazado_117890" data-name="Trazado 117890" d="M79.19,259.743a1.734,1.734,0,0,1-1.619-1.748v-7.326a1.7,1.7,0,0,1,.5-1.2l4.538-4.538a1.7,1.7,0,0,1,1.2-.5h10.5a1.733,1.733,0,0,1,1.748,1.619,1.7,1.7,0,0,1-1.7,1.784H84.609a.228.228,0,0,0-.161.067l-3.407,3.408a.224.224,0,0,0-.067.16v6.575A1.7,1.7,0,0,1,79.19,259.743Z" transform="translate(350.314 2079.792)" fill="#f8f7f7"/>
    <path id="Trazado_117891" data-name="Trazado 117891" d="M79.19,290.784a1.734,1.734,0,0,0-1.619,1.748v7.326a1.7,1.7,0,0,0,.5,1.2l4.538,4.538a1.7,1.7,0,0,0,1.2.5h10.5a1.733,1.733,0,0,0,1.748-1.619,1.7,1.7,0,0,0-1.7-1.784H84.609a.228.228,0,0,1-.161-.067l-3.407-3.408a.224.224,0,0,1-.067-.161v-6.574A1.7,1.7,0,0,0,79.19,290.784Z" transform="translate(350.314 2071.217)" fill="#f8f7f7"/>
    <path id="Trazado_117892" data-name="Trazado 117892" d="M95.165,262.518H79.35c-.6,0-1.083-.762-1.083-1.7s.485-1.7,1.083-1.7H95.165c.6,0,1.083.762,1.083,1.7s-.485,1.7-1.083,1.7Z" transform="translate(350.187 2077.074)" fill="#f8f7f7"/>
    <path id="Trazado_117893" data-name="Trazado 117893" d="M95.165,294.115H79.35c-.6,0-1.083-.762-1.083-1.7s.485-1.7,1.083-1.7H95.165c.6,0,1.083.762,1.083,1.7s-.485,1.7-1.083,1.7Z" transform="translate(350.187 2071.229)" fill="#f8f7f7"/>
    <path id="Trazado_117894" data-name="Trazado 117894" d="M77.154,288.269a1.7,1.7,0,0,1-1.361-.679L66.15,274.772a1.7,1.7,0,0,1,0-2.04L75.789,259.8a1.7,1.7,0,0,1,2.729,2.034l-8.882,11.91,8.877,11.8a1.7,1.7,0,0,1-1.359,2.724Z" transform="translate(352.491 2077.074)" fill="#f8f7f7"/>
    <path id="Trazado_117895" data-name="Trazado 117895" d="M92.216,278.316H67.372a1.7,1.7,0,1,1,0-3.4H92.216a1.7,1.7,0,1,1,0,3.4Z" transform="translate(352.517 2074.151)" fill="#f8f7f7"/>
    <path id="Trazado_117896" data-name="Trazado 117896" d="M100.918,245.814a3.406,3.406,0,0,0-4.562-3.2,3.64,3.64,0,0,0-.707.517,3.083,3.083,0,0,0-1.337,2.685,3.142,3.142,0,0,0,3.2,3.289,3.305,3.305,0,0,0,3.2-2.13A3.394,3.394,0,0,0,100.918,245.814Z" transform="translate(347.218 2080.165)" fill="#b3e59f"/>
    <path id="Trazado_117897" data-name="Trazado 117897" d="M100.67,247.019a3.4,3.4,0,1,1-4.359-4.359,3.406,3.406,0,0,0,4.359,4.359Z" transform="translate(347.263 2080.119)" fill="#95d6a4"/>
    <path id="Trazado_117898" data-name="Trazado 117898" d="M100.918,260.43a3.406,3.406,0,0,0-4.562-3.2,3.64,3.64,0,0,0-.707.517,3.082,3.082,0,0,0-1.337,2.685,3.142,3.142,0,0,0,3.2,3.289,3.306,3.306,0,0,0,3.2-2.13A3.394,3.394,0,0,0,100.918,260.43Z" transform="translate(347.218 2077.461)" fill="#b3e59f"/>
    <path id="Trazado_117899" data-name="Trazado 117899" d="M100.67,261.635a3.4,3.4,0,1,1-4.359-4.36,3.406,3.406,0,0,0,4.359,4.36Z" transform="translate(347.263 2077.416)" fill="#95d6a4"/>
    <path id="Trazado_117900" data-name="Trazado 117900" d="M82.28,260.43a3.406,3.406,0,0,0-4.562-3.2,3.665,3.665,0,0,0-.707.517,3.082,3.082,0,0,0-1.336,2.685,3.141,3.141,0,0,0,3.2,3.289,3.307,3.307,0,0,0,3.2-2.13A3.393,3.393,0,0,0,82.28,260.43Z" transform="translate(350.666 2077.461)" fill="#b3e59f"/>
    <path id="Trazado_117901" data-name="Trazado 117901" d="M82.033,261.635a3.4,3.4,0,1,1-4.359-4.36,3.406,3.406,0,0,0,4.359,4.36Z" transform="translate(350.712 2077.416)" fill="#95d6a4"/>
    <path id="Trazado_117902" data-name="Trazado 117902" d="M100.918,276.229a3.406,3.406,0,0,0-4.562-3.2,3.671,3.671,0,0,0-.707.516,3.085,3.085,0,0,0-1.337,2.685,3.142,3.142,0,0,0,3.2,3.289,3.306,3.306,0,0,0,3.2-2.13A3.394,3.394,0,0,0,100.918,276.229Z" transform="translate(347.218 2074.538)" fill="#b3e59f"/>
    <path id="Trazado_117903" data-name="Trazado 117903" d="M100.67,277.433a3.4,3.4,0,1,1-4.359-4.359,3.4,3.4,0,0,0,4.359,4.359Z" transform="translate(347.263 2074.492)" fill="#95d6a4"/>
    <path id="Trazado_117904" data-name="Trazado 117904" d="M100.918,292.027a3.4,3.4,0,0,0-4.562-3.2,3.637,3.637,0,0,0-.707.516,3.084,3.084,0,0,0-1.337,2.685,3.141,3.141,0,0,0,3.2,3.289,3.306,3.306,0,0,0,3.2-2.13A3.39,3.39,0,0,0,100.918,292.027Z" transform="translate(347.218 2071.615)" fill="#b3e59f"/>
    <path id="Trazado_117905" data-name="Trazado 117905" d="M100.67,293.232a3.4,3.4,0,1,1-4.359-4.359,3.4,3.4,0,0,0,4.359,4.359Z" transform="translate(347.263 2071.569)" fill="#95d6a4"/>
    <path id="Trazado_117906" data-name="Trazado 117906" d="M82.405,292.027a3.4,3.4,0,0,0-4.562-3.2,3.637,3.637,0,0,0-.707.516,3.084,3.084,0,0,0-1.337,2.685,3.141,3.141,0,0,0,3.2,3.289,3.306,3.306,0,0,0,3.2-2.13A3.39,3.39,0,0,0,82.405,292.027Z" transform="translate(350.643 2071.615)" fill="#b3e59f"/>
    <path id="Trazado_117907" data-name="Trazado 117907" d="M82.157,293.232a3.4,3.4,0,1,1-4.359-4.359,3.4,3.4,0,0,0,4.359,4.359Z" transform="translate(350.688 2071.569)" fill="#95d6a4"/>
    <path id="Trazado_117908" data-name="Trazado 117908" d="M100.918,306.6a3.4,3.4,0,0,0-4.562-3.2,3.6,3.6,0,0,0-.707.516,3.083,3.083,0,0,0-1.337,2.685,3.141,3.141,0,0,0,3.2,3.289,3.305,3.305,0,0,0,3.2-2.13A3.394,3.394,0,0,0,100.918,306.6Z" transform="translate(347.218 2068.919)" fill="#b3e59f"/>
    <path id="Trazado_117909" data-name="Trazado 117909" d="M100.67,307.806a3.4,3.4,0,1,1-4.359-4.359,3.4,3.4,0,0,0,4.359,4.359Z" transform="translate(347.263 2068.873)" fill="#95d6a4"/>
    <path id="Trazado_117910" data-name="Trazado 117910" d="M61.419,257.466a1.131,1.131,0,0,1-.986.722c-6.183.37-11.222,6.024-11.222,12.3s5.039,11.973,11.221,12.344a1.131,1.131,0,0,1,.988.725l1.987,3.845,1.923,5.012,1.256,3.64a1.122,1.122,0,0,1,.064.57,2.281,2.281,0,0,1-2.255,1.943H58.652a2.28,2.28,0,0,1-2.28-2.28v-2.456a2.278,2.278,0,0,0-1.562-2.163,30.272,30.272,0,0,1-3.575-1.247,2.281,2.281,0,0,0-2.638.422l-1.738,1.738c-.891.891-1.768,1.117-2.658.227l-4.542-4.542a2.283,2.283,0,0,1,0-3.225L41.4,283.3a2.281,2.281,0,0,0,.422-2.638,26.328,26.328,0,0,1-1.473-3.236,2.279,2.279,0,0,0-2.164-1.561H35.726a2.28,2.28,0,0,1-2.28-2.28v-5.97a2.28,2.28,0,0,1,2.28-2.28h2.456a2.366,2.366,0,0,0,2.05-1.789,22.29,22.29,0,0,1,1.247-3.008,2.279,2.279,0,0,0-.422-2.638l-1.738-1.738a2.281,2.281,0,0,1,0-3.225L43.86,248.4a2.283,2.283,0,0,1,3.225,0l1.738,1.739a2.279,2.279,0,0,0,2.637.422,22.3,22.3,0,0,1,3.009-1.247,2.278,2.278,0,0,0,1.562-2.163v-2.456a2.281,2.281,0,0,1,2.28-2.28h6.31a2.282,2.282,0,0,1,2.256,1.941,1.127,1.127,0,0,1-.066.573l-3.438,8.891Z" transform="translate(358.479 2080.165)" fill="url(#linear-gradient-2)"/>
    <path id="Trazado_117911" data-name="Trazado 117911" d="M66.851,301.68a2.282,2.282,0,0,1-2.256,1.944h-6.31a2.281,2.281,0,0,1-2.28-2.28v-2.456a2.278,2.278,0,0,0-1.562-2.163,22.3,22.3,0,0,1-3.009-1.247,2.279,2.279,0,0,0-2.637.422l-1.738,1.738a2.28,2.28,0,0,1-3.225,0L39.292,293.1a2.281,2.281,0,0,1,0-3.225l1.738-1.738a2.279,2.279,0,0,0,.422-2.638,22.293,22.293,0,0,1-1.247-3.008,2.277,2.277,0,0,0-2.163-1.562H35.587a2.28,2.28,0,0,1-2.28-2.28v-6.423a2.28,2.28,0,0,1,2.28-2.28h2.456a2.278,2.278,0,0,0,2.109-1.416q-.039.726-.039,1.462A27.344,27.344,0,0,0,65.3,297.245l1.482,3.866a1.12,1.12,0,0,1,.065.569Z" transform="translate(358.505 2075.334)" fill="url(#linear-gradient-2)"/>
    <path id="Trazado_117912" data-name="Trazado 117912" d="M65.931,289.964c-.567.055-1.377.1-1.941.1a16.9,16.9,0,0,1,0-33.806c.485,0,1.412.076,1.906.118l-1.635,4.229a1.13,1.13,0,0,1-.987.723,11.8,11.8,0,0,0,0,23.553,1.131,1.131,0,0,1,.989.725Z" transform="translate(355.955 2077.603)" fill="url(#linear-gradient-2)"/>
    <path id="Trazado_117913" data-name="Trazado 117913" d="M59.862,275.457a6.54,6.54,0,0,1,2.567-5.562,6.808,6.808,0,0,1,9.649,9.245,6.624,6.624,0,0,1-5.725,2.916A6.37,6.37,0,0,1,59.862,275.457Z" transform="translate(353.592 2075.311)" fill="#b3e59f"/>
    <path id="Trazado_117914" data-name="Trazado 117914" d="M72.008,279.385a6.808,6.808,0,1,1-9.409-9.409,6.809,6.809,0,0,0,9.409,9.409Z" transform="translate(353.663 2075.065)" fill="#95d6a4"/>
    <path id="Trazado_117915" data-name="Trazado 117915" d="M79.155,260.086h8.286a4.254,4.254,0,1,0,0-5.105H79.155a4.3,4.3,0,0,0-.905-.89V251.16l3.043-3.043H87.4a4.254,4.254,0,1,0,.086-5.105H80.235a2.537,2.537,0,0,0-1.805.748L73.892,248.3a2.534,2.534,0,0,0-.748,1.8v4.074a4.307,4.307,0,0,0-1.471,4.559L68.4,263.121a7.657,7.657,0,1,0-.037,14.587l3.3,4.391a4.247,4.247,0,0,0,1.476,4.541v4.074a2.534,2.534,0,0,0,.748,1.8l4.537,4.538a2.536,2.536,0,0,0,1.805.747h7.251a4.254,4.254,0,1,0-.086-5.1H81.292l-3.042-3.043v-2.931a4.3,4.3,0,0,0,.905-.89h8.286a4.254,4.254,0,1,0,0-5.105H79.155a4.25,4.25,0,0,0-3.4-1.7h-.006l-3.31-4.4a7.637,7.637,0,0,0,.835-1.67H87.441a4.254,4.254,0,1,0,0-5.1H82.5a.85.85,0,1,0,0,1.7h4.173a4.457,4.457,0,0,0,0,1.7H73.663a7.876,7.876,0,0,0,0-1.7H78.42a.85.85,0,1,0,0-1.7H73.273a7.626,7.626,0,0,0-.813-1.637l3.306-4.434a4.251,4.251,0,0,0,3.389-1.7Zm11.687-5.105a2.553,2.553,0,1,1-2.553,2.553A2.555,2.555,0,0,1,90.842,254.981Zm-10.919,1.7h6.751a4.457,4.457,0,0,0,0,1.7H79.922a4.273,4.273,0,0,0,0-1.7Zm10.919-13.613a2.553,2.553,0,1,1-2.553,2.553A2.555,2.555,0,0,1,90.842,243.069Zm0,49.575a2.553,2.553,0,1,1-2.553,2.553A2.555,2.555,0,0,1,90.842,292.643Zm0-11.912a2.553,2.553,0,1,1-2.553,2.553A2.555,2.555,0,0,1,90.842,280.732Zm-10.919,1.7h6.751a4.457,4.457,0,0,0,0,1.7H79.922A4.473,4.473,0,0,0,79.922,282.433Zm10.919-14.577a2.552,2.552,0,1,1-2.553,2.552A2.555,2.555,0,0,1,90.842,267.856Zm-16-17.754a.845.845,0,0,1,.249-.6l4.538-4.538a.845.845,0,0,1,.6-.249h6.451a4.213,4.213,0,0,0-.023,1.7H80.939a.849.849,0,0,0-.6.249L76.8,250.206a.85.85,0,0,0-.249.6v2.547a4.38,4.38,0,0,0-1.7.024Zm-8.791,26.262a5.956,5.956,0,1,1,5.955-5.956A5.962,5.962,0,0,1,66.055,276.364Zm14.283,17.789a.849.849,0,0,0,.6.249h5.724a4.389,4.389,0,0,0,.023,1.7H80.235a.844.844,0,0,1-.6-.249L75.1,291.317a.847.847,0,0,1-.249-.6V287.44a4.461,4.461,0,0,0,1.7.024v2.547a.85.85,0,0,0,.249.6Zm-4.584-13.421a2.553,2.553,0,1,1-2.553,2.553A2.555,2.555,0,0,1,75.754,280.732Zm-1.826-1.289a4.277,4.277,0,0,0-1.359,1.025l-2.613-3.474a7.7,7.7,0,0,0,1.357-1.027ZM71.34,264.876a7.707,7.707,0,0,0-1.352-1.034l2.594-3.478a4.277,4.277,0,0,0,1.363,1.019Zm1.861-7.343a2.553,2.553,0,1,1,2.553,2.552A2.555,2.555,0,0,1,73.2,257.533Z" transform="translate(353.863 2080.358)" fill="#393939"/>
    <path id="Trazado_117916" data-name="Trazado 117916" d="M59.171,297.749H58.057a1.431,1.431,0,0,1-1.429-1.429v-2.456a3.124,3.124,0,0,0-2.146-2.971,21.5,21.5,0,0,1-2.893-1.2,3.126,3.126,0,0,0-3.622.58l-1.738,1.738a1.429,1.429,0,0,1-2.022,0l-4.542-4.54a1.434,1.434,0,0,1,0-2.023L41.4,283.71a3.126,3.126,0,0,0,.58-3.622,21.542,21.542,0,0,1-1.2-2.893,3.124,3.124,0,0,0-2.971-2.146H35.359a1.431,1.431,0,0,1-1.429-1.43V267.2a1.431,1.431,0,0,1,1.429-1.43h2.456a3.124,3.124,0,0,0,2.971-2.146,21.541,21.541,0,0,1,1.2-2.893,3.125,3.125,0,0,0-.581-3.622l-1.738-1.738a1.433,1.433,0,0,1,0-2.022l4.542-4.542a1.432,1.432,0,0,1,2.022,0l1.738,1.739a3.124,3.124,0,0,0,3.621.58,21.554,21.554,0,0,1,2.894-1.2,3.124,3.124,0,0,0,2.146-2.971V244.5a1.431,1.431,0,0,1,1.429-1.429h6.31a1.436,1.436,0,0,1,1.413,1.216.28.28,0,0,1-.017.14l-.863,2.231a.851.851,0,1,0,1.588.614l.862-2.231a1.971,1.971,0,0,0,.113-1,3.148,3.148,0,0,0-3.1-2.667h-6.31a3.134,3.134,0,0,0-3.13,3.131v2.456a1.426,1.426,0,0,1-.979,1.355,23.219,23.219,0,0,0-3.124,1.294,1.426,1.426,0,0,1-1.654-.263l-1.738-1.74a3.137,3.137,0,0,0-4.428,0l-4.543,4.543a3.136,3.136,0,0,0,0,4.428l1.738,1.738a1.427,1.427,0,0,1,.264,1.654,23.317,23.317,0,0,0-1.3,3.123,1.425,1.425,0,0,1-1.355.979H35.359a3.134,3.134,0,0,0-3.131,3.131v6.423a3.134,3.134,0,0,0,3.131,3.131h2.456a1.426,1.426,0,0,1,1.356.979,23.2,23.2,0,0,0,1.294,3.123,1.429,1.429,0,0,1-.263,1.654l-1.74,1.738a3.138,3.138,0,0,0,0,4.429L43,293.215a3.135,3.135,0,0,0,4.429,0l1.738-1.738a1.426,1.426,0,0,1,1.654-.263,23.221,23.221,0,0,0,3.124,1.294,1.426,1.426,0,0,1,.979,1.355v2.456a3.135,3.135,0,0,0,3.131,3.131h1.112a.851.851,0,1,0,0-1.7Z" transform="translate(358.705 2080.358)" fill="#393939"/>
    <path id="Trazado_117917" data-name="Trazado 117917" d="M64.826,284.467a1.985,1.985,0,0,0-1.731-1.27,10.948,10.948,0,0,1,0-21.855,1.988,1.988,0,0,0,1.729-1.265l2.778-7.185a.851.851,0,0,0-1.588-.614l-.906,2.346c-.447-.034-.9-.052-1.35-.052a17.775,17.775,0,0,0-17.754,17.755,17.578,17.578,0,0,0,3.77,10.94.851.851,0,1,0,1.34-1.05,15.889,15.889,0,0,1-3.408-9.891,16.071,16.071,0,0,1,16.052-16.052c.235,0,.47.006.7.016l-1.227,3.174a.283.283,0,0,1-.244.18,12.649,12.649,0,0,0,0,25.252.282.282,0,0,1,.244.18l1.26,3.285A16.034,16.034,0,0,1,53.782,284.9a.851.851,0,0,0-1.059,1.333,17.683,17.683,0,0,0,12.414,3.8l3.177,8.282a.28.28,0,0,1,.017.14,1.436,1.436,0,0,1-1.413,1.217H65.691a.851.851,0,1,0,0,1.7h1.227a3.149,3.149,0,0,0,3.1-2.669,1.994,1.994,0,0,0-.112-1Z" transform="translate(356.155 2078.44)" fill="#393939"/>
    <path id="Trazado_836273" data-name="Trazado 836273" d="M-16.838-1.348a3.814,3.814,0,0,1-1.677,1.1,7.024,7.024,0,0,1-2.4.392,4.759,4.759,0,0,1-2.428-.6,4.03,4.03,0,0,1-1.611-1.754,6.174,6.174,0,0,1-.582-2.7V-5.64A6.557,6.557,0,0,1-25-8.4a3.982,3.982,0,0,1,1.553-1.787,4.473,4.473,0,0,1,2.377-.619,4.454,4.454,0,0,1,2.966.9,3.866,3.866,0,0,1,1.267,2.633h-2.139a2.126,2.126,0,0,0-.648-1.34,2.07,2.07,0,0,0-1.381-.425,1.948,1.948,0,0,0-1.707.842,4.429,4.429,0,0,0-.593,2.5v.681a4.216,4.216,0,0,0,.637,2.534,2.182,2.182,0,0,0,1.868.857,2.437,2.437,0,0,0,1.765-.527V-3.984h-2V-5.6h4.2Zm6.094-4.592A5.751,5.751,0,0,0-11.506-6a1.55,1.55,0,0,0-1.575.813V0H-15.2V-7.925h2l.059.945a1.961,1.961,0,0,1,1.765-1.091,2.218,2.218,0,0,1,.659.1ZM-4.98-.806A2.654,2.654,0,0,1-7.148.146,2.5,2.5,0,0,1-9.093-.586a3.127,3.127,0,0,1-.685-2.146V-7.925h2.117V-2.8q0,1.239,1.128,1.239a1.528,1.528,0,0,0,1.479-.748V-7.925H-2.93V0H-4.922ZM5.8-3.889A4.753,4.753,0,0,1,4.969-.956,2.665,2.665,0,0,1,2.725.146,2.469,2.469,0,0,1,.784-.688V3.047H-1.333V-7.925H.63L.7-7.148A2.488,2.488,0,0,1,2.71-8.071,2.683,2.683,0,0,1,4.988-6.987,4.882,4.882,0,0,1,5.8-4ZM3.684-4.051a3.136,3.136,0,0,0-.392-1.712,1.275,1.275,0,0,0-1.139-.6A1.385,1.385,0,0,0,.784-5.6v3.255a1.409,1.409,0,0,0,1.384.786Q3.684-1.56,3.684-4.051Zm3.1.015a4.7,4.7,0,0,1,.454-2.1A3.324,3.324,0,0,1,8.544-7.566a3.814,3.814,0,0,1,1.981-.505,3.609,3.609,0,0,1,2.618.981,3.939,3.939,0,0,1,1.132,2.666l.015.542A4.142,4.142,0,0,1,13.271-.956,3.539,3.539,0,0,1,10.54.146,3.556,3.556,0,0,1,7.8-.952,4.215,4.215,0,0,1,6.782-3.94Zm2.117.15a2.962,2.962,0,0,0,.425,1.727,1.4,1.4,0,0,0,1.216.6,1.4,1.4,0,0,0,1.2-.591,3.241,3.241,0,0,0,.432-1.889,2.933,2.933,0,0,0-.432-1.716,1.4,1.4,0,0,0-1.216-.609,1.382,1.382,0,0,0-1.2.605A3.3,3.3,0,0,0,8.9-3.885Zm10.986,1.7A.682.682,0,0,0,19.5-2.8a4.368,4.368,0,0,0-1.234-.4q-2.827-.593-2.827-2.4a2.178,2.178,0,0,1,.875-1.761A3.531,3.531,0,0,1,18.6-8.071a3.8,3.8,0,0,1,2.413.71,2.239,2.239,0,0,1,.9,1.846H19.8a1.024,1.024,0,0,0-.293-.751,1.24,1.24,0,0,0-.916-.3,1.267,1.267,0,0,0-.828.242.763.763,0,0,0-.293.615.652.652,0,0,0,.333.568,3.428,3.428,0,0,0,1.124.374,9.183,9.183,0,0,1,1.333.355,2.19,2.19,0,0,1,1.677,2.131,2.067,2.067,0,0,1-.93,1.754,4.013,4.013,0,0,1-2.4.67,4.191,4.191,0,0,1-1.769-.355,2.968,2.968,0,0,1-1.212-.974A2.263,2.263,0,0,1,15.19-2.52H17.2a1.105,1.105,0,0,0,.417.864,1.656,1.656,0,0,0,1.04.3,1.533,1.533,0,0,0,.919-.231A.718.718,0,0,0,19.885-2.19ZM-28.147,13.979a4.644,4.644,0,0,1,.868-2.937,2.812,2.812,0,0,1,2.34-1.113,2.466,2.466,0,0,1,2.029.894l.088-.747H-20.9v7.661a3.387,3.387,0,0,1-.472,1.809,3.034,3.034,0,0,1-1.329,1.172,4.673,4.673,0,0,1-2.007.4,4.346,4.346,0,0,1-1.7-.348,3.016,3.016,0,0,1-1.252-.9l.938-1.289a2.48,2.48,0,0,0,1.919.886,1.815,1.815,0,0,0,1.311-.45,1.69,1.69,0,0,0,.469-1.278v-.425a2.448,2.448,0,0,1-1.926.828,2.8,2.8,0,0,1-2.311-1.117,4.643,4.643,0,0,1-.883-2.963Zm2.117.151a2.907,2.907,0,0,0,.432,1.7,1.373,1.373,0,0,0,1.187.614,1.469,1.469,0,0,0,1.384-.728V12.364a1.465,1.465,0,0,0-1.37-.728,1.382,1.382,0,0,0-1.2.625A3.278,3.278,0,0,0-26.03,14.13ZM-17.043,18h-2.124V6.75h2.124Zm1.414-4.036a4.7,4.7,0,0,1,.454-2.1,3.324,3.324,0,0,1,1.307-1.428,3.814,3.814,0,0,1,1.981-.505,3.609,3.609,0,0,1,2.618.981,3.939,3.939,0,0,1,1.132,2.666l.015.542a4.142,4.142,0,0,1-1.018,2.926,3.539,3.539,0,0,1-2.732,1.1,3.556,3.556,0,0,1-2.736-1.1A4.215,4.215,0,0,1-15.63,14.06Zm2.117.15a2.962,2.962,0,0,0,.425,1.727,1.4,1.4,0,0,0,1.216.6,1.4,1.4,0,0,0,1.2-.591,3.241,3.241,0,0,0,.432-1.889,2.933,2.933,0,0,0-.432-1.716,1.4,1.4,0,0,0-1.216-.609,1.382,1.382,0,0,0-1.2.605A3.3,3.3,0,0,0-13.513,14.115Zm13.835,0a4.8,4.8,0,0,1-.813,2.97,2.693,2.693,0,0,1-2.271,1.066,2.474,2.474,0,0,1-2.058-.989l-.1.842h-1.9V6.75H-4.7v4.036a2.411,2.411,0,0,1,1.926-.857A2.715,2.715,0,0,1-.5,10.994a4.806,4.806,0,0,1,.824,3Zm-2.117-.161a3.17,3.17,0,0,0-.381-1.76,1.287,1.287,0,0,0-1.135-.555,1.4,1.4,0,0,0-1.392.83V15.6A1.415,1.415,0,0,0-3.3,16.44a1.307,1.307,0,0,0,1.348-1.014A5.245,5.245,0,0,0-1.794,13.949ZM6.218,18a2.351,2.351,0,0,1-.212-.71,2.561,2.561,0,0,1-2,.857,2.814,2.814,0,0,1-1.93-.674,2.167,2.167,0,0,1-.765-1.7,2.24,2.24,0,0,1,.934-1.934,4.608,4.608,0,0,1,2.7-.681h.974V12.7a1.306,1.306,0,0,0-.282-.879,1.109,1.109,0,0,0-.89-.33,1.261,1.261,0,0,0-.839.256.871.871,0,0,0-.3.7H1.487a2.126,2.126,0,0,1,.425-1.274,2.808,2.808,0,0,1,1.2-.919,4.378,4.378,0,0,1,1.743-.333,3.459,3.459,0,0,1,2.325.736,2.575,2.575,0,0,1,.861,2.069v3.435a3.789,3.789,0,0,0,.315,1.707V18Zm-1.75-1.472a1.823,1.823,0,0,0,.864-.209,1.371,1.371,0,0,0,.586-.56V14.4H5.127q-1.589,0-1.692,1.1l-.007.125a.847.847,0,0,0,.278.652A1.081,1.081,0,0,0,4.468,16.528ZM11.9,18H9.778V6.75H11.9Zm5.391.146a3.89,3.89,0,0,1-2.838-1.069,3.8,3.8,0,0,1-1.095-2.849v-.205a4.787,4.787,0,0,1,.461-2.135,3.386,3.386,0,0,1,1.307-1.45,3.669,3.669,0,0,1,1.93-.509,3.289,3.289,0,0,1,2.56,1.025,4.167,4.167,0,0,1,.934,2.908v.864H15.505a1.966,1.966,0,0,0,.619,1.245,1.871,1.871,0,0,0,1.307.469,2.285,2.285,0,0,0,1.912-.886l1.04,1.165a3.178,3.178,0,0,1-1.289,1.051A4.229,4.229,0,0,1,17.292,18.146Zm-.242-6.511a1.323,1.323,0,0,0-1.022.427,2.209,2.209,0,0,0-.5,1.221h2.944v-.169a1.576,1.576,0,0,0-.381-1.092A1.365,1.365,0,0,0,17.051,11.635Zm8.994,4.175a.682.682,0,0,0-.385-.612,4.368,4.368,0,0,0-1.234-.4Q21.6,14.206,21.6,12.4a2.178,2.178,0,0,1,.875-1.761,3.531,3.531,0,0,1,2.289-.707,3.8,3.8,0,0,1,2.413.71,2.239,2.239,0,0,1,.9,1.846H25.964a1.024,1.024,0,0,0-.293-.751,1.24,1.24,0,0,0-.916-.3,1.267,1.267,0,0,0-.828.242.763.763,0,0,0-.293.615.652.652,0,0,0,.333.568,3.428,3.428,0,0,0,1.124.374,9.183,9.183,0,0,1,1.333.355A2.19,2.19,0,0,1,28.1,15.722a2.067,2.067,0,0,1-.93,1.754,4.013,4.013,0,0,1-2.4.67A4.191,4.191,0,0,1,23,17.791a2.968,2.968,0,0,1-1.212-.974,2.263,2.263,0,0,1-.439-1.337h2.007a1.105,1.105,0,0,0,.417.864,1.656,1.656,0,0,0,1.04.3,1.533,1.533,0,0,0,.919-.231A.718.718,0,0,0,26.045,15.81Z" transform="translate(558.468 2321.295)" fill="#fff"/>
    <path id="Trazado_117918" data-name="Trazado 117918" d="M239.025,386.713a7.5,7.5,0,0,0-2.505,14.574h5.011a7.5,7.5,0,0,0-2.506-14.574Z" transform="translate(321.834 2053.469)" fill="#6e40fb"/>
    <path id="Trazado_117919" data-name="Trazado 117919" d="M240.3,427a1.88,1.88,0,0,1-1.879-1.879V403.2a1.879,1.879,0,1,1,3.759,0v21.926A1.88,1.88,0,0,1,240.3,427Z" transform="translate(320.555 2050.766)" fill="#393939"/>
    <path id="Trazado_117920" data-name="Trazado 117920" d="M239.025,401.748a7.517,7.517,0,1,1,7.517-7.517A7.526,7.526,0,0,1,239.025,401.748Zm0-11.276a3.759,3.759,0,1,0,3.759,3.759A3.763,3.763,0,0,0,239.025,390.472Z" transform="translate(321.834 2053.469)" fill="#393939"/>
    <path id="Trazado_117921" data-name="Trazado 117921" d="M253.826,410.912A1.881,1.881,0,0,1,252.5,407.7a26.027,26.027,0,0,0,7.718-18.588,26.311,26.311,0,0,0-52.621,0,26.044,26.044,0,0,0,7.715,18.591,1.88,1.88,0,1,1-2.653,2.663,29.774,29.774,0,0,1-8.821-21.254,30.069,30.069,0,0,1,60.139,0,29.76,29.76,0,0,1-8.823,21.252A1.867,1.867,0,0,1,253.826,410.912Z" transform="translate(326.954 2058.588)" fill="#393939"/>
    <path id="Trazado_117922" data-name="Trazado 117922" d="M249.01,406.1a1.88,1.88,0,0,1-1.323-3.214,16.08,16.08,0,0,0,4.782-11.495,16.288,16.288,0,0,0-32.576,0,16.089,16.089,0,0,0,4.782,11.5,1.88,1.88,0,0,1-2.649,2.668,19.821,19.821,0,0,1-5.892-14.165,20.046,20.046,0,0,1,40.092,0,19.8,19.8,0,0,1-5.893,14.163A1.862,1.862,0,0,1,249.01,406.1Z" transform="translate(324.679 2056.313)" fill="#393939"/>
    <path id="Trazado_836274" data-name="Trazado 836274" d="M-18.662-6.34l.029.7a2.341,2.341,0,0,1,1.881-.82,1.813,1.813,0,0,1,1.811,1.02,2.4,2.4,0,0,1,.823-.738,2.431,2.431,0,0,1,1.2-.281q2.086,0,2.121,2.209V0h-1.084V-4.184A1.456,1.456,0,0,0-12.193-5.2a1.368,1.368,0,0,0-1.043-.337,1.437,1.437,0,0,0-1,.36,1.462,1.462,0,0,0-.463.97V0h-1.09V-4.154a1.209,1.209,0,0,0-1.354-1.383,1.45,1.45,0,0,0-1.459.908V0h-1.084V-6.34Zm9.211,3.111A3.745,3.745,0,0,1-9.085-4.9a2.732,2.732,0,0,1,1.02-1.148,2.775,2.775,0,0,1,1.491-.4,2.674,2.674,0,0,1,2.095.9,3.449,3.449,0,0,1,.8,2.385V-3.1a3.777,3.777,0,0,1-.354,1.661A2.692,2.692,0,0,1-5.048-.293a2.807,2.807,0,0,1-1.515.41,2.667,2.667,0,0,1-2.089-.9,3.432,3.432,0,0,1-.8-2.373Zm1.09.129a2.712,2.712,0,0,0,.489,1.693,1.566,1.566,0,0,0,1.31.639A1.556,1.556,0,0,0-5.25-1.415a2.966,2.966,0,0,0,.486-1.813,2.708,2.708,0,0,0-.5-1.69,1.574,1.574,0,0,0-1.315-.647,1.557,1.557,0,0,0-1.295.639A2.944,2.944,0,0,0-8.361-3.1Zm2.279-5.889H-4.77L-6.34-7.266l-.873,0Zm3.5,5.766a3.714,3.714,0,0,1,.691-2.347A2.186,2.186,0,0,1-.082-6.457,2.2,2.2,0,0,1,1.682-5.7V-9H2.766V0h-1L1.717-.68a2.208,2.208,0,0,1-1.811.8,2.165,2.165,0,0,1-1.8-.9,3.756,3.756,0,0,1-.694-2.355ZM-1.5-3.1a2.812,2.812,0,0,0,.445,1.688A1.44,1.44,0,0,0,.176-.8a1.581,1.581,0,0,0,1.506-.926V-4.641a1.593,1.593,0,0,0-1.494-.9,1.446,1.446,0,0,0-1.242.615A3.1,3.1,0,0,0-1.5-3.1ZM7.078.117a2.77,2.77,0,0,1-2.1-.847,3.142,3.142,0,0,1-.809-2.265v-.2a3.8,3.8,0,0,1,.36-1.685A2.811,2.811,0,0,1,5.54-6.038a2.534,2.534,0,0,1,1.4-.419,2.374,2.374,0,0,1,1.922.814,3.526,3.526,0,0,1,.686,2.332v.451H5.256A2.254,2.254,0,0,0,5.8-1.345a1.722,1.722,0,0,0,1.333.577A1.888,1.888,0,0,0,8.109-1a2.444,2.444,0,0,0,.7-.621l.662.516A2.662,2.662,0,0,1,7.078.117ZM6.943-5.566a1.446,1.446,0,0,0-1.1.478A2.321,2.321,0,0,0,5.291-3.75H8.467v-.082a2.065,2.065,0,0,0-.445-1.28A1.361,1.361,0,0,0,6.943-5.566Zm4.881-.773.029.7a2.341,2.341,0,0,1,1.881-.82,1.813,1.813,0,0,1,1.811,1.02,2.4,2.4,0,0,1,.823-.738,2.431,2.431,0,0,1,1.2-.281q2.086,0,2.121,2.209V0H18.6V-4.184A1.456,1.456,0,0,0,18.293-5.2a1.368,1.368,0,0,0-1.043-.337,1.437,1.437,0,0,0-1,.36,1.462,1.462,0,0,0-.463.97V0H14.7V-4.154a1.209,1.209,0,0,0-1.354-1.383,1.45,1.45,0,0,0-1.459.908V0H10.8V-6.34Z" transform="translate(466.378 2257.989)" fill="#12263f"/>
    <path id="Trazado_836275" data-name="Trazado 836275" d="M-11.985-5.367a3.248,3.248,0,0,0-.533-.041,1.428,1.428,0,0,0-1.447.908V0H-15.05V-6.34H-14l.018.732a1.688,1.688,0,0,1,1.512-.85,1.107,1.107,0,0,1,.48.082Zm.592,2.139A3.745,3.745,0,0,1-11.027-4.9a2.732,2.732,0,0,1,1.02-1.148,2.775,2.775,0,0,1,1.491-.4,2.674,2.674,0,0,1,2.095.9,3.449,3.449,0,0,1,.8,2.385V-3.1a3.777,3.777,0,0,1-.354,1.661A2.692,2.692,0,0,1-6.99-.293,2.807,2.807,0,0,1-8.5.117a2.667,2.667,0,0,1-2.089-.9,3.432,3.432,0,0,1-.8-2.373Zm1.09.129a2.712,2.712,0,0,0,.489,1.693A1.566,1.566,0,0,0-8.5-.768a1.556,1.556,0,0,0,1.313-.647,2.966,2.966,0,0,0,.486-1.813,2.708,2.708,0,0,0-.5-1.69,1.574,1.574,0,0,0-1.315-.647,1.557,1.557,0,0,0-1.295.639A2.944,2.944,0,0,0-10.3-3.1ZM-.349-.627A2.3,2.3,0,0,1-2.206.117,1.971,1.971,0,0,1-3.75-.472a2.549,2.549,0,0,1-.536-1.743V-6.34H-3.2v4.1Q-3.2-.8-2.03-.8A1.623,1.623,0,0,0-.378-1.729V-6.34H.706V0H-.325ZM3.823-7.875V-6.34H5.007V-5.5H3.823v3.937a.88.88,0,0,0,.158.572A.666.666,0,0,0,4.521-.8a2.624,2.624,0,0,0,.516-.07V0A3.161,3.161,0,0,1,4.2.117a1.35,1.35,0,0,1-1.1-.439A1.888,1.888,0,0,1,2.739-1.57V-5.5H1.585V-6.34H2.739V-7.875ZM8.9.117a2.77,2.77,0,0,1-2.1-.847A3.142,3.142,0,0,1,6-2.994v-.2a3.8,3.8,0,0,1,.36-1.685,2.811,2.811,0,0,1,1.008-1.16,2.534,2.534,0,0,1,1.4-.419,2.374,2.374,0,0,1,1.922.814,3.526,3.526,0,0,1,.686,2.332v.451H7.081a2.254,2.254,0,0,0,.548,1.515,1.722,1.722,0,0,0,1.333.577A1.888,1.888,0,0,0,9.935-1a2.444,2.444,0,0,0,.7-.621l.662.516A2.662,2.662,0,0,1,8.9.117ZM8.769-5.566a1.446,1.446,0,0,0-1.1.478A2.321,2.321,0,0,0,7.116-3.75h3.176v-.082a2.065,2.065,0,0,0-.445-1.28A1.361,1.361,0,0,0,8.769-5.566Zm6.926.2a3.248,3.248,0,0,0-.533-.041,1.428,1.428,0,0,0-1.447.908V0H12.63V-6.34h1.055l.018.732a1.688,1.688,0,0,1,1.512-.85,1.107,1.107,0,0,1,.48.082Z" transform="translate(640.523 2257.989)" fill="#12263f"/>
    <path id="Trazado_836276" data-name="Trazado 836276" d="M-12.952-1.682a.8.8,0,0,0-.331-.683,3.187,3.187,0,0,0-1.154-.419,5.457,5.457,0,0,1-1.307-.422,1.859,1.859,0,0,1-.715-.586A1.4,1.4,0,0,1-16.69-4.6a1.645,1.645,0,0,1,.659-1.318,2.574,2.574,0,0,1,1.685-.539A2.649,2.649,0,0,1-12.6-5.9a1.768,1.768,0,0,1,.671,1.424h-1.09a.979.979,0,0,0-.378-.768,1.416,1.416,0,0,0-.952-.322,1.482,1.482,0,0,0-.926.258.812.812,0,0,0-.334.674.658.658,0,0,0,.311.592,3.821,3.821,0,0,0,1.122.381,5.847,5.847,0,0,1,1.315.434,1.919,1.919,0,0,1,.747.606,1.491,1.491,0,0,1,.243.864A1.623,1.623,0,0,1-12.548-.4a2.851,2.851,0,0,1-1.764.513,3.193,3.193,0,0,1-1.348-.27,2.192,2.192,0,0,1-.917-.753,1.815,1.815,0,0,1-.331-1.046h1.084a1.122,1.122,0,0,0,.437.864,1.693,1.693,0,0,0,1.075.319,1.748,1.748,0,0,0,.987-.249A.765.765,0,0,0-12.952-1.682Zm8.109.188L-3.624-6.34H-2.54L-4.386,0h-.879L-6.806-4.8-8.306,0h-.879l-1.84-6.34h1.078L-8.7-1.594-7.222-6.34h.873ZM-.261,0H-1.345V-6.34H-.261ZM-1.433-8.021a.647.647,0,0,1,.161-.445.6.6,0,0,1,.478-.182.614.614,0,0,1,.48.182.64.64,0,0,1,.164.445.619.619,0,0,1-.164.439.626.626,0,0,1-.48.176.616.616,0,0,1-.478-.176A.626.626,0,0,1-1.433-8.021Zm4.377.146V-6.34H4.128V-5.5H2.944v3.937A.88.88,0,0,0,3.1-.993.666.666,0,0,0,3.642-.8a2.624,2.624,0,0,0,.516-.07V0a3.161,3.161,0,0,1-.832.116,1.35,1.35,0,0,1-1.1-.439A1.888,1.888,0,0,1,1.86-1.57V-5.5H.706V-6.34H1.86V-7.875ZM7.937-.768A1.561,1.561,0,0,0,8.95-1.119,1.237,1.237,0,0,0,9.431-2h1.025a1.966,1.966,0,0,1-.375,1.037,2.47,2.47,0,0,1-.923.785A2.663,2.663,0,0,1,7.937.117a2.612,2.612,0,0,1-2.06-.864,3.442,3.442,0,0,1-.765-2.364v-.182a3.817,3.817,0,0,1,.34-1.646,2.588,2.588,0,0,1,.976-1.119,2.771,2.771,0,0,1,1.5-.4A2.543,2.543,0,0,1,9.7-5.818a2.283,2.283,0,0,1,.753,1.658H9.431a1.494,1.494,0,0,0-.466-1.011,1.449,1.449,0,0,0-1.034-.4,1.517,1.517,0,0,0-1.28.595A2.793,2.793,0,0,0,6.2-3.252v.205a2.737,2.737,0,0,0,.451,1.688A1.524,1.524,0,0,0,7.937-.768Zm4.822-4.8a2.3,2.3,0,0,1,1.875-.885q2.01,0,2.027,2.268V0H15.577V-4.2a1.459,1.459,0,0,0-.313-1.014,1.256,1.256,0,0,0-.958-.328,1.564,1.564,0,0,0-.926.281,1.91,1.91,0,0,0-.621.738V0H11.675V-9h1.084Z" transform="translate(694.647 2401.809)" fill="#12263f"/>
    <path id="Trazado_836277" data-name="Trazado 836277" d="M-29.177,0a2.277,2.277,0,0,1-.152-.668,2.419,2.419,0,0,1-1.8.785,2.238,2.238,0,0,1-1.538-.53,1.716,1.716,0,0,1-.6-1.345A1.792,1.792,0,0,1-32.52-3.3,3.55,3.55,0,0,1-30.4-3.844h1.055v-.5a1.217,1.217,0,0,0-.34-.905,1.366,1.366,0,0,0-1-.337,1.581,1.581,0,0,0-.973.293.863.863,0,0,0-.393.709h-1.09a1.5,1.5,0,0,1,.337-.917,2.3,2.3,0,0,1,.914-.7,3.075,3.075,0,0,1,1.269-.258,2.506,2.506,0,0,1,1.717.548A1.976,1.976,0,0,1-28.263-4.4v2.918A3.567,3.567,0,0,0-28.04-.094V0Zm-1.8-.826a1.905,1.905,0,0,0,.967-.264,1.6,1.6,0,0,0,.662-.686v-1.3h-.85q-1.992,0-1.992,1.166a.987.987,0,0,0,.34.8A1.306,1.306,0,0,0-30.976-.826Zm6.955.059a1.561,1.561,0,0,0,1.014-.352A1.237,1.237,0,0,0-22.526-2H-21.5a1.966,1.966,0,0,1-.375,1.037,2.47,2.47,0,0,1-.923.785,2.663,2.663,0,0,1-1.222.293,2.612,2.612,0,0,1-2.06-.864,3.442,3.442,0,0,1-.765-2.364v-.182a3.817,3.817,0,0,1,.34-1.646,2.588,2.588,0,0,1,.976-1.119,2.771,2.771,0,0,1,1.5-.4,2.543,2.543,0,0,1,1.772.639A2.283,2.283,0,0,1-21.5-4.16h-1.025a1.494,1.494,0,0,0-.466-1.011,1.449,1.449,0,0,0-1.034-.4,1.517,1.517,0,0,0-1.28.595,2.793,2.793,0,0,0-.454,1.72v.205a2.737,2.737,0,0,0,.451,1.688A1.524,1.524,0,0,0-24.021-.768Zm6.281,0a1.561,1.561,0,0,0,1.014-.352A1.237,1.237,0,0,0-16.245-2h1.025a1.966,1.966,0,0,1-.375,1.037,2.47,2.47,0,0,1-.923.785,2.663,2.663,0,0,1-1.222.293A2.612,2.612,0,0,1-19.8-.747a3.442,3.442,0,0,1-.765-2.364v-.182a3.817,3.817,0,0,1,.34-1.646,2.588,2.588,0,0,1,.976-1.119,2.771,2.771,0,0,1,1.5-.4,2.543,2.543,0,0,1,1.772.639A2.283,2.283,0,0,1-15.22-4.16h-1.025a1.494,1.494,0,0,0-.466-1.011,1.449,1.449,0,0,0-1.034-.4,1.517,1.517,0,0,0-1.28.595,2.793,2.793,0,0,0-.454,1.72v.205a2.737,2.737,0,0,0,.451,1.688A1.524,1.524,0,0,0-17.739-.768Zm6.369.885a2.77,2.77,0,0,1-2.1-.847,3.142,3.142,0,0,1-.809-2.265v-.2a3.8,3.8,0,0,1,.36-1.685,2.811,2.811,0,0,1,1.008-1.16,2.534,2.534,0,0,1,1.4-.419,2.374,2.374,0,0,1,1.922.814A3.526,3.526,0,0,1-8.9-3.311v.451h-4.295a2.254,2.254,0,0,0,.548,1.515,1.722,1.722,0,0,0,1.333.577A1.888,1.888,0,0,0-10.339-1a2.444,2.444,0,0,0,.7-.621l.662.516A2.662,2.662,0,0,1-11.37.117ZM-11.5-5.566a1.446,1.446,0,0,0-1.1.478,2.321,2.321,0,0,0-.551,1.339h3.176v-.082a2.065,2.065,0,0,0-.445-1.28A1.361,1.361,0,0,0-11.5-5.566Zm7.553,3.885a.8.8,0,0,0-.331-.683,3.187,3.187,0,0,0-1.154-.419,5.457,5.457,0,0,1-1.307-.422,1.859,1.859,0,0,1-.715-.586A1.4,1.4,0,0,1-7.69-4.6a1.645,1.645,0,0,1,.659-1.318,2.574,2.574,0,0,1,1.685-.539A2.649,2.649,0,0,1-3.6-5.9a1.768,1.768,0,0,1,.671,1.424h-1.09a.979.979,0,0,0-.378-.768,1.416,1.416,0,0,0-.952-.322,1.482,1.482,0,0,0-.926.258.812.812,0,0,0-.334.674.658.658,0,0,0,.311.592,3.821,3.821,0,0,0,1.122.381,5.847,5.847,0,0,1,1.315.434,1.919,1.919,0,0,1,.747.606,1.491,1.491,0,0,1,.243.864A1.623,1.623,0,0,1-3.548-.4,2.851,2.851,0,0,1-5.312.117a3.193,3.193,0,0,1-1.348-.27,2.192,2.192,0,0,1-.917-.753,1.815,1.815,0,0,1-.331-1.046h1.084a1.122,1.122,0,0,0,.437.864,1.693,1.693,0,0,0,1.075.319,1.748,1.748,0,0,0,.987-.249A.765.765,0,0,0-3.952-1.682Zm6.188,0A.8.8,0,0,0,1.9-2.364,3.187,3.187,0,0,0,.75-2.783,5.457,5.457,0,0,1-.557-3.205a1.859,1.859,0,0,1-.715-.586A1.4,1.4,0,0,1-1.5-4.6,1.645,1.645,0,0,1-.844-5.918,2.574,2.574,0,0,1,.841-6.457,2.649,2.649,0,0,1,2.59-5.9a1.768,1.768,0,0,1,.671,1.424H2.171a.979.979,0,0,0-.378-.768,1.416,1.416,0,0,0-.952-.322,1.482,1.482,0,0,0-.926.258.812.812,0,0,0-.334.674.658.658,0,0,0,.311.592,3.821,3.821,0,0,0,1.122.381,5.847,5.847,0,0,1,1.315.434,1.919,1.919,0,0,1,.747.606,1.491,1.491,0,0,1,.243.864A1.623,1.623,0,0,1,2.64-.4,2.851,2.851,0,0,1,.876.117,3.193,3.193,0,0,1-.472-.152a2.192,2.192,0,0,1-.917-.753A1.815,1.815,0,0,1-1.72-1.951H-.636A1.122,1.122,0,0,0-.2-1.087,1.693,1.693,0,0,0,.876-.768a1.748,1.748,0,0,0,.987-.249A.765.765,0,0,0,2.235-1.682ZM13.058-3.1A3.8,3.8,0,0,1,12.4-.768,2.122,2.122,0,0,1,10.6.117,2.325,2.325,0,0,1,8.786-.615V2.438H7.7V-6.34h.99l.053.7a2.233,2.233,0,0,1,1.84-.82,2.162,2.162,0,0,1,1.808.861,3.838,3.838,0,0,1,.665,2.4Zm-1.084-.123a2.8,2.8,0,0,0-.457-1.693,1.472,1.472,0,0,0-1.254-.621,1.593,1.593,0,0,0-1.477.873v3.029a1.6,1.6,0,0,0,1.488.867,1.465,1.465,0,0,0,1.239-.618A3.058,3.058,0,0,0,11.974-3.223Zm2.174-.006A3.745,3.745,0,0,1,14.514-4.9a2.732,2.732,0,0,1,1.02-1.148,2.775,2.775,0,0,1,1.491-.4,2.674,2.674,0,0,1,2.095.9,3.449,3.449,0,0,1,.8,2.385V-3.1a3.777,3.777,0,0,1-.354,1.661A2.692,2.692,0,0,1,18.551-.293a2.807,2.807,0,0,1-1.515.41,2.667,2.667,0,0,1-2.089-.9,3.432,3.432,0,0,1-.8-2.373Zm1.09.129a2.712,2.712,0,0,0,.489,1.693,1.566,1.566,0,0,0,1.31.639,1.556,1.556,0,0,0,1.313-.647,2.966,2.966,0,0,0,.486-1.813,2.708,2.708,0,0,0-.5-1.69,1.574,1.574,0,0,0-1.315-.647,1.557,1.557,0,0,0-1.295.639A2.944,2.944,0,0,0,15.237-3.1ZM22.456,0H21.372V-6.34h1.084ZM21.284-8.021a.647.647,0,0,1,.161-.445.6.6,0,0,1,.478-.182.614.614,0,0,1,.48.182.64.64,0,0,1,.164.445.619.619,0,0,1-.164.439.626.626,0,0,1-.48.176.616.616,0,0,1-.478-.176A.626.626,0,0,1,21.284-8.021ZM25.216-6.34l.035.8a2.31,2.31,0,0,1,1.9-.914q2.01,0,2.027,2.268V0H28.093V-4.2a1.459,1.459,0,0,0-.313-1.014,1.256,1.256,0,0,0-.958-.328,1.564,1.564,0,0,0-.926.281,1.91,1.91,0,0,0-.621.738V0H24.19V-6.34Zm7.066-1.535V-6.34h1.184V-5.5H32.282v3.937a.88.88,0,0,0,.158.572.666.666,0,0,0,.539.191,2.624,2.624,0,0,0,.516-.07V0a3.161,3.161,0,0,1-.832.116,1.35,1.35,0,0,1-1.1-.439A1.888,1.888,0,0,1,31.2-1.57V-5.5H30.044V-6.34H31.2V-7.875Z" transform="translate(552.554 2494.699)" fill="#12263f"/>
    <path id="Trazado_836278" data-name="Trazado 836278" d="M-10.594-3.1a3.77,3.77,0,0,1-.668,2.335,2.134,2.134,0,0,1-1.793.882,2.21,2.21,0,0,1-1.857-.85L-14.965,0h-1V-9h1.084v3.357a2.2,2.2,0,0,1,1.811-.814,2.147,2.147,0,0,1,1.813.873,3.883,3.883,0,0,1,.659,2.391Zm-1.084-.123a2.929,2.929,0,0,0-.428-1.711,1.416,1.416,0,0,0-1.23-.6,1.591,1.591,0,0,0-1.541,1V-1.8a1.636,1.636,0,0,0,1.553,1,1.408,1.408,0,0,0,1.213-.6A3.115,3.115,0,0,0-11.678-3.223Zm5.514-2.145A3.248,3.248,0,0,0-6.7-5.408,1.428,1.428,0,0,0-8.145-4.5V0H-9.229V-6.34h1.055l.018.732a1.688,1.688,0,0,1,1.512-.85,1.107,1.107,0,0,1,.48.082ZM-3.99,0H-5.074V-6.34H-3.99ZM-5.162-8.021A.647.647,0,0,1-5-8.467a.6.6,0,0,1,.478-.182.614.614,0,0,1,.48.182.64.64,0,0,1,.164.445.619.619,0,0,1-.164.439.626.626,0,0,1-.48.176A.616.616,0,0,1-5-7.582.626.626,0,0,1-5.162-8.021Zm2.643,4.8a3.714,3.714,0,0,1,.691-2.347A2.186,2.186,0,0,1-.018-6.457,2.2,2.2,0,0,1,1.746-5.7V-9H2.83V0h-1L1.781-.68a2.208,2.208,0,0,1-1.811.8,2.165,2.165,0,0,1-1.8-.9A3.756,3.756,0,0,1-2.52-3.141Zm1.084.123A2.812,2.812,0,0,0-.99-1.412,1.44,1.44,0,0,0,.24-.8a1.581,1.581,0,0,0,1.506-.926V-4.641a1.593,1.593,0,0,0-1.494-.9A1.446,1.446,0,0,0-.99-4.922,3.1,3.1,0,0,0-1.436-3.1Zm5.689-.123a3.726,3.726,0,0,1,.686-2.358,2.192,2.192,0,0,1,1.816-.876,2.181,2.181,0,0,1,1.811.82l.053-.7h.99V-.152A2.579,2.579,0,0,1,8.88,1.787,2.692,2.692,0,0,1,6.92,2.5,3.261,3.261,0,0,1,5.578,2.2a2.31,2.31,0,0,1-1-.8L5.139.75a2.12,2.12,0,0,0,1.705.861,1.661,1.661,0,0,0,1.233-.445A1.7,1.7,0,0,0,8.52-.088V-.633a2.228,2.228,0,0,1-1.775.75,2.166,2.166,0,0,1-1.8-.9A3.918,3.918,0,0,1,4.254-3.223Zm1.09.123a2.843,2.843,0,0,0,.439,1.685A1.428,1.428,0,0,0,7.014-.8,1.588,1.588,0,0,0,8.52-1.734V-4.629a1.606,1.606,0,0,0-1.494-.908,1.441,1.441,0,0,0-1.236.615A3.1,3.1,0,0,0,5.344-3.1ZM13.875.117a2.77,2.77,0,0,1-2.1-.847,3.142,3.142,0,0,1-.809-2.265v-.2a3.8,3.8,0,0,1,.36-1.685,2.811,2.811,0,0,1,1.008-1.16,2.534,2.534,0,0,1,1.4-.419,2.374,2.374,0,0,1,1.922.814,3.526,3.526,0,0,1,.686,2.332v.451H12.053A2.254,2.254,0,0,0,12.6-1.345a1.722,1.722,0,0,0,1.333.577A1.888,1.888,0,0,0,14.906-1a2.444,2.444,0,0,0,.7-.621l.662.516A2.662,2.662,0,0,1,13.875.117ZM13.74-5.566a1.446,1.446,0,0,0-1.1.478,2.321,2.321,0,0,0-.551,1.339h3.176v-.082a2.065,2.065,0,0,0-.445-1.28A1.361,1.361,0,0,0,13.74-5.566Z" transform="translate(425.646 2407.535)" fill="#12263f"/>
  </g>
</svg>
