<svg xmlns="http://www.w3.org/2000/svg" xmlns:xlink="http://www.w3.org/1999/xlink" width="593" height="335" viewBox="0 0 593 335">
  <defs>
    <linearGradient id="linear-gradient" x1="-61.476" y1="-9.284" x2="-61.476" y2="-9.311" gradientUnits="objectBoundingBox">
      <stop offset="0" stop-color="#fff"/>
      <stop offset="1" stop-color="#d2e6ee"/>
    </linearGradient>
    <linearGradient id="linear-gradient-2" x1="-60.913" y1="-9.854" x2="-60.913" y2="-9.881" xlink:href="#linear-gradient"/>
    <linearGradient id="linear-gradient-3" x1="-60.352" y1="-10.424" x2="-60.352" y2="-10.45" xlink:href="#linear-gradient"/>
    <linearGradient id="linear-gradient-4" x1="-63.138" y1="-10.97" x2="-63.138" y2="-10.996" xlink:href="#linear-gradient"/>
    <linearGradient id="linear-gradient-5" x1="-62.575" y1="-11.54" x2="-62.575" y2="-11.567" xlink:href="#linear-gradient"/>
    <linearGradient id="linear-gradient-6" x1="-62.014" y1="-12.109" x2="-62.014" y2="-12.136" xlink:href="#linear-gradient"/>
    <linearGradient id="linear-gradient-7" x1="-120.405" y1="-17.554" x2="-120.377" y2="-17.603" xlink:href="#linear-gradient"/>
    <linearGradient id="linear-gradient-8" x1="-56.4" y1="-12.124" x2="-56.383" y2="-12.169" xlink:href="#linear-gradient"/>
    <linearGradient id="linear-gradient-9" x1="-35.198" y1="-6.731" x2="-35.188" y2="-6.754" xlink:href="#linear-gradient"/>
    <linearGradient id="linear-gradient-10" x1="-25.211" y1="-4.387" x2="-25.205" y2="-4.401" xlink:href="#linear-gradient"/>
    <linearGradient id="linear-gradient-11" x1="-199.799" y1="-22.907" x2="-199.799" y2="-22.983" xlink:href="#linear-gradient"/>
    <linearGradient id="linear-gradient-12" x1="-77.438" y1="-13.051" x2="-77.438" y2="-13.099" xlink:href="#linear-gradient"/>
    <linearGradient id="linear-gradient-13" x1="-51.234" y1="-8.253" x2="-51.234" y2="-8.286" xlink:href="#linear-gradient"/>
    <linearGradient id="linear-gradient-14" x1="-38.339" y1="-5.854" x2="-38.339" y2="-5.879" xlink:href="#linear-gradient"/>
    <linearGradient id="linear-gradient-15" x1="0" y1="0.5" x2="1" y2="0.5" xlink:href="#linear-gradient"/>
    <linearGradient id="linear-gradient-16" x1="-59.921" y1="-19.203" x2="-59.921" y2="-19.27" xlink:href="#linear-gradient"/>
    <clipPath id="clip-path">
      <rect id="Rectángulo_388501" data-name="Rectángulo 388501" width="160" height="161" transform="translate(0.245 -0.41)" fill="#fff" stroke="#707070" stroke-width="1"/>
    </clipPath>
  </defs>
  <g id="Grupo_1093474" data-name="Grupo 1093474" transform="translate(7611 6991)">
    <g id="Grupo_1093471" data-name="Grupo 1093471" transform="translate(-4 38)">
      <g id="Grupo_1093469" data-name="Grupo 1093469">
        <g id="Grupo_1093294" data-name="Grupo 1093294" transform="translate(-7607 -7029)">
          <g id="Rectángulo_388486" data-name="Rectángulo 388486" fill="#fff" stroke="#6e40fb" stroke-width="1">
            <rect width="593" height="335" rx="16" stroke="none"/>
            <rect x="0.5" y="0.5" width="592" height="334" rx="15.5" fill="none"/>
          </g>
          <g id="Grupo_1093468" data-name="Grupo 1093468">
            <g id="Grupo_1093470" data-name="Grupo 1093470">
              <g id="Group_54995" data-name="Group 54995" transform="translate(239.827)">
                <g id="Group_54964" data-name="Group 54964" transform="translate(49.207 34.125)">
                  <g id="Group_54963" data-name="Group 54963">
                    <g id="Group_54960" data-name="Group 54960" transform="translate(0 1.539)">
                      <path id="Path_118711" data-name="Path 118711" d="M3289.93,1763.077l0,1.651,46.188,26.842,0-1.652Z" transform="translate(-3289.93 -1763.077)" fill="#1d1d1d"/>
                    </g>
                    <g id="Group_54961" data-name="Group 54961" transform="translate(46.188 26.841)">
                      <path id="Path_118712" data-name="Path 118712" d="M3401.374,1825.667l0,1.652,2.666-1.54,0-1.652Z" transform="translate(-3401.374 -1824.127)" fill="#141414"/>
                    </g>
                    <g id="Group_54962" data-name="Group 54962">
                      <path id="Path_118713" data-name="Path 118713" d="M3289.93,1760.9l46.188,26.841,2.666-1.54-46.188-26.841Z" transform="translate(-3289.93 -1759.363)" fill="#212121"/>
                    </g>
                  </g>
                </g>
                <g id="Group_54989" data-name="Group 54989">
                  <g id="Group_54968" data-name="Group 54968" transform="translate(41.981)">
                    <g id="Group_54965" data-name="Group 54965" transform="translate(0 10.714)">
                      <path id="Path_118714" data-name="Path 118714" d="M3272.495,1702.877l.006,2,18.437,10.714-.006-2Z" transform="translate(-3272.495 -1702.877)" fill="#393939"/>
                    </g>
                    <g id="Group_54966" data-name="Group 54966" transform="translate(18.436 10.714)">
                      <path id="Path_118715" data-name="Path 118715" d="M3316.979,1713.591l.005,2,18.558-10.715,0-2Z" transform="translate(-3316.979 -1702.877)" fill="#393939"/>
                    </g>
                    <g id="Group_54967" data-name="Group 54967">
                      <path id="Path_118716" data-name="Path 118716" d="M3272.495,1687.741l18.437,10.713,18.558-10.713-18.436-10.715Z" transform="translate(-3272.495 -1677.025)" fill="url(#linear-gradient)"/>
                    </g>
                  </g>
                  <g id="Group_54972" data-name="Group 54972" transform="translate(20.991 12.12)">
                    <g id="Group_54969" data-name="Group 54969" transform="translate(0.246 10.571)">
                      <path id="Path_118717" data-name="Path 118717" d="M3222.441,1731.776l.006,2h36.5l-.006-2Z" transform="translate(-3222.441 -1731.776)" fill="#246a99"/>
                    </g>
                    <g id="Group_54970" data-name="Group 54970" transform="translate(0 10.713)">
                      <path id="Path_118718" data-name="Path 118718" d="M3221.847,1732.118l.006,2,18.437,10.714-.006-2Z" transform="translate(-3221.847 -1732.118)" fill="#393939"/>
                    </g>
                    <g id="Group_54971" data-name="Group 54971" transform="translate(18.436 10.713)">
                      <path id="Path_118719" data-name="Path 118719" d="M3266.332,1742.832l.005,2,18.557-10.714,0-2Z" transform="translate(-3266.332 -1732.118)" fill="#393939"/>
                    </g>
                    <path id="Path_118720" data-name="Path 118720" d="M3222.094,1716.841l18.311-10.572,18.194,10.572.243.141-18.558,10.714-18.437-10.714Z" transform="translate(-3221.847 -1706.269)" fill="url(#linear-gradient-2)"/>
                  </g>
                  <g id="Group_54976" data-name="Group 54976" transform="translate(0 24.238)">
                    <g id="Group_54973" data-name="Group 54973" transform="translate(0 10.714)">
                      <path id="Path_118721" data-name="Path 118721" d="M3171.2,1761.359l.006,2,18.435,10.712,0-2Z" transform="translate(-3171.201 -1761.359)" fill="#393939"/>
                    </g>
                    <g id="Group_54974" data-name="Group 54974" transform="translate(18.436 10.714)">
                      <path id="Path_118722" data-name="Path 118722" d="M3215.685,1772.073l.006,2,18.556-10.714,0-2Z" transform="translate(-3215.685 -1761.359)" fill="#393939"/>
                    </g>
                    <g id="Group_54975" data-name="Group 54975">
                      <path id="Path_118723" data-name="Path 118723" d="M3171.2,1746.222l18.434,10.714,18.557-10.714-18.434-10.714Z" transform="translate(-3171.201 -1735.508)" fill="url(#linear-gradient-3)"/>
                    </g>
                  </g>
                  <g id="Group_54980" data-name="Group 54980" transform="translate(103.683 35.857)">
                    <g id="Group_54977" data-name="Group 54977" transform="translate(0 10.714)">
                      <path id="Path_118724" data-name="Path 118724" d="M3421.372,1789.4l.006,2,18.437,10.714-.006-2Z" transform="translate(-3421.372 -1789.395)" fill="#393939"/>
                    </g>
                    <g id="Group_54978" data-name="Group 54978" transform="translate(18.436 10.714)">
                      <path id="Path_118725" data-name="Path 118725" d="M3465.856,1800.108l.007,2,18.558-10.714-.006-2Z" transform="translate(-3465.856 -1789.394)" fill="#393939"/>
                    </g>
                    <g id="Group_54979" data-name="Group 54979">
                      <path id="Path_118726" data-name="Path 118726" d="M3421.372,1774.258l18.436,10.714,18.559-10.714-18.436-10.714Z" transform="translate(-3421.372 -1763.543)" fill="url(#linear-gradient-4)"/>
                    </g>
                  </g>
                  <g id="Group_54984" data-name="Group 54984" transform="translate(82.693 47.977)">
                    <g id="Group_54981" data-name="Group 54981" transform="translate(0.246 10.572)">
                      <path id="Path_118727" data-name="Path 118727" d="M3371.318,1818.3l.006,2h36.5l-.005-2Z" transform="translate(-3371.318 -1818.295)" fill="#246a99"/>
                    </g>
                    <g id="Group_54982" data-name="Group 54982" transform="translate(0 10.713)">
                      <path id="Path_118728" data-name="Path 118728" d="M3370.725,1818.634l.005,2,18.437,10.714-.006-2Z" transform="translate(-3370.725 -1818.634)" fill="#393939"/>
                    </g>
                    <g id="Group_54983" data-name="Group 54983" transform="translate(18.436 10.713)">
                      <path id="Path_118729" data-name="Path 118729" d="M3415.209,1829.35l.005,2,18.557-10.715,0-2Z" transform="translate(-3415.209 -1818.634)" fill="#393939"/>
                    </g>
                    <path id="Path_118730" data-name="Path 118730" d="M3370.971,1803.357l18.312-10.571,18.191,10.571.245.142-18.558,10.714-18.436-10.713Z" transform="translate(-3370.725 -1792.786)" fill="url(#linear-gradient-5)"/>
                  </g>
                  <g id="Group_54988" data-name="Group 54988" transform="translate(61.702 60.096)">
                    <g id="Group_54985" data-name="Group 54985" transform="translate(0 10.714)">
                      <path id="Path_118731" data-name="Path 118731" d="M3320.078,1847.878l.005,2,18.437,10.714-.006-2Z" transform="translate(-3320.078 -1847.878)" fill="#393939"/>
                    </g>
                    <g id="Group_54986" data-name="Group 54986" transform="translate(18.436 10.714)">
                      <path id="Path_118732" data-name="Path 118732" d="M3364.563,1858.592l.006,2,18.556-10.714,0-2Z" transform="translate(-3364.563 -1847.878)" fill="#393939"/>
                    </g>
                    <g id="Group_54987" data-name="Group 54987">
                      <path id="Path_118733" data-name="Path 118733" d="M3320.078,1832.741l18.433,10.714,18.557-10.714-18.437-10.714Z" transform="translate(-3320.078 -1822.027)" fill="url(#linear-gradient-6)"/>
                    </g>
                  </g>
                </g>
                <g id="Group_54994" data-name="Group 54994" transform="translate(34.206 9.629)">
                  <g id="Group_54991" data-name="Group 54991" transform="translate(60.56 3.873)">
                    <path id="Path_118734" data-name="Path 118734" d="M3407.114,1713.33l-.094-.042c-.084-.035-.167-.065-.251-.095l-.06-.022c-.1-.036-.205-.066-.305-.094-.057-.017-.117-.03-.175-.044l-.083-.02c-.086-.019-.171-.035-.255-.048h-.009c-.076-.012-.152-.02-.228-.028l-.075-.005c-.047,0-.093-.006-.139-.008-.111,0-.22,0-.326,0a.491.491,0,0,0-.058,0c-.087.006-.172.017-.255.03l-.078.012c-.095.018-.191.038-.281.065l-.013,0a2.586,2.586,0,0,0-.254.089l-.072.031c-.072.031-.141.064-.209.1l-.067.036h0l5.711-3.319.031-.017c.012-.008.026-.012.036-.018a1.89,1.89,0,0,1,.209-.1l.039-.019.033-.012c.082-.033.167-.063.253-.089l.012,0h0a2.745,2.745,0,0,1,.281-.065c.012,0,.022-.006.034-.007a.43.43,0,0,0,.045-.006c.084-.012.169-.023.255-.03.013,0,.028,0,.041,0h.015a3.061,3.061,0,0,1,.326,0h.032c.036,0,.071.005.106.007a.593.593,0,0,1,.075.006c.075.007.153.015.228.027h.008q.125.019.254.047l.083.021.159.039.016.006c.1.027.2.057.3.093l.06.022c.083.03.167.061.251.1l.033.012c.021.008.041.019.061.028q.133.057.27.123l.1.051c.118.057.239.122.359.192.149.087.3.181.444.279.025.017.05.032.074.05.14.1.279.2.416.3l.079.062c.139.109.276.222.413.343l.034.031c.131.114.259.236.386.359l.038.036.023.025c.1.1.193.194.286.3l.012.015c.091.1.18.194.268.3l.025.027c.01.013.02.026.031.038.143.164.281.333.415.505l.012.015.03.041c.107.14.213.282.314.426l.031.043.014.021c.1.14.193.282.285.426l.028.042.038.063q.112.177.219.358c.012.02.023.038.033.057l.012.022q.122.207.234.419l.019.034c.012.023.023.047.037.07.056.115.114.228.171.339.012.023.024.047.036.071l.02.043c.068.143.135.286.2.433l.006.014.02.046c.057.132.11.263.161.4.009.02.019.041.027.063l.019.054q.089.234.169.469l0,.008.007.029c.054.162.1.324.15.486.005.02.012.041.018.06l.008.034c.052.187.1.375.138.564,0,.016.009.033.012.05s.009.05.014.074c.016.074.029.147.043.22.009.051.018.1.027.153.012.076.023.152.034.228.006.035.012.071.017.106v.028c.021.162.037.324.048.484,0,.035,0,.068.007.1.009.164.016.329.015.49a3.952,3.952,0,0,1-1.646,3.62l-5.714,3.319a3.949,3.949,0,0,0,1.646-3.62c0-.16-.006-.324-.015-.489l-.006-.1c-.012-.161-.027-.322-.048-.484-.006-.044-.012-.089-.018-.134l-.035-.228c-.008-.051-.018-.1-.027-.152l-.042-.222c-.01-.041-.017-.083-.026-.124-.042-.188-.087-.376-.14-.564-.008-.031-.017-.062-.026-.094-.046-.161-.1-.324-.148-.485l-.012-.037c-.052-.157-.109-.313-.169-.47-.014-.04-.03-.078-.045-.118q-.077-.2-.161-.4l-.026-.06c-.062-.146-.129-.29-.2-.435-.018-.037-.037-.075-.058-.114l-.171-.343c-.019-.035-.036-.07-.054-.1q-.115-.211-.234-.419c-.017-.027-.031-.052-.047-.079-.07-.12-.144-.239-.219-.358l-.066-.1c-.092-.143-.188-.286-.285-.426l-.046-.063c-.1-.144-.207-.286-.314-.426l-.042-.057c-.135-.172-.273-.343-.415-.5l-.057-.066c-.087-.1-.177-.2-.267-.3l-.012-.015c-.095-.1-.19-.2-.286-.3-.02-.021-.042-.04-.062-.057-.127-.125-.256-.244-.386-.361l-.035-.031q-.2-.177-.412-.343l-.078-.062c-.137-.105-.276-.206-.417-.3l-.074-.05c-.146-.1-.3-.193-.444-.279-.121-.07-.241-.132-.358-.192-.033-.018-.068-.033-.1-.051C3407.293,1713.409,3407.2,1713.368,3407.114,1713.33Z" transform="translate(-3402.182 -1709.604)" fill="#eceff0"/>
                    <g id="Group_54990" data-name="Group 54990" transform="translate(0 3.317)">
                      <path id="Path_118735" data-name="Path 118735" d="M3405.517,1718.38c-3.117-1.8-5.652-.355-5.662,3.226a12.4,12.4,0,0,0,5.626,9.744c3.118,1.8,5.65.354,5.659-3.228A12.4,12.4,0,0,0,3405.517,1718.38Z" transform="translate(-3399.855 -1717.606)" fill="#b7b9ba"/>
                    </g>
                  </g>
                  <g id="Group_54992" data-name="Group 54992" transform="translate(50.952 2.26)">
                    <path id="Path_118736" data-name="Path 118736" d="M3399.749,1726.18c-.007-.123-.014-.246-.023-.37l-.015-.19c-.012-.123-.023-.244-.038-.368-.007-.057-.012-.118-.021-.177-.011-.086-.023-.171-.036-.258-.019-.128-.037-.257-.058-.386-.014-.086-.031-.171-.045-.26-.023-.125-.047-.25-.073-.377-.021-.1-.042-.2-.065-.3-.018-.084-.036-.167-.057-.25-.026-.11-.052-.219-.082-.329-.023-.083-.042-.166-.064-.248-.037-.132-.074-.263-.115-.4-.015-.05-.029-.1-.044-.149-.057-.18-.115-.362-.172-.543-.088-.267-.185-.532-.285-.8-.026-.066-.051-.133-.078-.2-.088-.225-.179-.449-.275-.672-.014-.034-.027-.067-.043-.1-.106-.246-.219-.491-.336-.735-.03-.064-.061-.127-.093-.191q-.142-.29-.293-.577c-.031-.057-.06-.118-.092-.175-.129-.24-.261-.478-.4-.714l-.079-.132c-.12-.205-.245-.407-.372-.608-.037-.057-.074-.118-.112-.175-.157-.244-.319-.486-.485-.724-.025-.036-.051-.071-.076-.106q-.26-.368-.533-.723c-.029-.036-.057-.074-.083-.109l-.172-.218-.218-.271c-.06-.073-.121-.144-.184-.215s-.141-.168-.213-.25c-.148-.172-.3-.336-.452-.5l-.023-.026c-.16-.172-.324-.338-.487-.5q-.156-.155-.316-.3c-.029-.029-.056-.057-.089-.086-.139-.13-.28-.257-.422-.382-.039-.035-.078-.067-.117-.1-.1-.089-.209-.177-.316-.264-.052-.044-.106-.086-.158-.128-.094-.075-.188-.149-.286-.222l-.171-.129q-.141-.1-.286-.2l-.171-.12q-.153-.1-.309-.2l-.148-.1c-.152-.1-.3-.189-.457-.278s-.295-.166-.442-.242c-.038-.02-.076-.04-.114-.057-.13-.067-.261-.132-.392-.192l-.048-.022q-.2-.092-.4-.171c-.132-.053-.285-.112-.424-.161l-.1-.039q-.26-.089-.514-.159c-.1-.027-.2-.051-.3-.075-.047-.01-.094-.023-.14-.034-.146-.031-.291-.057-.433-.08h-.015c-.13-.021-.261-.036-.388-.047-.042,0-.085-.006-.127-.009-.093-.007-.184-.012-.276-.015h-.122c-.095,0-.188,0-.285,0l-.1,0c-.121.007-.24.017-.358.031l-.074.012c-.1.013-.189.028-.286.047l-.1.018c-.108.023-.214.049-.318.079l-.02.005c-.11.031-.218.068-.323.108l-.086.032c-.086.034-.171.07-.253.108l-.065.03c-.107.052-.214.107-.317.167l5.712-3.32.053-.03c.086-.049.175-.093.263-.137l.065-.03c.051-.024.1-.047.152-.069l.1-.04.086-.032c.1-.039.21-.075.319-.106h0l.021-.005c.1-.03.209-.057.317-.079l.1-.019c.033-.006.065-.014.1-.02.06-.01.122-.018.184-.026l.074-.011c.106-.013.213-.023.32-.03h.037c.032,0,.065,0,.1,0,.093,0,.187-.005.281,0h.216c.057,0,.121.008.181.012l.127.009c.127.012.258.027.388.047h.016q.213.032.431.079c.046.01.095.023.142.035.09.021.179.041.27.065l.026.008q.256.07.514.159c.034.011.07.026.1.038.14.05.282.1.424.162l.058.021c.114.048.229.1.343.152l.048.022c.129.06.26.124.391.191l.114.06c.147.077.293.157.441.243s.308.181.457.277c.049.031.1.064.146.1.1.066.207.134.309.2.057.038.115.078.171.119.1.067.189.135.286.2.058.043.115.085.171.129q.141.109.283.221c.053.043.106.084.159.128.105.086.21.175.314.265l.118.1q.213.186.421.382c.032.029.061.057.091.086.092.088.184.175.276.264l.04.042c.165.163.328.329.488.5l.023.026q.229.245.452.5l.043.047.171.2c.058.068.124.145.183.217.074.089.146.18.219.271.057.072.114.144.171.218l.031.04c.018.022.035.046.051.07.182.236.359.477.533.724l.053.071.023.035q.248.356.484.724l.047.069.065.107c.127.2.251.4.373.609.019.031.039.062.056.094l.021.037c.137.234.268.473.4.712.01.02.022.038.031.057.022.04.041.079.061.118.1.192.2.384.292.578.019.04.041.079.06.119.012.023.022.048.033.071.115.244.228.49.337.737l.011.023c.011.026.021.052.032.079q.143.336.275.672c.013.036.03.071.044.108s.022.06.032.091c.1.266.2.532.286.8l0,.015c.057.175.115.351.168.528.015.049.028.1.044.149.03.1.057.2.087.3.01.031.018.063.026.1.022.083.042.166.064.248.029.11.057.219.082.329.021.084.039.168.057.252.012.057.028.118.04.175.009.041.016.083.023.123.026.126.051.25.073.376.015.087.031.172.045.26.022.13.041.258.058.387.009.06.021.122.028.182l.009.075c.008.057.013.118.021.178q.02.184.037.368l.016.191c.008.123.016.247.021.369,0,.057.007.112.009.168.007.176.011.352.011.526-.009,3.02-1.076,5.143-2.794,6.144l-5.711,3.319c1.719-1,2.784-3.124,2.794-6.143,0-.175,0-.349-.01-.527A.523.523,0,0,0,3399.749,1726.18Z" transform="translate(-3380.609 -1705.712)" fill="#6e40fb"/>
                    <path id="Path_118737" data-name="Path 118737" d="M3386.283,1715.014c-5.291-3.054-9.593-.6-9.61,5.476s4.257,13.483,9.547,16.537,9.592.6,9.611-5.477S3391.573,1718.068,3386.283,1715.014Z" transform="translate(-3376.673 -1710.389)" fill="#b7b9ba"/>
                  </g>
                  <g id="Group_54993" data-name="Group 54993">
                    <path id="Path_118738" data-name="Path 118738" d="M3286.982,1751.525c-.009-.178-.02-.355-.033-.534q-.01-.136-.022-.274c-.015-.175-.033-.352-.053-.53-.01-.085-.018-.169-.03-.255-.015-.123-.035-.248-.052-.373q-.038-.277-.084-.555c-.021-.125-.044-.251-.066-.376-.032-.179-.068-.359-.1-.54-.03-.144-.06-.288-.093-.432-.026-.121-.054-.241-.083-.361-.037-.158-.077-.317-.118-.475-.03-.118-.06-.237-.093-.355-.052-.19-.107-.382-.163-.572-.02-.071-.041-.143-.062-.214q-.119-.4-.252-.792l-.044-.127c-.074-.217-.149-.435-.229-.652-.029-.081-.057-.163-.09-.243-.074-.2-.148-.391-.229-.585l-.076-.193q-.154-.378-.318-.757c-.02-.045-.041-.089-.061-.136q-.139-.315-.285-.629l-.1-.21q-.164-.342-.335-.686l-.031-.06q-.187-.37-.383-.733c-.037-.067-.072-.135-.11-.2q-.157-.289-.322-.576l-.1-.171q-.208-.361-.427-.716c-.028-.047-.057-.094-.087-.141q-.177-.285-.36-.566c-.05-.077-.1-.155-.151-.232q-.171-.259-.346-.514c-.045-.065-.088-.13-.132-.194q-.236-.339-.48-.67l-.022-.033q-.252-.342-.515-.676c-.081-.105-.166-.208-.249-.312-.106-.131-.21-.262-.316-.392-.085-.1-.171-.206-.261-.308-.1-.122-.205-.243-.31-.362q-.321-.368-.652-.722l-.031-.035c-.232-.246-.466-.487-.7-.723q-.225-.223-.457-.441c-.043-.04-.084-.082-.127-.122q-.3-.281-.609-.551c-.056-.05-.114-.1-.168-.143-.15-.13-.3-.258-.454-.382l-.229-.184q-.2-.163-.407-.319l-.247-.186q-.2-.151-.407-.294l-.245-.172q-.22-.151-.444-.3c-.07-.046-.141-.094-.211-.139-.22-.138-.44-.273-.662-.4-.147-.084-.293-.165-.44-.244l-.125-.068-.335-.171-.114-.057c-.143-.07-.286-.138-.43-.2-.022-.012-.046-.021-.07-.032-.119-.054-.24-.106-.359-.157-.045-.019-.09-.036-.135-.057-.085-.033-.167-.067-.25-.1l-.137-.053c-.092-.033-.185-.067-.275-.1l-.105-.038c-.125-.043-.251-.084-.374-.121l-.069-.021-.3-.088-.083-.021c-.186-.051-.371-.1-.555-.135l-.045-.009c-.189-.039-.378-.074-.565-.1h-.006c-.156-.023-.311-.043-.466-.057l-.089-.009c-.15-.014-.3-.026-.442-.032-.029,0-.058,0-.087,0-.118-.005-.235-.007-.351-.007h-.077c-.133,0-.264.006-.394.014-.031,0-.062,0-.092.006-.1.007-.206.017-.306.028-.027,0-.057.005-.083.009-.123.014-.243.032-.364.052l-.079.014c-.094.017-.188.036-.28.057l-.093.021c-.115.028-.229.057-.343.089l-.027.008c-.1.031-.2.063-.3.1l-.092.032q-.134.047-.265.1l-.061.024c-.1.045-.209.092-.31.141l-.076.038c-.082.041-.161.083-.241.127-.042.024-.084.045-.126.069l45.7-26.561.075-.043.05-.026c.079-.044.16-.087.242-.128l.074-.037c.1-.049.207-.1.312-.142l.016-.006c.015-.007.03-.012.045-.018.087-.036.175-.07.263-.1l.094-.034c.1-.034.2-.067.3-.1l.023-.007h.005c.111-.033.225-.061.34-.089l.094-.022c.092-.02.186-.039.281-.057.018,0,.037-.008.057-.011l.024,0c.12-.021.241-.038.362-.053l.083-.008c.1-.011.2-.021.305-.028.02,0,.04,0,.058,0h.033c.131-.008.262-.013.4-.015h.076c.117,0,.234,0,.353.007h.057l.029,0c.146.006.294.017.442.031l.091.009c.154.016.309.036.465.057h.005c.187.03.376.064.565.1l.044.009c.183.039.368.085.554.134l.046.011.038.011c.1.027.2.057.3.088l.069.021c.125.037.249.078.375.122l.1.037c.092.032.183.065.274.1l.138.053c.083.032.166.065.248.1.026.01.052.019.076.031l.06.026q.179.076.359.158l.072.031c.142.066.285.134.429.2.038.02.076.039.114.057l.335.172.125.067c.146.079.292.16.44.244.221.129.442.263.662.4l.211.139q.224.144.445.3l.244.172q.205.145.407.3.125.092.246.186.206.157.408.319c.077.062.153.122.229.184.153.125.3.254.457.383.057.048.115.094.167.142q.309.27.611.552c.042.04.083.08.125.119.133.127.267.254.4.384.02.02.038.041.057.057.238.236.473.475.7.722l.036.039c.219.234.434.473.649.718l.061.067c.084.1.165.2.247.293s.176.205.262.309c.107.129.21.261.315.392.083.1.167.207.248.313l.046.057c.159.2.314.41.469.619l.022.032c.145.2.286.394.428.594l.052.077c.045.064.089.129.134.194.117.17.232.341.346.514l.152.232c.038.057.078.115.114.176.082.129.163.259.243.389.03.048.061.094.089.142.129.211.257.422.381.635.015.026.03.054.046.081.033.057.065.115.1.171q.164.285.323.576l.109.2c.024.045.049.089.073.134.1.2.209.4.311.6l.03.06c.086.171.171.343.254.514.028.057.055.114.082.171s.065.14.1.211q.145.313.285.628c.021.045.042.091.061.136l.022.049c.1.235.2.472.3.708.026.064.051.129.076.193.046.114.091.224.135.337.03.082.06.165.092.247s.06.161.089.243q.12.324.229.652c.014.043.03.085.043.128l.012.031q.126.38.24.76c.022.072.041.143.063.214.042.144.086.286.125.432.013.046.023.092.038.139l.093.355c.04.158.08.316.117.473.03.122.058.241.083.362.02.085.041.169.057.253.013.057.023.118.035.179.037.181.07.36.1.54.023.125.046.251.067.375.031.186.057.371.084.557.012.087.029.175.04.262,0,.036.008.074.012.11.01.085.02.172.029.255.021.177.038.354.054.529.009.092.015.183.022.274.013.179.023.357.033.534,0,.08.007.16.011.24.009.254.015.507.014.758-.012,4.351-1.548,7.412-4.024,8.85l-45.693,26.554c2.476-1.439,4.013-4.5,4.024-8.85,0-.25-.005-.5-.014-.758C3286.991,1751.684,3286.986,1751.6,3286.982,1751.525Z" transform="translate(-3259.414 -1700.258)" fill="#393939"/>
                    <path id="Path_118739" data-name="Path 118739" d="M3267.574,1766.217c-7.619-4.4-13.817-.866-13.841,7.886s6.132,19.422,13.752,23.82,13.816.868,13.841-7.889S3275.195,1770.616,3267.574,1766.217Z" transform="translate(-3253.734 -1737.772)" fill="#393939"/>
                  </g>
                </g>
              </g>
              <g id="Group_55004" data-name="Group 55004" transform="translate(258.59 39.784)">
                <path id="Path_118740" data-name="Path 118740" d="M3216.474,1785.754c0,11.411,8.057,25.314,18.005,31.056,7.494,4.326,13.917,2.782,16.629-3.124a48.587,48.587,0,0,0,1.332-8.618c.905-15.122-6.525-26.289-20.119-30.68a39.6,39.6,0,0,0-5.641-1.368C3220.641,1772.867,3216.474,1777.548,3216.474,1785.754Z" transform="translate(-3216.474 -1773.016)" fill="#6e40fb"/>
                <path id="Path_118741" data-name="Path 118741" d="M3216.474,1785.754c0,11.411,8.057,25.314,18.005,31.056,7.494,4.326,13.917,2.782,16.629-3.124a17.062,17.062,0,0,0,1.378-7.143q0-.731-.046-1.476c-.646-11.107-8.44-24.085-17.958-29.58a22.21,22.21,0,0,0-2.161-1.1,15,15,0,0,0-5.641-1.366C3220.641,1772.867,3216.474,1777.548,3216.474,1785.754Z" transform="translate(-3216.474 -1773.016)" fill="#393939"/>
                <path id="Path_118742" data-name="Path 118742" d="M3243.81,1819.647a8.183,8.183,0,0,0,7.742-5.082,16.151,16.151,0,0,0,1.3-6.771c0-.47-.015-.948-.045-1.421-.633-10.885-8.328-23.562-17.518-28.868a21.212,21.212,0,0,0-2.074-1.056,14.128,14.128,0,0,0-5.3-1.292c-.089,0-.177,0-.263,0-5.574,0-9.036,4.542-9.036,11.853,0,11.111,7.878,24.7,17.563,30.286A15.682,15.682,0,0,0,3243.81,1819.647Z" transform="translate(-3217.724 -1774.266)" fill="#eceff0"/>
                <g id="Group_55003" data-name="Group 55003" transform="translate(4.475 0.607)">
                  <g id="Group_54996" data-name="Group 54996" transform="translate(3.228)">
                    <path id="Path_118743" data-name="Path 118743" d="M3235.5,1802.214a.442.442,0,0,0,.442-.442h0v-26.848a.442.442,0,1,0-.884,0v26.85a.441.441,0,0,0,.441.443Z" transform="translate(-3235.062 -1774.48)" fill="#393939"/>
                  </g>
                  <g id="Group_54997" data-name="Group 54997" transform="translate(4.524 30.185)">
                    <path id="Path_118744" data-name="Path 118744" d="M3261.092,1860.06a.443.443,0,0,0,.207-.835l-22.463-11.862a.442.442,0,0,0-.414.782l22.46,11.862A.44.44,0,0,0,3261.092,1860.06Z" transform="translate(-3238.188 -1847.312)" fill="#393939"/>
                  </g>
                  <g id="Group_54998" data-name="Group 54998" transform="translate(4.38 12.99)">
                    <path id="Path_118745" data-name="Path 118745" d="M3238.285,1821.71a.441.441,0,0,0,.268-.091l19.658-15.006a.443.443,0,0,0-.538-.7l-19.658,15.006a.443.443,0,0,0,.269.8Z" transform="translate(-3237.84 -1805.823)" fill="#393939"/>
                  </g>
                  <g id="Group_55002" data-name="Group 55002" transform="translate(0 25.478)">
                    <g id="Group_54999" data-name="Group 54999" transform="translate(0 2.128)">
                      <path id="Path_118746" data-name="Path 118746" d="M3230.391,1842.9l-3.119-1.812.013,4.233,3.119,1.812Z" transform="translate(-3227.272 -1841.089)" fill="#393939"/>
                    </g>
                    <g id="Group_55000" data-name="Group 55000">
                      <path id="Path_118747" data-name="Path 118747" d="M3234.075,1837.767l-3.119-1.813-3.684,2.127,3.119,1.813Z" transform="translate(-3227.272 -1835.954)" fill="#393939"/>
                    </g>
                    <g id="Group_55001" data-name="Group 55001" transform="translate(3.12 1.814)">
                      <path id="Path_118748" data-name="Path 118748" d="M3234.8,1842.458l.012,4.233,3.684-2.127-.012-4.232Z" transform="translate(-3234.799 -1840.331)" fill="#393939"/>
                    </g>
                  </g>
                </g>
              </g>
              <g id="Group_32836" data-name="Group 32836" transform="translate(168.842 100.023)">
                <path id="Path_81118" data-name="Path 81118" d="M3020.971,1919.045a3.5,3.5,0,0,0-3.527-.345l-9.076,5.274a3.5,3.5,0,0,1,3.528.346,10.884,10.884,0,0,1,4.94,8.557,3.468,3.468,0,0,1-1.445,3.178l9.075-5.274a3.471,3.471,0,0,0,1.446-3.178A10.882,10.882,0,0,0,3020.971,1919.045Z" transform="translate(-3004.87 -1918.365)" fill="url(#linear-gradient-7)"/>
                <g id="Group_32835" data-name="Group 32835" transform="translate(0 3.579)">
                  <ellipse id="Ellipse_3403" data-name="Ellipse 3403" cx="4.047" cy="6.987" rx="4.047" ry="6.987" transform="translate(0 4.067) rotate(-30.163)" fill="#6e40fb"/>
                </g>
              </g>
              <g id="Group_32838" data-name="Group 32838" transform="translate(161.225 80.431)">
                <path id="Path_81119" data-name="Path 81119" d="M3005.712,1873.971c-5.278-3.048-10.583-3.847-14.505-1.568l-9.076,5.275c3.922-2.279,9.226-1.48,14.5,1.567a40.822,40.822,0,0,1,14.486,15.3l9.076-5.275A40.818,40.818,0,0,0,3005.712,1873.971Z" transform="translate(-2981.89 -1871.092)" fill="url(#linear-gradient-8)"/>
                <g id="Group_32837" data-name="Group 32837" transform="translate(0 5.275)">
                  <path id="Path_81120" data-name="Path 81120" d="M2996.295,1886.7a40.823,40.823,0,0,1,14.485,15.3c-1.782,1.008-3.565,2.015-5.4,3.044a26.407,26.407,0,0,0-9.156-9.562c-3.61-2.066-6.657-2.319-9.247-.98-.238-.385-.434-.7-.62-1.011l-4.812-8.212C2985.494,1882.82,2990.909,1883.588,2996.295,1886.7Z" transform="translate(-2981.548 -1883.819)" fill="#6e40fb"/>
                </g>
              </g>
              <g id="Group_32841" data-name="Group 32841" transform="translate(138.014 37.753)">
                <g id="Group_32839" data-name="Group 32839" transform="translate(11.813 26.854)">
                  <path id="Path_81121" data-name="Path 81121" d="M2980.185,1838.041c9.437,5.447,18.95,15.008,26.157,27.59l-5.392,3.073c-5.777-9.737-12.678-17.146-20.761-21.818s-15.02-5.261-20.8-2.214c-1.8-3.127-3.575-6.2-5.342-9.262C2960.962,1831.2,2970.532,1832.469,2980.185,1838.041Z" transform="translate(-2954.046 -1832.912)" fill="#6e40fb"/>
                </g>
                <path id="Path_81122" data-name="Path 81122" d="M2989.662,1825.315c-9.523-5.5-18.964-6.806-25.857-2.8l-9.076,5.275c6.894-4.006,16.334-2.7,25.857,2.8,9.437,5.447,18.95,15.007,26.157,27.589l9.076-5.274C3008.614,1840.322,2999.1,1830.766,2989.662,1825.315Z" transform="translate(-2942.632 -1798.606)" fill="url(#linear-gradient-9)"/>
                <path id="Path_81123" data-name="Path 81123" d="M2972.912,1775.759q-2.7-1.56-5.5-2.88c-12.759-6.019-23.688-6.2-32.8-1.293l-9.076,5.275c9.107-4.9,20.037-4.726,32.8,1.293q2.792,1.317,5.5,2.88c14.4,8.315,26.94,21.765,37.711,39.7l9.076-5.275C2999.852,1797.52,2987.316,1784.07,2972.912,1775.759Z" transform="translate(-2925.544 -1768.118)" fill="url(#linear-gradient-10)"/>
                <g id="Group_32840" data-name="Group 32840" transform="translate(0 5.271)">
                  <path id="Path_81124" data-name="Path 81124" d="M2963.835,1788.477c14.4,8.315,26.94,21.765,37.711,39.7l-5.441,3.15c-8.746-15.267-20.566-27.292-32.478-34.171-11.777-6.8-23.643-8.565-32.727-3.471-1.752-3.066-3.5-6.13-5.358-9.379,9.108-4.9,20.037-4.726,32.8,1.293Q2961.131,1786.914,2963.835,1788.477Z" transform="translate(-2925.543 -1780.837)" fill="#6e40fb"/>
                </g>
              </g>
              <g id="Group_54884" data-name="Group 54884" transform="translate(397.251 48.776)">
                <path id="Path_118625" data-name="Path 118625" d="M3620.706,1919.171a12.458,12.458,0,0,0,5.583,9.735c3.084,1.8,5.583.361,5.583-3.216a12.469,12.469,0,0,0-5.583-9.737C3623.205,1914.152,3620.706,1915.593,3620.706,1919.171Z" transform="translate(-3591.833 -1865.251)" fill="#393939"/>
                <path id="Path_118626" data-name="Path 118626" d="M3624.507,1898.429c-4.924-8.584-15.845-11.564-20.767-8.727h0l-6.3-10.983.153-.086c8.326-4.8,21.823,3.08,30.146,17.6l.152.266-3.383,1.935Z" transform="translate(-3578.21 -1843.028)" fill="#393939"/>
                <path id="Path_118627" data-name="Path 118627" d="M3621.215,1866.9c-9.321-16.253-27.394-23.461-36.718-18.088h0l-6.3-10.984.231-.133c12.685-7.314,33.253,4.692,45.938,26.814l.231.4-3.383,1.986Z" transform="translate(-3566.943 -1818.624)" fill="#393939"/>
                <path id="Path_118628" data-name="Path 118628" d="M3617.964,1835.864c-13.66-23.824-38.8-35.154-52.463-27.279h0l-6.3-10.983c17.135-9.876,45.014,6.4,62.148,36.278h0l-3.383,1.986Z" transform="translate(-3555.819 -1794.713)" fill="#393939"/>
                <path id="Path_118629" data-name="Path 118629" d="M3620.08,1916.058l-3.245,1.918,3.512.719Z" transform="translate(-3589.565 -1865.767)" fill="#eceff0"/>
                <path id="Path_118630" data-name="Path 118630" d="M3638.817,1948.027l-3.285,1.933.423-2.917Z" transform="translate(-3600.513 -1883.91)" fill="#eceff0"/>
                <path id="Path_118631" data-name="Path 118631" d="M3592.656,1880.832l-3.384,1.986,4.327-1.423Z" transform="translate(-3573.427 -1845.14)" fill="#eceff0"/>
                <path id="Path_118632" data-name="Path 118632" d="M3573.417,1841.04l-3.384,1.986,4.385-.993Z" transform="translate(-3562.161 -1821.84)" fill="#eceff0"/>
                <path id="Path_118633" data-name="Path 118633" d="M3554.422,1801.682l-3.383,1.986,4.928-.993Z" transform="translate(-3551.039 -1798.794)" fill="#eceff0"/>
              </g>
              <g id="Group_54885" data-name="Group 54885" transform="translate(397.244 50.762)">
                <path id="Path_118634" data-name="Path 118634" d="M3612.535,1923.963a12.471,12.471,0,0,0,5.583,9.737c3.085,1.8,5.584.359,5.584-3.219a12.462,12.462,0,0,0-5.584-9.736C3615.035,1918.947,3612.535,1920.387,3612.535,1923.963Z" transform="translate(-3587.041 -1870.044)" fill="url(#linear-gradient-11)"/>
                <path id="Path_118635" data-name="Path 118635" d="M3613.423,1904.917c-4.921-8.583-12.931-13.26-17.855-10.423h0l-6.3-10.984.153-.086c8.325-4.8,21.822,3.08,30.146,17.6l.153.266-6.3,3.63Z" transform="translate(-3573.418 -1847.821)" fill="url(#linear-gradient-12)"/>
                <path id="Path_118636" data-name="Path 118636" d="M3610.133,1873.332c-9.323-16.253-24.486-25.106-33.807-19.734h0l-6.3-10.983.232-.133c12.685-7.313,33.253,4.694,45.938,26.813l.231.4-6.3,3.631Z" transform="translate(-3562.151 -1823.416)" fill="url(#linear-gradient-13)"/>
                <path id="Path_118637" data-name="Path 118637" d="M3606.877,1842.3c-13.662-23.824-35.891-36.8-49.55-28.924h0l-6.305-10.983c17.136-9.879,45.012,6.4,62.146,36.276h0l-6.3,3.63Z" transform="translate(-3551.023 -1799.506)" fill="url(#linear-gradient-14)"/>
              </g>
              <path id="Path_2110" data-name="Path 2110" d="M3068.989,2226.955l-162.9-78.908c-12.646-7.3-11.062-20.056,3.543-28.487l147.586-57.467c14.605-8.43,36.7-9.346,49.342-2.045l163.534,62.3c12.646,7.3,11.061,20.055-3.543,28.487l-148.223,74.079C3103.728,2233.341,3081.635,2234.257,3068.989,2226.955Z" transform="translate(-2771.138 -1898.418)" fill="url(#linear-gradient-15)"/>
              <g id="Group_54946" data-name="Group 54946" transform="translate(152.566 154.377)">
                <g id="Group_54945" data-name="Group 54945" transform="translate(0 13.848)">
                  <g id="Group_54944" data-name="Group 54944">
                    <path id="Path_118687" data-name="Path 118687" d="M2960.655,2162.361l22.156,12.876,4.128-42.707,1.7-17.589-22.156-12.876-1.7,17.587Z" transform="translate(-2960.655 -2094.132)" fill="#393939"/>
                    <g id="Group_54942" data-name="Group 54942" transform="translate(5.833)">
                      <path id="Path_118688" data-name="Path 118688" d="M2996.885,2103.732l-22.156-12.876,13.737-7.931,22.156,12.876Z" transform="translate(-2974.73 -2082.924)" fill="url(#linear-gradient-16)"/>
                    </g>
                    <g id="Group_54943" data-name="Group 54943" transform="translate(22.157 12.879)">
                      <path id="Path_118689" data-name="Path 118689" d="M3033.684,2114l4.234,36.729,1.921,16.646-25.723,14.85,4.129-42.707,1.7-17.589Z" transform="translate(-3014.116 -2113.998)" fill="#393939"/>
                    </g>
                  </g>
                </g>
                <path id="Path_118690" data-name="Path 118690" d="M2982.84,2064.8a15.29,15.29,0,0,1,15.293-15.29h0a15.293,15.293,0,1,1-15.293,15.292Z" transform="translate(-2973.645 -2049.512)" fill="#393939"/>
              </g>
              <g id="Group_54955" data-name="Group 54955" transform="translate(122.742 127.625)">
                <path id="Path_118691" data-name="Path 118691" d="M2925.411,1986.692a73.023,73.023,0,0,1,8.567,6.459c19.845,17.415,24.26,41.8,11.635,66.8a89.47,89.47,0,0,1-8.577,13.641c-8.924,8.037-20.956,5.946-30.5-6.888-12.663-17.03-16.141-46.53-7.775-65.889C2904.781,1986.892,2915.282,1982.008,2925.411,1986.692Z" transform="translate(-2891.922 -1984.965)" fill="#6e40fb"/>
                <path id="Path_118692" data-name="Path 118692" d="M2925.42,1986.692a27.7,27.7,0,0,1,8.566,6.459,40.788,40.788,0,0,1,2.856,3.449c12.118,16.307,15.828,44.033,8.778,63.35-.309.864-.644,1.712-1,2.538a31.523,31.523,0,0,1-7.583,11.1c-8.924,8.037-20.956,5.946-30.5-6.888-12.663-17.03-16.141-46.53-7.775-65.889C2904.78,1986.892,2915.282,1982.008,2925.42,1986.692Z" transform="translate(-2891.922 -1984.965)" fill="#393939"/>
                <path id="Path_118693" data-name="Path 118693" d="M2910.147,2068.058c-12.325-16.585-15.728-45.411-7.583-64.262,5.353-12.4,14.56-17.568,24.013-13.481.148.057.3.13.447.2a26.113,26.113,0,0,1,8.048,6.082,39.107,39.107,0,0,1,2.744,3.314c11.7,15.738,15.46,42.89,8.554,61.819-.295.823-.62,1.645-.964,2.442a29.905,29.905,0,0,1-7.17,10.532,15.12,15.12,0,0,1-16.852,2.949A29.015,29.015,0,0,1,2910.147,2068.058Z" transform="translate(-2894.22 -1987.292)" fill="#eceff0"/>
                <g id="Group_54954" data-name="Group 54954" transform="translate(0 1.181)">
                  <g id="Group_54947" data-name="Group 54947" transform="translate(8.726)">
                    <path id="Path_118694" data-name="Path 118694" d="M2910.243,2034.932a.82.82,0,0,1-.43-1.075l19.687-45.548a.817.817,0,1,1,1.5.647l-19.684,45.549a.818.818,0,0,1-1.075.427Z" transform="translate(-2909.747 -1987.815)" fill="#393939"/>
                  </g>
                  <g id="Group_54948" data-name="Group 54948" transform="translate(8.492 52.172)">
                    <path id="Path_118695" data-name="Path 118695" d="M2938.761,2151.606l-29.407-36.593a.819.819,0,0,1,1.275-1.026l29.407,36.595a.818.818,0,1,1-1.275,1.024Z" transform="translate(-2909.184 -2113.697)" fill="#393939"/>
                  </g>
                  <g id="Group_54949" data-name="Group 54949" transform="translate(9.842 37.281)">
                    <path id="Path_118696" data-name="Path 118696" d="M2913.263,2090.454a.817.817,0,0,1-.2-1.612l44.349-11.049a.818.818,0,0,1,.4,1.587l-44.352,11.049a.722.722,0,0,1-.2.025Z" transform="translate(-2912.44 -2077.769)" fill="#393939"/>
                  </g>
                  <g id="Group_54953" data-name="Group 54953" transform="translate(0 43.301)">
                    <g id="Group_54950" data-name="Group 54950" transform="translate(0 0.904)">
                      <path id="Path_118697" data-name="Path 118697" d="M2892.657,2107.028l-3.963-5.363,3.089-7.19,3.963,5.363Z" transform="translate(-2888.694 -2094.475)" fill="#393939"/>
                    </g>
                    <g id="Group_54951" data-name="Group 54951" transform="translate(3.088)">
                      <path id="Path_118698" data-name="Path 118698" d="M2900.108,2098.564l-3.963-5.363,7.809-.907,3.963,5.359Z" transform="translate(-2896.145 -2092.293)" fill="#393939"/>
                    </g>
                    <g id="Group_54952" data-name="Group 54952" transform="translate(3.961 5.36)">
                      <path id="Path_118699" data-name="Path 118699" d="M2909.15,2105.226l-3.089,7.189-7.81.908,3.09-7.19Z" transform="translate(-2898.252 -2105.226)" fill="#393939"/>
                    </g>
                  </g>
                </g>
              </g>
              <path id="Trazado_118220" data-name="Trazado 118220" d="M3722.319,2135.31h0a3.386,3.386,0,0,0-3.386,3.385v9.577h6.771V2138.7A3.385,3.385,0,0,0,3722.319,2135.31Z" transform="translate(-3252.099 -1945.374)" fill="#575757"/>
              <path id="Trazado_836014" data-name="Trazado 836014" d="M0,0H14.153V11.346H0Z" transform="translate(463.143 206.389)" fill="#eee"/>
              <g id="Grupo_55604" data-name="Grupo 55604" transform="translate(387.452 105.455)">
                <circle id="Elipse_3822" data-name="Elipse 3822" cx="8.037" cy="8.037" r="8.037" transform="translate(68.149 83.503) rotate(-45)" fill="#878787"/>
                <rect id="Rectángulo_31114" data-name="Rectángulo 31114" width="2.764" height="14.241" transform="matrix(0.695, -0.719, 0.719, 0.695, 28.475, 32.932)" fill="#3c3c3c"/>
                <path id="Trazado_118221" data-name="Trazado 118221" d="M3580.782,1986.5h0l-50.7,52.5c17.855,3.716,34.734.4,51.782-6.609a80.079,80.079,0,0,0,27.219-18.56h0a80.077,80.077,0,0,0,17.6-27.846c6.408-17.282,9.139-34.266,4.807-51.982Z" transform="translate(-3528.966 -1932.953)" fill="#eee"/>
                <path id="Trazado_118222" data-name="Trazado 118222" d="M3627.157,2011.332a80.071,80.071,0,0,1-17.6,27.846h0a80.1,80.1,0,0,1-27.218,18.559c-15.753,6.472-31.363,9.785-47.73,7.323l-4.529,4.689c17.855,3.716,34.734.4,51.782-6.609a80.079,80.079,0,0,0,27.219-18.56h0a80.077,80.077,0,0,0,17.6-27.846,103.184,103.184,0,0,0,6.778-30.216A109.408,109.408,0,0,1,3627.157,2011.332Z" transform="translate(-3528.966 -1963.704)" fill="#e0e0e0"/>
                <g id="Grupo_55601" data-name="Grupo 55601" transform="translate(80.112 71.235)">
                  <path id="Trazado_118223" data-name="Trazado 118223" d="M3720.692,2126.614h0Z" transform="translate(-3720.692 -2116.971)" fill="#eee"/>
                  <path id="Trazado_118224" data-name="Trazado 118224" d="M3728.841,2103.348a82.4,82.4,0,0,1-7.876,9.521A82.221,82.221,0,0,0,3728.841,2103.348Z" transform="translate(-3720.852 -2103.348)" fill="#eee"/>
                </g>
                <path id="Trazado_118225" data-name="Trazado 118225" d="M3603.985,1973.768c-.693.8-1.385,1.595-2.088,2.392-4.262,4.84-8.8,9.766-13.439,14.615-1.034,1.1-2.107,2.211-3.179,3.293-4.688,4.812-9.453,9.51-14.141,13.942-.769.721-1.547,1.443-2.306,2.154-19.323,17.975-36.823,30.75-41.141,26.573-2.734-2.629,13.818-24.286,37.934-50.005q1.126-1.21,2.268-2.42c1.157-1.205,2.315-2.43,3.493-3.654.522-.56,1.052-1.111,1.595-1.661s1.062-1.1,1.594-1.642q1.781-1.836,3.55-3.625l2.325-2.354c24.875-25,45.924-42.271,48.658-39.642C3633.425,1935.91,3621.276,1953.828,3603.985,1973.768Z" transform="translate(-3527.396 -1931.47)" fill="#c6c6c6"/>
                <g id="Grupo_55602" data-name="Grupo 55602" transform="translate(37.261 38.33)">
                  <path id="Trazado_118226" data-name="Trazado 118226" d="M3656.628,2027.922c-.693.8-1.385,1.594-2.088,2.392l-23.774-2.43-11.844-1.206-1.624-.161.124-1.272.133-1.291,15.537,1.575Z" transform="translate(-3617.299 -2023.955)" fill="#3c3c3c"/>
                </g>
                <g id="Grupo_55603" data-name="Grupo 55603" transform="translate(36.112 39.441)">
                  <path id="Trazado_118227" data-name="Trazado 118227" d="M3622.158,2063.733c-.769.721-1.547,1.442-2.306,2.154l-3.208-23.432-2.117-15.469,1.272-.172,1.281-.18.218,1.613,1.613,11.787Z" transform="translate(-3614.528 -2026.634)" fill="#3c3c3c"/>
                </g>
                <path id="Trazado_118228" data-name="Trazado 118228" d="M3618.918,2025.034l20.86,20.147c-1.038,1.106-2.107,2.214-3.185,3.3l-20.859-20.147a2.291,2.291,0,0,1-.056-3.24h0A2.292,2.292,0,0,1,3618.918,2025.034Z" transform="translate(-3578.712 -1985.88)" fill="#878787"/>
              </g>
              <path id="Trazado_118229" data-name="Trazado 118229" d="M3679.71,2232.743h39.283l-6.546-32.728h-26.191Z" transform="translate(-3229.132 -1983.263)" fill="#c6c6c6"/>
              <path id="Trazado_118230" data-name="Trazado 118230" d="M3686.256,2200.015h4.508l-6.545,32.728h-4.508Z" transform="translate(-3229.132 -1983.263)" fill="#c6c6c6" opacity="0.3" style="mix-blend-mode: multiply;isolation: isolate"/>
              <path id="Trazado_836015" data-name="Trazado 836015" d="M0,0H15.3V4.324H0Z" transform="translate(462.436 202.025)" fill="#c6c6c6"/>
              <path id="Trazado_836016" data-name="Trazado 836016" d="M0,0H43.406V7.855H0Z" transform="translate(448.517 241.626)" fill="#eee"/>
              <path id="Trazado_118231" data-name="Trazado 118231" d="M3078.63,2260.543a3.57,3.57,0,0,1-2.7-1.091,4.049,4.049,0,0,1-1.041-2.918v-.256a4.909,4.909,0,0,1,.464-2.171,3.624,3.624,0,0,1,1.3-1.493,3.254,3.254,0,0,1,1.808-.54,3.059,3.059,0,0,1,2.476,1.049,4.542,4.542,0,0,1,.883,3v.581h-5.533a2.909,2.909,0,0,0,.705,1.951,2.219,2.219,0,0,0,1.718.743,2.431,2.431,0,0,0,1.253-.3,3.146,3.146,0,0,0,.9-.8l.853.665A3.429,3.429,0,0,1,3078.63,2260.543Zm-.174-7.322a1.862,1.862,0,0,0-1.419.616,2.986,2.986,0,0,0-.709,1.725h4.091v-.105a2.665,2.665,0,0,0-.573-1.65A1.757,1.757,0,0,0,3078.456,2253.221Z" transform="translate(-2874.977 -2013.745)" fill="#393939"/>
              <path id="Trazado_118232" data-name="Trazado 118232" d="M3099.779,2258.226a1.028,1.028,0,0,0-.427-.879,4.118,4.118,0,0,0-1.487-.54,7.015,7.015,0,0,1-1.684-.544,2.4,2.4,0,0,1-.922-.754,1.807,1.807,0,0,1-.3-1.042,2.119,2.119,0,0,1,.849-1.7,3.319,3.319,0,0,1,2.171-.694,3.414,3.414,0,0,1,2.252.716,2.278,2.278,0,0,1,.864,1.835h-1.4a1.26,1.26,0,0,0-.487-.989,1.825,1.825,0,0,0-1.226-.416,1.91,1.91,0,0,0-1.193.333,1.045,1.045,0,0,0-.43.868.846.846,0,0,0,.4.762,4.9,4.9,0,0,0,1.445.491,7.487,7.487,0,0,1,1.695.559,2.476,2.476,0,0,1,.963.781,1.923,1.923,0,0,1,.313,1.113,2.091,2.091,0,0,1-.877,1.756,3.676,3.676,0,0,1-2.271.66,4.107,4.107,0,0,1-1.736-.347,2.825,2.825,0,0,1-1.182-.97,2.338,2.338,0,0,1-.426-1.348h1.4a1.447,1.447,0,0,0,.563,1.114,2.182,2.182,0,0,0,1.385.411,2.252,2.252,0,0,0,1.272-.321A.987.987,0,0,0,3099.779,2258.226Z" transform="translate(-2886.569 -2013.745)" fill="#393939"/>
              <path id="Trazado_118233" data-name="Trazado 118233" d="M3115.234,2247.667v1.977h1.524v1.079h-1.524v5.072a1.13,1.13,0,0,0,.2.736.855.855,0,0,0,.694.246,3.392,3.392,0,0,0,.664-.09v1.125a4.049,4.049,0,0,1-1.072.151,1.738,1.738,0,0,1-1.411-.566,2.434,2.434,0,0,1-.475-1.608v-5.064h-1.487v-1.079h1.487v-1.977Z" transform="translate(-2896.914 -2011.164)" fill="#393939"/>
              <path id="Trazado_118234" data-name="Trazado 118234" d="M3131.632,2260.392a2.9,2.9,0,0,1-.2-.86,3.113,3.113,0,0,1-2.325,1.011,2.882,2.882,0,0,1-1.981-.683,2.212,2.212,0,0,1-.773-1.733,2.311,2.311,0,0,1,.97-1.981,4.578,4.578,0,0,1,2.729-.705h1.359v-.641a1.569,1.569,0,0,0-.438-1.166,1.759,1.759,0,0,0-1.29-.434,2.035,2.035,0,0,0-1.254.378,1.112,1.112,0,0,0-.505.913h-1.4a1.92,1.92,0,0,1,.434-1.182,2.96,2.96,0,0,1,1.177-.9,3.954,3.954,0,0,1,1.635-.332,3.228,3.228,0,0,1,2.211.705,2.547,2.547,0,0,1,.831,1.944v3.76a4.614,4.614,0,0,0,.286,1.789v.12Zm-2.317-1.064a2.454,2.454,0,0,0,1.245-.34,2.057,2.057,0,0,0,.853-.883v-1.676h-1.094q-2.568,0-2.567,1.5a1.272,1.272,0,0,0,.437,1.026A1.679,1.679,0,0,0,3129.314,2259.328Z" transform="translate(-2905.115 -2013.745)" fill="#393939"/>
              <path id="Trazado_118235" data-name="Trazado 118235" d="M3149.974,2259.4a2.014,2.014,0,0,0,1.307-.453,1.6,1.6,0,0,0,.619-1.132h1.321a2.536,2.536,0,0,1-.484,1.335,3.172,3.172,0,0,1-1.188,1.012,3.428,3.428,0,0,1-1.574.377,3.364,3.364,0,0,1-2.653-1.114,4.433,4.433,0,0,1-.985-3.046v-.234a4.91,4.91,0,0,1,.438-2.121,3.332,3.332,0,0,1,1.257-1.443,3.574,3.574,0,0,1,1.936-.512,3.276,3.276,0,0,1,2.283.822,2.942,2.942,0,0,1,.97,2.136H3151.9a1.922,1.922,0,0,0-.6-1.3,1.869,1.869,0,0,0-1.333-.51,1.957,1.957,0,0,0-1.649.766,3.6,3.6,0,0,0-.585,2.216v.264a3.521,3.521,0,0,0,.581,2.173A1.963,1.963,0,0,0,3149.974,2259.4Z" transform="translate(-2916.814 -2013.745)" fill="#393939"/>
              <path id="Trazado_118236" data-name="Trazado 118236" d="M3166.752,2246.069a.833.833,0,0,1,.207-.573.783.783,0,0,1,.615-.234.793.793,0,0,1,.619.234.826.826,0,0,1,.211.573.826.826,0,1,1-1.652,0Zm1.51,10.334h-1.4v-8.167h1.4Z" transform="translate(-2928.77 -2009.757)" fill="#393939"/>
              <path id="Trazado_118237" data-name="Trazado 118237" d="M3174.893,2251.6a4.826,4.826,0,0,1,.471-2.159,3.52,3.52,0,0,1,1.313-1.479,3.574,3.574,0,0,1,1.921-.521,3.445,3.445,0,0,1,2.7,1.155,4.444,4.444,0,0,1,1.03,3.072v.1a4.853,4.853,0,0,1-.457,2.139,3.459,3.459,0,0,1-1.305,1.477,3.609,3.609,0,0,1-1.951.528,3.435,3.435,0,0,1-2.691-1.154,4.422,4.422,0,0,1-1.03-3.057Zm1.4.166a3.5,3.5,0,0,0,.63,2.182,2.136,2.136,0,0,0,3.377-.011,3.821,3.821,0,0,0,.627-2.337,3.49,3.49,0,0,0-.638-2.178,2.031,2.031,0,0,0-1.7-.835,2,2,0,0,0-1.667.824A3.786,3.786,0,0,0,3176.3,2251.77Zm2.937-7.6h1.691l-2.023,2.219-1.124,0Z" transform="translate(-2933.536 -2009.116)" fill="#393939"/>
              <path id="Trazado_118238" data-name="Trazado 118238" d="M3198.38,2252.225l.045,1.027a2.977,2.977,0,0,1,2.446-1.177q2.588,0,2.612,2.921v5.4h-1.4v-5.4a1.878,1.878,0,0,0-.4-1.306,1.616,1.616,0,0,0-1.234-.423,2.021,2.021,0,0,0-1.193.361,2.469,2.469,0,0,0-.8.952v5.819h-1.4v-8.167Z" transform="translate(-2946.516 -2013.745)" fill="#393939"/>
              <path id="Trazado_118239" data-name="Trazado 118239" d="M3078.63,2297.843a3.569,3.569,0,0,1-2.7-1.091,4.048,4.048,0,0,1-1.041-2.917v-.257a4.9,4.9,0,0,1,.464-2.169,3.628,3.628,0,0,1,1.3-1.5,3.261,3.261,0,0,1,1.808-.539,3.057,3.057,0,0,1,2.476,1.049,4.538,4.538,0,0,1,.883,3v.581h-5.533a2.9,2.9,0,0,0,.705,1.951,2.22,2.22,0,0,0,1.718.744,2.436,2.436,0,0,0,1.253-.3,3.145,3.145,0,0,0,.9-.8l.853.664A3.428,3.428,0,0,1,3078.63,2297.843Zm-.174-7.322a1.861,1.861,0,0,0-1.419.615,2.987,2.987,0,0,0-.709,1.725h4.091v-.106a2.662,2.662,0,0,0-.573-1.649A1.755,1.755,0,0,0,3078.456,2290.521Z" transform="translate(-2874.977 -2035.587)" fill="#393939"/>
              <path id="Trazado_118240" data-name="Trazado 118240" d="M3096.806,2289.525l.037.906a3.016,3.016,0,0,1,2.423-1.056,2.333,2.333,0,0,1,2.332,1.313,3.106,3.106,0,0,1,1.061-.952,3.141,3.141,0,0,1,1.544-.362q2.687,0,2.732,2.845v5.472h-1.4v-5.39a1.878,1.878,0,0,0-.4-1.31,1.764,1.764,0,0,0-1.344-.434,1.85,1.85,0,0,0-1.29.464,1.878,1.878,0,0,0-.6,1.249v5.42h-1.4v-5.352a1.558,1.558,0,0,0-1.744-1.781,1.868,1.868,0,0,0-1.879,1.169v5.964h-1.4v-8.167Z" transform="translate(-2887.038 -2035.587)" fill="#393939"/>
              <path id="Trazado_118241" data-name="Trazado 118241" d="M3128.214,2283.369a.833.833,0,0,1,.208-.574.781.781,0,0,1,.615-.234.792.792,0,0,1,.618.234.824.824,0,0,1,.212.574.864.864,0,0,1-1.445.566A.8.8,0,0,1,3128.214,2283.369Zm1.509,10.333h-1.4v-8.167h1.4Z" transform="translate(-2906.203 -2031.598)" fill="#393939"/>
              <path id="Trazado_118242" data-name="Trazado 118242" d="M3141.523,2295.526a1.026,1.026,0,0,0-.427-.879,4.094,4.094,0,0,0-1.487-.54,7.02,7.02,0,0,1-1.683-.544,2.393,2.393,0,0,1-.921-.754,1.8,1.8,0,0,1-.3-1.042,2.119,2.119,0,0,1,.849-1.7,3.317,3.317,0,0,1,2.17-.694,3.414,3.414,0,0,1,2.253.716,2.278,2.278,0,0,1,.865,1.835h-1.4a1.263,1.263,0,0,0-.486-.99,1.829,1.829,0,0,0-1.227-.415,1.908,1.908,0,0,0-1.193.333,1.043,1.043,0,0,0-.43.868.847.847,0,0,0,.4.762,4.9,4.9,0,0,0,1.446.49,7.532,7.532,0,0,1,1.694.559,2.467,2.467,0,0,1,.962.781,1.923,1.923,0,0,1,.313,1.114,2.091,2.091,0,0,1-.875,1.755,3.672,3.672,0,0,1-2.272.661,4.108,4.108,0,0,1-1.736-.347,2.829,2.829,0,0,1-1.181-.97,2.347,2.347,0,0,1-.427-1.348h1.4a1.445,1.445,0,0,0,.562,1.114,2.181,2.181,0,0,0,1.385.411,2.249,2.249,0,0,0,1.272-.321A.985.985,0,0,0,3141.523,2295.526Z" transform="translate(-2911.013 -2035.587)" fill="#393939"/>
              <path id="Trazado_118243" data-name="Trazado 118243" d="M3155.587,2293.533a4.822,4.822,0,0,1,.472-2.159,3.5,3.5,0,0,1,1.313-1.479,3.574,3.574,0,0,1,1.921-.521,3.445,3.445,0,0,1,2.7,1.155,4.446,4.446,0,0,1,1.029,3.072v.1a4.87,4.87,0,0,1-.456,2.14,3.465,3.465,0,0,1-1.306,1.475,3.611,3.611,0,0,1-1.951.529,3.436,3.436,0,0,1-2.691-1.155,4.423,4.423,0,0,1-1.03-3.058Zm1.4.166a3.492,3.492,0,0,0,.63,2.182,2.136,2.136,0,0,0,3.378-.011,3.821,3.821,0,0,0,.626-2.336,3.487,3.487,0,0,0-.638-2.178,2.028,2.028,0,0,0-1.694-.834,2.006,2.006,0,0,0-1.668.823A3.793,3.793,0,0,0,3156.991,2293.7Z" transform="translate(-2922.231 -2035.587)" fill="#393939"/>
              <path id="Trazado_118244" data-name="Trazado 118244" d="M3181.7,2290.778a4.126,4.126,0,0,0-.686-.053,1.84,1.84,0,0,0-1.865,1.171v5.8h-1.4v-8.167h1.359l.023.943a2.17,2.17,0,0,1,1.947-1.094,1.435,1.435,0,0,1,.618.1Z" transform="translate(-2935.211 -2035.587)" fill="#393939"/>
              <path id="Trazado_118245" data-name="Trazado 118245" d="M3194.358,2297.692a2.907,2.907,0,0,1-.2-.86,3.117,3.117,0,0,1-2.325,1.011,2.885,2.885,0,0,1-1.982-.683,2.211,2.211,0,0,1-.773-1.733,2.309,2.309,0,0,1,.97-1.981,4.572,4.572,0,0,1,2.729-.705h1.359v-.642a1.568,1.568,0,0,0-.437-1.166,1.762,1.762,0,0,0-1.291-.434,2.034,2.034,0,0,0-1.253.378,1.111,1.111,0,0,0-.506.913h-1.4a1.925,1.925,0,0,1,.434-1.181,2.966,2.966,0,0,1,1.178-.9,3.959,3.959,0,0,1,1.635-.332,3.225,3.225,0,0,1,2.211.706,2.545,2.545,0,0,1,.831,1.943v3.759a4.615,4.615,0,0,0,.286,1.789v.121Zm-2.317-1.064a2.456,2.456,0,0,0,1.246-.34,2.048,2.048,0,0,0,.852-.883v-1.675h-1.094q-2.566,0-2.567,1.5a1.271,1.271,0,0,0,.438,1.026A1.68,1.68,0,0,0,3192.04,2296.628Z" transform="translate(-2941.844 -2035.587)" fill="#393939"/>
              <path id="Trazado_118246" data-name="Trazado 118246" d="M2682.389,1871.706a1.03,1.03,0,0,0-.426-.879,4.109,4.109,0,0,0-1.487-.54,7.024,7.024,0,0,1-1.684-.543,2.393,2.393,0,0,1-.921-.756,1.8,1.8,0,0,1-.3-1.041,2.119,2.119,0,0,1,.849-1.7,3.319,3.319,0,0,1,2.17-.694,3.412,3.412,0,0,1,2.253.717,2.277,2.277,0,0,1,.864,1.834h-1.4a1.26,1.26,0,0,0-.488-.989,1.825,1.825,0,0,0-1.226-.415,1.9,1.9,0,0,0-1.192.332,1.045,1.045,0,0,0-.43.868.846.846,0,0,0,.4.762,4.916,4.916,0,0,0,1.446.491,7.55,7.55,0,0,1,1.695.558,2.481,2.481,0,0,1,.962.781,1.925,1.925,0,0,1,.313,1.114,2.089,2.089,0,0,1-.876,1.755,3.667,3.667,0,0,1-2.271.661,4.111,4.111,0,0,1-1.736-.347,2.833,2.833,0,0,1-1.182-.97,2.342,2.342,0,0,1-.426-1.347h1.4a1.444,1.444,0,0,0,.562,1.113,2.18,2.18,0,0,0,1.385.411,2.247,2.247,0,0,0,1.271-.321A.986.986,0,0,0,2682.389,1871.706Z" transform="translate(-2642.167 -1787.418)" fill="#393939"/>
              <path id="Trazado_118247" data-name="Trazado 118247" d="M2700.233,1874.023a3.566,3.566,0,0,1-2.7-1.091,4.045,4.045,0,0,1-1.042-2.917v-.257a4.906,4.906,0,0,1,.465-2.17,3.616,3.616,0,0,1,1.3-1.494,3.267,3.267,0,0,1,1.808-.54,3.059,3.059,0,0,1,2.476,1.049,4.542,4.542,0,0,1,.884,3v.581h-5.533a2.9,2.9,0,0,0,.705,1.951,2.221,2.221,0,0,0,1.718.744,2.429,2.429,0,0,0,1.253-.3,3.141,3.141,0,0,0,.9-.8l.853.664A3.429,3.429,0,0,1,2700.233,1874.023Zm-.174-7.322a1.863,1.863,0,0,0-1.419.615,2.993,2.993,0,0,0-.709,1.724h4.092v-.106a2.663,2.663,0,0,0-.575-1.649A1.752,1.752,0,0,0,2700.06,1866.7Z" transform="translate(-2653.406 -1787.418)" fill="#393939"/>
              <path id="Trazado_118248" data-name="Trazado 118248" d="M2718.428,1861.29l.045,1.026a2.977,2.977,0,0,1,2.446-1.177q2.589,0,2.611,2.921v5.4h-1.4v-5.4a1.879,1.879,0,0,0-.4-1.307,1.618,1.618,0,0,0-1.234-.422,2.016,2.016,0,0,0-1.193.362,2.451,2.451,0,0,0-.8.951v5.819h-1.4v-8.167Zm4.62-3.186a1.878,1.878,0,0,1-.464,1.321,1.506,1.506,0,0,1-1.159.506,1.7,1.7,0,0,1-.536-.076,2.932,2.932,0,0,1-.592-.31,2.546,2.546,0,0,0-.529-.283,1.265,1.265,0,0,0-.373-.049.693.693,0,0,0-.529.237.865.865,0,0,0-.219.608l-.936-.053a1.972,1.972,0,0,1,.457-1.336,1.467,1.467,0,0,1,1.158-.528,1.4,1.4,0,0,1,.476.075,3.464,3.464,0,0,1,.573.294,3.422,3.422,0,0,0,.556.287,1.277,1.277,0,0,0,.426.068.674.674,0,0,0,.539-.256.9.9,0,0,0,.215-.6Z" transform="translate(-2665.479 -1783.003)" fill="#393939"/>
              <path id="Trazado_118249" data-name="Trazado 118249" d="M2742.4,1873.873a2.929,2.929,0,0,1-.2-.861,3.115,3.115,0,0,1-2.324,1.011,2.882,2.882,0,0,1-1.982-.683,2.208,2.208,0,0,1-.774-1.732,2.31,2.31,0,0,1,.97-1.982,4.577,4.577,0,0,1,2.729-.705h1.359v-.642a1.568,1.568,0,0,0-.437-1.166,1.763,1.763,0,0,0-1.291-.433,2.032,2.032,0,0,0-1.253.377,1.111,1.111,0,0,0-.506.913h-1.4a1.927,1.927,0,0,1,.435-1.181,2.965,2.965,0,0,1,1.177-.9,3.958,3.958,0,0,1,1.634-.332,3.229,3.229,0,0,1,2.212.706,2.545,2.545,0,0,1,.831,1.944v3.759a4.6,4.6,0,0,0,.287,1.789v.12Zm-2.317-1.065a2.457,2.457,0,0,0,1.246-.339,2.046,2.046,0,0,0,.853-.883v-1.676h-1.094q-2.566,0-2.567,1.5a1.272,1.272,0,0,0,.438,1.026A1.683,1.683,0,0,0,2740.082,1872.808Z" transform="translate(-2677.199 -1787.418)" fill="#393939"/>
              <path id="Trazado_118250" data-name="Trazado 118250" d="M2759.665,1869.244h-1.4V1857.65h1.4Z" transform="translate(-2689.582 -1782.79)" fill="#393939"/>
              <path id="Trazado_118251" data-name="Trazado 118251" d="M2780.211,1866.958a4.2,4.2,0,0,0-.687-.053,1.839,1.839,0,0,0-1.864,1.17v5.8h-1.4v-8.167h1.359l.023.944a2.172,2.172,0,0,1,1.947-1.095,1.419,1.419,0,0,1,.619.106Z" transform="translate(-2700.118 -1787.418)" fill="#393939"/>
              <path id="Trazado_118252" data-name="Trazado 118252" d="M2791.771,1874.023a3.567,3.567,0,0,1-2.7-1.091,4.046,4.046,0,0,1-1.042-2.917v-.257a4.9,4.9,0,0,1,.465-2.17,3.625,3.625,0,0,1,1.3-1.494,3.268,3.268,0,0,1,1.809-.54,3.061,3.061,0,0,1,2.476,1.049,4.544,4.544,0,0,1,.883,3v.581h-5.533a2.905,2.905,0,0,0,.706,1.951,2.219,2.219,0,0,0,1.717.744,2.431,2.431,0,0,0,1.253-.3,3.155,3.155,0,0,0,.9-.8l.852.664A3.428,3.428,0,0,1,2791.771,1874.023Zm-.173-7.322a1.863,1.863,0,0,0-1.419.615,2.988,2.988,0,0,0-.709,1.724h4.091v-.106a2.665,2.665,0,0,0-.574-1.649A1.755,1.755,0,0,0,2791.6,1866.7Z" transform="translate(-2707.007 -1787.418)" fill="#393939"/>
              <path id="Trazado_118253" data-name="Trazado 118253" d="M2811.409,1872.884a2.012,2.012,0,0,0,1.306-.453,1.593,1.593,0,0,0,.619-1.132h1.321a2.546,2.546,0,0,1-.483,1.336,3.18,3.18,0,0,1-1.189,1.011,3.431,3.431,0,0,1-1.574.378,3.362,3.362,0,0,1-2.653-1.113,4.433,4.433,0,0,1-.985-3.045v-.234a4.916,4.916,0,0,1,.438-2.121,3.332,3.332,0,0,1,1.257-1.441,3.569,3.569,0,0,1,1.936-.514,3.274,3.274,0,0,1,2.283.823,2.94,2.94,0,0,1,.97,2.135h-1.321a1.927,1.927,0,0,0-.6-1.3,1.868,1.868,0,0,0-1.332-.509,1.956,1.956,0,0,0-1.649.766,3.6,3.6,0,0,0-.584,2.215v.265a3.527,3.527,0,0,0,.581,2.174A1.963,1.963,0,0,0,2811.409,1872.884Z" transform="translate(-2718.568 -1787.418)" fill="#393939"/>
              <path id="Trazado_118254" data-name="Trazado 118254" d="M2828.188,1859.55a.834.834,0,0,1,.207-.574.78.78,0,0,1,.615-.234.792.792,0,0,1,.618.234.825.825,0,0,1,.211.574.8.8,0,0,1-.211.566.805.805,0,0,1-.618.226.793.793,0,0,1-.615-.226A.805.805,0,0,1,2828.188,1859.55Zm1.509,10.334h-1.4v-8.167h1.4Z" transform="translate(-2730.523 -1783.43)" fill="#393939"/>
              <path id="Trazado_118255" data-name="Trazado 118255" d="M2844.135,1865.251a4.853,4.853,0,0,1-.86,3.008,2.748,2.748,0,0,1-2.31,1.136,2.848,2.848,0,0,1-2.393-1.095l-.068.944h-1.283V1857.65h1.4v4.325a2.831,2.831,0,0,1,2.333-1.049,2.766,2.766,0,0,1,2.336,1.125,5,5,0,0,1,.849,3.08Zm-1.4-.158a3.774,3.774,0,0,0-.551-2.2,1.827,1.827,0,0,0-1.586-.778,2.051,2.051,0,0,0-1.985,1.283v3.532a2.108,2.108,0,0,0,2,1.283,1.815,1.815,0,0,0,1.563-.778A4.013,4.013,0,0,0,2842.739,1865.093Z" transform="translate(-2735.813 -1782.79)" fill="#393939"/>
              <path id="Trazado_118256" data-name="Trazado 118256" d="M2858.166,1859.55a.832.832,0,0,1,.208-.574.779.779,0,0,1,.615-.234.793.793,0,0,1,.619.234.828.828,0,0,1,.211.574.827.827,0,1,1-1.653,0Zm1.51,10.334h-1.4v-8.167h1.4Z" transform="translate(-2748.076 -1783.43)" fill="#393939"/>
              <path id="Trazado_118257" data-name="Trazado 118257" d="M2866.38,1865.093a4.788,4.788,0,0,1,.89-3.023,3.032,3.032,0,0,1,4.605-.163v-4.257h1.4v11.594h-1.282l-.069-.876a2.843,2.843,0,0,1-2.332,1.027,2.789,2.789,0,0,1-2.313-1.163,4.835,4.835,0,0,1-.895-3.034Zm1.4.158a3.621,3.621,0,0,0,.574,2.174,1.852,1.852,0,0,0,1.585.785,2.037,2.037,0,0,0,1.939-1.193v-3.751a2.053,2.053,0,0,0-1.925-1.155,1.86,1.86,0,0,0-1.6.792A3.986,3.986,0,0,0,2867.776,1865.251Z" transform="translate(-2752.887 -1782.79)" fill="#393939"/>
              <path id="Trazado_118258" data-name="Trazado 118258" d="M2892.948,1873.873a2.929,2.929,0,0,1-.2-.861,3.115,3.115,0,0,1-2.325,1.011,2.884,2.884,0,0,1-1.981-.683,2.21,2.21,0,0,1-.774-1.732,2.31,2.31,0,0,1,.97-1.982,4.58,4.58,0,0,1,2.729-.705h1.359v-.642a1.567,1.567,0,0,0-.438-1.166,1.76,1.76,0,0,0-1.29-.433,2.032,2.032,0,0,0-1.253.377,1.111,1.111,0,0,0-.506.913h-1.4a1.927,1.927,0,0,1,.435-1.181,2.956,2.956,0,0,1,1.177-.9,3.957,3.957,0,0,1,1.634-.332,3.232,3.232,0,0,1,2.212.706,2.55,2.55,0,0,1,.83,1.944v3.759a4.606,4.606,0,0,0,.287,1.789v.12Zm-2.318-1.065a2.45,2.45,0,0,0,1.245-.339,2.053,2.053,0,0,0,.854-.883v-1.676h-1.1q-2.566,0-2.566,1.5a1.274,1.274,0,0,0,.438,1.026A1.684,1.684,0,0,0,2890.63,1872.808Z" transform="translate(-2765.354 -1787.418)" fill="#393939"/>
              <path id="Trazado_118259" data-name="Trazado 118259" d="M2685.012,1907.18a4.886,4.886,0,0,1-.853,3,2.733,2.733,0,0,1-2.309,1.14,2.994,2.994,0,0,1-2.34-.944v3.933h-1.4v-11.308h1.276l.068.906a2.878,2.878,0,0,1,2.37-1.057,2.786,2.786,0,0,1,2.329,1.109,4.946,4.946,0,0,1,.857,3.087Zm-1.4-.159a3.609,3.609,0,0,0-.589-2.181,1.9,1.9,0,0,0-1.616-.8,2.053,2.053,0,0,0-1.9,1.125v3.9a2.056,2.056,0,0,0,1.917,1.117,1.887,1.887,0,0,0,1.6-.8A3.937,3.937,0,0,0,2683.616,1907.021Z" transform="translate(-2642.646 -1809.26)" fill="#393939"/>
              <path id="Trazado_118260" data-name="Trazado 118260" d="M2698.147,1907.013a4.817,4.817,0,0,1,.472-2.158,3.511,3.511,0,0,1,1.313-1.479,3.575,3.575,0,0,1,1.921-.521,3.445,3.445,0,0,1,2.7,1.155,4.441,4.441,0,0,1,1.03,3.072v.1a4.863,4.863,0,0,1-.456,2.139,3.464,3.464,0,0,1-1.306,1.476,3.614,3.614,0,0,1-1.951.529,3.437,3.437,0,0,1-2.691-1.155,4.422,4.422,0,0,1-1.03-3.057Zm1.4.167a3.494,3.494,0,0,0,.63,2.181,2.136,2.136,0,0,0,3.378-.011,3.82,3.82,0,0,0,.626-2.336,3.49,3.49,0,0,0-.638-2.178,2.028,2.028,0,0,0-1.694-.834,2.007,2.007,0,0,0-1.668.822A3.793,3.793,0,0,0,2699.552,1907.18Z" transform="translate(-2654.378 -1809.26)" fill="#393939"/>
              <path id="Trazado_118261" data-name="Trazado 118261" d="M2724.261,1904.259a4.171,4.171,0,0,0-.687-.053,1.841,1.841,0,0,0-1.865,1.17v5.8h-1.4v-8.167h1.358l.023.944a2.174,2.174,0,0,1,1.948-1.094,1.427,1.427,0,0,1,.619.106Z" transform="translate(-2667.357 -1809.26)" fill="#393939"/>
              <path id="Trazado_118262" data-name="Trazado 118262" d="M2745.056,1911.324a3.568,3.568,0,0,1-2.7-1.091,4.046,4.046,0,0,1-1.042-2.917v-.257a4.9,4.9,0,0,1,.464-2.171,3.624,3.624,0,0,1,1.3-1.494,3.267,3.267,0,0,1,1.808-.54,3.059,3.059,0,0,1,2.476,1.049,4.544,4.544,0,0,1,.883,3v.582h-5.532a2.9,2.9,0,0,0,.705,1.951,2.22,2.22,0,0,0,1.718.743,2.431,2.431,0,0,0,1.253-.3,3.128,3.128,0,0,0,.9-.8l.853.665A3.43,3.43,0,0,1,2745.056,1911.324Zm-.174-7.322a1.861,1.861,0,0,0-1.419.615,2.99,2.99,0,0,0-.71,1.725h4.091v-.106a2.668,2.668,0,0,0-.573-1.649A1.756,1.756,0,0,0,2744.882,1904Z" transform="translate(-2679.652 -1809.26)" fill="#393939"/>
              <path id="Trazado_118263" data-name="Trazado 118263" d="M2763.617,1906.544h-1.4V1894.95h1.4Z" transform="translate(-2691.896 -1804.631)" fill="#393939"/>
              <path id="Trazado_118264" data-name="Trazado 118264" d="M2784.491,1909.006a1.029,1.029,0,0,0-.426-.879,4.1,4.1,0,0,0-1.487-.54,7.007,7.007,0,0,1-1.684-.544,2.4,2.4,0,0,1-.921-.755,1.807,1.807,0,0,1-.3-1.042,2.118,2.118,0,0,1,.849-1.7,3.315,3.315,0,0,1,2.17-.694,3.414,3.414,0,0,1,2.253.717,2.277,2.277,0,0,1,.864,1.834h-1.4a1.258,1.258,0,0,0-.487-.988,1.824,1.824,0,0,0-1.226-.416,1.9,1.9,0,0,0-1.192.332,1.044,1.044,0,0,0-.431.868.846.846,0,0,0,.4.762,4.912,4.912,0,0,0,1.446.491,7.508,7.508,0,0,1,1.694.558,2.481,2.481,0,0,1,.962.781,1.921,1.921,0,0,1,.313,1.113,2.089,2.089,0,0,1-.876,1.755,3.67,3.67,0,0,1-2.272.661,4.118,4.118,0,0,1-1.736-.347,2.83,2.83,0,0,1-1.181-.97,2.338,2.338,0,0,1-.426-1.348h1.4a1.445,1.445,0,0,0,.562,1.113,2.183,2.183,0,0,0,1.385.412,2.25,2.25,0,0,0,1.272-.321A.984.984,0,0,0,2784.491,1909.006Z" transform="translate(-2701.953 -1809.26)" fill="#393939"/>
              <path id="Trazado_118265" data-name="Trazado 118265" d="M2804.159,1911.173a2.945,2.945,0,0,1-.2-.861,3.115,3.115,0,0,1-2.325,1.012,2.881,2.881,0,0,1-1.981-.684,2.21,2.21,0,0,1-.773-1.732,2.309,2.309,0,0,1,.97-1.981,4.571,4.571,0,0,1,2.729-.706h1.358v-.642a1.567,1.567,0,0,0-.438-1.166,1.759,1.759,0,0,0-1.29-.434,2.035,2.035,0,0,0-1.253.377,1.111,1.111,0,0,0-.506.913h-1.4a1.925,1.925,0,0,1,.434-1.181,2.963,2.963,0,0,1,1.177-.9,3.963,3.963,0,0,1,1.635-.332,3.231,3.231,0,0,1,2.211.705,2.551,2.551,0,0,1,.831,1.944v3.759a4.605,4.605,0,0,0,.286,1.789v.121Zm-2.317-1.064a2.446,2.446,0,0,0,1.245-.34,2.056,2.056,0,0,0,.853-.883v-1.676h-1.094q-2.566,0-2.566,1.5a1.269,1.269,0,0,0,.438,1.026A1.677,1.677,0,0,0,2801.842,1910.108Z" transform="translate(-2713.363 -1809.26)" fill="#393939"/>
              <path id="Trazado_118266" data-name="Trazado 118266" d="M2820.235,1898.446v1.978h1.524v1.08h-1.524v5.072a1.127,1.127,0,0,0,.2.736.856.856,0,0,0,.695.246,3.368,3.368,0,0,0,.663-.091v1.125a4.057,4.057,0,0,1-1.072.151,1.736,1.736,0,0,1-1.411-.567,2.424,2.424,0,0,1-.476-1.607V1901.5h-1.487v-1.08h1.487v-1.978Z" transform="translate(-2724.178 -1806.679)" fill="#393939"/>
              <path id="Trazado_118267" data-name="Trazado 118267" d="M2834.809,1906.7a3.568,3.568,0,0,1-2.7-1.091,4.047,4.047,0,0,1-1.042-2.917v-.257a4.9,4.9,0,0,1,.465-2.17,3.623,3.623,0,0,1,1.3-1.495,3.267,3.267,0,0,1,1.808-.539,3.06,3.06,0,0,1,2.476,1.049,4.545,4.545,0,0,1,.883,3v.581h-5.533a2.9,2.9,0,0,0,.706,1.952,2.218,2.218,0,0,0,1.717.743,2.438,2.438,0,0,0,1.254-.3,3.15,3.15,0,0,0,.9-.8l.852.664A3.428,3.428,0,0,1,2834.809,1906.7Zm-.174-7.322a1.86,1.86,0,0,0-1.419.615,2.99,2.99,0,0,0-.71,1.725h4.092v-.105a2.663,2.663,0,0,0-.573-1.649A1.754,1.754,0,0,0,2834.635,1899.373Zm.679-4.423H2837l-2.023,2.219-1.124,0Z" transform="translate(-2732.207 -1804.631)" fill="#393939"/>
              <path id="Trazado_118268" data-name="Trazado 118268" d="M2853.371,1906.544h-1.4V1894.95h1.4Z" transform="translate(-2744.451 -1804.631)" fill="#393939"/>
              <path id="Trazado_118269" data-name="Trazado 118269" d="M2860.753,1896.851a.829.829,0,0,1,.208-.574.778.778,0,0,1,.615-.234.79.79,0,0,1,.618.234.823.823,0,0,1,.211.574.8.8,0,0,1-.211.566.805.805,0,0,1-.618.226.793.793,0,0,1-.615-.226A.8.8,0,0,1,2860.753,1896.851Zm1.51,10.333h-1.4v-8.167h1.4Z" transform="translate(-2749.592 -1805.271)" fill="#393939"/>
              <path id="Trazado_118270" data-name="Trazado 118270" d="M2870.283,1898.446v1.978h1.524v1.08h-1.524v5.072a1.124,1.124,0,0,0,.2.736.855.855,0,0,0,.694.246,3.38,3.38,0,0,0,.665-.091v1.125a4.063,4.063,0,0,1-1.073.151,1.737,1.737,0,0,1-1.411-.567,2.428,2.428,0,0,1-.475-1.607V1901.5H2867.4v-1.08h1.487v-1.978Z" transform="translate(-2753.483 -1806.679)" fill="#393939"/>
              <path id="Trazado_118271" data-name="Trazado 118271" d="M2884.857,1911.324a3.569,3.569,0,0,1-2.7-1.091,4.048,4.048,0,0,1-1.042-2.917v-.257a4.907,4.907,0,0,1,.464-2.171,3.622,3.622,0,0,1,1.3-1.494,3.265,3.265,0,0,1,1.809-.54,3.06,3.06,0,0,1,2.475,1.049,4.544,4.544,0,0,1,.883,3v.582h-5.533a2.9,2.9,0,0,0,.706,1.951,2.215,2.215,0,0,0,1.717.743,2.431,2.431,0,0,0,1.253-.3,3.143,3.143,0,0,0,.9-.8l.853.665A3.43,3.43,0,0,1,2884.857,1911.324Zm-.173-7.322a1.864,1.864,0,0,0-1.42.615,2.993,2.993,0,0,0-.709,1.725h4.092v-.106a2.666,2.666,0,0,0-.574-1.649A1.754,1.754,0,0,0,2884.684,1904Z" transform="translate(-2761.514 -1809.26)" fill="#393939"/>
              <path id="Trazado_118272" data-name="Trazado 118272" d="M3752.071,1862.173a1.028,1.028,0,0,0-.427-.879,4.1,4.1,0,0,0-1.487-.54,6.992,6.992,0,0,1-1.682-.544,2.38,2.38,0,0,1-.921-.755,1.8,1.8,0,0,1-.3-1.042,2.12,2.12,0,0,1,.85-1.7,3.317,3.317,0,0,1,2.17-.694,3.413,3.413,0,0,1,2.253.717,2.278,2.278,0,0,1,.864,1.834h-1.4a1.262,1.262,0,0,0-.487-.988,1.825,1.825,0,0,0-1.226-.415,1.91,1.91,0,0,0-1.193.332,1.045,1.045,0,0,0-.431.869.846.846,0,0,0,.4.762,4.909,4.909,0,0,0,1.446.491,7.533,7.533,0,0,1,1.694.558,2.469,2.469,0,0,1,.962.781,1.923,1.923,0,0,1,.314,1.113,2.089,2.089,0,0,1-.877,1.755,3.669,3.669,0,0,1-2.271.661,4.111,4.111,0,0,1-1.736-.347,2.831,2.831,0,0,1-1.182-.97,2.339,2.339,0,0,1-.426-1.347h1.4a1.444,1.444,0,0,0,.562,1.113,2.181,2.181,0,0,0,1.385.412,2.245,2.245,0,0,0,1.272-.322A.984.984,0,0,0,3752.071,1862.173Z" transform="translate(-3268.519 -1781.836)" fill="#393939"/>
              <path id="Trazado_118273" data-name="Trazado 118273" d="M3769.914,1864.49a3.567,3.567,0,0,1-2.7-1.091,4.048,4.048,0,0,1-1.042-2.918v-.256a4.9,4.9,0,0,1,.464-2.171,3.622,3.622,0,0,1,1.3-1.494,3.265,3.265,0,0,1,1.808-.54,3.057,3.057,0,0,1,2.476,1.049,4.54,4.54,0,0,1,.884,3v.582h-5.533a2.9,2.9,0,0,0,.706,1.951,2.217,2.217,0,0,0,1.717.744,2.435,2.435,0,0,0,1.253-.3,3.128,3.128,0,0,0,.9-.8l.854.664A3.431,3.431,0,0,1,3769.914,1864.49Zm-.174-7.322a1.864,1.864,0,0,0-1.419.615,3,3,0,0,0-.709,1.725h4.092v-.105a2.662,2.662,0,0,0-.573-1.649A1.755,1.755,0,0,0,3769.74,1857.168Z" transform="translate(-3279.759 -1781.836)" fill="#393939"/>
              <path id="Trazado_118274" data-name="Trazado 118274" d="M3788.109,1851.757l.045,1.027a2.974,2.974,0,0,1,2.446-1.178q2.588,0,2.611,2.921v5.4h-1.4v-5.4a1.882,1.882,0,0,0-.4-1.306,1.616,1.616,0,0,0-1.234-.423,2.017,2.017,0,0,0-1.193.362,2.459,2.459,0,0,0-.8.951v5.82h-1.4v-8.167Zm4.62-3.185a1.878,1.878,0,0,1-.464,1.321,1.508,1.508,0,0,1-1.159.506,1.686,1.686,0,0,1-.535-.076,2.886,2.886,0,0,1-.593-.309,2.561,2.561,0,0,0-.528-.283,1.292,1.292,0,0,0-.374-.049.7.7,0,0,0-.529.238.868.868,0,0,0-.218.608l-.936-.053a1.972,1.972,0,0,1,.457-1.336,1.465,1.465,0,0,1,1.159-.528,1.423,1.423,0,0,1,.475.075,3.5,3.5,0,0,1,.574.295,3.389,3.389,0,0,0,.555.287,1.268,1.268,0,0,0,.426.068.677.677,0,0,0,.54-.257.907.907,0,0,0,.215-.6Z" transform="translate(-3291.831 -1777.421)" fill="#393939"/>
              <path id="Trazado_118275" data-name="Trazado 118275" d="M3812.08,1864.339a2.964,2.964,0,0,1-.2-.861,3.117,3.117,0,0,1-2.325,1.012,2.882,2.882,0,0,1-1.981-.683,2.209,2.209,0,0,1-.773-1.733,2.311,2.311,0,0,1,.969-1.981,4.573,4.573,0,0,1,2.729-.706h1.358v-.642a1.566,1.566,0,0,0-.437-1.166,1.76,1.76,0,0,0-1.291-.434,2.038,2.038,0,0,0-1.253.377,1.111,1.111,0,0,0-.506.914h-1.4a1.926,1.926,0,0,1,.434-1.181,2.963,2.963,0,0,1,1.177-.9,3.962,3.962,0,0,1,1.635-.332,3.229,3.229,0,0,1,2.211.705,2.553,2.553,0,0,1,.831,1.944v3.759a4.593,4.593,0,0,0,.286,1.789v.121Zm-2.317-1.065a2.456,2.456,0,0,0,1.246-.339,2.046,2.046,0,0,0,.852-.883v-1.675h-1.094q-2.567,0-2.566,1.5a1.271,1.271,0,0,0,.438,1.026A1.683,1.683,0,0,0,3809.763,1863.275Z" transform="translate(-3303.553 -1781.836)" fill="#393939"/>
              <path id="Trazado_118276" data-name="Trazado 118276" d="M3829.345,1859.711h-1.4v-11.594h1.4Z" transform="translate(-3315.932 -1777.208)" fill="#393939"/>
              <path id="Trazado_118277" data-name="Trazado 118277" d="M3848.831,1864.49a3.568,3.568,0,0,1-2.7-1.091,4.05,4.05,0,0,1-1.042-2.918v-.256a4.906,4.906,0,0,1,.464-2.171,3.625,3.625,0,0,1,1.3-1.494,3.266,3.266,0,0,1,1.808-.54,3.061,3.061,0,0,1,2.476,1.049,4.542,4.542,0,0,1,.883,3v.582h-5.533a2.908,2.908,0,0,0,.705,1.951,2.221,2.221,0,0,0,1.718.744,2.433,2.433,0,0,0,1.253-.3,3.13,3.13,0,0,0,.9-.8l.853.664A3.428,3.428,0,0,1,3848.831,1864.49Zm-.173-7.322a1.862,1.862,0,0,0-1.419.615,2.989,2.989,0,0,0-.71,1.725h4.092v-.105a2.668,2.668,0,0,0-.574-1.649A1.755,1.755,0,0,0,3848.658,1857.168Z" transform="translate(-3325.968 -1781.836)" fill="#393939"/>
              <path id="Trazado_118278" data-name="Trazado 118278" d="M3867.007,1856.172l.038.906a3.018,3.018,0,0,1,2.423-1.057,2.334,2.334,0,0,1,2.332,1.313,3.038,3.038,0,0,1,2.6-1.313q2.687,0,2.731,2.845v5.473h-1.4v-5.39a1.874,1.874,0,0,0-.4-1.31,1.764,1.764,0,0,0-1.344-.434,1.847,1.847,0,0,0-1.291.464,1.876,1.876,0,0,0-.6,1.249v5.42h-1.4v-5.352a1.558,1.558,0,0,0-1.744-1.781,1.867,1.867,0,0,0-1.879,1.17v5.963h-1.4v-8.167Z" transform="translate(-3338.029 -1781.836)" fill="#393939"/>
              <path id="Trazado_118279" data-name="Trazado 118279" d="M3898.415,1850.017a.832.832,0,0,1,.208-.573.779.779,0,0,1,.615-.234.794.794,0,0,1,.62.234.828.828,0,0,1,.211.573.8.8,0,0,1-.211.566.809.809,0,0,1-.62.226.793.793,0,0,1-.615-.226A.8.8,0,0,1,3898.415,1850.017Zm1.51,10.334h-1.4v-8.167h1.4Z" transform="translate(-3357.194 -1777.848)" fill="#393939"/>
              <path id="Trazado_118280" data-name="Trazado 118280" d="M3907.947,1851.613v1.978h1.524v1.079h-1.524v5.071a1.133,1.133,0,0,0,.2.737.856.856,0,0,0,.695.246,3.376,3.376,0,0,0,.664-.091v1.126a4.077,4.077,0,0,1-1.072.15,1.739,1.739,0,0,1-1.412-.567,2.431,2.431,0,0,1-.476-1.607v-5.065h-1.486v-1.079h1.486v-1.978Z" transform="translate(-3361.087 -1779.255)" fill="#393939"/>
              <path id="Trazado_118281" data-name="Trazado 118281" d="M3919.651,1850.017a.83.83,0,0,1,.208-.573.778.778,0,0,1,.616-.234.79.79,0,0,1,.618.234.821.821,0,0,1,.211.573.794.794,0,0,1-.211.566.8.8,0,0,1-.618.226.793.793,0,0,1-.616-.226A.8.8,0,0,1,3919.651,1850.017Zm1.51,10.334h-1.4v-8.167h1.4Z" transform="translate(-3369.629 -1777.848)" fill="#393939"/>
              <path id="Trazado_118282" data-name="Trazado 118282" d="M3927.865,1855.559a4.785,4.785,0,0,1,.891-3.023,3.03,3.03,0,0,1,4.6-.163v-4.257h1.4v11.594h-1.284l-.068-.875a2.843,2.843,0,0,1-2.332,1.027,2.791,2.791,0,0,1-2.314-1.163,4.84,4.84,0,0,1-.894-3.034Zm1.4.159a3.619,3.619,0,0,0,.574,2.174,1.853,1.853,0,0,0,1.585.785,2.035,2.035,0,0,0,1.939-1.193v-3.751a2.051,2.051,0,0,0-1.924-1.155,1.862,1.862,0,0,0-1.6.793A3.984,3.984,0,0,0,3929.261,1855.718Z" transform="translate(-3374.438 -1777.208)" fill="#393939"/>
              <path id="Trazado_118283" data-name="Trazado 118283" d="M3954.433,1864.339a2.866,2.866,0,0,1-.2-.861,3.117,3.117,0,0,1-2.325,1.012,2.886,2.886,0,0,1-1.982-.683,2.209,2.209,0,0,1-.773-1.733,2.311,2.311,0,0,1,.97-1.981,4.572,4.572,0,0,1,2.729-.706h1.358v-.642a1.566,1.566,0,0,0-.437-1.166,1.76,1.76,0,0,0-1.291-.434,2.04,2.04,0,0,0-1.253.377,1.112,1.112,0,0,0-.505.914h-1.4a1.928,1.928,0,0,1,.433-1.181,2.968,2.968,0,0,1,1.179-.9,3.959,3.959,0,0,1,1.634-.332,3.229,3.229,0,0,1,2.211.705,2.545,2.545,0,0,1,.831,1.944v3.759a4.612,4.612,0,0,0,.286,1.789v.121Zm-2.317-1.065a2.449,2.449,0,0,0,1.245-.339,2.047,2.047,0,0,0,.853-.883v-1.675h-1.094q-2.566,0-2.566,1.5a1.27,1.27,0,0,0,.438,1.026A1.681,1.681,0,0,0,3952.116,1863.275Z" transform="translate(-3386.906 -1781.836)" fill="#393939"/>
              <path id="Trazado_118284" data-name="Trazado 118284" d="M3754.694,1897.646a4.889,4.889,0,0,1-.853,3,2.734,2.734,0,0,1-2.309,1.14,3,3,0,0,1-2.341-.943v3.932h-1.4v-11.307h1.276l.068.906a2.874,2.874,0,0,1,2.37-1.057,2.785,2.785,0,0,1,2.329,1.11,4.944,4.944,0,0,1,.857,3.087Zm-1.4-.158a3.605,3.605,0,0,0-.589-2.181,1.9,1.9,0,0,0-1.615-.8,2.055,2.055,0,0,0-1.9,1.125v3.9a2.057,2.057,0,0,0,1.918,1.117,1.888,1.888,0,0,0,1.6-.8A3.937,3.937,0,0,0,3753.3,1897.488Z" transform="translate(-3268.998 -1803.677)" fill="#393939"/>
              <path id="Trazado_118285" data-name="Trazado 118285" d="M3767.828,1897.48a4.822,4.822,0,0,1,.471-2.159,3.52,3.52,0,0,1,1.314-1.479,3.575,3.575,0,0,1,1.921-.521,3.446,3.446,0,0,1,2.7,1.154,4.445,4.445,0,0,1,1.03,3.073v.1a4.859,4.859,0,0,1-.457,2.139,3.467,3.467,0,0,1-1.305,1.476,3.616,3.616,0,0,1-1.952.529,3.435,3.435,0,0,1-2.691-1.155,4.425,4.425,0,0,1-1.03-3.058Zm1.4.166a3.5,3.5,0,0,0,.63,2.181,2.137,2.137,0,0,0,3.378-.011,3.818,3.818,0,0,0,.626-2.336,3.489,3.489,0,0,0-.638-2.178,2.027,2.027,0,0,0-1.694-.834,2.005,2.005,0,0,0-1.668.823A3.792,3.792,0,0,0,3769.232,1897.646Z" transform="translate(-3280.729 -1803.677)" fill="#393939"/>
              <path id="Trazado_118286" data-name="Trazado 118286" d="M3793.941,1894.726a4.143,4.143,0,0,0-.687-.053,1.841,1.841,0,0,0-1.865,1.17v5.8h-1.4v-8.167h1.359l.023.943a2.174,2.174,0,0,1,1.947-1.094,1.434,1.434,0,0,1,.619.105Z" transform="translate(-3293.707 -1803.677)" fill="#393939"/>
              <path id="Trazado_118287" data-name="Trazado 118287" d="M3814.736,1901.79a3.568,3.568,0,0,1-2.7-1.091,4.046,4.046,0,0,1-1.042-2.918v-.256a4.9,4.9,0,0,1,.464-2.17,3.616,3.616,0,0,1,1.3-1.494,3.252,3.252,0,0,1,1.807-.54,3.059,3.059,0,0,1,2.476,1.049,4.541,4.541,0,0,1,.884,3v.581h-5.534a2.9,2.9,0,0,0,.706,1.951,2.217,2.217,0,0,0,1.717.744,2.431,2.431,0,0,0,1.253-.3,3.124,3.124,0,0,0,.9-.8l.854.665A3.431,3.431,0,0,1,3814.736,1901.79Zm-.174-7.322a1.862,1.862,0,0,0-1.419.615,2.987,2.987,0,0,0-.71,1.725h4.091v-.106a2.66,2.66,0,0,0-.574-1.649A1.751,1.751,0,0,0,3814.563,1894.468Z" transform="translate(-3306.004 -1803.677)" fill="#393939"/>
              <path id="Trazado_118288" data-name="Trazado 118288" d="M3833.3,1897.01h-1.4v-11.594h1.4Z" transform="translate(-3318.246 -1799.049)" fill="#393939"/>
              <path id="Trazado_118289" data-name="Trazado 118289" d="M3854.171,1899.473a1.029,1.029,0,0,0-.427-.879,4.109,4.109,0,0,0-1.487-.54,7,7,0,0,1-1.683-.543,2.393,2.393,0,0,1-.921-.755,1.8,1.8,0,0,1-.3-1.042,2.119,2.119,0,0,1,.849-1.7,3.317,3.317,0,0,1,2.17-.694,3.418,3.418,0,0,1,2.254.717,2.281,2.281,0,0,1,.864,1.834h-1.4a1.262,1.262,0,0,0-.486-.989,1.828,1.828,0,0,0-1.227-.415,1.909,1.909,0,0,0-1.192.332,1.046,1.046,0,0,0-.431.869.847.847,0,0,0,.4.762,4.927,4.927,0,0,0,1.445.49,7.522,7.522,0,0,1,1.695.559,2.473,2.473,0,0,1,.962.781,1.92,1.92,0,0,1,.314,1.113,2.092,2.092,0,0,1-.876,1.755,3.671,3.671,0,0,1-2.272.66,4.108,4.108,0,0,1-1.736-.347,2.83,2.83,0,0,1-1.182-.97,2.338,2.338,0,0,1-.426-1.347h1.4a1.445,1.445,0,0,0,.563,1.113,2.179,2.179,0,0,0,1.385.412,2.247,2.247,0,0,0,1.272-.321A.986.986,0,0,0,3854.171,1899.473Z" transform="translate(-3328.304 -1803.677)" fill="#393939"/>
              <path id="Trazado_118290" data-name="Trazado 118290" d="M3873.84,1901.639a2.919,2.919,0,0,1-.2-.86,3.117,3.117,0,0,1-2.326,1.011,2.883,2.883,0,0,1-1.981-.683,2.214,2.214,0,0,1-.774-1.733,2.312,2.312,0,0,1,.97-1.981,4.578,4.578,0,0,1,2.729-.705h1.36v-.642a1.568,1.568,0,0,0-.438-1.166,1.76,1.76,0,0,0-1.291-.434,2.034,2.034,0,0,0-1.253.377,1.111,1.111,0,0,0-.505.913h-1.4a1.931,1.931,0,0,1,.434-1.181,2.958,2.958,0,0,1,1.178-.9,3.951,3.951,0,0,1,1.635-.332,3.229,3.229,0,0,1,2.211.705,2.548,2.548,0,0,1,.831,1.944v3.76a4.6,4.6,0,0,0,.286,1.788v.121Zm-2.318-1.064a2.461,2.461,0,0,0,1.247-.34,2.055,2.055,0,0,0,.853-.883v-1.675h-1.1q-2.566,0-2.566,1.5a1.269,1.269,0,0,0,.438,1.026A1.677,1.677,0,0,0,3871.522,1900.575Z" transform="translate(-3339.715 -1803.677)" fill="#393939"/>
              <path id="Trazado_118291" data-name="Trazado 118291" d="M3889.914,1888.913v1.978h1.525v1.08h-1.525v5.071a1.129,1.129,0,0,0,.2.736.856.856,0,0,0,.694.246,3.382,3.382,0,0,0,.665-.091v1.126a4.091,4.091,0,0,1-1.073.15,1.737,1.737,0,0,1-1.411-.566,2.429,2.429,0,0,1-.476-1.608v-5.064h-1.486v-1.08h1.486v-1.978Z" transform="translate(-3350.529 -1801.096)" fill="#393939"/>
              <path id="Trazado_118292" data-name="Trazado 118292" d="M3904.489,1897.162a3.567,3.567,0,0,1-2.7-1.091,4.046,4.046,0,0,1-1.042-2.917v-.257a4.9,4.9,0,0,1,.465-2.17,3.617,3.617,0,0,1,1.3-1.494,3.262,3.262,0,0,1,1.808-.54,3.064,3.064,0,0,1,2.477,1.049,4.547,4.547,0,0,1,.882,3v.581h-5.532a2.9,2.9,0,0,0,.7,1.951,2.219,2.219,0,0,0,1.718.744,2.43,2.43,0,0,0,1.253-.3,3.132,3.132,0,0,0,.9-.8l.853.665A3.429,3.429,0,0,1,3904.489,1897.162Zm-.174-7.323a1.862,1.862,0,0,0-1.418.615,2.985,2.985,0,0,0-.709,1.725h4.091v-.106a2.66,2.66,0,0,0-.574-1.649A1.754,1.754,0,0,0,3904.315,1889.839Zm.68-4.422h1.69l-2.023,2.219-1.125,0Z" transform="translate(-3358.559 -1799.049)" fill="#393939"/>
              <path id="Trazado_118293" data-name="Trazado 118293" d="M3923.05,1897.01h-1.4v-11.594h1.4Z" transform="translate(-3370.803 -1799.049)" fill="#393939"/>
              <path id="Trazado_118294" data-name="Trazado 118294" d="M3930.434,1887.317a.83.83,0,0,1,.208-.573.778.778,0,0,1,.615-.234.793.793,0,0,1,.619.234.828.828,0,0,1,.211.573.754.754,0,0,1-.83.792.793.793,0,0,1-.615-.226A.8.8,0,0,1,3930.434,1887.317Zm1.51,10.334h-1.4v-8.167h1.4Z" transform="translate(-3375.943 -1799.688)" fill="#393939"/>
              <path id="Trazado_118295" data-name="Trazado 118295" d="M3939.964,1888.913v1.978h1.525v1.08h-1.525v5.071a1.132,1.132,0,0,0,.2.736.855.855,0,0,0,.695.246,3.387,3.387,0,0,0,.665-.091v1.126a4.1,4.1,0,0,1-1.073.15,1.739,1.739,0,0,1-1.412-.566,2.435,2.435,0,0,1-.475-1.608v-5.064h-1.487v-1.08h1.487v-1.978Z" transform="translate(-3379.835 -1801.096)" fill="#393939"/>
              <path id="Trazado_118296" data-name="Trazado 118296" d="M3954.539,1901.79a3.57,3.57,0,0,1-2.7-1.091,4.047,4.047,0,0,1-1.042-2.918v-.256a4.913,4.913,0,0,1,.464-2.17,3.629,3.629,0,0,1,1.3-1.494,3.258,3.258,0,0,1,1.808-.54,3.059,3.059,0,0,1,2.476,1.049,4.544,4.544,0,0,1,.884,3v.581h-5.533a2.9,2.9,0,0,0,.706,1.951,2.219,2.219,0,0,0,1.717.744,2.43,2.43,0,0,0,1.252-.3,3.132,3.132,0,0,0,.9-.8l.853.665A3.43,3.43,0,0,1,3954.539,1901.79Zm-.174-7.322a1.862,1.862,0,0,0-1.419.615,2.993,2.993,0,0,0-.71,1.725h4.092v-.106a2.663,2.663,0,0,0-.574-1.649A1.754,1.754,0,0,0,3954.365,1894.468Z" transform="translate(-3387.865 -1803.677)" fill="#393939"/>
              <path id="Trazado_118297" data-name="Trazado 118297" d="M3521.732,2255.267a3.571,3.571,0,0,1-2.7-1.091,4.051,4.051,0,0,1-1.042-2.918V2251a4.889,4.889,0,0,1,.465-2.17,3.619,3.619,0,0,1,1.3-1.495,3.265,3.265,0,0,1,1.807-.54,3.06,3.06,0,0,1,2.477,1.049,4.541,4.541,0,0,1,.883,3v.581h-5.533a2.9,2.9,0,0,0,.705,1.951,2.219,2.219,0,0,0,1.718.744,2.438,2.438,0,0,0,1.253-.3,3.145,3.145,0,0,0,.9-.8l.852.664A3.428,3.428,0,0,1,3521.732,2255.267Zm-.174-7.323a1.863,1.863,0,0,0-1.418.615,2.99,2.99,0,0,0-.709,1.725h4.091v-.105a2.664,2.664,0,0,0-.574-1.65A1.754,1.754,0,0,0,3521.559,2247.945Z" transform="translate(-3134.436 -2010.656)" fill="#393939"/>
              <path id="Trazado_118298" data-name="Trazado 118298" d="M3542.882,2252.95a1.029,1.029,0,0,0-.426-.879,4.113,4.113,0,0,0-1.487-.54,7.011,7.011,0,0,1-1.683-.544,2.377,2.377,0,0,1-.92-.755,1.8,1.8,0,0,1-.3-1.042,2.121,2.121,0,0,1,.85-1.7,3.318,3.318,0,0,1,2.17-.694,3.414,3.414,0,0,1,2.253.716,2.279,2.279,0,0,1,.865,1.835h-1.4a1.26,1.26,0,0,0-.487-.989,1.823,1.823,0,0,0-1.226-.416,1.912,1.912,0,0,0-1.193.333,1.045,1.045,0,0,0-.429.867.845.845,0,0,0,.4.762,4.92,4.92,0,0,0,1.445.492,7.472,7.472,0,0,1,1.694.559,2.455,2.455,0,0,1,.963.78,1.92,1.92,0,0,1,.313,1.114,2.088,2.088,0,0,1-.875,1.755,3.669,3.669,0,0,1-2.271.66,4.1,4.1,0,0,1-1.736-.348,2.833,2.833,0,0,1-1.183-.969,2.341,2.341,0,0,1-.425-1.347h1.4a1.445,1.445,0,0,0,.562,1.113,2.185,2.185,0,0,0,1.386.411,2.251,2.251,0,0,0,1.272-.321A.984.984,0,0,0,3542.882,2252.95Z" transform="translate(-3146.027 -2010.656)" fill="#393939"/>
              <path id="Trazado_118299" data-name="Trazado 118299" d="M3558.336,2242.39v1.979h1.525v1.08h-1.525v5.071a1.135,1.135,0,0,0,.2.737.858.858,0,0,0,.695.246,3.413,3.413,0,0,0,.664-.091v1.126a4.079,4.079,0,0,1-1.072.15,1.738,1.738,0,0,1-1.412-.566,2.429,2.429,0,0,1-.476-1.608v-5.064h-1.486v-1.08h1.486v-1.979Z" transform="translate(-3156.373 -2008.074)" fill="#393939"/>
              <path id="Trazado_118300" data-name="Trazado 118300" d="M3574.735,2255.117a2.915,2.915,0,0,1-.2-.861,3.114,3.114,0,0,1-2.325,1.012,2.885,2.885,0,0,1-1.982-.683,2.212,2.212,0,0,1-.773-1.733,2.311,2.311,0,0,1,.97-1.981,4.578,4.578,0,0,1,2.729-.706h1.357v-.641a1.568,1.568,0,0,0-.437-1.166,1.763,1.763,0,0,0-1.291-.434,2.038,2.038,0,0,0-1.253.378,1.109,1.109,0,0,0-.506.913h-1.4a1.921,1.921,0,0,1,.435-1.181,2.956,2.956,0,0,1,1.177-.9,3.959,3.959,0,0,1,1.634-.332,3.23,3.23,0,0,1,2.212.705,2.55,2.55,0,0,1,.83,1.944v3.759a4.6,4.6,0,0,0,.287,1.789v.121Zm-2.317-1.065a2.446,2.446,0,0,0,1.245-.34,2.05,2.05,0,0,0,.852-.883v-1.677h-1.094q-2.565,0-2.567,1.5a1.271,1.271,0,0,0,.438,1.027A1.679,1.679,0,0,0,3572.418,2254.052Z" transform="translate(-3164.573 -2010.656)" fill="#393939"/>
              <path id="Trazado_118301" data-name="Trazado 118301" d="M3593.077,2254.127a2.009,2.009,0,0,0,1.306-.453,1.59,1.59,0,0,0,.619-1.132h1.321a2.523,2.523,0,0,1-.483,1.336,3.182,3.182,0,0,1-1.189,1.012,3.434,3.434,0,0,1-1.574.377,3.363,3.363,0,0,1-2.653-1.114,4.43,4.43,0,0,1-.986-3.045v-.234a4.925,4.925,0,0,1,.438-2.121,3.336,3.336,0,0,1,1.256-1.441,3.567,3.567,0,0,1,1.937-.513,3.277,3.277,0,0,1,2.284.823,2.94,2.94,0,0,1,.969,2.136H3595a1.926,1.926,0,0,0-.6-1.3,1.868,1.868,0,0,0-1.332-.51,1.954,1.954,0,0,0-1.649.767,3.6,3.6,0,0,0-.584,2.215v.264a3.519,3.519,0,0,0,.581,2.174A1.961,1.961,0,0,0,3593.077,2254.127Z" transform="translate(-3176.272 -2010.656)" fill="#393939"/>
              <path id="Trazado_118302" data-name="Trazado 118302" d="M3609.855,2240.794a.834.834,0,0,1,.207-.574.78.78,0,0,1,.616-.234.789.789,0,0,1,.618.234.824.824,0,0,1,.211.574.866.866,0,0,1-1.446.566A.807.807,0,0,1,3609.855,2240.794Zm1.51,10.333h-1.4v-8.167h1.4Z" transform="translate(-3188.227 -2006.668)" fill="#393939"/>
              <path id="Trazado_118303" data-name="Trazado 118303" d="M3618,2246.329a4.82,4.82,0,0,1,.472-2.159,3.515,3.515,0,0,1,1.313-1.479,3.573,3.573,0,0,1,1.921-.521,3.444,3.444,0,0,1,2.7,1.155,4.442,4.442,0,0,1,1.031,3.072v.1a4.867,4.867,0,0,1-.457,2.139,3.466,3.466,0,0,1-1.306,1.476,3.616,3.616,0,0,1-1.951.528,3.437,3.437,0,0,1-2.691-1.154,4.425,4.425,0,0,1-1.03-3.057Zm1.4.167a3.5,3.5,0,0,0,.631,2.181,2.137,2.137,0,0,0,3.378-.012,3.824,3.824,0,0,0,.626-2.336,3.487,3.487,0,0,0-.638-2.177,2.03,2.03,0,0,0-1.695-.834,2,2,0,0,0-1.668.823A3.786,3.786,0,0,0,3619.4,2246.5Zm2.937-7.6h1.691l-2.024,2.219-1.125,0Z" transform="translate(-3192.994 -2006.027)" fill="#393939"/>
              <path id="Trazado_118304" data-name="Trazado 118304" d="M3641.483,2246.95l.045,1.026a2.974,2.974,0,0,1,2.446-1.177q2.587,0,2.611,2.921v5.4h-1.4v-5.4a1.875,1.875,0,0,0-.405-1.306,1.612,1.612,0,0,0-1.233-.423,2.016,2.016,0,0,0-1.193.362,2.459,2.459,0,0,0-.8.952v5.82h-1.4v-8.167Z" transform="translate(-3205.975 -2010.656)" fill="#393939"/>
              <path id="Trazado_118305" data-name="Trazado 118305" d="M3522.793,2285.5a4.168,4.168,0,0,0-.687-.053,1.839,1.839,0,0,0-1.864,1.169v5.8h-1.4v-8.167h1.358l.022.944a2.175,2.175,0,0,1,1.948-1.095,1.426,1.426,0,0,1,.619.106Z" transform="translate(-3134.937 -2032.496)" fill="#393939"/>
              <path id="Trazado_118306" data-name="Trazado 118306" d="M3534.354,2292.567a3.571,3.571,0,0,1-2.7-1.091,4.046,4.046,0,0,1-1.042-2.917v-.256a4.908,4.908,0,0,1,.464-2.171,3.627,3.627,0,0,1,1.3-1.494,3.265,3.265,0,0,1,1.808-.54,3.061,3.061,0,0,1,2.476,1.049,4.545,4.545,0,0,1,.884,3v.581h-5.533a2.9,2.9,0,0,0,.706,1.951,2.22,2.22,0,0,0,1.717.744,2.436,2.436,0,0,0,1.254-.3,3.151,3.151,0,0,0,.9-.8l.853.664A3.429,3.429,0,0,1,3534.354,2292.567Zm-.174-7.322a1.863,1.863,0,0,0-1.419.615,2.982,2.982,0,0,0-.709,1.725h4.091v-.106a2.659,2.659,0,0,0-.574-1.649A1.753,1.753,0,0,0,3534.18,2285.245Z" transform="translate(-3141.825 -2032.496)" fill="#393939"/>
              <path id="Trazado_118307" data-name="Trazado 118307" d="M3553.992,2291.428a2.013,2.013,0,0,0,1.306-.453,1.6,1.6,0,0,0,.619-1.133h1.321a2.538,2.538,0,0,1-.483,1.336,3.181,3.181,0,0,1-1.188,1.012,3.431,3.431,0,0,1-1.574.377,3.364,3.364,0,0,1-2.654-1.113,4.436,4.436,0,0,1-.985-3.045v-.234a4.915,4.915,0,0,1,.438-2.121,3.331,3.331,0,0,1,1.256-1.442,3.567,3.567,0,0,1,1.936-.513,3.274,3.274,0,0,1,2.283.823,2.943,2.943,0,0,1,.97,2.136h-1.321a1.921,1.921,0,0,0-.6-1.3,1.866,1.866,0,0,0-1.332-.51,1.956,1.956,0,0,0-1.649.766,3.6,3.6,0,0,0-.585,2.216v.264a3.535,3.535,0,0,0,.581,2.174A1.964,1.964,0,0,0,3553.992,2291.428Z" transform="translate(-3153.387 -2032.496)" fill="#393939"/>
              <path id="Trazado_118308" data-name="Trazado 118308" d="M3573.639,2292.567a3.57,3.57,0,0,1-2.7-1.091,4.046,4.046,0,0,1-1.042-2.917v-.256a4.9,4.9,0,0,1,.465-2.171,3.622,3.622,0,0,1,1.3-1.494,3.266,3.266,0,0,1,1.807-.54,3.061,3.061,0,0,1,2.477,1.049,4.547,4.547,0,0,1,.884,3v.581h-5.533a2.9,2.9,0,0,0,.7,1.951,2.22,2.22,0,0,0,1.718.744,2.429,2.429,0,0,0,1.253-.3,3.13,3.13,0,0,0,.9-.8l.853.664A3.428,3.428,0,0,1,3573.639,2292.567Zm-.175-7.322a1.861,1.861,0,0,0-1.418.615,2.984,2.984,0,0,0-.71,1.725h4.092v-.106a2.661,2.661,0,0,0-.574-1.649A1.755,1.755,0,0,0,3573.465,2285.245Z" transform="translate(-3164.829 -2032.496)" fill="#393939"/>
              <path id="Trazado_118309" data-name="Trazado 118309" d="M3597.413,2288.423a4.893,4.893,0,0,1-.852,3,2.737,2.737,0,0,1-2.311,1.139,2.994,2.994,0,0,1-2.34-.944v3.933h-1.4v-11.308h1.276l.068.906a2.873,2.873,0,0,1,2.37-1.057,2.787,2.787,0,0,1,2.328,1.11,4.94,4.94,0,0,1,.856,3.087Zm-1.4-.159a3.611,3.611,0,0,0-.589-2.181,1.9,1.9,0,0,0-1.614-.8,2.053,2.053,0,0,0-1.9,1.124v3.9a2.057,2.057,0,0,0,1.917,1.117,1.888,1.888,0,0,0,1.6-.8A3.941,3.941,0,0,0,3596.017,2288.264Z" transform="translate(-3176.902 -2032.496)" fill="#393939"/>
              <path id="Trazado_118310" data-name="Trazado 118310" d="M3611.938,2279.69v1.978h1.524v1.079h-1.524v5.071a1.135,1.135,0,0,0,.2.737.859.859,0,0,0,.7.246,3.446,3.446,0,0,0,.663-.09v1.125a4.056,4.056,0,0,1-1.072.151,1.739,1.739,0,0,1-1.412-.566,2.433,2.433,0,0,1-.475-1.608v-5.065h-1.487v-1.079h1.487v-1.978Z" transform="translate(-3187.759 -2029.915)" fill="#393939"/>
              <path id="Trazado_118311" data-name="Trazado 118311" d="M3622.367,2288.257a4.813,4.813,0,0,1,.472-2.159,3.509,3.509,0,0,1,1.313-1.479,3.572,3.572,0,0,1,1.921-.521,3.446,3.446,0,0,1,2.7,1.155,4.444,4.444,0,0,1,1.03,3.073v.1a4.879,4.879,0,0,1-.457,2.14,3.474,3.474,0,0,1-1.306,1.475,3.62,3.62,0,0,1-1.952.528,3.437,3.437,0,0,1-2.691-1.155,4.422,4.422,0,0,1-1.03-3.057Zm1.4.166a3.5,3.5,0,0,0,.63,2.182,2.136,2.136,0,0,0,3.378-.011,3.819,3.819,0,0,0,.627-2.336,3.488,3.488,0,0,0-.639-2.178,2.031,2.031,0,0,0-1.695-.834,2.009,2.009,0,0,0-1.668.823A3.793,3.793,0,0,0,3623.771,2288.423Z" transform="translate(-3195.555 -2032.496)" fill="#393939"/>
              <path id="Trazado_118312" data-name="Trazado 118312" d="M3648.481,2285.5a4.171,4.171,0,0,0-.688-.053,1.839,1.839,0,0,0-1.864,1.169v5.8h-1.4v-8.167h1.358l.022.944a2.176,2.176,0,0,1,1.948-1.095,1.427,1.427,0,0,1,.62.106Z" transform="translate(-3208.533 -2032.496)" fill="#393939"/>
              <path id="Trazado_118313" data-name="Trazado 118313" d="M3661.138,2292.416a2.889,2.889,0,0,1-.2-.86,3.117,3.117,0,0,1-2.325,1.011,2.881,2.881,0,0,1-1.981-.683,2.209,2.209,0,0,1-.773-1.732,2.31,2.31,0,0,1,.97-1.982,4.578,4.578,0,0,1,2.729-.705h1.357v-.642a1.569,1.569,0,0,0-.437-1.166,1.759,1.759,0,0,0-1.291-.434,2.04,2.04,0,0,0-1.254.377,1.113,1.113,0,0,0-.506.913h-1.4a1.925,1.925,0,0,1,.433-1.181,2.966,2.966,0,0,1,1.177-.9,3.969,3.969,0,0,1,1.635-.332,3.234,3.234,0,0,1,2.211.705,2.548,2.548,0,0,1,.831,1.944v3.76a4.605,4.605,0,0,0,.286,1.788v.121Zm-2.318-1.064a2.448,2.448,0,0,0,1.246-.34,2.037,2.037,0,0,0,.852-.883v-1.676h-1.094q-2.566,0-2.566,1.5a1.271,1.271,0,0,0,.438,1.027A1.679,1.679,0,0,0,3658.82,2291.352Z" transform="translate(-3215.167 -2032.496)" fill="#393939"/>
              <path id="Trazado_118314" data-name="Trazado 118314" d="M3080.229,2002.069v-81.523l103.891-34.921,102.493,34.921.041,78.464" transform="translate(-2878.105 -1799.17)" fill="none" stroke="#393939" stroke-miterlimit="10" stroke-width="1" stroke-dasharray="6 6"/>
            </g>
          </g>
        </g>
        <path id="Trazado_836012" data-name="Trazado 836012" d="M5.019,4.2l2.856,8.9,2.848-8.9h4.061V17H11.689V14.012l.3-6.117L8.895,17H6.855l-3.1-9.114.3,6.126V17H.967V4.2ZM19.731,17H16.761V7.49h2.971ZM16.585,5.029a1.334,1.334,0,0,1,.457-1.043,1.934,1.934,0,0,1,2.373,0,1.334,1.334,0,0,1,.457,1.043,1.334,1.334,0,0,1-.457,1.043,1.934,1.934,0,0,1-2.373,0A1.334,1.334,0,0,1,16.585,5.029Zm8.991,9.861a1.317,1.317,0,0,0,.967-.338,1.241,1.241,0,0,0,.334-.945h2.777a3.288,3.288,0,0,1-1.121,2.566,4.168,4.168,0,0,1-2.887,1,4.22,4.22,0,0,1-3.27-1.3,5.125,5.125,0,0,1-1.2-3.6v-.123A5.792,5.792,0,0,1,21.713,9.6a3.872,3.872,0,0,1,1.534-1.7,4.573,4.573,0,0,1,2.373-.593,4.116,4.116,0,0,1,2.944,1.028,3.647,3.647,0,0,1,1.09,2.786H26.877A1.626,1.626,0,0,0,26.517,10a1.244,1.244,0,0,0-.967-.4q-1.151,0-1.345,1.468a10.357,10.357,0,0,0-.062,1.283,4.068,4.068,0,0,0,.343,1.986A1.187,1.187,0,0,0,25.576,14.891Zm11.083-4.72-.976-.07a1.752,1.752,0,0,0-1.793.879V17H30.929V7.49h2.777l.1,1.222a2.294,2.294,0,0,1,2.083-1.4,2.888,2.888,0,0,1,.826.105Zm.378,1.986a5.613,5.613,0,0,1,.554-2.536,3.96,3.96,0,0,1,1.591-1.709,4.791,4.791,0,0,1,2.435-.6,4.373,4.373,0,0,1,3.366,1.323,5.076,5.076,0,0,1,1.23,3.6v.105a4.925,4.925,0,0,1-1.235,3.529,4.384,4.384,0,0,1-3.344,1.305,4.434,4.434,0,0,1-3.261-1.217,4.761,4.761,0,0,1-1.327-3.3ZM40,12.342a3.538,3.538,0,0,0,.413,1.934,1.376,1.376,0,0,0,1.222.615q1.582,0,1.617-2.435v-.3q0-2.558-1.635-2.558-1.485,0-1.608,2.206Zm7.146-.185A5.613,5.613,0,0,1,47.7,9.622a3.96,3.96,0,0,1,1.591-1.709,4.791,4.791,0,0,1,2.435-.6A4.373,4.373,0,0,1,55.09,8.637a5.076,5.076,0,0,1,1.23,3.6v.105a4.925,4.925,0,0,1-1.235,3.529,4.384,4.384,0,0,1-3.344,1.305,4.434,4.434,0,0,1-3.261-1.217,4.761,4.761,0,0,1-1.327-3.3Zm2.962.185a3.538,3.538,0,0,0,.413,1.934,1.376,1.376,0,0,0,1.222.615q1.582,0,1.617-2.435v-.3q0-2.558-1.635-2.558-1.485,0-1.608,2.206ZM60.346,7.49l.1,1.116a3.225,3.225,0,0,1,2.716-1.292,2.713,2.713,0,0,1,2.219.888,4.226,4.226,0,0,1,.76,2.672V17H63.167V11a1.6,1.6,0,0,0-.29-1.059A1.342,1.342,0,0,0,61.822,9.6a1.413,1.413,0,0,0-1.292.686V17H57.568V7.49ZM67.4,12.175a5.809,5.809,0,0,1,.976-3.56,3.211,3.211,0,0,1,2.725-1.3,2.731,2.731,0,0,1,2.145,1V3.5h2.971V17H73.556l-.149-1.02a2.8,2.8,0,0,1-2.32,1.2,3.205,3.205,0,0,1-2.689-1.3A5.993,5.993,0,0,1,67.4,12.175Zm2.962.185q0,2.531,1.477,2.531a1.458,1.458,0,0,0,1.406-.826V10.443A1.419,1.419,0,0,0,71.859,9.6q-1.371,0-1.485,2.215ZM83.259,17a3.344,3.344,0,0,1-.281-.853,2.754,2.754,0,0,1-2.285,1.028,3.374,3.374,0,0,1-2.285-.813,2.588,2.588,0,0,1-.94-2.043,2.66,2.66,0,0,1,1.143-2.338,5.821,5.821,0,0,1,3.322-.791h.914v-.5q0-1.316-1.134-1.316a.927.927,0,0,0-1.055,1.042H77.7a2.655,2.655,0,0,1,1.173-2.239,4.931,4.931,0,0,1,2.993-.86,4.323,4.323,0,0,1,2.874.888,3.086,3.086,0,0,1,1.081,2.435v4.21a4.311,4.311,0,0,0,.4,2V17ZM81.4,15.066a1.652,1.652,0,0,0,.918-.237,1.487,1.487,0,0,0,.523-.536V12.772h-.861q-1.547,0-1.547,1.389a.848.848,0,0,0,.272.655A.986.986,0,0,0,81.4,15.066Zm11.03-.738a.684.684,0,0,0-.4-.606,6.016,6.016,0,0,0-1.5-.475,6.853,6.853,0,0,1-1.828-.646,3.062,3.062,0,0,1-1.1-.971,2.319,2.319,0,0,1-.378-1.31,2.628,2.628,0,0,1,1.081-2.158,4.453,4.453,0,0,1,2.83-.848,4.934,4.934,0,0,1,3.023.853,2.666,2.666,0,0,1,1.143,2.241H92.338q0-1.143-1.2-1.143a1.194,1.194,0,0,0-.782.259.8.8,0,0,0-.316.646.737.737,0,0,0,.387.642,3.654,3.654,0,0,0,1.235.4,10.671,10.671,0,0,1,1.49.378,2.706,2.706,0,0,1,2.145,2.646,2.491,2.491,0,0,1-1.156,2.118,5.068,5.068,0,0,1-2.993.817,5.172,5.172,0,0,1-2.18-.439,3.645,3.645,0,0,1-1.494-1.2,2.707,2.707,0,0,1-.536-1.591H89.7a1.145,1.145,0,0,0,.439.962,1.808,1.808,0,0,0,1.081.3,1.422,1.422,0,0,0,.91-.246A.787.787,0,0,0,92.435,14.328Z" transform="translate(-7581.663 -6740.708)" fill="#6e40fb"/>
        <path id="Trazado_836013" data-name="Trazado 836013" d="M44.745,0A45.967,45.967,0,0,0,28.671,2.874a45.324,45.324,0,0,0-13.536,7.916,44.568,44.568,0,0,0-9.918,11.9A43.286,43.286,0,0,0,0,37.512H89.49a43.284,43.284,0,0,0-5.218-14.823,44.567,44.567,0,0,0-9.918-11.9A45.324,45.324,0,0,0,60.818,2.874,45.969,45.969,0,0,0,44.745,0Z" transform="translate(-7479.162 -6991.488) rotate(180)" fill="#1e5af9"/>
        <g id="Enmascarar_grupo_1090651" data-name="Enmascarar grupo 1090651" transform="translate(-7174.245 -6854.59)" clip-path="url(#clip-path)">
          <path id="Elipse_9678" data-name="Elipse 9678" d="M99.1,52.522c24.525,0,44.478,19.185,44.478,42.768S123.626,138.057,99.1,138.057,54.623,118.871,54.623,95.289,74.575,52.522,99.1,52.522M99.1,0C44.369,0,0,42.662,0,95.289s44.369,95.289,99.1,95.289,99.1-42.662,99.1-95.289S153.833,0,99.1,0Z" transform="translate(40.875 38.3)" fill="#6e40fb"/>
        </g>
      </g>
    </g>
  </g>
</svg>
