<svg xmlns="http://www.w3.org/2000/svg" xmlns:xlink="http://www.w3.org/1999/xlink" width="232.005" height="187.588" viewBox="0 0 232.005 187.588">
  <defs>
    <linearGradient id="linear-gradient" x1="-154.708" y1="-214.835" x2="-154.667" y2="-214.835" gradientUnits="objectBoundingBox">
      <stop offset="0" stop-color="#c0bff6"/>
      <stop offset="0.294" stop-color="#c4c3f6"/>
      <stop offset="0.64" stop-color="#d2d2f9"/>
      <stop offset="1" stop-color="#e9e9fd"/>
    </linearGradient>
    <linearGradient id="linear-gradient-2" x1="-164.806" y1="-214.823" x2="-164.765" y2="-214.823" xlink:href="#linear-gradient"/>
    <linearGradient id="linear-gradient-3" x1="-140.052" y1="-101.723" x2="-140.024" y2="-101.723" gradientUnits="objectBoundingBox">
      <stop offset="0" stop-color="#fff"/>
      <stop offset="1" stop-color="#d2e6ee"/>
    </linearGradient>
    <linearGradient id="linear-gradient-4" x1="-97.017" y1="-80.64" x2="-97.001" y2="-80.64" xlink:href="#linear-gradient-3"/>
    <linearGradient id="linear-gradient-5" x1="-114.027" y1="-116.683" x2="-114.016" y2="-116.683" xlink:href="#linear-gradient-3"/>
    <linearGradient id="linear-gradient-6" x1="-57.338" y1="-69.043" x2="-57.333" y2="-69.03" xlink:href="#linear-gradient-3"/>
    <linearGradient id="linear-gradient-7" x1="-453.767" y1="-600.847" x2="-453.792" y2="-600.927" gradientUnits="objectBoundingBox">
      <stop offset="0" stop-color="#fff"/>
      <stop offset="1" stop-color="#231f20"/>
    </linearGradient>
    <linearGradient id="linear-gradient-8" x1="-730.798" y1="-74.278" x2="-730.742" y2="-74.278" xlink:href="#linear-gradient-3"/>
    <linearGradient id="linear-gradient-9" x1="-450.123" y1="-598.102" x2="-450.149" y2="-598.182" xlink:href="#linear-gradient-7"/>
    <linearGradient id="linear-gradient-10" x1="-724.912" y1="-73.844" x2="-724.856" y2="-73.845" xlink:href="#linear-gradient-3"/>
    <clipPath id="clip-path">
      <path id="Trazado_118461" data-name="Trazado 118461" d="M1848.793,4012.25l-55.783,32.207,6.918,40.781,55.745-32.185Z" transform="translate(-1793.011 -4012.25)" fill="none"/>
    </clipPath>
    <linearGradient id="linear-gradient-11" x1="-41.415" y1="-51.384" x2="-41.405" y2="-51.384" xlink:href="#linear-gradient"/>
    <linearGradient id="linear-gradient-12" x1="-156.86" y1="-214.714" x2="-156.82" y2="-214.714" xlink:href="#linear-gradient"/>
    <linearGradient id="linear-gradient-13" x1="-57.668" y1="-34.811" x2="-57.653" y2="-34.811" xlink:href="#linear-gradient"/>
    <linearGradient id="linear-gradient-14" x1="-40.542" y1="-51.768" x2="-40.532" y2="-51.768" xlink:href="#linear-gradient-3"/>
    <linearGradient id="linear-gradient-15" x1="-155.443" y1="-217.13" x2="-155.402" y2="-217.13" xlink:href="#linear-gradient"/>
    <clipPath id="clip-path-2">
      <path id="Trazado_118462" data-name="Trazado 118462" d="M1704.856,4012.25l55.783,32.207-6.917,40.781-55.745-32.185Z" transform="translate(-1697.976 -4012.25)" fill="none"/>
    </clipPath>
    <linearGradient id="linear-gradient-16" x1="-40.932" y1="-51.384" x2="-40.922" y2="-51.384" xlink:href="#linear-gradient"/>
    <linearGradient id="linear-gradient-17" x1="-158.057" y1="-214.717" x2="-158.016" y2="-214.717" xlink:href="#linear-gradient"/>
  </defs>
  <g id="Grupo_1093475" data-name="Grupo 1093475" transform="translate(6761 5734.118)">
    <g id="Group_39011" data-name="Group 39011" transform="translate(-6761 -5707.807)">
      <g id="Group_34951" data-name="Group 34951">
        <g id="Group_34950" data-name="Group 34950">
          <g id="Group_34875" data-name="Group 34875">
            <g id="Group_34865" data-name="Group 34865" transform="translate(2.453 33.633)">
              <path id="Path_85818" data-name="Path 85818" d="M1693.753,4040.056a5.137,5.137,0,0,1-2.566-.685l-29.564-17.07a1.487,1.487,0,0,1,0-2.574l53.492-30.886a.289.289,0,0,1,.293,0l.249.143,31.735,18.322a1.487,1.487,0,0,1,0,2.573l-51.073,29.487A5.147,5.147,0,0,1,1693.753,4040.056Zm21.51-50.611-53.344,30.8a.892.892,0,0,0,0,1.546l29.564,17.072a4.642,4.642,0,0,0,4.541,0l51.073-29.487a.892.892,0,0,0,0-1.545Z" transform="translate(-1660.88 -3988.801)" fill="#42e8e0"/>
            </g>
            <g id="Group_34873" data-name="Group 34873" transform="translate(0 23.56)">
              <g id="Group_34872" data-name="Group 34872">
                <g id="Group_34871" data-name="Group 34871">
                  <g id="Group_34870" data-name="Group 34870">
                    <g id="Group_34869" data-name="Group 34869">
                      <path id="Path_85819" data-name="Path 85819" d="M1751.172,3998.873l-3.1,1.621-31.118-17.965a2.256,2.256,0,0,0-2.031.083l-53.671,30.986c-.514-.288-2.856-1.414-2.856-1.414l1.137,2.959h0a.675.675,0,0,0,.318.353l32.774,18.922a2.257,2.257,0,0,0,2.031-.085l54.922-31.708a.992.992,0,0,0,.46-.489h0Z" transform="translate(-1658.371 -3978.583)" fill="#393939"/>
                      <path id="Path_85820" data-name="Path 85820" d="M1750.691,3999.3l-56.29,32.5a2.318,2.318,0,0,1-2.082.088l-33.589-19.393c-.534-.308-.466-.846.15-1.2l56.287-32.5a2.313,2.313,0,0,1,2.081-.086l33.589,19.392C1751.375,3998.4,1751.307,3998.941,1750.691,3999.3Z" transform="translate(-1658.371 -3978.496)" fill="#d2e6ee"/>
                      <path id="Path_85821" data-name="Path 85821" d="M1750.692,3999.432l-56.287,32.5a2.318,2.318,0,0,1-2.082.087l-33.589-19.393a.687.687,0,0,1-.326-.362.566.566,0,0,0,.326.684l33.589,19.393a2.321,2.321,0,0,0,2.082-.086l56.287-32.5c.414-.239.574-.561.476-.839A1,1,0,0,1,1750.692,3999.432Z" transform="translate(-1658.371 -3978.956)" fill="#fff"/>
                      <path id="Path_85822" data-name="Path 85822" d="M1677.867,4025.815v-.618c0-.059.035-.085.079-.059l2.177,1.257a.2.2,0,0,1,.08.152v.617c0,.058-.036.086-.08.06l-2.177-1.257A.189.189,0,0,1,1677.867,4025.815Z" transform="translate(-1658.81 -3979.548)" fill="#2842a2"/>
                      <path id="Path_85823" data-name="Path 85823" d="M1681.2,4027.738v-.618c0-.059.036-.085.079-.059l2.178,1.257a.2.2,0,0,1,.079.152v.617c0,.059-.036.087-.079.061l-2.178-1.257A.194.194,0,0,1,1681.2,4027.738Z" transform="translate(-1658.885 -3979.591)" fill="#2842a2"/>
                      <g id="Group_34867" data-name="Group 34867" transform="translate(19.118 11.256)">
                        <path id="Path_85824" data-name="Path 85824" d="M1678.113,4017.156l46.775-27.008a1,1,0,0,1,1.008,0l16.656,9.636a.361.361,0,0,1,0,.622l-46.752,27a1.011,1.011,0,0,1-1.007,0l-16.678-9.625a.358.358,0,0,1,0-.622Z" transform="translate(-1677.93 -3990.012)" fill="#d2e1f1"/>
                        <path id="Path_85825" data-name="Path 85825" d="M1678.113,4017.777l.167.1,46.607-26.908a1,1,0,0,1,1.008,0l16.489,9.54.167-.1a.36.36,0,0,0,.129-.493.356.356,0,0,0-.129-.128l-16.656-9.64a1,1,0,0,0-1.008,0l-46.775,27a.359.359,0,0,0,0,.625Z" transform="translate(-1677.93 -3990.012)" fill="#727997"/>
                        <g id="Group_34866" data-name="Group 34866" transform="translate(2.522 1.537)">
                          <path id="Path_85826" data-name="Path 85826" d="M1727.244,3992.627l-43.089,24.875-2.136-.853,43.415-25.065Z" transform="translate(-1680.544 -3991.584)" fill="#393939"/>
                          <path id="Path_85827" data-name="Path 85827" d="M1731.9,3995.243l-38.109,22-1.806-1.043,38.109-22Z" transform="translate(-1680.769 -3991.643)" fill="#24126a"/>
                          <path id="Path_85828" data-name="Path 85828" d="M1734.694,3996.948l-44.87,25.9-1.806-1.042,44.87-25.9Z" transform="translate(-1680.68 -3991.681)" fill="#393939"/>
                          <path id="Path_85829" data-name="Path 85829" d="M1737.645,3998.651l-44.871,25.9-1.806-1.043,44.87-25.9Z" transform="translate(-1680.746 -3991.719)" fill="#393939"/>
                          <path id="Path_85830" data-name="Path 85830" d="M1740.6,4000.355l-44.871,25.9-1.806-1.042,44.87-25.9Z" transform="translate(-1680.813 -3991.759)" fill="#24126a"/>
                          <path id="Path_85831" data-name="Path 85831" d="M1684.126,4018.077l-1.806,1.042-1.81-1.042,1.806-1.043Z" transform="translate(-1680.51 -3992.158)" fill="#393939"/>
                          <path id="Path_85832" data-name="Path 85832" d="M1695.823,4016.458l-8.974,5.181-1.806-1.043,9.038-5.219Z" transform="translate(-1680.612 -3992.121)" fill="#393939"/>
                        </g>
                      </g>
                      <g id="Group_34868" data-name="Group 34868" transform="translate(25.175 12.793)">
                        <path id="Path_85833" data-name="Path 85833" d="M1694.9,4005.089l12.609-7.282a.544.544,0,0,0,0-1.03l-8.624-4.979a1.976,1.976,0,0,0-1.785,0l-12.609,7.282a.545.545,0,0,0,0,1.031l8.625,4.979A1.979,1.979,0,0,0,1694.9,4005.089Z" transform="translate(-1684.127 -3991.584)" fill="url(#linear-gradient)"/>
                        <path id="Path_85834" data-name="Path 85834" d="M1684.495,3999.5l12.609-7.281a1.973,1.973,0,0,1,1.785,0l8.624,4.979a.778.778,0,0,1,.31.3c.131-.248.031-.529-.31-.726l-8.624-4.979a1.976,1.976,0,0,0-1.785,0l-12.609,7.282c-.341.2-.44.477-.31.727A.776.776,0,0,1,1684.495,3999.5Z" transform="translate(-1684.127 -3991.584)" fill="#727997"/>
                      </g>
                    </g>
                  </g>
                </g>
              </g>
            </g>
            <g id="Group_34874" data-name="Group 34874" transform="translate(27.035)">
              <path id="Path_85835" data-name="Path 85835" d="M1751.705,3997.407l-7.12-42.214.572-.241-.859-.489v0a.618.618,0,0,0-.663.045l-56.866,32.831a1.6,1.6,0,0,0-.738,1.445l7.172,42.55a.533.533,0,0,0,.3.433h0l.841.489.145-.782-.048.013,56.522-32.632A1.606,1.606,0,0,0,1751.705,3997.407Z" transform="translate(-1686.029 -3954.393)" fill="#393939"/>
              <path id="Path_85836" data-name="Path 85836" d="M1687.094,3989.273l-.936-.413a1.283,1.283,0,0,0-.12.7l7.172,42.55a.535.535,0,0,0,.3.433h0l.841.489.145-.782-.048.013,2.86-1.651Z" transform="translate(-1686.029 -3955.17)" fill="#393939"/>
              <path id="Path_85837" data-name="Path 85837" d="M1751.88,3999.376l-56.865,32.832c-.439.253-.815.106-.893-.348l-7.171-42.55a1.6,1.6,0,0,1,.739-1.444l56.865-32.832c.439-.252.815-.107.892.347l7.171,42.55A1.609,1.609,0,0,1,1751.88,3999.376Z" transform="translate(-1686.05 -3954.405)" fill="#6e40fb"/>
            </g>
          </g>
          <g id="Group_34886" data-name="Group 34886" transform="translate(137.438)">
            <g id="Group_34876" data-name="Group 34876" transform="translate(3.893 33.638)">
              <path id="Path_85838" data-name="Path 85838" d="M1857.346,4040.057a5.143,5.143,0,0,1-2.567-.685l-51.073-29.486a1.485,1.485,0,0,1,0-2.573l31.983-18.466a.294.294,0,0,1,.293,0l53.491,30.887a1.488,1.488,0,0,1,0,2.574l-29.557,17.063A5.146,5.146,0,0,1,1857.346,4040.057Zm-21.5-50.611-.1.058-31.734,18.322a.892.892,0,0,0-.327,1.219.881.881,0,0,0,.327.326l51.068,29.49h0a4.64,4.64,0,0,0,4.541,0l29.564-17.068a.893.893,0,0,0,0-1.546Z" transform="translate(-1802.963 -3988.808)" fill="#42e8e0"/>
            </g>
            <g id="Group_34884" data-name="Group 34884" transform="translate(0.774 23.559)">
              <g id="Group_34883" data-name="Group 34883">
                <g id="Group_34882" data-name="Group 34882">
                  <g id="Group_34881" data-name="Group 34881">
                    <g id="Group_34880" data-name="Group 34880">
                      <path id="Path_85839" data-name="Path 85839" d="M1799.8,3998.873l3.1,1.621,31.119-17.965a2.256,2.256,0,0,1,2.031.083l53.671,30.986c.513-.288,2.855-1.414,2.855-1.414l-1.136,2.959h0a.679.679,0,0,1-.318.353l-32.773,18.922a2.259,2.259,0,0,1-2.032-.085l-54.922-31.708a.985.985,0,0,1-.46-.489h0Z" transform="translate(-1799.773 -3978.582)" fill="#393939"/>
                      <path id="Path_85840" data-name="Path 85840" d="M1800.278,3999.3l56.291,32.5a2.319,2.319,0,0,0,2.082.088l33.589-19.393c.534-.308.466-.846-.15-1.2l-56.287-32.5a2.312,2.312,0,0,0-2.082-.086l-33.589,19.392C1799.6,3998.4,1799.667,3998.941,1800.278,3999.3Z" transform="translate(-1799.773 -3978.496)" fill="#d2e6ee"/>
                      <path id="Path_85841" data-name="Path 85841" d="M1800.284,3999.432l56.287,32.5a2.318,2.318,0,0,0,2.082.087l33.589-19.393a.694.694,0,0,0,.327-.362.568.568,0,0,1-.327.684l-33.589,19.393a2.321,2.321,0,0,1-2.082-.086l-56.287-32.5c-.415-.239-.574-.561-.476-.839A.993.993,0,0,0,1800.284,3999.432Z" transform="translate(-1799.773 -3978.956)" fill="#fff"/>
                      <path id="Path_85842" data-name="Path 85842" d="M1875.2,4025.815v-.618c0-.059-.035-.085-.079-.059l-2.177,1.257a.189.189,0,0,0-.079.152v.617c0,.058.035.086.079.06l2.177-1.257A.191.191,0,0,0,1875.2,4025.815Z" transform="translate(-1801.421 -3979.547)" fill="#21587b"/>
                      <path id="Path_85843" data-name="Path 85843" d="M1871.866,4027.738v-.618c0-.059-.035-.085-.079-.059l-2.177,1.257a.187.187,0,0,0-.079.152v.617c0,.059.035.087.079.061l2.177-1.257A.191.191,0,0,0,1871.866,4027.738Z" transform="translate(-1801.346 -3979.591)" fill="#21587b"/>
                      <g id="Group_34878" data-name="Group 34878" transform="translate(8.911 11.256)">
                        <path id="Path_85844" data-name="Path 85844" d="M1873.509,4017.156l-46.775-27.008a1,1,0,0,0-1.008,0l-16.657,9.636a.359.359,0,0,0-.132.49.364.364,0,0,0,.132.132l46.753,26.993a1.011,1.011,0,0,0,1.007,0l16.679-9.625a.36.36,0,0,0,.126-.492A.365.365,0,0,0,1873.509,4017.156Z" transform="translate(-1808.889 -3990.012)" fill="#d2e1f1"/>
                        <path id="Path_85845" data-name="Path 85845" d="M1873.509,4017.777l-.168.1-46.608-26.908a1,1,0,0,0-1.008,0l-16.489,9.539-.167-.1a.358.358,0,0,1,0-.622l16.656-9.636a1.006,1.006,0,0,1,1.008,0l46.776,27.006a.358.358,0,0,1,.13.49A.35.35,0,0,1,1873.509,4017.777Z" transform="translate(-1808.889 -3990.012)" fill="#727997"/>
                        <g id="Group_34877" data-name="Group 34877" transform="translate(2.5 1.537)">
                          <path id="Path_85846" data-name="Path 85846" d="M1824.829,3992.627l43.086,24.875,2.135-.853-43.415-25.065Z" transform="translate(-1811.749 -3991.584)" fill="#393939"/>
                          <path id="Path_85847" data-name="Path 85847" d="M1820.3,3995.243l38.11,22,1.806-1.043-38.109-22Z" transform="translate(-1811.646 -3991.643)" fill="#24126a"/>
                          <path id="Path_85848" data-name="Path 85848" d="M1817.347,3996.948l44.871,25.9,1.806-1.042-44.871-25.9Z" transform="translate(-1811.58 -3991.681)" fill="#393939"/>
                          <path id="Path_85849" data-name="Path 85849" d="M1814.4,3998.651l44.87,25.9,1.806-1.043-44.871-25.9Z" transform="translate(-1811.514 -3991.719)" fill="#393939"/>
                          <path id="Path_85850" data-name="Path 85850" d="M1811.447,4000.355l44.87,25.9,1.806-1.042-44.87-25.9Z" transform="translate(-1811.447 -3991.759)" fill="#24126a"/>
                          <path id="Path_85851" data-name="Path 85851" d="M1868.909,4018.077l1.806,1.042,1.806-1.042-1.806-1.043Z" transform="translate(-1812.743 -3992.158)" fill="#393939"/>
                          <path id="Path_85852" data-name="Path 85852" d="M1857.045,4016.458l8.974,5.181,1.806-1.043-9.038-5.219Z" transform="translate(-1812.476 -3992.121)" fill="#393939"/>
                        </g>
                      </g>
                      <g id="Group_34879" data-name="Group 34879" transform="translate(43.899 12.792)">
                        <path id="Path_85853" data-name="Path 85853" d="M1857.664,4005.089l-12.609-7.282a.543.543,0,0,1,0-1.03l8.624-4.979a1.977,1.977,0,0,1,1.785,0l12.609,7.282a.544.544,0,0,1,0,1.031l-8.624,4.979A1.978,1.978,0,0,1,1857.664,4005.089Z" transform="translate(-1844.685 -3991.583)" fill="url(#linear-gradient-2)"/>
                        <path id="Path_85854" data-name="Path 85854" d="M1868.074,3999.5l-12.609-7.281a1.964,1.964,0,0,0-1.786,0l-8.624,4.978a.761.761,0,0,0-.31.3c-.13-.248-.03-.529.31-.726l8.624-4.979a1.97,1.97,0,0,1,1.786,0l12.609,7.282c.34.2.441.477.31.727A.783.783,0,0,0,1868.074,3999.5Z" transform="translate(-1844.685 -3991.583)" fill="#727997"/>
                      </g>
                    </g>
                  </g>
                </g>
              </g>
            </g>
            <g id="Group_34885" data-name="Group 34885">
              <path id="Path_85855" data-name="Path 85855" d="M1799.9,3997.407l7.115-42.214-.572-.241.86-.489v0a.618.618,0,0,1,.663.045l56.865,32.831a1.6,1.6,0,0,1,.739,1.445l-7.175,42.548a.537.537,0,0,1-.3.433h0l-.841.489-.144-.782.048.014-56.522-32.632A1.605,1.605,0,0,1,1799.9,3997.407Z" transform="translate(-1799.001 -3954.393)" fill="#393939"/>
              <path id="Path_85856" data-name="Path 85856" d="M1865.763,3989.273l.934-.413a1.284,1.284,0,0,1,.12.7l-7.172,42.55a.535.535,0,0,1-.3.433h0l-.842.489-.144-.782.048.013-2.86-1.651Z" transform="translate(-1800.256 -3955.17)" fill="#393939"/>
              <path id="Path_85857" data-name="Path 85857" d="M1799.721,3999.376l56.866,32.832c.439.253.815.106.891-.348l7.172-42.55a1.6,1.6,0,0,0-.738-1.444l-56.866-32.832c-.439-.252-.814-.107-.891.347l-7.171,42.548A1.606,1.606,0,0,0,1799.721,3999.376Z" transform="translate(-1798.98 -3954.405)" fill="#6e40fb"/>
            </g>
          </g>
          <path id="Path_86248" data-name="Path 86248" d="M1694.473,4060.432l1.839,1.061,1.839-1.061-1.839-1.061Z" transform="translate(-1659.185 -3956.761)" fill="#393939"/>
          <path id="Path_86249" data-name="Path 86249" d="M1689.861,4063.094l3.812,2.2,1.839-1.062-3.812-2.2Z" transform="translate(-1659.081 -3956.82)" fill="#393939"/>
        </g>
      </g>
      <g id="Group_33035" data-name="Group 33035" transform="translate(82.236 13.905)">
        <g id="Group_33032" data-name="Group 33032">
          <g id="Group_33019" data-name="Group 33019" transform="translate(40.349 52.998)">
            <path id="Path_81219" data-name="Path 81219" d="M1811.976,4022.84l-.031,10.922-28.161,16.365.031-10.922Z" transform="translate(-1783.784 -4022.84)" fill="url(#linear-gradient-3)"/>
          </g>
          <path id="Path_81220" data-name="Path 81220" d="M1782.884,4039.045l-.031,10.923-40.349-23.3.031-10.923Z" transform="translate(-1742.504 -3969.682)" fill="url(#linear-gradient-4)"/>
          <g id="Group_33020" data-name="Group 33020" transform="translate(2.14 50.249)">
            <path id="Path_81221" data-name="Path 81221" d="M1780.793,4040.805l-.025,5.754a.331.331,0,0,1-.332.33.336.336,0,0,1-.164-.044l-35.413-20.446a.333.333,0,0,1-.166-.287l.024-5.755a.331.331,0,0,1,.332-.329.339.339,0,0,1,.164.045l35.413,20.446A.33.33,0,0,1,1780.793,4040.805Z" transform="translate(-1744.693 -4020.027)" fill="#21587b"/>
            <path id="Path_81222" data-name="Path 81222" d="M1745.591,4025.643l.017-3.737a.33.33,0,0,1,.33-.33.327.327,0,0,1,.166.045l33.666,19.437a.33.33,0,0,1,.166.287l-.017,3.737a.331.331,0,0,1-.333.33.336.336,0,0,1-.164-.045l-33.666-19.437A.331.331,0,0,1,1745.591,4025.643Z" transform="translate(-1744.713 -4020.063)" fill="url(#linear-gradient-5)"/>
          </g>
          <g id="Group_33021" data-name="Group 33021" transform="translate(0.031 29.702)">
            <path id="Path_81223" data-name="Path 81223" d="M1811.046,4022.3l-28.16,16.365-40.35-23.295,28.161-16.366Z" transform="translate(-1742.536 -3999.006)" fill="url(#linear-gradient-6)"/>
          </g>
          <path id="Path_81224" data-name="Path 81224" d="M1774.155,4029.526a2.452,2.452,0,0,1,2.214,0,.675.675,0,0,1,0,1.279,2.452,2.452,0,0,1-2.214,0A.676.676,0,0,1,1774.155,4029.526Z" transform="translate(-1743.208 -3969.987)" fill="#6e40fb"/>
          <path id="Path_81225" data-name="Path 81225" d="M1777.948,4031.7a2.448,2.448,0,0,1,2.215,0,.675.675,0,0,1,0,1.278,2.45,2.45,0,0,1-2.215,0A.675.675,0,0,1,1777.948,4031.7Z" transform="translate(-1743.293 -3970.037)" fill="#6e40fb"/>
          <path id="Path_81226" data-name="Path 81226" d="M1782.327,4034.192a2.445,2.445,0,0,1,2.214,0,.675.675,0,0,1,0,1.278,2.445,2.445,0,0,1-2.214,0A.675.675,0,0,1,1782.327,4034.192Z" transform="translate(-1743.392 -3970.092)" fill="#6e40fb"/>
          <path id="Path_81227" data-name="Path 81227" d="M1765.981,4024.846a2.45,2.45,0,0,1,2.215,0,.675.675,0,0,1,0,1.279,2.453,2.453,0,0,1-2.215,0A.675.675,0,0,1,1765.981,4024.846Z" transform="translate(-1743.023 -3969.882)" fill="#ebf4fb"/>
          <path id="Path_81228" data-name="Path 81228" d="M1769.775,4027.023a2.448,2.448,0,0,1,2.214,0,.675.675,0,0,1,0,1.278,2.445,2.445,0,0,1-2.214,0A.675.675,0,0,1,1769.775,4027.023Z" transform="translate(-1743.109 -3969.931)" fill="#ebf4fb"/>
          <g id="Group_33024" data-name="Group 33024" transform="translate(54.556 16.029)">
            <path id="Path_81229" data-name="Path 81229" d="M1802.357,4023.138l5.211-3.147-3.148-1.818-5.405,3.083Z" transform="translate(-1798.335 -3985.766)" opacity="0.7" fill="url(#linear-gradient-7)" style="isolation: isolate"/>
            <g id="Group_33023" data-name="Group 33023">
              <path id="Path_81230" data-name="Path 81230" d="M1802.456,3985.923a.765.765,0,0,1-.4.616,2.031,2.031,0,0,1-.818.273,2.742,2.742,0,0,1-.645,0l-.013,0a1.95,1.95,0,0,1-.894-.317.741.741,0,0,1-.348-.563l-1.014,35.223a.908.908,0,0,0,.042.254l.021.062a1.218,1.218,0,0,0,.273.423.8.8,0,0,0,.064.055c.021.018.039.038.063.055a2.132,2.132,0,0,0,.3.21,2.726,2.726,0,0,0,.366.174l.116.042c.1.036.2.066.305.093l.118.029a3.809,3.809,0,0,0,.432.074h.027a4.01,4.01,0,0,0,.42.024h.132c.113,0,.225-.008.336-.019l.123-.012a4.207,4.207,0,0,0,.432-.073c.113-.027.221-.063.329-.1.042-.013.087-.023.128-.04a2.819,2.819,0,0,0,.417-.192,1.3,1.3,0,0,0,.767-1.074S1802.456,3985.927,1802.456,3985.923Z" transform="translate(-1798.319 -3985.039)" fill="url(#linear-gradient-8)"/>
              <g id="Group_33022" data-name="Group 33022" transform="translate(0.995)">
                <path id="Path_81231" data-name="Path 81231" d="M1799.8,3985.286a.687.687,0,0,0-.007,1.3,2.476,2.476,0,0,0,2.243,0,.687.687,0,0,0,.007-1.3A2.475,2.475,0,0,0,1799.8,3985.286Z" transform="translate(-1799.337 -3985.018)" fill="#21587b"/>
              </g>
            </g>
          </g>
          <g id="Group_33027" data-name="Group 33027" transform="translate(26.468)">
            <path id="Path_81232" data-name="Path 81232" d="M1773.788,4006.648,1779,4003.5l-3.148-1.817-5.408,3.085Z" transform="translate(-1769.603 -3969.365)" opacity="0.7" fill="url(#linear-gradient-9)" style="isolation: isolate"/>
            <g id="Group_33026" data-name="Group 33026">
              <path id="Path_81233" data-name="Path 81233" d="M1773.721,3969.525a.766.766,0,0,1-.406.616,2.034,2.034,0,0,1-.817.272,2.724,2.724,0,0,1-.646,0l-.013,0a1.969,1.969,0,0,1-.894-.317.746.746,0,0,1-.348-.564l-1.014,35.224a.913.913,0,0,0,.043.254c.006.02.013.039.021.062a1.205,1.205,0,0,0,.273.425c.019.019.044.038.063.055s.041.038.063.054a1.931,1.931,0,0,0,.295.21,3.009,3.009,0,0,0,.367.175c.039.014.078.029.116.041.1.035.2.067.3.093.038.011.077.021.118.03a4.1,4.1,0,0,0,.432.074.12.12,0,0,1,.028,0c.139.015.278.021.419.024h.132c.114,0,.225-.009.337-.019l.122-.011a3.97,3.97,0,0,0,.432-.074c.114-.026.221-.063.33-.1.042-.014.088-.024.128-.038a2.97,2.97,0,0,0,.415-.194,1.3,1.3,0,0,0,.767-1.076S1773.721,3969.529,1773.721,3969.525Z" transform="translate(-1769.583 -3968.639)" fill="url(#linear-gradient-10)"/>
              <g id="Group_33025" data-name="Group 33025" transform="translate(0.995)">
                <path id="Path_81234" data-name="Path 81234" d="M1771.068,3968.888a.686.686,0,0,0-.007,1.3,2.473,2.473,0,0,0,2.243,0,.686.686,0,0,0,.007-1.3A2.468,2.468,0,0,0,1771.068,3968.888Z" transform="translate(-1770.601 -3968.619)" fill="#21587b"/>
              </g>
            </g>
          </g>
          <g id="Group_33031" data-name="Group 33031" transform="translate(41.554 57.26)">
            <g id="Group_33028" data-name="Group 33028" transform="translate(0.001)">
              <path id="Path_81235" data-name="Path 81235" d="M1785.243,4042.16a.227.227,0,0,1-.225-.228.222.222,0,0,1,.113-.195l25.551-14.509a.226.226,0,0,1,.224.393l-25.551,14.509A.233.233,0,0,1,1785.243,4042.16Z" transform="translate(-1785.018 -4027.2)" fill="#21587b"/>
            </g>
            <g id="Group_33029" data-name="Group 33029" transform="translate(0 1.734)">
              <path id="Path_81236" data-name="Path 81236" d="M1785.243,4043.933a.226.226,0,0,1-.112-.422l25.55-14.508a.226.226,0,0,1,.224.393l-25.551,14.508A.22.22,0,0,1,1785.243,4043.933Z" transform="translate(-1785.017 -4028.974)" fill="#21587b"/>
            </g>
            <g id="Group_33030" data-name="Group 33030" transform="translate(0 3.468)">
              <path id="Path_81237" data-name="Path 81237" d="M1785.243,4045.708a.226.226,0,0,1-.112-.423l25.55-14.507a.226.226,0,0,1,.224.392l-25.551,14.508A.22.22,0,0,1,1785.243,4045.708Z" transform="translate(-1785.017 -4030.749)" fill="#21587b"/>
            </g>
          </g>
        </g>
      </g>
      <g id="Group_34949" data-name="Group 34949" transform="translate(0.969 53.143)">
        <g id="Group_34929" data-name="Group 34929" transform="translate(127.635)">
          <g id="Group_34911" data-name="Group 34911" transform="translate(11.431 55.883)">
            <path id="Path_86048" data-name="Path 86048" d="M1835.088,4118.082a5.234,5.234,0,0,1-2.611-.7l-30.087-17.371a1.507,1.507,0,0,1,0-2.609l54.438-31.43a.29.29,0,0,1,.293,0l32.549,18.792a1.507,1.507,0,0,1,0,2.61l-51.975,30.007A5.237,5.237,0,0,1,1835.088,4118.082Zm21.89-51.511-54.29,31.343a.914.914,0,0,0,0,1.582l30.087,17.371a4.719,4.719,0,0,0,4.626,0l51.977-30.008a.913.913,0,0,0,0-1.582Z" transform="translate(-1801.637 -4065.934)" fill="#393939"/>
          </g>
          <g id="Group_34924" data-name="Group 34924">
            <g id="Group_34923" data-name="Group 34923">
              <g id="Group_34922" data-name="Group 34922">
                <g id="Group_34916" data-name="Group 34916">
                  <g id="Group_34913" data-name="Group 34913">
                    <path id="Path_86049" data-name="Path 86049" d="M1856.783,4052.542l-7.241-42.96.586-.246-.88-.5v0a.631.631,0,0,0-.673.047L1790.7,4042.3a1.635,1.635,0,0,0-.752,1.466l7.3,43.3a.542.542,0,0,0,.305.441h0l.856.494.146-.8-.049.015,57.52-33.21A1.634,1.634,0,0,0,1856.783,4052.542Z" transform="translate(-1789.943 -4008.763)" fill="#e9e9fd"/>
                    <path id="Path_86050" data-name="Path 86050" d="M1791.025,4044.264l-.952-.421a1.313,1.313,0,0,0-.122.717l7.3,43.3a.543.543,0,0,0,.305.441h0l.856.495.147-.8-.049.015,2.911-1.68Z" transform="translate(-1789.943 -4009.553)" fill="#dee4f0"/>
                    <path id="Path_86051" data-name="Path 86051" d="M1856.957,4054.544l-57.871,33.411c-.447.259-.829.109-.908-.354l-7.3-43.3a1.633,1.633,0,0,1,.75-1.466l57.871-33.417c.447-.258.829-.108.908.354l7.3,43.3A1.633,1.633,0,0,1,1856.957,4054.544Z" transform="translate(-1789.964 -4008.774)" fill="#393939"/>
                    <g id="Group_34912" data-name="Group 34912" transform="translate(2.999 3.408)" opacity="0.51">
                      <path id="Path_86052" data-name="Path 86052" d="M1848.794,4012.25l-55.783,32.207,6.917,40.781,55.745-32.185Z" transform="translate(-1793.011 -4012.25)" fill="#393939"/>
                    </g>
                  </g>
                  <g id="Group_34915" data-name="Group 34915" transform="translate(8.937 45.621)">
                    <path id="Path_86053" data-name="Path 86053" d="M1893.521,4076.174l-3.158,1.649-31.669-18.284a2.3,2.3,0,0,0-2.068.085l-54.618,31.534c-.523-.293-2.906-1.439-2.906-1.439l1.156,3.013h0a.686.686,0,0,0,.323.357l33.353,19.256a2.294,2.294,0,0,0,2.067-.085l55.893-32.27a1,1,0,0,0,.468-.5h0Z" transform="translate(-1799.086 -4055.524)" fill="#393939"/>
                    <path id="Path_86054" data-name="Path 86054" d="M1893.032,4076.605l-57.278,33.072a2.355,2.355,0,0,1-2.118.088l-34.183-19.735c-.543-.313-.475-.861.151-1.223l57.278-33.072a2.344,2.344,0,0,1,2.118-.088l34.183,19.735C1893.727,4075.7,1893.659,4076.243,1893.032,4076.605Z" transform="translate(-1799.086 -4055.436)" fill="#d2e6ee"/>
                    <path id="Path_86055" data-name="Path 86055" d="M1893.032,4076.743l-57.278,33.073a2.353,2.353,0,0,1-2.118.088l-34.185-19.736a.7.7,0,0,1-.332-.369.576.576,0,0,0,.332.7l34.182,19.736a2.358,2.358,0,0,0,2.118-.087l57.278-33.073c.422-.245.587-.57.489-.854A1.008,1.008,0,0,1,1893.032,4076.743Z" transform="translate(-1799.086 -4055.905)" fill="#fff"/>
                    <path id="Path_86056" data-name="Path 86056" d="M1818.919,4103.594v-.625c0-.059.036-.087.081-.061l2.216,1.278a.2.2,0,0,1,.081.155v.628c0,.06-.037.087-.081.062l-2.216-1.28A.2.2,0,0,1,1818.919,4103.594Z" transform="translate(-1799.533 -4056.507)" fill="#21587b"/>
                    <path id="Path_86057" data-name="Path 86057" d="M1822.309,4105.551v-.628c0-.06.036-.088.08-.062l2.216,1.279a.2.2,0,0,1,.08.155v.628c0,.06-.036.087-.08.062l-2.216-1.28A.2.2,0,0,1,1822.309,4105.551Z" transform="translate(-1799.609 -4056.551)" fill="#21587b"/>
                    <path id="Path_86058" data-name="Path 86058" d="M1808.571,4088.3l47.6-27.483a1.026,1.026,0,0,1,1.026,0l16.95,9.811a.366.366,0,0,1,0,.633l-47.58,27.467a1.028,1.028,0,0,1-1.024,0l-16.974-9.795a.367.367,0,0,1-.131-.5A.375.375,0,0,1,1808.571,4088.3Z" transform="translate(-1799.296 -4055.554)" fill="#d2e1f1"/>
                    <path id="Path_86059" data-name="Path 86059" d="M1808.571,4088.933l.171.1,47.431-27.384a1.027,1.027,0,0,1,1.026,0l16.78,9.709.171-.1a.366.366,0,0,0,.133-.5.371.371,0,0,0-.133-.133l-16.955-9.809a1.026,1.026,0,0,0-1.026,0l-47.6,27.483a.367.367,0,0,0-.132.5A.381.381,0,0,0,1808.571,4088.933Z" transform="translate(-1799.296 -4055.554)" fill="#393939"/>
                    <g id="Group_34914" data-name="Group 34914" transform="translate(11.657 6.686)">
                      <path id="Path_86060" data-name="Path 86060" d="M1858.633,4063.338l-41.346,23.873-1.838-1.062,41.346-23.873Z" transform="translate(-1811.112 -4062.276)" fill="#393939"/>
                      <path id="Path_86061" data-name="Path 86061" d="M1863.307,4066l-38.784,22.393-1.839-1.062,38.784-22.392Z" transform="translate(-1811.275 -4062.336)" fill="#393939"/>
                      <path id="Path_86062" data-name="Path 86062" d="M1866.151,4067.739l-45.663,26.363-1.839-1.062,45.663-26.363Z" transform="translate(-1811.184 -4062.375)" fill="#393939"/>
                      <path id="Path_86063" data-name="Path 86063" d="M1869.156,4069.468l-45.662,26.363-1.838-1.061,45.663-26.363Z" transform="translate(-1811.252 -4062.414)" fill="#393939"/>
                      <path id="Path_86064" data-name="Path 86064" d="M1872.159,4071.2l-45.666,26.364-1.839-1.062,45.666-26.358Z" transform="translate(-1811.32 -4062.453)" fill="#393939"/>
                      <path id="Path_86065" data-name="Path 86065" d="M1814.689,4089.238l-1.839,1.061-1.839-1.061,1.839-1.062Z" transform="translate(-1811.012 -4062.86)" fill="#393939"/>
                      <path id="Path_86066" data-name="Path 86066" d="M1821.279,4090.731l-3.812,2.2-1.839-1.062,3.812-2.2Z" transform="translate(-1811.116 -4062.894)" fill="#393939"/>
                    </g>
                    <path id="Path_86067" data-name="Path 86067" d="M1858.9,4095.424l12.835-7.407a.553.553,0,0,0,0-1.049l-8.777-5.067a2,2,0,0,0-1.817,0l-12.835,7.41a.553.553,0,0,0,0,1.049l8.776,5.068A2.008,2.008,0,0,0,1858.9,4095.424Z" transform="translate(-1800.188 -4056.028)" fill="#e9e9fd"/>
                    <path id="Path_86068" data-name="Path 86068" d="M1848.3,4089.737l12.835-7.409a2,2,0,0,1,1.817,0l8.776,5.067a.781.781,0,0,1,.316.31c.133-.255.031-.54-.316-.739l-8.776-5.068a2.006,2.006,0,0,0-1.817,0l-12.835,7.41c-.347.2-.448.489-.316.739A.789.789,0,0,1,1848.3,4089.737Z" transform="translate(-1800.188 -4056.028)" fill="#727997"/>
                  </g>
                </g>
                <g id="Group_34921" data-name="Group 34921" transform="translate(2.999 3.408)" opacity="0.11">
                  <g id="Grupo_55632" data-name="Grupo 55632">
                    <g id="Grupo_55631" data-name="Grupo 55631" clip-path="url(#clip-path)">
                      <g id="Group_34920" data-name="Group 34920" transform="translate(-30.159 21.274)">
                        <g id="Group_34919" data-name="Group 34919">
                          <path id="Path_86069" data-name="Path 86069" d="M1856.106,4055.183l-57.278,33.073a2.36,2.36,0,0,1-2.119.087l-34.186-19.735c-.543-.314-.475-.861.151-1.222l57.278-33.073a2.352,2.352,0,0,1,2.118-.087l34.183,19.735C1856.8,4054.274,1856.733,4054.822,1856.106,4055.183Z" transform="translate(-1762.156 -4034.015)" fill="url(#linear-gradient-11)"/>
                          <path id="Path_86070" data-name="Path 86070" d="M1799.243,4061.421l12.835-7.41a.554.554,0,0,0,0-1.049l-8.777-5.067a2.007,2.007,0,0,0-1.817,0l-12.835,7.41a.553.553,0,0,0,0,1.049l8.776,5.068A2.01,2.01,0,0,0,1799.243,4061.421Z" transform="translate(-1762.745 -4034.323)" fill="url(#linear-gradient-12)"/>
                          <path id="Path_86071" data-name="Path 86071" d="M1788.648,4055.735l12.835-7.41a2,2,0,0,1,1.817,0l8.777,5.066a.789.789,0,0,1,.316.31c.133-.253.031-.539-.316-.738l-8.777-5.068a2.008,2.008,0,0,0-1.817,0l-12.835,7.41c-.347.2-.448.489-.315.74A.8.8,0,0,1,1788.648,4055.735Z" transform="translate(-1762.745 -4034.323)" fill="#9198db"/>
                          <g id="Group_34918" data-name="Group 34918" transform="translate(20.065 11.058)">
                            <path id="Path_86072" data-name="Path 86072" d="M1782.881,4072.948l47.6-27.483a1.022,1.022,0,0,1,1.026,0l16.951,9.807a.366.366,0,0,1,.133.5.37.37,0,0,1-.133.134l-47.577,27.469a1.023,1.023,0,0,1-1.024,0l-16.974-9.794a.366.366,0,0,1-.135-.5A.377.377,0,0,1,1782.881,4072.948Z" transform="translate(-1782.684 -4045.327)" fill="#adb1f2"/>
                            <path id="Path_86073" data-name="Path 86073" d="M1782.881,4073.582l.17.1,47.431-27.385a1.019,1.019,0,0,1,1.025,0l16.781,9.708.17-.1a.365.365,0,0,0,.133-.5.375.375,0,0,0-.133-.133l-16.951-9.808a1.023,1.023,0,0,0-1.025,0l-47.6,27.482a.361.361,0,0,0-.156.489A.314.314,0,0,0,1782.881,4073.582Z" transform="translate(-1782.683 -4045.327)" fill="#9198db"/>
                            <g id="Group_34917" data-name="Group 34917" transform="translate(2.719 2.012)">
                              <path id="Path_86074" data-name="Path 86074" d="M1844.481,4054.818l-41.469,23.943,1.643.948,41.469-23.941Z" transform="translate(-1785.861 -4047.554)" fill="#24126a"/>
                              <path id="Path_86075" data-name="Path 86075" d="M1840.059,4052.238l-39.416,22.757,1.643.948,39.416-22.757Z" transform="translate(-1785.807 -4047.495)" fill="#24126a"/>
                              <path id="Path_86076" data-name="Path 86076" d="M1797.546,4077.258l-3.681,2.125,1.643.948,3.681-2.125Z" transform="translate(-1785.655 -4048.06)" fill="#24126a"/>
                              <path id="Path_86077" data-name="Path 86077" d="M1800.9,4080.5l-2.563,1.479,1.643.948,2.563-1.479Z" transform="translate(-1785.755 -4048.133)" fill="#24126a"/>
                              <path id="Path_86078" data-name="Path 86078" d="M1837.1,4050.621l-46.038,26.581,1.643.949,46.037-26.582Z" transform="translate(-1785.591 -4047.459)" fill="#24126a"/>
                              <path id="Path_86079" data-name="Path 86079" d="M1834.3,4049l-46.037,26.581,1.643.948,46.038-26.581Z" transform="translate(-1785.528 -4047.423)" fill="#24126a"/>
                              <path id="Path_86080" data-name="Path 86080" d="M1831.5,4047.386l-46.037,26.582,1.643.948,46.038-26.582Z" transform="translate(-1785.465 -4047.386)" fill="#24126a"/>
                            </g>
                          </g>
                        </g>
                      </g>
                    </g>
                  </g>
                </g>
              </g>
            </g>
          </g>
          <g id="Group_34928" data-name="Group 34928" transform="translate(19.125 18.903)">
            <path id="Path_86081" data-name="Path 86081" d="M1814.5,4070.954l4.513-2.608.132.782-4.513,2.609Z" transform="translate(-1809.622 -4029.009)" fill="#42e8e0"/>
            <path id="Path_86082" data-name="Path 86082" d="M1819.86,4067.886l2.459-1.421.132.782-2.459,1.422Z" transform="translate(-1809.743 -4028.966)" fill="#42e8e0"/>
            <path id="Path_86083" data-name="Path 86083" d="M1826.292,4064.179l1.779-1.029.132.782-1.779,1.028Z" transform="translate(-1809.887 -4028.892)" fill="#42e8e0"/>
            <path id="Path_86084" data-name="Path 86084" d="M1824.964,4064.965l.608-.352.132.782-.608.351Z" transform="translate(-1809.858 -4028.924)" fill="#42e8e0"/>
            <path id="Path_86085" data-name="Path 86085" d="M1823.129,4066.018l1.1-.638.132.781-1.1.638Z" transform="translate(-1809.817 -4028.942)" fill="#42e8e0"/>
            <path id="Path_86086" data-name="Path 86086" d="M1818.154,4064.858l1.779-1.028.132.782-1.779,1.028Z" transform="translate(-1809.704 -4028.907)" fill="#42e8e0"/>
            <path id="Path_86087" data-name="Path 86087" d="M1813.883,4067.3l3.486-2.015.132.782-3.487,2.014Z" transform="translate(-1809.608 -4028.94)" fill="#42e8e0"/>
            <g id="Group_34925" data-name="Group 34925" transform="translate(7.479 23.649)">
              <path id="Path_86088" data-name="Path 86088" d="M1819,4054.311l3.486-2.015.132.782-3.486,2.015Z" transform="translate(-1817.203 -4052.296)" fill="#42e8e0"/>
              <path id="Path_86089" data-name="Path 86089" d="M1817.161,4055.4l1.1-.639.132.782-1.1.639Z" transform="translate(-1817.161 -4052.351)" fill="#42e8e0"/>
            </g>
            <path id="Path_86090" data-name="Path 86090" d="M1819.591,4057.977l3.487-2.015.132.782-3.485,2.014Z" transform="translate(-1809.736 -4028.729)" fill="#42e8e0"/>
            <path id="Path_86091" data-name="Path 86091" d="M1817.753,4059.07l1.1-.638.132.782-1.1.639Z" transform="translate(-1809.695 -4028.785)" fill="#42e8e0"/>
            <path id="Path_86092" data-name="Path 86092" d="M1816.208,4038.509l-6.568,3.8-.132-.781,6.568-3.8Z" transform="translate(-1809.509 -4028.318)" fill="#42e8e0"/>
            <path id="Path_86093" data-name="Path 86093" d="M1818.69,4037.141l-1.625.94-.132-.782,1.624-.94Z" transform="translate(-1809.677 -4028.288)" fill="#42e8e0"/>
            <path id="Path_86094" data-name="Path 86094" d="M1830.383,4036.362l-6.567,3.8-.132-.782,6.567-3.8Z" transform="translate(-1809.829 -4028.27)" fill="#42e8e0"/>
            <path id="Path_86095" data-name="Path 86095" d="M1832.865,4034.993l-1.624.939-.132-.782,1.625-.939Z" transform="translate(-1809.996 -4028.239)" fill="#42e8e0"/>
            <path id="Path_86096" data-name="Path 86096" d="M1811.73,4043.169l-1.779,1.029-.132-.782,1.779-1.029Z" transform="translate(-1809.516 -4028.424)" fill="#42e8e0"/>
            <path id="Path_86097" data-name="Path 86097" d="M1822.8,4040.8l-1.779,1.028-.132-.782,1.779-1.028Z" transform="translate(-1809.766 -4028.37)" fill="#42e8e0"/>
            <path id="Path_86098" data-name="Path 86098" d="M1815.963,4040.7l-3.489,2.015-.132-.782,3.485-2.014Z" transform="translate(-1809.573 -4028.368)" fill="#42e8e0"/>
            <path id="Path_86099" data-name="Path 86099" d="M1817.857,4039.641l-1.1.638-.132-.782,1.1-.638Z" transform="translate(-1809.67 -4028.343)" fill="#42e8e0"/>
            <path id="Path_86100" data-name="Path 86100" d="M1822.1,4037.158l-3.486,2.015-.132-.782,3.485-2.014Z" transform="translate(-1809.712 -4028.288)" fill="#42e8e0"/>
            <path id="Path_86101" data-name="Path 86101" d="M1823.993,4036.1l-1.1.638-.132-.782,1.1-.638Z" transform="translate(-1809.808 -4028.264)" fill="#42e8e0"/>
            <path id="Path_86102" data-name="Path 86102" d="M1822.49,4038.964l-1.779,1.028-.132-.782,1.779-1.028Z" transform="translate(-1809.759 -4028.329)" fill="#42e8e0"/>
            <path id="Path_86103" data-name="Path 86103" d="M1826.729,4036.494l-3.486,2.015-.132-.782,3.485-2.015Z" transform="translate(-1809.816 -4028.272)" fill="#42e8e0"/>
            <path id="Path_86104" data-name="Path 86104" d="M1828.617,4035.434l-1.1.638-.132-.782,1.1-.638Z" transform="translate(-1809.912 -4028.249)" fill="#42e8e0"/>
            <path id="Path_86105" data-name="Path 86105" d="M1813.9,4043.9l-3.64,2.1-.132-.782,3.64-2.1Z" transform="translate(-1809.523 -4028.44)" fill="#42e8e0"/>
            <path id="Path_86106" data-name="Path 86106" d="M1817.322,4041.938l-2.632,1.522-.132-.782,2.632-1.522Z" transform="translate(-1809.623 -4028.396)" fill="#42e8e0"/>
            <path id="Path_86107" data-name="Path 86107" d="M1819.868,4040.479l-1.779,1.029-.132-.782,1.779-1.029Z" transform="translate(-1809.7 -4028.363)" fill="#42e8e0"/>
            <path id="Path_86108" data-name="Path 86108" d="M1837.479,4032.307l-3.641,2.1-.132-.782,3.64-2.1Z" transform="translate(-1810.055 -4028.178)" fill="#42e8e0"/>
            <path id="Path_86109" data-name="Path 86109" d="M1840.9,4030.344l-2.632,1.521-.132-.782,2.632-1.522Z" transform="translate(-1810.155 -4028.134)" fill="#42e8e0"/>
            <path id="Path_86110" data-name="Path 86110" d="M1843.446,4028.883l-1.779,1.028-.132-.781,1.779-1.029Z" transform="translate(-1810.231 -4028.101)" fill="#42e8e0"/>
            <path id="Path_86111" data-name="Path 86111" d="M1836.111,4056.479l3.641-2.1.132.782-3.64,2.1Z" transform="translate(-1810.109 -4028.695)" fill="#42e8e0"/>
            <path id="Path_86112" data-name="Path 86112" d="M1832.712,4058.456l2.632-1.521.132.781-2.632,1.522Z" transform="translate(-1810.032 -4028.752)" fill="#42e8e0"/>
            <path id="Path_86113" data-name="Path 86113" d="M1830.187,4059.926l1.779-1.028.132.782-1.779,1.028Z" transform="translate(-1809.975 -4028.796)" fill="#42e8e0"/>
            <path id="Path_86114" data-name="Path 86114" d="M1834.875,4059.209l3.64-2.1.132.782-3.64,2.1Z" transform="translate(-1810.081 -4028.755)" fill="#42e8e0"/>
            <path id="Path_86115" data-name="Path 86115" d="M1831.476,4061.187l2.632-1.522.132.782-2.632,1.522Z" transform="translate(-1810.005 -4028.813)" fill="#42e8e0"/>
            <path id="Path_86116" data-name="Path 86116" d="M1828.951,4062.658l1.779-1.028.132.782-1.779,1.029Z" transform="translate(-1809.948 -4028.857)" fill="#42e8e0"/>
            <path id="Path_86117" data-name="Path 86117" d="M1819.837,4055.855l1.23-.711.132.782-1.229.71Z" transform="translate(-1809.742 -4028.711)" fill="#42e8e0"/>
            <path id="Path_86118" data-name="Path 86118" d="M1817.468,4057.218l1.625-.939.132.782-1.625.939Z" transform="translate(-1809.688 -4028.737)" fill="#42e8e0"/>
            <path id="Path_86119" data-name="Path 86119" d="M1814.234,4045.723l-3.64,2.1-.132-.781,3.64-2.1Z" transform="translate(-1809.531 -4028.481)" fill="#42e8e0"/>
            <path id="Path_86120" data-name="Path 86120" d="M1817.655,4043.76l-2.632,1.521-.132-.782,2.632-1.522Z" transform="translate(-1809.63 -4028.437)" fill="#42e8e0"/>
            <path id="Path_86121" data-name="Path 86121" d="M1820.2,4042.3l-1.779,1.028-.132-.782,1.779-1.029Z" transform="translate(-1809.707 -4028.404)" fill="#42e8e0"/>
            <path id="Path_86122" data-name="Path 86122" d="M1812.133,4048.98l-1.23.71-.132-.782,1.23-.711Z" transform="translate(-1809.538 -4028.554)" fill="#42e8e0"/>
            <path id="Path_86123" data-name="Path 86123" d="M1814.491,4047.612l-1.624.939-.132-.782,1.625-.939Z" transform="translate(-1809.582 -4028.524)" fill="#42e8e0"/>
            <path id="Path_86124" data-name="Path 86124" d="M1817.852,4045.656l-2.618,1.513-.132-.782,2.619-1.513Z" transform="translate(-1809.635 -4028.48)" fill="#42e8e0"/>
            <path id="Path_86125" data-name="Path 86125" d="M1821.548,4060.9l1.23-.711.132.782-1.23.711Z" transform="translate(-1809.781 -4028.825)" fill="#42e8e0"/>
            <path id="Path_86126" data-name="Path 86126" d="M1819.18,4062.268l1.624-.939.132.782-1.625.94Z" transform="translate(-1809.727 -4028.85)" fill="#42e8e0"/>
            <path id="Path_86127" data-name="Path 86127" d="M1815.8,4064.211l2.618-1.513.132.782-2.618,1.513Z" transform="translate(-1809.651 -4028.881)" fill="#42e8e0"/>
            <path id="Path_86128" data-name="Path 86128" d="M1823.463,4057.913l2.619-1.513.132.782-2.618,1.513Z" transform="translate(-1809.824 -4028.74)" fill="#42e8e0"/>
            <path id="Path_86129" data-name="Path 86129" d="M1819.083,4060.289l3.529-2.039.132.782-3.529,2.04Z" transform="translate(-1809.725 -4028.781)" fill="#42e8e0"/>
            <path id="Path_86130" data-name="Path 86130" d="M1817.248,4061.383l1.1-.639.132.782-1.1.638Z" transform="translate(-1809.684 -4028.838)" fill="#42e8e0"/>
            <path id="Path_86131" data-name="Path 86131" d="M1815.486,4062.4l1.1-.638.132.782-1.1.638Z" transform="translate(-1809.644 -4028.861)" fill="#42e8e0"/>
            <g id="Group_34927" data-name="Group 34927" transform="translate(1.538 18.722)">
              <path id="Path_86132" data-name="Path 86132" d="M1815.729,4052.019l3.487-2.014.132.782-3.486,2.014Z" transform="translate(-1811.187 -4047.317)" fill="#42e8e0"/>
              <path id="Path_86133" data-name="Path 86133" d="M1813.894,4053.111l1.1-.638.132.782-1.1.638Z" transform="translate(-1811.145 -4047.373)" fill="#42e8e0"/>
              <path id="Path_86134" data-name="Path 86134" d="M1815.974,4049.9l1.229-.711.132.782-1.229.711Z" transform="translate(-1811.193 -4047.298)" fill="#42e8e0"/>
              <path id="Path_86135" data-name="Path 86135" d="M1820.413,4051.363l1.23-.711.132.782-1.23.71Z" transform="translate(-1811.292 -4047.332)" fill="#42e8e0"/>
              <path id="Path_86136" data-name="Path 86136" d="M1822.209,4050.3l2.951-1.7.132.782-2.951,1.7Z" transform="translate(-1811.333 -4047.285)" fill="#42e8e0"/>
              <path id="Path_86137" data-name="Path 86137" d="M1825.763,4048.268l1.759-1.014.132.782-1.759,1.014Z" transform="translate(-1811.413 -4047.254)" fill="#42e8e0"/>
              <path id="Path_86138" data-name="Path 86138" d="M1813.607,4051.259l1.624-.939.132.782-1.626.939Z" transform="translate(-1811.139 -4047.324)" fill="#42e8e0"/>
              <g id="Group_34926" data-name="Group 34926" transform="translate(0 1.384)">
                <path id="Path_86139" data-name="Path 86139" d="M1813.45,4049.382l1.23-.711.132.782-1.23.711Z" transform="translate(-1811.135 -4048.671)" fill="#42e8e0"/>
                <path id="Path_86140" data-name="Path 86140" d="M1811.082,4050.745l1.625-.939.132.781-1.624.939Z" transform="translate(-1811.082 -4048.697)" fill="#42e8e0"/>
              </g>
              <path id="Path_86141" data-name="Path 86141" d="M1818.591,4052.418l1.1-.638.132.782-1.1.638Z" transform="translate(-1811.251 -4047.357)" fill="#42e8e0"/>
              <path id="Path_86142" data-name="Path 86142" d="M1816.829,4053.436l1.1-.638.132.782-1.1.638Z" transform="translate(-1811.212 -4047.38)" fill="#42e8e0"/>
            </g>
            <path id="Path_86143" data-name="Path 86143" d="M1825.506,4062.605l3.766-2.177.132.782-3.766,2.177Z" transform="translate(-1809.87 -4028.831)" fill="#42e8e0"/>
            <path id="Path_86144" data-name="Path 86144" d="M1821.19,4065.1l3.529-2.04.132.782-3.529,2.04Z" transform="translate(-1809.773 -4028.89)" fill="#42e8e0"/>
            <path id="Path_86145" data-name="Path 86145" d="M1819.354,4066.2l1.1-.639.132.782-1.1.638Z" transform="translate(-1809.731 -4028.946)" fill="#42e8e0"/>
            <path id="Path_86146" data-name="Path 86146" d="M1817.594,4067.214l1.1-.638.132.781-1.1.639Z" transform="translate(-1809.691 -4028.969)" fill="#42e8e0"/>
            <path id="Path_86147" data-name="Path 86147" d="M1816.576,4067.784l-2.382,1.377.132.781,2.382-1.377Z" transform="translate(-1809.615 -4028.997)" fill="#42e8e0"/>
          </g>
        </g>
        <g id="Group_34948" data-name="Group 34948">
          <g id="Group_34930" data-name="Group 34930" transform="translate(3.079 55.716)" opacity="0.8">
            <path id="Path_86148" data-name="Path 86148" d="M1717.954,4118.182a5.332,5.332,0,0,1-2.663-.712h0l-51.976-30.007a1.613,1.613,0,0,1,0-2.791l32.75-18.908.2.117,54.438,31.428a1.612,1.612,0,0,1,0,2.791l-30.092,17.371A5.33,5.33,0,0,1,1717.954,4118.182Zm-2.261-1.408a4.612,4.612,0,0,0,4.522,0l30.086-17.37a.81.81,0,0,0,0-1.4l-54.236-31.312-.052.03-32.3,18.646a.808.808,0,0,0,0,1.4Z" transform="translate(-1662.511 -4065.764)" fill="#393939"/>
          </g>
          <g id="Group_34943" data-name="Group 34943">
            <g id="Group_34942" data-name="Group 34942">
              <g id="Group_34941" data-name="Group 34941">
                <g id="Group_34935" data-name="Group 34935">
                  <g id="Group_34932" data-name="Group 34932" transform="translate(35.654)">
                    <path id="Path_86149" data-name="Path 86149" d="M1696.77,4052.542l7.241-42.96-.586-.246.875-.5v0a.633.633,0,0,1,.674.047l57.873,33.41a1.635,1.635,0,0,1,.752,1.466l-7.3,43.3a.542.542,0,0,1-.305.441h0l-.856.494-.148-.8.05.015L1697.519,4054A1.633,1.633,0,0,1,1696.77,4052.542Z" transform="translate(-1695.859 -4008.763)" fill="url(#linear-gradient-13)"/>
                    <path id="Path_86150" data-name="Path 86150" d="M1763.8,4044.264l.951-.421a1.316,1.316,0,0,1,.122.717l-7.3,43.3a.542.542,0,0,1-.3.441h0l-.856.495-.148-.8.049.015-2.911-1.68Z" transform="translate(-1697.137 -4009.553)" fill="#dee4f0"/>
                    <path id="Path_86151" data-name="Path 86151" d="M1696.6,4054.544l57.865,33.411c.448.259.829.109.908-.354l7.3-43.3a1.634,1.634,0,0,0-.751-1.466l-57.868-33.417c-.447-.258-.829-.108-.908.354l-7.3,43.3A1.634,1.634,0,0,0,1696.6,4054.544Z" transform="translate(-1695.838 -4008.774)" fill="#393939"/>
                    <g id="Group_34931" data-name="Group 34931" transform="translate(2.089 3.408)" opacity="0.51">
                      <path id="Path_86152" data-name="Path 86152" d="M1704.855,4012.25l55.782,32.207-6.917,40.781-55.745-32.185Z" transform="translate(-1697.975 -4012.25)" fill="#393939"/>
                    </g>
                  </g>
                  <g id="Group_34934" data-name="Group 34934" transform="translate(0 45.621)">
                    <path id="Path_86153" data-name="Path 86153" d="M1659.394,4076.174l3.158,1.649,31.669-18.284a2.3,2.3,0,0,1,2.067.085l54.62,31.534c.523-.293,2.906-1.439,2.906-1.439l-1.159,3.014h0a.687.687,0,0,1-.324.358l-33.353,19.256a2.3,2.3,0,0,1-2.067-.086l-55.892-32.269a1,1,0,0,1-.469-.5h0Z" transform="translate(-1659.363 -4055.524)" fill="#393939"/>
                    <path id="Path_86154" data-name="Path 86154" d="M1659.88,4076.605l57.278,33.072a2.355,2.355,0,0,0,2.118.088l34.183-19.735c.542-.313.475-.861-.152-1.223l-57.278-33.072a2.344,2.344,0,0,0-2.118-.088l-34.183,19.735C1659.185,4075.7,1659.254,4076.243,1659.88,4076.605Z" transform="translate(-1659.362 -4055.436)" fill="url(#linear-gradient-14)"/>
                    <path id="Path_86155" data-name="Path 86155" d="M1659.88,4076.743l57.278,33.073a2.353,2.353,0,0,0,2.118.088l34.183-19.736a.706.706,0,0,0,.332-.369.578.578,0,0,1-.332.7l-34.183,19.736a2.359,2.359,0,0,1-2.118-.087l-57.278-33.073c-.422-.245-.587-.57-.489-.854A1,1,0,0,0,1659.88,4076.743Z" transform="translate(-1659.362 -4055.905)" fill="#fff"/>
                    <path id="Path_86156" data-name="Path 86156" d="M1736.119,4103.594v-.625c0-.059-.036-.087-.08-.061l-2.216,1.278a.2.2,0,0,0-.081.155v.628c0,.06.036.087.081.062l2.216-1.28A.2.2,0,0,0,1736.119,4103.594Z" transform="translate(-1661.039 -4056.507)" fill="#21587b"/>
                    <path id="Path_86157" data-name="Path 86157" d="M1732.73,4105.551v-.628c0-.06-.036-.088-.08-.062l-2.216,1.279a.193.193,0,0,0-.081.155v.628c0,.06.036.087.081.062l2.216-1.28A.2.2,0,0,0,1732.73,4105.551Z" transform="translate(-1660.963 -4056.551)" fill="#21587b"/>
                    <path id="Path_86158" data-name="Path 86158" d="M1745,4088.3l-47.6-27.483a1.024,1.024,0,0,0-1.025,0l-16.952,9.811a.365.365,0,0,0,0,.633L1727,4098.726a1.028,1.028,0,0,0,1.024,0l16.973-9.795a.365.365,0,0,0,.133-.5A.374.374,0,0,0,1745,4088.3Z" transform="translate(-1659.81 -4055.554)" fill="#d2e1f1"/>
                    <path id="Path_86159" data-name="Path 86159" d="M1745,4088.933l-.17.1-47.431-27.384a1.028,1.028,0,0,0-1.026,0l-16.781,9.709-.17-.1a.365.365,0,0,1-.135-.5.371.371,0,0,1,.135-.135l16.951-9.807a1.025,1.025,0,0,1,1.026,0L1745,4088.3a.366.366,0,0,1,.133.5A.376.376,0,0,1,1745,4088.933Z" transform="translate(-1659.81 -4055.555)" fill="#727997"/>
                    <g id="Group_34933" data-name="Group 34933" transform="translate(21.971 8.99)">
                      <path id="Path_86160" data-name="Path 86160" d="M1699.534,4065.689l40.293,23.263,1.741-1.118-40.187-23.2Z" transform="translate(-1682.239 -4064.633)" fill="#393939"/>
                      <path id="Path_86161" data-name="Path 86161" d="M1696.858,4069.469l36.582,21.121,1.253-1.4-36-20.783Z" transform="translate(-1682.179 -4064.719)" fill="#393939"/>
                      <path id="Path_86162" data-name="Path 86162" d="M1687.846,4067.737l45.663,26.364,1.839-1.062-45.663-26.367Z" transform="translate(-1681.975 -4064.679)" fill="#393939"/>
                      <path id="Path_86163" data-name="Path 86163" d="M1684.839,4069.468l45.663,26.363,1.839-1.061-45.663-26.363Z" transform="translate(-1681.908 -4064.719)" fill="#393939"/>
                      <path id="Path_86164" data-name="Path 86164" d="M1681.84,4071.2l45.663,26.364,1.839-1.062-45.664-26.359Z" transform="translate(-1681.84 -4064.757)" fill="#393939"/>
                      <path id="Path_86165" data-name="Path 86165" d="M1740.32,4089.237l1.839,1.062,1.838-1.062-1.838-1.062Z" transform="translate(-1683.159 -4065.164)" fill="#393939"/>
                      <path id="Path_86166" data-name="Path 86166" d="M1733.686,4090.73l3.812,2.2,1.838-1.061-3.812-2.2Z" transform="translate(-1683.01 -4065.198)" fill="#393939"/>
                    </g>
                    <path id="Path_86167" data-name="Path 86167" d="M1695.639,4095.424l-12.836-7.406a.554.554,0,0,1,0-1.049l8.777-5.067a2.01,2.01,0,0,1,1.816,0l12.835,7.41a.553.553,0,0,1,0,1.049l-8.776,5.067A2,2,0,0,1,1695.639,4095.424Z" transform="translate(-1659.882 -4056.029)" fill="url(#linear-gradient-15)"/>
                    <path id="Path_86168" data-name="Path 86168" d="M1706.233,4089.737l-12.835-7.41a2.007,2.007,0,0,0-1.816,0l-8.776,5.066a.788.788,0,0,0-.316.31c-.133-.254-.032-.539.316-.739l8.776-5.067a2.009,2.009,0,0,1,1.816,0l12.835,7.41c.347.2.449.489.316.739A.789.789,0,0,0,1706.233,4089.737Z" transform="translate(-1659.882 -4056.028)" fill="#727997"/>
                  </g>
                </g>
                <g id="Group_34940" data-name="Group 34940" transform="translate(37.743 3.408)" opacity="0.11">
                  <g id="Grupo_55634" data-name="Grupo 55634">
                    <g id="Grupo_55633" data-name="Grupo 55633" clip-path="url(#clip-path-2)">
                      <g id="Group_34939" data-name="Group 34939" transform="translate(-1.65 21.274)">
                        <g id="Group_34938" data-name="Group 34938">
                          <path id="Path_86169" data-name="Path 86169" d="M1696.806,4055.183l57.278,33.073a2.357,2.357,0,0,0,2.118.087l34.183-19.735c.543-.314.475-.861-.151-1.222l-57.278-33.073a2.354,2.354,0,0,0-2.119-.087l-34.182,19.735C1696.111,4054.274,1696.18,4054.822,1696.806,4055.183Z" transform="translate(-1696.288 -4034.015)" fill="url(#linear-gradient-16)"/>
                          <path id="Path_86170" data-name="Path 86170" d="M1755.293,4061.421l-12.835-7.41a.554.554,0,0,1,0-1.049l8.777-5.067a2.01,2.01,0,0,1,1.816,0l12.835,7.41a.553.553,0,0,1,0,1.049l-8.776,5.068A2.009,2.009,0,0,1,1755.293,4061.421Z" transform="translate(-1697.321 -4034.323)" fill="url(#linear-gradient-17)"/>
                          <path id="Path_86171" data-name="Path 86171" d="M1765.886,4055.735l-12.835-7.41a2.009,2.009,0,0,0-1.816,0l-8.777,5.067a.791.791,0,0,0-.316.31c-.133-.253-.031-.539.316-.739l8.777-5.068a2.012,2.012,0,0,1,1.816,0l12.835,7.41c.347.2.448.489.316.739A.787.787,0,0,0,1765.886,4055.735Z" transform="translate(-1697.321 -4034.323)" fill="#9198db"/>
                          <g id="Group_34937" data-name="Group 34937" transform="translate(8.447 11.058)">
                            <path id="Path_86172" data-name="Path 86172" d="M1770.691,4072.948l-47.6-27.483a1.024,1.024,0,0,0-1.026,0l-16.951,9.807a.365.365,0,0,0-.133.5.37.37,0,0,0,.133.134l47.58,27.466a1.029,1.029,0,0,0,1.025,0l16.973-9.8a.365.365,0,0,0,.128-.5A.373.373,0,0,0,1770.691,4072.948Z" transform="translate(-1704.929 -4045.327)" fill="#adb1f2"/>
                            <path id="Path_86173" data-name="Path 86173" d="M1770.691,4073.582l-.171.1-47.43-27.385a1.021,1.021,0,0,0-1.026,0l-16.78,9.708-.171-.1a.364.364,0,0,1-.133-.5.375.375,0,0,1,.133-.133l16.951-9.808a1.025,1.025,0,0,1,1.026,0l47.6,27.482a.363.363,0,0,1,.143.495A.329.329,0,0,1,1770.691,4073.582Z" transform="translate(-1704.929 -4045.327)" fill="#9198db"/>
                            <g id="Group_34936" data-name="Group 34936" transform="translate(2.976 2.012)">
                              <path id="Path_86174" data-name="Path 86174" d="M1709.613,4054.818l41.469,23.943-1.643.948-41.465-23.941Z" transform="translate(-1707.974 -4047.554)" fill="#24126a"/>
                              <path id="Path_86175" data-name="Path 86175" d="M1714.087,4052.238l39.416,22.757-1.643.948-39.416-22.757Z" transform="translate(-1708.075 -4047.495)" fill="#24126a"/>
                              <path id="Path_86176" data-name="Path 86176" d="M1757.423,4077.258l3.681,2.125-1.643.948-3.681-2.125Z" transform="translate(-1709.052 -4048.06)" fill="#24126a"/>
                              <path id="Path_86177" data-name="Path 86177" d="M1754.1,4080.5l2.564,1.479-1.643.948-2.564-1.479Z" transform="translate(-1708.978 -4048.133)" fill="#24126a"/>
                              <path id="Path_86178" data-name="Path 86178" d="M1716.888,4050.621l46.037,26.581-1.643.949-46.038-26.582Z" transform="translate(-1708.138 -4047.459)" fill="#24126a"/>
                              <path id="Path_86179" data-name="Path 86179" d="M1719.688,4049l46.037,26.581-1.643.948-46.037-26.581Z" transform="translate(-1708.201 -4047.423)" fill="#24126a"/>
                              <path id="Path_86180" data-name="Path 86180" d="M1722.49,4047.386l46.038,26.582-1.643.948-46.038-26.582Z" transform="translate(-1708.265 -4047.386)" fill="#24126a"/>
                            </g>
                          </g>
                        </g>
                      </g>
                    </g>
                  </g>
                </g>
              </g>
            </g>
          </g>
          <g id="Group_34947" data-name="Group 34947" transform="translate(52.23 17.742)">
            <path id="Path_86181" data-name="Path 86181" d="M1717.789,4027.7l4.513,2.609.132-.782-4.513-2.609Z" transform="translate(-1712.91 -4026.914)" fill="#42e8e0"/>
            <path id="Path_86182" data-name="Path 86182" d="M1723.149,4030.791l2.459,1.421.132-.782-2.459-1.421Z" transform="translate(-1713.031 -4026.984)" fill="#42e8e0"/>
            <path id="Path_86183" data-name="Path 86183" d="M1729.575,4034.5l1.779,1.028.132-.782-1.779-1.029Z" transform="translate(-1713.176 -4027.067)" fill="#42e8e0"/>
            <path id="Path_86184" data-name="Path 86184" d="M1728.252,4033.737l.608.351.132-.782-.608-.351Z" transform="translate(-1713.146 -4027.05)" fill="#42e8e0"/>
            <path id="Path_86185" data-name="Path 86185" d="M1726.417,4032.677l1.1.638.132-.782-1.1-.638Z" transform="translate(-1713.104 -4027.027)" fill="#42e8e0"/>
            <path id="Path_86186" data-name="Path 86186" d="M1721.443,4033.826l1.779,1.028.132-.782-1.779-1.028Z" transform="translate(-1712.992 -4027.052)" fill="#42e8e0"/>
            <path id="Path_86187" data-name="Path 86187" d="M1717.171,4031.359l3.487,2.015.132-.783-3.486-2.014Z" transform="translate(-1712.896 -4026.997)" fill="#42e8e0"/>
            <g id="Group_34944" data-name="Group 34944" transform="translate(7.479 15.245)">
              <path id="Path_86188" data-name="Path 86188" d="M1722.284,4044.353l3.485,2.014.132-.782-3.486-2.014Z" transform="translate(-1720.49 -4042.535)" fill="#42e8e0"/>
              <path id="Path_86189" data-name="Path 86189" d="M1720.449,4043.293l1.1.638.132-.782-1.1-.638Z" transform="translate(-1720.449 -4042.512)" fill="#42e8e0"/>
            </g>
            <path id="Path_86190" data-name="Path 86190" d="M1722.879,4040.686l3.485,2.014.132-.782-3.486-2.015Z" transform="translate(-1713.024 -4027.207)" fill="#42e8e0"/>
            <path id="Path_86191" data-name="Path 86191" d="M1721.044,4039.623l1.1.638.132-.782-1.1-.638Z" transform="translate(-1712.983 -4027.183)" fill="#42e8e0"/>
            <path id="Path_86192" data-name="Path 86192" d="M1719.5,4060.112l-6.567-3.795-.132.781,6.568,3.8Z" transform="translate(-1712.797 -4027.577)" fill="#42e8e0"/>
            <path id="Path_86193" data-name="Path 86193" d="M1721.979,4061.548l-1.625-.94-.132.782,1.625.939Z" transform="translate(-1712.965 -4027.674)" fill="#42e8e0"/>
            <path id="Path_86194" data-name="Path 86194" d="M1733.671,4062.26l-6.567-3.8-.132.782,6.567,3.8Z" transform="translate(-1713.117 -4027.625)" fill="#42e8e0"/>
            <path id="Path_86195" data-name="Path 86195" d="M1736.153,4063.695l-1.624-.94-.132.783,1.625.939Z" transform="translate(-1713.284 -4027.723)" fill="#42e8e0"/>
            <path id="Path_86196" data-name="Path 86196" d="M1715.013,4055.514l-1.779-1.028-.132.782,1.779,1.028Z" transform="translate(-1712.804 -4027.536)" fill="#42e8e0"/>
            <path id="Path_86197" data-name="Path 86197" d="M1726.093,4057.889l-1.779-1.028-.132.782,1.779,1.028Z" transform="translate(-1713.054 -4027.589)" fill="#42e8e0"/>
            <path id="Path_86198" data-name="Path 86198" d="M1719.25,4057.96l-3.486-2.015-.132.783,3.487,2.014Z" transform="translate(-1712.861 -4027.569)" fill="#42e8e0"/>
            <path id="Path_86199" data-name="Path 86199" d="M1721.141,4059.054l-1.1-.638-.132.782,1.1.638Z" transform="translate(-1712.957 -4027.625)" fill="#42e8e0"/>
            <path id="Path_86200" data-name="Path 86200" d="M1725.39,4061.5l-3.486-2.015-.132.782,3.486,2.015Z" transform="translate(-1713 -4027.649)" fill="#42e8e0"/>
            <path id="Path_86201" data-name="Path 86201" d="M1727.281,4062.6l-1.1-.638-.132.782,1.1.638Z" transform="translate(-1713.096 -4027.705)" fill="#42e8e0"/>
            <path id="Path_86202" data-name="Path 86202" d="M1725.784,4059.722l-1.779-1.028-.132.782,1.779,1.028Z" transform="translate(-1713.047 -4027.631)" fill="#42e8e0"/>
            <path id="Path_86203" data-name="Path 86203" d="M1730.015,4062.168l-3.485-2.014-.132.782,3.487,2.014Z" transform="translate(-1713.104 -4027.664)" fill="#42e8e0"/>
            <path id="Path_86204" data-name="Path 86204" d="M1731.906,4063.26l-1.1-.638-.132.782,1.1.638Z" transform="translate(-1713.2 -4027.719)" fill="#42e8e0"/>
            <path id="Path_86205" data-name="Path 86205" d="M1717.189,4054.758l-3.64-2.1-.132.782,3.64,2.1Z" transform="translate(-1712.811 -4027.495)" fill="#42e8e0"/>
            <path id="Path_86206" data-name="Path 86206" d="M1720.61,4056.736l-2.632-1.521-.132.781,2.632,1.522Z" transform="translate(-1712.911 -4027.552)" fill="#42e8e0"/>
            <path id="Path_86207" data-name="Path 86207" d="M1723.156,4058.207l-1.779-1.028-.132.781,1.779,1.028Z" transform="translate(-1712.988 -4027.597)" fill="#42e8e0"/>
            <path id="Path_86208" data-name="Path 86208" d="M1740.767,4066.354l-3.64-2.1-.132.782,3.64,2.1Z" transform="translate(-1713.343 -4027.757)" fill="#42e8e0"/>
            <path id="Path_86209" data-name="Path 86209" d="M1744.187,4068.331l-2.632-1.522-.132.782,2.632,1.522Z" transform="translate(-1713.443 -4027.813)" fill="#42e8e0"/>
            <path id="Path_86210" data-name="Path 86210" d="M1746.734,4069.8l-1.779-1.028-.132.782,1.779,1.028Z" transform="translate(-1713.52 -4027.859)" fill="#42e8e0"/>
            <path id="Path_86211" data-name="Path 86211" d="M1739.4,4042.185l3.64,2.1.132-.782-3.64-2.1Z" transform="translate(-1713.397 -4027.241)" fill="#42e8e0"/>
            <path id="Path_86212" data-name="Path 86212" d="M1736,4040.219l2.632,1.522.132-.782-2.632-1.522Z" transform="translate(-1713.32 -4027.196)" fill="#42e8e0"/>
            <path id="Path_86213" data-name="Path 86213" d="M1733.474,4038.76l1.779,1.028.132-.782-1.779-1.028Z" transform="translate(-1713.263 -4027.164)" fill="#42e8e0"/>
            <path id="Path_86214" data-name="Path 86214" d="M1738.163,4039.452l3.64,2.1.132-.782-3.64-2.1Z" transform="translate(-1713.369 -4027.179)" fill="#42e8e0"/>
            <path id="Path_86215" data-name="Path 86215" d="M1734.764,4037.488l2.632,1.522.132-.782-2.632-1.522Z" transform="translate(-1713.293 -4027.135)" fill="#42e8e0"/>
            <path id="Path_86216" data-name="Path 86216" d="M1732.235,4036.028l1.779,1.028.132-.782-1.779-1.028Z" transform="translate(-1713.235 -4027.102)" fill="#42e8e0"/>
            <path id="Path_86217" data-name="Path 86217" d="M1723.124,4042.839l1.229.71.132-.782-1.229-.711Z" transform="translate(-1713.03 -4027.256)" fill="#42e8e0"/>
            <path id="Path_86218" data-name="Path 86218" d="M1720.756,4041.47l1.625.94.132-.782-1.625-.939Z" transform="translate(-1712.977 -4027.225)" fill="#42e8e0"/>
            <path id="Path_86219" data-name="Path 86219" d="M1717.521,4052.937l-3.64-2.1-.132.782,3.64,2.1Z" transform="translate(-1712.818 -4027.454)" fill="#42e8e0"/>
            <path id="Path_86220" data-name="Path 86220" d="M1720.943,4054.919l-2.632-1.522-.132.782,2.632,1.521Z" transform="translate(-1712.918 -4027.511)" fill="#42e8e0"/>
            <path id="Path_86221" data-name="Path 86221" d="M1723.489,4056.386l-1.779-1.028-.132.782,1.779,1.028Z" transform="translate(-1712.995 -4027.556)" fill="#42e8e0"/>
            <path id="Path_86222" data-name="Path 86222" d="M1715.42,4049.713l-1.23-.711-.132.782,1.229.71Z" transform="translate(-1712.826 -4027.413)" fill="#42e8e0"/>
            <path id="Path_86223" data-name="Path 86223" d="M1717.779,4051.076l-1.625-.94-.132.783,1.625.939Z" transform="translate(-1712.87 -4027.438)" fill="#42e8e0"/>
            <path id="Path_86224" data-name="Path 86224" d="M1721.14,4053.019l-2.619-1.513-.132.781,2.619,1.513Z" transform="translate(-1712.923 -4027.469)" fill="#42e8e0"/>
            <path id="Path_86225" data-name="Path 86225" d="M1724.836,4037.787l1.23.711.132-.782-1.229-.711Z" transform="translate(-1713.068 -4027.141)" fill="#42e8e0"/>
            <path id="Path_86226" data-name="Path 86226" d="M1722.468,4036.417l1.624.939.132-.782-1.625-.939Z" transform="translate(-1713.015 -4027.111)" fill="#42e8e0"/>
            <path id="Path_86227" data-name="Path 86227" d="M1719.084,4034.465l2.619,1.513.132-.782-2.618-1.513Z" transform="translate(-1712.939 -4027.067)" fill="#42e8e0"/>
            <path id="Path_86228" data-name="Path 86228" d="M1726.751,4040.762l2.618,1.513.132-.782-2.618-1.513Z" transform="translate(-1713.112 -4027.209)" fill="#42e8e0"/>
            <path id="Path_86229" data-name="Path 86229" d="M1722.37,4038.373l3.529,2.04.132-.782-3.529-2.04Z" transform="translate(-1713.013 -4027.156)" fill="#42e8e0"/>
            <path id="Path_86230" data-name="Path 86230" d="M1720.535,4037.313l1.1.638.132-.782-1.1-.638Z" transform="translate(-1712.972 -4027.131)" fill="#42e8e0"/>
            <path id="Path_86231" data-name="Path 86231" d="M1718.775,4036.3l1.1.638.132-.782-1.1-.638Z" transform="translate(-1712.932 -4027.108)" fill="#42e8e0"/>
            <g id="Group_34946" data-name="Group 34946" transform="translate(1.536 17.167)">
              <path id="Path_86232" data-name="Path 86232" d="M1719.017,4046.649l3.487,2.014.132-.782-3.487-2.015Z" transform="translate(-1714.473 -4044.508)" fill="#42e8e0"/>
              <path id="Path_86233" data-name="Path 86233" d="M1717.182,4045.584l1.1.639.132-.782-1.1-.638Z" transform="translate(-1714.432 -4044.485)" fill="#42e8e0"/>
              <path id="Path_86234" data-name="Path 86234" d="M1719.263,4048.8l1.23.711.132-.782-1.23-.71Z" transform="translate(-1714.479 -4044.557)" fill="#42e8e0"/>
              <path id="Path_86235" data-name="Path 86235" d="M1723.7,4047.329l1.23.711.132-.782-1.23-.71Z" transform="translate(-1714.579 -4044.524)" fill="#42e8e0"/>
              <path id="Path_86236" data-name="Path 86236" d="M1725.5,4048.365l2.95,1.7.132-.782-2.951-1.7Z" transform="translate(-1714.619 -4044.547)" fill="#42e8e0"/>
              <path id="Path_86237" data-name="Path 86237" d="M1729.051,4050.417l1.759,1.014.132-.782-1.759-1.013Z" transform="translate(-1714.699 -4044.593)" fill="#42e8e0"/>
              <path id="Path_86238" data-name="Path 86238" d="M1716.891,4047.429l1.624.94.132-.782-1.625-.94Z" transform="translate(-1714.425 -4044.526)" fill="#42e8e0"/>
              <g id="Group_34945" data-name="Group 34945" transform="translate(0 2.624)">
                <path id="Path_86239" data-name="Path 86239" d="M1716.738,4049.312l1.23.711.132-.781-1.229-.711Z" transform="translate(-1714.421 -4047.193)" fill="#42e8e0"/>
                <path id="Path_86240" data-name="Path 86240" d="M1714.368,4047.944l1.625.94.132-.782-1.625-.939Z" transform="translate(-1714.368 -4047.162)" fill="#42e8e0"/>
              </g>
              <path id="Path_86241" data-name="Path 86241" d="M1721.878,4046.276l1.1.638.132-.782-1.1-.638Z" transform="translate(-1714.538 -4044.5)" fill="#42e8e0"/>
              <path id="Path_86242" data-name="Path 86242" d="M1720.117,4045.259l1.1.638.132-.782-1.1-.638Z" transform="translate(-1714.498 -4044.477)" fill="#42e8e0"/>
            </g>
            <path id="Path_86243" data-name="Path 86243" d="M1728.793,4036.054l3.766,2.177.132-.782-3.766-2.177Z" transform="translate(-1713.158 -4027.102)" fill="#42e8e0"/>
            <path id="Path_86244" data-name="Path 86244" d="M1724.478,4033.561l3.529,2.04.132-.782-3.529-2.04Z" transform="translate(-1713.061 -4027.046)" fill="#42e8e0"/>
            <path id="Path_86245" data-name="Path 86245" d="M1722.643,4032.5l1.1.638.132-.782-1.1-.638Z" transform="translate(-1713.019 -4027.023)" fill="#42e8e0"/>
            <path id="Path_86246" data-name="Path 86246" d="M1720.882,4031.482l1.1.638.132-.782-1.1-.638Z" transform="translate(-1712.979 -4027)" fill="#42e8e0"/>
            <path id="Path_86247" data-name="Path 86247" d="M1719.862,4030.893l-2.382-1.377.132-.782,2.382,1.377Z" transform="translate(-1712.903 -4026.955)" fill="#42e8e0"/>
          </g>
        </g>
      </g>
    </g>
    <path id="Trazado_836019" data-name="Trazado 836019" d="M4.014-3.445H2.045L1.447,0H.34L1.822-8.531l2.566.006a2.86,2.86,0,0,1,2.045.68,2.123,2.123,0,0,1,.592,1.836A2.43,2.43,0,0,1,6.442-4.6a3.185,3.185,0,0,1-1.38.921l1.324,3.6L6.381,0H5.209ZM2.2-4.371l1.617.006a2.259,2.259,0,0,0,1.424-.448,1.745,1.745,0,0,0,.68-1.2A1.378,1.378,0,0,0,5.631-7.16,1.565,1.565,0,0,0,4.471-7.6L2.766-7.605Zm8.725-2.086a2.285,2.285,0,0,1,1.365.434,2.464,2.464,0,0,1,.841,1.163,3.6,3.6,0,0,1,.185,1.62l-.012.129a4.264,4.264,0,0,1-.551,1.673A3.232,3.232,0,0,1,11.619-.275,2.772,2.772,0,0,1,10.09.117,2.289,2.289,0,0,1,8.728-.316a2.408,2.408,0,0,1-.835-1.148,3.7,3.7,0,0,1-.187-1.6,4.32,4.32,0,0,1,.533-1.77A3.307,3.307,0,0,1,9.384-6.05,2.739,2.739,0,0,1,10.928-6.457Zm-2.156,3.4a3.6,3.6,0,0,0,0,.768,1.88,1.88,0,0,0,.413,1.1,1.24,1.24,0,0,0,.946.428,1.69,1.69,0,0,0,.973-.261,2.189,2.189,0,0,0,.75-.841,3.541,3.541,0,0,0,.393-1.248,5.621,5.621,0,0,0,.018-.908,1.952,1.952,0,0,0-.428-1.119,1.268,1.268,0,0,0-.949-.434,1.728,1.728,0,0,0-1.395.645,3.184,3.184,0,0,0-.709,1.734ZM18.129-.627a2.448,2.448,0,0,1-1.893.744,1.58,1.58,0,0,1-1.345-.65,2.487,2.487,0,0,1-.325-1.711l.68-4.1h1.061l-.686,4.113a2.732,2.732,0,0,0-.012.5,1.049,1.049,0,0,0,.252.662.86.86,0,0,0,.621.258,1.9,1.9,0,0,0,1.758-.92l.8-4.617H20.1L19,0h-1Zm5.25-7.248-.27,1.535h1.154l-.146.838H22.969l-.662,3.943a1.375,1.375,0,0,0-.006.281.447.447,0,0,0,.5.457,3.037,3.037,0,0,0,.516-.059l-.082.885a2.885,2.885,0,0,1-.773.105,1.107,1.107,0,0,1-.949-.466,1.8,1.8,0,0,1-.246-1.222L21.908-5.5H20.789l.146-.838h1.119l.27-1.535Zm3.8,7.992A2.286,2.286,0,0,1,25.33-.756a3,3,0,0,1-.562-2.174l.029-.252a4.218,4.218,0,0,1,.56-1.723,3.254,3.254,0,0,1,1.122-1.175,2.618,2.618,0,0,1,1.43-.378,2.016,2.016,0,0,1,1.535.65,2.675,2.675,0,0,1,.609,1.7,4.966,4.966,0,0,1-.023.762l-.064.486H25.822a2.142,2.142,0,0,0,.284,1.465,1.346,1.346,0,0,0,1.163.627A2.255,2.255,0,0,0,29-1.611l.609.516a2.789,2.789,0,0,1-1.028.9A2.914,2.914,0,0,1,27.182.117Zm.674-5.689a1.549,1.549,0,0,0-1.146.445,3.165,3.165,0,0,0-.776,1.377l3.082.006.023-.094A1.734,1.734,0,0,0,28.8-5.065,1.116,1.116,0,0,0,27.855-5.572Zm6.75.2-.5-.053a1.815,1.815,0,0,0-1.605.92L31.723,0H30.662l1.1-6.34,1.025-.006-.158.738a1.9,1.9,0,0,1,1.588-.861,1.945,1.945,0,0,1,.5.088Z" transform="translate(-6662.369 -5725.586)" fill="#393939"/>
    <path id="Trazado_836020" data-name="Trazado 836020" d="M0,67.761V0" transform="translate(-6644.479 -5716.308)" fill="none" stroke="#393939" stroke-width="1" stroke-dasharray="6 6"/>
  </g>
</svg>
