<svg id="Grupo_55672" data-name="Grupo 55672" xmlns="http://www.w3.org/2000/svg" width="283.824" height="228.506" viewBox="0 0 283.824 228.506">
  <path id="Trazado_118485" data-name="Trazado 118485" d="M144.919,119.887l41.316-19.764,47.274,26.5" transform="translate(-40.582 -28.038)" fill="none" stroke="#393939" stroke-miterlimit="10" stroke-width="1"/>
  <path id="Path_81326" data-name="Path 81326" d="M310.887,194.5l-.314-.541L338.768,177.6l-92.69-53.512.312-.543L340.014,177.6Z" transform="translate(-68.91 -34.596)" fill="#393939"/>
  <path id="Path_81325" data-name="Path 81325" d="M135.333,292.662l-.157-.09L41.242,238.339l.312-.543,93.776,54.141L243.6,229.1l.315.541Z" transform="translate(-11.549 -64.156)" fill="#393939"/>
  <g id="Group_4521" data-name="Group 4521" transform="translate(2.211 95.288)">
    <g id="Group_33110" data-name="Group 33110">
      <path id="Path_81327" data-name="Path 81327" d="M20.926,205.688,3.071,195.381l108.6-63.03.315.541L4.324,195.379l16.915,9.766Z" transform="translate(-3.071 -132.351)" fill="#393939"/>
    </g>
  </g>
  <g id="Grupo_55638" data-name="Grupo 55638" transform="translate(11.869 177.645)">
    <path id="Trazado_118486" data-name="Trazado 118486" d="M16.486,246.74V247.8a4.362,4.362,0,0,0,2.176,3.772L94.84,295.55a4.3,4.3,0,0,0,2.168.577,4.384,4.384,0,0,0,2.191-.58l41.523-23.9a4.37,4.37,0,0,0,2.171-3.772v-1.465h-.009v.014a.547.547,0,0,1-.276.479l-45.6,26.333Z" transform="translate(-16.486 -246.74)" fill="#21587b"/>
    <path id="Trazado_118487" data-name="Trazado 118487" d="M16.486,246.74V247.8a4.362,4.362,0,0,0,2.176,3.772L94.84,295.55a4.3,4.3,0,0,0,2.168.577,4.384,4.384,0,0,0,2.191-.58l41.523-23.9a4.37,4.37,0,0,0,2.171-3.772v-1.465h-.009v.014a.547.547,0,0,1-.276.479l-45.6,26.333Z" transform="translate(-16.486 -246.74)" fill="#21587b" opacity="0.3"/>
  </g>
  <g id="Grupo_55639" data-name="Grupo 55639" transform="translate(11.864 151.218)">
    <path id="Trazado_118488" data-name="Trazado 118488" d="M16.479,236.458l45.169-26.075a2.6,2.6,0,0,1,2.6,0L142.6,255.63a.577.577,0,0,1,0,1L97.011,282.956Z" transform="translate(-16.479 -210.035)" fill="#6e40fb"/>
    <path id="Trazado_118489" data-name="Trazado 118489" d="M16.479,236.458l45.169-26.075a2.6,2.6,0,0,1,2.6,0L142.6,255.63a.577.577,0,0,1,0,1L97.011,282.956Z" transform="translate(-16.479 -210.035)" fill="#6e40fb" opacity="0.2"/>
  </g>
  <path id="Trazado_118490" data-name="Trazado 118490" d="M101.155,284.53l24.363-14.051L54.282,229.351,29.793,243.328Z" transform="translate(-8.343 -64.226)" opacity="0.3"/>
  <g id="Grupo_55640" data-name="Grupo 55640" transform="translate(21.451 165.124)">
    <path id="Trazado_118491" data-name="Trazado 118491" d="M29.795,243.327l.93.535,23.56-13.443,70.3,40.6.93-.535L54.285,229.349Z" transform="translate(-29.795 -229.349)" fill="#00dfbf"/>
    <path id="Trazado_118492" data-name="Trazado 118492" d="M29.795,243.327l.93.535,23.56-13.443,70.3,40.6.93-.535L54.285,229.349Z" transform="translate(-29.795 -229.349)" opacity="0.6"/>
  </g>
  <g id="Grupo_55641" data-name="Grupo 55641" transform="translate(70.719 168.705)">
    <path id="Trazado_118493" data-name="Trazado 118493" d="M132.293,246.835l-.45.259-11.94,6.893-21.235-12.26-.442-.252,12.39-7.152Z" transform="translate(-98.226 -234.323)" opacity="0.6"/>
    <path id="Trazado_118494" data-name="Trazado 118494" d="M132.015,247.293l-11.94,6.893L98.84,241.926l11.948-6.893Z" transform="translate(-98.398 -234.522)" fill="#00dfbf"/>
  </g>
  <path id="Trazado_118495" data-name="Trazado 118495" d="M132.015,247.293l-11.94,6.893L98.84,241.926l11.948-6.893Z" transform="translate(-27.678 -65.817)" fill="#21587b" opacity="0.5"/>
  <g id="Grupo_55642" data-name="Grupo 55642" transform="translate(11.864 177.641)">
    <path id="Trazado_118496" data-name="Trazado 118496" d="M97.011,293.23v2.9a4.338,4.338,0,0,1-2.173-.58l-76.179-43.98a4.357,4.357,0,0,1-2.18-3.774v-1.06Z" transform="translate(-16.479 -246.735)" fill="#00dfbf"/>
    <path id="Trazado_118497" data-name="Trazado 118497" d="M97.011,293.23v2.9a4.338,4.338,0,0,1-2.173-.58l-76.179-43.98a4.357,4.357,0,0,1-2.18-3.774v-1.06Z" transform="translate(-16.479 -246.735)" opacity="0.6"/>
  </g>
  <g id="Grupo_55643" data-name="Grupo 55643" transform="translate(0 123.013)">
    <path id="Trazado_118498" data-name="Trazado 118498" d="M91.169,272.626a5.155,5.155,0,0,1-4.445-.343L10.88,228.494a5.157,5.157,0,0,1-2.508-3.606l-8.3-49.515A5.32,5.32,0,0,1,0,174.527a5.162,5.162,0,0,1,1.525-3.668l78.817,45.512a3.829,3.829,0,0,1,1.852,2.668Z" transform="translate(0 -170.859)" fill="#6e40fb"/>
  </g>
  <g id="Grupo_55644" data-name="Grupo 55644" transform="translate(1.525 122.212)">
    <path id="Trazado_118499" data-name="Trazado 118499" d="M92.989,271.674l-.518.3a6.128,6.128,0,0,1-.709.343l-8.974-53.587a3.829,3.829,0,0,0-1.852-2.668L2.118,170.548a5.233,5.233,0,0,1,1.052-.8l78.977,45.6A3.828,3.828,0,0,1,84,218.011Z" transform="translate(-2.118 -169.747)" fill="#00dfbf"/>
    <path id="Trazado_118500" data-name="Trazado 118500" d="M92.989,271.674l-.518.3a6.128,6.128,0,0,1-.709.343l-8.974-53.587a3.829,3.829,0,0,0-1.852-2.668L2.118,170.548a5.233,5.233,0,0,1,1.052-.8l78.977,45.6A3.828,3.828,0,0,1,84,218.011Z" transform="translate(-2.118 -169.747)" opacity="0.1"/>
    <path id="Trazado_118501" data-name="Trazado 118501" d="M113.147,235.2l1.223-.706a3.815,3.815,0,0,1,.722,1.648l8.99,53.663-.518.3a6.131,6.131,0,0,1-.709.343l-8.974-53.587A3.814,3.814,0,0,0,113.147,235.2Z" transform="translate(-33.21 -187.879)" opacity="0.25"/>
  </g>
  <g id="Grupo_55645" data-name="Grupo 55645" transform="translate(35.101 168.116)" opacity="0.3">
    <path id="Trazado_118502" data-name="Trazado 118502" d="M62.106,244.459c-.556-3.315-3.979-7.718-7.644-9.835s-6.187-1.145-5.632,2.171,3.979,7.719,7.645,9.835S62.661,247.775,62.106,244.459Z" transform="translate(-48.753 -233.505)"/>
  </g>
  <line id="Línea_1596" data-name="Línea 1596" x2="95.525" y2="56.161" transform="translate(96.097 115.507)" fill="none" stroke="#393939" stroke-miterlimit="10" stroke-width="1"/>
  <line id="Línea_1597" data-name="Línea 1597" y1="56.668" x2="97.389" transform="translate(94.915 115)" fill="none" stroke="#393939" stroke-miterlimit="10" stroke-width="1"/>
  <line id="Línea_1598" data-name="Línea 1598" x1="133.995" y2="14.279" transform="translate(66 118.664)" fill="none" stroke="#393939" stroke-miterlimit="10" stroke-width="1"/>
  <line id="Línea_1599" data-name="Línea 1599" y1="2.831" x2="66.043" transform="translate(111.125 177.645)" fill="none" stroke="#393939" stroke-miterlimit="10" stroke-width="1"/>
  <line id="Línea_1600" data-name="Línea 1600" y1="33.52" x2="1.998" transform="translate(209.685 125.97)" fill="none" stroke="#393939" stroke-miterlimit="10" stroke-width="1"/>
  <line id="Línea_1601" data-name="Línea 1601" y1="65.692" x2="26" transform="translate(90.524 103.714)" fill="none" stroke="#393939" stroke-miterlimit="10" stroke-width="1"/>
  <g id="Green_Laptop" data-name="Green Laptop" transform="translate(164.06 17.583)">
    <g id="Laptop">
      <path id="Trazado_118503" data-name="Trazado 118503" d="M334.191,140.8a3.556,3.556,0,0,1-1.659,2.754l-36.106,20.85a3.668,3.668,0,0,1-3.317,0L229.531,127.7a3.115,3.115,0,0,1,0-5.508l36.106-20.85a3.668,3.668,0,0,1,3.317,0l63.58,36.708A3.557,3.557,0,0,1,334.191,140.8Z" transform="translate(-227.872 -45.851)" fill="#00dfbf"/>
      <path id="Trazado_118504" data-name="Trazado 118504" d="M320.786,175.681v3.6a3.381,3.381,0,0,0,1.658-.395l36.108-20.851a3.1,3.1,0,0,0,.168-5.4c.743.532.686,1.313-.168,1.807l-36.108,20.851A3.38,3.38,0,0,1,320.786,175.681Z" transform="translate(-253.891 -60.325)" opacity="0.3"/>
      <path id="Trazado_118505" data-name="Trazado 118505" d="M351.08,116.679c.859-.5.812-1.333.812-2.391V64.417a3.667,3.667,0,0,0-1.659-2.873L286.656,24.837a3.557,3.557,0,0,0-3.214-.059c-.86.5-.813,1.334-.813,2.391V77.041a3.664,3.664,0,0,0,1.658,2.872l63.58,36.708A3.555,3.555,0,0,0,351.08,116.679Z" transform="translate(-243.206 -24.422)" fill="#00dfbf"/>
      <path id="Trazado_118506" data-name="Trazado 118506" d="M351.08,116.679c.859-.5.812-1.333.812-2.391V64.417a3.667,3.667,0,0,0-1.659-2.873L286.656,24.837a3.557,3.557,0,0,0-3.214-.059c-.86.5-.813,1.334-.813,2.391V77.041a3.664,3.664,0,0,0,1.658,2.872l63.58,36.708A3.555,3.555,0,0,0,351.08,116.679Z" transform="translate(-243.206 -24.422)" opacity="0.1"/>
      <path id="Trazado_118507" data-name="Trazado 118507" d="M373.513,131.641a3.56,3.56,0,0,0,3.017-.042c.858-.494.812-1.332.812-2.389V79.336a3.341,3.341,0,0,0-.487-1.631l-2.367,1.37v0a3.4,3.4,0,0,1,.487,1.632v49.874C374.976,131.565,374.336,132,373.513,131.641Z" transform="translate(-268.656 -39.343)" opacity="0.25"/>
      <path id="Trazado_118508" data-name="Trazado 118508" d="M349.525,66.4v49.871c0,1.058-.742,1.487-1.658.958l-63.58-36.708a3.664,3.664,0,0,1-1.658-2.872V27.777c0-1.057.742-1.486,1.658-.957l63.58,36.707A3.667,3.667,0,0,1,349.525,66.4Z" transform="translate(-243.206 -25.03)" fill="#6e40fb"/>
      <path id="Trazado_118509" data-name="Trazado 118509" d="M332.911,139.964,296.8,160.815a3.668,3.668,0,0,1-3.317,0l-63.579-36.708a1.011,1.011,0,0,1,0-1.915l36.106-20.85a3.668,3.668,0,0,1,3.317,0l63.58,36.708A1.011,1.011,0,0,1,332.911,139.964Z" transform="translate(-228.25 -45.851)" fill="#6e40fb"/>
      <path id="Trazado_118510" data-name="Trazado 118510" d="M294.768,173.15a3.413,3.413,0,0,1-1.658-.4l-63.58-36.709a3.088,3.088,0,0,1-.3-5.294c-.593.523-.5,1.245.3,1.7l63.58,36.7a3.405,3.405,0,0,0,1.658.4Z" transform="translate(-227.872 -54.198)" fill="#00dfbf"/>
      <path id="Trazado_118511" data-name="Trazado 118511" d="M347.773,66.735l-61.3-35.381c-.549-.317-.995-.06-.995.575V77.843a2.2,2.2,0,0,0,.995,1.724l61.3,35.381c.549.318.995.06.995-.575V68.458A2.2,2.2,0,0,0,347.773,66.735Z" transform="translate(-244.004 -26.325)" fill="#f2f2f2"/>
      <path id="Trazado_118512" data-name="Trazado 118512" d="M342.751,139.288l-59.015-34.072a1.833,1.833,0,0,0-1.658,0l-.983.54a.5.5,0,0,0,0,.957l59.024,34.067a1.835,1.835,0,0,0,1.659,0l.973-.534A.505.505,0,0,0,342.751,139.288Z" transform="translate(-242.68 -46.992)" opacity="0.3"/>
      <g id="Grupo_55646" data-name="Grupo 55646" transform="translate(19.391 60.747)">
        <path id="Trazado_118513" data-name="Trazado 118513" d="M271.85,109.023l59.015,34.072c.458.265.522.656.143.875l-15.362,8.869a1.688,1.688,0,0,1-1.515-.083L255.2,118.723c-.458-.264-.523-.657-.147-.875l15.289-8.906A1.68,1.68,0,0,1,271.85,109.023Z" transform="translate(-254.805 -108.798)" opacity="0.3"/>
        <path id="Trazado_118514" data-name="Trazado 118514" d="M306.575,138.882l1.847,1.067a.3.3,0,0,0,.269.009l1.768-1.021c.07-.04.063-.109-.016-.155l-1.847-1.067a.3.3,0,0,0-.269-.009l-1.768,1.021C306.489,138.768,306.5,138.837,306.575,138.882Zm6.393-1.557-1.848-1.067a.3.3,0,0,0-.269-.009l-1.768,1.021c-.07.04-.063.109.016.155l1.848,1.067a.3.3,0,0,0,.268.009l1.768-1.021C313.054,137.439,313.047,137.37,312.968,137.325ZM307,133.878l-3.127-1.806a.3.3,0,0,0-.269-.009l-1.768,1.021c-.07.04-.063.109.016.155l3.127,1.806a.3.3,0,0,0,.269.009l1.768-1.02C307.084,133.993,307.077,133.924,307,133.878Zm3.269,1.887-1.848-1.067a.3.3,0,0,0-.268-.009l-1.768,1.02c-.07.04-.063.11.016.155l1.848,1.067a.3.3,0,0,0,.268.009l1.768-1.021C310.353,135.881,310.346,135.811,310.267,135.765Zm-7.249-4.185-1.847-1.067a.3.3,0,0,0-.269-.009l-1.768,1.02c-.07.04-.063.11.016.155L301,132.747a.3.3,0,0,0,.268.009l1.767-1.021C303.1,131.695,303.1,131.626,303.018,131.58Zm-2.7-1.559-1.847-1.067a.3.3,0,0,0-.269-.009l-1.767,1.021c-.07.04-.063.109.016.155l1.847,1.067a.3.3,0,0,0,.269.009l1.768-1.02C300.4,130.136,300.4,130.067,300.318,130.021Zm-7.213,4,1.847,1.067a.3.3,0,0,0,.269.009l1.768-1.02c.07-.04.063-.11-.016-.156l-1.847-1.066a.3.3,0,0,0-.269-.009l-1.768,1.021C293.019,133.906,293.026,133.976,293.1,134.022Zm-2.7-1.559,1.847,1.067a.3.3,0,0,0,.269.009l1.768-1.021c.07-.04.063-.109-.015-.155l-1.848-1.067a.3.3,0,0,0-.269-.009l-1.767,1.021C290.319,132.348,290.326,132.417,290.4,132.462Zm-2.7-1.559,1.847,1.066a.3.3,0,0,0,.269.009l1.768-1.02c.069-.04.062-.11-.017-.156l-1.847-1.066a.3.3,0,0,0-.269-.009l-1.768,1.02C287.618,130.788,287.625,130.858,287.7,130.9Zm-2.7-1.559,1.847,1.067a.3.3,0,0,0,.269.009l1.768-1.02c.07-.04.063-.109-.016-.155l-1.847-1.067a.3.3,0,0,0-.269-.009l-1.768,1.021C284.917,129.229,284.925,129.3,285,129.344Zm18.871,7.979,1.847,1.066a.3.3,0,0,0,.269.009l1.768-1.021c.07-.04.063-.109-.016-.155l-1.847-1.066a.3.3,0,0,0-.269-.009l-1.768,1.02C303.788,137.208,303.8,137.278,303.874,137.323Zm-8.069-1.742,4.122,2.379a.3.3,0,0,0,.269.009l4.293-2.479c.07-.04.062-.109-.017-.155l-2.132-1.231a.3.3,0,0,0-.269-.009l-2.272,1.313a.3.3,0,0,1-.269-.009l-1.706-.985a.3.3,0,0,0-.269-.009l-1.768,1.02C295.72,135.466,295.727,135.536,295.805,135.581Zm1.812-7.119-1.848-1.067a.3.3,0,0,0-.269-.009l-1.768,1.02c-.07.04-.063.109.016.155l1.847,1.067a.3.3,0,0,0,.269.009l1.768-1.021C297.7,128.576,297.7,128.507,297.618,128.462Zm-2.7-1.559-1.847-1.066a.3.3,0,0,0-.269-.009l-1.768,1.02c-.07.04-.063.11.016.156l1.847,1.066a.3.3,0,0,0,.269.009l1.768-1.02C295,127.018,294.995,126.948,294.916,126.9Zm-28.833-8.628c-.07.04-.063.11.016.156l1.848,1.066a.3.3,0,0,0,.269.009l1.767-1.02c.07-.04.063-.11-.016-.156l-1.848-1.066a.3.3,0,0,0-.269-.009Zm7.229-3.845-1.848-1.066a.3.3,0,0,0-.268-.009l-1.768,1.02c-.07.04-.063.11.015.156l1.848,1.066a.3.3,0,0,0,.269.009l1.768-1.02C273.4,114.544,273.391,114.474,273.312,114.429Zm-5.414,1.977c-.07.04-.063.11.016.156l1.847,1.066a.3.3,0,0,0,.269.009l1.768-1.02c.07-.04.063-.11-.016-.156l-1.847-1.066a.3.3,0,0,0-.269-.009Zm-2.9,4.3,1.847,1.066a.3.3,0,0,0,.269.009l1.768-1.021c.069-.04.062-.109-.017-.155l-1.847-1.067a.3.3,0,0,0-.269-.009l-1.768,1.02C264.91,120.593,264.917,120.663,265,120.709Zm-2.716-1.714c-.07.04-.063.109.016.155l1.848,1.067a.3.3,0,0,0,.268.009l1.768-1.02c.07-.04.063-.109-.015-.155l-1.848-1.067a.3.3,0,0,0-.269-.009Zm13.734-3.006-1.847-1.067a.3.3,0,0,0-.269-.009l-1.768,1.02c-.069.04-.063.109.016.155l1.848,1.067a.3.3,0,0,0,.268.009l1.768-1.021C276.1,116.1,276.091,116.034,276.013,115.989Zm13.5,7.8-1.848-1.067a.3.3,0,0,0-.269-.009l-1.768,1.02c-.07.04-.063.109.016.155l1.848,1.067a.3.3,0,0,0,.268.009l1.768-1.021C289.6,123.9,289.594,123.83,289.516,123.784Zm-10.8-6.236-1.848-1.067a.3.3,0,0,0-.268-.009l-1.768,1.021c-.07.04-.063.109.016.155l1.848,1.067a.3.3,0,0,0,.269.009l1.768-1.02C278.8,117.662,278.792,117.593,278.713,117.548Zm13.5,7.8-1.848-1.067a.3.3,0,0,0-.268-.009l-1.768,1.021c-.07.04-.063.109.016.155l1.847,1.067a.3.3,0,0,0,.269.009l1.768-1.021C292.3,125.458,292.295,125.389,292.216,125.344Zm-5.4-3.119-1.848-1.066a.3.3,0,0,0-.269-.009l-1.768,1.021c-.07.04-.063.109.016.155l1.848,1.067a.3.3,0,0,0,.268.009l1.768-1.02C286.9,122.34,286.894,122.27,286.815,122.225Zm-2.7-1.559-1.848-1.067a.3.3,0,0,0-.268-.009l-1.768,1.021c-.07.04-.063.109.016.155l1.847,1.067a.3.3,0,0,0,.269.009l1.768-1.021C284.2,120.781,284.193,120.712,284.115,120.666Zm-2.7-1.559-1.848-1.066a.3.3,0,0,0-.269-.009l-1.768,1.02c-.07.04-.063.11.016.156l1.848,1.066a.3.3,0,0,0,.269.009l1.768-1.02C281.5,119.222,281.493,119.152,281.414,119.107Zm-1.812,7.119,1.847,1.066a.3.3,0,0,0,.269.009l1.768-1.02c.069-.04.062-.11-.017-.156l-1.847-1.066a.3.3,0,0,0-.269-.009l-1.768,1.02C279.516,126.111,279.523,126.18,279.6,126.226Zm39.335,14.546L317.09,139.7a.3.3,0,0,0-.269-.009l-1.768,1.021c-.07.04-.063.109.016.155l1.847,1.067a.3.3,0,0,0,.269.009l1.768-1.021C319.023,140.886,319.016,140.817,318.937,140.771Zm-3.269-1.888-1.848-1.066a.3.3,0,0,0-.268-.009l-1.768,1.02c-.07.04-.063.11.016.156l1.847,1.066a.3.3,0,0,0,.269.009l1.768-1.02C315.754,139,315.747,138.929,315.669,138.884Zm5.969,3.446-1.847-1.066a.3.3,0,0,0-.269-.009l-1.768,1.021c-.07.04-.063.109.016.155l1.847,1.067a.3.3,0,0,0,.269.009l1.767-1.02C321.724,142.445,321.716,142.376,321.638,142.33Zm-24.018-8.618,1.848,1.067a.3.3,0,0,0,.269.009l1.768-1.021c.07-.04.063-.109-.016-.155l-1.848-1.067a.3.3,0,0,0-.268-.009l-1.768,1.02C297.534,133.6,297.541,133.667,297.62,133.712Zm26.735,10.332c.07-.04.063-.109-.016-.155l-1.847-1.067a.3.3,0,0,0-.269-.009l-1.768,1.02c-.07.04-.063.11.016.155l1.847,1.067a.3.3,0,0,0,.269.009ZM282.3,127.785l1.847,1.067a.3.3,0,0,0,.269.009l1.768-1.021c.069-.04.063-.109-.016-.155l-1.848-1.067a.3.3,0,0,0-.269-.009l-1.768,1.02C282.217,127.67,282.224,127.739,282.3,127.785Zm33.118,19.121,1.847,1.066a.3.3,0,0,0,.269.009l1.767-1.02c.07-.04.063-.11-.016-.156l-1.847-1.066a.3.3,0,0,0-.269-.009l-1.768,1.02C315.335,146.79,315.341,146.86,315.42,146.905Zm-.176-3.017,1.848,1.067a.3.3,0,0,0,.268.009l1.768-1.02c.07-.04.063-.109-.016-.155l-1.848-1.067a.3.3,0,0,0-.269-.009l-1.768,1.021C315.159,143.774,315.166,143.843,315.245,143.888Zm6.585,1.614c.07-.04.063-.109-.016-.155l-1.848-1.067a.3.3,0,0,0-.269-.009l-1.768,1.02c-.07.04-.063.11.016.155l1.847,1.067a.3.3,0,0,0,.269.009Zm.568.328-4.293,2.479c-.07.04-.062.109.016.155l1.848,1.067a.3.3,0,0,0,.269.009l4.293-2.479c.069-.04.062-.109-.016-.155l-1.848-1.067A.3.3,0,0,0,322.4,145.83Zm-5.986-3.6-1.847-1.067a.3.3,0,0,0-.269-.009l-1.767,1.02c-.07.04-.063.109.016.155l1.848,1.067a.3.3,0,0,0,.269.009l1.768-1.021C316.5,142.344,316.491,142.275,316.412,142.229Zm-20.325-11.735-1.848-1.067a.294.294,0,0,0-.268-.009l-1.768,1.02c-.07.04-.063.109.015.155l1.848,1.067a.3.3,0,0,0,.269.009l1.768-1.021C296.173,130.609,296.165,130.54,296.087,130.494Zm16.617,14.7c-.07.04-.063.109.015.155l1.848,1.067a.3.3,0,0,0,.269.009L316.6,145.4c.07-.04.063-.109-.016-.155l-1.848-1.067a.3.3,0,0,0-.268-.009Zm-13.916-13.138-1.848-1.066a.3.3,0,0,0-.268-.009L294.9,132c-.07.04-.063.109.016.155l1.848,1.067a.3.3,0,0,0,.268.009l1.768-1.02C298.873,132.168,298.866,132.1,298.788,132.053Zm-30-12.219c-.07.04-.063.109.016.155l1.848,1.067a.3.3,0,0,0,.268.009l1.768-1.021c.07-.04.063-.109-.016-.155l-1.848-1.067a.3.3,0,0,0-.268-.009Zm5.7-1.813-1.847-1.067a.3.3,0,0,0-.269-.009l-1.767,1.02c-.07.04-.063.109.016.155l1.847,1.067a.3.3,0,0,0,.269.009l1.768-1.021C274.568,118.136,274.561,118.066,274.482,118.021Zm-2.982,3.527,1.848,1.067a.3.3,0,0,0,.269.009l1.768-1.02c.069-.04.063-.11-.016-.155l-1.848-1.067a.3.3,0,0,0-.269-.009l-1.768,1.021C271.415,121.434,271.422,121.5,271.5,121.548Zm2.7,1.559,1.847,1.067a.3.3,0,0,0,.269.009l1.768-1.021c.07-.04.063-.109-.016-.155l-1.848-1.067a.3.3,0,0,0-.269-.009l-1.768,1.02C274.115,122.992,274.122,123.062,274.2,123.107Zm2.7,1.559,1.847,1.067a.3.3,0,0,0,.269.009l1.768-1.021c.069-.04.063-.109-.017-.155l-1.847-1.067a.3.3,0,0,0-.268-.009l-1.768,1.021C276.816,124.552,276.823,124.621,276.9,124.666Zm.281-5.086-1.847-1.067a.3.3,0,0,0-.269-.009l-1.768,1.021c-.07.04-.063.109.016.155l1.847,1.067a.3.3,0,0,0,.269.009l1.768-1.02C277.268,119.695,277.261,119.626,277.183,119.58Zm2.7,1.559-1.847-1.066a.3.3,0,0,0-.269-.009L276,121.084c-.069.04-.062.11.017.156l1.847,1.066a.3.3,0,0,0,.269.009l1.768-1.021C279.969,121.254,279.962,121.185,279.883,121.139Zm10.8,6.237-1.847-1.067a.3.3,0,0,0-.269-.009l-1.767,1.021c-.07.04-.063.109.016.155l1.847,1.067a.3.3,0,0,0,.269.009l1.768-1.021C290.771,127.491,290.764,127.422,290.686,127.376Zm-2.7-1.559-1.847-1.067a.3.3,0,0,0-.269-.009l-1.768,1.02c-.069.04-.062.11.017.155l1.847,1.067a.3.3,0,0,0,.269.009L288,125.972C288.071,125.931,288.064,125.862,287.985,125.817Zm5.4,3.118-1.847-1.066a.3.3,0,0,0-.269-.009l-1.768,1.02c-.07.04-.063.11.016.156l1.848,1.066a.3.3,0,0,0,.269.009l1.768-1.021C293.472,129.05,293.465,128.98,293.386,128.935Zm-10.8-6.236-1.847-1.067a.3.3,0,0,0-.269-.009l-1.768,1.021c-.07.04-.063.109.016.155l1.847,1.067a.3.3,0,0,0,.269.009l1.768-1.021C282.67,122.813,282.662,122.744,282.584,122.7Zm2.7,1.559-1.847-1.066a.3.3,0,0,0-.269-.009L281.4,124.2c-.069.04-.063.109.016.155l1.848,1.066a.3.3,0,0,0,.269.009l1.767-1.02C285.37,124.373,285.363,124.3,285.285,124.257Zm-17.589-1.99,1.847,1.067a.3.3,0,0,0,.269.009l1.768-1.021c.07-.04.063-.109-.016-.155l-1.847-1.067a.3.3,0,0,0-.269-.009l-1.768,1.021C267.61,122.153,267.617,122.222,267.7,122.267Zm1.164-8.221,1.768-1.021c.07-.04.063-.109-.016-.155l-1.848-1.067a.3.3,0,0,0-.268-.009l-1.768,1.021c-.069.04-.062.109.016.155l1.848,1.067A.3.3,0,0,0,268.86,114.046Zm-1.531,2.032,1.768-1.02c.07-.04.063-.109-.016-.155l-2.842-1.642a.3.3,0,0,0-.269-.009l-1.768,1.021c-.07.04-.063.109.016.155l2.842,1.642A.3.3,0,0,0,267.329,116.078Zm5.022-3.555,1.768-1.021c.07-.04.063-.109-.016-.155l-2.274-1.313a.3.3,0,0,0-.269-.009l-1.768,1.021c-.069.04-.062.109.017.155l2.274,1.313A.3.3,0,0,0,272.351,112.523Zm1.744,1.007c-.07.04-.063.109.016.155l1.847,1.067a.3.3,0,0,0,.269.009l1.768-1.021c.07-.04.063-.109-.016-.155l-1.847-1.067a.3.3,0,0,0-.269-.009Zm-8.58,4.418,1.768-1.021c.07-.04.063-.109-.016-.155l-3.554-2.052a.3.3,0,0,0-.268-.009l-1.768,1.02c-.07.04-.063.109.016.155l3.554,2.052A.3.3,0,0,0,265.515,117.947Zm-3.805.719,1.768-1.021c.07-.04.063-.109-.015-.155l-2.274-1.313a.3.3,0,0,0-.269-.009l-1.767,1.02c-.07.04-.063.109.016.155l2.274,1.313A.3.3,0,0,0,261.71,118.666Zm32.463,6.455c-.07.04-.063.11.016.156l1.848,1.066a.3.3,0,0,0,.268.009l1.768-1.02c.07-.04.063-.11-.016-.156l-1.847-1.066a.3.3,0,0,0-.269-.009Zm-5.4-3.118c-.07.04-.063.109.016.155l1.848,1.067a.3.3,0,0,0,.269.009l1.768-1.021c.07-.04.063-.109-.016-.155l-1.847-1.067a.3.3,0,0,0-.269-.009ZM276.8,115.088c-.07.04-.063.11.016.156l1.847,1.066a.3.3,0,0,0,.269.009l1.768-1.02c.07-.04.063-.11-.016-.156l-1.847-1.066a.3.3,0,0,0-.269-.009Zm14.678,8.475c-.071.04-.063.109.015.155l1.848,1.067a.3.3,0,0,0,.269.009l1.768-1.02c.07-.04.063-.109-.016-.155l-1.848-1.067a.3.3,0,0,0-.268-.009Zm-5.4-3.118c-.069.04-.063.109.017.155l1.847,1.066a.3.3,0,0,0,.269.009l1.768-1.02c.07-.04.063-.11-.016-.155l-1.847-1.067a.3.3,0,0,0-.269-.009Zm-24.551-1.013c.07-.04.063-.109-.015-.155l-2.843-1.642a.3.3,0,0,0-.269-.009l-1.768,1.02c-.07.04-.063.11.016.156l2.843,1.641a.3.3,0,0,0,.268.009Zm20.675-1.225c-.069.04-.062.109.017.155l1.847,1.067a.3.3,0,0,0,.269.009l1.768-1.02c.07-.04.063-.109-.016-.155l-1.847-1.067a.3.3,0,0,0-.269-.009Zm-2.7-1.559c-.069.04-.063.109.016.155l1.848,1.067a.3.3,0,0,0,.269.009l1.767-1.021c.07-.04.063-.109-.016-.155l-1.847-1.067a.3.3,0,0,0-.269-.009Zm32.057,31.67c.07-.04.063-.109-.016-.155l-4.548-2.626a.3.3,0,0,0-.269-.009l-1.768,1.02c-.07.04-.063.11.016.155l4.548,2.626a.3.3,0,0,0,.269.009Zm-5.97-3.446c.07-.04.063-.109-.016-.155l-1.847-1.067a.3.3,0,0,0-.269-.009l-1.768,1.021c-.07.04-.063.109.016.155l1.847,1.067a.3.3,0,0,0,.269.009ZM270.4,123.827l1.847,1.067a.3.3,0,0,0,.269.009l1.768-1.02c.07-.04.063-.11-.016-.156l-1.847-1.066a.3.3,0,0,0-.269-.009l-1.768,1.021C270.311,123.712,270.318,123.781,270.4,123.827Zm29.786,17.926c.069-.04.062-.11-.017-.155l-1.847-1.067a.3.3,0,0,0-.269-.009l-1.768,1.021c-.07.04-.063.109.016.155l1.847,1.067a.3.3,0,0,0,.269.009Zm14.071,8.124c.07-.04.063-.11-.016-.156l-1.848-1.066a.3.3,0,0,0-.268-.009l-1.768,1.021c-.069.04-.062.109.016.155l1.848,1.067a.3.3,0,0,0,.269.009Zm.932,2.58,4.294-2.479c.069-.04.063-.109-.016-.155l-1.848-1.067a.3.3,0,0,0-.269-.009l-4.293,2.478c-.07.04-.063.109.016.155l1.848,1.067A.3.3,0,0,0,315.186,152.456Zm-25.1-16.53c.07-.04.063-.109-.016-.155l-2.274-1.313a.3.3,0,0,0-.269-.009l-1.768,1.02c-.07.04-.063.109.016.155l2.274,1.313a.3.3,0,0,0,.268.009Zm6.822,3.939c.07-.04.063-.109-.016-.155l-2.843-1.642a.3.3,0,0,0-.268-.009l-1.768,1.02c-.07.04-.062.11.016.155l2.843,1.642a.3.3,0,0,0,.269.009Zm-13.077-7.55c.07-.04.063-.109-.016-.155l-15.208-8.781a.3.3,0,0,0-.269-.009l-1.768,1.021c-.07.04-.063.109.016.155l15.208,8.781a.3.3,0,0,0,.269.009Zm-16.061-9.273c.07-.04.063-.109-.016-.155l-2.274-1.313a.3.3,0,0,0-.269-.009l-1.767,1.02c-.07.04-.063.11.016.156l2.274,1.313a.3.3,0,0,0,.269.009Zm19.189,11.079c.07-.04.062-.11-.016-.156l-2.274-1.312a.3.3,0,0,0-.269-.009l-1.767,1.021c-.07.04-.063.109.016.155l2.274,1.313a.3.3,0,0,0,.268.009Zm-22.315-12.884c.07-.04.063-.109-.016-.155l-2.274-1.313a.3.3,0,0,0-.269-.009l-1.768,1.021c-.07.04-.063.109.016.155l2.274,1.313a.3.3,0,0,0,.269.009Zm28.569,16.494c.07-.04.063-.109-.016-.155l-2.274-1.313a.3.3,0,0,0-.268-.009l-1.768,1.021c-.07.04-.063.109.016.155l2.274,1.313a.3.3,0,0,0,.269.009Zm9.666,5.58c.069-.04.062-.109-.017-.155l-1.847-1.067a.3.3,0,0,0-.269-.009l-1.768,1.02c-.07.04-.063.109.016.155l1.847,1.067a.3.3,0,0,0,.269.009Zm7.311,3.493,1.847,1.067a.3.3,0,0,0,.269.009l1.768-1.021c.07-.04.063-.109-.016-.155l-1.847-1.067a.3.3,0,0,0-.269-.009l-1.767,1.021C310.108,146.689,310.116,146.759,310.194,146.8Zm-.919-6.362,1.847,1.066a.3.3,0,0,0,.269.009l1.768-1.02c.07-.04.063-.11-.016-.156l-1.847-1.066a.3.3,0,0,0-.269-.009l-1.768,1.02C309.19,140.326,309.2,140.4,309.275,140.442ZM292,136.3l5.4,3.118a.3.3,0,0,0,.269.009l1.768-1.021c.069-.04.063-.109-.017-.155l-5.4-3.118a.3.3,0,0,0-.268-.009l-1.768,1.02C291.915,136.185,291.922,136.255,292,136.3Zm15.477,8.789c-.07.04-.063.11.016.155l1.847,1.067a.3.3,0,0,0,.269.009l1.768-1.021c.07-.04.063-.109-.016-.155l-1.848-1.067a.3.3,0,0,0-.269-.009Zm2.541-1.3,1.848,1.067a.3.3,0,0,0,.269.009l1.768-1.021c.07-.04.063-.109-.016-.155l-1.847-1.067a.3.3,0,0,0-.269-.009L310,143.632C309.933,143.672,309.941,143.741,310.018,143.786ZM289.3,134.741l1.848,1.067a.3.3,0,0,0,.269.009l1.768-1.021c.07-.04.063-.109-.016-.155l-1.848-1.067a.3.3,0,0,0-.268-.009l-1.767,1.021C289.215,134.626,289.221,134.7,289.3,134.741Zm12.208,6.9c-.07.04-.063.109.016.155l1.848,1.067a.3.3,0,0,0,.269.009l1.768-1.021c.07-.04.063-.109-.016-.155l-1.847-1.067a.3.3,0,0,0-.269-.009Zm-25.71-14.7,1.847,1.067a.3.3,0,0,0,.269.009L279.681,127c.07-.04.063-.109-.016-.155l-1.847-1.067a.3.3,0,0,0-.269-.009l-1.767,1.021C275.712,126.831,275.719,126.9,275.8,126.945Zm2.7,1.559,1.847,1.066a.3.3,0,0,0,.269.009l1.768-1.02c.069-.04.062-.11-.017-.156l-1.847-1.066a.3.3,0,0,0-.269-.009l-1.768,1.02C278.413,128.389,278.419,128.459,278.5,128.5Zm-5.4-3.119,1.847,1.067a.3.3,0,0,0,.269.009l1.768-1.021c.07-.04.063-.109-.016-.155l-1.847-1.067a.3.3,0,0,0-.269-.009l-1.768,1.02C273.011,125.271,273.019,125.34,273.1,125.386Zm10.8,6.237,1.847,1.067a.3.3,0,0,0,.269.009l1.768-1.02c.07-.04.063-.109-.016-.155l-1.848-1.066a.3.3,0,0,0-.268-.009l-1.768,1.021C283.814,131.507,283.821,131.577,283.9,131.623Zm-2.7-1.559,1.847,1.067a.3.3,0,0,0,.269.009l1.768-1.021c.07-.04.063-.109-.016-.155l-1.847-1.067a.3.3,0,0,0-.269-.009l-1.768,1.021C281.113,129.949,281.12,130.018,281.2,130.063Zm5.4,3.118,1.847,1.067a.3.3,0,0,0,.269.009l1.767-1.021c.07-.04.063-.109-.016-.155l-1.847-1.067a.3.3,0,0,0-.269-.009l-1.768,1.02C286.514,133.067,286.521,133.136,286.6,133.181Zm37.568,8.509c-.069.04-.063.11.016.156l1.848,1.066a.3.3,0,0,0,.269.009l.47-.271c.07-.04.063-.11-.016-.156l-1.847-1.066a.3.3,0,0,0-.269-.009Zm-14.72-7.749c-.069.04-.063.109.016.155l1.848,1.066a.3.3,0,0,0,.269.009l1.767-1.02c.07-.04.063-.11-.016-.156l-1.848-1.066a.3.3,0,0,0-.269-.009Zm5.4,3.118c-.07.04-.063.109.016.155l1.848,1.067a.3.3,0,0,0,.269.009l1.768-1.02c.07-.04.063-.11-.016-.155l-1.848-1.067a.3.3,0,0,0-.268-.009Zm-8.7-5.022c-.07.04-.063.109.016.155l1.848,1.067a.3.3,0,0,0,.268.009l1.768-1.021c.069-.04.063-.109-.017-.155l-1.847-1.067a.3.3,0,0,0-.269-.009Zm6,3.463c-.07.04-.063.109.016.155l1.848,1.067a.3.3,0,0,0,.268.009l1.768-1.021c.07-.04.063-.109-.016-.155l-1.848-1.067a.3.3,0,0,0-.268-.009Zm-11.4-6.581c-.07.04-.063.109.016.155l1.848,1.067a.3.3,0,0,0,.269.009l1.768-1.021c.07-.04.063-.109-.016-.155l-1.848-1.067a.3.3,0,0,0-.269-.009Zm2.7,1.559c-.07.04-.063.11.016.156l1.848,1.066a.3.3,0,0,0,.268.009l1.768-1.02c.07-.04.063-.11-.016-.156l-1.848-1.066a.3.3,0,0,0-.269-.009Zm15.317,8.095c-.07.04-.063.109.016.155l1.847,1.067a.3.3,0,0,0,.269.009l.471-.272c.069-.04.063-.109-.016-.155l-1.848-1.066a.3.3,0,0,0-.269-.009Zm8.1,4.678c-.07.04-.063.109.016.155l1.847,1.067a.3.3,0,0,0,.269.009l.471-.272c.069-.04.062-.109-.017-.155l-1.847-1.067a.3.3,0,0,0-.269-.009Zm-3.714,2.144c-.07.04-.063.109.016.155l1.847,1.067a.3.3,0,0,0,.269.009l1.768-1.021c.07-.04.063-.109-.016-.155l-1.847-1.067a.3.3,0,0,0-.269-.009Zm-10.261,2.97,1.848,1.066a.3.3,0,0,0,.268.009l1.768-1.02c.07-.04.063-.11-.015-.156l-1.848-1.066a.3.3,0,0,0-.269-.009l-1.768,1.02C312.809,148.248,312.816,148.318,312.895,148.363Zm8.573-8.232c-.07.04-.063.109.016.155l1.847,1.067a.3.3,0,0,0,.269.009l.47-.271c.07-.04.063-.109-.016-.155l-1.847-1.067a.3.3,0,0,0-.269-.009Zm-23.419-12.772c-.07.04-.063.11.016.155l1.848,1.067a.3.3,0,0,0,.268.009l1.768-1.021c.07-.04.063-.109-.016-.155l-1.848-1.067a.3.3,0,0,0-.268-.009Z" transform="translate(-255.302 -109.134)" fill="#00dfbf"/>
        <path id="Trazado_118515" data-name="Trazado 118515" d="M306.575,138.882l1.847,1.067a.3.3,0,0,0,.269.009l1.768-1.021c.07-.04.063-.109-.016-.155l-1.847-1.067a.3.3,0,0,0-.269-.009l-1.768,1.021C306.489,138.768,306.5,138.837,306.575,138.882Zm6.393-1.557-1.848-1.067a.3.3,0,0,0-.269-.009l-1.768,1.021c-.07.04-.063.109.016.155l1.848,1.067a.3.3,0,0,0,.268.009l1.768-1.021C313.054,137.439,313.047,137.37,312.968,137.325ZM307,133.878l-3.127-1.806a.3.3,0,0,0-.269-.009l-1.768,1.021c-.07.04-.063.109.016.155l3.127,1.806a.3.3,0,0,0,.269.009l1.768-1.02C307.084,133.993,307.077,133.924,307,133.878Zm3.269,1.887-1.848-1.067a.3.3,0,0,0-.268-.009l-1.768,1.02c-.07.04-.063.11.016.155l1.848,1.067a.3.3,0,0,0,.268.009l1.768-1.021C310.353,135.881,310.346,135.811,310.267,135.765Zm-7.249-4.185-1.847-1.067a.3.3,0,0,0-.269-.009l-1.768,1.02c-.07.04-.063.11.016.155L301,132.747a.3.3,0,0,0,.268.009l1.767-1.021C303.1,131.695,303.1,131.626,303.018,131.58Zm-2.7-1.559-1.847-1.067a.3.3,0,0,0-.269-.009l-1.767,1.021c-.07.04-.063.109.016.155l1.847,1.067a.3.3,0,0,0,.269.009l1.768-1.02C300.4,130.136,300.4,130.067,300.318,130.021Zm-7.213,4,1.847,1.067a.3.3,0,0,0,.269.009l1.768-1.02c.07-.04.063-.11-.016-.156l-1.847-1.066a.3.3,0,0,0-.269-.009l-1.768,1.021C293.019,133.906,293.026,133.976,293.1,134.022Zm-2.7-1.559,1.847,1.067a.3.3,0,0,0,.269.009l1.768-1.021c.07-.04.063-.109-.015-.155l-1.848-1.067a.3.3,0,0,0-.269-.009l-1.767,1.021C290.319,132.348,290.326,132.417,290.4,132.462Zm-2.7-1.559,1.847,1.066a.3.3,0,0,0,.269.009l1.768-1.02c.069-.04.062-.11-.017-.156l-1.847-1.066a.3.3,0,0,0-.269-.009l-1.768,1.02C287.618,130.788,287.625,130.858,287.7,130.9Zm-2.7-1.559,1.847,1.067a.3.3,0,0,0,.269.009l1.768-1.02c.07-.04.063-.109-.016-.155l-1.847-1.067a.3.3,0,0,0-.269-.009l-1.768,1.021C284.917,129.229,284.925,129.3,285,129.344Zm18.871,7.979,1.847,1.066a.3.3,0,0,0,.269.009l1.768-1.021c.07-.04.063-.109-.016-.155l-1.847-1.066a.3.3,0,0,0-.269-.009l-1.768,1.02C303.788,137.208,303.8,137.278,303.874,137.323Zm-8.069-1.742,4.122,2.379a.3.3,0,0,0,.269.009l4.293-2.479c.07-.04.062-.109-.017-.155l-2.132-1.231a.3.3,0,0,0-.269-.009l-2.272,1.313a.3.3,0,0,1-.269-.009l-1.706-.985a.3.3,0,0,0-.269-.009l-1.768,1.02C295.72,135.466,295.727,135.536,295.805,135.581Zm1.812-7.119-1.848-1.067a.3.3,0,0,0-.269-.009l-1.768,1.02c-.07.04-.063.109.016.155l1.847,1.067a.3.3,0,0,0,.269.009l1.768-1.021C297.7,128.576,297.7,128.507,297.618,128.462Zm-2.7-1.559-1.847-1.066a.3.3,0,0,0-.269-.009l-1.768,1.02c-.07.04-.063.11.016.156l1.847,1.066a.3.3,0,0,0,.269.009l1.768-1.02C295,127.018,294.995,126.948,294.916,126.9Zm-28.833-8.628c-.07.04-.063.11.016.156l1.848,1.066a.3.3,0,0,0,.269.009l1.767-1.02c.07-.04.063-.11-.016-.156l-1.848-1.066a.3.3,0,0,0-.269-.009Zm7.229-3.845-1.848-1.066a.3.3,0,0,0-.268-.009l-1.768,1.02c-.07.04-.063.11.015.156l1.848,1.066a.3.3,0,0,0,.269.009l1.768-1.02C273.4,114.544,273.391,114.474,273.312,114.429Zm-5.414,1.977c-.07.04-.063.11.016.156l1.847,1.066a.3.3,0,0,0,.269.009l1.768-1.02c.07-.04.063-.11-.016-.156l-1.847-1.066a.3.3,0,0,0-.269-.009Zm-2.9,4.3,1.847,1.066a.3.3,0,0,0,.269.009l1.768-1.021c.069-.04.062-.109-.017-.155l-1.847-1.067a.3.3,0,0,0-.269-.009l-1.768,1.02C264.91,120.593,264.917,120.663,265,120.709Zm-2.716-1.714c-.07.04-.063.109.016.155l1.848,1.067a.3.3,0,0,0,.268.009l1.768-1.02c.07-.04.063-.109-.015-.155l-1.848-1.067a.3.3,0,0,0-.269-.009Zm13.734-3.006-1.847-1.067a.3.3,0,0,0-.269-.009l-1.768,1.02c-.069.04-.063.109.016.155l1.848,1.067a.3.3,0,0,0,.268.009l1.768-1.021C276.1,116.1,276.091,116.034,276.013,115.989Zm13.5,7.8-1.848-1.067a.3.3,0,0,0-.269-.009l-1.768,1.02c-.07.04-.063.109.016.155l1.848,1.067a.3.3,0,0,0,.268.009l1.768-1.021C289.6,123.9,289.594,123.83,289.516,123.784Zm-10.8-6.236-1.848-1.067a.3.3,0,0,0-.268-.009l-1.768,1.021c-.07.04-.063.109.016.155l1.848,1.067a.3.3,0,0,0,.269.009l1.768-1.02C278.8,117.662,278.792,117.593,278.713,117.548Zm13.5,7.8-1.848-1.067a.3.3,0,0,0-.268-.009l-1.768,1.021c-.07.04-.063.109.016.155l1.847,1.067a.3.3,0,0,0,.269.009l1.768-1.021C292.3,125.458,292.295,125.389,292.216,125.344Zm-5.4-3.119-1.848-1.066a.3.3,0,0,0-.269-.009l-1.768,1.021c-.07.04-.063.109.016.155l1.848,1.067a.3.3,0,0,0,.268.009l1.768-1.02C286.9,122.34,286.894,122.27,286.815,122.225Zm-2.7-1.559-1.848-1.067a.3.3,0,0,0-.268-.009l-1.768,1.021c-.07.04-.063.109.016.155l1.847,1.067a.3.3,0,0,0,.269.009l1.768-1.021C284.2,120.781,284.193,120.712,284.115,120.666Zm-2.7-1.559-1.848-1.066a.3.3,0,0,0-.269-.009l-1.768,1.02c-.07.04-.063.11.016.156l1.848,1.066a.3.3,0,0,0,.269.009l1.768-1.02C281.5,119.222,281.493,119.152,281.414,119.107Zm-1.812,7.119,1.847,1.066a.3.3,0,0,0,.269.009l1.768-1.02c.069-.04.062-.11-.017-.156l-1.847-1.066a.3.3,0,0,0-.269-.009l-1.768,1.02C279.516,126.111,279.523,126.18,279.6,126.226Zm39.335,14.546L317.09,139.7a.3.3,0,0,0-.269-.009l-1.768,1.021c-.07.04-.063.109.016.155l1.847,1.067a.3.3,0,0,0,.269.009l1.768-1.021C319.023,140.886,319.016,140.817,318.937,140.771Zm-3.269-1.888-1.848-1.066a.3.3,0,0,0-.268-.009l-1.768,1.02c-.07.04-.063.11.016.156l1.847,1.066a.3.3,0,0,0,.269.009l1.768-1.02C315.754,139,315.747,138.929,315.669,138.884Zm5.969,3.446-1.847-1.066a.3.3,0,0,0-.269-.009l-1.768,1.021c-.07.04-.063.109.016.155l1.847,1.067a.3.3,0,0,0,.269.009l1.767-1.02C321.724,142.445,321.716,142.376,321.638,142.33Zm-24.018-8.618,1.848,1.067a.3.3,0,0,0,.269.009l1.768-1.021c.07-.04.063-.109-.016-.155l-1.848-1.067a.3.3,0,0,0-.268-.009l-1.768,1.02C297.534,133.6,297.541,133.667,297.62,133.712Zm26.735,10.332c.07-.04.063-.109-.016-.155l-1.847-1.067a.3.3,0,0,0-.269-.009l-1.768,1.02c-.07.04-.063.11.016.155l1.847,1.067a.3.3,0,0,0,.269.009ZM282.3,127.785l1.847,1.067a.3.3,0,0,0,.269.009l1.768-1.021c.069-.04.063-.109-.016-.155l-1.848-1.067a.3.3,0,0,0-.269-.009l-1.768,1.02C282.217,127.67,282.224,127.739,282.3,127.785Zm33.118,19.121,1.847,1.066a.3.3,0,0,0,.269.009l1.767-1.02c.07-.04.063-.11-.016-.156l-1.847-1.066a.3.3,0,0,0-.269-.009l-1.768,1.02C315.335,146.79,315.341,146.86,315.42,146.905Zm-.176-3.017,1.848,1.067a.3.3,0,0,0,.268.009l1.768-1.02c.07-.04.063-.109-.016-.155l-1.848-1.067a.3.3,0,0,0-.269-.009l-1.768,1.021C315.159,143.774,315.166,143.843,315.245,143.888Zm6.585,1.614c.07-.04.063-.109-.016-.155l-1.848-1.067a.3.3,0,0,0-.269-.009l-1.768,1.02c-.07.04-.063.11.016.155l1.847,1.067a.3.3,0,0,0,.269.009Zm.568.328-4.293,2.479c-.07.04-.062.109.016.155l1.848,1.067a.3.3,0,0,0,.269.009l4.293-2.479c.069-.04.062-.109-.016-.155l-1.848-1.067A.3.3,0,0,0,322.4,145.83Zm-5.986-3.6-1.847-1.067a.3.3,0,0,0-.269-.009l-1.767,1.02c-.07.04-.063.109.016.155l1.848,1.067a.3.3,0,0,0,.269.009l1.768-1.021C316.5,142.344,316.491,142.275,316.412,142.229Zm-20.325-11.735-1.848-1.067a.294.294,0,0,0-.268-.009l-1.768,1.02c-.07.04-.063.109.015.155l1.848,1.067a.3.3,0,0,0,.269.009l1.768-1.021C296.173,130.609,296.165,130.54,296.087,130.494Zm16.617,14.7c-.07.04-.063.109.015.155l1.848,1.067a.3.3,0,0,0,.269.009L316.6,145.4c.07-.04.063-.109-.016-.155l-1.848-1.067a.3.3,0,0,0-.268-.009Zm-13.916-13.138-1.848-1.066a.3.3,0,0,0-.268-.009L294.9,132c-.07.04-.063.109.016.155l1.848,1.067a.3.3,0,0,0,.268.009l1.768-1.02C298.873,132.168,298.866,132.1,298.788,132.053Zm-30-12.219c-.07.04-.063.109.016.155l1.848,1.067a.3.3,0,0,0,.268.009l1.768-1.021c.07-.04.063-.109-.016-.155l-1.848-1.067a.3.3,0,0,0-.268-.009Zm5.7-1.813-1.847-1.067a.3.3,0,0,0-.269-.009l-1.767,1.02c-.07.04-.063.109.016.155l1.847,1.067a.3.3,0,0,0,.269.009l1.768-1.021C274.568,118.136,274.561,118.066,274.482,118.021Zm-2.982,3.527,1.848,1.067a.3.3,0,0,0,.269.009l1.768-1.02c.069-.04.063-.11-.016-.155l-1.848-1.067a.3.3,0,0,0-.269-.009l-1.768,1.021C271.415,121.434,271.422,121.5,271.5,121.548Zm2.7,1.559,1.847,1.067a.3.3,0,0,0,.269.009l1.768-1.021c.07-.04.063-.109-.016-.155l-1.848-1.067a.3.3,0,0,0-.269-.009l-1.768,1.02C274.115,122.992,274.122,123.062,274.2,123.107Zm2.7,1.559,1.847,1.067a.3.3,0,0,0,.269.009l1.768-1.021c.069-.04.063-.109-.017-.155l-1.847-1.067a.3.3,0,0,0-.268-.009l-1.768,1.021C276.816,124.552,276.823,124.621,276.9,124.666Zm.281-5.086-1.847-1.067a.3.3,0,0,0-.269-.009l-1.768,1.021c-.07.04-.063.109.016.155l1.847,1.067a.3.3,0,0,0,.269.009l1.768-1.02C277.268,119.695,277.261,119.626,277.183,119.58Zm2.7,1.559-1.847-1.066a.3.3,0,0,0-.269-.009L276,121.084c-.069.04-.062.11.017.156l1.847,1.066a.3.3,0,0,0,.269.009l1.768-1.021C279.969,121.254,279.962,121.185,279.883,121.139Zm10.8,6.237-1.847-1.067a.3.3,0,0,0-.269-.009l-1.767,1.021c-.07.04-.063.109.016.155l1.847,1.067a.3.3,0,0,0,.269.009l1.768-1.021C290.771,127.491,290.764,127.422,290.686,127.376Zm-2.7-1.559-1.847-1.067a.3.3,0,0,0-.269-.009l-1.768,1.02c-.069.04-.062.11.017.155l1.847,1.067a.3.3,0,0,0,.269.009L288,125.972C288.071,125.931,288.064,125.862,287.985,125.817Zm5.4,3.118-1.847-1.066a.3.3,0,0,0-.269-.009l-1.768,1.02c-.07.04-.063.11.016.156l1.848,1.066a.3.3,0,0,0,.269.009l1.768-1.021C293.472,129.05,293.465,128.98,293.386,128.935Zm-10.8-6.236-1.847-1.067a.3.3,0,0,0-.269-.009l-1.768,1.021c-.07.04-.063.109.016.155l1.847,1.067a.3.3,0,0,0,.269.009l1.768-1.021C282.67,122.813,282.662,122.744,282.584,122.7Zm2.7,1.559-1.847-1.066a.3.3,0,0,0-.269-.009L281.4,124.2c-.069.04-.063.109.016.155l1.848,1.066a.3.3,0,0,0,.269.009l1.767-1.02C285.37,124.373,285.363,124.3,285.285,124.257Zm-17.589-1.99,1.847,1.067a.3.3,0,0,0,.269.009l1.768-1.021c.07-.04.063-.109-.016-.155l-1.847-1.067a.3.3,0,0,0-.269-.009l-1.768,1.021C267.61,122.153,267.617,122.222,267.7,122.267Zm1.164-8.221,1.768-1.021c.07-.04.063-.109-.016-.155l-1.848-1.067a.3.3,0,0,0-.268-.009l-1.768,1.021c-.069.04-.062.109.016.155l1.848,1.067A.3.3,0,0,0,268.86,114.046Zm-1.531,2.032,1.768-1.02c.07-.04.063-.109-.016-.155l-2.842-1.642a.3.3,0,0,0-.269-.009l-1.768,1.021c-.07.04-.063.109.016.155l2.842,1.642A.3.3,0,0,0,267.329,116.078Zm5.022-3.555,1.768-1.021c.07-.04.063-.109-.016-.155l-2.274-1.313a.3.3,0,0,0-.269-.009l-1.768,1.021c-.069.04-.062.109.017.155l2.274,1.313A.3.3,0,0,0,272.351,112.523Zm1.744,1.007c-.07.04-.063.109.016.155l1.847,1.067a.3.3,0,0,0,.269.009l1.768-1.021c.07-.04.063-.109-.016-.155l-1.847-1.067a.3.3,0,0,0-.269-.009Zm-8.58,4.418,1.768-1.021c.07-.04.063-.109-.016-.155l-3.554-2.052a.3.3,0,0,0-.268-.009l-1.768,1.02c-.07.04-.063.109.016.155l3.554,2.052A.3.3,0,0,0,265.515,117.947Zm-3.805.719,1.768-1.021c.07-.04.063-.109-.015-.155l-2.274-1.313a.3.3,0,0,0-.269-.009l-1.767,1.02c-.07.04-.063.109.016.155l2.274,1.313A.3.3,0,0,0,261.71,118.666Zm32.463,6.455c-.07.04-.063.11.016.156l1.848,1.066a.3.3,0,0,0,.268.009l1.768-1.02c.07-.04.063-.11-.016-.156l-1.847-1.066a.3.3,0,0,0-.269-.009Zm-5.4-3.118c-.07.04-.063.109.016.155l1.848,1.067a.3.3,0,0,0,.269.009l1.768-1.021c.07-.04.063-.109-.016-.155l-1.847-1.067a.3.3,0,0,0-.269-.009ZM276.8,115.088c-.07.04-.063.11.016.156l1.847,1.066a.3.3,0,0,0,.269.009l1.768-1.02c.07-.04.063-.11-.016-.156l-1.847-1.066a.3.3,0,0,0-.269-.009Zm14.678,8.475c-.071.04-.063.109.015.155l1.848,1.067a.3.3,0,0,0,.269.009l1.768-1.02c.07-.04.063-.109-.016-.155l-1.848-1.067a.3.3,0,0,0-.268-.009Zm-5.4-3.118c-.069.04-.063.109.017.155l1.847,1.066a.3.3,0,0,0,.269.009l1.768-1.02c.07-.04.063-.11-.016-.155l-1.847-1.067a.3.3,0,0,0-.269-.009Zm-24.551-1.013c.07-.04.063-.109-.015-.155l-2.843-1.642a.3.3,0,0,0-.269-.009l-1.768,1.02c-.07.04-.063.11.016.156l2.843,1.641a.3.3,0,0,0,.268.009Zm20.675-1.225c-.069.04-.062.109.017.155l1.847,1.067a.3.3,0,0,0,.269.009l1.768-1.02c.07-.04.063-.109-.016-.155l-1.847-1.067a.3.3,0,0,0-.269-.009Zm-2.7-1.559c-.069.04-.063.109.016.155l1.848,1.067a.3.3,0,0,0,.269.009l1.767-1.021c.07-.04.063-.109-.016-.155l-1.847-1.067a.3.3,0,0,0-.269-.009Zm32.057,31.67c.07-.04.063-.109-.016-.155l-4.548-2.626a.3.3,0,0,0-.269-.009l-1.768,1.02c-.07.04-.063.11.016.155l4.548,2.626a.3.3,0,0,0,.269.009Zm-5.97-3.446c.07-.04.063-.109-.016-.155l-1.847-1.067a.3.3,0,0,0-.269-.009l-1.768,1.021c-.07.04-.063.109.016.155l1.847,1.067a.3.3,0,0,0,.269.009ZM270.4,123.827l1.847,1.067a.3.3,0,0,0,.269.009l1.768-1.02c.07-.04.063-.11-.016-.156l-1.847-1.066a.3.3,0,0,0-.269-.009l-1.768,1.021C270.311,123.712,270.318,123.781,270.4,123.827Zm29.786,17.926c.069-.04.062-.11-.017-.155l-1.847-1.067a.3.3,0,0,0-.269-.009l-1.768,1.021c-.07.04-.063.109.016.155l1.847,1.067a.3.3,0,0,0,.269.009Zm14.071,8.124c.07-.04.063-.11-.016-.156l-1.848-1.066a.3.3,0,0,0-.268-.009l-1.768,1.021c-.069.04-.062.109.016.155l1.848,1.067a.3.3,0,0,0,.269.009Zm.932,2.58,4.294-2.479c.069-.04.063-.109-.016-.155l-1.848-1.067a.3.3,0,0,0-.269-.009l-4.293,2.478c-.07.04-.063.109.016.155l1.848,1.067A.3.3,0,0,0,315.186,152.456Zm-25.1-16.53c.07-.04.063-.109-.016-.155l-2.274-1.313a.3.3,0,0,0-.269-.009l-1.768,1.02c-.07.04-.063.109.016.155l2.274,1.313a.3.3,0,0,0,.268.009Zm6.822,3.939c.07-.04.063-.109-.016-.155l-2.843-1.642a.3.3,0,0,0-.268-.009l-1.768,1.02c-.07.04-.062.11.016.155l2.843,1.642a.3.3,0,0,0,.269.009Zm-13.077-7.55c.07-.04.063-.109-.016-.155l-15.208-8.781a.3.3,0,0,0-.269-.009l-1.768,1.021c-.07.04-.063.109.016.155l15.208,8.781a.3.3,0,0,0,.269.009Zm-16.061-9.273c.07-.04.063-.109-.016-.155l-2.274-1.313a.3.3,0,0,0-.269-.009l-1.767,1.02c-.07.04-.063.11.016.156l2.274,1.313a.3.3,0,0,0,.269.009Zm19.189,11.079c.07-.04.062-.11-.016-.156l-2.274-1.312a.3.3,0,0,0-.269-.009l-1.767,1.021c-.07.04-.063.109.016.155l2.274,1.313a.3.3,0,0,0,.268.009Zm-22.315-12.884c.07-.04.063-.109-.016-.155l-2.274-1.313a.3.3,0,0,0-.269-.009l-1.768,1.021c-.07.04-.063.109.016.155l2.274,1.313a.3.3,0,0,0,.269.009Zm28.569,16.494c.07-.04.063-.109-.016-.155l-2.274-1.313a.3.3,0,0,0-.268-.009l-1.768,1.021c-.07.04-.063.109.016.155l2.274,1.313a.3.3,0,0,0,.269.009Zm9.666,5.58c.069-.04.062-.109-.017-.155l-1.847-1.067a.3.3,0,0,0-.269-.009l-1.768,1.02c-.07.04-.063.109.016.155l1.847,1.067a.3.3,0,0,0,.269.009Zm7.311,3.493,1.847,1.067a.3.3,0,0,0,.269.009l1.768-1.021c.07-.04.063-.109-.016-.155l-1.847-1.067a.3.3,0,0,0-.269-.009l-1.767,1.021C310.108,146.689,310.116,146.759,310.194,146.8Zm-.919-6.362,1.847,1.066a.3.3,0,0,0,.269.009l1.768-1.02c.07-.04.063-.11-.016-.156l-1.847-1.066a.3.3,0,0,0-.269-.009l-1.768,1.02C309.19,140.326,309.2,140.4,309.275,140.442ZM292,136.3l5.4,3.118a.3.3,0,0,0,.269.009l1.768-1.021c.069-.04.063-.109-.017-.155l-5.4-3.118a.3.3,0,0,0-.268-.009l-1.768,1.02C291.915,136.185,291.922,136.255,292,136.3Zm15.477,8.789c-.07.04-.063.11.016.155l1.847,1.067a.3.3,0,0,0,.269.009l1.768-1.021c.07-.04.063-.109-.016-.155l-1.848-1.067a.3.3,0,0,0-.269-.009Zm2.541-1.3,1.848,1.067a.3.3,0,0,0,.269.009l1.768-1.021c.07-.04.063-.109-.016-.155l-1.847-1.067a.3.3,0,0,0-.269-.009L310,143.632C309.933,143.672,309.941,143.741,310.018,143.786ZM289.3,134.741l1.848,1.067a.3.3,0,0,0,.269.009l1.768-1.021c.07-.04.063-.109-.016-.155l-1.848-1.067a.3.3,0,0,0-.268-.009l-1.767,1.021C289.215,134.626,289.221,134.7,289.3,134.741Zm12.208,6.9c-.07.04-.063.109.016.155l1.848,1.067a.3.3,0,0,0,.269.009l1.768-1.021c.07-.04.063-.109-.016-.155l-1.847-1.067a.3.3,0,0,0-.269-.009Zm-25.71-14.7,1.847,1.067a.3.3,0,0,0,.269.009L279.681,127c.07-.04.063-.109-.016-.155l-1.847-1.067a.3.3,0,0,0-.269-.009l-1.767,1.021C275.712,126.831,275.719,126.9,275.8,126.945Zm2.7,1.559,1.847,1.066a.3.3,0,0,0,.269.009l1.768-1.02c.069-.04.062-.11-.017-.156l-1.847-1.066a.3.3,0,0,0-.269-.009l-1.768,1.02C278.413,128.389,278.419,128.459,278.5,128.5Zm-5.4-3.119,1.847,1.067a.3.3,0,0,0,.269.009l1.768-1.021c.07-.04.063-.109-.016-.155l-1.847-1.067a.3.3,0,0,0-.269-.009l-1.768,1.02C273.011,125.271,273.019,125.34,273.1,125.386Zm10.8,6.237,1.847,1.067a.3.3,0,0,0,.269.009l1.768-1.02c.07-.04.063-.109-.016-.155l-1.848-1.066a.3.3,0,0,0-.268-.009l-1.768,1.021C283.814,131.507,283.821,131.577,283.9,131.623Zm-2.7-1.559,1.847,1.067a.3.3,0,0,0,.269.009l1.768-1.021c.07-.04.063-.109-.016-.155l-1.847-1.067a.3.3,0,0,0-.269-.009l-1.768,1.021C281.113,129.949,281.12,130.018,281.2,130.063Zm5.4,3.118,1.847,1.067a.3.3,0,0,0,.269.009l1.767-1.021c.07-.04.063-.109-.016-.155l-1.847-1.067a.3.3,0,0,0-.269-.009l-1.768,1.02C286.514,133.067,286.521,133.136,286.6,133.181Zm37.568,8.509c-.069.04-.063.11.016.156l1.848,1.066a.3.3,0,0,0,.269.009l.47-.271c.07-.04.063-.11-.016-.156l-1.847-1.066a.3.3,0,0,0-.269-.009Zm-14.72-7.749c-.069.04-.063.109.016.155l1.848,1.066a.3.3,0,0,0,.269.009l1.767-1.02c.07-.04.063-.11-.016-.156l-1.848-1.066a.3.3,0,0,0-.269-.009Zm5.4,3.118c-.07.04-.063.109.016.155l1.848,1.067a.3.3,0,0,0,.269.009l1.768-1.02c.07-.04.063-.11-.016-.155l-1.848-1.067a.3.3,0,0,0-.268-.009Zm-8.7-5.022c-.07.04-.063.109.016.155l1.848,1.067a.3.3,0,0,0,.268.009l1.768-1.021c.069-.04.063-.109-.017-.155l-1.847-1.067a.3.3,0,0,0-.269-.009Zm6,3.463c-.07.04-.063.109.016.155l1.848,1.067a.3.3,0,0,0,.268.009l1.768-1.021c.07-.04.063-.109-.016-.155l-1.848-1.067a.3.3,0,0,0-.268-.009Zm-11.4-6.581c-.07.04-.063.109.016.155l1.848,1.067a.3.3,0,0,0,.269.009l1.768-1.021c.07-.04.063-.109-.016-.155l-1.848-1.067a.3.3,0,0,0-.269-.009Zm2.7,1.559c-.07.04-.063.11.016.156l1.848,1.066a.3.3,0,0,0,.268.009l1.768-1.02c.07-.04.063-.11-.016-.156l-1.848-1.066a.3.3,0,0,0-.269-.009Zm15.317,8.095c-.07.04-.063.109.016.155l1.847,1.067a.3.3,0,0,0,.269.009l.471-.272c.069-.04.063-.109-.016-.155l-1.848-1.066a.3.3,0,0,0-.269-.009Zm8.1,4.678c-.07.04-.063.109.016.155l1.847,1.067a.3.3,0,0,0,.269.009l.471-.272c.069-.04.062-.109-.017-.155l-1.847-1.067a.3.3,0,0,0-.269-.009Zm-3.714,2.144c-.07.04-.063.109.016.155l1.847,1.067a.3.3,0,0,0,.269.009l1.768-1.021c.07-.04.063-.109-.016-.155l-1.847-1.067a.3.3,0,0,0-.269-.009Zm-10.261,2.97,1.848,1.066a.3.3,0,0,0,.268.009l1.768-1.02c.07-.04.063-.11-.015-.156l-1.848-1.066a.3.3,0,0,0-.269-.009l-1.768,1.02C312.809,148.248,312.816,148.318,312.895,148.363Zm8.573-8.232c-.07.04-.063.109.016.155l1.847,1.067a.3.3,0,0,0,.269.009l.47-.271c.07-.04.063-.109-.016-.155l-1.847-1.067a.3.3,0,0,0-.269-.009Zm-23.419-12.772c-.07.04-.063.11.016.155l1.848,1.067a.3.3,0,0,0,.268.009l1.768-1.021c.07-.04.063-.109-.016-.155l-1.848-1.067a.3.3,0,0,0-.268-.009Z" transform="translate(-255.302 -109.134)" opacity="0.2"/>
      </g>
      <g id="Grupo_55651" data-name="Grupo 55651" transform="translate(27.562 83.592)">
        <g id="Grupo_55647" data-name="Grupo 55647">
          <path id="Trazado_118516" data-name="Trazado 118516" d="M294.865,151.073l-.379.218L284.423,157.1l-17.9-10.332-.373-.212,10.442-6.027Z" transform="translate(-266.154 -140.528)" fill="#21587b"/>
        </g>
        <g id="Grupo_55648" data-name="Grupo 55648" opacity="0.6">
          <path id="Trazado_118517" data-name="Trazado 118517" d="M294.865,151.073l-.379.218L284.423,157.1l-17.9-10.332-.373-.212,10.442-6.027Z" transform="translate(-266.154 -140.528)" fill="#21587b"/>
        </g>
        <g id="Grupo_55649" data-name="Grupo 55649" transform="translate(0.373 0.431)">
          <path id="Trazado_118518" data-name="Trazado 118518" d="M294.631,151.459l-10.063,5.809-17.9-10.332,10.069-5.809Z" transform="translate(-266.672 -141.126)" fill="#21587b"/>
        </g>
        <g id="Grupo_55650" data-name="Grupo 55650" transform="translate(0.373 0.431)" opacity="0.5">
          <path id="Trazado_118519" data-name="Trazado 118519" d="M294.631,151.459l-10.063,5.809-17.9-10.332,10.069-5.809Z" transform="translate(-266.672 -141.126)" fill="#21587b"/>
        </g>
      </g>
      <path id="Trazado_118520" data-name="Trazado 118520" d="M377.507,152.52a2.521,2.521,0,0,1-.509.219,2.36,2.36,0,0,0,.509-.215,1.406,1.406,0,0,0,.157-.1C377.614,152.456,377.561,152.49,377.507,152.52Z" transform="translate(-269.632 -60.266)" fill="#00dfbf"/>
      <path id="Trazado_118521" data-name="Trazado 118521" d="M373.663,152.769a.069.069,0,0,0-.027-.023.1.1,0,0,1,.019.019S373.659,152.769,373.663,152.769Z" transform="translate(-268.691 -60.357)" fill="#00dfbf"/>
    </g>
  </g>
  <g id="Black_Laptop" data-name="Black Laptop" transform="translate(0.948 0)">
    <g id="Laptop-2" data-name="Laptop">
      <path id="Trazado_118522" data-name="Trazado 118522" d="M5.221,138.095a4.219,4.219,0,0,0,1.968,3.267L50.031,166.1a4.348,4.348,0,0,0,3.936,0l75.441-43.556a3.7,3.7,0,0,0,0-6.535L86.565,91.271a4.347,4.347,0,0,0-3.935,0L7.189,134.827A4.218,4.218,0,0,0,5.221,138.095Z" transform="translate(-2.41 -25.427)" fill="#2b454e"/>
      <path id="Trazado_118523" data-name="Trazado 118523" d="M52,179.487v4.258a4.016,4.016,0,0,1-1.968-.468L7.188,158.536a3.685,3.685,0,0,1-.2-6.408c-.882.632-.814,1.559.2,2.145l42.845,24.741A4.01,4.01,0,0,0,52,179.487Z" transform="translate(-2.41 -42.601)" fill="#1a2e35"/>
      <path id="Trazado_118524" data-name="Trazado 118524" d="M2.282,109.47c-1.019-.589-.964-1.582-.964-2.837V47.456a4.351,4.351,0,0,1,1.968-3.408L78.726.492A4.221,4.221,0,0,1,82.54.422C83.56,1.01,83.5,2,83.5,3.259V62.436a4.349,4.349,0,0,1-1.968,3.408L6.1,109.4A4.22,4.22,0,0,1,2.282,109.47Z" transform="translate(-1.317 0)" fill="#375a64"/>
      <path id="Trazado_118525" data-name="Trazado 118525" d="M5.863,127.223a4.227,4.227,0,0,1-3.581-.05c-1.018-.586-.963-1.58-.963-2.835V65.159A3.968,3.968,0,0,1,1.9,63.223L4.7,64.849v0a4.037,4.037,0,0,0-.577,1.936v59.179C4.127,127.132,4.886,127.654,5.863,127.223Z" transform="translate(-1.317 -17.705)" fill="#1a2e35"/>
      <path id="Trazado_118526" data-name="Trazado 118526" d="M5.22,49.809v59.176c0,1.255.881,1.764,1.968,1.136L82.629,66.565A4.349,4.349,0,0,0,84.6,63.157V3.981c0-1.255-.881-1.764-1.968-1.136L7.188,46.4A4.349,4.349,0,0,0,5.22,49.809Z" transform="translate(-2.41 -0.721)" fill="#2b454e"/>
      <path id="Trazado_118527" data-name="Trazado 118527" d="M7.637,137.1l42.842,24.74a4.353,4.353,0,0,0,3.936,0l75.441-43.556a1.2,1.2,0,0,0,0-2.272L87.013,91.271a4.347,4.347,0,0,0-3.935,0L7.637,134.827A1.2,1.2,0,0,0,7.637,137.1Z" transform="translate(-2.858 -25.427)" fill="#375a64"/>
      <path id="Trazado_118528" data-name="Trazado 118528" d="M8.965,50.206,81.7,8.224c.652-.377,1.181-.071,1.181.681V63.387A2.61,2.61,0,0,1,81.7,65.433L8.965,107.415c-.652.377-1.181.071-1.181-.682V52.252A2.61,2.61,0,0,1,8.965,50.206Z" transform="translate(-3.128 -2.258)" fill="#fafafa"/>
      <path id="Trazado_118529" data-name="Trazado 118529" d="M15.358,136.3,85.385,95.867a2.173,2.173,0,0,1,1.968,0l1.166.64a.6.6,0,0,1,0,1.136L18.482,138.066a2.173,2.173,0,0,1-1.968,0l-1.156-.634A.6.6,0,0,1,15.358,136.3Z" transform="translate(-5.135 -26.78)" fill="#1a2e35"/>
      <g id="Grupo_55652" data-name="Grupo 55652" transform="translate(15.254 72.085)">
        <path id="Trazado_118530" data-name="Trazado 118530" d="M22.966,140.82l70.025-40.43a2,2,0,0,1,1.8-.1l18.227,10.524c.45.259.374.724-.17,1.038L42.9,152.228a2.019,2.019,0,0,1-1.8.1L22.8,141.854C22.348,141.6,22.423,141.133,22.966,140.82Z" transform="translate(-22.504 -100.123)" fill="#1a2e35"/>
        <path id="Trazado_118531" data-name="Trazado 118531" d="M84.334,117.966l2.192-1.266c.094-.054.1-.136.019-.184l-2.1-1.211a.355.355,0,0,0-.318.011l-2.192,1.266c-.094.053-.1.135-.019.184l2.1,1.211A.353.353,0,0,0,84.334,117.966Zm-3.2-4.38-2.192,1.266c-.094.053-.1.136-.019.184l2.1,1.211a.351.351,0,0,0,.318-.011l2.193-1.266c.093-.054.1-.136.019-.184l-2.1-1.212A.355.355,0,0,0,81.133,113.586Zm-7.084,4.09-3.71,2.142c-.093.054-.1.136-.019.184l2.1,1.212a.355.355,0,0,0,.319-.012l3.71-2.142c.093-.053.1-.136.019-.184l-2.1-1.212A.355.355,0,0,0,74.049,117.676Zm3.879-2.24L75.736,116.7c-.093.054-.1.136-.019.184l2.1,1.211a.355.355,0,0,0,.318-.011l2.193-1.266c.093-.054.1-.137.019-.184l-2.1-1.211A.351.351,0,0,0,77.928,115.436Zm-8.6,4.966-2.192,1.266c-.093.054-.1.136-.019.184l2.1,1.211a.352.352,0,0,0,.319-.011l2.192-1.266c.093-.054.1-.136.019-.184l-2.1-1.211A.352.352,0,0,0,69.327,120.4Zm-3.2,1.85-2.193,1.266c-.093.054-.1.137-.019.184l2.1,1.211a.353.353,0,0,0,.318-.011l2.192-1.266c.094-.054.1-.136.019-.184l-2.1-1.211A.353.353,0,0,0,66.123,122.252Zm8.221,4.942,2.192-1.266c.093-.053.1-.136.019-.184l-2.1-1.211a.355.355,0,0,0-.318.011l-2.193,1.266c-.093.054-.1.136-.019.184l2.1,1.211A.355.355,0,0,0,74.344,127.194Zm-3.2,1.85,2.193-1.266c.093-.054.1-.136.018-.184l-2.1-1.211a.353.353,0,0,0-.318.011l-2.192,1.266c-.094.054-.1.136-.019.184l2.1,1.211A.351.351,0,0,0,71.14,129.044Zm-3.2,1.85,2.193-1.266c.093-.054.1-.136.019-.184l-2.1-1.212a.353.353,0,0,0-.318.012l-2.192,1.266c-.094.054-.1.136-.019.184l2.1,1.211A.351.351,0,0,0,67.935,130.894Zm-3.2,1.85,2.192-1.266c.093-.054.1-.137.019-.184l-2.1-1.211a.354.354,0,0,0-.319.011l-2.192,1.266c-.093.054-.1.136-.019.184l2.1,1.211A.354.354,0,0,0,64.731,132.744Zm16.4-12.928,2.192-1.266c.093-.053.1-.136.019-.184l-2.1-1.211a.355.355,0,0,0-.318.011l-2.192,1.266c-.093.054-.1.136-.019.184l2.1,1.211A.357.357,0,0,0,81.13,119.816Zm-3.581,5.527,4.891-2.824c.093-.054.1-.136.019-.184L77.365,119.4a.352.352,0,0,0-.319.011l-2.529,1.46c-.094.054-.1.136-.019.184l2.7,1.557c.083.048.074.13-.019.184l-2.024,1.169c-.093.053-.1.136-.019.184l2.1,1.211A.351.351,0,0,0,77.549,125.344ZM62.918,124.1l-2.193,1.266c-.093.054-.1.136-.019.184l2.1,1.212a.353.353,0,0,0,.318-.012l2.192-1.266c.094-.053.1-.136.019-.184l-2.1-1.211A.351.351,0,0,0,62.918,124.1Zm-3.2,1.85-2.192,1.266c-.094.054-.1.136-.019.184l2.1,1.211a.351.351,0,0,0,.318-.011l2.193-1.266c.093-.054.1-.136.019-.184l-2.1-1.211A.351.351,0,0,0,59.714,125.953ZM41.982,145.706a.353.353,0,0,0,.318-.012l2.192-1.266c.094-.053.1-.136.019-.184l-2.1-1.211a.351.351,0,0,0-.318.011L39.9,144.31c-.094.054-.1.136-.019.184Zm-7.9-4.953-2.193,1.266c-.093.054-.1.136-.019.184l2.1,1.21a.351.351,0,0,0,.318-.011l2.192-1.266c.094-.053.1-.136.019-.184l-2.1-1.211A.353.353,0,0,0,34.079,140.753Zm4.063,3.709a.357.357,0,0,0,.319-.011l2.192-1.266c.093-.053.1-.136.019-.184l-2.1-1.211a.357.357,0,0,0-.319.011l-2.192,1.266c-.093.054-.1.136-.019.184Zm8.841,1.989,2.193-1.266c.093-.054.1-.136.019-.184l-2.1-1.211a.357.357,0,0,0-.319.011l-2.192,1.266c-.093.053-.1.136-.019.184l2.1,1.211A.353.353,0,0,0,46.983,146.451Zm-3.522,1.861a.355.355,0,0,0,.318-.011l2.192-1.266c.093-.053.1-.136.019-.184l-2.1-1.211a.354.354,0,0,0-.319.011l-2.192,1.266c-.093.054-.1.136-.019.184ZM37.283,138.9l-2.192,1.266c-.093.054-.1.136-.019.184l2.1,1.211a.354.354,0,0,0,.319-.011l2.192-1.266c.094-.054.1-.136.019-.184l-2.1-1.211A.357.357,0,0,0,37.283,138.9Zm16.022-9.25-2.192,1.266c-.093.054-.1.136-.019.184l2.1,1.211a.357.357,0,0,0,.319-.011l2.192-1.266c.093-.053.1-.136.019-.184l-2.1-1.211A.352.352,0,0,0,53.3,129.653Zm-12.818,7.4-2.192,1.266c-.093.053-.1.136-.019.184l2.1,1.211a.352.352,0,0,0,.319-.011l2.192-1.266c.093-.054.1-.136.019-.184l-2.1-1.212A.355.355,0,0,0,40.487,137.053ZM56.509,127.8l-2.192,1.266c-.094.053-.1.136-.019.184l2.1,1.211a.354.354,0,0,0,.319-.011l2.192-1.266c.093-.054.1-.136.019-.184l-2.1-1.211A.357.357,0,0,0,56.509,127.8ZM50.1,131.5l-2.193,1.266c-.093.053-.1.136-.019.184l2.1,1.211a.351.351,0,0,0,.318-.011l2.192-1.266c.094-.054.1-.136.019-.184l-2.1-1.211A.351.351,0,0,0,50.1,131.5Zm-3.2,1.85L44.7,134.619c-.094.053-.1.136-.019.184l2.1,1.211A.355.355,0,0,0,47.1,136l2.193-1.266c.093-.054.1-.136.019-.184l-2.1-1.211A.355.355,0,0,0,46.9,133.353Zm-3.2,1.85L41.5,136.469c-.094.054-.1.136-.019.184l2.1,1.211a.355.355,0,0,0,.318-.011l2.193-1.266c.093-.053.1-.136.019-.184l-2.1-1.211A.353.353,0,0,0,43.692,135.2Zm14.63,1.241,2.192-1.266c.094-.054.1-.136.019-.184l-2.1-1.212a.353.353,0,0,0-.318.012l-2.193,1.266c-.093.054-.1.136-.019.184l2.1,1.211A.351.351,0,0,0,58.322,136.444ZM88.217,109.5l-2.193,1.266c-.093.054-.1.136-.019.184l2.1,1.211a.355.355,0,0,0,.318-.011l2.192-1.266c.094-.054.1-.136.019-.184l-2.1-1.211A.355.355,0,0,0,88.217,109.5Zm-3.879,2.24L82.145,113c-.094.054-.1.136-.019.184l2.1,1.211a.351.351,0,0,0,.318-.011l2.192-1.266c.094-.054.1-.136.019-.184l-2.1-1.211A.351.351,0,0,0,84.337,111.736Zm7.083-4.089-2.192,1.266c-.093.053-.1.136-.019.184l2.1,1.211a.354.354,0,0,0,.319-.011l2.192-1.266c.093-.054.1-.136.019-.184l-2.1-1.211A.355.355,0,0,0,91.42,107.647ZM73.709,124.1l2.192-1.266c.093-.054.1-.136.019-.184l-2.1-1.211a.352.352,0,0,0-.319.011l-2.192,1.266c-.094.054-.1.136-.019.184l2.1,1.211A.352.352,0,0,0,73.709,124.1Zm21.234-18.315a.351.351,0,0,0-.318.011l-2.192,1.266c-.093.054-.1.136-.019.184l2.1,1.211a.351.351,0,0,0,.318-.011l2.193-1.266c.093-.054.1-.136.019-.184ZM61.527,134.594l2.192-1.266c.093-.054.1-.136.019-.184l-2.1-1.211a.352.352,0,0,0-.319.011l-2.192,1.266c-.093.054-.1.136-.019.184l2.1,1.211A.352.352,0,0,0,61.527,134.594Zm39.3-22.688,2.192-1.266c.093-.054.1-.136.019-.184l-2.1-1.21a.351.351,0,0,0-.318.011l-2.192,1.266c-.093.053-.1.136-.019.184l2.1,1.211A.352.352,0,0,0,100.823,111.906Zm-6.2.12,2.192-1.266c.093-.054.1-.136.019-.184l-2.1-1.211a.355.355,0,0,0-.318.011l-2.193,1.266c-.093.054-.1.137-.019.184l2.1,1.211A.352.352,0,0,0,94.622,112.026Zm3.318-4.511a.351.351,0,0,0-.318.011l-2.192,1.266c-.093.054-.1.136-.019.184l2.1,1.211a.351.351,0,0,0,.318-.011l2.193-1.266c.093-.054.1-.136.019-.184Zm.675-.389,5.094,2.941a.355.355,0,0,0,.318-.011l2.192-1.266c.094-.054.1-.137.019-.184l-5.094-2.941a.355.355,0,0,0-.318.011l-2.192,1.266C98.54,107,98.532,107.078,98.615,107.126Zm-7.4,4.1-2.193,1.266c-.093.054-.1.136-.019.184l2.1,1.211a.355.355,0,0,0,.318-.011l2.192-1.266c.094-.053.1-.136.019-.184l-2.1-1.211A.353.353,0,0,0,91.213,111.227ZM67.1,125.151,64.9,126.416c-.093.054-.1.136-.019.184l2.1,1.211a.355.355,0,0,0,.318-.011l2.192-1.266c.094-.054.1-.136.019-.184l-2.1-1.211A.353.353,0,0,0,67.1,125.151Zm30.2-11.383a.355.355,0,0,0,.318-.011l2.192-1.266c.093-.054.1-.136.019-.184l-2.1-1.211a.355.355,0,0,0-.318.011l-2.193,1.266c-.093.053-.1.136-.019.184Zm-27,9.534-2.192,1.266c-.093.054-.1.136-.019.184l2.1,1.211a.352.352,0,0,0,.319-.011l2.192-1.266c.093-.054.1-.136.019-.184l-2.1-1.212A.355.355,0,0,0,70.3,123.3ZM45.186,143.855a.357.357,0,0,0,.319-.011l2.192-1.266c.093-.054.1-.136.019-.184l-2.1-1.211a.353.353,0,0,0-.318.011l-2.193,1.266c-.093.054-.1.137-.019.184Zm-3.726-3.9-2.192,1.266c-.093.053-.1.136-.019.184l2.1,1.211a.354.354,0,0,0,.319-.011l2.192-1.266c.093-.054.1-.136.019-.184l-2.1-1.211A.357.357,0,0,0,41.46,139.951Zm7.249,2.043,2.193-1.266c.093-.054.1-.136.019-.184l-2.1-1.21a.352.352,0,0,0-.319.011l-2.192,1.266c-.093.053-.1.136-.019.184l2.1,1.211A.353.353,0,0,0,48.708,141.994Zm3.2-1.85,2.193-1.266c.093-.054.1-.136.019-.184l-2.1-1.211a.351.351,0,0,0-.318.011l-2.192,1.266c-.094.054-.1.136-.019.184l2.1,1.212A.355.355,0,0,0,51.913,140.145Zm3.2-1.85,2.192-1.266c.094-.054.1-.136.019-.184l-2.1-1.211a.353.353,0,0,0-.318.011l-2.192,1.266c-.094.054-.1.137-.019.184l2.1,1.211A.353.353,0,0,0,55.118,138.294ZM44.664,138.1l-2.192,1.266c-.094.054-.1.136-.019.184l2.1,1.21a.351.351,0,0,0,.318-.011l2.193-1.266c.093-.053.1-.136.019-.184l-2.1-1.211A.351.351,0,0,0,44.664,138.1Zm3.2-1.85-2.192,1.266c-.094.054-.1.136-.019.184l2.1,1.211a.355.355,0,0,0,.318-.011l2.193-1.266c.093-.053.1-.135.019-.184l-2.1-1.211A.355.355,0,0,0,47.869,136.251Zm12.818-7.4-2.192,1.266c-.094.054-.1.136-.019.184l2.1,1.211a.353.353,0,0,0,.318-.011l2.192-1.266c.094-.054.1-.136.019-.184L61,128.84A.353.353,0,0,0,60.687,128.851Zm-3.2,1.85-2.192,1.266c-.093.054-.1.137-.019.184l2.1,1.211a.355.355,0,0,0,.318-.011l2.193-1.266c.093-.054.1-.136.019-.184l-2.1-1.211A.353.353,0,0,0,57.482,130.7Zm6.409-3.7L61.7,128.267c-.093.054-.1.136-.019.184l2.1,1.212a.353.353,0,0,0,.318-.012l2.192-1.266c.094-.054.1-.136.019-.184l-2.1-1.211A.351.351,0,0,0,63.891,127Zm-12.818,7.4-2.193,1.266c-.093.053-.1.136-.019.184l2.1,1.211a.353.353,0,0,0,.318-.011l2.192-1.266c.094-.054.1-.136.019-.184l-2.1-1.21A.353.353,0,0,0,51.074,134.4Zm3.2-1.85-2.192,1.266c-.093.054-.1.136-.019.184l2.1,1.212a.355.355,0,0,0,.318-.011l2.192-1.266c.093-.053.1-.136.019-.184l-2.1-1.211A.352.352,0,0,0,54.277,132.551ZM50.187,144.6l2.193-1.266c.093-.054.1-.136.019-.184l-2.1-1.211a.351.351,0,0,0-.318.011l-2.192,1.266c-.094.054-.1.136-.019.184l2.1,1.211A.351.351,0,0,0,50.187,144.6Zm-16.9-.8-2.1-1.212a.353.353,0,0,0-.318.012l-2.192,1.266c-.094.053-.1.136-.019.184l2.1,1.211a.351.351,0,0,0,.318-.011l2.192-1.266C33.365,143.933,33.372,143.851,33.29,143.8Zm4.177,1.048-2.1-1.211a.353.353,0,0,0-.318.011L31.678,145.6c-.094.053-.1.136-.019.184l2.1,1.211a.353.353,0,0,0,.318-.011l3.373-1.948C37.542,144.981,37.55,144.9,37.467,144.852Zm-7.308-3.441-2.1-1.21a.352.352,0,0,0-.319.011l-2.7,1.557c-.093.054-.1.137-.019.184l2.1,1.211a.357.357,0,0,0,.319-.011l2.7-1.558C30.233,141.541,30.242,141.459,30.159,141.411Zm2.069-1.194a.351.351,0,0,0,.318-.011l2.192-1.266c.094-.054.1-.136.019-.184l-2.1-1.211a.352.352,0,0,0-.319.011l-2.192,1.266c-.093.054-.1.136-.019.184Zm9.079,5.878-2.1-1.211a.353.353,0,0,0-.318.012l-4.216,2.434c-.094.054-.1.136-.019.184l2.1,1.211a.351.351,0,0,0,.318-.011l4.216-2.434C41.381,146.225,41.39,146.143,41.307,146.095Zm1.479,2.607-2.1-1.211a.351.351,0,0,0-.318.011l-2.7,1.558c-.094.053-.1.136-.019.184l2.1,1.211a.353.353,0,0,0,.318-.011l2.7-1.558C42.86,148.831,42.868,148.749,42.786,148.7Zm13.268-22.24a.355.355,0,0,0,.318-.011l2.192-1.266c.093-.053.1-.135.019-.184l-2.1-1.211a.357.357,0,0,0-.319.011l-2.192,1.266c-.093.054-.1.136-.019.184Zm-6.409,3.7a.351.351,0,0,0,.318-.011l2.193-1.266c.093-.054.1-.136.019-.184l-2.1-1.211a.355.355,0,0,0-.318.011l-2.192,1.266c-.094.053-.1.136-.019.184Zm-14.212,8.205a.354.354,0,0,0,.319-.011l2.192-1.266c.093-.054.1-.137.019-.184l-2.1-1.211a.354.354,0,0,0-.319.011l-2.192,1.266c-.093.054-.1.136-.019.184Zm17.417-10.056a.351.351,0,0,0,.318-.011l2.193-1.266c.093-.053.1-.136.019-.184l-2.1-1.211a.353.353,0,0,0-.318.011l-2.192,1.266c-.094.054-.1.136-.019.184Zm-6.409,3.7a.357.357,0,0,0,.319-.011l2.192-1.266c.093-.054.1-.137.019-.184l-2.1-1.211a.354.354,0,0,0-.319.011l-2.192,1.266c-.094.054-.1.136-.019.184Zm-2.081,16.819a.351.351,0,0,0-.318.011l-3.373,1.948c-.094.053-.1.136-.019.184l2.1,1.211a.353.353,0,0,0,.318-.011l3.373-1.948c.094-.054.1-.136.019-.184Zm-2.518-14.165a.351.351,0,0,0,.318-.011l2.192-1.266c.094-.054.1-.136.019-.184L42.273,132a.351.351,0,0,0-.318.011l-2.192,1.266c-.094.054-.1.136-.019.184Zm-3.2,1.85a.351.351,0,0,0,.318-.011l2.193-1.266c.093-.054.1-.136.019-.184l-2.1-1.212a.355.355,0,0,0-.319.012l-2.192,1.266c-.094.054-.1.136-.019.184Zm65.089-21.961a.357.357,0,0,0-.319.011l-5.4,3.116c-.093.054-.1.136-.019.184l2.1,1.21a.351.351,0,0,0,.318-.011l5.4-3.116c.093-.053.1-.135.019-.184Zm-7.084,4.09a.351.351,0,0,0-.318.011l-2.192,1.266c-.094.054-.1.136-.019.184l2.1,1.211a.353.353,0,0,0,.318-.011l2.192-1.266c.094-.054.1-.136.019-.184Zm-43.25,24.105,2.192-1.266c.094-.054.1-.137.019-.184l-2.1-1.211a.351.351,0,0,0-.318.011L51,141.367c-.094.054-.1.136-.019.184l2.1,1.211A.355.355,0,0,0,53.392,142.751Zm36.841-20.405a.352.352,0,0,0-.319.011l-2.192,1.266c-.094.054-.1.136-.019.184l2.1,1.212a.355.355,0,0,0,.318-.011l2.193-1.266c.093-.053.1-.136.019-.184Zm16.7-9.64a.357.357,0,0,0-.319.011l-2.192,1.266c-.093.053-.1.136-.019.184l2.1,1.211a.353.353,0,0,0,.318-.011l2.193-1.266c.093-.054.1-.136.019-.184Zm5.3-.639-5.094-2.941a.351.351,0,0,0-.318.011l-2.192,1.266c-.094.054-.1.136-.019.184l5.094,2.942a.355.355,0,0,0,.318-.011l2.193-1.266C112.306,112.2,112.315,112.114,112.232,112.067ZM78.259,129.259a.357.357,0,0,0-.319.011l-2.7,1.558c-.093.054-.1.136-.019.184l2.1,1.211a.353.353,0,0,0,.318-.012l2.7-1.557c.093-.054.1-.137.019-.184Zm8.1-4.674a.355.355,0,0,0-.318.011l-3.374,1.948c-.093.053-.1.135-.019.184l2.1,1.211a.355.355,0,0,0,.318-.011l3.373-1.948c.094-.054.1-.136.019-.184Zm-15.516,8.959a.354.354,0,0,0-.319.011L52.473,143.973c-.093.054-.1.136-.019.184l2.1,1.211a.353.353,0,0,0,.318-.011l18.046-10.419c.093-.054.1-.137.019-.184Zm-19.058,11a.351.351,0,0,0-.318.011l-2.7,1.558c-.094.053-.1.136-.019.184l2.1,1.211a.353.353,0,0,0,.318-.011l2.7-1.558c.093-.054.1-.136.018-.184ZM74.548,131.4a.351.351,0,0,0-.318.011l-2.7,1.558c-.094.053-.1.136-.019.184l2.1,1.211a.351.351,0,0,0,.318-.011l2.7-1.558c.094-.054.1-.136.019-.184ZM48.069,146.688a.355.355,0,0,0-.318.011l-2.7,1.558c-.093.054-.1.136-.019.184l2.1,1.211a.357.357,0,0,0,.319-.011l2.7-1.558c.093-.054.1-.136.019-.184Zm33.9-19.572a.351.351,0,0,0-.318.011l-2.7,1.558c-.093.053-.1.136-.019.184l2.1,1.211a.351.351,0,0,0,.318-.011l2.7-1.558c.093-.053.1-.136.019-.184ZM93.437,120.5a.355.355,0,0,0-.318.011l-2.192,1.266c-.094.054-.1.136-.019.184l2.1,1.211a.355.355,0,0,0,.318-.011l2.193-1.266c.093-.054.1-.136.019-.184Zm7.178-5.009,2.192-1.266c.093-.054.1-.137.019-.184l-2.1-1.211a.357.357,0,0,0-.319.011L98.218,114.1c-.093.054-.1.137-.019.184l2.1,1.211A.353.353,0,0,0,100.615,115.487Zm-13.077.629,2.192-1.266c.094-.054.1-.136.019-.184l-2.1-1.211a.351.351,0,0,0-.318.011l-2.192,1.266c-.094.054-.1.136-.019.184l2.1,1.211A.351.351,0,0,0,87.538,116.116ZM79.027,127.95l6.409-3.7c.094-.054.1-.136.019-.184l-2.1-1.211a.355.355,0,0,0-.319.012l-6.408,3.7c-.094.053-.1.136-.019.184l2.1,1.211A.351.351,0,0,0,79.027,127.95Zm18.065-10.6a.353.353,0,0,0,.318-.012L99.6,116.07c.094-.053.1-.136.019-.184l-2.1-1.211a.351.351,0,0,0-.318.011l-2.193,1.266c-.093.054-.1.136-.019.184Zm-2.678-1.741,2.192-1.266c.093-.053.1-.136.019-.184l-2.1-1.211a.351.351,0,0,0-.318.011l-2.193,1.266c-.093.054-.1.136-.019.184l2.1,1.211A.355.355,0,0,0,94.414,115.607ZM75.823,129.8l2.192-1.266c.093-.054.1-.136.019-.184l-2.1-1.211a.357.357,0,0,0-.319.011l-2.192,1.266c-.093.053-.1.136-.019.184l2.1,1.211A.354.354,0,0,0,75.823,129.8Zm14.186-8.363a.353.353,0,0,0,.318-.011l2.193-1.266c.093-.054.1-.137.019-.184l-2.1-1.211a.355.355,0,0,0-.318.011l-2.192,1.266c-.094.054-.1.136-.019.184ZM59.8,139.05l2.192-1.266c.093-.054.1-.136.019-.184l-2.1-1.211a.352.352,0,0,0-.319.011L57.4,137.667c-.093.054-.1.136-.019.184l2.1,1.211A.352.352,0,0,0,59.8,139.05Zm3.2-1.85,2.192-1.266c.093-.053.1-.136.019-.184l-2.1-1.211a.353.353,0,0,0-.318.011l-2.192,1.266c-.093.054-.1.136-.019.184l2.1,1.211A.357.357,0,0,0,63.006,137.2ZM56.6,140.9l2.192-1.266c.094-.054.1-.136.019-.184l-2.1-1.211a.355.355,0,0,0-.318.011L54.2,139.517c-.093.053-.1.136-.019.184l2.1,1.211A.353.353,0,0,0,56.6,140.9Zm12.818-7.4,2.192-1.266c.094-.054.1-.136.019-.184l-2.1-1.211a.351.351,0,0,0-.318.011l-2.193,1.266c-.093.054-.1.136-.019.184l2.1,1.211A.351.351,0,0,0,69.414,133.5Zm-3.2,1.85,2.192-1.266c.094-.054.1-.136.019-.184l-2.1-1.211A.355.355,0,0,0,66,132.7l-2.192,1.266c-.094.054-.1.137-.019.184l2.1,1.211A.353.353,0,0,0,66.209,135.35Zm6.409-3.7,2.192-1.266c.093-.053.1-.136.019-.184l-2.1-1.211a.353.353,0,0,0-.318.011l-2.193,1.266c-.093.054-.1.136-.019.184l2.1,1.211A.357.357,0,0,0,72.619,131.651Zm17.487-25.737a.353.353,0,0,0,.318-.011l2.193-1.266c.093-.054.1-.136.019-.184l-.559-.323a.353.353,0,0,0-.318.012l-2.193,1.266c-.093.053-.1.136-.018.184ZM74.178,116a.351.351,0,0,0,.318-.011l2.193-1.266c.093-.054.1-.136.019-.184l-2.1-1.211a.351.351,0,0,0-.318.011L72.1,114.6c-.094.054-.1.136-.019.184Zm6.409-3.7a.355.355,0,0,0,.318-.011l2.192-1.266c.093-.054.1-.136.019-.184l-2.1-1.211a.357.357,0,0,0-.319.011L78.508,110.9c-.093.053-.1.136-.019.184Zm-10.322,5.959a.354.354,0,0,0,.319-.011l2.192-1.266c.093-.054.1-.136.019-.184l-2.1-1.211a.355.355,0,0,0-.319.012l-2.192,1.266c-.093.053-.1.136-.019.184Zm7.118-4.109a.355.355,0,0,0,.318-.011l2.193-1.266c.093-.053.1-.136.018-.184l-2.1-1.211a.353.353,0,0,0-.318.011L75.3,112.752c-.094.054-.1.136-.019.184Zm-13.526,7.809a.353.353,0,0,0,.318-.012l2.192-1.266c.094-.053.1-.136.019-.184l-2.1-1.211a.351.351,0,0,0-.318.011l-2.193,1.266c-.093.054-.1.136-.019.184Zm3.2-1.85a.357.357,0,0,0,.319-.011l2.192-1.266c.093-.053.1-.135.019-.184l-2.1-1.211a.357.357,0,0,0-.319.011l-2.192,1.266c-.093.054-.1.136-.019.184ZM83.7,109.613a.352.352,0,0,0,.319-.011l2.192-1.266c.093-.054.1-.136.019-.184l-.559-.323a.351.351,0,0,0-.318.011l-2.192,1.266c-.093.054-.1.136-.019.184Zm9.614-5.55a.351.351,0,0,0,.318-.011l2.192-1.266c.094-.054.1-.136.019-.184l-.558-.323a.353.353,0,0,0-.318.011l-2.193,1.266c-.093.054-.1.136-.019.184Zm4.406,2.544a.355.355,0,0,0,.318-.011l2.192-1.266c.094-.054.1-.137.019-.184l-2.1-1.211a.351.351,0,0,0-.318.011l-2.192,1.266c-.094.054-.1.137-.019.184Zm6.1,7.029,2.193-1.266c.093-.054.1-.136.019-.184l-2.1-1.211a.352.352,0,0,0-.319.011l-2.192,1.266c-.093.053-.1.136-.019.184l2.1,1.211A.351.351,0,0,0,103.819,113.636ZM86.9,107.763a.351.351,0,0,0,.318-.011l2.193-1.266c.093-.053.1-.136.019-.184l-.559-.323a.353.353,0,0,0-.318.011l-2.192,1.266c-.094.054-.1.137-.019.184ZM60.652,123.807a.353.353,0,0,0,.318-.011l2.192-1.266c.094-.054.1-.136.019-.184l-2.1-1.211a.355.355,0,0,0-.318.011l-2.193,1.266c-.093.053-.1.136-.018.184Z" transform="translate(-23.194 -100.718)" fill="#00dfbf"/>
        <path id="Trazado_118532" data-name="Trazado 118532" d="M84.334,117.966l2.192-1.266c.094-.054.1-.136.019-.184l-2.1-1.211a.355.355,0,0,0-.318.011l-2.192,1.266c-.094.053-.1.135-.019.184l2.1,1.211A.353.353,0,0,0,84.334,117.966Zm-3.2-4.38-2.192,1.266c-.094.053-.1.136-.019.184l2.1,1.211a.351.351,0,0,0,.318-.011l2.193-1.266c.093-.054.1-.136.019-.184l-2.1-1.212A.355.355,0,0,0,81.133,113.586Zm-7.084,4.09-3.71,2.142c-.093.054-.1.136-.019.184l2.1,1.212a.355.355,0,0,0,.319-.012l3.71-2.142c.093-.053.1-.136.019-.184l-2.1-1.212A.355.355,0,0,0,74.049,117.676Zm3.879-2.24L75.736,116.7c-.093.054-.1.136-.019.184l2.1,1.211a.355.355,0,0,0,.318-.011l2.193-1.266c.093-.054.1-.137.019-.184l-2.1-1.211A.351.351,0,0,0,77.928,115.436Zm-8.6,4.966-2.192,1.266c-.093.054-.1.136-.019.184l2.1,1.211a.352.352,0,0,0,.319-.011l2.192-1.266c.093-.054.1-.136.019-.184l-2.1-1.211A.352.352,0,0,0,69.327,120.4Zm-3.2,1.85-2.193,1.266c-.093.054-.1.137-.019.184l2.1,1.211a.353.353,0,0,0,.318-.011l2.192-1.266c.094-.054.1-.136.019-.184l-2.1-1.211A.353.353,0,0,0,66.123,122.252Zm8.221,4.942,2.192-1.266c.093-.053.1-.136.019-.184l-2.1-1.211a.355.355,0,0,0-.318.011l-2.193,1.266c-.093.054-.1.136-.019.184l2.1,1.211A.355.355,0,0,0,74.344,127.194Zm-3.2,1.85,2.193-1.266c.093-.054.1-.136.018-.184l-2.1-1.211a.353.353,0,0,0-.318.011l-2.192,1.266c-.094.054-.1.136-.019.184l2.1,1.211A.351.351,0,0,0,71.14,129.044Zm-3.2,1.85,2.193-1.266c.093-.054.1-.136.019-.184l-2.1-1.212a.353.353,0,0,0-.318.012l-2.192,1.266c-.094.054-.1.136-.019.184l2.1,1.211A.351.351,0,0,0,67.935,130.894Zm-3.2,1.85,2.192-1.266c.093-.054.1-.137.019-.184l-2.1-1.211a.354.354,0,0,0-.319.011l-2.192,1.266c-.093.054-.1.136-.019.184l2.1,1.211A.354.354,0,0,0,64.731,132.744Zm16.4-12.928,2.192-1.266c.093-.053.1-.136.019-.184l-2.1-1.211a.355.355,0,0,0-.318.011l-2.192,1.266c-.093.054-.1.136-.019.184l2.1,1.211A.357.357,0,0,0,81.13,119.816Zm-3.581,5.527,4.891-2.824c.093-.054.1-.136.019-.184L77.365,119.4a.352.352,0,0,0-.319.011l-2.529,1.46c-.094.054-.1.136-.019.184l2.7,1.557c.083.048.074.13-.019.184l-2.024,1.169c-.093.053-.1.136-.019.184l2.1,1.211A.351.351,0,0,0,77.549,125.344ZM62.918,124.1l-2.193,1.266c-.093.054-.1.136-.019.184l2.1,1.212a.353.353,0,0,0,.318-.012l2.192-1.266c.094-.053.1-.136.019-.184l-2.1-1.211A.351.351,0,0,0,62.918,124.1Zm-3.2,1.85-2.192,1.266c-.094.054-.1.136-.019.184l2.1,1.211a.351.351,0,0,0,.318-.011l2.193-1.266c.093-.054.1-.136.019-.184l-2.1-1.211A.351.351,0,0,0,59.714,125.953ZM41.982,145.706a.353.353,0,0,0,.318-.012l2.192-1.266c.094-.053.1-.136.019-.184l-2.1-1.211a.351.351,0,0,0-.318.011L39.9,144.31c-.094.054-.1.136-.019.184Zm-7.9-4.953-2.193,1.266c-.093.054-.1.136-.019.184l2.1,1.21a.351.351,0,0,0,.318-.011l2.192-1.266c.094-.053.1-.136.019-.184l-2.1-1.211A.353.353,0,0,0,34.079,140.753Zm4.063,3.709a.357.357,0,0,0,.319-.011l2.192-1.266c.093-.053.1-.136.019-.184l-2.1-1.211a.357.357,0,0,0-.319.011l-2.192,1.266c-.093.054-.1.136-.019.184Zm8.841,1.989,2.193-1.266c.093-.054.1-.136.019-.184l-2.1-1.211a.357.357,0,0,0-.319.011l-2.192,1.266c-.093.053-.1.136-.019.184l2.1,1.211A.353.353,0,0,0,46.983,146.451Zm-3.522,1.861a.355.355,0,0,0,.318-.011l2.192-1.266c.093-.053.1-.136.019-.184l-2.1-1.211a.354.354,0,0,0-.319.011l-2.192,1.266c-.093.054-.1.136-.019.184ZM37.283,138.9l-2.192,1.266c-.093.054-.1.136-.019.184l2.1,1.211a.354.354,0,0,0,.319-.011l2.192-1.266c.094-.054.1-.136.019-.184l-2.1-1.211A.357.357,0,0,0,37.283,138.9Zm16.022-9.25-2.192,1.266c-.093.054-.1.136-.019.184l2.1,1.211a.357.357,0,0,0,.319-.011l2.192-1.266c.093-.053.1-.136.019-.184l-2.1-1.211A.352.352,0,0,0,53.3,129.653Zm-12.818,7.4-2.192,1.266c-.093.053-.1.136-.019.184l2.1,1.211a.352.352,0,0,0,.319-.011l2.192-1.266c.093-.054.1-.136.019-.184l-2.1-1.212A.355.355,0,0,0,40.487,137.053ZM56.509,127.8l-2.192,1.266c-.094.053-.1.136-.019.184l2.1,1.211a.354.354,0,0,0,.319-.011l2.192-1.266c.093-.054.1-.136.019-.184l-2.1-1.211A.357.357,0,0,0,56.509,127.8ZM50.1,131.5l-2.193,1.266c-.093.053-.1.136-.019.184l2.1,1.211a.351.351,0,0,0,.318-.011l2.192-1.266c.094-.054.1-.136.019-.184l-2.1-1.211A.351.351,0,0,0,50.1,131.5Zm-3.2,1.85L44.7,134.619c-.094.053-.1.136-.019.184l2.1,1.211A.355.355,0,0,0,47.1,136l2.193-1.266c.093-.054.1-.136.019-.184l-2.1-1.211A.355.355,0,0,0,46.9,133.353Zm-3.2,1.85L41.5,136.469c-.094.054-.1.136-.019.184l2.1,1.211a.355.355,0,0,0,.318-.011l2.193-1.266c.093-.053.1-.136.019-.184l-2.1-1.211A.353.353,0,0,0,43.692,135.2Zm14.63,1.241,2.192-1.266c.094-.054.1-.136.019-.184l-2.1-1.212a.353.353,0,0,0-.318.012l-2.193,1.266c-.093.054-.1.136-.019.184l2.1,1.211A.351.351,0,0,0,58.322,136.444ZM88.217,109.5l-2.193,1.266c-.093.054-.1.136-.019.184l2.1,1.211a.355.355,0,0,0,.318-.011l2.192-1.266c.094-.054.1-.136.019-.184l-2.1-1.211A.355.355,0,0,0,88.217,109.5Zm-3.879,2.24L82.145,113c-.094.054-.1.136-.019.184l2.1,1.211a.351.351,0,0,0,.318-.011l2.192-1.266c.094-.054.1-.136.019-.184l-2.1-1.211A.351.351,0,0,0,84.337,111.736Zm7.083-4.089-2.192,1.266c-.093.053-.1.136-.019.184l2.1,1.211a.354.354,0,0,0,.319-.011l2.192-1.266c.093-.054.1-.136.019-.184l-2.1-1.211A.355.355,0,0,0,91.42,107.647ZM73.709,124.1l2.192-1.266c.093-.054.1-.136.019-.184l-2.1-1.211a.352.352,0,0,0-.319.011l-2.192,1.266c-.094.054-.1.136-.019.184l2.1,1.211A.352.352,0,0,0,73.709,124.1Zm21.234-18.315a.351.351,0,0,0-.318.011l-2.192,1.266c-.093.054-.1.136-.019.184l2.1,1.211a.351.351,0,0,0,.318-.011l2.193-1.266c.093-.054.1-.136.019-.184ZM61.527,134.594l2.192-1.266c.093-.054.1-.136.019-.184l-2.1-1.211a.352.352,0,0,0-.319.011l-2.192,1.266c-.093.054-.1.136-.019.184l2.1,1.211A.352.352,0,0,0,61.527,134.594Zm39.3-22.688,2.192-1.266c.093-.054.1-.136.019-.184l-2.1-1.21a.351.351,0,0,0-.318.011l-2.192,1.266c-.093.053-.1.136-.019.184l2.1,1.211A.352.352,0,0,0,100.823,111.906Zm-6.2.12,2.192-1.266c.093-.054.1-.136.019-.184l-2.1-1.211a.355.355,0,0,0-.318.011l-2.193,1.266c-.093.054-.1.137-.019.184l2.1,1.211A.352.352,0,0,0,94.622,112.026Zm3.318-4.511a.351.351,0,0,0-.318.011l-2.192,1.266c-.093.054-.1.136-.019.184l2.1,1.211a.351.351,0,0,0,.318-.011l2.193-1.266c.093-.054.1-.136.019-.184Zm.675-.389,5.094,2.941a.355.355,0,0,0,.318-.011l2.192-1.266c.094-.054.1-.137.019-.184l-5.094-2.941a.355.355,0,0,0-.318.011l-2.192,1.266C98.54,107,98.532,107.078,98.615,107.126Zm-7.4,4.1-2.193,1.266c-.093.054-.1.136-.019.184l2.1,1.211a.355.355,0,0,0,.318-.011l2.192-1.266c.094-.053.1-.136.019-.184l-2.1-1.211A.353.353,0,0,0,91.213,111.227ZM67.1,125.151,64.9,126.416c-.093.054-.1.136-.019.184l2.1,1.211a.355.355,0,0,0,.318-.011l2.192-1.266c.094-.054.1-.136.019-.184l-2.1-1.211A.353.353,0,0,0,67.1,125.151Zm30.2-11.383a.355.355,0,0,0,.318-.011l2.192-1.266c.093-.054.1-.136.019-.184l-2.1-1.211a.355.355,0,0,0-.318.011l-2.193,1.266c-.093.053-.1.136-.019.184Zm-27,9.534-2.192,1.266c-.093.054-.1.136-.019.184l2.1,1.211a.352.352,0,0,0,.319-.011l2.192-1.266c.093-.054.1-.136.019-.184l-2.1-1.212A.355.355,0,0,0,70.3,123.3ZM45.186,143.855a.357.357,0,0,0,.319-.011l2.192-1.266c.093-.054.1-.136.019-.184l-2.1-1.211a.353.353,0,0,0-.318.011l-2.193,1.266c-.093.054-.1.137-.019.184Zm-3.726-3.9-2.192,1.266c-.093.053-.1.136-.019.184l2.1,1.211a.354.354,0,0,0,.319-.011l2.192-1.266c.093-.054.1-.136.019-.184l-2.1-1.211A.357.357,0,0,0,41.46,139.951Zm7.249,2.043,2.193-1.266c.093-.054.1-.136.019-.184l-2.1-1.21a.352.352,0,0,0-.319.011l-2.192,1.266c-.093.053-.1.136-.019.184l2.1,1.211A.353.353,0,0,0,48.708,141.994Zm3.2-1.85,2.193-1.266c.093-.054.1-.136.019-.184l-2.1-1.211a.351.351,0,0,0-.318.011l-2.192,1.266c-.094.054-.1.136-.019.184l2.1,1.212A.355.355,0,0,0,51.913,140.145Zm3.2-1.85,2.192-1.266c.094-.054.1-.136.019-.184l-2.1-1.211a.353.353,0,0,0-.318.011l-2.192,1.266c-.094.054-.1.137-.019.184l2.1,1.211A.353.353,0,0,0,55.118,138.294ZM44.664,138.1l-2.192,1.266c-.094.054-.1.136-.019.184l2.1,1.21a.351.351,0,0,0,.318-.011l2.193-1.266c.093-.053.1-.136.019-.184l-2.1-1.211A.351.351,0,0,0,44.664,138.1Zm3.2-1.85-2.192,1.266c-.094.054-.1.136-.019.184l2.1,1.211a.355.355,0,0,0,.318-.011l2.193-1.266c.093-.053.1-.135.019-.184l-2.1-1.211A.355.355,0,0,0,47.869,136.251Zm12.818-7.4-2.192,1.266c-.094.054-.1.136-.019.184l2.1,1.211a.353.353,0,0,0,.318-.011l2.192-1.266c.094-.054.1-.136.019-.184L61,128.84A.353.353,0,0,0,60.687,128.851Zm-3.2,1.85-2.192,1.266c-.093.054-.1.137-.019.184l2.1,1.211a.355.355,0,0,0,.318-.011l2.193-1.266c.093-.054.1-.136.019-.184l-2.1-1.211A.353.353,0,0,0,57.482,130.7Zm6.409-3.7L61.7,128.267c-.093.054-.1.136-.019.184l2.1,1.212a.353.353,0,0,0,.318-.012l2.192-1.266c.094-.054.1-.136.019-.184l-2.1-1.211A.351.351,0,0,0,63.891,127Zm-12.818,7.4-2.193,1.266c-.093.053-.1.136-.019.184l2.1,1.211a.353.353,0,0,0,.318-.011l2.192-1.266c.094-.054.1-.136.019-.184l-2.1-1.21A.353.353,0,0,0,51.074,134.4Zm3.2-1.85-2.192,1.266c-.093.054-.1.136-.019.184l2.1,1.212a.355.355,0,0,0,.318-.011l2.192-1.266c.093-.053.1-.136.019-.184l-2.1-1.211A.352.352,0,0,0,54.277,132.551ZM50.187,144.6l2.193-1.266c.093-.054.1-.136.019-.184l-2.1-1.211a.351.351,0,0,0-.318.011l-2.192,1.266c-.094.054-.1.136-.019.184l2.1,1.211A.351.351,0,0,0,50.187,144.6Zm-16.9-.8-2.1-1.212a.353.353,0,0,0-.318.012l-2.192,1.266c-.094.053-.1.136-.019.184l2.1,1.211a.351.351,0,0,0,.318-.011l2.192-1.266C33.365,143.933,33.372,143.851,33.29,143.8Zm4.177,1.048-2.1-1.211a.353.353,0,0,0-.318.011L31.678,145.6c-.094.053-.1.136-.019.184l2.1,1.211a.353.353,0,0,0,.318-.011l3.373-1.948C37.542,144.981,37.55,144.9,37.467,144.852Zm-7.308-3.441-2.1-1.21a.352.352,0,0,0-.319.011l-2.7,1.557c-.093.054-.1.137-.019.184l2.1,1.211a.357.357,0,0,0,.319-.011l2.7-1.558C30.233,141.541,30.242,141.459,30.159,141.411Zm2.069-1.194a.351.351,0,0,0,.318-.011l2.192-1.266c.094-.054.1-.136.019-.184l-2.1-1.211a.352.352,0,0,0-.319.011l-2.192,1.266c-.093.054-.1.136-.019.184Zm9.079,5.878-2.1-1.211a.353.353,0,0,0-.318.012l-4.216,2.434c-.094.054-.1.136-.019.184l2.1,1.211a.351.351,0,0,0,.318-.011l4.216-2.434C41.381,146.225,41.39,146.143,41.307,146.095Zm1.479,2.607-2.1-1.211a.351.351,0,0,0-.318.011l-2.7,1.558c-.094.053-.1.136-.019.184l2.1,1.211a.353.353,0,0,0,.318-.011l2.7-1.558C42.86,148.831,42.868,148.749,42.786,148.7Zm13.268-22.24a.355.355,0,0,0,.318-.011l2.192-1.266c.093-.053.1-.135.019-.184l-2.1-1.211a.357.357,0,0,0-.319.011l-2.192,1.266c-.093.054-.1.136-.019.184Zm-6.409,3.7a.351.351,0,0,0,.318-.011l2.193-1.266c.093-.054.1-.136.019-.184l-2.1-1.211a.355.355,0,0,0-.318.011l-2.192,1.266c-.094.053-.1.136-.019.184Zm-14.212,8.205a.354.354,0,0,0,.319-.011l2.192-1.266c.093-.054.1-.137.019-.184l-2.1-1.211a.354.354,0,0,0-.319.011l-2.192,1.266c-.093.054-.1.136-.019.184Zm17.417-10.056a.351.351,0,0,0,.318-.011l2.193-1.266c.093-.053.1-.136.019-.184l-2.1-1.211a.353.353,0,0,0-.318.011l-2.192,1.266c-.094.054-.1.136-.019.184Zm-6.409,3.7a.357.357,0,0,0,.319-.011l2.192-1.266c.093-.054.1-.137.019-.184l-2.1-1.211a.354.354,0,0,0-.319.011l-2.192,1.266c-.094.054-.1.136-.019.184Zm-2.081,16.819a.351.351,0,0,0-.318.011l-3.373,1.948c-.094.053-.1.136-.019.184l2.1,1.211a.353.353,0,0,0,.318-.011l3.373-1.948c.094-.054.1-.136.019-.184Zm-2.518-14.165a.351.351,0,0,0,.318-.011l2.192-1.266c.094-.054.1-.136.019-.184L42.273,132a.351.351,0,0,0-.318.011l-2.192,1.266c-.094.054-.1.136-.019.184Zm-3.2,1.85a.351.351,0,0,0,.318-.011l2.193-1.266c.093-.054.1-.136.019-.184l-2.1-1.212a.355.355,0,0,0-.319.012l-2.192,1.266c-.094.054-.1.136-.019.184Zm65.089-21.961a.357.357,0,0,0-.319.011l-5.4,3.116c-.093.054-.1.136-.019.184l2.1,1.21a.351.351,0,0,0,.318-.011l5.4-3.116c.093-.053.1-.135.019-.184Zm-7.084,4.09a.351.351,0,0,0-.318.011l-2.192,1.266c-.094.054-.1.136-.019.184l2.1,1.211a.353.353,0,0,0,.318-.011l2.192-1.266c.094-.054.1-.136.019-.184Zm-43.25,24.105,2.192-1.266c.094-.054.1-.137.019-.184l-2.1-1.211a.351.351,0,0,0-.318.011L51,141.367c-.094.054-.1.136-.019.184l2.1,1.211A.355.355,0,0,0,53.392,142.751Zm36.841-20.405a.352.352,0,0,0-.319.011l-2.192,1.266c-.094.054-.1.136-.019.184l2.1,1.212a.355.355,0,0,0,.318-.011l2.193-1.266c.093-.053.1-.136.019-.184Zm16.7-9.64a.357.357,0,0,0-.319.011l-2.192,1.266c-.093.053-.1.136-.019.184l2.1,1.211a.353.353,0,0,0,.318-.011l2.193-1.266c.093-.054.1-.136.019-.184Zm5.3-.639-5.094-2.941a.351.351,0,0,0-.318.011l-2.192,1.266c-.094.054-.1.136-.019.184l5.094,2.942a.355.355,0,0,0,.318-.011l2.193-1.266C112.306,112.2,112.315,112.114,112.232,112.067ZM78.259,129.259a.357.357,0,0,0-.319.011l-2.7,1.558c-.093.054-.1.136-.019.184l2.1,1.211a.353.353,0,0,0,.318-.012l2.7-1.557c.093-.054.1-.137.019-.184Zm8.1-4.674a.355.355,0,0,0-.318.011l-3.374,1.948c-.093.053-.1.135-.019.184l2.1,1.211a.355.355,0,0,0,.318-.011l3.373-1.948c.094-.054.1-.136.019-.184Zm-15.516,8.959a.354.354,0,0,0-.319.011L52.473,143.973c-.093.054-.1.136-.019.184l2.1,1.211a.353.353,0,0,0,.318-.011l18.046-10.419c.093-.054.1-.137.019-.184Zm-19.058,11a.351.351,0,0,0-.318.011l-2.7,1.558c-.094.053-.1.136-.019.184l2.1,1.211a.353.353,0,0,0,.318-.011l2.7-1.558c.093-.054.1-.136.018-.184ZM74.548,131.4a.351.351,0,0,0-.318.011l-2.7,1.558c-.094.053-.1.136-.019.184l2.1,1.211a.351.351,0,0,0,.318-.011l2.7-1.558c.094-.054.1-.136.019-.184ZM48.069,146.688a.355.355,0,0,0-.318.011l-2.7,1.558c-.093.054-.1.136-.019.184l2.1,1.211a.357.357,0,0,0,.319-.011l2.7-1.558c.093-.054.1-.136.019-.184Zm33.9-19.572a.351.351,0,0,0-.318.011l-2.7,1.558c-.093.053-.1.136-.019.184l2.1,1.211a.351.351,0,0,0,.318-.011l2.7-1.558c.093-.053.1-.136.019-.184ZM93.437,120.5a.355.355,0,0,0-.318.011l-2.192,1.266c-.094.054-.1.136-.019.184l2.1,1.211a.355.355,0,0,0,.318-.011l2.193-1.266c.093-.054.1-.136.019-.184Zm7.178-5.009,2.192-1.266c.093-.054.1-.137.019-.184l-2.1-1.211a.357.357,0,0,0-.319.011L98.218,114.1c-.093.054-.1.137-.019.184l2.1,1.211A.353.353,0,0,0,100.615,115.487Zm-13.077.629,2.192-1.266c.094-.054.1-.136.019-.184l-2.1-1.211a.351.351,0,0,0-.318.011l-2.192,1.266c-.094.054-.1.136-.019.184l2.1,1.211A.351.351,0,0,0,87.538,116.116ZM79.027,127.95l6.409-3.7c.094-.054.1-.136.019-.184l-2.1-1.211a.355.355,0,0,0-.319.012l-6.408,3.7c-.094.053-.1.136-.019.184l2.1,1.211A.351.351,0,0,0,79.027,127.95Zm18.065-10.6a.353.353,0,0,0,.318-.012L99.6,116.07c.094-.053.1-.136.019-.184l-2.1-1.211a.351.351,0,0,0-.318.011l-2.193,1.266c-.093.054-.1.136-.019.184Zm-2.678-1.741,2.192-1.266c.093-.053.1-.136.019-.184l-2.1-1.211a.351.351,0,0,0-.318.011l-2.193,1.266c-.093.054-.1.136-.019.184l2.1,1.211A.355.355,0,0,0,94.414,115.607ZM75.823,129.8l2.192-1.266c.093-.054.1-.136.019-.184l-2.1-1.211a.357.357,0,0,0-.319.011l-2.192,1.266c-.093.053-.1.136-.019.184l2.1,1.211A.354.354,0,0,0,75.823,129.8Zm14.186-8.363a.353.353,0,0,0,.318-.011l2.193-1.266c.093-.054.1-.137.019-.184l-2.1-1.211a.355.355,0,0,0-.318.011l-2.192,1.266c-.094.054-.1.136-.019.184ZM59.8,139.05l2.192-1.266c.093-.054.1-.136.019-.184l-2.1-1.211a.352.352,0,0,0-.319.011L57.4,137.667c-.093.054-.1.136-.019.184l2.1,1.211A.352.352,0,0,0,59.8,139.05Zm3.2-1.85,2.192-1.266c.093-.053.1-.136.019-.184l-2.1-1.211a.353.353,0,0,0-.318.011l-2.192,1.266c-.093.054-.1.136-.019.184l2.1,1.211A.357.357,0,0,0,63.006,137.2ZM56.6,140.9l2.192-1.266c.094-.054.1-.136.019-.184l-2.1-1.211a.355.355,0,0,0-.318.011L54.2,139.517c-.093.053-.1.136-.019.184l2.1,1.211A.353.353,0,0,0,56.6,140.9Zm12.818-7.4,2.192-1.266c.094-.054.1-.136.019-.184l-2.1-1.211a.351.351,0,0,0-.318.011l-2.193,1.266c-.093.054-.1.136-.019.184l2.1,1.211A.351.351,0,0,0,69.414,133.5Zm-3.2,1.85,2.192-1.266c.094-.054.1-.136.019-.184l-2.1-1.211A.355.355,0,0,0,66,132.7l-2.192,1.266c-.094.054-.1.137-.019.184l2.1,1.211A.353.353,0,0,0,66.209,135.35Zm6.409-3.7,2.192-1.266c.093-.053.1-.136.019-.184l-2.1-1.211a.353.353,0,0,0-.318.011l-2.193,1.266c-.093.054-.1.136-.019.184l2.1,1.211A.357.357,0,0,0,72.619,131.651Zm17.487-25.737a.353.353,0,0,0,.318-.011l2.193-1.266c.093-.054.1-.136.019-.184l-.559-.323a.353.353,0,0,0-.318.012l-2.193,1.266c-.093.053-.1.136-.018.184ZM74.178,116a.351.351,0,0,0,.318-.011l2.193-1.266c.093-.054.1-.136.019-.184l-2.1-1.211a.351.351,0,0,0-.318.011L72.1,114.6c-.094.054-.1.136-.019.184Zm6.409-3.7a.355.355,0,0,0,.318-.011l2.192-1.266c.093-.054.1-.136.019-.184l-2.1-1.211a.357.357,0,0,0-.319.011L78.508,110.9c-.093.053-.1.136-.019.184Zm-10.322,5.959a.354.354,0,0,0,.319-.011l2.192-1.266c.093-.054.1-.136.019-.184l-2.1-1.211a.355.355,0,0,0-.319.012l-2.192,1.266c-.093.053-.1.136-.019.184Zm7.118-4.109a.355.355,0,0,0,.318-.011l2.193-1.266c.093-.053.1-.136.018-.184l-2.1-1.211a.353.353,0,0,0-.318.011L75.3,112.752c-.094.054-.1.136-.019.184Zm-13.526,7.809a.353.353,0,0,0,.318-.012l2.192-1.266c.094-.053.1-.136.019-.184l-2.1-1.211a.351.351,0,0,0-.318.011l-2.193,1.266c-.093.054-.1.136-.019.184Zm3.2-1.85a.357.357,0,0,0,.319-.011l2.192-1.266c.093-.053.1-.135.019-.184l-2.1-1.211a.357.357,0,0,0-.319.011l-2.192,1.266c-.093.054-.1.136-.019.184ZM83.7,109.613a.352.352,0,0,0,.319-.011l2.192-1.266c.093-.054.1-.136.019-.184l-.559-.323a.351.351,0,0,0-.318.011l-2.192,1.266c-.093.054-.1.136-.019.184Zm9.614-5.55a.351.351,0,0,0,.318-.011l2.192-1.266c.094-.054.1-.136.019-.184l-.558-.323a.353.353,0,0,0-.318.011l-2.193,1.266c-.093.054-.1.136-.019.184Zm4.406,2.544a.355.355,0,0,0,.318-.011l2.192-1.266c.094-.054.1-.137.019-.184l-2.1-1.211a.351.351,0,0,0-.318.011l-2.192,1.266c-.094.054-.1.137-.019.184Zm6.1,7.029,2.193-1.266c.093-.054.1-.136.019-.184l-2.1-1.211a.352.352,0,0,0-.319.011l-2.192,1.266c-.093.053-.1.136-.019.184l2.1,1.211A.351.351,0,0,0,103.819,113.636ZM86.9,107.763a.351.351,0,0,0,.318-.011l2.193-1.266c.093-.053.1-.136.019-.184l-.559-.323a.353.353,0,0,0-.318.011l-2.192,1.266c-.094.054-.1.137-.019.184ZM60.652,123.807a.353.353,0,0,0,.318-.011l2.192-1.266c.094-.054.1-.136.019-.184l-2.1-1.211a.355.355,0,0,0-.318.011l-2.193,1.266c-.093.053-.1.136-.018.184Z" transform="translate(-23.194 -100.718)" fill="#375a64"/>
      </g>
      <g id="Grupo_55656" data-name="Grupo 55656" transform="translate(62.195 99.188)">
        <g id="Grupo_55653" data-name="Grupo 55653">
          <path id="Trazado_118533" data-name="Trazado 118533" d="M87.7,150.28l.45.259,11.94,6.893,21.235-12.26.442-.252-12.39-7.152Z" transform="translate(-87.702 -137.768)" fill="#1a2e35"/>
        </g>
        <g id="Grupo_55654" data-name="Grupo 55654" transform="translate(0.45 0.511)">
          <path id="Trazado_118534" data-name="Trazado 118534" d="M88.327,150.738l11.94,6.893L121.5,145.37l-11.948-6.893Z" transform="translate(-88.327 -138.477)" fill="#2b454e"/>
        </g>
        <g id="Grupo_55655" data-name="Grupo 55655" transform="translate(0.45 0.511)" opacity="0.5">
          <path id="Trazado_118535" data-name="Trazado 118535" d="M88.327,150.738l11.94,6.893L121.5,145.37l-11.948-6.893Z" transform="translate(-88.327 -138.477)" fill="#1a2e35"/>
        </g>
      </g>
      <path id="Trazado_118536" data-name="Trazado 118536" d="M2.583,152a3.037,3.037,0,0,0,.6.259,2.726,2.726,0,0,1-.6-.255,1.569,1.569,0,0,1-.186-.122C2.456,151.921,2.519,151.962,2.583,152Z" transform="translate(-1.619 -42.531)" fill="#00dfbf"/>
      <path id="Trazado_118537" data-name="Trazado 118537" d="M7.44,152.292a.1.1,0,0,1,.032-.027c-.009.009-.018.014-.022.023S7.445,152.292,7.44,152.292Z" transform="translate(-3.032 -42.639)" fill="#00dfbf"/>
    </g>
  </g>
  <g id="Black_Laptop-2" data-name="Black Laptop" transform="translate(145.547 119.257)">
    <g id="Grupo_55671" data-name="Grupo 55671">
      <g id="Grupo_55657" data-name="Grupo 55657" transform="translate(0 55.432)">
        <path id="Trazado_118538" data-name="Trazado 118538" d="M328.565,242.635v1.059a4.362,4.362,0,0,1-2.176,3.773l-76.178,43.979a4.3,4.3,0,0,1-2.169.576,4.384,4.384,0,0,1-2.19-.58l-41.524-23.895a4.371,4.371,0,0,1-2.171-3.773v-1.465h0a.578.578,0,0,0,.285.493l45.6,26.333Z" transform="translate(-202.158 -242.635)" fill="#2b454e"/>
      </g>
      <g id="Grupo_55658" data-name="Grupo 55658" transform="translate(0 29.006)">
        <path id="Trazado_118539" data-name="Trazado 118539" d="M328.57,232.354,283.4,206.278a2.594,2.594,0,0,0-2.6,0l-78.36,45.247a.577.577,0,0,0,0,1l45.593,26.327Z" transform="translate(-202.158 -205.93)" fill="#375a64"/>
      </g>
      <g id="Grupo_55659" data-name="Grupo 55659" transform="translate(0 29.006)" opacity="0.2">
        <path id="Trazado_118540" data-name="Trazado 118540" d="M328.57,232.354,283.4,206.278a2.594,2.594,0,0,0-2.6,0l-78.36,45.247a.577.577,0,0,0,0,1l45.593,26.327Z" transform="translate(-202.158 -205.93)" fill="#1a2e35"/>
      </g>
      <g id="Grupo_55660" data-name="Grupo 55660" transform="translate(21.102 42.913)" opacity="0.3">
        <path id="Trazado_118541" data-name="Trazado 118541" d="M255.83,280.425l-24.363-14.051L302.7,225.246l24.489,13.978Z" transform="translate(-231.467 -225.246)"/>
      </g>
      <g id="Grupo_55661" data-name="Grupo 55661" transform="translate(21.106 42.912)">
        <path id="Trazado_118542" data-name="Trazado 118542" d="M327.193,239.223l-.93.535L302.7,226.316l-70.3,40.6-.93-.535L302.7,225.245Z" transform="translate(-231.473 -225.245)"/>
      </g>
      <g id="Grupo_55662" data-name="Grupo 55662" transform="translate(33.491 46.493)">
        <path id="Trazado_118543" data-name="Trazado 118543" d="M248.674,242.731l.45.259,11.94,6.893,21.235-12.26.442-.252-12.39-7.152Z" transform="translate(-248.674 -230.219)" fill="#1a2e35"/>
      </g>
      <g id="Grupo_55663" data-name="Grupo 55663" transform="translate(33.94 47.004)">
        <path id="Trazado_118544" data-name="Trazado 118544" d="M249.3,243.189l11.94,6.893,21.235-12.26-11.948-6.893Z" transform="translate(-249.299 -230.928)" fill="#2b454e"/>
      </g>
      <g id="Grupo_55664" data-name="Grupo 55664" transform="translate(33.94 47.004)" opacity="0.5">
        <path id="Trazado_118545" data-name="Trazado 118545" d="M249.3,243.189l11.94,6.893,21.235-12.26-11.948-6.893Z" transform="translate(-249.299 -230.928)" fill="#1a2e35"/>
      </g>
      <g id="Grupo_55665" data-name="Grupo 55665" transform="translate(45.881 55.43)">
        <path id="Trazado_118546" data-name="Trazado 118546" d="M265.884,289.126v2.9a4.337,4.337,0,0,0,2.173-.579l76.178-43.98a4.357,4.357,0,0,0,2.181-3.774v-1.06Z" transform="translate(-265.884 -242.631)" fill="#00dfbf"/>
      </g>
      <g id="Grupo_55666" data-name="Grupo 55666" transform="translate(45.881 55.43)">
        <path id="Trazado_118547" data-name="Trazado 118547" d="M265.884,289.126v2.9a4.337,4.337,0,0,0,2.173-.579l76.178-43.98a4.357,4.357,0,0,0,2.181-3.774v-1.06Z" transform="translate(-265.884 -242.631)" fill="#1a2e35"/>
      </g>
      <g id="Grupo_55667" data-name="Grupo 55667" transform="translate(47.109 0.801)">
        <path id="Trazado_118548" data-name="Trazado 118548" d="M267.589,268.521a5.157,5.157,0,0,0,4.445-.343l75.843-43.789a5.158,5.158,0,0,0,2.508-3.606l8.3-49.515a5.329,5.329,0,0,0,.068-.847,5.165,5.165,0,0,0-1.525-3.668l-78.817,45.512a3.828,3.828,0,0,0-1.853,2.669Z" transform="translate(-267.589 -166.754)" fill="#375a64"/>
      </g>
      <g id="Grupo_55668" data-name="Grupo 55668" transform="translate(47.109 0.801)" opacity="0.2">
        <path id="Trazado_118549" data-name="Trazado 118549" d="M267.589,268.521a5.157,5.157,0,0,0,4.445-.343l75.843-43.789a5.158,5.158,0,0,0,2.508-3.606l8.3-49.515a5.329,5.329,0,0,0,.068-.847,5.165,5.165,0,0,0-1.525-3.668l-78.817,45.512a3.828,3.828,0,0,0-1.853,2.669Z" transform="translate(-267.589 -166.754)" fill="#1a2e35"/>
      </g>
      <g id="Grupo_55669" data-name="Grupo 55669" transform="translate(45.881)">
        <path id="Trazado_118550" data-name="Trazado 118550" d="M265.884,267.57l.518.3a6.248,6.248,0,0,0,.709.343l8.974-53.586a3.828,3.828,0,0,1,1.853-2.669l78.817-45.512a5.265,5.265,0,0,0-1.053-.8l-78.977,45.6a3.827,3.827,0,0,0-1.852,2.669Z" transform="translate(-265.884 -165.642)" fill="#375a64"/>
      </g>
      <path id="Trazado_118551" data-name="Trazado 118551" d="M276.818,231.1l-1.223-.706a3.8,3.8,0,0,0-.722,1.647l-8.99,53.663.518.3a6.119,6.119,0,0,0,.708.343l8.974-53.586A3.808,3.808,0,0,1,276.818,231.1Z" transform="translate(-220.003 -183.774)" fill="#1a2e35" opacity="0.5"/>
      <g id="Grupo_55670" data-name="Grupo 55670" transform="translate(89.747 45.904)">
        <path id="Trazado_118552" data-name="Trazado 118552" d="M326.889,240.355c.556-3.315,3.978-7.719,7.644-9.835s6.187-1.145,5.632,2.171-3.979,7.718-7.645,9.835S326.333,243.671,326.889,240.355Z" transform="translate(-326.812 -229.4)" fill="#6e40fb"/>
      </g>
    </g>
  </g>
</svg>
