<svg xmlns="http://www.w3.org/2000/svg" xmlns:xlink="http://www.w3.org/1999/xlink" width="227.345" height="184.332" viewBox="0 0 227.345 184.332">
  <defs>
    <linearGradient id="linear-gradient" x1="-57.458" y1="-82.434" x2="-57.443" y2="-82.436" gradientUnits="objectBoundingBox">
      <stop offset="0" stop-color="#fff"/>
      <stop offset="1" stop-color="#d2e6ee"/>
    </linearGradient>
    <linearGradient id="linear-gradient-2" x1="-38.094" y1="-24.228" x2="-38.083" y2="-24.228" xlink:href="#linear-gradient"/>
    <linearGradient id="linear-gradient-3" x1="-462.528" y1="-154.861" x2="-461.748" y2="-154.865" xlink:href="#linear-gradient"/>
    <linearGradient id="linear-gradient-4" x1="-89.081" y1="-72.29" x2="-89.089" y2="-72.271" xlink:href="#linear-gradient"/>
    <linearGradient id="linear-gradient-5" x1="-39.238" y1="-24.702" x2="-39.209" y2="-24.695" xlink:href="#linear-gradient"/>
    <linearGradient id="linear-gradient-6" x1="-42.304" y1="-27.87" x2="-42.318" y2="-27.875" xlink:href="#linear-gradient"/>
    <linearGradient id="linear-gradient-7" x1="-29.354" y1="-44.407" x2="-29.349" y2="-44.394" xlink:href="#linear-gradient"/>
    <linearGradient id="linear-gradient-8" x1="-102.968" y1="-94.801" x2="-102.968" y2="-94.832" xlink:href="#linear-gradient"/>
    <linearGradient id="linear-gradient-9" x1="-538.565" y1="-241.597" x2="-538.565" y2="-241.671" xlink:href="#linear-gradient"/>
    <linearGradient id="linear-gradient-10" x1="-159.743" y1="-108.329" x2="-159.743" y2="-108.364" xlink:href="#linear-gradient"/>
    <linearGradient id="linear-gradient-11" x1="-549.798" y1="-241.62" x2="-549.798" y2="-241.695" xlink:href="#linear-gradient"/>
    <linearGradient id="linear-gradient-12" x1="-340.248" y1="-143.61" x2="-340.248" y2="-143.656" xlink:href="#linear-gradient"/>
    <linearGradient id="linear-gradient-13" x1="-550.041" y1="-239.103" x2="-550.041" y2="-239.177" xlink:href="#linear-gradient"/>
    <linearGradient id="linear-gradient-14" x1="-455.94" y1="-209.597" x2="-455.94" y2="-209.662" xlink:href="#linear-gradient"/>
    <linearGradient id="linear-gradient-15" x1="-67.371" y1="-56.792" x2="-67.334" y2="-56.793" xlink:href="#linear-gradient"/>
    <linearGradient id="linear-gradient-16" x1="-46.223" y1="-44.875" x2="-46.201" y2="-44.875" xlink:href="#linear-gradient"/>
    <linearGradient id="linear-gradient-17" x1="-54.367" y1="-65.184" x2="-54.352" y2="-65.184" xlink:href="#linear-gradient"/>
    <linearGradient id="linear-gradient-18" x1="-27.374" y1="-38.208" x2="-27.367" y2="-38.189" xlink:href="#linear-gradient"/>
    <linearGradient id="linear-gradient-19" x1="-216.215" y1="-344.389" x2="-216.25" y2="-344.498" gradientUnits="objectBoundingBox">
      <stop offset="0" stop-color="#fff"/>
      <stop offset="1" stop-color="#231f20"/>
    </linearGradient>
    <linearGradient id="linear-gradient-20" x1="-344.193" y1="-40.975" x2="-344.117" y2="-40.975" xlink:href="#linear-gradient"/>
    <linearGradient id="linear-gradient-21" x1="-213.078" y1="-341.134" x2="-213.112" y2="-341.242" xlink:href="#linear-gradient-19"/>
    <linearGradient id="linear-gradient-22" x1="-340.836" y1="-40.545" x2="-340.759" y2="-40.545" xlink:href="#linear-gradient"/>
    <linearGradient id="linear-gradient-23" x1="-270.631" y1="-532.284" x2="-270.526" y2="-532.08" gradientUnits="objectBoundingBox">
      <stop offset="0" stop-color="#fff"/>
      <stop offset="1" stop-color="#e1d3e5"/>
    </linearGradient>
    <linearGradient id="linear-gradient-24" x1="-149.668" y1="-129.44" x2="-149.64" y2="-129.49" xlink:href="#linear-gradient"/>
    <linearGradient id="linear-gradient-25" x1="-70.046" y1="-95.551" x2="-70.029" y2="-95.597" xlink:href="#linear-gradient"/>
    <linearGradient id="linear-gradient-26" x1="-43.738" y1="-57.543" x2="-43.729" y2="-57.566" xlink:href="#linear-gradient"/>
    <linearGradient id="linear-gradient-27" x1="-31.354" y1="-40.877" x2="-31.348" y2="-40.892" xlink:href="#linear-gradient"/>
  </defs>
  <g id="Grupo_1093476" data-name="Grupo 1093476" transform="translate(6761 5448.751)">
    <g id="Group_54836" data-name="Group 54836" transform="translate(-6761 -5448.751)">
      <g id="Group_33036" data-name="Group 33036">
        <g id="Group_32834" data-name="Group 32834" transform="translate(34.718 15.827)">
          <g id="Group_32828" data-name="Group 32828">
            <path id="Path_81100" data-name="Path 81100" d="M108.581,120.017l-.324-.347a1.333,1.333,0,0,1-.252,1.878,1.4,1.4,0,0,1-.213.134L70.423,143.365a1.578,1.578,0,0,1-1.578,0l-6.407-3.811a1.578,1.578,0,0,1-.529-2.107,1.428,1.428,0,0,1,.252-.324l-.836.529a5.366,5.366,0,0,0,.063,3.748l7.5,4.387a1.578,1.578,0,0,0,1.578,0L107.8,124.27C108.77,123.694,109.386,121.272,108.581,120.017Z" transform="translate(-47.588 -41.074)" fill="#e8e8e8"/>
            <g id="Group_32827" data-name="Group 32827">
              <path id="Path_81101" data-name="Path 81101" d="M133.75,22.5a1.981,1.981,0,0,1,.529,0,1.98,1.98,0,0,0-.529,0Z" transform="translate(-62.934 -20.569)" fill="none"/>
              <path id="Path_81102" data-name="Path 81102" d="M66.006,133.558l-4.229,2.47a1.073,1.073,0,0,0-.395,1.46,1.026,1.026,0,0,0,.379.379l7.385,4.395a1.065,1.065,0,0,0,1.073,0l38.118-22.014a1.065,1.065,0,0,0,.387-1.46,1.089,1.089,0,0,0-.371-.387l-7.677-4.561-.245-.15-2.162,1.247L70.78,130.8Z" transform="translate(-47.637 -39.812)" fill="url(#linear-gradient)"/>
              <path id="Path_81103" data-name="Path 81103" d="M47.235,110.507v-6.312l-.118-39.838a6.912,6.912,0,0,1,3.156-5.4l63.32-36.58a2.935,2.935,0,0,1,1.223-.418,1.7,1.7,0,0,1,.529,0h0a1.491,1.491,0,0,1,.473.174l-3.046-1.87a2.209,2.209,0,0,0-2.225.213L47.156,57.1A6.888,6.888,0,0,0,44,62.494l.118,39.838v6.273a2.17,2.17,0,0,0,.915,2c1.507.876,1.578.994,3.038,1.87A2.194,2.194,0,0,1,47.235,110.507Z" transform="translate(-44 -20.059)" fill="url(#linear-gradient-2)"/>
              <path id="Path_81106" data-name="Path 81106" d="M103.28,117.16l.213,3.8L72.91,138.622h0l30.583-17.643-.213-3.811h0Z" transform="translate(-50.099 -40.544)" fill="#082c44"/>
              <path id="Path_81107" data-name="Path 81107" d="M67.669,127.144l-.3,6.312-.11,2.367-.079,1.7,4.521,2.62.189-4.032.15-3.046.41-8.679Z" transform="translate(-48.89 -42.069)" fill="url(#linear-gradient-3)"/>
              <path id="Path_81109" data-name="Path 81109" d="M103.28,114.209h0l-.142-2.588-.473-8.451h0L73.652,119.921l-.41,8.679-.142,3.046-.189,4.032h0l30.583-17.651Z" transform="translate(-50.099 -37.593)" fill="url(#linear-gradient-4)"/>
              <path id="Path_81110" data-name="Path 81110" d="M117.68,69.088h0V64.551l-.11-39.838c0-1.231-.552-2.012-1.389-2.178h0a1.657,1.657,0,0,0-.521,0,2.935,2.935,0,0,0-1.223.418L51.046,59.509a6.912,6.912,0,0,0-3.156,5.4L48,104.752v6.312a2.186,2.186,0,0,0,.915,2h0a2.233,2.233,0,0,0,2.225-.213l12.4-7.164,4.734-2.754h0L97.292,86.186h0l17.28-9.958a6.9,6.9,0,0,0,3.117-5.4Z" transform="translate(-44.821 -20.577)" fill="url(#linear-gradient-5)"/>
              <path id="Path_81112" data-name="Path 81112" d="M102.863,103.16,73.85,119.911h0l29.013-16.751Z" transform="translate(-50.297 -37.591)" fill="#134169"/>
              <path id="Path_81113" data-name="Path 81113" d="M115.728,28.644c0-1.191-.844-1.673-1.886-1.073L53,62.73a4.135,4.135,0,0,0-1.87,3.243l.1,39.767a2.249,2.249,0,0,0,3.369,1.941l60.117-34.718a2.249,2.249,0,0,0,1.128-1.949Z" transform="translate(-45.504 -21.59)" fill="url(#linear-gradient-6)"/>
            </g>
          </g>
          <g id="Group_32833" data-name="Group 32833" transform="translate(20.16 25.964)">
            <g id="Group_32829" data-name="Group 32829" transform="translate(16.735 31.416)">
              <path id="Path_81114" data-name="Path 81114" d="M93.253,93.119c1.381-.789,2.5-.158,2.509,1.436a5.523,5.523,0,0,1-2.493,4.316c-1.381.789-2.5.158-2.509-1.436A5.523,5.523,0,0,1,93.253,93.119Z" transform="translate(-90.76 -92.78)" fill="#e8e8e8" stroke="#21587b" stroke-miterlimit="10" stroke-width="1.06"/>
            </g>
            <g id="Group_32830" data-name="Group 32830" transform="translate(11.796 21.498)">
              <path id="Path_81115" data-name="Path 81115" d="M91.933,81.662c2.7-1.578,5.389-1.941,7.33-.734l-2.7,4.64c-1.286-.655-2.833-.529-4.64.521A13.414,13.414,0,0,0,87.262,91a2.994,2.994,0,0,1-.316-.15c-.789-.442-1.625-.892-2.446-1.326a20.949,20.949,0,0,1,7.433-7.867Z" transform="translate(-84.5 -80.21)" fill="#e8e8e8" stroke="#21587b" stroke-miterlimit="10" stroke-width="1.06"/>
            </g>
            <g id="Group_32831" data-name="Group 32831" transform="translate(6.02 10.858)">
              <path id="Path_81116" data-name="Path 81116" d="M90.333,69.309c4.734-2.746,9.579-3.48,13.24-1.341-.915,1.578-1.8,3.1-2.706,4.687-2.935-1.578-6.423-1.255-10.5,1.1A29.933,29.933,0,0,0,79.886,84.751L77.18,83.173A37.822,37.822,0,0,1,90.333,69.309Z" transform="translate(-77.18 -66.725)" fill="#e8e8e8" stroke="#21587b" stroke-miterlimit="10" stroke-width="1.06"/>
            </g>
            <g id="Group_32832" data-name="Group 32832">
              <path id="Path_81117" data-name="Path 81117" d="M88.842,56.646c7.267-4.2,13.611-4.734,19.087-1.973-.947,1.657-1.838,3.2-2.73,4.734-4.442-2.588-10.423-1.76-16.436,1.712s-11.914,9.453-16.491,17.3L69.55,76.845c4.561-7.764,10.06-14.037,16.5-18.424Q87.485,57.427,88.842,56.646Z" transform="translate(-69.55 -52.965)" fill="#e8e8e8" stroke="#21587b" stroke-miterlimit="10" stroke-width="1.06"/>
            </g>
          </g>
        </g>
        <g id="Group_32938" data-name="Group 32938" transform="translate(0 128.741)">
          <g id="Group_32926" data-name="Group 32926">
            <g id="Group_32925" data-name="Group 32925">
              <g id="Group_32924" data-name="Group 32924">
                <path id="Path_81165" data-name="Path 81165" d="M1.665,189.1l54.443,31.435a8.963,8.963,0,0,0,8.1,0l26.322-15.307a2.848,2.848,0,0,0,1.673-2.367c0,1.483,0,.742,0,2.225a2.864,2.864,0,0,1-1.681,2.367L64.212,222.757a8.963,8.963,0,0,1-8.1,0L1.665,191.322A2.864,2.864,0,0,1,0,188.955c0-1.483,0-.742,0-2.225A2.848,2.848,0,0,0,1.665,189.1Z" transform="translate(0 -168.135)" fill="#e8e8e8"/>
                <g id="Group_32923" data-name="Group 32923" transform="translate(0.007)">
                  <path id="Path_81166" data-name="Path 81166" d="M28,164.131a8.948,8.948,0,0,1,8.1,0l54.443,31.443c2.225,1.286,2.217,3.393,0,4.687L64.221,215.568a8.963,8.963,0,0,1-8.1,0L1.675,184.133c-2.225-1.286-2.217-3.393,0-4.695Z" transform="translate(-0.009 -163.163)" fill="url(#linear-gradient-7)"/>
                </g>
              </g>
            </g>
            <path id="Path_81167" data-name="Path 81167" d="M87.943,196.739,35.867,166.716a3.582,3.582,0,0,0-3.243,0l-6.533,3.8,1.531.915a.907.907,0,0,1,.308,1.231.868.868,0,0,1-.324.308L19.187,177.9a4.245,4.245,0,0,1-4.324,0l-.694-.418L6.12,182.142a.986.986,0,0,0,0,1.87L58.2,214a3.566,3.566,0,0,0,3.235,0l26.512-15.378a1,1,0,0,0,.623-1.262A.986.986,0,0,0,87.943,196.739Z" transform="translate(-1.149 -163.831)" fill="#f3f9ff"/>
          </g>
          <g id="Group_32937" data-name="Group 32937" transform="translate(23.316 2.759)">
            <g id="Group_32931" data-name="Group 32931">
              <path id="Path_81168" data-name="Path 81168" d="M42.751,174.332l.9-.5.276-.134.671-.339.379-.166.6-.276.434-.181.584-.237h0l.907-.339.284-.1.789-.253.252-.079.939-.276h.047c.41-.118.836-.229,1.262-.331l.3-.071,1.01-.26h.134l.418-.079.679-.134.576-.095.686-.11h.205l.434-.055.6-.079.663-.063.608-.063h.2l.489-.039L58.7,170h2.5v10.6H58.706l-.6.039-.679.055-.615.055-.663.071-.6.079-.639.087-.679.11-.584.095-.679.134-.552.1-.994.229-.3.071c-.426.1-.844.213-1.262.331l-.986.292-.252.079-.789.253-.276.1-.915.339h0l-.608.245-.41.174c-.213.087-.41.189-.615.276l-.371.174-.671.339-.268.134c-.308.158-.608.324-.907.5a19.126,19.126,0,0,0-5.105,4.135,12.191,12.191,0,0,0-1.578,2.367c-.055.118-.118.237-.166.355a9.745,9.745,0,0,0-.521,1.46,7.606,7.606,0,0,0-.221,1.12,6.818,6.818,0,0,0-.071,1.136h0v-10.6C35.027,180.857,37.986,177.1,42.751,174.332Z" transform="translate(-30.726 -167.365)" fill="url(#linear-gradient-8)"/>
              <path id="Path_81169" data-name="Path 81169" d="M33.89,188.93v10.6H29.55v-10.6Z" transform="translate(-29.55 -171.358)" fill="url(#linear-gradient-9)"/>
              <g id="Group_32928" data-name="Group 32928">
                <g id="Group_32927" data-name="Group 32927">
                  <path id="Path_81170" data-name="Path 81170" d="M38.466,171.907c-5.76,3.33-8.679,7.472-8.916,12.317h4.34c0-4.079,2.919-7.89,7.685-10.6a37.818,37.818,0,0,1,18.392-4.458v-2.5a45.124,45.124,0,0,0-19.189,4.024Q39.547,171.284,38.466,171.907Z" transform="translate(-29.55 -166.66)" fill="#6e40fb"/>
                </g>
              </g>
              <path id="Path_81171" data-name="Path 81171" d="M53.137,179.026l.608-.331.205-.1.426-.213.252-.118.387-.174.284-.118.339-.142h0c.276-.11.56-.213.844-.308l.229-.079.686-.213.15-.047h.095l.521-.134.26-.071.734-.166h.055l.789-.142.252-.039.544-.087h.276l.489-.063h.347l.473-.039h2.391v10.6H62.384l-.473.047-.355.039-.481.063h-.324l-.544.087h-.245l-.789.142h-.055l-.734.166-.26.071-.521.134-.245.071-.686.213-.229.079c-.284.095-.568.2-.844.308l-.371.15-.284.118-.387.174-.252.118-.418.213-.205.1c-.205.11-.41.221-.608.339-3.227,1.862-4.813,4.15-4.924,6.77v-10.6C48.324,183.176,49.91,180.9,53.137,179.026Z" transform="translate(-33.474 -168.2)" fill="url(#linear-gradient-10)"/>
              <path id="Path_81172" data-name="Path 81172" d="M47.1,189v10.6H42.84V189Z" transform="translate(-32.354 -171.373)" fill="url(#linear-gradient-11)"/>
              <g id="Group_32930" data-name="Group 32930" transform="translate(10.455 5.508)">
                <g id="Group_32929" data-name="Group 32929">
                  <path id="Path_81173" data-name="Path 81173" d="M48.97,177.183c-3.779,2.178-6.186,5.192-6.17,8.553h4.292c.1-2.627,1.689-4.908,4.916-6.778A23.774,23.774,0,0,1,63.7,176.125c0-.836,0-1.657,0-2.478a29.628,29.628,0,0,0-14.731,3.535Z" transform="translate(-42.8 -173.64)" fill="#6e40fb"/>
                </g>
              </g>
            </g>
            <g id="Group_32934" data-name="Group 32934" transform="translate(20.87 10.859)">
              <path id="Path_81174" data-name="Path 81174" d="M63.617,184.229c.174-.1.363-.2.552-.292l.189-.079.363-.158h.071l.481-.166.158-.047.134-.039.181-.047.426-.1h.3l.387-.063h.324l.4-.047h1.207a1.784,1.784,0,0,0,0-.276c0-.734,0-1.468.055-2.2v10.6c0,.734,0,1.468-.055,2.2v.276H67.578l-.395.039-.324.047-.387.071-.3.063-.434.1-.316.087-.158.047-.473.166h-.071l-.387.166-.189.087c-.189.087-.371.181-.552.284a3.737,3.737,0,0,0-2.194,2.975v-10.6A3.818,3.818,0,0,1,63.617,184.229Z" transform="translate(-57.139 -180.483)" fill="url(#linear-gradient-12)"/>
              <path id="Path_81175" data-name="Path 81175" d="M56,188.973h4.277v10.6H56.039v-10.7Z" transform="translate(-56 -182.204)" fill="url(#linear-gradient-13)"/>
              <g id="Group_32933" data-name="Group 32933" transform="translate(0.006)">
                <g id="Group_32932" data-name="Group 32932">
                  <path id="Path_81176" data-name="Path 81176" d="M59.418,182.409c-2.138,1.231-3.472,2.927-3.409,4.734h4.277a3.805,3.805,0,0,1,2.194-2.975,10.549,10.549,0,0,1,5.192-1.262,1.783,1.783,0,0,0,0-.276c0-.734.039-1.468.055-2.2a16.491,16.491,0,0,0-8.309,1.98Z" transform="translate(-56.007 -180.422)" fill="#6e40fb"/>
                </g>
              </g>
            </g>
            <g id="Group_32936" data-name="Group 32936" transform="translate(29.516 15.862)">
              <path id="Path_81177" data-name="Path 81177" d="M67,188.878a.387.387,0,0,0,0,.095.229.229,0,0,1,0,.071v.3l.063.095.047.055.118.126.047.047.087.071.079.063a.584.584,0,0,0,.1.063l.1.071.26.134h.079l.221.087h.6l.316.047h1.491l.174-.047h.095l.3-.1h.039a4.134,4.134,0,0,0,.379-.181,1.381,1.381,0,0,0,.789-1.152v10.6a1.4,1.4,0,0,1-.789,1.152,3.449,3.449,0,0,1-.387.181h-.039l-.3.1H70.8l-.174.047H69.272a.716.716,0,0,1-.316-.047h-.544l-.221-.079h-.079a1.7,1.7,0,0,1-.268-.134h0l-.071-.047-.1-.071-.079-.063L67.5,200.3h0l-.118-.126h0l-.071-.095v-.039h0l-.047-.087V199.9h0a.355.355,0,0,1,0-.087.2.2,0,0,1,0-.055h0V189a.221.221,0,0,0-.268-.118Z" transform="translate(-66.966 -187.176)" fill="url(#linear-gradient-14)"/>
              <g id="Group_32935" data-name="Group 32935">
                <path id="Path_81178" data-name="Path 81178" d="M67.78,187.234a1.207,1.207,0,0,0,0,2.288,4.348,4.348,0,0,0,3.945,0,1.206,1.206,0,0,0,0-2.288,4.363,4.363,0,0,0-3.945,0Z" transform="translate(-66.958 -186.763)" fill="#6e40fb"/>
              </g>
            </g>
          </g>
        </g>
        <g id="Group_33035" data-name="Group 33035" transform="translate(123.808 8.009)">
          <g id="Group_33032" data-name="Group 33032">
            <g id="Group_33019" data-name="Group 33019" transform="translate(60.953 80.055)">
              <path id="Path_81219" data-name="Path 81219" d="M276.744,111.61l-.047,16.5-42.537,24.72.047-16.5Z" transform="translate(-234.16 -111.61)" fill="url(#linear-gradient-15)"/>
            </g>
            <path id="Path_81220" data-name="Path 81220" d="M217.91,133.531l-.047,16.5L156.91,114.839l.071-16.5Z" transform="translate(-156.91 -28.755)" fill="url(#linear-gradient-16)"/>
            <g id="Group_33020" data-name="Group 33020" transform="translate(3.227 75.921)">
              <path id="Path_81221" data-name="Path 81221" d="M215.538,137.734l-.039,8.679a.5.5,0,0,1-.5.5.465.465,0,0,1-.253-.071L161.26,115.957a.489.489,0,0,1-.26-.41l.039-8.679a.5.5,0,0,1,.5-.5.442.442,0,0,1,.245.071l53.5,30.883A.513.513,0,0,1,215.538,137.734Z" transform="translate(-161 -106.37)" fill="#21587b"/>
              <path id="Path_81222" data-name="Path 81222" d="M162.69,115.359v-5.642a.5.5,0,0,1,.5-.5.568.568,0,0,1,.253.063l50.853,29.368a.489.489,0,0,1,.253.434v5.642a.5.5,0,0,1-.5.5.513.513,0,0,1-.245-.063l-50.861-29.344a.513.513,0,0,1-.245-.458Z" transform="translate(-161.356 -106.971)" fill="url(#linear-gradient-17)"/>
            </g>
            <g id="Group_33021" data-name="Group 33021" transform="translate(0.071 44.856)">
              <path id="Path_81223" data-name="Path 81223" d="M260.466,102.2l-42.537,24.72L157,91.728,199.521,67Z" transform="translate(-157 -67)" fill="url(#linear-gradient-18)"/>
            </g>
            <path id="Path_81224" data-name="Path 81224" d="M215.975,124.022a3.677,3.677,0,0,1,3.346,0,1.018,1.018,0,0,1,0,1.933,3.724,3.724,0,0,1-3.346,0,1.018,1.018,0,0,1-.639-1.294.994.994,0,0,1,.639-.639Z" transform="translate(-169.224 -34.088)" fill="#6e40fb"/>
            <path id="Path_81225" data-name="Path 81225" d="M223.073,128.094a3.708,3.708,0,0,1,3.338,0,1.018,1.018,0,0,1,.639,1.294.994.994,0,0,1-.639.639,3.708,3.708,0,0,1-3.338,0,1.018,1.018,0,0,1,0-1.933Z" transform="translate(-170.721 -34.949)" fill="#6e40fb"/>
            <path id="Path_81226" data-name="Path 81226" d="M231.264,132.754a3.724,3.724,0,0,1,3.346,0,1.018,1.018,0,0,1,0,1.933,3.724,3.724,0,0,1-3.346,0,1.021,1.021,0,0,1,0-1.933Z" transform="translate(-172.45 -35.932)" fill="#6e40fb"/>
            <path id="Path_81227" data-name="Path 81227" d="M200.711,115.264a3.724,3.724,0,0,1,3.346,0,1.018,1.018,0,0,1,0,1.933,3.677,3.677,0,0,1-3.346,0,1.065,1.065,0,0,1-.45-1.4,1.523,1.523,0,0,1,.45-.529Z" transform="translate(-166.033 -32.242)" fill="#ebf4fb"/>
            <path id="Path_81228" data-name="Path 81228" d="M207.813,119.334a3.724,3.724,0,0,1,3.346,0,1.021,1.021,0,0,1,0,1.933,3.724,3.724,0,0,1-3.346,0,1.018,1.018,0,0,1,0-1.933Z" transform="translate(-167.501 -33.101)" fill="#ebf4fb"/>
            <g id="Group_33024" data-name="Group 33024" transform="translate(82.407 24.207)">
              <path id="Path_81229" data-name="Path 81229" d="M267.718,110.38l7.89-4.734-4.734-2.746-8.174,4.655Z" transform="translate(-261.635 -53.924)" opacity="0.7" fill="url(#linear-gradient-19)" style="isolation: isolate"/>
              <g id="Group_33023" data-name="Group 33023">
                <path id="Path_81230" data-name="Path 81230" d="M267.6,42.53a1.168,1.168,0,0,1-.608.931,3.109,3.109,0,0,1-1.239.41,3.993,3.993,0,0,1-.971,0h0a2.959,2.959,0,0,1-1.349-.481,1.113,1.113,0,0,1-.529-.852L261.35,95.766a1.238,1.238,0,0,0,.071.379v.095a1.909,1.909,0,0,0,.418.639,1.029,1.029,0,0,0,.095.087l.095.079a2.983,2.983,0,0,0,.442.316,3.9,3.9,0,0,0,.552.26l.174.063a4.543,4.543,0,0,0,.466.142l.174.047a6.31,6.31,0,0,0,.655.11h.039a5.73,5.73,0,0,0,.631,0h.9a3.086,3.086,0,0,0,.647-.11l.5-.15.2-.063a4.576,4.576,0,0,0,.631-.292,1.988,1.988,0,0,0,1.16-1.625Z" transform="translate(-261.35 -41.188)" fill="url(#linear-gradient-20)"/>
                <g id="Group_33022" data-name="Group 33022" transform="translate(1.509)">
                  <path id="Path_81231" data-name="Path 81231" d="M263.963,41.24a1.034,1.034,0,0,0,0,1.957,3.708,3.708,0,0,0,3.385,0,1.034,1.034,0,0,0,.655-1.31,1.018,1.018,0,0,0-.647-.647A3.708,3.708,0,0,0,263.963,41.24Z" transform="translate(-263.263 -40.829)" fill="#21587b"/>
                </g>
              </g>
            </g>
            <g id="Group_33027" data-name="Group 33027" transform="translate(39.98)">
              <path id="Path_81232" data-name="Path 81232" d="M214.25,79.52l7.89-4.734-4.734-2.746L209.24,76.7Z" transform="translate(-207.93 -23.207)" opacity="0.7" fill="url(#linear-gradient-21)" style="isolation: isolate"/>
              <g id="Group_33026" data-name="Group 33026">
                <path id="Path_81233" data-name="Path 81233" d="M213.829,11.84a1.152,1.152,0,0,1-.608.931,3.03,3.03,0,0,1-1.239.41,3.993,3.993,0,0,1-.971,0h0a2.959,2.959,0,0,1-1.349-.481,1.113,1.113,0,0,1-.529-.852l-1.554,53.22a1.523,1.523,0,0,0,.063.379.441.441,0,0,1,0,.095,1.909,1.909,0,0,0,.418.639,1.036,1.036,0,0,0,.095.087l.095.079a2.981,2.981,0,0,0,.442.316,5.019,5.019,0,0,0,.552.26l.174.063a4.4,4.4,0,0,0,.458.142l.181.047c.213.047.434.079.655.11h0a5.729,5.729,0,0,0,.631,0h.892a5.965,5.965,0,0,0,.655-.11,5.162,5.162,0,0,0,.5-.15l.2-.055a4.182,4.182,0,0,0,.631-.3,1.98,1.98,0,0,0,1.16-1.578Z" transform="translate(-207.58 -10.507)" fill="url(#linear-gradient-22)"/>
                <g id="Group_33025" data-name="Group 33025" transform="translate(1.505)">
                  <path id="Path_81234" data-name="Path 81234" d="M210.192,10.552a1.034,1.034,0,0,0-.647,1.318,1.057,1.057,0,0,0,.639.647,3.764,3.764,0,0,0,3.385,0,1.034,1.034,0,0,0,.655-1.31,1.049,1.049,0,0,0-.639-.655,3.779,3.779,0,0,0-3.393,0Z" transform="translate(-209.488 -10.15)" fill="#21587b"/>
                </g>
              </g>
            </g>
            <g id="Group_33031" data-name="Group 33031" transform="translate(62.776 86.481)">
              <g id="Group_33028" data-name="Group 33028">
                <path id="Path_81235" data-name="Path 81235" d="M236.809,142.357a.331.331,0,0,1-.339-.339.347.347,0,0,1,.166-.3l38.6-21.912a.34.34,0,0,1,.363.576h0L237.007,142.3A.426.426,0,0,1,236.809,142.357Z" transform="translate(-236.47 -119.754)" fill="#21587b"/>
              </g>
              <g id="Group_33029" data-name="Group 33029" transform="translate(0 2.627)">
                <path id="Path_81236" data-name="Path 81236" d="M236.809,145.679a.331.331,0,0,1-.339-.339.347.347,0,0,1,.166-.3l38.6-21.912a.341.341,0,0,1,.339.592h0l-38.592,21.919a.4.4,0,0,1-.174.039Z" transform="translate(-236.47 -123.083)" fill="#21587b"/>
              </g>
              <g id="Group_33030" data-name="Group 33030" transform="translate(0 5.208)">
                <path id="Path_81237" data-name="Path 81237" d="M236.809,148.957a.331.331,0,0,1-.339-.339.347.347,0,0,1,.166-.3l38.6-21.911a.34.34,0,0,1,.363.576h0l-38.623,21.975A.394.394,0,0,1,236.809,148.957Z" transform="translate(-236.47 -126.354)" fill="#21587b"/>
              </g>
            </g>
          </g>
        </g>
        <path id="Path_81240" data-name="Path 81240" d="M19.45,178.411a.915.915,0,0,0,.844-.047l8.127-4.734-.347-.221a.726.726,0,0,0-.789,0L19,178.214Z" transform="translate(-4.008 -36.559)" fill="url(#linear-gradient-23)"/>
        <g id="Group_32842" data-name="Group 32842" transform="translate(71.55)">
          <g id="Group_32836" data-name="Group 32836" transform="translate(32.117 64.831)">
            <path id="Path_81118" data-name="Path 81118" d="M149.107,82.863a3.734,3.734,0,0,0-3.669-.363l-9.468,5.523a3.638,3.638,0,0,1,3.669.363,11.331,11.331,0,0,1,5.145,8.908,3.6,3.6,0,0,1-1.507,3.306l9.468-5.523a3.6,3.6,0,0,0,1.507-3.306A11.315,11.315,0,0,0,149.107,82.863Z" transform="translate(-132.352 -82.166)" fill="url(#linear-gradient-24)"/>
            <g id="Group_32835" data-name="Group 32835" transform="translate(0 3.726)">
              <ellipse id="Ellipse_3403" data-name="Ellipse 3403" cx="4.213" cy="7.275" rx="4.213" ry="7.275" transform="matrix(0.865, -0.502, 0.502, 0.865, 0, 4.234)" fill="#6e40fb"/>
            </g>
          </g>
          <g id="Group_32838" data-name="Group 32838" transform="translate(24.184 44.43)">
            <path id="Path_81119" data-name="Path 81119" d="M146.191,59.3c-5.523-3.156-11.047-4-15.1-1.633L121.62,63.19c4.079-2.367,9.6-1.539,15.1,1.633s11.086,8.814,15.078,15.931l9.468-5.523A42.5,42.5,0,0,0,146.191,59.3Z" transform="translate(-121.391 -56.31)" fill="url(#linear-gradient-25)"/>
            <g id="Group_32837" data-name="Group 32837" transform="translate(0 5.513)">
              <path id="Path_81120" data-name="Path 81120" d="M136.685,66.266A42.8,42.8,0,0,1,151.763,82.2l-5.618,3.156a27.465,27.465,0,0,0-9.532-9.95c-3.724-2.146-6.936-2.414-9.626-1.026-.252-.4-.45-.718-.647-1.049l-5.01-8.553C125.441,62.274,131.075,63.063,136.685,66.266Z" transform="translate(-121.33 -63.297)" fill="#6e40fb"/>
            </g>
          </g>
          <g id="Group_32841" data-name="Group 32841">
            <g id="Group_32839" data-name="Group 32839" transform="translate(12.356 27.953)">
              <path id="Path_81121" data-name="Path 81121" d="M133.514,40.763c9.823,5.673,19.726,15.623,27.23,28.721l-5.618,3.2c-6.012-10.139-13.193-17.872-21.612-22.716s-15.607-5.476-21.651-2.3c-1.878-3.251-3.724-6.446-5.523-9.642C113.5,33.646,123.431,34.964,133.514,40.763Z" transform="translate(-106.34 -35.427)" fill="#6e40fb"/>
            </g>
            <path id="Path_81122" data-name="Path 81122" d="M143.022,33.81c-9.91-5.728-19.726-7.1-26.914-2.919l-9.468,5.523c7.172-4.166,17-2.809,26.914,2.919s19.726,15.623,27.23,28.721l9.468-5.523C162.756,49.4,152.846,39.483,143.022,33.81Z" transform="translate(-94.047 -6.005)" fill="url(#linear-gradient-26)"/>
            <path id="Path_81123" data-name="Path 81123" d="M140.01,7.954c-1.878-1.081-3.779-2.083-5.721-3-13.279-6.265-24.657-6.446-34.142-1.349L90.68,9.129c9.468-5.105,20.854-4.916,34.142,1.349q2.9,1.373,5.721,3C145.534,22.156,158.584,36.13,169.8,54.8l9.468-5.484C168.053,30.607,155,16.609,140.01,7.954Z" transform="translate(-90.68 0)" fill="url(#linear-gradient-27)"/>
            <g id="Group_32840" data-name="Group 32840" transform="translate(0.024 5.462)">
              <path id="Path_81124" data-name="Path 81124" d="M130.572,14.874c14.992,8.679,28.042,22.661,39.255,41.33l-5.665,3.274c-9.105-15.891-21.407-28.405-33.81-35.57-12.254-7.1-24.61-8.916-34.063-3.614-1.831-3.156-3.645-6.375-5.578-9.76,9.468-5.105,20.854-4.924,34.142,1.349C126.785,12.815,128.694,13.817,130.572,14.874Z" transform="translate(-90.71 -6.923)" fill="#6e40fb"/>
            </g>
          </g>
        </g>
      </g>
    </g>
    <path id="Trazado_118463" data-name="Trazado 118463" d="M141.1,162a3.724,3.724,0,0,0-1.239,7.235h2.485A3.724,3.724,0,0,0,141.1,162Z" transform="translate(-6789.983 -5482.928)" fill="#6e40fb"/>
    <path id="Trazado_118464" data-name="Trazado 118464" d="M141.851,182.2a.931.931,0,0,1-.931-.931V170.392a.939.939,0,0,1,1.87,0v10.881a.931.931,0,0,1-.939.931Z" transform="translate(-6790.729 -5484.519)" fill="#393939"/>
    <path id="Trazado_118465" data-name="Trazado 118465" d="M141.1,169.414a3.732,3.732,0,1,1,3.732-3.732A3.732,3.732,0,0,1,141.1,169.414Zm0-5.594a1.862,1.862,0,1,0,1.322.543,1.87,1.87,0,0,0-1.322-.543Z" transform="translate(-6789.98 -5482.917)" fill="#393939"/>
    <path id="Trazado_118466" data-name="Trazado 118466" d="M148,173.508a.932.932,0,0,1-.663-1.594,12.909,12.909,0,0,0,3.827-9.224,13.059,13.059,0,0,0-26.109,0,12.909,12.909,0,0,0,3.827,9.224.935.935,0,0,1-1.318,1.326,14.771,14.771,0,0,1-4.379-10.549,14.921,14.921,0,0,1,29.841,0,14.771,14.771,0,0,1-4.379,10.549A.915.915,0,0,1,148,173.508Z" transform="translate(-6786.987 -5479.926)" fill="#393939"/>
    <path id="Trazado_118467" data-name="Trazado 118467" d="M145.8,171.393a.915.915,0,0,1-.663-.276.931.931,0,0,1,0-1.318,7.969,7.969,0,0,0,2.367-5.7,8.088,8.088,0,0,0-16.167,0,7.969,7.969,0,0,0,2.367,5.7.935.935,0,1,1-1.318,1.326,9.816,9.816,0,0,1-2.919-7.03,9.95,9.95,0,0,1,19.892,0,9.823,9.823,0,0,1-2.927,7.03.915.915,0,0,1-.631.268Z" transform="translate(-6788.313 -5481.33)" fill="#393939"/>
    <path id="Trazado_836021" data-name="Trazado 836021" d="M4.014-3.445H2.045L1.447,0H.34L1.822-8.531l2.566.006a2.86,2.86,0,0,1,2.045.68,2.123,2.123,0,0,1,.592,1.836A2.43,2.43,0,0,1,6.442-4.6a3.185,3.185,0,0,1-1.38.921l1.324,3.6L6.381,0H5.209ZM2.2-4.371l1.617.006a2.259,2.259,0,0,0,1.424-.448,1.745,1.745,0,0,0,.68-1.2A1.378,1.378,0,0,0,5.631-7.16,1.565,1.565,0,0,0,4.471-7.6L2.766-7.605Zm8.725-2.086a2.285,2.285,0,0,1,1.365.434,2.464,2.464,0,0,1,.841,1.163,3.6,3.6,0,0,1,.185,1.62l-.012.129a4.264,4.264,0,0,1-.551,1.673A3.232,3.232,0,0,1,11.619-.275,2.772,2.772,0,0,1,10.09.117,2.289,2.289,0,0,1,8.728-.316a2.408,2.408,0,0,1-.835-1.148,3.7,3.7,0,0,1-.187-1.6,4.32,4.32,0,0,1,.533-1.77A3.307,3.307,0,0,1,9.384-6.05,2.739,2.739,0,0,1,10.928-6.457Zm-2.156,3.4a3.6,3.6,0,0,0,0,.768,1.88,1.88,0,0,0,.413,1.1,1.24,1.24,0,0,0,.946.428,1.69,1.69,0,0,0,.973-.261,2.189,2.189,0,0,0,.75-.841,3.541,3.541,0,0,0,.393-1.248,5.621,5.621,0,0,0,.018-.908,1.952,1.952,0,0,0-.428-1.119,1.268,1.268,0,0,0-.949-.434,1.728,1.728,0,0,0-1.395.645,3.184,3.184,0,0,0-.709,1.734ZM18.129-.627a2.448,2.448,0,0,1-1.893.744,1.58,1.58,0,0,1-1.345-.65,2.487,2.487,0,0,1-.325-1.711l.68-4.1h1.061l-.686,4.113a2.732,2.732,0,0,0-.012.5,1.049,1.049,0,0,0,.252.662.86.86,0,0,0,.621.258,1.9,1.9,0,0,0,1.758-.92l.8-4.617H20.1L19,0h-1Zm5.25-7.248-.27,1.535h1.154l-.146.838H22.969l-.662,3.943a1.375,1.375,0,0,0-.006.281.447.447,0,0,0,.5.457,3.037,3.037,0,0,0,.516-.059l-.082.885a2.885,2.885,0,0,1-.773.105,1.107,1.107,0,0,1-.949-.466,1.8,1.8,0,0,1-.246-1.222L21.908-5.5H20.789l.146-.838h1.119l.27-1.535Zm3.8,7.992A2.286,2.286,0,0,1,25.33-.756a3,3,0,0,1-.562-2.174l.029-.252a4.218,4.218,0,0,1,.56-1.723,3.254,3.254,0,0,1,1.122-1.175,2.618,2.618,0,0,1,1.43-.378,2.016,2.016,0,0,1,1.535.65,2.675,2.675,0,0,1,.609,1.7,4.966,4.966,0,0,1-.023.762l-.064.486H25.822a2.142,2.142,0,0,0,.284,1.465,1.346,1.346,0,0,0,1.163.627A2.255,2.255,0,0,0,29-1.611l.609.516a2.789,2.789,0,0,1-1.028.9A2.914,2.914,0,0,1,27.182.117Zm.674-5.689a1.549,1.549,0,0,0-1.146.445,3.165,3.165,0,0,0-.776,1.377l3.082.006.023-.094A1.734,1.734,0,0,0,28.8-5.065,1.116,1.116,0,0,0,27.855-5.572Zm6.75.2-.5-.053a1.815,1.815,0,0,0-1.605.92L31.723,0H30.662l1.1-6.34,1.025-.006-.158.738a1.9,1.9,0,0,1,1.588-.861,1.945,1.945,0,0,1,.5.088Z" transform="translate(-6576.369 -5424.586)" fill="#393939"/>
    <path id="Trazado_836022" data-name="Trazado 836022" d="M5.326-2.232H1.869L.7,0H-.475L4.16-8.531h.967L6.814,0H5.73Zm-2.971-.92H5.162L4.453-7.131ZM10.512-.762a1.609,1.609,0,0,0,1.025-.331,1.575,1.575,0,0,0,.6-.9l1-.006a2.261,2.261,0,0,1-.478,1.09,2.665,2.665,0,0,1-.981.768,2.663,2.663,0,0,1-1.213.258A2.263,2.263,0,0,1,9.126-.3,2.313,2.313,0,0,1,8.32-1.415a3.729,3.729,0,0,1-.176-1.614l.029-.293a4.2,4.2,0,0,1,.533-1.635,3.083,3.083,0,0,1,1.1-1.122,2.736,2.736,0,0,1,1.5-.378,2.143,2.143,0,0,1,1.594.668,2.31,2.31,0,0,1,.6,1.635l-.99-.006a1.522,1.522,0,0,0-.346-1,1.205,1.205,0,0,0-.9-.407,1.69,1.69,0,0,0-1.374.615,3.223,3.223,0,0,0-.683,1.77l-.018.152a5.082,5.082,0,0,0-.012.773,1.766,1.766,0,0,0,.387,1.084A1.242,1.242,0,0,0,10.512-.762Zm6.152,0a1.609,1.609,0,0,0,1.025-.331,1.575,1.575,0,0,0,.6-.9l1-.006a2.261,2.261,0,0,1-.478,1.09,2.665,2.665,0,0,1-.981.768,2.663,2.663,0,0,1-1.213.258A2.263,2.263,0,0,1,15.278-.3a2.313,2.313,0,0,1-.806-1.119A3.729,3.729,0,0,1,14.3-3.029l.029-.293a4.2,4.2,0,0,1,.533-1.635,3.083,3.083,0,0,1,1.1-1.122,2.736,2.736,0,0,1,1.5-.378,2.143,2.143,0,0,1,1.594.668,2.31,2.31,0,0,1,.6,1.635l-.99-.006a1.522,1.522,0,0,0-.346-1,1.205,1.205,0,0,0-.9-.407,1.69,1.69,0,0,0-1.374.615,3.223,3.223,0,0,0-.683,1.77l-.018.152a5.082,5.082,0,0,0-.012.773,1.766,1.766,0,0,0,.387,1.084A1.242,1.242,0,0,0,16.664-.762Zm6.217.879a2.286,2.286,0,0,1-1.852-.873,3,3,0,0,1-.562-2.174l.029-.252a4.218,4.218,0,0,1,.56-1.723,3.254,3.254,0,0,1,1.122-1.175,2.618,2.618,0,0,1,1.43-.378,2.016,2.016,0,0,1,1.535.65,2.675,2.675,0,0,1,.609,1.7,4.966,4.966,0,0,1-.023.762l-.064.486H21.521a2.142,2.142,0,0,0,.284,1.465,1.346,1.346,0,0,0,1.163.627A2.255,2.255,0,0,0,24.7-1.611l.609.516a2.789,2.789,0,0,1-1.028.9A2.914,2.914,0,0,1,22.881.117Zm.674-5.689a1.549,1.549,0,0,0-1.146.445,3.165,3.165,0,0,0-.776,1.377l3.082.006.023-.094A1.734,1.734,0,0,0,24.5-5.065,1.116,1.116,0,0,0,23.555-5.572Zm6.732,3.855q.088-.656-.721-.926l-1.1-.322q-1.395-.48-1.348-1.594a1.756,1.756,0,0,1,.765-1.374,2.723,2.723,0,0,1,1.7-.524,2.27,2.27,0,0,1,1.562.56,1.773,1.773,0,0,1,.577,1.427l-1.055-.006a.989.989,0,0,0-.3-.773,1.182,1.182,0,0,0-.826-.311,1.544,1.544,0,0,0-.949.27.987.987,0,0,0-.428.691q-.076.551.674.8l.533.146a3.433,3.433,0,0,1,1.547.732A1.4,1.4,0,0,1,31.342-1.8a1.778,1.778,0,0,1-.387,1.031,2.211,2.211,0,0,1-.937.671A3.135,3.135,0,0,1,28.77.117a2.473,2.473,0,0,1-1.664-.589,1.82,1.82,0,0,1-.633-1.485l1.061.006a1.124,1.124,0,0,0,.34.855,1.3,1.3,0,0,0,.932.322,1.827,1.827,0,0,0,1-.243A.936.936,0,0,0,30.287-1.717Zm6.059,0q.088-.656-.721-.926l-1.1-.322q-1.395-.48-1.348-1.594a1.756,1.756,0,0,1,.765-1.374,2.723,2.723,0,0,1,1.7-.524A2.27,2.27,0,0,1,37.2-5.9a1.773,1.773,0,0,1,.577,1.427l-1.055-.006a.989.989,0,0,0-.3-.773,1.182,1.182,0,0,0-.826-.311,1.544,1.544,0,0,0-.949.27.987.987,0,0,0-.428.691q-.076.551.674.8l.533.146a3.433,3.433,0,0,1,1.547.732A1.4,1.4,0,0,1,37.4-1.8a1.778,1.778,0,0,1-.387,1.031,2.211,2.211,0,0,1-.937.671,3.135,3.135,0,0,1-1.248.214,2.473,2.473,0,0,1-1.664-.589,1.82,1.82,0,0,1-.633-1.485l1.061.006a1.124,1.124,0,0,0,.34.855,1.3,1.3,0,0,0,.932.322,1.827,1.827,0,0,0,1-.243A.936.936,0,0,0,36.346-1.717ZM47.162-3.141a5.03,5.03,0,0,1-.521,1.74,2.962,2.962,0,0,1-1,1.157,2.293,2.293,0,0,1-1.324.366,2.111,2.111,0,0,1-1.687-.744l-.568,3.059H41L42.521-6.34l.961-.006-.117.709a2.4,2.4,0,0,1,1.881-.82,1.768,1.768,0,0,1,1.424.674,2.966,2.966,0,0,1,.539,1.793,6.31,6.31,0,0,1-.029.727Zm-1.043-.12.029-.492a2.226,2.226,0,0,0-.325-1.308,1.143,1.143,0,0,0-.94-.477,1.881,1.881,0,0,0-1.588.872l-.533,3.037a1.327,1.327,0,0,0,1.283.866,1.668,1.668,0,0,0,1.345-.617A3.583,3.583,0,0,0,46.119-3.261Zm5.414-3.2a2.285,2.285,0,0,1,1.365.434,2.464,2.464,0,0,1,.841,1.163,3.6,3.6,0,0,1,.185,1.62l-.012.129a4.264,4.264,0,0,1-.551,1.673A3.232,3.232,0,0,1,52.225-.275,2.772,2.772,0,0,1,50.7.117a2.289,2.289,0,0,1-1.362-.434A2.408,2.408,0,0,1,48.5-1.465a3.7,3.7,0,0,1-.187-1.6,4.32,4.32,0,0,1,.533-1.77A3.307,3.307,0,0,1,49.989-6.05,2.739,2.739,0,0,1,51.533-6.457Zm-2.156,3.4a3.6,3.6,0,0,0,0,.768,1.88,1.88,0,0,0,.413,1.1,1.24,1.24,0,0,0,.946.428,1.69,1.69,0,0,0,.973-.261,2.189,2.189,0,0,0,.75-.841,3.541,3.541,0,0,0,.393-1.248,5.621,5.621,0,0,0,.018-.908,1.952,1.952,0,0,0-.428-1.119,1.268,1.268,0,0,0-.949-.434,1.728,1.728,0,0,0-1.395.645,3.184,3.184,0,0,0-.709,1.734ZM55.857,0H54.8l1.1-6.34h1.055Zm.873-8.654a.58.58,0,0,1,.448.161.6.6,0,0,1,.179.454.637.637,0,0,1-.179.451.642.642,0,0,1-.448.188.584.584,0,0,1-.451-.158A.573.573,0,0,1,56.109-8a.665.665,0,0,1,.176-.457A.62.62,0,0,1,56.73-8.654ZM59.7-6.346l-.152.8a2.5,2.5,0,0,1,1.945-.914,1.573,1.573,0,0,1,1.324.621,2.413,2.413,0,0,1,.316,1.682L62.438,0H61.377l.7-4.167A2.222,2.222,0,0,0,62.08-4.7a.876.876,0,0,0-.967-.837,2,2,0,0,0-1.676,1.018L58.652,0H57.592l1.1-6.34Zm7.178-1.529L66.6-6.34h1.154l-.146.838H66.463L65.8-1.559a1.375,1.375,0,0,0-.006.281.447.447,0,0,0,.5.457,3.037,3.037,0,0,0,.516-.059l-.082.885a2.885,2.885,0,0,1-.773.105A1.107,1.107,0,0,1,65-.354a1.8,1.8,0,0,1-.246-1.222L65.4-5.5H64.283l.146-.838h1.119l.27-1.535Z" transform="translate(-6656.678 -5286.421)" fill="#393939"/>
  </g>
</svg>
