<svg xmlns="http://www.w3.org/2000/svg" width="85" height="85" viewBox="0 0 85 85">
  <g id="Grupo_1093198" data-name="Grupo 1093198" transform="translate(-1057 -6697)">
    <rect id="Rectángulo_387372" data-name="Rectángulo 387372" width="85" height="85" rx="8" transform="translate(1057 6697)" fill="#1e5af9"/>
    <g id="Layer_1" transform="translate(1070.474 6714.965)">
      <g id="Grupo_1093197" data-name="Grupo 1093197">
        <path id="Trazado_835709" data-name="Trazado 835709" d="M82.55,88.548a1.863,1.863,0,0,1-1.766-1.27l-2.761-8.191a1.866,1.866,0,0,1,2.136-2.425h0l8.474,1.7a1.866,1.866,0,0,1,1.032,3.063l-5.714,6.486A1.873,1.873,0,0,1,82.55,88.548Zm-1.9-9.3,2.128,6.316,4.405-5Zm-.97.044h0Z" transform="translate(-40.193 -43.95)" fill="#fff"/>
        <path id="Trazado_835710" data-name="Trazado 835710" d="M95.255,93.382a1.214,1.214,0,0,1-.8-.3l-5.033-4.434a1.219,1.219,0,0,1,1.611-1.829l5.033,4.434a1.219,1.219,0,0,1-.806,2.133Z" transform="translate(-44.521 -47.812)" fill="#fff"/>
        <path id="Trazado_835711" data-name="Trazado 835711" d="M52.963,60.936H33.238A3.242,3.242,0,0,1,30,57.7V42.238A3.242,3.242,0,0,1,33.238,39H52.963A3.242,3.242,0,0,1,56.2,42.238V57.7A3.242,3.242,0,0,1,52.963,60.936Zm-19.725-19.5a.8.8,0,0,0-.8.8V57.7a.8.8,0,0,0,.8.8H52.963a.8.8,0,0,0,.8-.8V42.238a.8.8,0,0,0-.8-.8Z" transform="translate(-21.469 -29.251)" fill="#fff"/>
        <g id="Grupo_1093196" data-name="Grupo 1093196">
          <path id="Trazado_835712" data-name="Trazado 835712" d="M70.171,23H20.324A4.567,4.567,0,0,0,16,27.768V68.2a4.567,4.567,0,0,0,4.324,4.768H70.171A4.567,4.567,0,0,0,74.5,68.2V27.768A4.567,4.567,0,0,0,70.171,23Zm1.887,32.294V68.2a2.147,2.147,0,0,1-1.887,2.331H20.324A2.147,2.147,0,0,1,18.437,68.2V27.768a2.147,2.147,0,0,1,1.887-2.331H70.171a2.147,2.147,0,0,1,1.887,2.331Z" transform="translate(-16 -23)" fill="#fff"/>
          <path id="Trazado_835713" data-name="Trazado 835713" d="M89.749,43H81.219a1.219,1.219,0,1,0,0,2.437h8.531a1.219,1.219,0,1,0,0-2.437Z" transform="translate(-41.003 -30.813)" fill="#fff"/>
          <path id="Trazado_835714" data-name="Trazado 835714" d="M54.982,87H31.219a1.219,1.219,0,1,0,0,2.437H54.982a1.219,1.219,0,1,0,0-2.437Z" transform="translate(-21.469 -48.003)" fill="#fff"/>
          <path id="Trazado_835715" data-name="Trazado 835715" d="M89.749,55H81.219a1.219,1.219,0,0,0,0,2.437h8.531a1.219,1.219,0,0,0,0-2.437Z" transform="translate(-41.003 -35.502)" fill="#fff"/>
          <path id="Trazado_835716" data-name="Trazado 835716" d="M89.749,67H81.219a1.219,1.219,0,0,0,0,2.437h8.531a1.219,1.219,0,0,0,0-2.437Z" transform="translate(-41.003 -40.19)" fill="#fff"/>
          <path id="Trazado_835717" data-name="Trazado 835717" d="M37.5,57.51H53.591a1.237,1.237,0,0,0,1.055-1.883L49,46.417a1.237,1.237,0,0,0-2.108,0l-2.9,4.729-1.344-2.187a1.236,1.236,0,0,0-1.054-.589h0a1.237,1.237,0,0,0-1.054.591l-4.087,6.665A1.237,1.237,0,0,0,37.5,57.51Zm10.406-7.962,3.39,5.525H46.362l-.924-1.506Zm-6.258,2.507L43.5,55.073H39.8Z" transform="translate(-23.916 -31.918)" fill="#fff"/>
        </g>
      </g>
    </g>
  </g>
</svg>
