<svg id="Grupo_33758" data-name="Grupo 33758" xmlns="http://www.w3.org/2000/svg" xmlns:xlink="http://www.w3.org/1999/xlink" width="237.952" height="510.255" viewBox="0 0 237.952 510.255">
  <defs>
    <linearGradient id="linear-gradient" x1="0.5" x2="0.5" y2="1" gradientUnits="objectBoundingBox">
      <stop offset="0" stop-color="#fff"/>
      <stop offset="1" stop-color="#d2e6ee"/>
    </linearGradient>
  </defs>
  <g id="Grupo_28974" data-name="Grupo 28974">
    <path id="Trazado_68762" data-name="Trazado 68762" d="M801.03,433.224c0-3.324-46.838-6.019-104.616-6.019s-100.749,1.7-100.749,5.028,49.87,4.8,107.649,4.8S801.03,436.548,801.03,433.224Z" transform="translate(-595.665 73.218)" fill="#263238"/>
    <g id="Grupo_28962" data-name="Grupo 28962" transform="translate(119.439 477.592)">
      <path id="Trazado_68763" data-name="Trazado 68763" d="M623.356,425.268l-3.2-6.334-19.092.69-.429,5.644,8.971,15.563,16.147-12.451Z" transform="translate(-597.639 -417.937)" fill="#e69cad"/>
      <path id="Trazado_68764" data-name="Trazado 68764" d="M618.988,420.082l-.8,14.7a69.262,69.262,0,0,1-10.757-8.011l.8-8.325Z" transform="translate(-604.919 -418.451)" fill="#6b3a38"/>
      <path id="Trazado_68765" data-name="Trazado 68765" d="M613.017,421.9s-5.608-.109-12.134,4.842c-3.886,2.946-9.756-3.13-11.552-4.7-.368-.32-.865-.033-.927.535l-2.257,20.552h56.816a1.411,1.411,0,0,0,1.2-1.555v-4.326a1.577,1.577,0,0,0-.818-1.476Z" transform="translate(-586.147 -414.783)" fill="url(#linear-gradient)"/>
      <line id="Línea_253" data-name="Línea 253" x1="9.146" y2="5.291" transform="translate(20.916 8.191)" fill="none" stroke="#fff" stroke-miterlimit="10" stroke-width="0.391"/>
      <line id="Línea_254" data-name="Línea 254" x1="9.146" y2="5.291" transform="translate(24.902 10.23)" fill="none" stroke="#fff" stroke-miterlimit="10" stroke-width="0.391"/>
    </g>
    <g id="Grupo_28963" data-name="Grupo 28963" transform="translate(26.873 475.96)">
      <path id="Trazado_68766" data-name="Trazado 68766" d="M668.189,426.623l-3.2-6.334-17.521-2.628-2,8.962,8.971,15.563,16.147-12.451Z" transform="translate(-642.474 -417.66)" fill="#e69cad"/>
      <path id="Trazado_68767" data-name="Trazado 68767" d="M661.582,419.675l1.59,13.887a69.244,69.244,0,0,1-10.757-8.011l1.592-7.1Z" transform="translate(-649.417 -416.819)" fill="#6b3a38"/>
      <path id="Trazado_68768" data-name="Trazado 68768" d="M657.849,421.9s-5.608-.109-12.134,4.842c-3.884,2.946-9.754-3.13-11.552-4.7-.365-.32-.863-.033-.925.535l-2.257,20.552H687.8a1.411,1.411,0,0,0,1.2-1.555v-4.326a1.573,1.573,0,0,0-.818-1.476Z" transform="translate(-630.981 -413.151)" fill="url(#linear-gradient)"/>
      <line id="Línea_255" data-name="Línea 255" x1="9.146" y2="5.291" transform="translate(22.199 10.231)" fill="none" stroke="#fff" stroke-miterlimit="10" stroke-width="0.391"/>
      <line id="Línea_256" data-name="Línea 256" x1="9.146" y2="5.291" transform="translate(26.186 12.271)" fill="none" stroke="#fff" stroke-miterlimit="10" stroke-width="0.391"/>
    </g>
    <path id="Trazado_68769" data-name="Trazado 68769" d="M650.208,212.969a7.818,7.818,0,0,1-3.021,2.713c-2.651,1.055-6.037-1.152-9-3.45-2.913-2.261-8.471,1.423-9.336,2.023l-6.7,21.648.522.281-.2.382h0l-.2.384-6.716-3.619-.054-.169c-4.937-16.241-4.625-19.887-2.271-26.967,6.225-10.076,25.918-15.479,27.4-16.712a10.008,10.008,0,0,1,11.472-.979c6.9,4.189,5.6,13.586,1.656,19.871A8.956,8.956,0,0,1,650.208,212.969ZM643.13,190.9c5.127-1.381,10.231,1.239,11.389,6.644a7.7,7.7,0,0,0-3.681-6.8A7.35,7.35,0,0,0,643.13,190.9Zm-23.886,43.433,1.458.785a7.156,7.156,0,0,0-2.938-1.807Z" transform="translate(-532.1 -187.136)" fill="#1d274a"/>
    <g id="Grupo_28964" data-name="Grupo 28964" transform="translate(64.292 236.152)">
      <path id="Trazado_68770" data-name="Trazado 68770" d="M676.921,301.513s7.307,87.4,7.992,111.549-4.16,131.8-4.16,131.8L656.3,545.4S629.123,364.8,599.6,306.557Z" transform="translate(-599.603 -301.513)" fill="#37474f"/>
      <path id="Trazado_68771" data-name="Trazado 68771" d="M609.8,303.747S630.6,404.716,630.6,420.22s3.068,122.035,3.068,122.035" transform="translate(-569.352 -299.135)" fill="none" stroke="#fff" stroke-miterlimit="10" stroke-width="0.391"/>
      <line id="Línea_257" data-name="Línea 257" x2="26.378" transform="translate(55.035 232.132)" fill="none" stroke="#fff" stroke-miterlimit="10" stroke-width="0.391"/>
    </g>
    <g id="Grupo_28966" data-name="Grupo 28966" transform="translate(28.952 236.27)">
      <path id="Trazado_68772" data-name="Trazado 68772" d="M713.519,301.57s-11.7,72.737-28.864,124.282c-13.867,41.653-50.271,120.877-50.271,120.877l-28.394-.31,29.6-119.331a103.866,103.866,0,0,0,2.973-18.983c1.522-24.2-3.454-73.113-5.533-104.45Z" transform="translate(-605.99 -301.57)" fill="#263238"/>
      <g id="Grupo_28965" data-name="Grupo 28965" transform="translate(3.418 0.425)">
        <path id="Trazado_68773" data-name="Trazado 68773" d="M671.665,302.17s7.982,94.435.807,109.121-42.165,134.273-42.165,134.273" transform="translate(-621.559 -301.356)" fill="none" stroke="#fff" stroke-miterlimit="10" stroke-width="0.391"/>
        <line id="Línea_258" data-name="Línea 258" x2="29.402" transform="translate(0 233.625)" fill="none" stroke="#fff" stroke-miterlimit="10" stroke-width="0.391"/>
        <line id="Línea_259" data-name="Línea 259" x1="25.45" y2="33.375" transform="translate(53.287)" fill="none" stroke="#fff" stroke-miterlimit="10" stroke-width="0.391"/>
      </g>
    </g>
    <g id="Grupo_28967" data-name="Grupo 28967" transform="translate(89.158 42.034)">
      <path id="Trazado_68774" data-name="Trazado 68774" d="M557.291,264.1s-.966-7.842,6.283-8.981,26.8-6.322,76.487,10.646c0,0,10.008-48.341,8.692-52.005-1.687-4.7,26.127-5.952,44.932-6.266,3.6-.06-7.028,9.025-10.375,10.367-13.767,5.521-20.261,8.234-20.886,6.122,0,0,5.6,67.4-2.463,74.339S549.268,287.75,557.291,264.1Z" transform="translate(-545.627 -207.495)" fill="#e69cad"/>
      <path id="Trazado_68775" data-name="Trazado 68775" d="M642.484,252.972s-75.25-18.826-74.434,3.043,110.372,62.851,119.537,50.639c14.55-19.389-1.383-85.779-1.383-85.779l-17.986-8.023-5.259,45.1Z" transform="translate(-568.044 -201.792)" fill="url(#linear-gradient)"/>
      <path id="Trazado_68776" data-name="Trazado 68776" d="M647.237,272.609c-4.361,5.232-47.031-5.75-51.71-12.875,0,0-.729-23.882,1.088-24.376C615.139,230.336,647.237,272.609,647.237,272.609Z" transform="translate(-578.011 -178.271)" fill="#203061"/>
    </g>
    <g id="Grupo_28968" data-name="Grupo 28968" transform="translate(34.846 80.211)">
      <path id="Trazado_68777" data-name="Trazado 68777" d="M641.135,230.007s-38.168,3.9-40.571,35.5S617.879,395.88,617.879,395.88l95.74,1.66-5.341-124.556a46.013,46.013,0,0,0-7.191-22.608c-3.991-6.231-8.663-13.294-11.319-13.627L649.7,225.985Z" transform="translate(-600.361 -225.985)" fill="url(#linear-gradient)"/>
      <path id="Trazado_68778" data-name="Trazado 68778" d="M633.52,235.054c-23.189-9.3-31.487,7.8-32.688,23.608-2.4,31.606,17.345,132.982,17.345,132.982l95.155-.4" transform="translate(-600.629 -219.135)" fill="#b0c0d2"/>
    </g>
    <g id="Grupo_28969" data-name="Grupo 28969" transform="translate(83.632 52.096)">
      <path id="Trazado_68779" data-name="Trazado 68779" d="M622.428,215.917l-4,24.566s17.2,17.727,23.913,15.386c2.391-.834,3.262-9.588,3.262-9.588l-1.718-17.756-17.849-16.156s-2.746,1.951-3.091,2.663A3.986,3.986,0,0,1,622.428,215.917Z" transform="translate(-618.425 -212.368)" fill="#e69cad"/>
      <path id="Trazado_68780" data-name="Trazado 68780" d="M618.646,212.368,636.5,228.524l1.261,10.563s-16.206-4.462-16.767-17.853" transform="translate(-611.038 -212.368)" fill="#00092b"/>
    </g>
    <g id="Grupo_28971" data-name="Grupo 28971" transform="translate(37.099 91.689)">
      <g id="Grupo_28970" data-name="Grupo 28970" transform="translate(99.53 7.74)">
        <path id="Trazado_68781" data-name="Trazado 68781" d="M569.919,329.193l21.275-66.76a13.264,13.264,0,0,1,7.33-8.191l43.563-18.816a1.648,1.648,0,0,1,2.162,2.089l-21.5,65.405a13.278,13.278,0,0,1-6.948,7.918l-43.674,20.409A1.646,1.646,0,0,1,569.919,329.193Z" transform="translate(-569.833 -235.293)" fill="#393939"/>
        <path id="Trazado_68782" data-name="Trazado 68782" d="M568.147,331.088l21.275-66.762a13.28,13.28,0,0,1,7.33-8.191l43.563-18.815a1.648,1.648,0,0,1,2.162,2.092l-21.5,65.405a13.275,13.275,0,0,1-6.95,7.916l-43.674,20.409A1.645,1.645,0,0,1,568.147,331.088Z" transform="translate(-564.405 -233.278)" fill="#e8e8e8"/>
        <path id="Trazado_68783" data-name="Trazado 68783" d="M595.28,259l16.04,4.752-20.26,8.209Z" transform="translate(-580.64 -210.055)" fill="#00092b" stroke="#191f4a" stroke-miterlimit="10" stroke-width="0"/>
      </g>
      <path id="Trazado_68784" data-name="Trazado 68784" d="M706.886,276.8c-2.354,2.114-51.477,56.225-76.656,62.866-7.342,1.937-12.766-4.435-16.6-11.069l-25.318-49.1,33.739-26.178c.239.372,17.87,30.341,21.929,45.374,1.336,4.945,3.65,4.565,7.662,2.108l30.786-18.979s-.052-5.381.632-7.416c1.3-3.869,7.474-9.064,7.474-9.064l-2.674,8.209c-.481,1.383-2.059,2.383.43,2.68l19.55-14.488s1.782-.145.093,1.776-3.516,3.935-3.283,4.08,5.581-3.6,5.816-2.16-4.361,4.9-4.175,5.04,5.207-3.985,5.488-2.641-3.518,3.937-3.7,4.464,4.125-2.783,4.313-2.063S708.232,275.592,706.886,276.8Z" transform="translate(-576.502 -208.367)" fill="#e69cad"/>
      <path id="Trazado_68785" data-name="Trazado 68785" d="M636.572,249.963s-9.613-26.99-28.15-15.626-1.926,64.705,5.492,78.128c6.112,11.054,13.425,32.919,23.447,47.335,7,10.067,26.981,8.791,35.847.324l38.585-36.848-9.13-17.432-32.1,13.833Z" transform="translate(-599.959 -231.544)" fill="url(#linear-gradient)"/>
    </g>
    <g id="Grupo_28973" data-name="Grupo 28973" transform="translate(82.611 22.284)">
      <path id="Trazado_68786" data-name="Trazado 68786" d="M620.766,221.753a.818.818,0,0,1-1.344.314c-1.454-1.427-4.346-3.384-5.385,2.3-1.41,7.716,6.642,6.388,7.284,7.427,1.3,2.106,5.473,9.184,11.694,11.93,3.791,1.674,9.4,1.939,13.547-2.038s5.992-1.253,4.255-43.755c0,0-1.9,3.661-4.625,4.6s-7.1-2.839-10.2-3.706c-2.521-.7-7.412-2.554-10.4,6.221C624.217,209.08,622.03,218.409,620.766,221.753Z" transform="translate(-613.872 -197.929)" fill="#e69cad"/>
      <g id="Grupo_28972" data-name="Grupo 28972" transform="translate(1.373 10.79)">
        <path id="Trazado_68787" data-name="Trazado 68787" d="M622.854,212.741s-2.5,1.243-8.6.669c0,0,3.283,4.449,5.686,3.588S622.854,212.741,622.854,212.741Z" transform="translate(-587.422 -192.949)" fill="#fff"/>
        <path id="Trazado_68788" data-name="Trazado 68788" d="M629.357,211.193l4.251,3.2S632.025,206.644,629.357,211.193Z" transform="translate(-629.357 -196.12)" fill="#bf566e"/>
        <path id="Trazado_68789" data-name="Trazado 68789" d="M618.312,209.243c0,.929-.368,1.681-.822,1.681s-.82-.752-.82-1.681.368-1.681.82-1.681S618.312,208.314,618.312,209.243Z" transform="translate(-587.866 -198.463)" fill="#00092b"/>
        <path id="Trazado_68790" data-name="Trazado 68790" d="M615.722,208.845c0,.927-.367,1.681-.822,1.681s-.819-.754-.819-1.681.367-1.681.819-1.681S615.722,207.916,615.722,208.845Z" transform="translate(-579.931 -198.887)" fill="#00092b"/>
        <path id="Trazado_68791" data-name="Trazado 68791" d="M617.5,206.69c-1.216.851.688-2.994,2.341-3.423a2.889,2.889,0,0,1,3.648,1.873A8.9,8.9,0,0,0,617.5,206.69Z" transform="translate(-593.96 -203.155)" fill="#00092b"/>
        <path id="Trazado_68792" data-name="Trazado 68792" d="M616.942,205.86a8.915,8.915,0,0,0-3,.083,3.024,3.024,0,0,1,3.027-2.393" transform="translate(-580.896 -202.734)" fill="#00092b"/>
        <path id="Trazado_68793" data-name="Trazado 68793" d="M614.86,208.015l2.5,7.121a.186.186,0,0,1-.145.252l-2.957.223a.177.177,0,0,1-.18-.2l.452-7.346A.167.167,0,0,1,614.86,208.015Z" transform="translate(-581.583 -198.106)" fill="#bf566e"/>
      </g>
    </g>
  </g>
</svg>
