<svg xmlns="http://www.w3.org/2000/svg" xmlns:xlink="http://www.w3.org/1999/xlink" width="601" height="338" viewBox="0 0 601 338">
  <defs>
    <clipPath id="clip-path">
      <rect id="Rectángulo_388493" data-name="Rectángulo 388493" width="296" height="282" transform="translate(-0.24 0.066)" fill="#fff" stroke="#707070" stroke-width="1"/>
    </clipPath>
    <linearGradient id="linear-gradient" y1="0.5" x2="1" y2="0.5" gradientUnits="objectBoundingBox">
      <stop offset="0" stop-color="#fff"/>
      <stop offset="1" stop-color="#d2e6ee"/>
    </linearGradient>
    <linearGradient id="linear-gradient-2" x1="0" y1="0.5" x2="1" y2="0.5" xlink:href="#linear-gradient"/>
    <clipPath id="clip-path-2">
      <rect id="Rectángulo_383854" data-name="Rectángulo 383854" width="164" height="163" transform="translate(-0.166 0.413)" fill="#fff" stroke="#707070" stroke-width="1"/>
    </clipPath>
  </defs>
  <g id="Grupo_1093472" data-name="Grupo 1093472" transform="translate(7532 6525)">
    <g id="Grupo_1093460" data-name="Grupo 1093460" transform="translate(-7 441)">
      <g id="Grupo_1093295" data-name="Grupo 1093295" transform="translate(-7525 -6966)">
        <g id="Trazado_836017" data-name="Trazado 836017" fill="#fff">
          <path d="M 585 337.5 L 16 337.5 C 11.8598461151123 337.5 7.967384815216064 335.8876953125 5.039845943450928 332.9601440429688 C 2.112307786941528 330.0326232910156 0.5 326.1401672363281 0.5 322 L 0.5 16 C 0.5 11.8598461151123 2.112307786941528 7.967384815216064 5.039845943450928 5.039845943450928 C 7.967384815216064 2.112307786941528 11.8598461151123 0.5 16 0.5 L 585 0.5 C 589.14013671875 0.5 593.0325927734375 2.112307786941528 595.9601440429688 5.039845943450928 C 598.8876953125 7.967384815216064 600.5 11.8598461151123 600.5 16 L 600.5 322 C 600.5 326.1401672363281 598.8876953125 330.0326232910156 595.9601440429688 332.9601440429688 C 593.0325927734375 335.8876953125 589.14013671875 337.5 585 337.5 Z" stroke="none"/>
          <path d="M 16 1 C 11.993408203125 1 8.2265625 2.560302734375 5.39337158203125 5.39337158203125 C 2.560302734375 8.226531982421875 1 11.99337768554688 1 16 L 1 322 C 1 326.0066223144531 2.560302734375 329.7734680175781 5.39337158203125 332.6066284179688 C 8.2265625 335.439697265625 11.993408203125 337 16 337 L 585 337 C 589.006591796875 337 592.7734375 335.439697265625 595.6066284179688 332.6066284179688 C 598.439697265625 329.7734680175781 600 326.0066223144531 600 322 L 600 16 C 600 11.99337768554688 598.439697265625 8.226531982421875 595.6066284179688 5.39337158203125 C 592.7734375 2.560302734375 589.006591796875 1 585 1 L 16 1 M 16 0 L 585 0 C 593.8365478515625 0 601 7.1634521484375 601 16 L 601 322 C 601 330.8365478515625 593.8365478515625 338 585 338 L 16 338 C 7.1634521484375 338 0 330.8365478515625 0 322 L 0 16 C 0 7.1634521484375 7.1634521484375 0 16 0 Z" stroke="none" fill="#6e40fb"/>
        </g>
        <g id="Enmascarar_grupo_1090649" data-name="Enmascarar grupo 1090649" transform="translate(152.24 27.934)" clip-path="url(#clip-path)">
          <g id="grafico2-03" transform="translate(-94.499 -1.305)" style="isolation: isolate">
            <g id="Layer_1" data-name="Layer 1" transform="translate(0 0)">
              <path id="Trazado_835719" data-name="Trazado 835719" d="M80.431,39.739a4.063,4.063,0,0,1-1.635-.793,1.511,1.511,0,0,1-.51-1.179,1.609,1.609,0,0,1,.625-1.294,2.5,2.5,0,0,1,1.622-.479,2.707,2.707,0,0,1,1.219.266,1.967,1.967,0,0,1,.824.727A1.852,1.852,0,0,1,82.868,38h-.886a1.2,1.2,0,0,0-.381-.957,1.542,1.542,0,0,0-1.077-.346,1.586,1.586,0,0,0-1.006.284.953.953,0,0,0-.35.789.851.851,0,0,0,.341.687,3.407,3.407,0,0,0,1.17.514,5.437,5.437,0,0,1,1.289.51,1.967,1.967,0,0,1,.691.651,1.657,1.657,0,0,1,.222.886,1.551,1.551,0,0,1-.625,1.289,2.658,2.658,0,0,1-1.675.483,3.146,3.146,0,0,1-1.276-.261,2.149,2.149,0,0,1-.886-.713A1.772,1.772,0,0,1,78.1,40.78h.886a1.156,1.156,0,0,0,.443.948,1.883,1.883,0,0,0,1.188.346,1.719,1.719,0,0,0,1.055-.279.922.922,0,0,0,.372-.771.886.886,0,0,0-.341-.753,4.125,4.125,0,0,0-1.272-.532Z" transform="translate(-78.1 -35.711)" fill="#fff"/>
              <path id="Trazado_835720" data-name="Trazado 835720" d="M92.886,44.869a2.149,2.149,0,0,1-1.626-.656,2.442,2.442,0,0,1-.625-1.772v-.155a2.951,2.951,0,0,1,.279-1.329,2.18,2.18,0,0,1,.78-.886,1.972,1.972,0,0,1,1.09-.323,1.839,1.839,0,0,1,1.489.629,2.734,2.734,0,0,1,.532,1.808v.35H91.473a1.772,1.772,0,0,0,.443,1.174,1.329,1.329,0,0,0,1.037.443,1.44,1.44,0,0,0,.753-.182,1.905,1.905,0,0,0,.541-.479l.514.4A2.065,2.065,0,0,1,92.886,44.869Zm-.1-4.431a1.117,1.117,0,0,0-.855.372,1.772,1.772,0,0,0-.443,1.037h2.459v-.04a1.578,1.578,0,0,0-.346-.993,1.05,1.05,0,0,0-.815-.354Z" transform="translate(-85.079 -37.801)" fill="#fff"/>
              <path id="Trazado_835721" data-name="Trazado 835721" d="M104.625,40.644a2.451,2.451,0,0,0-.417-.031,1.108,1.108,0,0,0-1.121.7v3.492h-.837V39.886h.815v.567a1.329,1.329,0,0,1,1.174-.656.829.829,0,0,1,.372.062Z" transform="translate(-91.549 -37.83)" fill="#fff"/>
              <path id="Trazado_835722" data-name="Trazado 835722" d="M110.549,43.78,111.763,40h.86l-1.772,4.918h-.638L108.44,40h.86Z" transform="translate(-94.996 -37.944)" fill="#fff"/>
              <path id="Trazado_835723" data-name="Trazado 835723" d="M119.72,36.453a.5.5,0,0,1,.124-.346.478.478,0,0,1,.372-.142.443.443,0,0,1,.5.487.483.483,0,0,1-.124.341.505.505,0,0,1-.372.133.446.446,0,0,1-.5-.474Zm.886,6.2h-.842V37.751h.842Z" transform="translate(-101.278 -35.695)" fill="#fff"/>
              <path id="Trazado_835724" data-name="Trazado 835724" d="M124.336,39.84a2.889,2.889,0,0,1,.536-1.821,1.83,1.83,0,0,1,2.774-.1V35.36h.837v6.979h-.753l-.04-.527a1.715,1.715,0,0,1-1.4.616,1.684,1.684,0,0,1-1.391-.7,2.911,2.911,0,0,1-.541-1.826Zm.842.093a2.171,2.171,0,0,0,.346,1.329,1.108,1.108,0,0,0,.953.474,1.227,1.227,0,0,0,1.17-.718V38.745a1.241,1.241,0,0,0-1.161-.691,1.112,1.112,0,0,0-.97.465A2.4,2.4,0,0,0,125.178,39.933Z" transform="translate(-103.847 -35.36)" fill="#fff"/>
              <path id="Trazado_835725" data-name="Trazado 835725" d="M136.136,42.312a2.9,2.9,0,0,1,.288-1.3A2.21,2.21,0,0,1,140,40.5a2.685,2.685,0,0,1,.616,1.852v.058a2.9,2.9,0,0,1-.275,1.289,2.065,2.065,0,0,1-.784.886,2.171,2.171,0,0,1-1.174.319,2.074,2.074,0,0,1-1.622-.7,2.659,2.659,0,0,1-.62-1.839Zm.846.1a2.1,2.1,0,0,0,.381,1.329,1.285,1.285,0,0,0,2.034,0,2.322,2.322,0,0,0,.377-1.4A2.087,2.087,0,0,0,139.388,41a1.276,1.276,0,0,0-2.025,0A2.3,2.3,0,0,0,136.982,42.409Z" transform="translate(-110.419 -37.837)" fill="#fff"/>
              <path id="Trazado_835726" data-name="Trazado 835726" d="M151.009,40.646a2.45,2.45,0,0,0-.416-.031,1.108,1.108,0,0,0-1.121.7v3.492h-.842V39.888h.82v.567a1.329,1.329,0,0,1,1.174-.656.855.855,0,0,1,.386.089Z" transform="translate(-117.378 -37.832)" fill="#fff"/>
              <path id="Trazado_835727" data-name="Trazado 835727" d="M164.724,43.762,165.668,40h.842l-1.431,4.918h-.687L163.2,41.192l-1.165,3.726h-.682L159.93,40h.837l.966,3.687L162.881,40h.678Z" transform="translate(-123.671 -37.944)" fill="#fff"/>
              <path id="Trazado_835728" data-name="Trazado 835728" d="M178.476,44.869a2.149,2.149,0,0,1-1.626-.656,2.442,2.442,0,0,1-.625-1.772v-.155a2.951,2.951,0,0,1,.279-1.329,2.18,2.18,0,0,1,.78-.886,1.972,1.972,0,0,1,1.09-.323,1.839,1.839,0,0,1,1.489.629,2.734,2.734,0,0,1,.532,1.808v.35h-3.332a1.772,1.772,0,0,0,.443,1.174,1.329,1.329,0,0,0,1.037.443,1.44,1.44,0,0,0,.753-.182,1.905,1.905,0,0,0,.541-.479l.514.4A2.065,2.065,0,0,1,178.476,44.869Zm-.1-4.431a1.117,1.117,0,0,0-.855.372,1.773,1.773,0,0,0-.443,1.037h2.459v-.04a1.577,1.577,0,0,0-.346-.993,1.05,1.05,0,0,0-.815-.354Z" transform="translate(-132.744 -37.801)" fill="#fff"/>
              <path id="Trazado_835729" data-name="Trazado 835729" d="M192,39.933a2.925,2.925,0,0,1-.518,1.812,1.657,1.657,0,0,1-1.391.682,1.706,1.706,0,0,1-1.44-.66l-.04.572h-.775V35.36h.842v2.6a1.706,1.706,0,0,1,1.4-.629,1.666,1.666,0,0,1,1.4.674A3.017,3.017,0,0,1,192,39.862Zm-.842-.093a2.273,2.273,0,0,0-.332-1.329,1.1,1.1,0,0,0-.953-.443,1.236,1.236,0,0,0-1.2.771v2.122a1.272,1.272,0,0,0,1.205.771,1.081,1.081,0,0,0,.939-.47A2.388,2.388,0,0,0,191.153,39.84Z" transform="translate(-139.209 -35.36)" fill="#fff"/>
              <path id="Trazado_835730" data-name="Trazado 835730" d="M602.88,251.06a65.33,65.33,0,1,1-65.33-65.33A65.33,65.33,0,0,1,602.88,251.06Z" transform="translate(-297.586 -119.101)" fill="#00a6b3" opacity="0.2"/>
              <path id="Trazado_835731" data-name="Trazado 835731" d="M741.616,232.414a21.078,21.078,0,1,1-21.091-21.074A21.079,21.079,0,0,1,741.616,232.414Z" transform="translate(-424.137 -133.364)" fill="#00a6b3" opacity="0.2"/>
              <path id="Trazado_835732" data-name="Trazado 835732" d="M679.916,444.568a21.078,21.078,0,1,1-21.078-21.078A21.078,21.078,0,0,1,679.916,444.568Z" transform="translate(-389.776 -251.511)" fill="#00a6b3" opacity="0.2"/>
              <path id="Trazado_835733" data-name="Trazado 835733" d="M900.082,405.921a7.036,7.036,0,1,1-2.061-4.98A7.041,7.041,0,0,1,900.082,405.921Z" transform="translate(-528.022 -237.805)" fill="#00a6b3" opacity="0.2"/>
              <path id="Trazado_835734" data-name="Trazado 835734" d="M315.032,462.211a7.036,7.036,0,1,1-2.061-4.98,7.041,7.041,0,0,1,2.061,4.98Z" transform="translate(-202.206 -269.153)" fill="#00a6b3" opacity="0.2"/>
              <circle id="Elipse_11040" data-name="Elipse 11040" cx="7.041" cy="7.041" r="7.041" transform="translate(325.455 36.999)" fill="#00a6b3" opacity="0.2"/>
              <path id="Trazado_835735" data-name="Trazado 835735" d="M486.422,52.911a7.041,7.041,0,1,1-7.041-7.041A7.041,7.041,0,0,1,486.422,52.911Z" transform="translate(-297.653 -41.213)" fill="#00a6b3" opacity="0.2"/>
              <path id="Trazado_835736" data-name="Trazado 835736" d="M712.892,600.651a7.041,7.041,0,1,1-7.041-7.041A7.041,7.041,0,0,1,712.892,600.651Z" transform="translate(-423.775 -346.251)" fill="#00a6b3" opacity="0.2"/>
              <path id="Trazado_835737" data-name="Trazado 835737" d="M473.122,301.506a13.736,13.736,0,1,1-13.736-13.736A13.736,13.736,0,0,1,473.122,301.506Z" transform="translate(-282.79 -175.928)" fill="#00a6b3" opacity="0.2"/>
              <path id="Trazado_835738" data-name="Trazado 835738" d="M586.789,226.5a87.912,87.912,0,1,1-86.515-89.288A87.93,87.93,0,0,1,586.789,226.5Z" transform="translate(-263.478 -92.078)" fill="none" stroke="#15314e" stroke-linecap="round" stroke-linejoin="round" stroke-width="0.98" stroke-dasharray="3.98"/>
              <path id="Trazado_835739" data-name="Trazado 835739" d="M588.309,563.281a67.856,67.856,0,1,0-128.5,0Z" transform="translate(-288.665 -279.415)" fill="url(#linear-gradient)"/>
              <path id="Trazado_835740" data-name="Trazado 835740" d="M456.22,574.321a8.477,8.477,0,0,1,1.156-1.5c.953-.846,3.8-.5,4.4-1.032s2.486,1.449,2.486,1.449c.372,1.174.567,1.772.975,2.955l.992.222c0-1.772,0-2.659.049-4.431,1.617-.665,2.437-1.01,4.1-1.71a21.992,21.992,0,0,1,.385-3.031c.31-1.515,4.723-4.768,4.723-4.768l6.465-1.732c-.412-1.081-.607-1.617-.993-2.659-.82-.173-1.227-.253-2.034-.412.346-.793.518-1.188.886-1.976,2.486-.084,3.749-.115,6.319-.146-.208,1.117-.31,1.679-.505,2.809,1.174.323,1.772.492,2.969.842-.284-1.857-.412-2.774-.643-4.577-1.072-3.545-1.547-5.286-2.344-8.57l-1.8,2.273c-.886.04-1.329.067-2.215.12.408-1.365.616-2.043,1.05-3.394,0,0-3.075-.851-4.431-.576s-.58,1.631-1.374,2.628-.133,3.31-.133,3.31l-2.876,1.834c-.164,1.205-.239,1.812-.372,3.04l-2.543,1.2c.2-1.569.306-2.344.558-3.877-1.591-1.032-2.344-1.511-3.775-2.38.39-1.387.6-2.074,1.037-3.43q5.929-4.431,11.813-8.862c-.093-.6-.137-.886-.213-1.489-1.183.944-1.772,1.413-2.947,2.344a50.66,50.66,0,0,1,.984-5.548s-3.221,4.236-3.642,4.927-6.2,1.608-6.2,1.608a17.17,17.17,0,0,0-1.905-.722l-.292-.071A75.437,75.437,0,0,0,456.22,574.321Z" transform="translate(-288.676 -312.636)" fill="#6e40fb"/>
              <path id="Trazado_835741" data-name="Trazado 835741" d="M461.381,643.486c.51,1.413,5.548,4.768,6.58,5.455a9.2,9.2,0,0,0-.235,6.243h20.139l-2.9-3.075c-3.988-2.255-5.977-3.372-9.837-5.53-.886.354-1.285.527-2.131.86-.164-.824-.248-1.241-.4-2.069-1.746,1.139-2.588,1.679-4.209,2.69-1.7-1.414-2.534-2.1-4.178-3.461-.066-.922-.093-1.387-.133-2.322l-2.309-.443c-.128-1.272-.182-1.914-.261-3.2,0,.6-.474,1.963-4.2,1.059a3.224,3.224,0,0,1-.394-.115c.062.674.1,1.006.173,1.675C459.032,641.9,461.084,642.715,461.381,643.486Z" transform="translate(-289.06 -371.323)" fill="#6e40fb"/>
              <path id="Trazado_835742" data-name="Trazado 835742" d="M467.19,638.1v.248A.976.976,0,0,0,467.19,638.1Z" transform="translate(-294.785 -371.028)" fill="#6e40fb"/>
              <path id="Trazado_835743" data-name="Trazado 835743" d="M511.024,533.954s3.66,3.545,3.713,3.274,4.063-4.617,4.063-4.617c.8-.062,1.2-.089,2-.142-.913-1.679-1.329-2.486-2.127-4.028.483-.784.727-1.174,1.214-1.958,0,0-2.277-2.153-1.936-2.716s-2.791,1.086-1.613-.993-1.741-.443-1.741-.443c-2.012,2.016-3.026,3.026-5.056,5.029,1.006-.027,1.524-.027,2.57,0,0,0,3.7-1.7,3.306,1S514.379,532.638,511.024,533.954Z" transform="translate(-318.37 -306.216)" fill="#6e40fb"/>
              <path id="Trazado_835744" data-name="Trazado 835744" d="M491.282,528.419c-.173-.239-.953.886-1.467,1.507s-1.05.39-1.041,0-1.582.886-2,.784,1.928-1.772,1.524-1.843a6.251,6.251,0,0,0-1.843.651c-1.019,1.072-1.529,1.6-2.548,2.658-.23.324-.346.483-.572.807l1.041-.8s.651-.213.518,0-1.6,1.564-1.6,1.564A15.486,15.486,0,0,0,482.85,536c2.446-1.329,3.7-1.963,6.252-3.208C489.12,532.774,491.451,528.658,491.282,528.419Z" transform="translate(-303.506 -309.928)" fill="#6e40fb"/>
              <path id="Trazado_835745" data-name="Trazado 835745" d="M499.86,552.516c.784-.753,1.174-1.135,1.958-1.9.324.549.492.828.842,1.4l-1.551.758C500.6,552.667,500.365,552.614,499.86,552.516Z" transform="translate(-312.979 -322.31)" fill="#6e40fb"/>
              <path id="Trazado_835746" data-name="Trazado 835746" d="M502.68,528.683c.2-.629.306-.939.523-1.551l.957-.47c.443-.642.651-.966,1.09-1.608.408-.04.616-.058,1.037-.084l-1.551,2.074c.417-.115.625-.173,1.046-.279C504.537,527.527,503.916,527.912,502.68,528.683Z" transform="translate(-314.55 -308.025)" fill="#6e40fb"/>
              <path id="Trazado_835747" data-name="Trazado 835747" d="M510.82,525.211l1.148-1.675c.7-.177,1.046-.261,1.772-.416Z" transform="translate(-319.083 -306.995)" fill="#6e40fb"/>
              <path id="Trazado_835748" data-name="Trazado 835748" d="M499.939,521.377a10.112,10.112,0,0,1,.062-1.245c1.214-.979,1.826-1.467,3.044-2.437.709-.315,1.072-.443,1.812-.745-.124.518-.177.78-.275,1.33C502.708,519.5,501.782,520.122,499.939,521.377Z" transform="translate(-313.023 -303.559)" fill="#6e40fb"/>
              <path id="Trazado_835749" data-name="Trazado 835749" d="M521.48,512.684c.558-.075.846-.111,1.422-.164.1.758.159,1.148.306,1.958.917-.27,1.382-.4,2.317-.647l-.811,1.214c-1.112.177-1.657.279-2.739.5-.363-.616-.536-.908-.846-1.471C521.263,513.512,521.334,513.233,521.48,512.684Z" transform="translate(-324.825 -301.092)" fill="#6e40fb"/>
              <path id="Trazado_835750" data-name="Trazado 835750" d="M527.62,495.812c1.041,0,1.582.027,2.69.106,2.366-2.149,3.545-3.217,5.844-5.317-.155-.306-.235-.443-.381-.758,1.068-.354,1.608-.523,2.7-.846,2.428-1.923,3.625-2.871,5.973-4.715,0,0-.536-5.056-9.048,1.192-.842.612.239,2.787.239,2.787C532.494,491.243,530.89,492.768,527.62,495.812Z" transform="translate(-328.439 -284.29)" fill="#6e40fb"/>
              <path id="Trazado_835751" data-name="Trazado 835751" d="M530,498.531c1.555-1.037,2.335-1.546,3.886-2.548,0,0,1.874-4.311,1.179-3.873a44.565,44.565,0,0,0-3.363,3.159C530.993,496.559,530.651,497.211,530,498.531Z" transform="translate(-329.764 -289.708)" fill="#6e40fb"/>
              <path id="Trazado_835752" data-name="Trazado 835752" d="M544.752,493.413c.386-1.706.589-2.543,1.015-4.192,1.192-.412,1.772-.607,3-.984,2.729-2.45,4.072-3.656,6.677-6,1.453-.168,2.189-.23,3.687-.324,0,0,4.143-3.487,5.76-3.5s5.246,3.523,5.206,4.236,3.1.5,3.1.5c-1.4,1.183-2.118,1.772-3.58,3.04-.479,2.277-.727,3.438-1.236,5.8,0,0-2.588,4.489-2.131,5.738s-2.3-1.923-2.3-1.923c-.1.771-.155,1.161-.257,1.941.727.966,1.1,1.458,1.865,2.459l-1.329.541-1.945-1.684-.948,2.4c1.236.124,1.857.191,3.1.341-4.285,2.109-6.451,3.23-10.789,5.517l-5.494,7.812s-5.565-4.515-3.031-7.568c.408-.492,2.171-2.725,2.171-2.725.3-4.431.505-6.607,1.037-10.741C546.861,493.777,546.148,493.639,544.752,493.413Z" transform="translate(-337.821 -282.096)" fill="#6e40fb"/>
              <path id="Trazado_835753" data-name="Trazado 835753" d="M605.517,587.888c1.7.651,2.539.966,4.205,1.591.031.128.067.27.1.4h28.912a27.466,27.466,0,0,0,4.954-7.089c-1.9.567-2.867.851-4.807,1.422-3.128-3.762-9.2-9.748-8.893-12.974.106-1.108,1.7-.146,1.7-.146q3.948,5.229,7.847,10.493c5.2-.718,10.089-7.054,10.089-7.054-1.1-.66-1.662-1-2.8-1.693l-2.574.842s-.74-.784-2.375-2.929,1.085-1.666,1.085-1.666c2.747,1.285,4.09,1.9,6.709,3.071,1.772.071,2.632.106,4.351.168,1.6,1.1,2.388,1.631,3.913,2.636,0,0,2.929,5.836,2.716,6.646s1.772.323,2.747-.51.886-2.916.886-2.916l.78-.6c1.71-17.529-1.741-32.745-11.046-47.7a5.874,5.874,0,0,0-1.028-.359,24.458,24.458,0,0,0-1.493-2.752l-2.574-2.45c-.3-.129-.443-.186-.767-.3-1.17-1.063-1.773-1.6-2.92-2.659a24.14,24.14,0,0,1,1.024,2.574,15.555,15.555,0,0,0-2.441,0c.328.97.479,1.462.771,2.468-.567-.137-.855-.2-1.44-.328,2.432,2.49,3.66,3.731,6.106,6.172-2.26-1.852-3.39-2.792-5.654-4.67-.674.354-1.024.549-1.773.966-.749-.793-1.13-1.192-1.879-1.99-.478.616-.731.935-1.263,1.6,1.174,1.329,1.772,1.99,2.938,3.31-1.086-.319-1.635-.479-2.738-.784-.164.643-.248.97-.443,1.635-1.7-.408-2.566-.6-4.307-.962-3.137,1.307-4.825,2.078-8.392,3.8,0,0-2.911-3.1-2.552-3.4s3.571,1.391,3.571,1.391a1.857,1.857,0,0,0,1.267-1.418c.151-1.094-8.149-4.914-10.072-5.53s-5.144-.12-5.853,3.868-5.282,5.375-5.681,8.352,1.33,2.987,1.6,3,1.524-2.215,1.524-2.215.944-.266.979,1.391,2.078,3.6,2.078,3.6.815.749,2.127-1.219-.279-5.171-.279-5.171-.656-1.914,1.905-2.065,3.709,5.229,3.709,5.229a50.981,50.981,0,0,0-3.022,4.369c-.151.541-3.545.58-3.545.58-1.05-.058-1.573-.084-2.628-.133-.4-1.3-.607-1.954-1.015-3.243l-.93.824c.053,1.281.075,1.923.124,3.217l-2.127-.084c-.244.7-.363,1.055-.616,1.772-1.772,1.077-2.69,1.626-4.515,2.738l-2.371.443c.833.576,1.25.886,2.078,1.444.026,1.356.035,2.038.058,3.407-2.087-.04-3.146-.062-5.242-.089,0,0-1.365,4.343-1.374,4.679l1.085,1.369,2.216-.474.722,1.281,3.523-1.21s1.679-2.743,1.591-3.164,2.291-2.282,2.836-2.1,2.885-1.653,3.155-.82,4.564,3.868,4.564,3.868l1.329,1.365c.5-.611.749-.922,1.241-1.529,0,0-4.431-2.216-4.719-3.709s2.034-1.152,2.034-1.152a5.625,5.625,0,0,1,4.356,4.431c.722,3.8,1.679,3.341,1.679,3.341s1.489-.031.261-1.059,1.631-3.518,1.631-3.518l.275,1.307,1.387.137.939-.6s-.789-.842-.8-1.329,2.06-3.151,2.06-3.151l1.44.093.563,1.608,1.772-.128-1.409-1.733c1.205-.106,1.808-.159,3-.253.616,1.094.922,1.644,1.529,2.734.643,1.188.961,1.772,1.586,2.964,0,0-7.581-.47-8.1-.412s-2.659.767-2.818,1.653,2.171,2.508,2.171,2.508l5.206.656c-.332,1.489-.505,2.238-.886,3.744l-10.284-1.267-1.329,2.06-7.09-3.155c-.443-.886-.634-1.329-1.064-2.215,0,0-7.005.026-8.2-.08s-4.178,1.542-4.178,1.542-2.291,3.988-3.217,4.214-4.205,4.431-5.122,5.255-1.139,6.908-1.139,6.908c3.239,3.239,4.874,4.874,8.091,8.007C600.319,588.521,602.07,588.318,605.517,587.888Z" transform="translate(-362.482 -306.02)" fill="#6e40fb"/>
              <path id="Trazado_835754" data-name="Trazado 835754" d="M610.458,574.266c.036-.168.7-2.659.7-2.659.084-.886.124-1.3.2-2.158-.518-.443-.78-.7-1.3-1.156-.443-.567-.634-.846-1.055-1.409.886-.523,1.329-.78,2.215-1.294l1.36.4-.488,1.329c.115.412.173.616.292,1.028,0,0,2.012,2.216,2.189,2.481a21.786,21.786,0,0,1,.776,2.078S610.2,575.409,610.458,574.266Z" transform="translate(-373.76 -330.647)" fill="#6e40fb"/>
              <path id="Trazado_835755" data-name="Trazado 835755" d="M604.549,576.128s-.191-2.273.35-2.322a3.37,3.37,0,0,0,1.267-.576l.886.12c.177,1.081.266,1.622.443,2.712C607.509,576.061,605.014,576.948,604.549,576.128Z" transform="translate(-371.263 -334.901)" fill="#6e40fb"/>
              <path id="Trazado_835756" data-name="Trazado 835756" d="M631.28,570.394h54.532a67.887,67.887,0,0,0-36.994-84.025,67.865,67.865,0,0,1-17.538,84.025Z" transform="translate(-386.167 -286.529)" fill="url(#linear-gradient-2)" style="mix-blend-mode: multiply;isolation: isolate"/>
              <circle id="Elipse_11041" data-name="Elipse 11041" cx="24.118" cy="24.118" r="24.118" transform="translate(211.282 28.057)" fill="#fff" stroke="#15314e" stroke-miterlimit="10" stroke-width="2"/>
              <path id="Trazado_835757" data-name="Trazado 835757" d="M594.4,114.73A11.906,11.906,0,1,0,606.3,126.636,11.906,11.906,0,0,0,594.4,114.73Zm-11.117,12.292h4.613a20.586,20.586,0,0,0,.576,4.568H584.44A11.08,11.08,0,0,1,583.279,127.022Zm11.521-7.209v-4.276c1.679.217,3.159,1.843,4.134,4.276Zm4.431.78a19.26,19.26,0,0,1,.917,5.654H594.83V120.61Zm-5.2-5.056v4.276h-4.134c.953-2.433,2.437-4.076,4.112-4.276Zm0,5.056v5.654h-5.317a18.979,18.979,0,0,1,.877-5.636Zm-6.115,5.654h-4.635a11.046,11.046,0,0,1,1.773-5.654h3.713a20,20,0,0,0-.873,5.654Zm.78.775h5.317v4.568h-4.741a19.778,19.778,0,0,1-.6-4.568Zm5.317,5.348v5.361c-1.914-.248-3.58-2.335-4.52-5.361Zm.78,5.361V132.37h4.52c-.944,3.026-2.605,5.113-4.524,5.361Zm0-6.141v-4.568h5.317a20.016,20.016,0,0,1-.6,4.568Zm6.093-4.568H605.5a11.078,11.078,0,0,1-1.156,4.568h-4.032A20.326,20.326,0,0,0,600.883,127.022Zm0-.775a19.831,19.831,0,0,0-.886-5.654h3.713a11.008,11.008,0,0,1,1.772,5.654Zm2.278-6.434h-3.434a13.4,13.4,0,0,0-.673-1.507,8.531,8.531,0,0,0-1.87-2.441,11.17,11.17,0,0,1,6,3.948Zm-11.583-3.948a8.519,8.519,0,0,0-1.866,2.441,13.366,13.366,0,0,0-.678,1.507H585.6A11.189,11.189,0,0,1,591.578,115.864Zm-6.726,16.505h3.815a14.328,14.328,0,0,0,1.046,2.588,8.487,8.487,0,0,0,1.865,2.446,11.174,11.174,0,0,1-6.713-5.034Zm12.336,5.034a8.5,8.5,0,0,0,1.87-2.446,14.327,14.327,0,0,0,1.041-2.588h3.819A11.184,11.184,0,0,1,597.2,137.4Z" transform="translate(-358.996 -79.561)" fill="#275b83"/>
              <path id="Trazado_835758" data-name="Trazado 835758" d="M590.585,173.441V167.65H585.5v5.791H571.08v2.6h33.928v-2.6Z" transform="translate(-352.642 -109.033)" fill="#275b83"/>
              <rect id="Rectángulo_388488" data-name="Rectángulo 388488" width="7.573" height="6.943" transform="translate(231.616 62.233)" fill="#0f4b69"/>
              <circle id="Elipse_11042" data-name="Elipse 11042" cx="24.118" cy="24.118" r="24.118" transform="translate(122.485 116.087)" fill="#fff" stroke="#15314e" stroke-miterlimit="10" stroke-width="2"/>
              <path id="Trazado_835759" data-name="Trazado 835759" d="M392.39,351.18v5.171c0,1.037,2.836,1.879,6.336,1.879s6.336-.842,6.336-1.879V351.18Z" transform="translate(-253.129 -211.241)" fill="#135272"/>
              <path id="Trazado_835760" data-name="Trazado 835760" d="M405.073,348.824c0,1.037-2.836,1.874-6.336,1.874s-6.336-.837-6.336-1.874,2.836-1.874,6.336-1.874S405.073,347.787,405.073,348.824Z" transform="translate(-253.134 -208.885)" fill="#275b83"/>
              <path id="Trazado_835761" data-name="Trazado 835761" d="M393.85,339.52v4.644c0,.93,2.548,1.684,5.689,1.684s5.689-.753,5.689-1.684V339.52Z" transform="translate(-253.942 -204.748)" fill="#00a6b3"/>
              <path id="Trazado_835762" data-name="Trazado 835762" d="M392.39,335.07v5.171c0,1.037,2.836,1.874,6.336,1.874s6.336-.837,6.336-1.874V335.07Z" transform="translate(-253.129 -202.269)" fill="#135272"/>
              <path id="Trazado_835763" data-name="Trazado 835763" d="M405.073,332.714c0,1.032-2.836,1.874-6.336,1.874s-6.336-.842-6.336-1.874,2.836-1.874,6.336-1.874S405.073,331.677,405.073,332.714Z" transform="translate(-253.134 -199.914)" fill="#275b83"/>
              <path id="Trazado_835764" data-name="Trazado 835764" d="M393.85,323.41v4.644c0,.931,2.548,1.684,5.689,1.684s5.689-.753,5.689-1.684V323.41Z" transform="translate(-253.942 -195.776)" fill="#00a6b3"/>
              <path id="Trazado_835765" data-name="Trazado 835765" d="M392.39,319.17v5.175c0,1.037,2.836,1.874,6.336,1.874s6.336-.837,6.336-1.874V319.17Z" transform="translate(-253.129 -193.415)" fill="#135272"/>
              <path id="Trazado_835766" data-name="Trazado 835766" d="M405.073,324.345V319.17C401.6,336.761,392.4,338.525,392.4,338.525c0,1.037,2.836,1.879,6.336,1.879s6.336-.842,6.336-1.879v-5.171c0-.3-.235-.576-.647-.824v-.319c.412-.248.647-.527.647-.824v-5.171c0-.3-.235-.576-.647-.829v-.217C404.833,324.921,405.073,324.642,405.073,324.345Z" transform="translate(-253.134 -193.415)" fill="#d7d9dd" style="mix-blend-mode: multiply;isolation: isolate"/>
              <path id="Trazado_835767" data-name="Trazado 835767" d="M405.073,316.814c0,1.037-2.836,1.879-6.336,1.879s-6.336-.842-6.336-1.879,2.836-1.874,6.336-1.874S405.073,315.782,405.073,316.814Z" transform="translate(-253.134 -191.059)" fill="#275b83"/>
              <path id="Trazado_835768" data-name="Trazado 835768" d="M375.42,372.71v5.175c0,1.037,2.836,1.874,6.336,1.874s6.336-.838,6.336-1.874V372.71Z" transform="translate(-243.678 -223.231)" fill="#135272"/>
              <path id="Trazado_835769" data-name="Trazado 835769" d="M388.073,370.354c0,1.037-2.836,1.879-6.336,1.879s-6.336-.842-6.336-1.879,2.836-1.874,6.336-1.874S388.073,369.322,388.073,370.354Z" transform="translate(-243.667 -220.875)" fill="#275b83"/>
              <path id="Trazado_835770" data-name="Trazado 835770" d="M376.88,361.05V365.7c0,.931,2.548,1.684,5.689,1.684s5.689-.753,5.689-1.684V361.05Z" transform="translate(-244.491 -216.738)" fill="#00a6b3"/>
              <path id="Trazado_835771" data-name="Trazado 835771" d="M375.42,356.6v5.175c0,1.032,2.836,1.874,6.336,1.874s6.336-.842,6.336-1.874V356.6Z" transform="translate(-243.678 -214.26)" fill="#135272"/>
              <path id="Trazado_835772" data-name="Trazado 835772" d="M388.073,354.244c0,1.037-2.836,1.879-6.336,1.879s-6.336-.842-6.336-1.879,2.836-1.874,6.336-1.874S388.073,353.212,388.073,354.244Z" transform="translate(-243.667 -211.904)" fill="#275b83"/>
              <path id="Trazado_835773" data-name="Trazado 835773" d="M376.88,344.94v4.644c0,.93,2.548,1.688,5.689,1.688s5.689-.758,5.689-1.688V344.94Z" transform="translate(-244.491 -207.766)" fill="#00a6b3"/>
              <path id="Trazado_835774" data-name="Trazado 835774" d="M375.42,340.71v5.171c0,1.037,2.836,1.879,6.336,1.879s6.336-.842,6.336-1.879V340.71Z" transform="translate(-243.678 -205.41)" fill="#135272"/>
              <path id="Trazado_835775" data-name="Trazado 835775" d="M388.073,345.881V340.71C384.6,358.3,375.4,360.064,375.4,360.064c0,1.037,2.836,1.874,6.336,1.874s6.336-.837,6.336-1.874v-5.175c0-.292-.235-.576-.647-.824v-.315c.412-.248.647-.532.647-.824v-5.175c0-.3-.235-.576-.647-.824v-.217C387.847,346.457,388.073,346.178,388.073,345.881Z" transform="translate(-243.667 -205.41)" fill="#d7d9dd" style="mix-blend-mode: multiply;isolation: isolate"/>
              <ellipse id="Elipse_11043" data-name="Elipse 11043" cx="6.336" cy="1.874" rx="6.336" ry="1.874" transform="translate(131.742 133.425)" fill="#275b83"/>
              <path id="Trazado_835776" data-name="Trazado 835776" d="M413.9,372.71v5.175c0,1.037,2.836,1.874,6.336,1.874s6.336-.838,6.336-1.874V372.71Z" transform="translate(-265.108 -223.231)" fill="#135272"/>
              <path id="Trazado_835777" data-name="Trazado 835777" d="M426.573,370.354c0,1.037-2.836,1.879-6.336,1.879s-6.336-.842-6.336-1.879,2.836-1.874,6.336-1.874S426.573,369.322,426.573,370.354Z" transform="translate(-265.108 -220.875)" fill="#275b83"/>
              <path id="Trazado_835778" data-name="Trazado 835778" d="M415.36,361.05V365.7c0,.931,2.548,1.684,5.689,1.684s5.689-.753,5.689-1.684V361.05Z" transform="translate(-265.921 -216.738)" fill="#00a6b3"/>
              <path id="Trazado_835779" data-name="Trazado 835779" d="M413.9,356.6v5.175c0,1.032,2.836,1.874,6.336,1.874s6.336-.842,6.336-1.874V356.6Z" transform="translate(-265.108 -214.26)" fill="#135272"/>
              <path id="Trazado_835780" data-name="Trazado 835780" d="M426.573,354.244c0,1.037-2.836,1.879-6.336,1.879s-6.336-.842-6.336-1.879,2.836-1.874,6.336-1.874S426.573,353.212,426.573,354.244Z" transform="translate(-265.108 -211.904)" fill="#275b83"/>
              <path id="Trazado_835781" data-name="Trazado 835781" d="M415.36,344.94v4.644c0,.93,2.548,1.688,5.689,1.688s5.672-.758,5.672-1.688V344.94Z" transform="translate(-265.921 -207.766)" fill="#00a6b3"/>
              <path id="Trazado_835782" data-name="Trazado 835782" d="M413.9,340.71v5.171c0,1.037,2.836,1.879,6.336,1.879s6.336-.842,6.336-1.879V340.71Z" transform="translate(-265.108 -205.41)" fill="#135272"/>
              <path id="Trazado_835783" data-name="Trazado 835783" d="M426.573,345.881V340.71C423.1,358.3,413.9,360.064,413.9,360.064c0,1.037,2.836,1.874,6.336,1.874s6.336-.837,6.336-1.874v-5.175c0-.292-.235-.576-.647-.824v-.315c.412-.248.647-.532.647-.824v-5.175c0-.3-.235-.576-.647-.824v-.217C426.351,346.457,426.573,346.178,426.573,345.881Z" transform="translate(-265.108 -205.41)" fill="#d7d9dd" style="mix-blend-mode: multiply;isolation: isolate"/>
              <path id="Trazado_835784" data-name="Trazado 835784" d="M426.573,338.354c0,1.037-2.836,1.874-6.336,1.874s-6.336-.837-6.336-1.874,2.836-1.874,6.336-1.874S426.573,337.317,426.573,338.354Z" transform="translate(-265.108 -203.055)" fill="#275b83"/>
              <circle id="Elipse_11044" data-name="Elipse 11044" cx="24.118" cy="24.118" r="24.118" transform="translate(300.083 110.96)" fill="#fff" stroke="#15314e" stroke-miterlimit="10" stroke-width="2"/>
              <rect id="Rectángulo_388489" data-name="Rectángulo 388489" width="23.444" height="0.877" transform="translate(312.477 149.931)" fill="#292f35"/>
              <path id="Trazado_835785" data-name="Trazado 835785" d="M807.672,337.314,800.826,311.9a2.118,2.118,0,0,0,.744-1.626,2.052,2.052,0,1,0-4.1,0,2.136,2.136,0,0,0,.744,1.626l-6.846,25.416h.66l1.1-4.09h12.774l1.1,4.09ZM800.307,324.8l2.973-1.329.846,3.146Zm3.788,2.419h-9.159l4.546-2.047Zm-3.988-8.162,1.626-1.254,1.019,3.793Zm2.437,2.889H796.4l3.266-2.53Zm-2.9-3.337-1.236-1.236h2.659Zm1.741-1.941h-3.762l-.04-.035.089-.328,1.795-2.087Zm-1.555-2.84.651-.753.789,2.924Zm-1.923,1.693.665-2.473.594.758Zm1.294,3.492-2.9,2.464,1.108-4.059Zm3.868,3.669h0l-3.589,1.719-3.545-1.666v-.071Zm-4.4,2.131-3.744,1.795.833-3.1Zm5.286,3.142-4.431,1.932-4.431-1.932Zm-3.7-15.717v.058l-.767,1.046-.718-1.081v-.022a1.968,1.968,0,0,0,1.467,0Zm-6.926,20.245,1.077-3.988,4.24,1.772-5.1,2.216Zm1.71,0,4.484-1.861,4.48,1.861Zm10.457,0-5.1-2.216,4.236-1.772,1.077,3.988Z" transform="translate(-475.322 -187.264)" fill="#292f35"/>
              <path id="Trazado_835786" data-name="Trazado 835786" d="M816.8,311.808a.186.186,0,0,1,0-.368,2.854,2.854,0,1,0,0-5.7.186.186,0,0,1,0-.368,3.221,3.221,0,0,1,0,6.438Z" transform="translate(-489.397 -185.729)" fill="#292f35"/>
              <path id="Trazado_835787" data-name="Trazado 835787" d="M815.73,312.091a.186.186,0,1,1,0-.368,1.586,1.586,0,0,0,0-3.168.186.186,0,1,1,0-.368,1.954,1.954,0,0,1,0,3.9Z" transform="translate(-488.769 -187.297)" fill="#292f35"/>
              <path id="Trazado_835788" data-name="Trazado 835788" d="M817.772,311.524a.182.182,0,1,1,0-.363,3.952,3.952,0,0,0,0-7.9.182.182,0,1,1,0-.363,4.316,4.316,0,1,1,0,8.627Z" transform="translate(-489.924 -184.351)" fill="#292f35"/>
              <path id="Trazado_835789" data-name="Trazado 835789" d="M798.6,311.808a.186.186,0,0,0,0-.368,2.854,2.854,0,1,1,0-5.7.186.186,0,0,0,0-.368,3.221,3.221,0,0,0,0,6.438Z" transform="translate(-477.621 -185.729)" fill="#292f35"/>
              <path id="Trazado_835790" data-name="Trazado 835790" d="M801.181,312.094a.186.186,0,0,0,0-.368,1.586,1.586,0,1,1,0-3.168.186.186,0,0,0,0-.368,1.954,1.954,0,0,0,0,3.9Z" transform="translate(-479.749 -187.3)" fill="#292f35"/>
              <path id="Trazado_835791" data-name="Trazado 835791" d="M795.922,311.524a.182.182,0,0,0,0-.363,3.952,3.952,0,0,1,0-7.9.182.182,0,0,0,0-.363,4.316,4.316,0,1,0,0,8.627Z" transform="translate(-475.376 -184.351)" fill="#292f35"/>
              <circle id="Elipse_11045" data-name="Elipse 11045" cx="24.118" cy="24.118" r="24.118" transform="translate(314.918 6.425)" fill="#fff" stroke="#15314e" stroke-miterlimit="10" stroke-width="2"/>
              <path id="Trazado_835792" data-name="Trazado 835792" d="M822.038,73.84l-1.152-2.18H812.6V99.021a1.551,1.551,0,0,0,1.555,1.551h23.927a1.551,1.551,0,0,0,1.551-1.551V73.84Z" transform="translate(-487.145 -55.576)" fill="#15314e"/>
              <path id="Trazado_835793" data-name="Trazado 835793" d="M818.256,73.45h-.576l-.492.625-.5-.625h-.572l.78.988-.78.988h.572l.5-.625.492.625h.576l-.784-.988Z" transform="translate(-489.105 -56.572)" fill="#e87347"/>
              <rect id="Rectángulo_388490" data-name="Rectángulo 388490" width="24.384" height="22.935" rx="3.16" transform="translate(326.775 20.719)" fill="#586171"/>
              <rect id="Rectángulo_388491" data-name="Rectángulo 388491" width="22.292" height="19.337" transform="translate(327.821 22.518)" fill="#f4f4f4"/>
              <path id="Trazado_835794" data-name="Trazado 835794" d="M853.3,94.53H851.64l4.094,5.415-4.094,5.415H853.3l4.094-5.415Z" transform="translate(-508.887 -68.312)" fill="#15314e"/>
              <path id="Trazado_835795" data-name="Trazado 835795" d="M825.664,94.53h1.657l-4.094,5.415,4.094,5.415h-1.657l-4.094-5.415Z" transform="translate(-492.14 -68.312)" fill="#15314e"/>
              <path id="Trazado_835796" data-name="Trazado 835796" d="M840.72,94.53l-3.97,10.829h1.657l3.97-10.829Z" transform="translate(-500.594 -68.312)" fill="#15314e"/>
              <path id="Trazado_835797" data-name="Trazado 835797" d="M838.007,76.58a24.671,24.671,0,0,1-24.858,24.06h-.55v1.125a1.551,1.551,0,0,0,1.555,1.551h23.927a1.551,1.551,0,0,0,1.551-1.551V76.58Z" transform="translate(-487.145 -58.316)" fill="#d7d9dd" style="mix-blend-mode: multiply;isolation: isolate"/>
              <circle id="Elipse_11046" data-name="Elipse 11046" cx="24.118" cy="24.118" r="24.118" transform="translate(110.305 15.309)" fill="#fff" stroke="#15314e" stroke-miterlimit="10" stroke-width="2"/>
              <path id="Trazado_835798" data-name="Trazado 835798" d="M370.466,99.612a5.685,5.685,0,0,0-9.372-5.344,8.149,8.149,0,0,0-15.544,3.425,8.3,8.3,0,0,0,.248,2,7.745,7.745,0,0,0,1.852,15.265H369a7.745,7.745,0,0,0,1.462-15.349Z" transform="translate(-223.903 -65.533)" fill="#393939"/>
              <path id="Trazado_835799" data-name="Trazado 835799" d="M372.142,112.086a.337.337,0,0,1,.022-.146,10.107,10.107,0,0,1-4.945,2.131,8.419,8.419,0,0,1-12.065,6.757,10.112,10.112,0,0,1-12.234,3.2,7.741,7.741,0,0,0,6.407,3.39H370.68a7.745,7.745,0,0,0,1.462-15.349Z" transform="translate(-225.579 -78.008)" fill="#d7d9dd" style="mix-blend-mode: multiply;isolation: isolate"/>
              <path id="Trazado_835800" data-name="Trazado 835800" d="M404.3,129.868a.837.837,0,0,0-.762-.483H400.91V121.52h-6.443v7.865h-2.623a.842.842,0,0,0-.647,1.378l5.844,7.116a.855.855,0,0,0,.651.306.846.846,0,0,0,.647-.306l5.849-7.116A.846.846,0,0,0,404.3,129.868Z" transform="translate(-252.357 -83.343)" fill="#c6facc"/>
              <path id="Trazado_835801" data-name="Trazado 835801" d="M328.687,532a10.967,10.967,0,1,0,10.967,10.967A10.967,10.967,0,0,0,328.687,532Zm-10.24,11.326h4.272a19.017,19.017,0,0,0,.532,4.2h-3.713a10.192,10.192,0,0,1-1.09-4.2Zm10.6-6.646V532.74c1.546.2,2.911,1.7,3.811,3.939Zm4.072.718a17.619,17.619,0,0,1,.846,5.237h-4.918v-5.229Zm-4.79-4.657v3.939h-3.806c.9-2.229,2.26-3.731,3.806-3.93Zm0,4.657v5.237h-4.914a17.481,17.481,0,0,1,.842-5.206Zm-5.61,5.237h-4.249a10.16,10.16,0,0,1,1.644-5.206h3.421A18.074,18.074,0,0,0,322.718,542.634Zm.718.718h4.914v4.205h-4.365a18.289,18.289,0,0,1-.572-4.227Zm4.914,4.923v4.941c-1.772-.23-3.3-2.153-4.165-4.941Zm.718,4.941v-4.963h4.165c-.891,2.8-2.419,4.71-4.187,4.941Zm0-5.658v-4.205h4.918a18.279,18.279,0,0,1-.549,4.205Zm5.614-4.227h4.249a10.189,10.189,0,0,1-1.068,4.2H334.15A18.762,18.762,0,0,0,334.682,543.33Zm0-.718a18.233,18.233,0,0,0-.811-5.206h3.421a10.193,10.193,0,0,1,1.639,5.206Zm2.1-5.924h-3.164A13.245,13.245,0,0,0,333,535.3a7.8,7.8,0,0,0-1.724-2.251,10.311,10.311,0,0,1,5.5,3.638Zm-10.674-3.638a7.783,7.783,0,0,0-1.719,2.251,12.417,12.417,0,0,0-.625,1.387H320.6a10.284,10.284,0,0,1,5.5-3.638Zm-6.2,15.2h3.514a13.174,13.174,0,0,0,.962,2.388,7.786,7.786,0,0,0,1.719,2.251,10.3,10.3,0,0,1-6.19-4.639Zm11.361,4.639a7.8,7.8,0,0,0,1.724-2.251,13.165,13.165,0,0,0,.957-2.388h3.514a10.289,10.289,0,0,1-6.19,4.639Z" transform="translate(-211.545 -311.94)" fill="#292f35"/>
              <path id="Trazado_835802" data-name="Trazado 835802" d="M837.907,523.85a4.267,4.267,0,1,0,4.267,4.267A4.267,4.267,0,0,0,837.907,523.85Z" transform="translate(-498.862 -307.401)" fill="#15314e"/>
              <path id="Trazado_835803" data-name="Trazado 835803" d="M822.382,505.731l1.028,1.467a13.909,13.909,0,0,1,16.395.026l1.024-1.471a15.7,15.7,0,0,0-18.468-.022Z" transform="translate(-492.58 -295.645)" fill="#15314e"/>
              <path id="Trazado_835804" data-name="Trazado 835804" d="M829.1,516.13l1.028,1.475a7.75,7.75,0,0,1,10.479.031l1.032-1.48a9.531,9.531,0,0,0-12.54-.027Z" transform="translate(-496.334 -301.799)" fill="#15314e"/>
              <path id="Trazado_835805" data-name="Trazado 835805" d="M827.817,490.8a20.98,20.98,0,0,0-12.247,3.93l1.023,1.467a19.266,19.266,0,0,1,22.483.027l1.023-1.467A20.986,20.986,0,0,0,827.817,490.8Z" transform="translate(-488.799 -288.996)" fill="#15314e"/>
              <path id="Trazado_835806" data-name="Trazado 835806" d="M527.16,463.736,554.9,428.9l-5.614,34.836Z" transform="translate(-328.183 -254.523)" fill="#3b424c"/>
              <path id="Trazado_835807" data-name="Trazado 835807" d="M598.664,381.972l19.744-30.547a5.162,5.162,0,1,0-2.012-2.007l-30.547,19.74Z" transform="translate(-360.867 -205.988)" fill="#3b424c"/>
              <path id="Trazado_835808" data-name="Trazado 835808" d="M553.028,323.46a40.973,40.973,0,0,0,57.678,57.669Z" transform="translate(-337.391 -195.804)" fill="#586171"/>
              <path id="Trazado_835809" data-name="Trazado 835809" d="M601.868,375.9A40.955,40.955,0,0,1,550.908,330a40.973,40.973,0,0,0,59.818,54.789Z" transform="translate(-337.432 -199.446)" fill="#d7d9dd" style="mix-blend-mode: multiply;isolation: isolate"/>
              <path id="Trazado_835810" data-name="Trazado 835810" d="M617.406,463.736,589.77,428.9l5.512,34.836Z" transform="translate(-363.05 -254.523)" fill="#3b424c"/>
              <path id="Trazado_835811" data-name="Trazado 835811" d="M591.819,429.409a6.039,6.039,0,1,1-6.039-6.039,6.039,6.039,0,0,1,6.039,6.039Z" transform="translate(-357.465 -251.444)" fill="#3b424c"/>
              <rect id="Rectángulo_388492" data-name="Rectángulo 388492" width="64.931" height="2.366" transform="translate(195.858 206.851)" fill="#292f35"/>
              <path id="Trazado_835812" data-name="Trazado 835812" d="M672.565,331.54a1.01,1.01,0,0,1-1.431-1.427,15.771,15.771,0,1,0-22.305-22.3,1.012,1.012,0,0,1-1.431-1.431,17.79,17.79,0,1,1,25.159,25.159Z" transform="translate(-394.978 -183.39)" fill="#292f35"/>
              <path id="Trazado_835813" data-name="Trazado 835813" d="M669.908,339.354a1.012,1.012,0,0,1-1.431-1.431,8.773,8.773,0,0,0-12.407-12.407,1.01,1.01,0,0,1-1.427-1.427A10.785,10.785,0,1,1,669.9,339.341Z" transform="translate(-399.034 -194.395)" fill="#292f35"/>
              <path id="Trazado_835814" data-name="Trazado 835814" d="M675.3,324.385a1.01,1.01,0,1,1-1.427-1.427,21.835,21.835,0,1,0-30.88-30.88,1.012,1.012,0,0,1-1.431-1.431A23.856,23.856,0,1,1,675.3,324.385Z" transform="translate(-391.726 -173.639)" fill="#292f35"/>
            </g>
          </g>
        </g>
      </g>
      <path id="Trazado_836018" data-name="Trazado 836018" d="M11.8,10.865a7.546,7.546,0,0,1-.694,3.313A5.132,5.132,0,0,1,9.136,16.4a5.494,5.494,0,0,1-2.914.778,5.572,5.572,0,0,1-2.9-.751,5.123,5.123,0,0,1-1.973-2.149,7.329,7.329,0,0,1-.743-3.208v-.721A7.58,7.58,0,0,1,1.3,7.029,5.119,5.119,0,0,1,3.274,4.81a5.533,5.533,0,0,1,2.931-.782,5.479,5.479,0,0,1,2.9.773A5.211,5.211,0,0,1,11.087,7a7.362,7.362,0,0,1,.716,3.274Zm-3.138-.536a5.381,5.381,0,0,0-.637-2.9,2.044,2.044,0,0,0-1.824-.989q-2.32,0-2.452,3.48l-.009.94a5.535,5.535,0,0,0,.624,2.892,2.041,2.041,0,0,0,1.854,1.011,2.016,2.016,0,0,0,1.8-.993,5.383,5.383,0,0,0,.642-2.856ZM15.979,7.49l.1,1.116a3.225,3.225,0,0,1,2.716-1.292A2.713,2.713,0,0,1,21.01,8.2a4.226,4.226,0,0,1,.76,2.672V17H18.8V11a1.6,1.6,0,0,0-.29-1.059A1.342,1.342,0,0,0,17.455,9.6a1.413,1.413,0,0,0-1.292.686V17H13.2V7.49Zm7.058,4.685a5.809,5.809,0,0,1,.976-3.56,3.211,3.211,0,0,1,2.725-1.3,2.731,2.731,0,0,1,2.145,1V3.5h2.971V17H29.188l-.149-1.02a2.8,2.8,0,0,1-2.32,1.2,3.205,3.205,0,0,1-2.689-1.3A5.993,5.993,0,0,1,23.036,12.175ZM26,12.359q0,2.531,1.477,2.531a1.458,1.458,0,0,0,1.406-.826V10.443A1.419,1.419,0,0,0,27.492,9.6q-1.371,0-1.485,2.215ZM38.892,17a3.344,3.344,0,0,1-.281-.853,2.754,2.754,0,0,1-2.285,1.028,3.374,3.374,0,0,1-2.285-.813,2.588,2.588,0,0,1-.94-2.043,2.66,2.66,0,0,1,1.143-2.338,5.821,5.821,0,0,1,3.322-.791h.914v-.5q0-1.316-1.134-1.316a.927.927,0,0,0-1.055,1.042H33.328A2.655,2.655,0,0,1,34.5,8.175a4.931,4.931,0,0,1,2.993-.86,4.323,4.323,0,0,1,2.874.888,3.086,3.086,0,0,1,1.081,2.435v4.21a4.311,4.311,0,0,0,.4,2V17Zm-1.854-1.934a1.652,1.652,0,0,0,.918-.237,1.487,1.487,0,0,0,.523-.536V12.772h-.861q-1.547,0-1.547,1.389a.848.848,0,0,0,.272.655A.986.986,0,0,0,37.037,15.066Zm11.03-.738a.684.684,0,0,0-.4-.606,6.016,6.016,0,0,0-1.5-.475,6.853,6.853,0,0,1-1.828-.646,3.062,3.062,0,0,1-1.1-.971,2.319,2.319,0,0,1-.378-1.31,2.628,2.628,0,0,1,1.081-2.158,4.453,4.453,0,0,1,2.83-.848,4.934,4.934,0,0,1,3.023.853,2.666,2.666,0,0,1,1.143,2.241H47.971q0-1.143-1.2-1.143a1.194,1.194,0,0,0-.782.259.8.8,0,0,0-.316.646.737.737,0,0,0,.387.642,3.654,3.654,0,0,0,1.235.4,10.671,10.671,0,0,1,1.49.378,2.706,2.706,0,0,1,2.145,2.646,2.491,2.491,0,0,1-1.156,2.118,5.068,5.068,0,0,1-2.993.817,5.172,5.172,0,0,1-2.18-.439,3.645,3.645,0,0,1-1.494-1.2,2.707,2.707,0,0,1-.536-1.591h2.769a1.145,1.145,0,0,0,.439.962,1.808,1.808,0,0,0,1.081.3,1.422,1.422,0,0,0,.91-.246A.787.787,0,0,0,48.067,14.328Zm8.35-2.153a5.809,5.809,0,0,1,.976-3.56,3.211,3.211,0,0,1,2.725-1.3,2.731,2.731,0,0,1,2.145,1V3.5h2.971V17H62.569l-.149-1.02a2.8,2.8,0,0,1-2.32,1.2,3.205,3.205,0,0,1-2.689-1.3A5.993,5.993,0,0,1,56.417,12.175Zm2.962.185q0,2.531,1.477,2.531a1.458,1.458,0,0,0,1.406-.826V10.443A1.419,1.419,0,0,0,60.873,9.6q-1.371,0-1.485,2.215Zm12.138,4.816a4.889,4.889,0,0,1-3.542-1.305,4.507,4.507,0,0,1-1.354-3.4v-.246a5.84,5.84,0,0,1,.541-2.575,3.955,3.955,0,0,1,1.578-1.727A4.763,4.763,0,0,1,71.2,7.314a4.117,4.117,0,0,1,3.164,1.244,4.887,4.887,0,0,1,1.16,3.467v1.151H69.636a2.135,2.135,0,0,0,.694,1.257,2.066,2.066,0,0,0,1.389.457,2.662,2.662,0,0,0,2.2-.984l1.354,1.6A3.784,3.784,0,0,1,73.7,16.723,5.3,5.3,0,0,1,71.517,17.176ZM71.183,9.6q-1.3,0-1.547,1.723h2.988v-.229a1.467,1.467,0,0,0-.36-1.1A1.434,1.434,0,0,0,71.183,9.6Zm15.768.571-.976-.07a1.752,1.752,0,0,0-1.793.879V17H81.22V7.49H84l.1,1.222a2.294,2.294,0,0,1,2.083-1.4A2.888,2.888,0,0,1,87,7.42ZM93.111,17a3.344,3.344,0,0,1-.281-.853,2.754,2.754,0,0,1-2.285,1.028,3.374,3.374,0,0,1-2.285-.813,2.588,2.588,0,0,1-.94-2.043,2.66,2.66,0,0,1,1.143-2.338,5.821,5.821,0,0,1,3.322-.791H92.7v-.5q0-1.316-1.134-1.316a.927.927,0,0,0-1.055,1.042H87.548a2.655,2.655,0,0,1,1.173-2.239,4.931,4.931,0,0,1,2.993-.86,4.323,4.323,0,0,1,2.874.888,3.086,3.086,0,0,1,1.081,2.435v4.21a4.311,4.311,0,0,0,.4,2V17Zm-1.854-1.934a1.652,1.652,0,0,0,.918-.237,1.487,1.487,0,0,0,.523-.536V12.772h-.861q-1.547,0-1.547,1.389a.848.848,0,0,0,.272.655A.986.986,0,0,0,91.257,15.066Zm5.678-2.892a5.809,5.809,0,0,1,.976-3.56,3.211,3.211,0,0,1,2.725-1.3,2.731,2.731,0,0,1,2.145,1V3.5h2.971V17h-2.663l-.149-1.02a2.8,2.8,0,0,1-2.32,1.2,3.205,3.205,0,0,1-2.689-1.3A5.993,5.993,0,0,1,96.935,12.175Zm2.962.185q0,2.531,1.477,2.531a1.458,1.458,0,0,0,1.406-.826V10.443a1.419,1.419,0,0,0-1.389-.844q-1.371,0-1.485,2.215ZM110.558,17h-2.971V7.49h2.971ZM107.411,5.029a1.334,1.334,0,0,1,.457-1.043,1.934,1.934,0,0,1,2.373,0,1.334,1.334,0,0,1,.457,1.043,1.334,1.334,0,0,1-.457,1.043,1.934,1.934,0,0,1-2.373,0A1.334,1.334,0,0,1,107.411,5.029Zm4.6,7.128a5.613,5.613,0,0,1,.554-2.536,3.96,3.96,0,0,1,1.591-1.709,4.791,4.791,0,0,1,2.435-.6,4.373,4.373,0,0,1,3.366,1.323,5.076,5.076,0,0,1,1.23,3.6v.105a4.925,4.925,0,0,1-1.235,3.529,4.384,4.384,0,0,1-3.344,1.305,4.434,4.434,0,0,1-3.261-1.217,4.761,4.761,0,0,1-1.327-3.3Zm2.962.185a3.538,3.538,0,0,0,.413,1.934,1.376,1.376,0,0,0,1.222.615q1.582,0,1.617-2.435v-.3q0-2.558-1.635-2.558-1.485,0-1.608,2.206Z" transform="translate(-7510.568 -6671.996)" fill="#6e40fb"/>
      <path id="Sustracción_14" data-name="Sustracción 14" d="M46.33,0A46.846,46.846,0,0,0,0,39.652H92.66a46.384,46.384,0,0,0-5.4-15.669A46.826,46.826,0,0,0,46.33,0Z" transform="translate(-7425.176 -6926.348) rotate(180)" fill="#1e5af9"/>
      <g id="Enmascarar_grupo_1059130" data-name="Enmascarar grupo 1059130" transform="translate(-7087.834 -6791.413)" clip-path="url(#clip-path-2)">
        <path id="Elipse_9678" data-name="Elipse 9678" d="M101.064,53.562c25.011,0,45.36,19.566,45.36,43.615s-20.348,43.615-45.36,43.615S55.7,121.227,55.7,97.177s20.348-43.615,45.36-43.615m0-53.562C45.248,0,0,43.508,0,97.177s45.248,97.177,101.064,97.177,101.064-43.508,101.064-97.177S156.881,0,101.064,0Z" transform="translate(41.658 39.545)" fill="#6e40fb"/>
      </g>
    </g>
  </g>
</svg>
