<svg xmlns="http://www.w3.org/2000/svg" xmlns:xlink="http://www.w3.org/1999/xlink" width="209.101" height="237.281" viewBox="0 0 209.101 237.281">
  <defs>
    <linearGradient id="linear-gradient" x1="0.5" x2="0.5" y2="1" gradientUnits="objectBoundingBox">
      <stop offset="0" stop-color="#fff"/>
      <stop offset="1" stop-color="#d2e6ee"/>
    </linearGradient>
    <clipPath id="clip-path">
      <rect id="Rectángulo_388514" data-name="Rectángulo 388514" width="71.463" height="53.15" transform="translate(0 0)" fill="#6e40fb"/>
    </clipPath>
  </defs>
  <g id="Grupo_1093324" data-name="Grupo 1093324" transform="translate(6805.704 3562.812)">
    <g id="Grupo_39388" data-name="Grupo 39388" transform="translate(-6805.704 -3562.812)">
      <g id="Grupo_39387" data-name="Grupo 39387" transform="translate(0)">
        <g id="Shadows" transform="translate(0 114.792)">
          <path id="Shadow" d="M192.469,351.109l76.124-43.981c2.97-1.715,2.97-4.52,0-6.235L145.335,229.678a4.933,4.933,0,0,0-4.447,0L62.9,274.742a2.353,2.353,0,0,0,0,4.076l125.126,72.291A4.933,4.933,0,0,0,192.469,351.109Z" transform="translate(-61.72 -229.149)" fill="#e0e0e0"/>
        </g>
        <g id="Device" transform="translate(3.362 0)">
          <g id="Laptop">
            <g id="Grupo_39336" data-name="Grupo 39336" transform="translate(0 109.827)">
              <path id="Trazado_92041" data-name="Trazado 92041" d="M272.727,294.739a6.677,6.677,0,0,1-3.114,5.17l-67.794,39.149a6.884,6.884,0,0,1-6.228,0L76.213,270.135a5.85,5.85,0,0,1,0-10.341l67.794-39.148a6.881,6.881,0,0,1,6.228,0l119.379,68.922A6.677,6.677,0,0,1,272.727,294.739Z" transform="translate(-73.097 -219.901)" fill="url(#linear-gradient)"/>
              <path id="Trazado_92042" data-name="Trazado 92042" d="M210.993,299.727a6.676,6.676,0,0,0,3.115,5.17l119.38,68.926a6.417,6.417,0,0,0,3.109.742v-6.744a6.36,6.36,0,0,1-3.109-.748l-119.38-68.921c-1.506-.868-1.694-2.211-.565-3.2A6.682,6.682,0,0,0,210.993,299.727Z" transform="translate(-210.993 -254.663)" fill="#393939"/>
              <path id="Trazado_92043" data-name="Trazado 92043" d="M73.1,393.345v6.738a6.343,6.343,0,0,0,3.114-.741l67.8-39.15a5.832,5.832,0,0,0,.316-10.14c1.4,1,1.287,2.467-.316,3.394l-67.8,39.15A6.347,6.347,0,0,1,73.1,393.345Z" transform="translate(52.51 -280.184)" fill="#393939"/>
            </g>
            <g id="Grupo_39337" data-name="Grupo 39337" transform="translate(74.023)">
              <path id="Trazado_92044" data-name="Trazado 92044" d="M193.342,194.922c1.522-1.074,1.526-2.5,1.526-4.49V90.112a6.884,6.884,0,0,0-3.114-5.394L72.376,15.8c-1.719-.993-3.306-.273-4.92.658s-2.642,1.735-2.642,3.721v100.32a6.884,6.884,0,0,0,3.114,5.394l119.379,68.922C189.911,196.566,191.685,196.091,193.342,194.922Z" transform="translate(-64.814 -15.317)" fill="url(#linear-gradient)"/>
              <path id="Trazado_92045" data-name="Trazado 92045" d="M64.817,256.7c2.6,1.752,4.381,1.278,6.034.108,1.52-1.072,1.525-2.5,1.525-4.488V152a6.413,6.413,0,0,0-.907-3.066l-4.448,2.587a6.312,6.312,0,0,1,.907,3.056V254.9C67.93,256.886,66.538,257.69,64.817,256.7Z" transform="translate(57.677 -77.205)" fill="#393939"/>
              <path id="Trazado_92046" data-name="Trazado 92046" d="M66.51,20.171c0-1.982,1.4-2.786,3.115-1.8L189.005,87.3a6.321,6.321,0,0,1,2.2,2.328l4.443-2.584h.006a6.392,6.392,0,0,0-2.205-2.328L74.074,15.794c-1.719-.994-3.305-.275-4.918.658S66.51,18.189,66.51,20.171Z" transform="translate(-66.51 -15.316)" fill="#393939"/>
            </g>
            <g id="Grupo_39338" data-name="Grupo 39338" transform="translate(77.877 8.886)">
              <path id="Trazado_92047" data-name="Trazado 92047" d="M195.5,98.557,80.408,32.124c-1.032-.6-1.869-.113-1.869,1.079v92.015a4.131,4.131,0,0,0,1.869,3.236l115.1,66.432c1.032.6,1.868.113,1.868-1.078V101.793A4.129,4.129,0,0,0,195.5,98.557Z" transform="translate(-78.539 -31.869)" fill="#263238"/>
              <path id="Trazado_92048" data-name="Trazado 92048" d="M192.958,99.115a4.129,4.129,0,0,1,1.868,3.236V193.81L80.408,127.769a4.129,4.129,0,0,1-1.869-3.237V33.072Z" transform="translate(-75.993 -32.426)" fill="#27debf"/>
              <path id="Trazado_92049" data-name="Trazado 92049" d="M192.958,99.115a4.129,4.129,0,0,1,1.868,3.236V193.81L80.408,127.769a4.129,4.129,0,0,1-1.869-3.237V33.072Z" transform="translate(-75.993 -32.426)" fill="#ccbcfd" opacity="0.65"/>
            </g>
            <path id="Trazado_92050" data-name="Trazado 92050" d="M211.541,294.5,100.732,230.526a3.445,3.445,0,0,0-3.114,0l-3.224,1.694a.949.949,0,0,0,0,1.8L205.22,297.982a3.445,3.445,0,0,0,3.114,0l3.207-1.684A.949.949,0,0,0,211.541,294.5Z" transform="translate(-23.642 -114.823)" fill="#37474f"/>
            <g id="Grupo_39339" data-name="Grupo 39339" transform="translate(36.25 120.448)">
              <path id="Trazado_92051" data-name="Trazado 92051" d="M252.737,304.083,141.93,240.108a3.176,3.176,0,0,0-2.845-.155l-28.842,16.652c-.711.411-.591,1.146.269,1.643L221.19,322.136a3.192,3.192,0,0,0,2.848.16L253,305.722C253.715,305.313,253.6,304.58,252.737,304.083Z" transform="translate(-109.778 -239.685)" fill="#263238"/>
              <path id="Trazado_92052" data-name="Trazado 92052" d="M159,268.863l-3.47-2c-.148-.085-.169-.211-.048-.28l3.06-1.767a.543.543,0,0,1,.485.028l3.47,2c.148.085.169.21.048.28l-3.06,1.767A.543.543,0,0,1,159,268.863Zm4.841-6.8,3.47,2c.147.085.169.211.048.281l-3.06,1.767a.543.543,0,0,1-.485-.028l-3.469-2c-.148-.085-.17-.211-.049-.28l3.061-1.767A.543.543,0,0,1,163.845,262.062Zm11.209,6.471,5.871,3.39c.147.085.169.21.048.28l-3.061,1.767a.543.543,0,0,1-.485-.028l-5.871-3.39c-.147-.085-.169-.211-.048-.281l3.06-1.767A.542.542,0,0,1,175.054,268.533Zm-6.139-3.544,3.47,2c.147.085.169.21.048.28l-3.06,1.767a.541.541,0,0,1-.485-.028l-3.47-2c-.147-.085-.169-.21-.048-.28l3.06-1.767A.541.541,0,0,1,168.915,264.989Zm13.611,7.858,3.47,2c.148.085.169.21.048.28l-3.06,1.767a.544.544,0,0,1-.485-.028l-3.47-2c-.147-.085-.169-.21-.048-.28l3.06-1.767A.542.542,0,0,1,182.526,272.847Zm5.071,2.928,3.47,2c.148.085.169.211.048.28l-3.06,1.767a.544.544,0,0,1-.486-.028l-3.469-2c-.148-.085-.169-.21-.048-.28l3.06-1.767A.543.543,0,0,1,187.6,275.775Zm-12.857,7.731-3.47-2c-.147-.085-.169-.211-.048-.28l3.06-1.767a.541.541,0,0,1,.485.028l3.47,2c.148.085.169.211.048.281l-3.06,1.767A.541.541,0,0,1,174.74,283.506Zm5.07,2.927-3.47-2c-.147-.085-.169-.21-.048-.28l3.06-1.767a.542.542,0,0,1,.486.028l3.469,2c.148.085.169.21.049.28l-3.06,1.767A.544.544,0,0,1,179.81,286.434Zm5.071,2.928-3.47-2c-.148-.085-.169-.21-.048-.28l3.06-1.767a.543.543,0,0,1,.485.028l3.47,2c.148.085.169.211.048.281l-3.06,1.767A.543.543,0,0,1,184.881,289.361Zm5.071,2.927-3.47-2c-.148-.085-.169-.21-.048-.28l3.06-1.767a.541.541,0,0,1,.485.028l3.47,2c.147.085.169.21.048.28l-3.06,1.767A.541.541,0,0,1,189.952,292.289Zm-25.878-20.5-3.469-2c-.148-.085-.169-.21-.048-.28l3.06-1.767a.541.541,0,0,1,.485.028l3.47,2c.148.085.17.21.049.28l-3.061,1.767A.544.544,0,0,1,164.074,271.791Zm5.6,8.788-7.739-4.469c-.148-.085-.169-.21-.048-.28l7.873-4.546a.544.544,0,0,1,.485.028l4,2.312c.148.085.169.21.048.28l-4.376,2.526c-.12.07-.1.2.049.28l3.2,1.849c.148.085.169.211.048.28l-3.06,1.767A.543.543,0,0,1,169.669,280.579Zm23-1.876,3.47,2c.147.085.169.21.048.28l-3.06,1.767a.542.542,0,0,1-.486-.028l-3.47-2c-.147-.085-.169-.21-.048-.28l3.06-1.767A.544.544,0,0,1,192.667,278.7Zm5.071,2.928,3.47,2c.148.085.169.21.048.28l-3.06,1.767a.543.543,0,0,1-.485-.028l-3.47-2c-.148-.085-.169-.21-.048-.28l3.06-1.767A.543.543,0,0,1,197.738,281.63Zm28.194,31.179a.543.543,0,0,1-.485-.028l-3.47-2c-.147-.085-.169-.21-.048-.28l3.06-1.767a.542.542,0,0,1,.486.028l3.469,2c.148.085.169.21.049.28Zm12.372-7.759,3.469,2c.148.085.169.21.048.28l-3.06,1.767a.541.541,0,0,1-.485-.028l-3.47-2c-.147-.085-.169-.21-.048-.28l3.06-1.767A.543.543,0,0,1,238.3,305.051Zm-6.224,5.75a.542.542,0,0,1-.485-.027l-3.47-2c-.148-.085-.169-.21-.048-.28l3.06-1.767a.542.542,0,0,1,.486.028l3.47,2c.148.085.169.21.048.28Zm-14.115,3.219-3.469-2c-.148-.085-.169-.21-.049-.28l3.06-1.767a.542.542,0,0,1,.486.028l3.47,2c.147.085.169.211.048.28l-3.06,1.767A.542.542,0,0,1,217.965,314.02Zm5.556,2.955a.541.541,0,0,1-.485-.028l-3.47-2c-.147-.085-.169-.21-.048-.28l3.06-1.767a.543.543,0,0,1,.485.028l3.47,2c.148.085.169.21.048.28Zm9.712-14.852,3.469,2c.148.085.169.21.048.28l-3.06,1.767a.544.544,0,0,1-.486-.028l-3.469-2c-.148-.085-.169-.21-.048-.28l3.06-1.767A.542.542,0,0,1,233.233,302.123ZM207.88,287.486l3.47,2c.147.085.169.21.048.28l-3.06,1.767a.542.542,0,0,1-.485-.028l-3.47-2c-.147-.085-.169-.21-.048-.28l3.06-1.767A.542.542,0,0,1,207.88,287.486Zm20.282,11.71,3.47,2c.147.085.169.21.048.28l-3.06,1.767a.542.542,0,0,1-.486-.028l-3.469-2c-.148-.085-.169-.21-.048-.28l3.06-1.767A.544.544,0,0,1,228.162,299.2Zm-25.353-14.638,3.47,2c.148.085.169.21.048.28l-3.06,1.767a.542.542,0,0,1-.486-.028l-3.469-2c-.148-.085-.169-.21-.049-.28l3.06-1.767A.544.544,0,0,1,202.809,284.558Zm10.141,5.855,3.47,2c.147.085.169.211.048.281l-3.06,1.767a.542.542,0,0,1-.486-.028l-3.469-2c-.147-.085-.169-.211-.048-.28l3.06-1.767A.541.541,0,0,1,212.95,290.413Zm5.071,2.927,3.469,2c.148.085.17.211.049.28l-3.06,1.767a.544.544,0,0,1-.486-.028l-3.47-2c-.147-.085-.169-.211-.048-.281l3.06-1.767A.544.544,0,0,1,218.021,293.34Zm5.07,2.928,3.47,2c.148.085.169.211.048.281l-3.06,1.767a.543.543,0,0,1-.485-.028l-3.47-2c-.147-.085-.169-.211-.048-.281l3.06-1.767A.543.543,0,0,1,223.091,296.268Zm-23,1.876-3.47-2c-.147-.085-.169-.211-.048-.28l3.06-1.767a.542.542,0,0,1,.486.028l3.469,2c.148.085.169.21.048.28l-3.06,1.767A.543.543,0,0,1,200.093,298.144Zm-47.458-42.554,3.47,2c.147.085.169.211.048.28l-3.06,1.767a.544.544,0,0,1-.486-.028l-3.469-2c-.148-.085-.169-.21-.048-.28l3.06-1.767A.543.543,0,0,1,152.636,255.591Zm6.138,3.544,3.47,2c.148.085.169.21.048.28l-3.06,1.767a.541.541,0,0,1-.485-.028l-3.47-2c-.148-.085-.169-.21-.048-.28l3.06-1.767A.543.543,0,0,1,158.774,259.135Zm-11.208-6.471,3.469,2c.147.085.169.21.048.28l-3.06,1.767a.541.541,0,0,1-.485-.028l-3.47-2c-.147-.085-.169-.21-.048-.28l3.06-1.767A.544.544,0,0,1,147.565,252.663Zm28.251,25.907-3.469-2c-.148-.085-.169-.211-.048-.281l3.06-1.767a.542.542,0,0,1,.486.028l3.47,2c.147.085.169.21.048.28L176.3,278.6A.546.546,0,0,1,175.816,278.571Zm-33.808-28.863a.544.544,0,0,1,.486.028l3.469,2c.148.085.169.211.048.28l-3.06,1.767a.54.54,0,0,1-.485-.028l-3.47-2c-.148-.085-.17-.21-.049-.28Zm53.014,45.509-3.469-2c-.148-.085-.169-.21-.048-.28l3.06-1.767a.544.544,0,0,1,.486.028l3.469,2c.147.085.169.21.048.28l-3.06,1.767A.544.544,0,0,1,195.022,295.216Zm-62.182-35.9-3.47-2c-.147-.085-.169-.21-.048-.28l3.061-1.767a.541.541,0,0,1,.485.028l3.47,2c.147.085.169.211.048.28l-3.06,1.767A.544.544,0,0,1,132.84,259.315Zm9.884.149-3.47-2c-.147-.085-.169-.21-.048-.28l3.061-1.767a.541.541,0,0,1,.485.028l3.469,2c.148.085.17.21.049.28l-3.061,1.767A.543.543,0,0,1,142.724,259.464Zm-5.528-6.978a.541.541,0,0,1,.485.027l3.47,2c.147.085.169.21.048.28l-3.06,1.767a.544.544,0,0,1-.485-.027l-3.469-2c-.148-.085-.169-.21-.048-.28Zm-1.068-.616-7.873,4.545a.542.542,0,0,1-.485-.028l-3.47-2c-.148-.085-.169-.21-.049-.28l7.874-4.546a.544.544,0,0,1,.486.028l3.469,2C136.227,251.675,136.249,251.8,136.128,251.87Zm11.694,6.5,3.47,2c.148.085.169.21.048.28l-3.06,1.767a.541.541,0,0,1-.485-.028l-3.47-2c-.147-.085-.169-.211-.048-.28l3.06-1.767A.543.543,0,0,1,147.822,258.37ZM185.986,280.4l3.47,2c.148.085.169.21.048.28l-3.06,1.767a.541.541,0,0,1-.485-.028l-3.47-2c-.148-.085-.169-.21-.048-.28l3.06-1.767A.543.543,0,0,1,185.986,280.4ZM138.4,262.271a.544.544,0,0,1-.486-.028l-3.469-2c-.147-.085-.169-.211-.048-.28l3.06-1.767a.543.543,0,0,1,.485.028l3.47,2c.147.085.169.21.048.28Zm42.519,15.2,3.469,2c.148.085.169.211.048.281l-3.06,1.767a.541.541,0,0,1-.485-.028l-3.47-2c-.147-.085-.169-.211-.048-.28l3.06-1.767A.544.544,0,0,1,180.916,277.475Zm39.946,32.407a.544.544,0,0,1-.486-.028l-3.47-2c-.147-.085-.169-.21-.048-.28l3.06-1.767a.543.543,0,0,1,.485.028l3.47,2c.147.085.169.21.048.28Zm5.69-6.059,3.47,2c.147.085.169.21.048.28l-3.06,1.767a.543.543,0,0,1-.485-.028l-3.47-2c-.148-.085-.169-.21-.048-.281l3.06-1.767A.543.543,0,0,1,226.551,303.823Zm-11.246,3.1-3.47-2c-.147-.085-.169-.21-.048-.28l3.06-1.767a.542.542,0,0,1,.486.028l3.469,2c.147.085.169.211.048.28l-3.06,1.767A.542.542,0,0,1,215.305,306.927ZM210.235,304l-3.47-2c-.148-.085-.17-.21-.049-.28l3.061-1.767a.544.544,0,0,1,.485.028l3.47,2c.147.085.169.211.048.281l-3.06,1.767A.541.541,0,0,1,210.235,304Zm-5.071-2.928-3.47-2c-.148-.085-.169-.211-.048-.281l3.06-1.767a.541.541,0,0,1,.485.028l3.47,2c.148.085.169.211.048.28l-3.06,1.767A.543.543,0,0,1,205.164,301.072Zm16.317-.176,3.469,2c.148.085.169.21.049.28l-3.061,1.767a.541.541,0,0,1-.485-.028l-3.47-2c-.147-.085-.169-.21-.048-.28l3.06-1.767A.542.542,0,0,1,221.481,300.9Zm-5.071-2.928,3.469,2c.148.085.17.211.049.281l-3.06,1.767a.542.542,0,0,1-.486-.028l-3.469-2c-.148-.085-.169-.21-.048-.28l3.06-1.767A.542.542,0,0,1,216.41,297.968Zm-20.283-11.71,3.47,2c.148.086.169.211.048.281l-3.06,1.767a.541.541,0,0,1-.485-.028l-3.47-2c-.147-.085-.169-.211-.048-.28l3.06-1.767A.541.541,0,0,1,196.127,286.258Zm5.071,2.927,3.47,2c.147.085.169.211.048.28l-3.06,1.767a.544.544,0,0,1-.485-.028l-3.47-2c-.148-.085-.169-.211-.048-.281l3.061-1.767A.541.541,0,0,1,201.2,289.186Zm-10.141-5.855,3.47,2c.147.085.169.211.048.28l-3.06,1.767a.544.544,0,0,1-.486-.028l-3.47-2c-.147-.085-.169-.21-.048-.28l3.06-1.767A.543.543,0,0,1,191.057,283.331Zm20.282,11.71,3.47,2c.148.085.169.211.048.28l-3.06,1.767a.542.542,0,0,1-.485-.027l-3.47-2c-.147-.085-.169-.211-.048-.281l3.06-1.767A.543.543,0,0,1,211.339,295.04Zm-5.07-2.927,3.47,2c.147.085.169.21.048.28l-3.06,1.767a.543.543,0,0,1-.485-.027l-3.469-2c-.148-.085-.17-.211-.049-.28l3.061-1.767A.541.541,0,0,1,206.269,292.113Zm6.626,18.979-3.47-2c-.148-.085-.169-.21-.049-.28l3.061-1.767a.545.545,0,0,1,.485.028l3.47,2c.147.085.169.211.048.281l-3.06,1.767A.543.543,0,0,1,212.895,311.092Zm26.934-1.375,3.06-1.767a.541.541,0,0,1,.485.028l3.47,2c.148.085.169.21.048.28l-3.06,1.767a.543.543,0,0,1-.485-.028l-3.47-2C239.729,309.913,239.708,309.787,239.828,309.717Zm-6.681,1.7,3.061-1.767a.543.543,0,0,1,.485.028l5.337,3.081c.148.085.169.211.048.281l-3.06,1.767a.543.543,0,0,1-.485-.028L233.2,311.7C233.048,311.613,233.027,311.487,233.147,311.417Zm11.187-5.226,3.06-1.767a.544.544,0,0,1,.486.028l4.27,2.466c.147.085.169.21.048.28l-3.06,1.767a.543.543,0,0,1-.485-.028l-4.27-2.466C244.235,306.387,244.213,306.261,244.334,306.191Zm-3.274-1.89a.543.543,0,0,1-.485-.028l-3.469-2c-.148-.085-.17-.21-.049-.28l3.06-1.767a.544.544,0,0,1,.486.028l3.469,2c.148.085.169.21.049.28ZM227,313.426l3.06-1.767a.543.543,0,0,1,.485.028l6.672,3.852c.147.085.169.21.048.28l-3.06,1.767a.543.543,0,0,1-.485-.027l-6.672-3.852C226.9,313.621,226.879,313.5,227,313.426Zm-2.411,4.165,3.06-1.767a.542.542,0,0,1,.485.027l4.27,2.466c.148.085.169.211.048.28l-3.06,1.767a.544.544,0,0,1-.485-.028l-4.27-2.466C224.49,317.787,224.468,317.661,224.589,317.591Zm-21.23-35.056a.542.542,0,0,1-.485-.027l-3.469-2c-.148-.085-.17-.21-.049-.28l3.06-1.767a.542.542,0,0,1,.486.027l3.469,2c.148.085.169.211.048.281ZM213.5,288.39a.544.544,0,0,1-.486-.028l-3.47-2c-.147-.085-.169-.21-.048-.28l3.06-1.767a.544.544,0,0,1,.486.028l3.469,2c.148.085.169.21.049.281Zm22.489,12.984a.541.541,0,0,1-.485-.028l-3.47-2c-.148-.085-.169-.21-.048-.28l3.06-1.767a.543.543,0,0,1,.485.028l3.47,2c.147.085.169.21.048.28Zm-27.56-15.912a.541.541,0,0,1-.485-.028l-3.47-2c-.148-.085-.169-.21-.048-.28l3.06-1.767a.541.541,0,0,1,.485.028l3.47,2c.147.085.169.21.048.28Zm10.141,5.856a.543.543,0,0,1-.485-.028l-3.47-2c-.148-.085-.169-.21-.048-.28l3.06-1.767a.541.541,0,0,1,.485.028l3.47,2c.148.085.169.21.048.28Zm3.2,26.669a.542.542,0,0,1,.486.028l5.337,3.081c.148.085.169.211.048.281l-3.06,1.767a.542.542,0,0,1-.486-.028l-5.338-3.082c-.147-.085-.169-.21-.048-.28Zm4.08-22.468a.545.545,0,0,1-.486-.028l-3.469-2c-.148-.085-.169-.211-.048-.281l3.06-1.767a.542.542,0,0,1,.486.028l3.469,2c.148.085.169.21.048.28Zm5.07,2.927a.541.541,0,0,1-.485-.028l-3.47-2c-.147-.085-.169-.211-.048-.28l3.06-1.767a.543.543,0,0,1,.485.028l3.47,2c.148.085.169.211.048.281Zm-103.091-34.7a.541.541,0,0,1,.485.028l8.54,4.93c.148.085.169.211.049.281l-3.061,1.767a.541.541,0,0,1-.485-.028l-8.54-4.931c-.148-.085-.169-.21-.048-.28Zm11.209,6.471a.541.541,0,0,1,.485.028l3.47,2c.147.085.169.21.048.28l-3.06,1.767a.544.544,0,0,1-.486-.028l-3.47-2c-.147-.085-.169-.21-.048-.28Zm68.787,37.943-3.47-2c-.148-.085-.169-.211-.048-.281l3.06-1.767a.541.541,0,0,1,.485.028l3.47,2c.148.085.169.21.048.28l-3.06,1.767A.543.543,0,0,1,207.824,308.165Zm-58.646-32.088a.541.541,0,0,1,.485.028l3.47,2c.148.085.169.21.048.28l-3.06,1.767a.544.544,0,0,1-.485-.028l-3.47-2c-.148-.085-.169-.21-.048-.28Zm-26.421-15.254a.543.543,0,0,1,.485.028l3.47,2c.147.085.169.21.048.28L123.7,264.9a.541.541,0,0,1-.485-.028l-3.469-2c-.148-.085-.169-.21-.048-.28Zm-8.131-1.16,7.874-4.546a.544.544,0,0,1,.485.028l3.47,2c.148.085.169.21.048.28l-7.873,4.546a.543.543,0,0,1-.485-.028l-3.47-2C114.527,259.857,114.505,259.732,114.625,259.662Zm53.5,27.354a.543.543,0,0,1,.485.028l4.27,2.466c.148.085.169.21.048.28l-3.06,1.767a.541.541,0,0,1-.485-.028l-4.27-2.465c-.148-.085-.169-.211-.048-.28Zm-12.81-7.4a.542.542,0,0,1,.485.028l5.338,3.082c.147.085.169.21.048.28l-3.06,1.767a.544.544,0,0,1-.486-.028l-5.337-3.082c-.148-.085-.169-.21-.048-.28ZM179.868,293.8a.544.544,0,0,1,.486.028l28.555,16.487c.148.085.17.21.049.28l-3.06,1.767a.542.542,0,0,1-.486-.028l-28.556-16.487c-.148-.085-.169-.211-.048-.281Zm30.157,17.411a.541.541,0,0,1,.485.028l4.27,2.465c.148.085.169.21.048.28l-3.06,1.767a.544.544,0,0,1-.485-.028l-4.27-2.466c-.147-.085-.169-.21-.048-.28ZM174,290.407a.541.541,0,0,1,.485.028l4.27,2.465c.148.085.169.21.048.28l-3.06,1.767a.541.541,0,0,1-.485-.027l-4.27-2.466c-.148-.085-.169-.211-.048-.28ZM215.9,314.6a.544.544,0,0,1,.486.028l4.27,2.466c.148.085.169.21.048.28l-3.06,1.767a.543.543,0,0,1-.485-.027l-4.27-2.466c-.148-.085-.169-.21-.049-.28Zm-53.642-30.97a.541.541,0,0,1,.485.028l4.27,2.465c.147.085.169.21.048.28L164,288.167a.542.542,0,0,1-.485-.027l-4.27-2.466c-.147-.085-.169-.21-.048-.28Zm-18.148-10.478a.544.544,0,0,1,.486.028l3.469,2c.148.085.169.21.048.28l-3.06,1.767a.543.543,0,0,1-.485-.028l-3.47-2c-.148-.085-.169-.21-.048-.281ZM133.1,265.022l-3.469-2c-.148-.085-.17-.21-.049-.28l3.06-1.767a.542.542,0,0,1,.486.028l3.469,2c.147.085.169.21.048.28l-3.06,1.767A.541.541,0,0,1,133.1,265.022Zm20.835.914-3.47-2c-.147-.085-.169-.21-.048-.28l3.06-1.767a.542.542,0,0,1,.486.028l3.469,2c.148.085.169.21.048.28l-3.06,1.767A.544.544,0,0,1,153.933,265.936Zm13.326,18.808-10.142-5.855c-.147-.085-.169-.21-.048-.28l3.06-1.767a.542.542,0,0,1,.486.028l10.141,5.855c.148.085.169.21.048.28l-3.06,1.767A.541.541,0,0,1,167.258,284.744Zm-28.6-16.767a.543.543,0,0,1-.485-.028l-3.47-2c-.148-.085-.169-.211-.048-.281l3.06-1.767a.541.541,0,0,1,.485.028l3.47,2c.147.085.169.211.048.28Zm4.327-2.807-3.47-2c-.147-.085-.169-.21-.048-.28l3.06-1.767a.544.544,0,0,1,.486.027l3.469,2c.148.085.17.21.049.28l-3.061,1.767A.543.543,0,0,1,142.981,265.171Zm29.348,22.5-3.47-2c-.148-.085-.169-.21-.048-.28l3.06-1.767a.541.541,0,0,1,.485.028l3.47,2c.147.085.169.21.048.28l-3.06,1.767A.544.544,0,0,1,172.329,287.672Zm-22.466-13.223a.544.544,0,0,1-.486-.028l-3.469-2c-.148-.085-.169-.21-.048-.28l3.06-1.767a.541.541,0,0,1,.485.028l3.47,2c.148.085.169.21.048.28Zm47.82,27.861-3.469-2c-.148-.085-.169-.21-.048-.28l3.06-1.767a.541.541,0,0,1,.485.028l3.47,2c.147.085.169.211.048.28l-3.06,1.767A.543.543,0,0,1,197.682,302.31Zm-5.071-2.928-3.47-2c-.147-.085-.169-.21-.048-.28l3.06-1.767a.543.543,0,0,1,.485.028l3.47,2c.148.085.169.21.048.28l-3.06,1.767A.541.541,0,0,1,192.612,299.382Zm10.141,5.855-3.47-2c-.147-.085-.169-.211-.048-.28l3.06-1.767a.543.543,0,0,1,.486.027l3.469,2c.148.085.169.21.049.28l-3.06,1.767A.544.544,0,0,1,202.753,305.237Zm-20.282-11.71-3.47-2c-.148-.085-.169-.211-.048-.281l3.06-1.767a.541.541,0,0,1,.485.028l3.47,2c.147.085.169.21.048.28l-3.06,1.767A.544.544,0,0,1,182.47,293.527Zm5.07,2.927-3.469-2c-.148-.085-.169-.21-.049-.28l3.061-1.767a.543.543,0,0,1,.485.028l3.47,2c.147.085.169.211.048.281l-3.06,1.767A.541.541,0,0,1,187.541,296.454ZM177.4,290.6l-3.47-2c-.147-.085-.169-.211-.048-.28l3.06-1.767a.541.541,0,0,1,.485.027l3.47,2c.147.085.169.211.048.281l-3.06,1.767A.544.544,0,0,1,177.4,290.6Zm-28.019-40.525a.544.544,0,0,1-.486-.028l-3.47-2c-.148-.085-.169-.21-.048-.28l.814-.471a.543.543,0,0,1,.485.028l3.47,2c.147.085.169.21.048.28Zm25.3,15.9a.542.542,0,0,1-.485-.027l-3.47-2c-.147-.085-.169-.21-.048-.28l3.06-1.767a.539.539,0,0,1,.485.028l3.47,2c.148.085.169.21.048.28Zm-10.141-5.855a.542.542,0,0,1-.485-.028l-3.47-2c-.148-.085-.169-.211-.048-.281l3.06-1.767a.541.541,0,0,1,.485.028l3.47,2c.147.085.169.211.048.28Zm16.333,9.43a.544.544,0,0,1-.485-.028l-3.47-2c-.147-.085-.169-.21-.048-.28l3.06-1.767a.541.541,0,0,1,.485.028l3.47,2c.148.085.169.21.048.28Zm-11.262-6.5a.542.542,0,0,1-.486-.028l-3.47-2c-.147-.085-.169-.21-.048-.28l3.06-1.767a.541.541,0,0,1,.485.027l3.469,2c.148.085.17.21.049.28Zm21.4,12.358a.544.544,0,0,1-.486-.028l-3.47-2c-.147-.085-.169-.21-.048-.28l3.06-1.767a.542.542,0,0,1,.486.028l3.469,2c.148.085.169.21.048.28Zm-5.071-2.928a.542.542,0,0,1-.486-.028l-3.47-2c-.147-.085-.169-.21-.048-.28L185,268.4a.543.543,0,0,1,.485.028l3.469,2c.148.085.169.21.048.281Zm-26.419-16.549a.546.546,0,0,1-.486-.028l-3.47-2c-.147-.085-.169-.21-.048-.28l.815-.47a.544.544,0,0,1,.485.027l3.47,2c.148.085.169.211.048.28Zm-15.212-8.783a.544.544,0,0,1-.486-.027l-3.47-2c-.147-.085-.169-.21-.048-.28l.814-.47a.542.542,0,0,1,.486.028l3.469,2c.147.085.169.211.048.28Zm-6.429,3.712a.543.543,0,0,1-.485-.027l-3.47-2c-.148-.085-.169-.21-.048-.28l3.06-1.767a.541.541,0,0,1,.485.027l3.47,2c.148.085.169.21.048.28Zm-9.854,11.236-3.47-2c-.148-.085-.17-.21-.048-.28l3.06-1.767a.544.544,0,0,1,.486.028l3.47,2c.147.085.169.21.048.28l-3.06,1.767A.542.542,0,0,1,128.027,262.094ZM154.451,253a.541.541,0,0,1-.485-.028l-3.47-2c-.148-.085-.169-.211-.048-.28l.815-.47a.541.541,0,0,1,.485.028l3.47,2c.147.085.169.21.048.28Zm41.631,25.332a.541.541,0,0,1-.485-.028l-3.47-2c-.148-.085-.169-.211-.048-.28l3.06-1.767a.543.543,0,0,1,.485.028l3.469,2c.147.085.169.21.048.28Z" transform="translate(-111.146 -241.832)" fill="#455a64"/>
            </g>
            <g id="Grupo_39340" data-name="Grupo 39340" transform="translate(51.753 163.336)">
              <path id="Trazado_92053" data-name="Trazado 92053" d="M302.052,339.376l-.712.41-18.895,10.907-33.6-19.4-.7-.4,19.606-11.317Z" transform="translate(-248.145 -319.577)" fill="#263238"/>
              <path id="Trazado_92054" data-name="Trazado 92054" d="M250.053,332.483l18.593-10.727,33.277,19.22L283.342,351.7Z" transform="translate(-249.041 -320.586)" fill="#37474f"/>
            </g>
          </g>
        </g>
        <g id="Browser" transform="translate(34.901 19.014)">
          <g id="Www">
            <g id="www-2" data-name="www" transform="translate(0)">
              <g id="Grupo_39341" data-name="Grupo 39341">
                <path id="Trazado_92055" data-name="Trazado 92055" d="M202.951,57.546a3.145,3.145,0,0,1,1.293-2.881c.808-.476,5.491-3.177,6.305-3.64a3.144,3.144,0,0,1,3.145.319l87.64,50.6v29l-6.28,3.625-87.64-50.6a9.864,9.864,0,0,1-4.463-7.73Z" transform="translate(-202.95 -50.735)" fill="#ccbcfd"/>
                <path id="Trazado_92057" data-name="Trazado 92057" d="M219.112,58.1c-2.465-1.423-4.463-.269-4.463,2.577v18.7a9.864,9.864,0,0,0,4.463,7.73l87.64,50.6v-29Z" transform="translate(-214.649 -53.863)" fill="#6e40fb"/>
                <path id="Trazado_92058" data-name="Trazado 92058" d="M220.944,87.486a6.674,6.674,0,0,1-3.008-5.21V65c0-1.362.965-1.919,2.144-1.238l85.841,49.6v23.223Z" transform="translate(-215.581 -56.635)" fill="#fafafa"/>
              </g>
            </g>
            <g id="World" transform="translate(87.688 38.15)">
              <g id="Check">
                <g id="Circle">
                  <path id="Trazado_92070" data-name="Trazado 92070" d="M118.967,130.042v0l.042-.026,0,0,10.74-6.376.01-.006.059-.036v0c4.73-2.852,11.042-2.4,17.831,2.03,13.639,8.905,24.031,30.5,23.212,48.243-.408,8.842-3.525,15.054-8.238,17.96v0l-.042.025,0,0-10.742,6.378,0,0-.05.031v0c-4.732,2.86-11.048,2.413-17.843-2.023-13.639-8.9-24.031-30.5-23.213-48.243C111.137,139.16,114.254,132.948,118.967,130.042Z" transform="translate(-110.684 -121.8)" fill="#37474f"/>
                  <path id="Trazado_92071" data-name="Trazado 92071" d="M110.685,221.609l10.394-6.159h.008l.046-.032c4.71-2.913,7.825-9.125,8.233-17.954.366-7.911-1.5-16.585-4.886-24.554l-.068-.175-10.675,6.55a57.562,57.562,0,0,1,4.887,24.554C118.222,212.491,115.228,218.624,110.685,221.609Z" transform="translate(-69.184 -145.392)" fill="#263238"/>
                  <path id="Trazado_92072" data-name="Trazado 92072" d="M153.96,201.748c-13.639-8.9-24.031-30.5-23.212-48.243s12.538-24.9,26.176-15.994,24.031,30.5,23.212,48.243S167.6,210.653,153.96,201.748Z" transform="translate(-130.702 -127.304)" fill="#455a64"/>
                </g>
              </g>
              <g id="Grupo_39350" data-name="Grupo 39350" transform="translate(4.83 15.119)">
                <g id="Grupo_39343" data-name="Grupo 39343">
                  <path id="Trazado_92073" data-name="Trazado 92073" d="M169.27,204.6a10.075,10.075,0,0,0,5.084-1.329c4.3-2.472,6.761-8.137,6.761-15.545,0-13.628-8.285-29.536-18.469-35.46-4.631-2.694-9.155-3.041-12.74-.979-4.3,2.47-6.761,8.137-6.761,15.545,0,13.628,8.285,29.535,18.468,35.459A15.375,15.375,0,0,0,169.27,204.6Zm-14.277-52.582a13.352,13.352,0,0,1,6.621,2.024c9.621,5.6,17.447,20.707,17.447,33.684,0,6.653-2.089,11.67-5.731,13.765-2.922,1.679-6.716,1.335-10.684-.974-9.621-5.6-17.447-20.708-17.447-33.684,0-6.653,2.089-11.67,5.731-13.765A8.049,8.049,0,0,1,154.993,152.023Z" transform="translate(-143.145 -149.964)" fill="#6e40fb"/>
                </g>
                <g id="Grupo_39346" data-name="Grupo 39346" transform="translate(5.5 2.604)">
                  <g id="Grupo_39344" data-name="Grupo 39344" transform="translate(0)">
                    <path id="Trazado_92074" data-name="Trazado 92074" d="M174.41,172.773a9.747,9.747,0,0,0,6.132-2.11l-.95-1.212c-3.137,2.459-7.378,2.352-11.937-.3-4.725-2.749-9.165-7.841-12.5-14.336l-1.371.7c3.47,6.754,8.121,12.069,13.1,14.964A15.138,15.138,0,0,0,174.41,172.773Z" transform="translate(-153.782 -154.814)" fill="#6e40fb"/>
                  </g>
                  <g id="Grupo_39345" data-name="Grupo 39345" transform="translate(0.21 31.474)">
                    <path id="Trazado_92075" data-name="Trazado 92075" d="M178.78,231.4l1.371-.7c-3.469-6.754-8.121-12.068-13.1-14.964-5.143-2.991-9.994-3.055-13.662-.183l.95,1.212c3.138-2.458,7.378-2.35,11.937.3C171,219.816,175.444,224.907,178.78,231.4Z" transform="translate(-153.391 -213.444)" fill="#6e40fb"/>
                  </g>
                </g>
                <g id="Grupo_39347" data-name="Grupo 39347" transform="translate(9.05 1.837)">
                  <path id="Trazado_92076" data-name="Trazado 92076" d="M171.926,204.351a4.131,4.131,0,0,0,2.08-.575c3.619-2.082,5.867-9.582,5.867-19.576,0-13.777-4.194-27.008-9.548-30.122a4.247,4.247,0,0,0-4.456-.117c-3.619,2.082-5.866,9.583-5.866,19.576,0,13.776,4.194,27.008,9.547,30.122A4.713,4.713,0,0,0,171.926,204.351Zm-3.973-49.426a3.174,3.174,0,0,1,1.6.484c4.761,2.769,8.783,15.954,8.783,28.791,0,10.577-2.559,16.782-5.095,18.241a2.718,2.718,0,0,1-2.913-.113c-4.761-2.769-8.782-15.954-8.782-28.791,0-10.577,2.559-16.783,5.095-18.241A2.61,2.61,0,0,1,167.953,154.925Z" transform="translate(-160.003 -153.385)" fill="#6e40fb"/>
                </g>
                <g id="Grupo_39348" data-name="Grupo 39348" transform="translate(18.215 3.195)">
                  <rect id="Rectángulo_27586" data-name="Rectángulo 27586" width="1.54" height="48.251" transform="translate(0)" fill="#6e40fb"/>
                </g>
                <g id="Grupo_39349" data-name="Grupo 39349" transform="translate(0.641 16.206)">
                  <rect id="Rectángulo_27587" data-name="Rectángulo 27587" width="41.551" height="1.541" transform="translate(35.913 22.229) rotate(-149.805)" fill="#6e40fb"/>
                </g>
              </g>
            </g>
          </g>
        </g>
        <g id="Cursor" transform="translate(20.206 56.551)">
          <g id="Cursor-2" data-name="Cursor">
            <g id="Grupo_39351" data-name="Grupo 39351" transform="translate(0)">
              <path id="Trazado_92077" data-name="Trazado 92077" d="M368.489,129.691a1.656,1.656,0,0,1,.641-.747h0l1.6-.924v0a2.051,2.051,0,0,1,2,.272l1-.577h0c1.212-.732,2.9.8,3.273,1.167l.432-.249h0a2.186,2.186,0,0,1,2.034.221V123.04a1.46,1.46,0,0,1,.574-1.31h0l.017-.01.027-.016,1.57-.908,0,0,.011-.006h0a1.449,1.449,0,0,1,1.439.15,4.54,4.54,0,0,1,2.054,3.558v17.818q.122-.06.245-.114a5.859,5.859,0,0,1,4.178-1.346,4.435,4.435,0,0,1,2.673,1.846c.679,1.2-.442,1.949-1.885,3.6-1.431,1.636-2.693,3.607-4,4.823a7.045,7.045,0,0,1-2.248,1.532v2.331l-1.586.916-12.068-6.967V146.6s-1.5-5.97-1.976-8.465S367.569,131.6,368.489,129.691Z" transform="translate(-367.952 -120.659)" fill="#6e40fb"/>
              <path id="Trazado_92078" data-name="Trazado 92078" d="M368.489,129.691a1.656,1.656,0,0,1,.641-.747h0l1.6-.924v0a2.051,2.051,0,0,1,2,.272l1-.577h0c1.212-.732,2.9.8,3.273,1.167l.432-.249h0a2.186,2.186,0,0,1,2.034.221V123.04a1.46,1.46,0,0,1,.574-1.31h0l.017-.01.027-.016,1.57-.908,0,0,.011-.006h0a1.449,1.449,0,0,1,1.439.15,4.54,4.54,0,0,1,2.054,3.558v17.818q.122-.06.245-.114a5.859,5.859,0,0,1,4.178-1.346,4.435,4.435,0,0,1,2.673,1.846c.679,1.2-.442,1.949-1.885,3.6-1.431,1.636-2.693,3.607-4,4.823a7.045,7.045,0,0,1-2.248,1.532v2.331l-1.586.916-12.068-6.967V146.6s-1.5-5.97-1.976-8.465S367.569,131.6,368.489,129.691Z" transform="translate(-367.952 -120.659)" fill="#6e40fb" opacity="0.8"/>
            </g>
            <path id="Trazado_92079" data-name="Trazado 92079" d="M376.872,132.188v1.973l0,0a8.637,8.637,0,0,0-1.55-1.06Zm-7.29-.858a3.5,3.5,0,0,1,.552.276l-.512.3a1.822,1.822,0,0,0-.759.832,3.71,3.71,0,0,0-.913-.512Zm3.755.019a6.788,6.788,0,0,1,1.072.847l-1.046.608a.454.454,0,0,0-.059.033,1.177,1.177,0,0,0-.405.354l0,0a6.789,6.789,0,0,0-1.112-.9Zm9.23-3.542v17.819a10.212,10.212,0,0,0-1.586.979V128.724Zm-5.688,4.378-.008,0v-.018Zm5.316,23.164c1.3-1.215,2.566-3.184,3.995-4.823,1.354-1.55,2.43-2.308,1.988-3.387l1.587-.917c.442,1.078-.63,1.837-1.988,3.391-1.432,1.635-2.691,3.6-3.995,4.823a7.1,7.1,0,0,1-2.249,1.532v2.33l-1.587.917v-2.33A7.033,7.033,0,0,0,382.2,155.349Z" transform="translate(-365.366 -123.97)" fill="#6e40fb" opacity="0.2"/>
            <path id="Trazado_92080" data-name="Trazado 92080" d="M376.872,132.188v1.973l0,0a8.637,8.637,0,0,0-1.55-1.06Zm-7.29-.858a3.5,3.5,0,0,1,.552.276l-.512.3a1.822,1.822,0,0,0-.759.832,3.71,3.71,0,0,0-.913-.512Zm3.755.019a6.788,6.788,0,0,1,1.072.847l-1.046.608a.454.454,0,0,0-.059.033,1.177,1.177,0,0,0-.405.354l0,0a6.789,6.789,0,0,0-1.112-.9Zm9.23-3.542v17.819a10.212,10.212,0,0,0-1.586.979V128.724Zm-5.688,4.378-.008,0v-.018Zm5.316,23.164c1.3-1.215,2.566-3.184,3.995-4.823,1.354-1.55,2.43-2.308,1.988-3.387l1.587-.917c.442,1.078-.63,1.837-1.988,3.391-1.432,1.635-2.691,3.6-3.995,4.823a7.1,7.1,0,0,1-2.249,1.532v2.33l-1.587.917v-2.33A7.033,7.033,0,0,0,382.2,155.349Z" transform="translate(-365.366 -123.97)" fill="#6e40fb" opacity="0.1"/>
            <g id="Grupo_39352" data-name="Grupo 39352" transform="translate(0 0.915)">
              <path id="Trazado_92081" data-name="Trazado 92081" d="M385.487,156.692v-2.331a7.044,7.044,0,0,0,2.248-1.532c1.3-1.216,2.566-3.187,4-4.823s2.564-2.4,1.885-3.6a4.435,4.435,0,0,0-2.673-1.846,6.1,6.1,0,0,0-4.422,1.522V126.2a4.54,4.54,0,0,0-2.054-3.557h0c-1.134-.655-2.054-.124-2.054,1.186v7.81s-2.83-2.513-3.973-.972c0,0-2.781-2.913-4.036-.453,0,0-2.041-1.649-2.962.265s-.478,5.954,0,8.449,1.976,8.465,1.976,8.465v2.331Z" transform="translate(-370.907 -122.363)" fill="#6e40fb"/>
              <path id="Trazado_92082" data-name="Trazado 92082" d="M385.487,156.692v-2.331a7.044,7.044,0,0,0,2.248-1.532c1.3-1.216,2.566-3.187,4-4.823s2.564-2.4,1.885-3.6a4.435,4.435,0,0,0-2.673-1.846,6.1,6.1,0,0,0-4.422,1.522V126.2a4.54,4.54,0,0,0-2.054-3.557h0c-1.134-.655-2.054-.124-2.054,1.186v7.81s-2.83-2.513-3.973-.972c0,0-2.781-2.913-4.036-.453,0,0-2.041-1.649-2.962.265s-.478,5.954,0,8.449,1.976,8.465,1.976,8.465v2.331Z" transform="translate(-370.907 -122.363)" fill="#6e40fb" opacity="0.65"/>
            </g>
            <g id="Grupo_39353" data-name="Grupo 39353" transform="translate(2.589 8.256)" opacity="0.1">
              <path id="Trazado_92083" data-name="Trazado 92083" d="M393.709,142.085s-.258-3.563-1.566-4.411l.047.013a8.567,8.567,0,0,1,1.52,1.044v-.067a.082.082,0,0,1,0,.067Z" transform="translate(-384.791 -136.796)" fill="#6e40fb"/>
              <path id="Trazado_92084" data-name="Trazado 92084" d="M400.67,137.054v3.26s-.361-3.352-1.113-4.162A6.717,6.717,0,0,1,400.67,137.054Z" transform="translate(-395.725 -136.091)" fill="#6e40fb"/>
              <path id="Trazado_92085" data-name="Trazado 92085" d="M407.984,136.549h0v3.272s-.2-3.3-.909-3.783A3.681,3.681,0,0,1,407.984,136.549Z" transform="translate(-407.075 -136.038)" fill="#6e40fb"/>
            </g>
          </g>
        </g>
        <g id="Character" transform="translate(17.509 90.585)">
          <g id="Character-2" data-name="Character">
            <path id="Shadow-2" data-name="Shadow" d="M346.5,309.821c9.272,4.62,13.48,9.474,8.68,12.875s-17.861,8.006-17.861,8.006l-1.712,5.757L316.63,325.5v-6.517s11.707-8.071,16.279-9.626S341.063,307.113,346.5,309.821Z" transform="translate(-302.43 -241.461)" opacity="0.15"/>
            <g id="Character-3" data-name="Character">
              <g id="Grupo_39362" data-name="Grupo 39362" transform="translate(0 57.581)">
                <g id="Grupo_39356" data-name="Grupo 39356" transform="translate(15.212 38.524)">
                  <path id="Trazado_92086" data-name="Trazado 92086" d="M365.926,364.718s2.866,7.024,3.012,9.794c.152,2.887.85,3.844.361,6.984-.107.684-.466,2.055-.555,2.611a.819.819,0,0,0,.741,1.024c1.253.26,3.334-2.094,4.324-4.655a75.72,75.72,0,0,0,2.481-9.028,3.949,3.949,0,0,0-.4-2.021,6.051,6.051,0,0,0-.576-1.046c-.414-1.257-.613-3.646-.963-5.3Z" transform="translate(-363.235 -363.081)" fill="#ffa8a7"/>
                  <g id="Grupo_39355" data-name="Grupo 39355" transform="translate(0 5.297)">
                    <path id="Trazado_92087" data-name="Trazado 92087" d="M376.052,383.568a2.973,2.973,0,0,1,.335.946c.03.575-1.271,2.473-1.781,3.164a4.624,4.624,0,0,0-.939,3.282,7.98,7.98,0,0,1-1.93,5.139,12.669,12.669,0,0,1-6.3,4.121c-3.041.936-4.114-.588-4.114-.588s-.943-1.468-.376-2.069S376.052,383.568,376.052,383.568Z" transform="translate(-360.548 -377.867)" fill="#263238"/>
                    <path id="Trazado_92088" data-name="Trazado 92088" d="M373.386,372.95c.093,0,.256-.03.494.258.09.108.645,1.476,1.105,2.194.493.769,1.668,2.081,1.823,3.247-.7,2.255-2.819,3.823-3.136,5.952s-.354,4.6-3.625,7.2-6.635,2.874-7.844,2.184-1.1-1.985.587-4.451c1.788-2.618,2.993-8.29,2.993-8.293a18.779,18.779,0,0,0,.316-2.412,15.877,15.877,0,0,0-.225-2.388,1.772,1.772,0,0,1,.152-1.081,1.833,1.833,0,0,1,.9-.622,7.973,7.973,0,0,1,1.68-.57,2.673,2.673,0,0,1,1.732.21c.377.2.686.526,1.082.69a1.551,1.551,0,0,0,1.607-.287,1.328,1.328,0,0,0,.434-1.476A3.357,3.357,0,0,0,373.386,372.95Z" transform="translate(-361.304 -372.948)" fill="#455a64"/>
                    <path id="Trazado_92089" data-name="Trazado 92089" d="M381.084,401.973a5.211,5.211,0,0,0-4.741-2.564c-3.474.013-4.676,1.781-5.2,2.82-.629,1.237-1.285,3.481.149,4.125,1.549.7,3.342.48,6.162-.934A7.522,7.522,0,0,0,381.084,401.973Z" transform="translate(-370.429 -385.204)" fill="#fafafa"/>
                    <g id="Grupo_39354" data-name="Grupo 39354" transform="translate(2.902 5.281)">
                      <path id="Trazado_92090" data-name="Trazado 92090" d="M376.7,383.811a.357.357,0,0,1-.317,0c-.537-.274-3.376-.868-5.029.667-.214-.172-.17-.486.1-.928a6.372,6.372,0,0,1,5.27-.35.33.33,0,0,1,.135.462A.364.364,0,0,1,376.7,383.811Z" transform="translate(-369.582 -382.786)" fill="#fafafa"/>
                      <path id="Trazado_92091" data-name="Trazado 92091" d="M372.2,388.352a1.074,1.074,0,0,1,.2-.954,6.494,6.494,0,0,1,5.026-.2.33.33,0,0,1,.135.462.367.367,0,0,1-.479.15C376.564,387.542,373.871,386.981,372.2,388.352Z" transform="translate(-370.785 -384.637)" fill="#fafafa"/>
                      <path id="Trazado_92092" data-name="Trazado 92092" d="M374.037,396.75a1.975,1.975,0,0,1,.444-1.257,6.424,6.424,0,0,1,5.192-.3.33.33,0,0,1,.135.462.366.366,0,0,1-.479.15C378.763,395.516,375.632,394.872,374.037,396.75Z" transform="translate(-374.036 -388.342)" fill="#fafafa"/>
                      <path id="Trazado_92093" data-name="Trazado 92093" d="M378.412,391.807a.36.36,0,0,1-.317,0c-.53-.271-3.311-.85-4.972.619a1.216,1.216,0,0,1,.29-1.029,6.494,6.494,0,0,1,5.026-.2.33.33,0,0,1,.135.462A.37.37,0,0,1,378.412,391.807Z" transform="translate(-372.299 -386.489)" fill="#fafafa"/>
                    </g>
                  </g>
                </g>
                <g id="Grupo_39359" data-name="Grupo 39359" transform="translate(0 48.787)">
                  <path id="Trazado_92094" data-name="Trazado 92094" d="M387.5,382.2s-1.42,8.567-3,11.891a27.43,27.43,0,0,1-4.567,7.444c-.473.548-1.553,1.565-1.94,2.009a.856.856,0,0,0,.09,1.319c.967.926,5.07,1.145,7.368-.578s4.392-5.395,5.763-6.781c.515-.521,1-1.054,1.461-1.62.444-.545.323-1.063.362-1.674.019-.3-.024-1.1-.024-1.1.314-1.443,1.165-3.706,1.617-5.112Z" transform="translate(-372.685 -382.199)" fill="#ffa8a7"/>
                  <g id="Grupo_39358" data-name="Grupo 39358" transform="translate(0 9.264)">
                    <path id="Trazado_92095" data-name="Trazado 92095" d="M400.363,414.579a3.121,3.121,0,0,1-.105,1.045c-.229.558-2.307,1.773-3.1,2.2a4.836,4.836,0,0,0-2.355,2.686,8.349,8.349,0,0,1-4.122,4,13.256,13.256,0,0,1-7.8,1.087c-3.3-.473-3.63-2.394-3.63-2.394s-.237-1.81.569-2.126S400.363,414.579,400.363,414.579Z" transform="translate(-379.221 -406.461)" fill="#263238"/>
                    <path id="Trazado_92096" data-name="Trazado 92096" d="M399.3,400.653c.089.038.255.086.353.464.036.143-.049,1.685.066,2.57.123.947.649,2.714.274,3.887-1.673,1.819-4.375,2.359-5.627,4.231s-2.389,4.194-6.648,5.2-7.562-.244-8.4-1.437-.152-2.368,2.544-3.95c2.862-1.679,6.536-6.508,6.537-6.51a19.763,19.763,0,0,0,1.377-2.142,16.723,16.723,0,0,0,.853-2.36,1.852,1.852,0,0,1,.628-.955,1.917,1.917,0,0,1,1.129-.187,8.361,8.361,0,0,1,1.845.212,2.8,2.8,0,0,1,1.545.972,13.313,13.313,0,0,0,.716,1.136,1.62,1.62,0,0,0,1.648.446,1.389,1.389,0,0,0,1.071-1.2A3.555,3.555,0,0,0,399.3,400.653Z" transform="translate(-378.85 -399.456)" fill="#455a64"/>
                    <path id="Trazado_92097" data-name="Trazado 92097" d="M408.565,425.473a5.452,5.452,0,0,0-3.341-4.544c-3.293-1.539-5.22-.4-6.184.344-1.148.89-2.771,2.72-1.7,3.97,1.155,1.35,2.948,1.947,6.249,1.869A7.868,7.868,0,0,0,408.565,425.473Z" transform="translate(-396.956 -409.048)" fill="#fafafa"/>
                    <g id="Grupo_39357" data-name="Grupo 39357" transform="translate(5.649 3.618)">
                      <path id="Trazado_92098" data-name="Trazado 92098" d="M394.1,408.819a.374.374,0,0,1-.3-.143c-.386-.5-2.807-2.329-5.057-1.615-.126-.258.056-.536.513-.832a6.669,6.669,0,0,1,5.143,2.023.345.345,0,0,1-.078.5A.378.378,0,0,1,394.1,408.819Z" transform="translate(-384.064 -406.195)" fill="#fafafa"/>
                      <path id="Trazado_92099" data-name="Trazado 92099" d="M391.378,410.372a1.125,1.125,0,0,1,.616-.814,6.8,6.8,0,0,1,4.846,2.054.347.347,0,0,1-.079.5.386.386,0,0,1-.221.07.377.377,0,0,1-.3-.143C395.867,411.553,393.569,409.82,391.378,410.372Z" transform="translate(-387.941 -407.749)" fill="#fafafa"/>
                      <path id="Trazado_92100" data-name="Trazado 92100" d="M396.726,417.3a2.065,2.065,0,0,1,.982-.991,6.721,6.721,0,0,1,5.047,2.036.346.346,0,0,1-.079.5.385.385,0,0,1-.221.07.373.373,0,0,1-.3-.143C401.749,418.242,399.074,416.235,396.726,417.3Z" transform="translate(-396.726 -410.868)" fill="#fafafa"/>
                      <path id="Trazado_92101" data-name="Trazado 92101" d="M399.332,415.545a.375.375,0,0,1-.3-.143c-.382-.493-2.754-2.283-4.981-1.635a1.272,1.272,0,0,1,.734-.843,6.793,6.793,0,0,1,4.846,2.055.346.346,0,0,1-.079.5A.387.387,0,0,1,399.332,415.545Z" transform="translate(-392.168 -409.308)" fill="#fafafa"/>
                    </g>
                  </g>
                </g>
                <g id="Grupo_39360" data-name="Grupo 39360" transform="translate(11.341)">
                  <path id="Trazado_92102" data-name="Trazado 92102" d="M372.211,291.319c-3.512,2.574-15.745,9.636-20.712,14.234-1.435,1.328-1.907,3.077-1.554,6.887.479,5.172,4.543,22.8,4.543,22.8.56,1,1.544-.893,1.544-.893l19.384-24.609Z" transform="translate(-349.832 -291.319)" fill="#27debf"/>
                  <path id="Trazado_92103" data-name="Trazado 92103" d="M372.211,291.319c-3.512,2.574-15.745,9.636-20.712,14.234-1.435,1.328-1.907,3.077-1.554,6.887.479,5.172,4.543,22.8,4.543,22.8.56,1,1.544-.893,1.544-.893l19.384-24.609Z" transform="translate(-349.832 -291.319)" fill="#01c3fd" opacity="0.3"/>
                  <path id="Trazado_92104" data-name="Trazado 92104" d="M351.914,333.52c4.485-3.748,18.973-26.607,18.973-26.607l-.008-.007c-1.973-1.667-2.991-7.447-2.991-7.447-.782,2.23.044,5.593.651,6.822-1.141.988-7.587,6.289-12.065,9.833a6.4,6.4,0,0,0-2.656,4.01C352.9,324.972,351.808,332.539,351.914,333.52Z" transform="translate(-346.418 -295.089)" opacity="0.3"/>
                </g>
                <g id="Grupo_39361" data-name="Grupo 39361" transform="translate(13.886)">
                  <path id="Trazado_92105" data-name="Trazado 92105" d="M329.155,291.319h0l24.952,5.524c-1.219,4.58-1.566,6.945-2.838,9.357s-2.689,5-9.18,8.2c-6.248,3.077-13.881,6.245-15.408,6.971-1.15.548-1.7,2.848-2.22,5.832a35.451,35.451,0,0,1-3.69,12.144c-3.03,6.43-3.65,7.819-3.65,7.819s-4.689.488-7.8-2.25c0,0,4.247-22.046,5.152-26.015.506-2.217.516-3.385,3.268-5.821,2.36-2.088,12.9-10.064,12.9-10.064S326.454,297.39,329.155,291.319Z" transform="translate(-309.321 -291.319)" fill="#27debf"/>
                  <path id="Trazado_92106" data-name="Trazado 92106" d="M329.155,291.319h0l24.952,5.524c-1.219,4.58-1.566,6.945-2.838,9.357s-2.689,5-9.18,8.2c-6.248,3.077-13.881,6.245-15.408,6.971-1.15.548-1.7,2.848-2.22,5.832a35.451,35.451,0,0,1-3.69,12.144c-3.03,6.43-3.65,7.819-3.65,7.819s-4.689.488-7.8-2.25c0,0,4.247-22.046,5.152-26.015.506-2.217.516-3.385,3.268-5.821,2.36-2.088,12.9-10.064,12.9-10.064S326.454,297.39,329.155,291.319Z" transform="translate(-309.321 -291.319)" fill="#01c3fd" opacity="0.3"/>
                </g>
              </g>
              <g id="Grupo_39363" data-name="Grupo 39363" transform="translate(4.229 15.64)">
                <path id="Trazado_92107" data-name="Trazado 92107" d="M350.242,213.682a2.389,2.389,0,0,1,1.236.249,7.76,7.76,0,0,1,1.265.825q.931.685,1.909,1.3a5.3,5.3,0,0,0,1.882.889c.231.038.724.046.472-.3a9.9,9.9,0,0,1-.943-1.4,2.029,2.029,0,0,1-.139-1.634.694.694,0,0,1,.322-.38c.219-.1.33.016.455.159a4.576,4.576,0,0,0,.44.412c.311.275.623.551.93.83,1.8,1.63,3.978,3.044,4.746,5.4a14.509,14.509,0,0,1,.636,4.481c.016,2.587.169,11.59.169,11.59s7.151-6.014,10.252-8.606c1.5-1.25,3.585-2.767,5.888-2.985,1.629-.155,2.581-.145,2.581-.145l-4.877,11.823s-9.222,6.861-13.643,9.223c-3.99,2.132-5.93.6-6.413-.522-.8-1.854-1.62-2.723-.494-13.073.081-.8.18-3.092.27-3.892.116-1.671-.073-3.368-.72-3.731a19.646,19.646,0,0,1-3.383-2.295,10.223,10.223,0,0,1-1.788-2.01,3.146,3.146,0,0,1-.612-1.155c-.04-.389.131-.8.013-1.186-.081-.262-.257-.476-.323-.756a4.419,4.419,0,0,0-.449-1.719c-.2-.272-.531-.516-.486-.85a.7.7,0,0,1,.574-.5A1.633,1.633,0,0,1,350.242,213.682Z" transform="translate(-349.432 -213.191)" fill="#ffa8a7"/>
                <path id="Trazado_92108" data-name="Trazado 92108" d="M392.294,222.47a7.493,7.493,0,0,0,1.864,3.723,4.385,4.385,0,0,1-1.585-1.606A2.479,2.479,0,0,1,392.294,222.47Z" transform="translate(-384.189 -217.489)" fill="#f28f8f"/>
                <path id="Trazado_92109" data-name="Trazado 92109" d="M375.5,233.559c-2.489.108-4.429.164-6.551,1.389s-11.6,9.158-11.6,9.158-.093-4.039-.336-6.167c-.168-1.475-.413-1.938-.873-1.865a4.072,4.072,0,0,1-3.151,1.435c-2.329.175-3.111-.792-3.111-.792s-.679-.16-.923.792a94.919,94.919,0,0,0-.259,14.242c.425,2.973,1.757,4.354,3.542,4.773s5.924-2.084,10.894-5.427,10.368-6.459,10.368-6.459Z" transform="translate(-342.093 -222.625)" fill="#b0c5fd"/>
                <path id="Trazado_92111" data-name="Trazado 92111" d="M380.368,252.4a19.6,19.6,0,0,1-.2,5.792s1.818-3.512,1.258-6.728Z" transform="translate(-365.116 -230.917)" opacity="0.1"/>
              </g>
              <g id="Grupo_39369" data-name="Grupo 39369" transform="translate(32.383)">
                <path id="Trazado_92112" data-name="Trazado 92112" d="M332.252,235.554c.411,2.175,4.543,22.841-.157,38.253-8.463,1-23.325-2.887-25.554-8.488,0,0,1.5-5.315,2.153-7.913-.138-4.264,0-12.4.088-14.918.171-4.989.95-8.849,3.424-9.213,0,0,4.97-.2,7.978-.074,2.6.107,4.551.135,4.551.135Z" transform="translate(-306.541 -206.8)" fill="#fafafa"/>
                <path id="Trazado_92113" data-name="Trazado 92113" d="M310.375,272.6c.546-1.213,10.592-7.415,10.592-7.415s-.153-2.873-.751-8.159-.775-11.621,1.13-14.805l1.921.075c1.087,6.412,3.294,22.876-.618,35.708-4.512.532-10.842-.324-16.108-2.088C307.511,275.264,309.94,273.567,310.375,272.6Z" transform="translate(-297.095 -210.998)" fill="#f0f0f0"/>
                <g id="Grupo_39368" data-name="Grupo 39368" transform="translate(0.929)">
                  <path id="Trazado_92114" data-name="Trazado 92114" d="M332.119,206.508c-.017-1.069,2.033-4.264,2.961-6.79,1.552-4.225,1.687-8.019-2.142-9.665a10.143,10.143,0,0,0-8.43-4.334c-6.036-.205-10.675,4.889-8.67,11.7Z" transform="translate(-313.983 -184.824)" fill="#455a64"/>
                  <g id="Grupo_39366" data-name="Grupo 39366" transform="translate(1.645 7.099)">
                    <g id="Grupo_39364" data-name="Grupo 39364">
                      <path id="Trazado_92115" data-name="Trazado 92115" d="M329.961,205.339c.788,0,1.075-1.132,1.616-1.739a2.333,2.333,0,0,1,3.606.448c1.115,1.614.031,3.941-1.186,4.841a1.908,1.908,0,0,1-2.59.04l.139,8.53s-.272,1.891-3.756,2.989c-4.024,1.268-7.3-.85-4.9-3.505L322.8,214.7a11.577,11.577,0,0,1-3.89.217c-1.343-.2-2.418-1.215-3.108-3.284-1.346-4.04-.973-9.427.418-14.346,1.328,1.05,7.472,3.019,13.006,1.067C329.028,201.746,329.19,205.339,329.961,205.339Z" transform="translate(-314.961 -197.282)" fill="#ffa8a7"/>
                      <path id="Trazado_92116" data-name="Trazado 92116" d="M319.623,216.765a.5.5,0,1,0,.5-.5A.5.5,0,0,0,319.623,216.765Z" transform="translate(-302.437 -206.075)" fill="#263238"/>
                      <path id="Trazado_92117" data-name="Trazado 92117" d="M326.339,226.044a22.435,22.435,0,0,0,4.683-1.909,6.449,6.449,0,0,0,2.06-2.35,8.619,8.619,0,0,1-1.419,2.841c-1.6,1.821-5.28,2.663-5.28,2.663Z" transform="translate(-318.502 -208.631)" fill="#f28f8f"/>
                    </g>
                    <g id="Grupo_39365" data-name="Grupo 39365" transform="translate(1.256 3.805)">
                      <path id="Trazado_92118" data-name="Trazado 92118" d="M335.282,211.467a.837.837,0,1,0,.852-.855A.85.85,0,0,0,335.282,211.467Z" transform="translate(-328.431 -207.261)" fill="#263238"/>
                      <path id="Trazado_92119" data-name="Trazado 92119" d="M333.122,206.4l1.807.953a1.072,1.072,0,0,0-.444-1.416A1,1,0,0,0,333.122,206.4Z" transform="translate(-325.358 -205.042)" fill="#263238"/>
                      <path id="Trazado_92120" data-name="Trazado 92120" d="M340.615,220.39l-2.875.916a1.583,1.583,0,0,0,1.951,1A1.472,1.472,0,0,0,340.615,220.39Z" transform="translate(-333.502 -211.79)" fill="#f28f8f"/>
                      <path id="Trazado_92121" data-name="Trazado 92121" d="M347.435,205.689l1.985-.544a.988.988,0,0,0-1.229-.739A1.081,1.081,0,0,0,347.435,205.689Z" transform="translate(-347.407 -204.37)" fill="#263238"/>
                      <path id="Trazado_92122" data-name="Trazado 92122" d="M347.034,210.238a.837.837,0,1,0,.853-.855A.85.85,0,0,0,347.034,210.238Z" transform="translate(-346.492 -206.692)" fill="#263238"/>
                    </g>
                  </g>
                  <path id="Trazado_92123" data-name="Trazado 92123" d="M323.771,191.157a5.143,5.143,0,0,1-2.4-5.526c.724.727,2.754.857,4.53.01a13.9,13.9,0,0,1,9.1-1.317c3.278.635,5.2,3.128,5.2,4.962a6.852,6.852,0,0,1-3.047,2.938,12.154,12.154,0,0,1-7.913,2.278,7.815,7.815,0,0,1-4.659-1.686,5.046,5.046,0,0,0,2.516-.382A8.863,8.863,0,0,1,323.771,191.157Z" transform="translate(-321.253 -184.058)" fill="#37474f"/>
                  <g id="Grupo_39367" data-name="Grupo 39367" transform="translate(4.478 12.759)">
                    <path id="Trazado_92124" data-name="Trazado 92124" d="M344.686,213.5l-2.56-1.168,3.272-4.511Z" transform="translate(-342.126 -207.825)" fill="#f28f8f"/>
                  </g>
                </g>
              </g>
              <g id="Laptop-2" data-name="Laptop" transform="translate(1.736 28.753)">
                <path id="Trazado_92125" data-name="Trazado 92125" d="M328.976,310.6a4.9,4.9,0,0,1,.778-.913c2.984-2.762,8.588-6.412,13.35-9.445l21.664,12.51a.2.2,0,0,1,0,.345l-15.733,9.085Z" transform="translate(-318.482 -266.623)" opacity="0.15"/>
                <g id="Grupo_39386" data-name="Grupo 39386">
                  <g id="Grupo_39379" data-name="Grupo 39379" transform="translate(3.923 28.876)">
                    <g id="Grupo_39370" data-name="Grupo 39370" transform="translate(0.002 8.738)">
                      <path id="Trazado_92126" data-name="Trazado 92126" d="M330.21,307.686v.351a1.442,1.442,0,0,0,.719,1.247l25.189,14.542a1.423,1.423,0,0,0,.717.191,1.45,1.45,0,0,0,.724-.192l13.73-7.9a1.445,1.445,0,0,0,.718-1.247v-.485h0v0a.18.18,0,0,1-.091.158l-15.078,8.707Z" transform="translate(-330.21 -307.686)" fill="#37474f"/>
                    </g>
                    <g id="Grupo_39371" data-name="Grupo 39371" transform="translate(0 8.737)">
                      <path id="Trazado_92127" data-name="Trazado 92127" d="M385.1,323.058v.958a1.438,1.438,0,0,1-.719-.192l-25.189-14.542a1.441,1.441,0,0,1-.721-1.248v-.351Z" transform="translate(-358.47 -307.684)" fill="#263238"/>
                    </g>
                    <g id="Grupo_39372" data-name="Grupo 39372" transform="translate(0)">
                      <path id="Trazado_92128" data-name="Trazado 92128" d="M330.21,300.146l14.936-8.622a.859.859,0,0,1,.858,0l25.911,14.961a.191.191,0,0,1,0,.331l-15.075,8.705Z" transform="translate(-330.21 -291.409)" fill="#455a64"/>
                    </g>
                    <g id="Grupo_39375" data-name="Grupo 39375" transform="translate(3.17 4.598)">
                      <g id="Grupo_39373" data-name="Grupo 39373" transform="translate(0 0)">
                        <path id="Trazado_92129" data-name="Trazado 92129" d="M366.8,318.22l8.056-4.646-23.555-13.6-8.1,4.622Z" transform="translate(-343.208 -299.975)" fill="#37474f"/>
                      </g>
                      <g id="Grupo_39374" data-name="Grupo 39374" transform="translate(0)">
                        <path id="Trazado_92130" data-name="Trazado 92130" d="M343.211,304.6l.308.177,7.79-4.445,23.245,13.423.307-.177-23.552-13.6Z" transform="translate(-343.211 -299.974)" fill="#263238"/>
                      </g>
                    </g>
                    <g id="Grupo_39378" data-name="Grupo 39378" transform="translate(19.461 5.782)">
                      <g id="Grupo_39376" data-name="Grupo 39376" transform="translate(0)">
                        <path id="Trazado_92131" data-name="Trazado 92131" d="M362.1,306.317l-.149.086-3.948,2.279-7.022-4.054-.146-.083,4.1-2.365Z" transform="translate(-350.839 -302.18)" fill="#263238"/>
                      </g>
                      <g id="Grupo_39377" data-name="Grupo 39377" transform="translate(0.146 0.169)">
                        <path id="Trazado_92132" data-name="Trazado 92132" d="M362.085,306.549l-3.948,2.279-7.021-4.054,3.951-2.279Z" transform="translate(-351.115 -302.495)" fill="#37474f"/>
                      </g>
                    </g>
                  </g>
                  <g id="Arm" transform="translate(26.51)">
                    <path id="Trazado_92133" data-name="Trazado 92133" d="M326.452,309.308c1.129-1.12,2.768-2.673,4.145-3.13a7.708,7.708,0,0,1,.968-.3,10.97,10.97,0,0,1-1.415-.282,2.5,2.5,0,0,1-1.2-.792c-.12-.155-.2-.4-.053-.524a.326.326,0,0,1,.2-.073c1.032-.031,1.845-.192,2.782-.259a3.906,3.906,0,0,1,1.263.023c.384.1.768.216,1.145.347a9.12,9.12,0,0,0,5.695.561l4.36-2.326s.931-.233,2.3,2.092.571,3.6.571,3.6l-4.9,1.691h0l-.071.027a16.192,16.192,0,0,1-2.311,1.018c-1.526.469-3.479-.085-4.8-.156a14.052,14.052,0,0,0-4.8,1.041c-1.23.5-2.707-1.4-3.323-1.167S325.322,310.428,326.452,309.308Z" transform="translate(-325.956 -267.691)" fill="#ffa8a7"/>
                    <path id="Trazado_92134" data-name="Trazado 92134" d="M354.059,307.206a4.642,4.642,0,0,1,1.877.3,10.226,10.226,0,0,0-2.448.426,10.957,10.957,0,0,1-1.415-.282,2.608,2.608,0,0,1-1.086-.664C351.729,307.494,353.167,307.3,354.059,307.206Z" transform="translate(-347.878 -269.75)" fill="#f28f8f"/>
                    <g id="Grupo_39380" data-name="Grupo 39380" transform="translate(18.387)">
                      <path id="Trazado_92135" data-name="Trazado 92135" d="M302.72,237.619c-1.241.49-2.855,5.662-1.86,10.638l2.309,15.56s-2.829,1.675-6.8,4.134c-2.751,1.7-5.109,3.266-5.111,4.528,1.8.647,3.421,3.964,2.875,5.694,1.23,1.458,12.589-4.839,16.56-7.555,1.841-1.259,2.77-1.756,2.061-7.441-.784-6.292-1.321-13.283-2.547-17.947C308.93,240.362,307.506,238.471,302.72,237.619Z" transform="translate(-291.26 -237.619)" fill="#b0c5fd"/>
                    </g>
                  </g>
                  <g id="Grupo_39385" data-name="Grupo 39385" transform="translate(0 19.285)">
                    <g id="Grupo_39381" data-name="Grupo 39381" transform="translate(0 0.265)">
                      <path id="Trazado_92137" data-name="Trazado 92137" d="M389.372,307.686a1.7,1.7,0,0,1-1.47-.113l-25.079-14.479a1.706,1.706,0,0,1-.829-1.192l-2.745-16.373a1.717,1.717,0,0,1,.482-1.492l26.061,15.049a1.265,1.265,0,0,1,.612.883Z" transform="translate(-359.226 -274.036)" fill="#37474f"/>
                    </g>
                    <g id="Grupo_39382" data-name="Grupo 39382" transform="translate(0.504)">
                      <path id="Trazado_92138" data-name="Trazado 92138" d="M388.517,307.246l-.172.1a2,2,0,0,1-.234.113l-2.968-17.719a1.265,1.265,0,0,0-.613-.883L358.47,273.808a1.745,1.745,0,0,1,.348-.265l26.114,15.077a1.265,1.265,0,0,1,.613.882Z" transform="translate(-358.47 -273.543)" fill="#455a64"/>
                    </g>
                    <g id="Grupo_39383" data-name="Grupo 39383" transform="translate(26.936 15.414)">
                      <path id="Trazado_92139" data-name="Trazado 92139" d="M358.47,302.49l.4-.233a1.266,1.266,0,0,1,.239.545l2.972,17.744-.172.1a1.994,1.994,0,0,1-.234.113l-2.968-17.719A1.255,1.255,0,0,0,358.47,302.49Z" transform="translate(-358.47 -302.256)" fill="#263238"/>
                    </g>
                  </g>
                </g>
              </g>
            </g>
          </g>
        </g>
      </g>
    </g>
    <g id="Grupo_1093323" data-name="Grupo 1093323" transform="translate(-6761 -3529)">
      <g id="Grupo_1093322" data-name="Grupo 1093322" clip-path="url(#clip-path)">
        <path id="Trazado_835825" data-name="Trazado 835825" d="M2.386,1.049,2.2,5.944a1.713,1.713,0,0,1,2.229-.231,4.039,4.039,0,0,1,1.157.98A4.452,4.452,0,0,1,6.34,7.967a5.447,5.447,0,0,1,.318,1.327,14.632,14.632,0,0,1,.025,1.97L6.467,16.92l-1.88-1.049.194-5.094a11.069,11.069,0,0,0-.033-1.984,2.321,2.321,0,0,0-.353-.86,1.916,1.916,0,0,0-.669-.619,1.125,1.125,0,0,0-.849-.158.9.9,0,0,0-.573.63,6.212,6.212,0,0,0-.241,1.743L1.879,14.36,0,13.311.507,0Z" fill="#6e40fb"/>
        <path id="Trazado_835826" data-name="Trazado 835826" d="M12,10.16l-.078,2.034-1.285-.717-.147,3.886a13.12,13.12,0,0,0-.016,1.4,1.032,1.032,0,0,0,.155.416.879.879,0,0,0,.312.3,1.848,1.848,0,0,0,.766.177l.085,2.069a2.988,2.988,0,0,1-1.5-.448,3.334,3.334,0,0,1-.908-.743,3.038,3.038,0,0,1-.577-.933,4.16,4.16,0,0,1-.225-1.142,17.16,17.16,0,0,1,.008-1.831l.16-4.2-.862-.482L7.965,7.91l.863.481L8.9,6.476l1.941-.437-.13,3.4Z" fill="#6e40fb"/>
        <path id="Trazado_835827" data-name="Trazado 835827" d="M16.558,12.706l-.077,2.034L15.2,14.023l-.148,3.887a13.407,13.407,0,0,0-.016,1.4,1.047,1.047,0,0,0,.155.416.873.873,0,0,0,.313.3,1.842,1.842,0,0,0,.764.177l.087,2.069a2.989,2.989,0,0,1-1.5-.448,3.36,3.36,0,0,1-.907-.743,3.034,3.034,0,0,1-.576-.933A4.121,4.121,0,0,1,13.143,19a17.16,17.16,0,0,1,.008-1.831l.16-4.2-.863-.481.077-2.033.864.481.073-1.915L15.4,8.585l-.13,3.4Z" fill="#6e40fb"/>
        <path id="Trazado_835828" data-name="Trazado 835828" d="M17.81,13.4l1.751.979L19.507,15.8a1.541,1.541,0,0,1,.968-.666,1.87,1.87,0,0,1,1.308.267,5.119,5.119,0,0,1,2.05,2.489,9.1,9.1,0,0,1,.724,4.15,4.69,4.69,0,0,1-1.012,3.269,1.694,1.694,0,0,1-2.159.163,3.6,3.6,0,0,1-1.054-.913,8.436,8.436,0,0,1-.965-1.652l-.185,4.858L17.3,26.716Zm1.681,5.7a6.221,6.221,0,0,0,.384,2.666A2.809,2.809,0,0,0,21,23.19a.846.846,0,0,0,1.118-.105,3.394,3.394,0,0,0,.522-2.095,5.838,5.838,0,0,0-.361-2.5A2.671,2.671,0,0,0,21.2,17.133a.9.9,0,0,0-1.171.083,2.827,2.827,0,0,0-.537,1.885" fill="#6e40fb"/>
        <path id="Trazado_835829" data-name="Trazado 835829" d="M26.224,27.95l.1-2.552L28.2,26.447,28.1,29Zm.27-7.092.1-2.551,1.879,1.05-.1,2.55Z" fill="#6e40fb"/>
        <path id="Trazado_835830" data-name="Trazado 835830" d="M29.41,29.961l2.953-12.41,1.411.789L30.8,30.733Z" fill="#6e40fb"/>
        <path id="Trazado_835831" data-name="Trazado 835831" d="M33.216,32.085l2.953-12.409,1.411.788L34.6,32.858Z" fill="#6e40fb"/>
        <path id="Trazado_835832" data-name="Trazado 835832" d="M39.358,35.282l-1.879-10.9L39.3,25.4l1.09,7.062,1.465-5.636,1.812,1.012.942,6.98,1.6-5.561L48.065,30.3l-2.648,8.369-1.805-1.009-.988-6.883L41.184,36.3Z" fill="#6e40fb"/>
        <path id="Trazado_835833" data-name="Trazado 835833" d="M50.012,41.229l-1.88-10.9,1.826,1.019,1.09,7.061,1.464-5.635,1.812,1.012.943,6.979,1.6-5.561,1.853,1.035L56.07,44.612,54.265,43.6l-.988-6.884-1.44,5.528Z" fill="#6e40fb"/>
        <path id="Trazado_835834" data-name="Trazado 835834" d="M60.666,47.176l-1.88-10.9L60.612,37.3,61.7,44.36l1.465-5.635,1.812,1.011.942,6.98,1.6-5.561,1.853,1.035-2.648,8.369-1.806-1.008-.987-6.885L62.492,48.2Z" fill="#6e40fb"/>
        <path id="Trazado_835835" data-name="Trazado 835835" d="M69.487,52.1l.1-2.552,1.879,1.05-.1,2.551Z" fill="#6e40fb"/>
      </g>
    </g>
  </g>
</svg>
