<svg xmlns="http://www.w3.org/2000/svg" xmlns:xlink="http://www.w3.org/1999/xlink" width="470.745" height="300.027" viewBox="0 0 470.745 300.027">
  <defs>
    <linearGradient id="linear-gradient" x1="-0.06" y1="0.5" x2="0.645" y2="0.5" gradientUnits="objectBoundingBox">
      <stop offset="0" stop-color="#fff"/>
      <stop offset="1" stop-color="#d2e6ee"/>
    </linearGradient>
    <linearGradient id="linear-gradient-2" x1="0.5" y1="0" x2="0.5" y2="1" xlink:href="#linear-gradient"/>
    <linearGradient id="linear-gradient-3" x1="-0.06" y1="0.5" x2="0.645" y2="0.5" xlink:href="#linear-gradient"/>
  </defs>
  <g id="Grupo_39006" data-name="Grupo 39006" transform="translate(-99.852 -63.489)">
    <path id="Trazado_81325" data-name="Trazado 81325" d="M289.778,304.347l-.23-.132L152.172,224.9l.457-.793L289.775,303.29l158.339-91.9.46.791Z" transform="translate(10.187 28.798)" fill="#393939"/>
    <path id="Trazado_81326" data-name="Trazado 81326" d="M427.481,222.137l-.46-.791,41.234-23.933L332.7,119.153l.457-.793,136.922,79.052Z" transform="translate(45.339 10.684)" fill="#393939"/>
    <path id="Trazado_81327" data-name="Trazado 81327" d="M144.642,233.375,118.535,218.3l158.824-92.181.46.791L120.362,218.3,145.1,232.582Z" transform="translate(3.638 12.195)" fill="#393939"/>
    <g id="Grupo_33076" data-name="Grupo 33076" transform="translate(453.243 164.929)">
      <path id="Trazado_81328" data-name="Trazado 81328" d="M440.679,240.9a11.383,11.383,0,0,1-5.564-1.327L398.088,218.19a3.7,3.7,0,0,1,0-6.953L462.406,174.1a12.31,12.31,0,0,1,11.126,0l37.03,21.378a3.7,3.7,0,0,1,0,6.954l-64.318,37.135A11.384,11.384,0,0,1,440.679,240.9Zm27.291-67.222a10.434,10.434,0,0,0-5.106,1.22L398.545,212.03a2.808,2.808,0,0,0,0,5.367l37.028,21.378a11.3,11.3,0,0,0,10.214,0L510.1,201.641a2.809,2.809,0,0,0,0-5.368l-37.029-21.378A10.432,10.432,0,0,0,467.97,173.675Z" transform="translate(-395.648 -143.651)" fill="#393939"/>
      <g id="Grupo_33075" data-name="Grupo 33075" transform="translate(0.64)">
        <path id="Trazado_81329" data-name="Trazado 81329" d="M512.62,189.1h0l-.006-17.753-22.434,2.993-16.8-9.7a11.791,11.791,0,0,0-10.67,0l-30.1,17.379-36.424,4.859v18.076l.013,0a3.786,3.786,0,0,0,2.193,2.983l37.029,21.378a11.792,11.792,0,0,0,10.67,0l64.318-37.135a3.785,3.785,0,0,0,2.192-2.972l.018,0Z" transform="translate(-396.183 -145.482)" fill="url(#linear-gradient)"/>
        <path id="Trazado_81330" data-name="Trazado 81330" d="M510.41,171.051l-37.029-21.378a11.791,11.791,0,0,0-10.67,0l-64.318,37.134c-2.946,1.7-2.946,4.46,0,6.161l37.029,21.378a11.791,11.791,0,0,0,10.67,0l64.318-37.134C513.356,175.511,513.356,172.752,510.41,171.051Z" transform="translate(-396.183 -148.397)" fill="url(#linear-gradient-2)"/>
        <path id="Trazado_81331" data-name="Trazado 81331" d="M510.409,172.029l-64.318,37.134a11.791,11.791,0,0,1-10.67,0l-37.029-21.378a4.09,4.09,0,0,1-2.146-2.542c-.276,1.287.435,2.631,2.146,3.619l37.029,21.378a11.791,11.791,0,0,0,10.67,0l64.318-37.134c1.711-.988,2.422-2.332,2.146-3.619A4.091,4.091,0,0,1,510.409,172.029Z" transform="translate(-396.182 -144.291)" fill="#fff"/>
        <g id="Grupo_33070" data-name="Grupo 33070" transform="translate(69.854 41.874)">
          <path id="Trazado_81332" data-name="Trazado 81332" d="M456.405,199.581l-1.753,1.012v-2.024l1.753-1.012Z" transform="translate(-454.653 -180.699)" fill="#fff"/>
          <path id="Trazado_81333" data-name="Trazado 81333" d="M459.475,197.809l-1.753,1.012V196.8l1.753-1.012Z" transform="translate(-454.055 -181.044)" fill="#fff"/>
          <path id="Trazado_81334" data-name="Trazado 81334" d="M462.545,196.037l-1.753,1.012v-2.024l1.753-1.012Z" transform="translate(-453.457 -181.389)" fill="#fff"/>
          <path id="Trazado_81335" data-name="Trazado 81335" d="M460.035,200.919l-1.753,1.012v-2.024l1.753-1.012Z" transform="translate(-453.946 -180.438)" fill="#fff"/>
          <path id="Trazado_81336" data-name="Trazado 81336" d="M462.738,199.358l-1.753,1.012v-2.024l1.753-1.012Z" transform="translate(-453.42 -180.742)" fill="#fff"/>
          <path id="Trazado_81337" data-name="Trazado 81337" d="M472.391,190.352l-1.753,1.012V189.34l1.753-1.012Z" transform="translate(-451.54 -182.496)" fill="#fff"/>
          <path id="Trazado_81338" data-name="Trazado 81338" d="M480.847,185.47l-1.753,1.012v-2.024l1.753-1.012Z" transform="translate(-449.894 -183.446)" fill="#fff"/>
          <path id="Trazado_81339" data-name="Trazado 81339" d="M465.615,194.265l-1.753,1.012v-2.024l1.753-1.012Z" transform="translate(-452.86 -181.734)" fill="#fff"/>
        </g>
        <g id="Grupo_33074" data-name="Grupo 33074" transform="translate(55.323 9.358)">
          <g id="Grupo_33071" data-name="Grupo 33071" transform="translate(0 8.482)">
            <path id="Trazado_81340" data-name="Trazado 81340" d="M444.9,163.329l26.161,15.07-2.411,1.4-26.161-15.07Z" transform="translate(-442.49 -163.329)" fill="#21587b"/>
            <path id="Trazado_81341" data-name="Trazado 81341" d="M443.4,165.247l1.643-.951,25.253,14.547.767-.444L444.9,163.329l-2.411,1.4Z" transform="translate(-442.49 -163.329)" fill="#fff"/>
          </g>
          <g id="Grupo_33072" data-name="Grupo 33072" transform="translate(7.329 4.241)">
            <path id="Trazado_81342" data-name="Trazado 81342" d="M451.035,159.78l26.161,15.07-2.411,1.395-26.161-15.07Z" transform="translate(-448.624 -159.779)" fill="#21587b"/>
            <path id="Trazado_81343" data-name="Trazado 81343" d="M449.532,161.7l1.643-.951,25.253,14.547.768-.444-26.161-15.07-2.411,1.4Z" transform="translate(-448.624 -159.779)" fill="#fff"/>
          </g>
          <g id="Grupo_33073" data-name="Grupo 33073" transform="translate(14.658)">
            <path id="Trazado_81344" data-name="Trazado 81344" d="M457.169,156.23l26.161,15.07-2.411,1.395-26.161-15.07Z" transform="translate(-454.759 -156.23)" fill="#21587b"/>
            <path id="Trazado_81345" data-name="Trazado 81345" d="M455.667,158.148l1.643-.951,25.253,14.547.768-.444L457.17,156.23l-2.411,1.395Z" transform="translate(-454.759 -156.23)" fill="#fff"/>
          </g>
        </g>
      </g>
      <path id="Trazado_81346" data-name="Trazado 81346" d="M437.6,201.913a3.831,3.831,0,0,1-1.883-.441l-24.912-14.383a1.488,1.488,0,0,1-.846-1.274,1.94,1.94,0,0,1,1.129-1.572l24.345-14.055a4.682,4.682,0,0,1,4.277-.165l24.912,14.383a1.488,1.488,0,0,1,.846,1.274,1.938,1.938,0,0,1-1.129,1.572l-24.345,14.056A4.9,4.9,0,0,1,437.6,201.913Zm-1.557-1a4.1,4.1,0,0,0,3.625-.165l24.345-14.056c.5-.29.805-.667.805-1.007a.888.888,0,0,0-.522-.708l-24.912-14.383a4.1,4.1,0,0,0-3.625.164l-24.345,14.056c-.51.3-.8.662-.8,1.007a.894.894,0,0,0,.521.71Z" transform="translate(-392.861 -144.272)" fill="#21587b"/>
      <path id="Trazado_81347" data-name="Trazado 81347" d="M426.948,211.657l-20.557-11.869a2.126,2.126,0,0,1-.889-1.7v-1.526c0-.655.4-.956.889-.673l20.557,11.869a2.126,2.126,0,0,1,.889,1.7v1.527C427.837,211.639,427.439,211.94,426.948,211.657Z" transform="translate(-393.729 -139.17)" fill="#21587b"/>
    </g>
    <g id="Grupo_33083" data-name="Grupo 33083" transform="translate(276.687 63.489)">
      <path id="Trazado_81348" data-name="Trazado 81348" d="M292.9,155.987a11.371,11.371,0,0,1-5.564-1.328l-37.029-21.377a3.7,3.7,0,0,1,0-6.953l64.318-37.136a12.325,12.325,0,0,1,11.126,0l37.029,21.379a3.7,3.7,0,0,1,0,6.953l-64.318,37.134A11.368,11.368,0,0,1,292.9,155.987Zm27.29-67.22a10.43,10.43,0,0,0-5.1,1.22l-64.318,37.135a2.808,2.808,0,0,0,0,5.367l37.029,21.377a11.3,11.3,0,0,0,10.214,0l64.318-37.134a2.808,2.808,0,0,0,0-5.367l-37.03-21.378A10.432,10.432,0,0,0,320.188,88.767Z" transform="translate(-247.867 -58.743)" fill="#393939"/>
      <g id="Grupo_33082" data-name="Grupo 33082" transform="translate(0.639)">
        <path id="Trazado_81349" data-name="Trazado 81349" d="M364.838,104.194h0l0-17.752L342.4,89.435l-16.8-9.7a11.791,11.791,0,0,0-10.67,0l-30.1,17.378-36.424,4.86V120.05l.014,0a3.788,3.788,0,0,0,2.193,2.983l37.028,21.378a11.791,11.791,0,0,0,10.67,0l64.32-37.135a3.793,3.793,0,0,0,2.192-2.974h.017Z" transform="translate(-248.401 -60.574)" fill="url(#linear-gradient-3)"/>
        <path id="Trazado_81350" data-name="Trazado 81350" d="M362.629,86.143,325.6,64.765a11.791,11.791,0,0,0-10.67,0L250.612,101.9c-2.947,1.7-2.947,4.46,0,6.16l37.028,21.379a11.791,11.791,0,0,0,10.67,0L362.629,92.3C365.576,90.6,365.576,87.844,362.629,86.143Z" transform="translate(-248.402 -63.489)" fill="url(#linear-gradient-2)"/>
        <path id="Trazado_81351" data-name="Trazado 81351" d="M362.628,87.121,298.31,124.255a11.794,11.794,0,0,1-10.671,0l-37.028-21.378a4.09,4.09,0,0,1-2.146-2.542c-.276,1.287.435,2.63,2.146,3.618l37.028,21.379a11.8,11.8,0,0,0,10.671,0L362.628,88.2c1.711-.987,2.42-2.331,2.144-3.618A4.084,4.084,0,0,1,362.628,87.121Z" transform="translate(-248.401 -59.383)" fill="#fff"/>
        <g id="Grupo_33077" data-name="Grupo 33077" transform="translate(69.854 41.873)">
          <path id="Trazado_81352" data-name="Trazado 81352" d="M308.624,114.673l-1.753,1.012v-2.024l1.753-1.012Z" transform="translate(-306.871 -95.79)" fill="#fff"/>
          <path id="Trazado_81353" data-name="Trazado 81353" d="M311.694,112.9l-1.753,1.012v-2.024l1.753-1.012Z" transform="translate(-306.273 -96.135)" fill="#fff"/>
          <path id="Trazado_81354" data-name="Trazado 81354" d="M314.763,111.129l-1.753,1.012v-2.024l1.753-1.012Z" transform="translate(-305.676 -96.48)" fill="#fff"/>
          <path id="Trazado_81355" data-name="Trazado 81355" d="M312.254,116.011l-1.753,1.012V115l1.753-1.012Z" transform="translate(-306.164 -95.53)" fill="#fff"/>
          <path id="Trazado_81356" data-name="Trazado 81356" d="M314.957,114.45l-1.753,1.012v-2.024l1.753-1.012Z" transform="translate(-305.638 -95.834)" fill="#fff"/>
          <path id="Trazado_81357" data-name="Trazado 81357" d="M324.609,105.444l-1.753,1.012v-2.024l1.753-1.012Z" transform="translate(-303.759 -97.587)" fill="#fff"/>
          <path id="Trazado_81358" data-name="Trazado 81358" d="M333.066,100.562l-1.753,1.012V99.55l1.753-1.012Z" transform="translate(-302.112 -98.538)" fill="#fff"/>
          <path id="Trazado_81359" data-name="Trazado 81359" d="M317.833,109.356l-1.753,1.012v-2.024l1.753-1.012Z" transform="translate(-305.078 -96.825)" fill="#fff"/>
        </g>
        <g id="Grupo_33081" data-name="Grupo 33081" transform="translate(55.323 9.357)">
          <g id="Grupo_33078" data-name="Grupo 33078" transform="translate(0 8.482)">
            <path id="Trazado_81360" data-name="Trazado 81360" d="M297.119,78.421l26.161,15.07-2.411,1.395-26.161-15.07Z" transform="translate(-294.708 -78.421)" fill="#11203c"/>
            <path id="Trazado_81361" data-name="Trazado 81361" d="M295.616,80.339l1.643-.951,25.253,14.547.768-.444-26.161-15.07-2.411,1.4Z" transform="translate(-294.708 -78.421)" fill="#fff"/>
          </g>
          <g id="Grupo_33079" data-name="Grupo 33079" transform="translate(7.329 4.241)">
            <path id="Trazado_81362" data-name="Trazado 81362" d="M303.254,74.871l26.161,15.07L327,91.336l-26.161-15.07Z" transform="translate(-300.843 -74.871)" fill="#11203c"/>
            <path id="Trazado_81363" data-name="Trazado 81363" d="M301.751,76.789l1.643-.951,25.253,14.547.767-.444-26.161-15.07-2.411,1.395Z" transform="translate(-300.843 -74.871)" fill="#fff"/>
          </g>
          <g id="Grupo_33080" data-name="Grupo 33080" transform="translate(14.658)">
            <path id="Trazado_81364" data-name="Trazado 81364" d="M309.388,71.321l26.161,15.07-2.411,1.395-26.161-15.07Z" transform="translate(-306.977 -71.321)" fill="#21587b"/>
            <path id="Trazado_81365" data-name="Trazado 81365" d="M307.885,73.239l1.643-.951,25.253,14.547.767-.444-26.161-15.07-2.411,1.395Z" transform="translate(-306.977 -71.321)" fill="#fff"/>
          </g>
        </g>
      </g>
      <path id="Trazado_81366" data-name="Trazado 81366" d="M289.821,117a3.823,3.823,0,0,1-1.884-.442L263.024,102.18a1.488,1.488,0,0,1-.846-1.272,1.943,1.943,0,0,1,1.13-1.573l24.345-14.053a4.693,4.693,0,0,1,4.277-.165L316.842,99.5a1.489,1.489,0,0,1,.846,1.272,1.938,1.938,0,0,1-1.129,1.573L292.214,116.4A4.9,4.9,0,0,1,289.821,117Zm.235-31.673a4.286,4.286,0,0,0-2.078.513L263.634,99.9c-.5.29-.805.667-.805,1.008a.888.888,0,0,0,.522.707L288.263,116a4.092,4.092,0,0,0,3.625-.164l24.343-14.056c.5-.29.805-.667.805-1.008a.886.886,0,0,0-.521-.707L291.6,85.681A3.162,3.162,0,0,0,290.057,85.332Z" transform="translate(-245.081 -59.364)" fill="#21587b"/>
      <path id="Trazado_81367" data-name="Trazado 81367" d="M279.167,126.748l-20.559-11.868a2.129,2.129,0,0,1-.888-1.7v-1.527c0-.654.4-.955.888-.671l20.559,11.869a2.129,2.129,0,0,1,.888,1.7v1.526C280.055,126.731,279.657,127.032,279.167,126.748Z" transform="translate(-245.948 -54.262)" fill="#21587b"/>
    </g>
    <g id="Grupo_33095" data-name="Grupo 33095" transform="translate(237.395 71.8)">
      <g id="Grupo_33086" data-name="Grupo 33086">
        <g id="Grupo_33084" data-name="Grupo 33084">
          <path id="Trazado_81368" data-name="Trazado 81368" d="M320.754,263.481a5.474,5.474,0,0,1-2.7-.631l-101.9-58.833a2.057,2.057,0,0,1-1.174-1.753,2.722,2.722,0,0,1,1.591-2.192l65.4-37.76a6.723,6.723,0,0,1,6.143-.24l101.9,58.834a2.055,2.055,0,0,1,1.174,1.753,2.722,2.722,0,0,1-1.591,2.193l-65.4,37.759A7.047,7.047,0,0,1,320.754,263.481Zm-2.35-1.231a6.078,6.078,0,0,0,5.448-.24l65.4-37.759a2.083,2.083,0,0,0,1.246-1.594,1.388,1.388,0,0,0-.829-1.153l-101.9-58.834a6.078,6.078,0,0,0-5.448.24l-65.4,37.76a2.08,2.08,0,0,0-1.246,1.593,1.391,1.391,0,0,0,.829,1.153Z" transform="translate(-214.979 -52.728)" fill="#21587b" opacity="0.4"/>
          <path id="Trazado_81369" data-name="Trazado 81369" d="M320.753,250.04a5.485,5.485,0,0,1-2.7-.631l-101.9-58.835a2.057,2.057,0,0,1-1.174-1.753,2.719,2.719,0,0,1,1.591-2.192l65.4-37.761a6.73,6.73,0,0,1,6.143-.24l101.9,58.835a2.058,2.058,0,0,1,1.174,1.753,2.719,2.719,0,0,1-1.591,2.192l-65.4,37.761A7.055,7.055,0,0,1,320.753,250.04Zm-2.349-1.231a6.086,6.086,0,0,0,5.448-.24l65.4-37.761a2.082,2.082,0,0,0,1.246-1.593,1.389,1.389,0,0,0-.829-1.153l-101.9-58.835a6.067,6.067,0,0,0-5.448.241l-65.4,37.76a2.08,2.08,0,0,0-1.246,1.593,1.39,1.39,0,0,0,.829,1.153Z" transform="translate(-214.979 -55.345)" fill="#393939"/>
          <path id="Trazado_81370" data-name="Trazado 81370" d="M404.956,129.441l-101.5-58.6a2.629,2.629,0,0,0-2.072-.3h0l-.01,0-1.879.655.662.157a3.255,3.255,0,0,0-.62,1.16l-22.954,74.528a4.5,4.5,0,0,0,1.86,5.015l101.5,58.6a2.973,2.973,0,0,0,.747.3l-.252.547,1.8-.631h0a2.867,2.867,0,0,0,1.633-1.9l22.954-74.528A4.5,4.5,0,0,0,404.956,129.441Z" transform="translate(-203.019 -70.445)" fill="#393939"/>
          <path id="Trazado_81371" data-name="Trazado 81371" d="M388.208,199.66l.037.043L287.986,141.819a6.4,6.4,0,0,0-5.754.239l-64.776,37.4-2.16-.826.607,3.031,0,0a1.814,1.814,0,0,0,.972,1.214l101.185,58.419a6.394,6.394,0,0,0,5.754-.239l64.941-37.494a2.594,2.594,0,0,0,1.376-1.6l0,0,.62-2.949Z" transform="translate(-214.917 -56.66)" fill="#21587b"/>
          <path id="Trazado_81372" data-name="Trazado 81372" d="M318.174,239.176l-101.9-58.834c-1.485-.858-1.3-2.356.416-3.345l65.4-37.76a6.438,6.438,0,0,1,5.794-.24l101.9,58.833c1.486.858,1.3,2.355-.416,3.345l-65.4,37.76A6.441,6.441,0,0,1,318.174,239.176Z" transform="translate(-214.923 -57.21)" fill="url(#linear-gradient-2)"/>
          <path id="Trazado_81373" data-name="Trazado 81373" d="M216.269,172.179l101.9,58.833a6.441,6.441,0,0,0,5.8-.24l65.4-37.76A3.215,3.215,0,0,0,390.488,192c.62.849.235,1.943-1.118,2.724l-65.4,37.76a6.445,6.445,0,0,1-5.8.241l-101.9-58.835a1.548,1.548,0,0,1-.7-2.333A2.231,2.231,0,0,0,216.269,172.179Z" transform="translate(-214.921 -50.758)" fill="#fff"/>
          <path id="Trazado_81374" data-name="Trazado 81374" d="M378.5,211.169l-101.5-58.6a4.5,4.5,0,0,1-1.86-5.015l22.954-74.528a2.606,2.606,0,0,1,3.92-1.677l101.5,58.6a4.5,4.5,0,0,1,1.861,5.015l-22.955,74.528A2.605,2.605,0,0,1,378.5,211.169Z" transform="translate(-203.301 -70.347)" fill="#6e40fb"/>
          <path id="Trazado_81375" data-name="Trazado 81375" d="M379.926,211.817a3.007,3.007,0,0,1-1.5-.423l-101.5-58.6a4.728,4.728,0,0,1-1.959-5.266L297.914,73a3.068,3.068,0,0,1,1.771-2.044,2.8,2.8,0,0,1,2.465.241l101.5,58.6a4.729,4.729,0,0,1,1.96,5.266l-22.955,74.53a3.071,3.071,0,0,1-1.771,2.043A2.606,2.606,0,0,1,379.926,211.817ZM300.644,71.205a2.2,2.2,0,0,0-.8.151,2.647,2.647,0,0,0-1.513,1.768l-22.954,74.528a4.271,4.271,0,0,0,1.761,4.762l101.5,58.6a2.39,2.39,0,0,0,2.089.214,2.649,2.649,0,0,0,1.513-1.768l22.955-74.53a4.275,4.275,0,0,0-1.762-4.762l-101.5-58.6A2.576,2.576,0,0,0,300.644,71.205Z" transform="translate(-203.336 -70.382)" fill="#03a7d3"/>
        </g>
        <g id="Grupo_33085" data-name="Grupo 33085" transform="translate(48.624 94.049)" opacity="0.5">
          <path id="Trazado_81376" data-name="Trazado 81376" d="M259.231,165.3l-3.37-1.946c-.27-.157-.237-.429.076-.609l3.977-2.3a1.177,1.177,0,0,1,1.056-.043l3.37,1.945c.27.156.237.43-.076.61l-3.977,2.3A1.177,1.177,0,0,1,259.231,165.3Z" transform="translate(-255.678 -147)" fill="#21587b"/>
          <path id="Trazado_81377" data-name="Trazado 81377" d="M263.587,167.811l-3.369-1.946c-.271-.157-.237-.429.075-.609l3.978-2.3a1.171,1.171,0,0,1,1.055-.044l3.37,1.945c.271.156.237.43-.075.611l-3.978,2.3A1.177,1.177,0,0,1,263.587,167.811Z" transform="translate(-254.83 -146.51)" fill="#21587b"/>
          <path id="Trazado_81378" data-name="Trazado 81378" d="M267.944,170.326l-3.37-1.946c-.271-.157-.237-.429.075-.609l3.978-2.3a1.171,1.171,0,0,1,1.055-.044l3.37,1.946c.271.155.237.429-.075.609l-3.978,2.3A1.171,1.171,0,0,1,267.944,170.326Z" transform="translate(-253.982 -146.021)" fill="#21587b"/>
          <path id="Trazado_81379" data-name="Trazado 81379" d="M273.969,168.189l-3.37-1.946c-.271-.157-.237-.429.075-.609l3.339-1.928a1.173,1.173,0,0,1,1.056-.043l3.37,1.945c.27.157.237.429-.076.609l-3.339,1.928A1.175,1.175,0,0,1,273.969,168.189Z" transform="translate(-252.809 -146.365)" fill="#21587b"/>
          <path id="Trazado_81380" data-name="Trazado 81380" d="M278.325,170.7l-3.37-1.946c-.271-.156-.237-.429.075-.609l3.339-1.928a1.173,1.173,0,0,1,1.056-.043l3.37,1.945c.27.157.237.429-.076.609l-3.339,1.928A1.175,1.175,0,0,1,278.325,170.7Z" transform="translate(-251.961 -145.875)" fill="#21587b"/>
          <path id="Trazado_81381" data-name="Trazado 81381" d="M282.681,173.219l-3.37-1.946c-.27-.157-.237-.429.076-.609l3.339-1.928a1.171,1.171,0,0,1,1.055-.043l3.37,1.945c.271.157.237.429-.075.611l-3.339,1.927A1.174,1.174,0,0,1,282.681,173.219Z" transform="translate(-251.112 -145.386)" fill="#21587b"/>
          <path id="Trazado_81382" data-name="Trazado 81382" d="M287.037,175.734l-3.37-1.946c-.27-.155-.237-.429.076-.609l3.339-1.928a1.171,1.171,0,0,1,1.055-.043l3.37,1.945c.271.157.237.43-.075.61l-3.339,1.927A1.173,1.173,0,0,1,287.037,175.734Z" transform="translate(-250.264 -144.896)" fill="#21587b"/>
          <path id="Trazado_81383" data-name="Trazado 81383" d="M291.393,178.249l-3.369-1.946c-.271-.155-.237-.429.075-.609l3.339-1.927a1.17,1.17,0,0,1,1.056-.044l3.37,1.945c.27.156.237.43-.076.61l-3.339,1.927A1.174,1.174,0,0,1,291.393,178.249Z" transform="translate(-249.416 -144.406)" fill="#21587b"/>
          <path id="Trazado_81384" data-name="Trazado 81384" d="M295.75,180.764l-3.37-1.946c-.271-.155-.237-.429.075-.609l3.339-1.927a1.173,1.173,0,0,1,1.056-.044l3.37,1.946c.27.155.237.429-.076.609L296.8,180.72A1.171,1.171,0,0,1,295.75,180.764Z" transform="translate(-248.568 -143.916)" fill="#21587b"/>
          <path id="Trazado_81385" data-name="Trazado 81385" d="M300.106,183.279l-3.37-1.946c-.27-.155-.237-.429.076-.609l3.338-1.927a1.174,1.174,0,0,1,1.056-.044l3.37,1.946c.27.155.237.429-.075.609l-3.339,1.928A1.173,1.173,0,0,1,300.106,183.279Z" transform="translate(-247.72 -143.427)" fill="#21587b"/>
          <path id="Trazado_81386" data-name="Trazado 81386" d="M304.462,185.794l-3.37-1.946c-.27-.155-.237-.429.076-.609l3.339-1.927a1.171,1.171,0,0,1,1.055-.044l3.37,1.946c.271.155.237.429-.075.609l-3.339,1.927A1.174,1.174,0,0,1,304.462,185.794Z" transform="translate(-246.871 -142.937)" fill="#21587b"/>
          <path id="Trazado_81387" data-name="Trazado 81387" d="M308.818,188.309l-3.37-1.945c-.27-.157-.237-.43.076-.609l3.339-1.928a1.171,1.171,0,0,1,1.055-.044l3.37,1.946c.271.157.237.429-.075.609l-3.339,1.928A1.173,1.173,0,0,1,308.818,188.309Z" transform="translate(-246.023 -142.447)" fill="#21587b"/>
          <path id="Trazado_81388" data-name="Trazado 81388" d="M313.175,190.824l-3.37-1.945c-.271-.156-.237-.429.075-.61l3.339-1.927a1.174,1.174,0,0,1,1.056-.044l3.37,1.946c.27.157.237.429-.077.609l-3.339,1.928A1.171,1.171,0,0,1,313.175,190.824Z" transform="translate(-245.175 -141.958)" fill="#21587b"/>
          <path id="Trazado_81389" data-name="Trazado 81389" d="M280.387,167l-3.37-1.946c-.27-.155-.237-.429.076-.609l3.339-1.928a1.174,1.174,0,0,1,1.055-.043l3.37,1.945c.271.157.237.43-.075.61l-3.339,1.927A1.173,1.173,0,0,1,280.387,167Z" transform="translate(-251.559 -146.597)" fill="#21587b"/>
          <path id="Trazado_81390" data-name="Trazado 81390" d="M275.966,164.445,272.6,162.5c-.27-.157-.236-.429.077-.609l3.339-1.928a1.171,1.171,0,0,1,1.055-.044l3.37,1.946c.27.157.237.429-.075.609l-3.339,1.928A1.173,1.173,0,0,1,275.966,164.445Z" transform="translate(-252.42 -147.094)" fill="#21587b"/>
          <path id="Trazado_81391" data-name="Trazado 81391" d="M272.171,162.255l-7.258-4.191c-.27-.156-.237-.429.076-.609l3.339-1.928a1.175,1.175,0,0,1,1.055-.044l7.259,4.191c.27.156.237.429-.076.609l-3.339,1.928A1.177,1.177,0,0,1,272.171,162.255Z" transform="translate(-253.916 -147.958)" fill="#21587b"/>
          <path id="Trazado_81392" data-name="Trazado 81392" d="M275.044,159.016l-5.89-3.4c-.271-.156-.237-.429.075-.609l3.339-1.928a1.174,1.174,0,0,1,1.056-.044l5.89,3.4c.27.155.237.429-.075.609l-3.339,1.928A1.173,1.173,0,0,1,275.044,159.016Z" transform="translate(-253.09 -148.434)" fill="#21587b"/>
          <path id="Trazado_81393" data-name="Trazado 81393" d="M284.743,169.513l-3.369-1.946c-.271-.155-.238-.429.075-.609l3.339-1.927a1.173,1.173,0,0,1,1.056-.044l3.369,1.945c.271.156.238.43-.075.61l-3.339,1.927A1.173,1.173,0,0,1,284.743,169.513Z" transform="translate(-250.711 -146.107)" fill="#21587b"/>
          <path id="Trazado_81394" data-name="Trazado 81394" d="M289.1,172.028l-3.37-1.946c-.271-.155-.237-.429.075-.609l3.339-1.927a1.174,1.174,0,0,1,1.056-.044l3.37,1.946c.27.155.237.429-.076.609l-3.339,1.927A1.171,1.171,0,0,1,289.1,172.028Z" transform="translate(-249.863 -145.617)" fill="#21587b"/>
          <path id="Trazado_81395" data-name="Trazado 81395" d="M293.456,174.543l-3.37-1.945c-.27-.157-.236-.43.075-.61l3.339-1.927a1.174,1.174,0,0,1,1.056-.044l3.37,1.946c.27.155.237.429-.076.609l-3.339,1.927A1.167,1.167,0,0,1,293.456,174.543Z" transform="translate(-249.014 -145.128)" fill="#21587b"/>
          <path id="Trazado_81396" data-name="Trazado 81396" d="M297.812,177.058l-3.37-1.945c-.27-.157-.237-.43.076-.61l3.339-1.927a1.171,1.171,0,0,1,1.055-.044l3.37,1.946c.271.157.237.429-.075.609l-3.339,1.928A1.173,1.173,0,0,1,297.812,177.058Z" transform="translate(-248.166 -144.638)" fill="#21587b"/>
          <path id="Trazado_81397" data-name="Trazado 81397" d="M302.168,179.573l-3.37-1.945c-.27-.156-.237-.429.076-.609l3.339-1.928a1.173,1.173,0,0,1,1.056-.044l3.369,1.946c.271.156.237.429-.075.609l-3.339,1.928A1.173,1.173,0,0,1,302.168,179.573Z" transform="translate(-247.318 -144.148)" fill="#21587b"/>
          <path id="Trazado_81398" data-name="Trazado 81398" d="M306.525,182.088l-3.37-1.945c-.271-.156-.237-.429.075-.609l3.339-1.928a1.174,1.174,0,0,1,1.056-.044l3.37,1.946c.27.157.237.429-.076.609l-3.339,1.928A1.171,1.171,0,0,1,306.525,182.088Z" transform="translate(-246.47 -143.659)" fill="#21587b"/>
          <path id="Trazado_81399" data-name="Trazado 81399" d="M310.881,184.6l-3.37-1.945c-.271-.156-.237-.429.075-.609l3.339-1.928a1.177,1.177,0,0,1,1.056-.044l3.37,1.946c.27.156.237.429-.076.609l-3.339,1.928A1.171,1.171,0,0,1,310.881,184.6Z" transform="translate(-245.622 -143.169)" fill="#21587b"/>
          <path id="Trazado_81400" data-name="Trazado 81400" d="M315.237,187.119l-3.37-1.946c-.27-.156-.237-.429.075-.609l3.34-1.928a1.175,1.175,0,0,1,1.055-.044l3.37,1.946c.271.156.237.429-.075.609l-3.339,1.928A1.177,1.177,0,0,1,315.237,187.119Z" transform="translate(-244.773 -142.679)" fill="#21587b"/>
          <path id="Trazado_81401" data-name="Trazado 81401" d="M319.593,189.634l-3.37-1.946c-.27-.156-.237-.429.076-.609l3.339-1.928a1.171,1.171,0,0,1,1.055-.043l3.37,1.945c.271.157.237.429-.075.609l-3.339,1.928A1.177,1.177,0,0,1,319.593,189.634Z" transform="translate(-243.925 -142.189)" fill="#21587b"/>
          <path id="Trazado_81402" data-name="Trazado 81402" d="M327.987,194.48l-7.354-4.246c-.271-.155-.237-.429.075-.609l3.339-1.928a1.173,1.173,0,0,1,1.056-.043l7.353,4.245c.27.156.236.429-.076.609l-3.339,1.928A1.171,1.171,0,0,1,327.987,194.48Z" transform="translate(-243.066 -141.694)" fill="#21587b"/>
          <path id="Trazado_81403" data-name="Trazado 81403" d="M336.281,189.475l-6.206-3.583c-.271-.156-.237-.429.075-.609l3.339-1.928a1.173,1.173,0,0,1,1.056-.043l6.207,3.583c.27.157.237.429-.076.609l-3.339,1.928A1.171,1.171,0,0,1,336.281,189.475Z" transform="translate(-241.228 -142.539)" fill="#21587b"/>
          <path id="Trazado_81404" data-name="Trazado 81404" d="M292.372,169.021,289,167.075c-.27-.155-.237-.429.077-.609l3.339-1.927a1.171,1.171,0,0,1,1.055-.044l3.37,1.946c.271.155.236.429-.075.609l-3.339,1.927A1.173,1.173,0,0,1,292.372,169.021Z" transform="translate(-249.225 -146.203)" fill="#21587b"/>
          <path id="Trazado_81405" data-name="Trazado 81405" d="M287.907,166.443l-3.369-1.945c-.271-.156-.237-.43.075-.609l3.339-1.928a1.173,1.173,0,0,1,1.056-.044l3.37,1.946c.27.156.237.429-.076.609l-3.339,1.928A1.173,1.173,0,0,1,287.907,166.443Z" transform="translate(-250.095 -146.705)" fill="#21587b"/>
          <path id="Trazado_81406" data-name="Trazado 81406" d="M283.443,163.866l-3.37-1.946c-.27-.157-.237-.429.076-.609l3.338-1.928a1.173,1.173,0,0,1,1.056-.043l3.37,1.945c.27.157.237.429-.075.609l-3.339,1.928A1.177,1.177,0,0,1,283.443,163.866Z" transform="translate(-250.964 -147.207)" fill="#21587b"/>
          <path id="Trazado_81407" data-name="Trazado 81407" d="M278.978,161.288l-3.37-1.946c-.27-.155-.237-.429.076-.609l3.339-1.927a1.173,1.173,0,0,1,1.056-.044l3.369,1.946c.271.155.237.429-.075.609l-3.339,1.927A1.174,1.174,0,0,1,278.978,161.288Z" transform="translate(-251.833 -147.709)" fill="#21587b"/>
          <path id="Trazado_81408" data-name="Trazado 81408" d="M296.728,171.536l-3.37-1.946c-.27-.155-.237-.429.076-.609l3.339-1.928a1.173,1.173,0,0,1,1.056-.043l3.369,1.946c.271.155.237.429-.075.609l-3.339,1.927A1.174,1.174,0,0,1,296.728,171.536Z" transform="translate(-248.377 -145.713)" fill="#21587b"/>
          <path id="Trazado_81409" data-name="Trazado 81409" d="M301.085,174.051l-3.37-1.945c-.271-.156-.237-.43.075-.61l3.339-1.927a1.173,1.173,0,0,1,1.056-.044l3.37,1.946c.27.155.237.429-.076.609l-3.339,1.927A1.171,1.171,0,0,1,301.085,174.051Z" transform="translate(-247.529 -145.223)" fill="#21587b"/>
          <path id="Trazado_81410" data-name="Trazado 81410" d="M305.441,176.566l-3.37-1.946c-.271-.155-.237-.429.075-.609l3.339-1.927a1.173,1.173,0,0,1,1.056-.044l3.37,1.946c.27.155.237.429-.076.609l-3.339,1.928A1.171,1.171,0,0,1,305.441,176.566Z" transform="translate(-246.681 -144.734)" fill="#21587b"/>
          <path id="Trazado_81411" data-name="Trazado 81411" d="M309.8,179.081l-3.37-1.945c-.27-.157-.237-.43.076-.611l3.339-1.927a1.171,1.171,0,0,1,1.055-.044l3.37,1.946c.27.155.237.429-.075.609l-3.339,1.928A1.173,1.173,0,0,1,309.8,179.081Z" transform="translate(-245.833 -144.244)" fill="#21587b"/>
          <path id="Trazado_81412" data-name="Trazado 81412" d="M314.153,181.6l-3.37-1.945c-.27-.156-.237-.429.076-.609l3.339-1.928a1.171,1.171,0,0,1,1.055-.044l3.37,1.946c.271.156.237.429-.075.609l-3.339,1.928A1.173,1.173,0,0,1,314.153,181.6Z" transform="translate(-244.985 -143.754)" fill="#21587b"/>
          <path id="Trazado_81413" data-name="Trazado 81413" d="M318.509,184.111l-3.369-1.945c-.271-.156-.237-.429.075-.609l3.339-1.928a1.174,1.174,0,0,1,1.056-.044l3.369,1.946c.271.157.238.429-.075.609l-3.339,1.928A1.173,1.173,0,0,1,318.509,184.111Z" transform="translate(-244.136 -143.265)" fill="#21587b"/>
          <path id="Trazado_81414" data-name="Trazado 81414" d="M322.866,186.626l-3.37-1.945c-.271-.157-.237-.429.075-.609l3.339-1.928a1.177,1.177,0,0,1,1.056-.044l3.37,1.946c.27.156.237.429-.076.609l-3.339,1.928A1.171,1.171,0,0,1,322.866,186.626Z" transform="translate(-243.288 -142.775)" fill="#21587b"/>
          <path id="Trazado_81415" data-name="Trazado 81415" d="M327.222,189.141l-3.37-1.945c-.27-.157-.237-.429.075-.609l3.339-1.928a1.177,1.177,0,0,1,1.056-.044l3.37,1.946c.27.156.237.429-.075.609l-3.34,1.928A1.171,1.171,0,0,1,327.222,189.141Z" transform="translate(-242.44 -142.285)" fill="#21587b"/>
          <path id="Trazado_81416" data-name="Trazado 81416" d="M331.578,191.656l-3.37-1.945c-.27-.156-.237-.429.076-.609l3.339-1.928a1.171,1.171,0,0,1,1.055-.043l3.37,1.945c.271.157.237.429-.075.609l-3.339,1.928A1.173,1.173,0,0,1,331.578,191.656Z" transform="translate(-241.592 -141.796)" fill="#21587b"/>
          <path id="Trazado_81417" data-name="Trazado 81417" d="M290.078,162.8l-3.37-1.945c-.27-.157-.237-.43.076-.611l3.339-1.927a1.171,1.171,0,0,1,1.055-.044l3.37,1.946c.271.155.237.429-.075.609l-3.339,1.927A1.173,1.173,0,0,1,290.078,162.8Z" transform="translate(-249.672 -147.414)" fill="#21587b"/>
          <path id="Trazado_81418" data-name="Trazado 81418" d="M285.744,160.3l-3.37-1.946c-.271-.156-.237-.429.075-.609l3.339-1.928a1.177,1.177,0,0,1,1.056-.044l3.37,1.946c.27.157.237.429-.076.609l-3.339,1.928A1.175,1.175,0,0,1,285.744,160.3Z" transform="translate(-250.516 -147.901)" fill="#21587b"/>
          <path id="Trazado_81419" data-name="Trazado 81419" d="M281.409,157.795l-3.37-1.946c-.27-.155-.237-.429.076-.609l3.339-1.928a1.171,1.171,0,0,1,1.055-.043l3.37,1.946c.271.155.237.429-.075.609l-3.339,1.927A1.173,1.173,0,0,1,281.409,157.795Z" transform="translate(-251.36 -148.389)" fill="#21587b"/>
          <path id="Trazado_81420" data-name="Trazado 81420" d="M277.075,155.292l-3.37-1.945c-.271-.157-.237-.429.075-.609l3.339-1.928a1.174,1.174,0,0,1,1.056-.044l3.37,1.946c.27.157.237.429-.076.609l-3.339,1.928A1.171,1.171,0,0,1,277.075,155.292Z" transform="translate(-252.204 -148.876)" fill="#21587b"/>
          <path id="Trazado_81421" data-name="Trazado 81421" d="M281.532,152.509l-3.37-1.946c-.27-.155-.237-.429.075-.609l1.1-.637a1.173,1.173,0,0,1,1.056-.044l3.37,1.946c.27.156.237.429-.076.609l-1.1.637A1.171,1.171,0,0,1,281.532,152.509Z" transform="translate(-251.336 -149.167)" fill="#21587b"/>
          <path id="Trazado_81422" data-name="Trazado 81422" d="M287.188,155.775l-3.369-1.946c-.271-.155-.237-.429.075-.609l1.1-.637a1.174,1.174,0,0,1,1.056-.044l3.369,1.946c.271.155.238.429-.075.609l-1.1.637A1.174,1.174,0,0,1,287.188,155.775Z" transform="translate(-250.235 -148.531)" fill="#21587b"/>
          <path id="Trazado_81423" data-name="Trazado 81423" d="M291.5,158.267l-3.37-1.946c-.27-.155-.236-.429.076-.609l1.1-.637a1.174,1.174,0,0,1,1.056-.044l3.37,1.946c.27.156.237.429-.075.609l-1.1.637A1.174,1.174,0,0,1,291.5,158.267Z" transform="translate(-249.394 -148.046)" fill="#21587b"/>
          <path id="Trazado_81424" data-name="Trazado 81424" d="M295.821,160.759l-3.369-1.945c-.271-.156-.238-.43.075-.61l1.1-.637a1.173,1.173,0,0,1,1.056-.044l3.369,1.946c.271.156.238.429-.075.609l-1.1.637A1.17,1.17,0,0,1,295.821,160.759Z" transform="translate(-248.554 -147.56)" fill="#21587b"/>
          <path id="Trazado_81425" data-name="Trazado 81425" d="M300.138,163.251l-3.37-1.945c-.27-.157-.237-.43.076-.609l1.1-.638a1.177,1.177,0,0,1,1.056-.044l3.37,1.946c.27.156.236.429-.076.609l-1.1.638A1.173,1.173,0,0,1,300.138,163.251Z" transform="translate(-247.713 -147.075)" fill="#21587b"/>
          <path id="Trazado_81426" data-name="Trazado 81426" d="M324.236,177.164l-3.37-1.945c-.27-.157-.237-.429.076-.609l1.1-.638a1.175,1.175,0,0,1,1.055-.044l3.37,1.946c.271.157.237.429-.075.609l-1.1.638A1.173,1.173,0,0,1,324.236,177.164Z" transform="translate(-243.021 -144.366)" fill="#21587b"/>
          <path id="Trazado_81427" data-name="Trazado 81427" d="M328.553,179.656l-3.37-1.945c-.271-.157-.237-.429.075-.609l1.1-.638a1.173,1.173,0,0,1,1.056-.043l3.37,1.945c.27.156.237.43-.076.609l-1.1.638A1.171,1.171,0,0,1,328.553,179.656Z" transform="translate(-242.181 -143.881)" fill="#21587b"/>
          <path id="Trazado_81428" data-name="Trazado 81428" d="M332.869,182.149,329.5,180.2c-.27-.157-.236-.429.076-.609l1.1-.638a1.171,1.171,0,0,1,1.055-.043l3.37,1.945c.271.157.236.43-.075.61l-1.1.637A1.177,1.177,0,0,1,332.869,182.149Z" transform="translate(-241.34 -143.396)" fill="#21587b"/>
          <path id="Trazado_81429" data-name="Trazado 81429" d="M337.186,184.641l-3.37-1.946c-.271-.157-.237-.429.075-.609l1.1-.637a1.173,1.173,0,0,1,1.056-.044l3.37,1.946c.27.155.237.429-.076.609l-1.1.637A1.175,1.175,0,0,1,337.186,184.641Z" transform="translate(-240.5 -142.91)" fill="#21587b"/>
          <path id="Trazado_81430" data-name="Trazado 81430" d="M294.434,165.315l-3.369-1.946c-.271-.155-.237-.429.075-.609l3.339-1.927a1.174,1.174,0,0,1,1.056-.044l3.37,1.946c.27.155.237.429-.076.609l-3.339,1.928A1.173,1.173,0,0,1,294.434,165.315Z" transform="translate(-248.824 -146.924)" fill="#21587b"/>
          <path id="Trazado_81431" data-name="Trazado 81431" d="M298.791,167.83l-3.37-1.945c-.271-.157-.236-.43.075-.61l3.339-1.927a1.173,1.173,0,0,1,1.056-.044l3.37,1.946c.27.157.237.429-.076.609l-3.339,1.928A1.171,1.171,0,0,1,298.791,167.83Z" transform="translate(-247.976 -146.435)" fill="#21587b"/>
          <path id="Trazado_81432" data-name="Trazado 81432" d="M303.147,170.345l-3.37-1.945c-.27-.157-.237-.43.076-.609l3.339-1.928a1.171,1.171,0,0,1,1.055-.044l3.37,1.946c.27.157.237.429-.075.609L304.2,170.3A1.173,1.173,0,0,1,303.147,170.345Z" transform="translate(-247.127 -145.945)" fill="#21587b"/>
          <path id="Trazado_81433" data-name="Trazado 81433" d="M307.5,172.86l-3.37-1.945c-.27-.157-.237-.429.076-.609l3.339-1.928a1.175,1.175,0,0,1,1.055-.044l3.37,1.946c.271.157.237.429-.075.609l-3.339,1.928A1.173,1.173,0,0,1,307.5,172.86Z" transform="translate(-246.279 -145.455)" fill="#21587b"/>
          <path id="Trazado_81434" data-name="Trazado 81434" d="M311.859,175.375l-3.369-1.945c-.271-.157-.238-.429.075-.609l3.339-1.928a1.177,1.177,0,0,1,1.056-.044l3.369,1.946c.271.156.238.429-.075.609l-3.339,1.928A1.173,1.173,0,0,1,311.859,175.375Z" transform="translate(-245.431 -144.966)" fill="#21587b"/>
          <path id="Trazado_81435" data-name="Trazado 81435" d="M316.216,177.89l-3.37-1.945c-.271-.156-.237-.429.075-.609l3.339-1.928a1.177,1.177,0,0,1,1.056-.044l3.37,1.946c.27.156.237.429-.076.609l-3.339,1.928A1.171,1.171,0,0,1,316.216,177.89Z" transform="translate(-244.583 -144.476)" fill="#21587b"/>
          <path id="Trazado_81436" data-name="Trazado 81436" d="M320.572,180.406l-3.37-1.946c-.27-.157-.237-.429.075-.609l3.339-1.928a1.177,1.177,0,0,1,1.056-.044l3.37,1.946c.27.156.237.429-.076.609l-3.339,1.928A1.175,1.175,0,0,1,320.572,180.406Z" transform="translate(-243.735 -143.986)" fill="#21587b"/>
          <path id="Trazado_81437" data-name="Trazado 81437" d="M324.928,182.921l-3.37-1.946c-.27-.157-.237-.429.076-.609l3.339-1.928a1.175,1.175,0,0,1,1.055-.044l3.37,1.946c.271.156.237.429-.075.609l-3.339,1.928A1.177,1.177,0,0,1,324.928,182.921Z" transform="translate(-242.886 -143.497)" fill="#21587b"/>
          <path id="Trazado_81438" data-name="Trazado 81438" d="M329.284,185.436l-3.37-1.946c-.27-.156-.237-.429.076-.609l3.339-1.928a1.173,1.173,0,0,1,1.056-.043l3.369,1.945c.271.157.237.429-.075.609l-3.339,1.928A1.177,1.177,0,0,1,329.284,185.436Z" transform="translate(-242.038 -143.007)" fill="#21587b"/>
          <path id="Trazado_81439" data-name="Trazado 81439" d="M270.6,166.243l-9.924-5.731c-.271-.155-.238-.429.075-.609l3.339-1.928a1.173,1.173,0,0,1,1.056-.043l9.924,5.73c.271.157.237.429-.075.609l-3.339,1.928A1.177,1.177,0,0,1,270.6,166.243Z" transform="translate(-254.742 -147.481)" fill="#21587b"/>
          <path id="Trazado_81440" data-name="Trazado 81440" d="M324.115,197.141l-9.926-5.731c-.271-.155-.237-.429.075-.609l3.339-1.927a1.173,1.173,0,0,1,1.056-.044l9.926,5.73c.27.156.236.43-.076.611L325.17,197.1A1.171,1.171,0,0,1,324.115,197.141Z" transform="translate(-244.321 -141.465)" fill="#21587b"/>
          <path id="Trazado_81441" data-name="Trazado 81441" d="M305.625,192.081l-3.369-1.945c-.271-.156-.238-.43.075-.61l3.978-2.3a1.171,1.171,0,0,1,1.055-.043l3.37,1.945c.27.156.237.429-.075.609l-3.978,2.3A1.173,1.173,0,0,1,305.625,192.081Z" transform="translate(-246.645 -141.785)" fill="#21587b"/>
          <path id="Trazado_81442" data-name="Trazado 81442" d="M274.319,174.007l-5.389-3.112c-.27-.156-.237-.429.075-.609l3.978-2.3a1.173,1.173,0,0,1,1.056-.044l5.389,3.112c.27.155.237.429-.075.609l-3.978,2.3A1.174,1.174,0,0,1,274.319,174.007Z" transform="translate(-253.134 -145.531)" fill="#21587b"/>
          <path id="Trazado_81443" data-name="Trazado 81443" d="M301.757,189.848l-5.389-3.112c-.271-.155-.236-.429.075-.609l3.978-2.3a1.175,1.175,0,0,1,1.055-.044l5.391,3.112c.27.157.237.429-.076.609l-3.977,2.3A1.174,1.174,0,0,1,301.757,189.848Z" transform="translate(-247.791 -142.446)" fill="#21587b"/>
          <path id="Trazado_81444" data-name="Trazado 81444" d="M280.6,177.636l-5.389-3.112c-.27-.157-.237-.429.076-.609l3.977-2.3a1.173,1.173,0,0,1,1.056-.043l5.389,3.111c.271.157.237.429-.075.609l-3.978,2.3A1.177,1.177,0,0,1,280.6,177.636Z" transform="translate(-251.91 -144.824)" fill="#21587b"/>
          <path id="Trazado_81445" data-name="Trazado 81445" d="M280.325,171.574l23.433,13.53a.32.32,0,0,1,0,.607l-4.056,2.343a1.167,1.167,0,0,1-1.053,0l-23.433-13.529Z" transform="translate(-251.874 -144.804)" fill="#21587b"/>
          <path id="Trazado_81446" data-name="Trazado 81446" d="M317.662,195.84l3.754,2.168c.222.128.195.351-.062.5l-1.627.939a.961.961,0,0,1-.865.036l-3.754-2.167c-.222-.128-.194-.351.062-.5l1.627-.94A.964.964,0,0,1,317.662,195.84Z" transform="translate(-244.136 -140.096)" fill="#21587b"/>
          <path id="Trazado_81447" data-name="Trazado 81447" d="M313.27,193.3l3.754,2.168c.222.128.193.351-.062.5l-1.627.939a.961.961,0,0,1-.865.036l-3.754-2.167c-.222-.128-.195-.351.062-.5l1.627-.94A.965.965,0,0,1,313.27,193.3Z" transform="translate(-244.991 -140.59)" fill="#21587b"/>
          <path id="Trazado_81448" data-name="Trazado 81448" d="M308.914,190.789l3.754,2.168c.222.128.194.351-.062.5l-1.627.939a.961.961,0,0,1-.865.036l-3.755-2.167c-.221-.128-.194-.352.062-.5l1.627-.94A.967.967,0,0,1,308.914,190.789Z" transform="translate(-245.839 -141.079)" fill="#21587b"/>
          <path id="Trazado_81449" data-name="Trazado 81449" d="M315.676,191.916l3.754,2.167c.221.128.193.351-.062.5l-1.627.939a.963.963,0,0,1-.866.036l-3.754-2.167c-.221-.128-.194-.351.062-.5l1.627-.939A.959.959,0,0,1,315.676,191.916Z" transform="translate(-244.523 -140.86)" fill="#21587b"/>
        </g>
        <path id="Trazado_81450" data-name="Trazado 81450" d="M284.736,205.02a4.855,4.855,0,0,1-2.389-.559l-26.156-15.1a1.83,1.83,0,0,1-1.044-1.557,2.414,2.414,0,0,1,1.412-1.947l13.463-7.774a5.961,5.961,0,0,1,5.438-.213l26.157,15.1a1.83,1.83,0,0,1,1.044,1.558,2.414,2.414,0,0,1-1.412,1.946l-13.464,7.774A6.23,6.23,0,0,1,284.736,205.02Zm-2.073-1.107a5.35,5.35,0,0,0,4.805-.213l13.463-7.774a1.827,1.827,0,0,0,1.1-1.4,1.248,1.248,0,0,0-.728-1.01l-26.157-15.1a5.349,5.349,0,0,0-4.8.213L256.876,186.4a1.83,1.83,0,0,0-1.1,1.4,1.247,1.247,0,0,0,.729,1.008Z" transform="translate(-207.158 -49.638)" fill="#21587b" opacity="0.5"/>
      </g>
      <g id="Grupo_33091" data-name="Grupo 33091" transform="translate(84.013 22.441)">
        <g id="Grupo_33088" data-name="Grupo 33088" transform="translate(7.766)">
          <g id="Grupo_33087" data-name="Grupo 33087" transform="translate(3.183 2.371)">
            <path id="Trazado_81451" data-name="Trazado 81451" d="M306.967,95.562,304,93.849a.777.777,0,0,1-.33-.854h0a.44.44,0,0,1,.668-.278l2.969,1.714a.775.775,0,0,1,.331.854h0A.44.44,0,0,1,306.967,95.562Z" transform="translate(-292.677 -90.935)" fill="#fff"/>
            <path id="Trazado_81452" data-name="Trazado 81452" d="M313.117,99.113l-4.379-2.527a.777.777,0,0,1-.33-.854h0a.44.44,0,0,1,.668-.278l4.379,2.528a.775.775,0,0,1,.33.854h0A.439.439,0,0,1,313.117,99.113Z" transform="translate(-291.754 -90.402)" fill="#fff"/>
            <path id="Trazado_81453" data-name="Trazado 81453" d="M301.955,106.627l-2.97-1.714a.774.774,0,0,1-.33-.853h0a.44.44,0,0,1,.668-.278l2.969,1.714a.774.774,0,0,1,.33.854h0A.439.439,0,0,1,301.955,106.627Z" transform="translate(-293.653 -88.781)" fill="#fff"/>
            <path id="Trazado_81454" data-name="Trazado 81454" d="M307.462,109.807l-4.379-2.528a.774.774,0,0,1-.33-.853h0a.44.44,0,0,1,.668-.278l4.377,2.528a.774.774,0,0,1,.331.854h0A.44.44,0,0,1,307.462,109.807Z" transform="translate(-292.855 -88.32)" fill="#fff"/>
            <path id="Trazado_81455" data-name="Trazado 81455" d="M299.341,93.485l-1.855-1.07a.776.776,0,0,1-.33-.854h0a.44.44,0,0,1,.668-.277l1.854,1.07a.774.774,0,0,1,.331.854h0A.44.44,0,0,1,299.341,93.485Z" transform="translate(-293.945 -91.214)" fill="#fff"/>
            <path id="Trazado_81456" data-name="Trazado 81456" d="M304.634,98.868,298.966,95.6a.773.773,0,0,1-.33-.853h0a.439.439,0,0,1,.667-.278l5.668,3.272a.774.774,0,0,1,.33.854h0A.439.439,0,0,1,304.634,98.868Z" transform="translate(-293.657 -90.595)" fill="#fff"/>
            <path id="Trazado_81457" data-name="Trazado 81457" d="M299.636,100.636l-1.854-1.07a.774.774,0,0,1-.33-.854h0a.44.44,0,0,1,.667-.278l1.855,1.072a.774.774,0,0,1,.33.854h0A.44.44,0,0,1,299.636,100.636Z" transform="translate(-293.887 -89.822)" fill="#fff"/>
            <path id="Trazado_81458" data-name="Trazado 81458" d="M308.128,114.845l-4.954-2.861a.775.775,0,0,1-.33-.853h0a.44.44,0,0,1,.668-.278l4.954,2.86a.775.775,0,0,1,.33.854h0A.44.44,0,0,1,308.128,114.845Z" transform="translate(-292.837 -87.404)" fill="#fff"/>
            <path id="Trazado_81459" data-name="Trazado 81459" d="M297.788,104.222l-1.19-.687a.775.775,0,0,1-.331-.854h0a.44.44,0,0,1,.668-.277l1.191.687a.775.775,0,0,1,.33.854h0A.44.44,0,0,1,297.788,104.222Z" transform="translate(-294.118 -89.049)" fill="#fff"/>
            <path id="Trazado_81460" data-name="Trazado 81460" d="M296.892,108.358l-1.478-.854a.773.773,0,0,1-.331-.853h0a.44.44,0,0,1,.668-.278l1.479.854a.774.774,0,0,1,.33.853h0A.44.44,0,0,1,296.892,108.358Z" transform="translate(-294.348 -88.276)" fill="#fff"/>
            <path id="Trazado_81461" data-name="Trazado 81461" d="M302.1,111.366l-3.9-2.251a.774.774,0,0,1-.33-.854h0a.439.439,0,0,1,.667-.277l3.9,2.25a.776.776,0,0,1,.331.854h0A.44.44,0,0,1,302.1,111.366Z" transform="translate(-293.805 -87.963)" fill="#fff"/>
            <path id="Trazado_81462" data-name="Trazado 81462" d="M297.625,111.107l-2.8-1.619a.775.775,0,0,1-.33-.854h0a.44.44,0,0,1,.668-.277l2.8,1.618a.774.774,0,0,1,.33.854h0A.439.439,0,0,1,297.625,111.107Z" transform="translate(-294.464 -87.89)" fill="#fff"/>
            <path id="Trazado_81463" data-name="Trazado 81463" d="M311.172,116.612l-1.8-1.039a.774.774,0,0,1-.33-.854h0a.439.439,0,0,1,.668-.277l1.8,1.038a.774.774,0,0,1,.331.854h0A.44.44,0,0,1,311.172,116.612Z" transform="translate(-291.631 -86.705)" fill="#fff"/>
            <path id="Trazado_81464" data-name="Trazado 81464" d="M305.918,104.262l-4.954-2.86a.773.773,0,0,1-.33-.853h0a.439.439,0,0,1,.667-.278l4.954,2.86a.774.774,0,0,1,.33.854h0A.438.438,0,0,1,305.918,104.262Z" transform="translate(-293.268 -89.464)" fill="#fff"/>
          </g>
          <path id="Trazado_81465" data-name="Trazado 81465" d="M307.008,102.566l-8.634-4.986a.774.774,0,0,1-.33-.854h0a.439.439,0,0,1,.667-.277l8.635,4.986a.774.774,0,0,1,.33.853h0A.44.44,0,0,1,307.008,102.566Z" transform="translate(-290.589 -87.837)" fill="#fff"/>
          <path id="Trazado_81466" data-name="Trazado 81466" d="M302.145,104.411l-4.954-2.861a.773.773,0,0,1-.331-.853h0a.44.44,0,0,1,.668-.278l4.954,2.86a.774.774,0,0,1,.33.854h0A.439.439,0,0,1,302.145,104.411Z" transform="translate(-290.82 -87.064)" fill="#fff"/>
          <path id="Trazado_81467" data-name="Trazado 81467" d="M308.549,105.781l-1.8-1.039a.774.774,0,0,1-.33-.853h0a.44.44,0,0,1,.668-.278l1.8,1.039a.774.774,0,0,1,.331.854h0A.44.44,0,0,1,308.549,105.781Z" transform="translate(-288.959 -86.442)" fill="#fff"/>
          <path id="Trazado_81468" data-name="Trazado 81468" d="M321,103.647,314.658,100a.774.774,0,0,1-.33-.853h0a.44.44,0,0,1,.668-.278l6.343,3.644a.774.774,0,0,1,.331.853h0A.44.44,0,0,1,321,103.647Z" transform="translate(-287.418 -87.365)" fill="#fff"/>
          <path id="Trazado_81469" data-name="Trazado 81469" d="M301.961,108.958l-5.954-3.438a.775.775,0,0,1-.331-.854h0a.44.44,0,0,1,.668-.278l5.956,3.438a.774.774,0,0,1,.33.854h0A.44.44,0,0,1,301.961,108.958Z" transform="translate(-291.05 -86.291)" fill="#fff"/>
          <path id="Trazado_81470" data-name="Trazado 81470" d="M302.456,92.958l-4.379-2.528a.775.775,0,0,1-.33-.853h0a.44.44,0,0,1,.668-.278l4.379,2.528a.776.776,0,0,1,.33.854h0A.44.44,0,0,1,302.456,92.958Z" transform="translate(-290.647 -89.229)" fill="#fff"/>
          <path id="Trazado_81471" data-name="Trazado 81471" d="M297.228,113.2l-5.07-2.928a.774.774,0,0,1-.33-.854h0a.439.439,0,0,1,.667-.277l5.072,2.927a.775.775,0,0,1,.33.854h0A.44.44,0,0,1,297.228,113.2Z" transform="translate(-291.8 -85.365)" fill="#fff"/>
        </g>
        <g id="Grupo_33090" data-name="Grupo 33090" transform="translate(0 26.27)">
          <g id="Grupo_33089" data-name="Grupo 33089" transform="translate(3.183 2.371)">
            <path id="Trazado_81472" data-name="Trazado 81472" d="M300.467,117.551l-2.969-1.714a.772.772,0,0,1-.33-.854h0a.439.439,0,0,1,.667-.277l2.97,1.713a.777.777,0,0,1,.33.854h0A.44.44,0,0,1,300.467,117.551Z" transform="translate(-286.178 -112.923)" fill="#fff"/>
            <path id="Trazado_81473" data-name="Trazado 81473" d="M306.617,121.1l-4.377-2.528a.774.774,0,0,1-.331-.854h0a.44.44,0,0,1,.668-.277l4.379,2.527a.777.777,0,0,1,.33.854h0A.44.44,0,0,1,306.617,121.1Z" transform="translate(-285.254 -112.39)" fill="#fff"/>
            <path id="Trazado_81474" data-name="Trazado 81474" d="M295.455,128.616l-2.969-1.714a.774.774,0,0,1-.331-.854h0a.44.44,0,0,1,.668-.277l2.969,1.714a.773.773,0,0,1,.331.853h0A.44.44,0,0,1,295.455,128.616Z" transform="translate(-287.153 -110.768)" fill="#fff"/>
            <path id="Trazado_81475" data-name="Trazado 81475" d="M300.962,131.8l-4.379-2.528a.776.776,0,0,1-.33-.854h0a.44.44,0,0,1,.668-.277l4.379,2.527a.777.777,0,0,1,.33.854h0A.44.44,0,0,1,300.962,131.8Z" transform="translate(-286.356 -110.308)" fill="#fff"/>
            <path id="Trazado_81476" data-name="Trazado 81476" d="M292.841,115.474l-1.854-1.072a.773.773,0,0,1-.331-.853h0a.44.44,0,0,1,.668-.278l1.855,1.072a.775.775,0,0,1,.33.853h0A.44.44,0,0,1,292.841,115.474Z" transform="translate(-287.445 -113.202)" fill="#fff"/>
            <path id="Trazado_81477" data-name="Trazado 81477" d="M298.134,120.857l-5.668-3.272a.775.775,0,0,1-.33-.854h0a.439.439,0,0,1,.668-.277l5.666,3.271a.775.775,0,0,1,.331.854h0A.44.44,0,0,1,298.134,120.857Z" transform="translate(-287.157 -112.583)" fill="#fff"/>
            <path id="Trazado_81478" data-name="Trazado 81478" d="M293.138,122.625l-1.855-1.072a.774.774,0,0,1-.33-.854h0a.44.44,0,0,1,.668-.277l1.854,1.07a.774.774,0,0,1,.33.854h0A.439.439,0,0,1,293.138,122.625Z" transform="translate(-287.388 -111.81)" fill="#fff"/>
            <path id="Trazado_81479" data-name="Trazado 81479" d="M301.628,136.833l-4.953-2.86a.774.774,0,0,1-.331-.854h0a.44.44,0,0,1,.668-.277l4.954,2.86a.775.775,0,0,1,.33.853h0A.44.44,0,0,1,301.628,136.833Z" transform="translate(-286.338 -109.392)" fill="#fff"/>
            <path id="Trazado_81480" data-name="Trazado 81480" d="M291.288,126.211l-1.19-.688a.773.773,0,0,1-.33-.853h0a.439.439,0,0,1,.667-.278l1.191.688a.773.773,0,0,1,.33.853h0A.44.44,0,0,1,291.288,126.211Z" transform="translate(-287.618 -111.037)" fill="#fff"/>
            <path id="Trazado_81481" data-name="Trazado 81481" d="M290.392,130.346l-1.478-.853a.774.774,0,0,1-.33-.854h0a.439.439,0,0,1,.667-.278l1.479.854a.774.774,0,0,1,.33.854h0A.44.44,0,0,1,290.392,130.346Z" transform="translate(-287.849 -110.264)" fill="#fff"/>
            <path id="Trazado_81482" data-name="Trazado 81482" d="M295.6,133.353l-3.9-2.251a.775.775,0,0,1-.33-.853h0a.44.44,0,0,1,.668-.278l3.9,2.251a.775.775,0,0,1,.33.853h0A.44.44,0,0,1,295.6,133.353Z" transform="translate(-287.306 -109.95)" fill="#fff"/>
            <path id="Trazado_81483" data-name="Trazado 81483" d="M291.125,133.1l-2.8-1.619a.771.771,0,0,1-.33-.853h0a.439.439,0,0,1,.667-.278l2.8,1.619a.774.774,0,0,1,.331.853h0A.44.44,0,0,1,291.125,133.1Z" transform="translate(-287.964 -109.878)" fill="#fff"/>
            <path id="Trazado_81484" data-name="Trazado 81484" d="M304.672,138.6l-1.8-1.039a.776.776,0,0,1-.33-.854h0a.44.44,0,0,1,.668-.277l1.8,1.039a.774.774,0,0,1,.33.853h0A.44.44,0,0,1,304.672,138.6Z" transform="translate(-285.131 -108.693)" fill="#fff"/>
            <path id="Trazado_81485" data-name="Trazado 81485" d="M299.418,126.251l-4.954-2.86a.776.776,0,0,1-.33-.854h0a.439.439,0,0,1,.668-.277l4.953,2.86a.773.773,0,0,1,.331.853h0A.44.44,0,0,1,299.418,126.251Z" transform="translate(-286.768 -111.452)" fill="#fff"/>
          </g>
          <path id="Trazado_81486" data-name="Trazado 81486" d="M300.508,124.554l-8.634-4.986a.773.773,0,0,1-.33-.853h0a.44.44,0,0,1,.668-.278l8.634,4.986a.774.774,0,0,1,.33.854h0A.44.44,0,0,1,300.508,124.554Z" transform="translate(-284.089 -109.825)" fill="#fff"/>
          <path id="Trazado_81487" data-name="Trazado 81487" d="M295.645,126.4l-4.954-2.86a.774.774,0,0,1-.33-.854h0a.44.44,0,0,1,.668-.278l4.953,2.861a.774.774,0,0,1,.331.853h0A.44.44,0,0,1,295.645,126.4Z" transform="translate(-284.32 -109.053)" fill="#fff"/>
          <path id="Trazado_81488" data-name="Trazado 81488" d="M302.049,127.77l-1.8-1.039a.776.776,0,0,1-.33-.854h0a.439.439,0,0,1,.668-.277l1.8,1.038a.777.777,0,0,1,.33.854h0A.44.44,0,0,1,302.049,127.77Z" transform="translate(-282.458 -108.431)" fill="#fff"/>
          <path id="Trazado_81489" data-name="Trazado 81489" d="M295.462,130.946l-5.956-3.438a.774.774,0,0,1-.33-.854h0a.439.439,0,0,1,.667-.277l5.956,3.438a.773.773,0,0,1,.33.853h0A.439.439,0,0,1,295.462,130.946Z" transform="translate(-284.55 -108.28)" fill="#fff"/>
          <path id="Trazado_81490" data-name="Trazado 81490" d="M295.956,114.947l-4.377-2.528a.775.775,0,0,1-.331-.854h0a.44.44,0,0,1,.668-.277l4.379,2.527a.777.777,0,0,1,.33.854h0A.44.44,0,0,1,295.956,114.947Z" transform="translate(-284.147 -111.218)" fill="#fff"/>
          <path id="Trazado_81491" data-name="Trazado 81491" d="M290.728,135.193l-5.07-2.928a.773.773,0,0,1-.33-.853h0a.44.44,0,0,1,.668-.278l5.07,2.928a.773.773,0,0,1,.33.853h0A.44.44,0,0,1,290.728,135.193Z" transform="translate(-285.3 -107.353)" fill="#fff"/>
        </g>
      </g>
      <g id="Grupo_33093" data-name="Grupo 33093" transform="translate(118.164 41.982)">
        <path id="Trazado_81492" data-name="Trazado 81492" d="M366.016,186.445a3.7,3.7,0,0,1-1.854-.524l-47.634-27.5a5.724,5.724,0,0,1-2.426-6.346l13.384-43.857a3.615,3.615,0,0,1,2.088-2.411,3.443,3.443,0,0,1,3.021.3l47.636,27.5a5.724,5.724,0,0,1,2.426,6.344l-13.384,43.857a3.617,3.617,0,0,1-2.088,2.412A3.174,3.174,0,0,1,366.016,186.445Zm-1.637-.9a3.017,3.017,0,0,0,2.645.274,3.19,3.19,0,0,0,1.833-2.133l13.384-43.857a5.273,5.273,0,0,0-2.228-5.843l-47.635-27.5a3.017,3.017,0,0,0-2.645-.276,3.193,3.193,0,0,0-1.831,2.134L314.517,152.2a5.271,5.271,0,0,0,2.228,5.844Z" transform="translate(-313.885 -105.585)" fill="#fff"/>
        <g id="Grupo_33092" data-name="Grupo 33092" transform="translate(5.302 6.878)">
          <path id="Trazado_81493" data-name="Trazado 81493" d="M371.017,147.66a2.614,2.614,0,0,1-1.311-.37l-41.668-24.057a4.012,4.012,0,0,1-1.7-4.446l1.7-5.584a2.551,2.551,0,0,1,1.475-1.7,2.424,2.424,0,0,1,2.138.213l41.668,24.058a4.012,4.012,0,0,1,1.7,4.444l-1.7,5.585a2.553,2.553,0,0,1-1.477,1.7A2.243,2.243,0,0,1,371.017,147.66Zm-40.672-35.881a1.836,1.836,0,0,0-.669.125,2.134,2.134,0,0,0-1.219,1.425l-1.7,5.584a3.557,3.557,0,0,0,1.5,3.943l41.669,24.057a2.013,2.013,0,0,0,1.76.185,2.129,2.129,0,0,0,1.222-1.424l1.7-5.585a3.557,3.557,0,0,0-1.5-3.943L331.44,112.09A2.206,2.206,0,0,0,330.346,111.779Z" transform="translate(-316.792 -111.343)" fill="#fff"/>
          <path id="Trazado_81494" data-name="Trazado 81494" d="M360.393,156.559l-7.811-4.51a3.777,3.777,0,0,1-1.6-4.193l1.7-5.585a2.178,2.178,0,0,1,3.3-1.364l7.811,4.51a3.777,3.777,0,0,1,1.6,4.193l-1.7,5.585A2.179,2.179,0,0,1,360.393,156.559Z" transform="translate(-311.992 -105.652)" fill="#fff"/>
          <path id="Trazado_81495" data-name="Trazado 81495" d="M357.759,169.833a2.616,2.616,0,0,1-1.309-.372l-7.811-4.509a4.009,4.009,0,0,1-1.7-4.444l1.7-5.585a2.552,2.552,0,0,1,1.477-1.7,2.429,2.429,0,0,1,2.139.213l7.811,4.51a4.012,4.012,0,0,1,1.7,4.444l-1.7,5.585a2.558,2.558,0,0,1-1.477,1.7A2.245,2.245,0,0,1,357.759,169.833ZM350.946,153.5a1.832,1.832,0,0,0-.669.125,2.134,2.134,0,0,0-1.22,1.424l-1.7,5.585a3.556,3.556,0,0,0,1.5,3.943l7.811,4.51a2.009,2.009,0,0,0,1.761.185,2.129,2.129,0,0,0,1.221-1.425l1.7-5.584a3.556,3.556,0,0,0-1.5-3.943l-7.811-4.511A2.213,2.213,0,0,0,350.946,153.5Z" transform="translate(-312.781 -103.219)" fill="#fff"/>
          <path id="Trazado_81496" data-name="Trazado 81496" d="M345.067,165.534a2.607,2.607,0,0,1-1.309-.37l-23.582-13.616a4.009,4.009,0,0,1-1.7-4.443l6.477-21.223a2.559,2.559,0,0,1,1.477-1.7,2.433,2.433,0,0,1,2.137.214l23.582,13.615a4.01,4.01,0,0,1,1.7,4.444l-6.478,21.222a2.554,2.554,0,0,1-1.475,1.7A2.25,2.25,0,0,1,345.067,165.534Zm-1.093-.747a2.012,2.012,0,0,0,1.761.185,2.132,2.132,0,0,0,1.221-1.425l6.478-21.22a3.558,3.558,0,0,0-1.5-3.943l-23.582-13.616a2.017,2.017,0,0,0-1.761-.185,2.131,2.131,0,0,0-1.222,1.425l-6.475,21.222a3.556,3.556,0,0,0,1.5,3.943Z" transform="translate(-318.323 -108.874)" fill="#fff"/>
        </g>
      </g>
      <path id="Trazado_81497" data-name="Trazado 81497" d="M368.288,121.909a1.567,1.567,0,0,1-.774-.211,1.669,1.669,0,0,1-.765-2.043,1.236,1.236,0,0,1,.754-.687,1.474,1.474,0,0,1,1.2.145,1.674,1.674,0,0,1,.766,2.043h0a1.241,1.241,0,0,1-.755.687A1.331,1.331,0,0,1,368.288,121.909Zm-.363-2.573a.909.909,0,0,0-.286.044.805.805,0,0,0-.492.45,1.226,1.226,0,0,0,.582,1.49,1.059,1.059,0,0,0,.844.111.809.809,0,0,0,.492-.45h0a1.23,1.23,0,0,0-.584-1.491A1.134,1.134,0,0,0,367.924,119.336Z" transform="translate(-185.45 -61.011)" fill="#fff"/>
      <path id="Trazado_81498" data-name="Trazado 81498" d="M371.167,123.554a1.566,1.566,0,0,1-.774-.21,1.67,1.67,0,0,1-.765-2.043,1.235,1.235,0,0,1,.754-.688,1.47,1.47,0,0,1,1.2.146,1.672,1.672,0,0,1,.765,2.043h0a1.239,1.239,0,0,1-.754.687A1.331,1.331,0,0,1,371.167,123.554Zm-.363-2.573a.945.945,0,0,0-.286.044.809.809,0,0,0-.492.45,1.225,1.225,0,0,0,.582,1.49,1.059,1.059,0,0,0,.844.111.805.805,0,0,0,.492-.45h0a1.227,1.227,0,0,0-.583-1.49A1.123,1.123,0,0,0,370.8,120.981Z" transform="translate(-184.89 -60.691)" fill="#fff"/>
      <path id="Trazado_81499" data-name="Trazado 81499" d="M374.987,124.323a1.122,1.122,0,0,1-1.643.442,1.449,1.449,0,0,1-.675-1.767,1.123,1.123,0,0,1,1.644-.441A1.447,1.447,0,0,1,374.987,124.323Z" transform="translate(-184.294 -60.335)" fill="#fff"/>
      <g id="Grupo_33094" data-name="Grupo 33094" transform="translate(128.221 77.896)">
        <path id="Trazado_81500" data-name="Trazado 81500" d="M328.163,137.146l-2.6-1.5L322.3,146.319l2.6,1.5Z" transform="translate(-322.303 -135.646)" fill="#fff"/>
        <path id="Trazado_81501" data-name="Trazado 81501" d="M332.234,141.743l-2.6-1.5-2.579,8.45,2.6,1.5Z" transform="translate(-321.378 -134.751)" fill="#fff"/>
        <path id="Trazado_81502" data-name="Trazado 81502" d="M338.706,139.751l-2.6-1.5-4.3,14.1,2.6,1.5Z" transform="translate(-320.453 -135.139)" fill="#fff"/>
        <path id="Trazado_81503" data-name="Trazado 81503" d="M345.153,137.832l-2.6-1.5-6,19.662,2.6,1.5Z" transform="translate(-319.529 -135.513)" fill="#fff"/>
      </g>
    </g>
    <g id="Grupo_33102" data-name="Grupo 33102" transform="translate(276.891 266.382)">
      <path id="Trazado_81504" data-name="Trazado 81504" d="M292.956,325.685a11.25,11.25,0,0,1-5.508-1.317l-37.029-21.377a3.588,3.588,0,0,1,0-6.757l64.32-37.135a12.192,12.192,0,0,1,11.015,0l37.029,21.378a3.588,3.588,0,0,1,0,6.758l-64.32,37.134A11.262,11.262,0,0,1,292.956,325.685Zm27.29-67.223a10.538,10.538,0,0,0-5.161,1.234l-64.32,37.135a2.917,2.917,0,0,0,0,5.563l37.029,21.377a11.413,11.413,0,0,0,10.325,0l64.32-37.134a2.918,2.918,0,0,0,0-5.564L325.407,259.7A10.537,10.537,0,0,0,320.245,258.463Z" transform="translate(-248.038 -228.551)" fill="#393939"/>
      <g id="Grupo_33101" data-name="Grupo 33101" transform="translate(0.525)">
        <path id="Trazado_81505" data-name="Trazado 81505" d="M364.914,274.021h0l0-17.753-22.434,2.993-16.8-9.7a11.791,11.791,0,0,0-10.67,0l-30.1,17.379L248.48,271.8v18.076l.014,0a3.786,3.786,0,0,0,2.193,2.983l37.028,21.378a11.791,11.791,0,0,0,10.67,0l64.32-37.135a3.791,3.791,0,0,0,2.192-2.972l.017,0Z" transform="translate(-248.477 -230.4)" fill="url(#linear-gradient-3)"/>
        <path id="Trazado_81506" data-name="Trazado 81506" d="M362.705,255.969l-37.029-21.378a11.791,11.791,0,0,0-10.67,0l-64.318,37.134c-2.947,1.7-2.947,4.46,0,6.161l37.028,21.378a11.791,11.791,0,0,0,10.67,0l64.32-37.134C365.652,260.429,365.652,257.67,362.705,255.969Z" transform="translate(-248.478 -233.315)" fill="url(#linear-gradient-2)"/>
        <path id="Trazado_81507" data-name="Trazado 81507" d="M362.7,256.947l-64.32,37.134a11.791,11.791,0,0,1-10.67,0L250.687,272.7a4.087,4.087,0,0,1-2.146-2.542c-.276,1.287.435,2.631,2.146,3.619l37.028,21.378a11.791,11.791,0,0,0,10.67,0l64.32-37.134c1.711-.988,2.42-2.332,2.145-3.619A4.085,4.085,0,0,1,362.7,256.947Z" transform="translate(-248.477 -229.209)" fill="#fff"/>
        <g id="Grupo_33096" data-name="Grupo 33096" transform="translate(69.854 41.874)">
          <path id="Trazado_81508" data-name="Trazado 81508" d="M308.7,284.5l-1.753,1.012v-2.024l1.753-1.012Z" transform="translate(-306.947 -265.616)" fill="#fff"/>
          <path id="Trazado_81509" data-name="Trazado 81509" d="M311.77,282.727l-1.753,1.012v-2.024l1.753-1.012Z" transform="translate(-306.349 -265.961)" fill="#fff"/>
          <path id="Trazado_81510" data-name="Trazado 81510" d="M314.839,280.955l-1.753,1.012v-2.024l1.753-1.012Z" transform="translate(-305.752 -266.307)" fill="#fff"/>
          <path id="Trazado_81511" data-name="Trazado 81511" d="M312.33,285.837l-1.753,1.012v-2.024l1.753-1.012Z" transform="translate(-306.24 -265.356)" fill="#fff"/>
          <path id="Trazado_81512" data-name="Trazado 81512" d="M315.033,284.276l-1.753,1.012v-2.024l1.753-1.012Z" transform="translate(-305.714 -265.66)" fill="#fff"/>
          <path id="Trazado_81513" data-name="Trazado 81513" d="M324.685,275.27l-1.753,1.012v-2.024l1.753-1.012Z" transform="translate(-303.835 -267.414)" fill="#fff"/>
          <path id="Trazado_81514" data-name="Trazado 81514" d="M333.142,270.388l-1.753,1.012v-2.024l1.753-1.012Z" transform="translate(-302.188 -268.364)" fill="#fff"/>
          <path id="Trazado_81515" data-name="Trazado 81515" d="M317.909,279.183l-1.753,1.012v-2.024l1.753-1.012Z" transform="translate(-305.154 -266.652)" fill="#fff"/>
        </g>
        <g id="Grupo_33100" data-name="Grupo 33100" transform="translate(55.323 9.358)">
          <g id="Grupo_33097" data-name="Grupo 33097" transform="translate(0 8.482)">
            <path id="Trazado_81516" data-name="Trazado 81516" d="M297.195,248.247l26.161,15.07-2.411,1.395-26.161-15.07Z" transform="translate(-294.784 -248.247)" fill="#21587b"/>
            <path id="Trazado_81517" data-name="Trazado 81517" d="M295.692,250.165l1.643-.951,25.253,14.547.768-.444L297.2,248.247l-2.411,1.4Z" transform="translate(-294.784 -248.247)" fill="#fff"/>
          </g>
          <g id="Grupo_33098" data-name="Grupo 33098" transform="translate(7.329 4.241)">
            <path id="Trazado_81518" data-name="Trazado 81518" d="M303.329,244.7l26.161,15.07-2.411,1.395-26.161-15.07Z" transform="translate(-300.919 -244.697)" fill="#21587b"/>
            <path id="Trazado_81519" data-name="Trazado 81519" d="M301.827,246.615l1.643-.951,25.253,14.547.767-.444L303.33,244.7l-2.411,1.395Z" transform="translate(-300.919 -244.697)" fill="#fff"/>
          </g>
          <g id="Grupo_33099" data-name="Grupo 33099" transform="translate(14.658)">
            <path id="Trazado_81520" data-name="Trazado 81520" d="M309.464,241.148l26.161,15.07-2.411,1.4-26.161-15.07Z" transform="translate(-307.053 -241.148)" fill="#21587b"/>
            <path id="Trazado_81521" data-name="Trazado 81521" d="M307.961,243.066l1.643-.951,25.253,14.547.767-.444-26.161-15.07-2.411,1.4Z" transform="translate(-307.053 -241.148)" fill="#fff"/>
          </g>
        </g>
      </g>
      <path id="Trazado_81522" data-name="Trazado 81522" d="M289.9,286.831a3.83,3.83,0,0,1-1.883-.441L263.1,272.007a1.488,1.488,0,0,1-.846-1.273,1.94,1.94,0,0,1,1.129-1.572l24.345-14.055a4.7,4.7,0,0,1,4.277-.165l24.912,14.383a1.491,1.491,0,0,1,.846,1.274,1.938,1.938,0,0,1-1.129,1.572L292.29,286.226A4.9,4.9,0,0,1,289.9,286.831Zm-1.556-1a4.1,4.1,0,0,0,3.624-.165l24.345-14.056c.5-.29.8-.667.8-1.007a.886.886,0,0,0-.521-.709l-24.913-14.383a4.1,4.1,0,0,0-3.624.164L263.71,269.726c-.51.3-.8.662-.805,1.007a.9.9,0,0,0,.522.71Z" transform="translate(-245.27 -229.19)" fill="#21587b"/>
      <path id="Trazado_81523" data-name="Trazado 81523" d="M279.243,296.575l-20.559-11.869a2.129,2.129,0,0,1-.888-1.7v-1.526c0-.655.4-.956.888-.673l20.559,11.87a2.129,2.129,0,0,1,.888,1.7V295.9C280.131,296.557,279.733,296.858,279.243,296.575Z" transform="translate(-246.138 -224.088)" fill="#21587b"/>
    </g>
    <g id="Grupo_33109" data-name="Grupo 33109" transform="translate(99.852 164.929)">
      <path id="Trazado_81524" data-name="Trazado 81524" d="M144.883,240.9a11.383,11.383,0,0,1-5.564-1.327L102.292,218.19a3.7,3.7,0,0,1,0-6.953L166.61,174.1a12.31,12.31,0,0,1,11.126,0l37.03,21.378a3.7,3.7,0,0,1,0,6.954l-64.318,37.135A11.384,11.384,0,0,1,144.883,240.9Zm27.291-67.222a10.435,10.435,0,0,0-5.106,1.22L102.749,212.03a2.808,2.808,0,0,0,0,5.367l37.028,21.378a11.3,11.3,0,0,0,10.214,0l64.318-37.134a2.809,2.809,0,0,0,0-5.368L177.28,174.895A10.431,10.431,0,0,0,172.174,173.675Z" transform="translate(-99.852 -143.651)" fill="#393939"/>
      <g id="Grupo_33108" data-name="Grupo 33108" transform="translate(0.64)">
        <path id="Trazado_81525" data-name="Trazado 81525" d="M216.824,189.1h0l-.006-17.753-22.434,2.993-16.8-9.7a11.791,11.791,0,0,0-10.67,0l-30.1,17.379-36.424,4.859v18.076l.013,0a3.786,3.786,0,0,0,2.193,2.983l37.029,21.378a11.792,11.792,0,0,0,10.67,0l64.318-37.135a3.786,3.786,0,0,0,2.192-2.972l.018,0Z" transform="translate(-100.387 -145.482)" fill="url(#linear-gradient-3)"/>
        <path id="Trazado_81526" data-name="Trazado 81526" d="M214.614,171.051l-37.029-21.378a11.791,11.791,0,0,0-10.67,0L102.6,186.807c-2.946,1.7-2.946,4.46,0,6.161l37.029,21.378a11.791,11.791,0,0,0,10.67,0l64.318-37.134C217.56,175.511,217.56,172.752,214.614,171.051Z" transform="translate(-100.387 -148.397)" fill="url(#linear-gradient-2)"/>
        <path id="Trazado_81527" data-name="Trazado 81527" d="M214.613,172.029l-64.318,37.134a11.791,11.791,0,0,1-10.67,0L102.6,187.785a4.09,4.09,0,0,1-2.146-2.542c-.276,1.287.435,2.631,2.146,3.619l37.029,21.378a11.791,11.791,0,0,0,10.67,0l64.318-37.134c1.711-.988,2.422-2.332,2.146-3.619A4.09,4.09,0,0,1,214.613,172.029Z" transform="translate(-100.387 -144.291)" fill="#fff"/>
        <g id="Grupo_33103" data-name="Grupo 33103" transform="translate(69.854 41.874)">
          <path id="Trazado_81528" data-name="Trazado 81528" d="M160.61,199.581l-1.753,1.012v-2.024l1.753-1.012Z" transform="translate(-158.857 -180.699)" fill="#fff"/>
          <path id="Trazado_81529" data-name="Trazado 81529" d="M163.679,197.809l-1.753,1.012V196.8l1.753-1.012Z" transform="translate(-158.259 -181.044)" fill="#fff"/>
          <path id="Trazado_81530" data-name="Trazado 81530" d="M166.749,196.037,165,197.049v-2.024l1.753-1.012Z" transform="translate(-157.661 -181.389)" fill="#fff"/>
          <path id="Trazado_81531" data-name="Trazado 81531" d="M164.239,200.919l-1.753,1.012v-2.024l1.753-1.012Z" transform="translate(-158.15 -180.438)" fill="#fff"/>
          <path id="Trazado_81532" data-name="Trazado 81532" d="M166.942,199.358l-1.753,1.012v-2.024l1.753-1.012Z" transform="translate(-157.624 -180.742)" fill="#fff"/>
          <path id="Trazado_81533" data-name="Trazado 81533" d="M176.595,190.352l-1.753,1.012V189.34l1.753-1.012Z" transform="translate(-155.744 -182.496)" fill="#fff"/>
          <path id="Trazado_81534" data-name="Trazado 81534" d="M185.051,185.47l-1.753,1.012v-2.024l1.753-1.012Z" transform="translate(-154.098 -183.446)" fill="#fff"/>
          <path id="Trazado_81535" data-name="Trazado 81535" d="M169.819,194.265l-1.753,1.012v-2.024l1.753-1.012Z" transform="translate(-157.063 -181.734)" fill="#fff"/>
        </g>
        <g id="Grupo_33107" data-name="Grupo 33107" transform="translate(55.323 9.358)">
          <g id="Grupo_33104" data-name="Grupo 33104" transform="translate(0 8.482)">
            <path id="Trazado_81536" data-name="Trazado 81536" d="M149.1,163.329l26.161,15.07-2.411,1.4-26.161-15.07Z" transform="translate(-146.694 -163.329)" fill="#21587b"/>
            <path id="Trazado_81537" data-name="Trazado 81537" d="M147.6,165.247l1.643-.951L174.5,178.843l.767-.444L149.1,163.329l-2.411,1.4Z" transform="translate(-146.694 -163.329)" fill="#fff"/>
          </g>
          <g id="Grupo_33105" data-name="Grupo 33105" transform="translate(7.329 4.241)">
            <path id="Trazado_81538" data-name="Trazado 81538" d="M155.239,159.78l26.161,15.07-2.411,1.395-26.161-15.07Z" transform="translate(-152.828 -159.779)" fill="#21587b"/>
            <path id="Trazado_81539" data-name="Trazado 81539" d="M153.736,161.7l1.643-.951,25.253,14.547.767-.444-26.161-15.07-2.411,1.4Z" transform="translate(-152.828 -159.779)" fill="#fff"/>
          </g>
          <g id="Grupo_33106" data-name="Grupo 33106" transform="translate(14.658)">
            <path id="Trazado_81540" data-name="Trazado 81540" d="M161.374,156.23l26.161,15.07-2.411,1.395-26.161-15.07Z" transform="translate(-158.963 -156.23)" fill="#21587b"/>
            <path id="Trazado_81541" data-name="Trazado 81541" d="M159.871,158.148l1.643-.951,25.253,14.547.767-.444-26.161-15.07-2.411,1.395Z" transform="translate(-158.963 -156.23)" fill="#fff"/>
          </g>
        </g>
      </g>
      <path id="Trazado_81542" data-name="Trazado 81542" d="M141.8,201.913a3.831,3.831,0,0,1-1.883-.441L115.01,187.089a1.488,1.488,0,0,1-.846-1.274,1.94,1.94,0,0,1,1.129-1.572l24.345-14.055a4.693,4.693,0,0,1,4.277-.165l24.912,14.383a1.488,1.488,0,0,1,.846,1.274,1.938,1.938,0,0,1-1.129,1.572L144.2,201.308A4.9,4.9,0,0,1,141.8,201.913Zm-1.555-1a4.1,4.1,0,0,0,3.624-.165l24.345-14.056c.5-.29.805-.667.805-1.007a.888.888,0,0,0-.522-.708l-24.912-14.383a4.107,4.107,0,0,0-3.625.164l-24.345,14.056c-.51.3-.8.662-.8,1.007a.894.894,0,0,0,.521.71Z" transform="translate(-97.065 -144.272)" fill="#21587b"/>
      <path id="Trazado_81543" data-name="Trazado 81543" d="M131.152,211.657l-20.557-11.869a2.126,2.126,0,0,1-.889-1.7v-1.526c0-.655.4-.956.889-.673l20.557,11.869a2.126,2.126,0,0,1,.889,1.7v1.527C132.041,211.639,131.643,211.94,131.152,211.657Z" transform="translate(-97.933 -139.17)" fill="#21587b"/>
    </g>
  </g>
</svg>
